# This file uses centimeters as units for non-parametric coordinates.

mtllib ampelmast.mtl
v 0.142013 8.574429 0.009164
v 4.808237 5.795722 0.009164
v 0.151390 8.590177 0.009164
v 4.817611 5.811471 0.009164
v 0.151390 8.590177 -0.009164
v 4.817611 5.811471 -0.009164
v 0.142013 8.574429 -0.009164
v 4.808237 5.795722 -0.009164
v 4.802246 5.785667 -0.020869
v 4.802246 5.785667 0.020869
v 4.823601 5.821529 -0.020869
v 4.823601 5.821529 0.020869
v 4.981743 5.678782 -0.020869
v 4.981743 5.678782 0.020869
v 5.003098 5.714644 -0.020869
v 5.003098 5.714644 0.020869
v 0.136451 8.568458 -0.009166
v 0.136451 8.568465 0.009162
v 0.136451 8.618339 0.009168
v 0.136451 8.618330 -0.009160
v 0.119179 8.568459 -0.009167
v 0.119178 8.568465 0.009162
v 0.119178 8.618338 0.009168
v 0.119179 8.618330 -0.009161
v 0.112353 -0.226824 -0.112353
v 0.000000 -0.226824 -0.158891
v -0.112353 -0.226824 -0.112353
v -0.158891 -0.226824 0.000000
v -0.112353 -0.226824 0.112353
v 0.000000 -0.226824 0.158891
v 0.112353 -0.226824 0.112353
v 0.158891 -0.226824 0.000000
v 0.112353 5.839898 -0.112353
v 0.000000 5.839898 -0.158891
v -0.112353 5.839898 -0.112353
v -0.158891 5.839898 0.000000
v -0.112353 5.839898 0.112353
v 0.000000 5.839898 0.158891
v 0.112353 5.839898 0.112353
v 0.158891 5.839898 0.000000
v 0.073057 5.926996 -0.073057
v 0.000000 5.926996 -0.103318
v -0.073057 5.926996 -0.073057
v -0.103318 5.926996 0.000000
v -0.073057 5.926996 0.073057
v 0.000000 5.926996 0.103318
v 0.073057 5.926996 0.073057
v 0.103318 5.926996 0.000000
v 0.073057 9.242028 -0.073057
v 0.000000 9.242028 -0.103318
v 0.000000 9.242028 -0.000000
v -0.073057 9.242028 -0.073075
v -0.103318 9.242028 -0.000018
v -0.073057 9.242028 0.073057
v 0.000000 9.242028 0.103318
v 0.073057 9.242028 0.073075
v 0.103318 9.242028 0.000018
v 0.073057 8.546845 -0.073057
v 0.103318 8.546845 0.000013
v 0.073057 8.546845 0.073070
v 0.000000 8.546845 0.103318
v -0.073057 8.546845 0.073057
v -0.103318 8.546845 -0.000013
v -0.073057 8.546845 -0.073070
v 0.000000 8.546845 -0.103318
v 0.073057 8.651847 -0.073057
v 0.103318 8.651847 0.000013
v 0.073057 8.651847 0.073070
v 0.000000 8.651847 0.103318
v -0.073057 8.651847 0.073057
v -0.103318 8.651847 -0.000013
v -0.073057 8.651847 -0.073070
v 0.000000 8.651847 -0.103318
v 0.090040 8.546845 -0.090039
v 0.127336 8.546845 0.000013
v 0.090040 8.651847 -0.090039
v 0.127336 8.651847 0.000014
v 0.090038 8.546845 0.090053
v 0.090038 8.651847 0.090054
v -0.000002 8.546845 0.127336
v -0.000002 8.651847 0.127336
v -0.090040 8.546845 0.090039
v -0.090040 8.651847 0.090039
v -0.127336 8.546845 -0.000013
v -0.127336 8.651847 -0.000014
v -0.090038 8.546845 -0.090053
v -0.090038 8.651847 -0.090054
v 0.000002 8.546845 -0.127336
v 0.000002 8.651847 -0.127336
v 0.056192 5.642310 -0.127672
v 0.054839 5.642310 -0.075744
v 0.054839 5.739179 -0.075744
v 0.056192 5.739179 -0.127672
v 0.056192 5.642310 0.127672
v 0.054839 5.642310 0.075744
v 0.054839 5.739179 0.075744
v 0.056192 5.739179 0.127672
v 6.140490 5.642310 -0.006113
v 6.140490 5.642310 -0.058042
v 6.140490 5.739179 -0.058042
v 6.140490 5.739179 -0.006113
v 6.140490 5.642310 0.006113
v 6.140490 5.642310 0.058042
v 6.140490 5.739179 0.006113
v 6.140490 5.739179 0.058042
v 6.140490 5.622801 -0.065103
v 6.178301 5.622801 -0.065103
v 6.178301 5.622801 0.000000
v 6.140490 5.622801 0.000000
v 6.140490 5.753006 -0.065103
v 6.178301 5.753006 -0.065103
v 6.178301 5.622801 0.065103
v 6.140490 5.622801 0.065103
v 6.178301 5.753006 0.000000
v 6.140490 5.753006 0.000000
v 6.178301 5.753006 0.065103
v 6.140490 5.753006 0.065103
vt 0.347573 0.364913
vt 0.313681 0.369492
vt 0.315471 0.369492
vt 0.350144 0.369203
vt 0.315471 0.371282
vt 0.348490 0.373741
vt 0.313682 0.371282
vt 0.347827 0.362541
vt 0.341092 0.368345
vt 0.337017 0.376498
vt 0.337017 0.372422
vt 0.337016 0.368346
vt 0.345343 0.362540
vt 0.345343 0.364331
vt 0.345344 0.369202
vt 0.345344 0.370992
vt 0.316615 0.376501
vt 0.316614 0.364273
vt 0.316615 0.372425
vt 0.316614 0.368349
vt 0.347030 0.364330
vt 0.347030 0.362540
vt 0.347031 0.369201
vt 0.347031 0.370991
vt 0.187240 0.010982
vt 0.199131 0.010980
vt 0.211023 0.010978
vt 0.222915 0.010981
vt 0.234808 0.010990
vt 0.246701 0.011005
vt 0.258592 0.011025
vt 0.270482 0.011049
vt 0.305393 0.339671
vt 0.313118 0.339582
vt 0.301812 0.349073
vt 0.320844 0.339518
vt 0.328572 0.339476
vt 0.336301 0.339456
vt 0.344027 0.339462
vt 0.351749 0.339496
vt 0.359480 0.339548
vt 0.187246 0.604003
vt 0.199052 0.603866
vt 0.311495 0.011230
vt 0.303764 0.011264
vt 0.210838 0.603800
vt 0.319226 0.011194
vt 0.222615 0.603781
vt 0.326957 0.011156
vt 0.234391 0.603800
vt 0.334688 0.011115
vt 0.246173 0.603867
vt 0.342419 0.011071
vt 0.257975 0.604010
vt 0.350150 0.011026
vt 0.269819 0.604278
vt 0.296032 0.011298
vt 0.312704 0.267408
vt 0.304913 0.267437
vt 0.320503 0.267370
vt 0.328304 0.267329
vt 0.336107 0.267286
vt 0.343905 0.267239
vt 0.351695 0.267183
vt 0.297155 0.267420
vt 0.360847 0.269194
vt 0.304595 0.269564
vt 0.304441 0.279791
vt 0.361032 0.279714
vt 0.351956 0.269366
vt 0.352221 0.279577
vt 0.343949 0.269380
vt 0.344144 0.279608
vt 0.336096 0.269415
vt 0.336223 0.279650
vt 0.328271 0.269456
vt 0.328330 0.279693
vt 0.320448 0.269497
vt 0.320439 0.279734
vt 0.312600 0.269535
vt 0.312517 0.279769
vt 0.359804 0.281824
vt 0.304606 0.281967
vt 0.352000 0.281699
vt 0.344099 0.281722
vt 0.336196 0.281765
vt 0.328297 0.281808
vt 0.320400 0.281850
vt 0.312500 0.281896
vt 0.162261 0.011054
vt 0.138269 0.010978
vt 0.147729 0.010979
vt 0.152801 0.011053
vt 0.162233 0.011052
vt 0.167305 0.010978
vt 0.147701 0.010978
vt 0.152773 0.011052
vt 0.320268 0.356086
vt 0.320267 0.351014
vt 0.329727 0.351013
vt 0.329728 0.356085
vt 0.320268 0.356083
vt 0.320269 0.351012
vt 0.329728 0.356083
vt 0.329728 0.351012
vt 0.318362 0.350325
vt 0.347486 0.350322
vt 0.347487 0.356680
vt 0.318362 0.356683
vt 0.331078 0.350324
vt 0.334770 0.350323
vt 0.347486 0.350324
vt 0.318363 0.350322
vt 0.331078 0.356680
vt 0.334770 0.356681
vt 0.334771 0.350323
vt 0.331078 0.350323
vt 0.175401 0.604245
vt 0.295820 0.269451
vt 0.295532 0.279974
vt 0.296801 0.282165
vt 0.359449 0.267088
vt 0.263688 0.614561
vt 0.175354 0.010989
vt 0.167300 0.605319
vt 0.162229 0.605261
vt 0.147699 0.605319
vt 0.152769 0.605261
vt 0.292367 0.345487
vt 0.297666 0.339816
vt 0.292613 0.353232
vt 0.298260 0.358526
vt 0.305990 0.358273
vt 0.311273 0.352635
vt 0.311024 0.344924
vt 0.147671 0.605320
vt 0.152741 0.605263
vt 0.167272 0.605322
vt 0.162201 0.605263
vt 0.347485 0.356681
vt 0.334771 0.356681
vt 0.318363 0.356680
vt 0.331078 0.356682
vt 0.334771 0.346631
vt 0.347486 0.346631
vt 0.347486 0.346629
vt 0.334770 0.346631
vt 0.351178 0.350324
vt 0.351178 0.356682
vt 0.351179 0.356679
vt 0.351179 0.350321
vt 0.138239 0.605319
vt 0.138211 0.605319
vt 0.138241 0.010978
vt 0.167333 0.010981
vt 0.337015 0.364270
vt 0.341093 0.372421
vt 0.277556 0.541342
vt 0.282925 0.541344
vt 0.279345 0.541342
vt 0.281135 0.541343
vt 0.312538 0.368349
vt 0.312539 0.372425
vt 0.316613 0.360197
vt 0.337015 0.360194
vt 0.284715 0.541344
vt 0.284798 0.010979
vt 0.277639 0.010978
vt 0.283009 0.010979
vt 0.279429 0.010978
vt 0.281219 0.010978
vt 0.350144 0.370993
vt 0.348489 0.366451
vt 0.347826 0.364331
vt 0.347574 0.375279
vt 0.347031 0.375863
vt 0.345344 0.375863
vt 0.181321 0.615164
vt 0.357881 0.010978
vt 0.190000 0.613797
vt 0.255233 0.613371
vt 0.244840 0.613328
vt 0.233755 0.613413
vt 0.222439 0.613473
vt 0.211158 0.613512
vt 0.200194 0.613566
vn -0.361784 -0.607537 0.707115
vn -0.361815 -0.607589 0.707054
vn 0.361763 0.607501 0.707156
vn 0.361794 0.607553 0.707095
vn 0.361763 0.607501 -0.707156
vn 0.361794 0.607553 -0.707095
vn -0.361815 -0.607589 -0.707054
vn -0.361784 -0.607537 -0.707115
vn 0.859206 -0.511630 0.000000
vn 0.859206 -0.511630 0.000000
vn 0.859206 -0.511630 0.000000
vn 0.859206 -0.511630 0.000000
vn -0.859057 0.511879 0.000000
vn -0.859057 0.511879 0.000000
vn -0.859057 0.511879 0.000000
vn -0.859057 0.511879 0.000000
vn -0.859234 0.511583 0.000127
vn -0.859234 0.511583 0.000127
vn -0.859234 0.511583 0.000127
vn -0.859234 0.511583 0.000127
vn -0.859194 0.511650 0.000000
vn -0.859194 0.511650 0.000000
vn -0.859194 0.511650 0.000000
vn -0.859194 0.511650 0.000000
vn -0.859234 0.511583 -0.000127
vn -0.859234 0.511583 -0.000127
vn -0.859234 0.511583 -0.000127
vn -0.859234 0.511583 -0.000127
vn -0.511633 -0.859204 0.000000
vn -0.511633 -0.859204 0.000000
vn -0.511633 -0.859204 0.000000
vn -0.511633 -0.859204 0.000000
vn 0.000000 0.000000 -1.000000
vn 0.000000 0.000000 -1.000000
vn 0.000000 0.000000 -1.000000
vn 0.000000 0.000000 -1.000000
vn 0.511629 0.859207 0.000000
vn 0.511629 0.859207 0.000000
vn 0.511629 0.859207 0.000000
vn 0.511629 0.859207 0.000000
vn -0.000000 0.000000 1.000000
vn -0.000000 0.000000 1.000000
vn -0.000000 0.000000 1.000000
vn -0.000000 0.000000 1.000000
vn 0.731473 -0.681870 0.000149
vn 0.731473 -0.681870 0.000149
vn 0.731473 -0.681870 0.000149
vn 0.731473 -0.681870 0.000149
vn -0.000011 -0.000093 1.000000
vn -0.000011 -0.000093 1.000000
vn -0.000033 -0.000120 1.000000
vn -0.000031 -0.000119 1.000000
vn 0.883371 0.468675 -0.000077
vn 0.883371 0.468675 -0.000077
vn 0.883371 0.468675 -0.000077
vn 0.883370 0.468675 -0.000077
vn 0.000011 0.000093 -1.000000
vn 0.000011 0.000093 -1.000000
vn 0.000031 0.000119 -1.000000
vn 0.000033 0.000120 -1.000000
vn -0.000028 -1.000000 0.000329
vn -0.000028 -1.000000 0.000329
vn -0.000028 -1.000000 0.000329
vn -0.000028 -1.000000 0.000329
vn -0.000036 -0.000124 1.000000
vn -0.000036 -0.000124 1.000000
vn -0.000028 1.000000 -0.000424
vn -0.000028 1.000000 -0.000424
vn -0.000028 1.000000 -0.000424
vn -0.000028 1.000000 -0.000424
vn 0.000036 0.000124 -1.000000
vn 0.000036 0.000124 -1.000000
vn 0.707107 0.000000 -0.707107
vn 0.707107 0.000000 -0.707107
vn 0.000000 0.000000 -1.000000
vn 0.000000 0.000000 -1.000000
vn -0.707107 0.000000 -0.707107
vn -0.707107 0.000000 -0.707107
vn -1.000000 0.000000 0.000000
vn -1.000000 0.000000 0.000000
vn -0.707107 0.000000 0.707107
vn -0.707107 0.000000 0.707107
vn -0.000000 0.000000 1.000000
vn -0.000000 0.000000 1.000000
vn 0.707107 0.000000 0.707107
vn 0.707107 0.000000 0.707107
vn 1.000000 0.000000 -0.000000
vn 1.000000 0.000000 -0.000000
vn 0.000000 1.000000 0.000000
vn 0.000000 1.000000 0.000000
vn 0.000000 1.000000 0.000000
vn 0.000000 1.000000 0.000000
vn 0.000000 1.000000 0.000000
vn 0.000000 1.000000 0.000000
vn 0.000000 1.000000 0.000000
vn 0.000000 1.000000 0.000000
vn 0.000000 1.000000 0.000000
vn 0.596105 0.537885 -0.596103
vn -0.000000 0.537886 -0.843017
vn -0.000000 0.537886 -0.843017
vn 0.596105 0.537885 -0.596103
vn -0.596104 0.537885 -0.596103
vn -0.596104 0.537885 -0.596103
vn -0.843018 0.537885 0.000000
vn -0.843018 0.537885 0.000000
vn -0.596105 0.537885 0.596103
vn -0.596105 0.537885 0.596103
vn -0.000000 0.537885 0.843018
vn -0.000000 0.537885 0.843018
vn 0.596103 0.537884 0.596105
vn 0.596104 0.537884 0.596105
vn 0.843018 0.537885 -0.000000
vn 0.843018 0.537885 -0.000000
vn 0.707128 0.000000 -0.707085
vn 0.000043 -0.000001 -1.000000
vn 0.000043 -0.000001 -1.000000
vn 0.707128 0.000000 -0.707085
vn -0.707086 -0.000002 -0.707128
vn -0.707085 -0.000002 -0.707129
vn -1.000000 -0.000000 0.000001
vn -1.000000 -0.000000 -0.000001
vn -0.707128 0.000001 0.707085
vn -0.707128 0.000001 0.707085
vn -0.000043 -0.000001 1.000000
vn -0.000043 -0.000001 1.000000
vn 0.707086 -0.000002 0.707128
vn 0.707084 -0.000002 0.707129
vn 1.000000 -0.000001 -0.000001
vn 1.000000 -0.000001 0.000001
vn 1.000000 -0.000000 0.000010
vn 0.707151 0.000000 -0.707062
vn 0.707151 0.000000 -0.707062
vn 1.000000 -0.000000 0.000012
vn 0.707066 -0.000002 0.707148
vn 0.707065 -0.000002 0.707149
vn -0.000080 -0.000001 1.000000
vn -0.000080 -0.000001 1.000000
vn -0.707151 0.000000 0.707062
vn -0.707151 0.000000 0.707062
vn -1.000000 -0.000001 -0.000012
vn -1.000000 -0.000001 -0.000014
vn -0.707065 -0.000002 -0.707149
vn -0.707064 -0.000002 -0.707150
vn 0.000080 -0.000001 -1.000000
vn 0.000080 -0.000001 -1.000000
vn 1.000000 -0.000001 -0.000002
vn 0.707160 0.000001 -0.707053
vn 0.707160 0.000001 -0.707053
vn 1.000000 -0.000001 0.000002
vn 0.707054 -0.000004 0.707159
vn 0.707052 -0.000004 0.707161
vn -0.000107 -0.000002 1.000000
vn -0.000107 -0.000002 1.000000
vn -0.707160 0.000001 0.707053
vn -0.707160 0.000001 0.707053
vn -1.000000 -0.000001 0.000002
vn -1.000000 -0.000001 -0.000002
vn -0.707054 -0.000004 -0.707159
vn -0.707052 -0.000004 -0.707161
vn 0.000107 -0.000002 -1.000000
vn 0.000107 -0.000002 -1.000000
vn 0.000000 -1.000000 -0.000000
vn 0.000000 -1.000000 0.000008
vn 0.000000 -1.000000 0.000008
vn 0.000000 -1.000000 -0.000000
vn 0.000000 1.000000 -0.000017
vn 0.000000 1.000000 -0.000004
vn 0.000000 1.000000 -0.000004
vn 0.000000 1.000000 -0.000017
vn 0.000000 -1.000000 -0.000009
vn 0.000000 -1.000000 -0.000009
vn 0.000000 1.000000 0.000004
vn 0.000000 1.000000 0.000004
vn 0.000000 -1.000000 0.000006
vn 0.000000 -1.000000 0.000006
vn 0.000000 1.000000 -0.000011
vn 0.000000 1.000000 -0.000011
vn 0.000000 -1.000000 0.000027
vn 0.000000 -1.000000 0.000027
vn 0.000000 1.000000 -0.000015
vn 0.000000 1.000000 -0.000015
vn 0.000000 -1.000000 0.000004
vn 0.000000 -1.000000 0.000004
vn 0.000000 1.000000 0.000004
vn 0.000000 1.000000 0.000004
vn 0.000000 -1.000000 -0.000006
vn 0.000000 -1.000000 -0.000006
vn 0.000000 1.000000 0.000000
vn 0.000000 1.000000 0.000000
vn 0.000000 -1.000000 0.000009
vn 0.000000 -1.000000 0.000009
vn 0.000000 1.000000 -0.000017
vn 0.000000 1.000000 -0.000017
vn 0.000000 -1.000000 0.000000
vn 0.000000 -1.000000 0.000000
vn 0.000000 -1.000000 0.000000
vn 0.000000 -1.000000 0.000000
vn 0.011444 0.000000 -0.999934
vn 0.011444 0.000000 -0.999934
vn 0.011444 0.000000 -0.999934
vn 0.011444 0.000000 -0.999934
vn -0.011441 0.000000 0.999935
vn -0.011441 0.000000 0.999935
vn -0.011441 0.000000 0.999935
vn -0.011441 0.000000 0.999935
vn 0.000000 1.000000 0.000000
vn 0.000000 1.000000 0.000000
vn 0.000000 1.000000 0.000000
vn 0.000000 1.000000 0.000000
vn 0.000000 -1.000000 0.000000
vn 0.000000 -1.000000 0.000000
vn 0.000000 -1.000000 0.000000
vn 0.000000 -1.000000 0.000000
vn -0.011441 0.000000 -0.999935
vn -0.011441 0.000000 -0.999935
vn -0.011441 0.000000 -0.999935
vn -0.011441 0.000000 -0.999935
vn 0.011444 0.000000 0.999934
vn 0.011444 0.000000 0.999934
vn 0.011444 0.000000 0.999934
vn 0.011444 0.000000 0.999934
vn 0.000000 1.000000 0.000000
vn 0.000000 1.000000 0.000000
vn 0.000000 1.000000 0.000000
vn 0.000000 1.000000 0.000000
vn 0.000000 -1.000000 0.000000
vn 0.000000 -1.000000 0.000000
vn 0.000000 -1.000000 0.000000
vn 0.000000 -1.000000 0.000000
vn 0.000000 0.000000 -1.000000
vn 0.000000 0.000000 -1.000000
vn 0.000000 0.000000 -1.000000
vn 0.000000 0.000000 -1.000000
vn 0.000000 -1.000000 0.000000
vn 0.000000 -1.000000 0.000000
vn 0.000000 1.000000 0.000000
vn 0.000000 1.000000 0.000000
vn 0.000000 1.000000 0.000000
vn 0.000000 1.000000 0.000000
vn 0.000000 0.000000 1.000000
vn 0.000000 0.000000 1.000000
vn 0.000000 0.000000 1.000000
vn 0.000000 0.000000 1.000000
vn 0.000000 1.000000 0.000000
vn 0.000000 1.000000 0.000000
vn -1.000000 0.000000 0.000000
vn -1.000000 0.000000 0.000000
vn -1.000000 0.000000 0.000000
vn -1.000000 0.000000 0.000000
vn -1.000000 0.000000 0.000000
vn -1.000000 0.000000 0.000000
vn -1.000000 0.000000 0.000000
vn -1.000000 0.000000 0.000000
vn -1.000000 0.000000 0.000000
vn -1.000000 0.000000 0.000000
vn -1.000000 0.000000 0.000000
vn -1.000000 0.000000 0.000000
vn -1.000000 0.000000 0.000000
vn -1.000000 0.000000 0.000000
vn -1.000000 0.000000 0.000000
vn -1.000000 0.000000 0.000000
vn -1.000000 0.000000 0.000000
vn -1.000000 0.000000 0.000000
vn -1.000000 0.000000 0.000000
vn -1.000000 0.000000 0.000000
vn -1.000000 0.000000 0.000000
vn -1.000000 0.000000 0.000000
vn 1.000000 0.000000 0.000000
vn 1.000000 0.000000 0.000000
vn 1.000000 0.000000 0.000000
vn 1.000000 0.000000 0.000000
vn 1.000000 0.000000 0.000000
vn 1.000000 0.000000 0.000000
vn 1.000000 0.000000 0.000000
vn 1.000000 0.000000 0.000000
s 1
usemtl aiStandardSurface1SG
f 1/169/1 2/159/2 4/161/3 3/171/4
f 3/171/4 4/161/3 6/160/5 5/170/6
f 5/170/6 6/160/5 8/158/7 7/168/8
f 7/167/8 8/166/7 2/159/2 1/169/1
s off
f 14/9/9 13/157/10 15/11/11 16/12/12
f 2/2/13 8/7/14 9/163/15 10/162/16
f 8/7/17 6/5/18 11/19/19 9/163/20
f 6/5/21 4/3/22 12/20/23 11/19/24
f 4/3/25 2/2/26 10/162/27 12/20/28
f 10/18/29 9/164/30 13/165/31 14/156/32
f 9/17/33 11/19/34 15/11/35 13/10/36
f 11/19/37 12/20/38 16/12/39 15/11/40
f 12/20/41 10/18/42 14/156/43 16/12/44
f 7/8/45 1/174/46 18/21/47 17/22/48
s 2
f 1/1/49 3/173/50 19/23/51 18/21/52
s off
f 3/4/53 5/172/54 20/24/55 19/23/56
s 3
f 5/6/57 7/175/58 17/176/59 20/24/60
s off
f 17/22/61 18/21/62 22/14/63 21/13/64
s 2
f 18/21/52 19/23/51 23/15/65 22/14/66
s off
f 19/23/67 20/24/68 24/16/69 23/15/70
s 3
f 20/24/60 17/176/59 21/177/71 24/16/72
s 4
f 33/42/73 25/25/74 26/26/75 34/43/76
f 26/26/75 27/27/77 35/46/78 34/43/76
f 27/27/77 28/28/79 36/48/80 35/46/78
f 28/28/79 29/29/81 37/50/82 36/48/80
f 29/29/81 30/30/83 38/52/84 37/50/82
f 30/30/83 31/31/85 39/54/86 38/52/84
f 31/31/85 32/32/87 40/56/88 39/54/86
f 32/124/87 25/25/74 33/42/73 40/118/88
s 5
f 49/33/89 50/135/90 51/35/91
f 50/135/90 52/134/92 51/35/91
f 52/134/92 53/133/93 51/35/91
f 53/133/93 54/132/94 51/35/91
f 54/132/94 55/131/95 51/35/91
f 55/131/95 56/129/96 51/35/91
f 56/129/96 57/130/97 51/35/91
f 57/130/97 49/33/89 51/35/91
s 6
f 33/42/98 34/43/99 42/186/100 41/180/101
f 34/43/99 35/46/102 43/185/103 42/186/100
f 35/46/102 36/48/104 44/184/105 43/185/103
f 36/48/104 37/50/106 45/183/107 44/184/105
f 37/50/106 38/52/108 46/182/109 45/183/107
f 38/52/108 39/54/110 47/181/111 46/182/109
f 39/54/110 40/56/112 48/123/113 47/181/111
f 40/118/112 33/42/98 41/180/101 48/178/113
s 7
f 41/45/114 42/44/115 65/58/116 58/59/117
f 42/44/115 43/47/118 64/60/119 65/58/116
f 43/47/118 44/49/120 63/61/121 64/60/119
f 44/49/120 45/51/122 62/62/123 63/61/121
f 45/51/122 46/53/124 61/63/125 62/62/123
f 46/53/124 47/55/126 60/64/127 61/63/125
f 47/55/126 48/179/128 59/122/129 60/64/127
f 48/57/128 41/45/114 58/59/117 59/65/129
s 8
f 75/119/130 74/67/131 76/68/132 77/120/133
f 78/70/134 75/66/130 77/69/133 79/71/135
f 80/72/136 78/70/134 79/71/135 81/73/137
f 82/74/138 80/72/136 81/73/137 83/75/139
f 84/76/140 82/74/138 83/75/139 85/77/141
f 86/78/142 84/76/140 85/77/141 87/79/143
f 88/80/144 86/78/142 87/79/143 89/81/145
f 74/67/131 88/80/144 89/81/145 76/68/132
s 9
f 67/121/146 66/83/147 49/33/148 57/130/149
f 68/84/150 67/82/146 57/41/149 56/40/151
f 69/85/152 68/84/150 56/40/151 55/39/153
f 70/86/154 69/85/152 55/39/153 54/38/155
f 71/87/156 70/86/154 54/38/155 53/37/157
f 72/88/158 71/87/156 53/37/157 52/36/159
f 73/89/160 72/88/158 52/36/159 50/34/161
f 66/83/147 73/89/160 50/34/161 49/33/148
s 10
f 59/65/162 58/59/163 74/67/164 75/119/165
s 11
f 66/83/166 67/121/167 77/120/168 76/68/169
s 10
f 60/64/170 59/122/162 75/66/165 78/70/171
s 11
f 67/82/167 68/84/172 79/71/173 77/69/168
s 10
f 61/63/174 60/64/170 78/70/171 80/72/175
s 11
f 68/84/172 69/85/176 81/73/177 79/71/173
s 10
f 62/62/178 61/63/174 80/72/175 82/74/179
s 11
f 69/85/176 70/86/180 83/75/181 81/73/177
s 10
f 63/61/182 62/62/178 82/74/179 84/76/183
s 11
f 70/86/180 71/87/184 85/77/185 83/75/181
s 10
f 64/60/186 63/61/182 84/76/183 86/78/187
s 11
f 71/87/184 72/88/188 87/79/189 85/77/185
s 10
f 65/58/190 64/60/186 86/78/187 88/80/191
s 11
f 72/88/188 73/89/192 89/81/193 87/79/189
s 10
f 58/59/163 65/58/190 88/80/191 74/67/164
s 11
f 73/89/192 66/83/166 76/68/169 89/81/193
s off
f 98/138/194 91/155/195 90/90/196 99/139/197
f 99/139/198 90/90/199 93/93/200 100/137/201
f 101/136/202 92/92/203 91/91/204 98/153/205
f 100/137/206 93/93/207 92/92/208 101/136/209
f 102/125/210 103/126/211 94/94/212 95/95/213
f 104/127/214 102/152/215 95/154/216 96/96/217
f 103/126/218 105/128/219 97/97/220 94/94/221
f 105/128/222 104/127/223 96/96/224 97/97/225
s 12
f 106/151/226 107/107/227 108/108/228 109/150/229
s off
f 110/147/230 111/111/231 107/107/232 106/146/233
s 12
f 109/149/229 108/140/228 112/112/234 113/148/235
s 13
f 115/143/236 114/141/237 111/111/238 110/110/239
s off
f 113/145/240 112/112/241 116/116/242 117/144/243
s 13
f 117/117/244 116/116/245 114/115/237 115/114/236
s 14
f 101/101/246 98/98/247 109/109/248 115/143/249
f 106/106/250 99/99/251 100/100/252 110/110/253
s off
f 105/105/254 103/103/255 113/113/256 117/117/257
s 14
f 115/114/249 109/142/248 102/102/258 104/104/259
f 109/109/248 98/98/247 99/99/251 106/106/250
f 110/110/253 100/100/252 101/101/246 115/143/249
s off
f 115/114/260 104/104/261 105/105/262 117/117/263
f 113/113/264 103/103/265 102/102/266 109/142/267
f 112/112/268 108/140/269 114/115/270 116/116/271
f 108/108/272 107/107/273 111/111/274 114/141/275
