# This file uses centimeters as units for non-parametric coordinates.

mtllib laterne galgen mittel.mtl
v 0.000000 6.095455 -0.082749
v -0.058512 6.095455 -0.058512
v -0.000661 6.539878 -0.076859
v -0.055008 6.539797 -0.054347
v 0.000000 6.095455 0.082749
v -0.000661 6.539878 0.076859
v -0.058512 6.095455 0.058512
v 0.082749 6.095455 0.000000
v 0.058514 6.095455 -0.058512
v 0.076198 6.539992 -0.000000
v 0.058514 6.095455 0.058512
v -0.055008 6.539797 0.054347
v 0.053687 6.539958 -0.054347
v 0.053687 6.539958 0.054347
v 0.003962 6.950713 -0.052276
v -0.077520 6.539763 -0.000000
v -0.017482 6.953709 -0.000000
v 0.055736 6.943478 -0.073929
v 0.107508 6.936244 -0.052276
v 0.003962 6.950713 0.052276
v 0.055736 6.943478 0.073929
v 0.107508 6.936244 0.052276
v 0.128953 6.933248 -0.000000
v 0.153792 7.318378 -0.050219
v 0.134521 7.326205 -0.000000
v 0.200321 7.299480 -0.071021
v -0.082749 6.095455 0.000000
v 0.246850 7.280584 -0.050219
v 0.153792 7.318378 0.050219
v 0.246850 7.280584 0.050219
v 0.200321 7.299480 0.071021
v 0.266122 7.272757 -0.000000
v 0.422710 7.620142 -0.052317
v 0.461314 7.584833 -0.073987
v 0.406720 7.634767 -0.000000
v 0.499919 7.549524 -0.052317
v 0.422710 7.620142 0.052317
v 0.499919 7.549524 0.052317
v 0.461314 7.584833 0.073987
v 0.515910 7.534898 -0.000000
v 0.852728 7.793619 -0.067590
v 0.830235 7.835788 -0.047793
v 0.875223 7.751450 -0.047793
v 0.820918 7.853254 -0.000000
v 0.875223 7.751450 0.047793
v 0.830235 7.835788 0.047793
v 0.852728 7.793619 0.067590
v 0.884540 7.733982 -0.000000
v 1.203485 7.890069 -0.066095
v 1.195157 7.935847 -0.046715
v 1.234105 7.830512 -0.000000
v 1.218775 7.846200 -0.046738
v 1.191708 7.954805 -0.000000
v 1.195157 7.935847 0.046715
v 1.203485 7.890069 0.066095
v 1.218775 7.846200 0.046738
v 1.209793 7.855392 -0.051416
v 1.209793 7.855392 0.051416
v 1.209793 7.855392 -0.154876
v 2.795717 8.143886 -0.154876
v 2.772700 8.091499 -0.127687
v 1.249784 7.814468 -0.127687
v 1.188462 7.972653 -0.099567
v 2.709869 8.249412 -0.099567
v 2.772700 8.091499 0.127687
v 1.249784 7.814468 0.127687
v 1.188462 7.972653 0.099567
v 2.709869 8.249412 0.099567
v 2.795717 8.143886 0.154876
v 1.209793 7.855392 0.154876
v 0.101373 -0.406944 0.000000
v 0.071682 -0.406944 -0.071682
v 0.071682 -0.406944 0.071682
v 0.000000 -0.406944 0.101373
v -0.071681 -0.406944 0.071682
v -0.101373 -0.406944 0.000000
v 0.000000 -0.406944 -0.101373
v -0.071681 -0.406944 -0.071682
vt 0.030734 0.689809
vt 0.029834 0.646442
vt 0.036027 0.646391
vt 0.036463 0.689333
vt 0.048414 0.646386
vt 0.054607 0.646438
vt 0.053694 0.689825
vt 0.047966 0.689345
vt 0.019253 0.690731
vt 0.066987 0.646636
vt 0.023645 0.646527
vt 0.024994 0.690355
vt 0.060798 0.646522
vt 0.059419 0.690374
vt 0.036693 0.728849
vt 0.031257 0.729539
vt 0.042218 0.689155
vt 0.042192 0.728579
vt 0.025824 0.730308
vt 0.047691 0.728854
vt 0.020320 0.730741
vt 0.053126 0.729549
vt 0.058558 0.730322
vt 0.036900 0.766013
vt 0.031743 0.766871
vt 0.042178 0.765685
vt 0.026583 0.767797
vt 0.047456 0.766017
vt 0.042220 0.646371
vt 0.021291 0.768197
vt 0.052612 0.766878
vt 0.057772 0.767808
vt 0.036731 0.803446
vt 0.031430 0.804288
vt 0.026122 0.805198
vt 0.042165 0.803124
vt 0.020641 0.805583
vt 0.047599 0.803449
vt 0.052900 0.804293
vt 0.058207 0.805206
vt 0.032124 0.847235
vt 0.027134 0.847735
vt 0.037115 0.846771
vt 0.022093 0.847974
vt 0.042159 0.846590
vt 0.047203 0.846769
vt 0.057173 0.847736
vt 0.052194 0.847231
vt 0.162801 0.621031
vt 0.164738 0.625537
vt 0.163008 0.630239
vt 0.158284 0.632264
vt 0.153560 0.630238
vt 0.158285 0.619152
vt 0.151831 0.625536
vt 0.153769 0.621030
vt 0.028386 0.882300
vt 0.055958 0.882298
vt 0.173442 0.628838
vt 0.173405 0.791246
vt 0.170750 0.785658
vt 0.170771 0.634494
vt 0.167918 0.617365
vt 0.188921 0.782383
vt 0.145810 0.785655
vt 0.145796 0.634492
vt 0.148652 0.617363
vt 0.208368 0.782385
vt 0.143155 0.791243
vt 0.143126 0.628835
vt 0.072495 0.011108
vt 0.064912 0.011051
vt 0.019410 0.011055
vt 0.057329 0.011010
vt 0.049745 0.010985
vt 0.042161 0.010978
vt 0.026993 0.011013
vt 0.034577 0.010987
vt 0.153060 0.629028
vt 0.052190 0.882654
vt 0.057154 0.882896
vt 0.163508 0.629029
vt 0.027191 0.882899
vt 0.032131 0.882656
vt 0.022250 0.883911
vt 0.047208 0.883131
vt 0.042161 0.883341
vt 0.037115 0.883132
vt 0.011828 0.011115
vt 0.017456 0.646641
vt 0.062096 0.883902
vt 0.062214 0.847974
vt 0.063689 0.805594
vt 0.063064 0.768211
vt 0.064062 0.730758
vt 0.065158 0.690754
vt 0.221198 0.788790
vt 0.148555 0.804528
vt 0.168002 0.804530
vt 0.176088 0.788785
vt 0.208388 0.631371
vt 0.221219 0.631372
vt 0.188941 0.631369
vt 0.176110 0.631368
vt 0.226537 0.785663
vt 0.226557 0.634500
vn -0.017238 0.012766 -0.999770
vn 0.000022 0.003443 -0.999994
vn -0.707093 0.003385 -0.707113
vn -0.713916 0.055831 -0.698002
vn -0.707093 0.003385 0.707113
vn 0.000022 0.003443 0.999994
vn -0.017238 0.012766 0.999770
vn -0.713916 0.055831 0.698002
vn 0.998537 -0.054067 0.000000
vn 0.999994 0.003526 -0.000000
vn 0.707114 0.003502 -0.707091
vn 0.697296 -0.033769 -0.715988
vn 0.707114 0.003502 0.707091
vn 0.697296 -0.033769 0.715988
vn -0.699827 0.189316 -0.688768
vn -0.030649 0.019081 -0.999348
vn -0.997356 0.072669 -0.000000
vn -0.967042 0.254617 0.000000
vn 0.669875 -0.168844 -0.723021
vn -0.699827 0.189316 0.688768
vn 0.967837 -0.251580 -0.000000
vn -0.030650 0.019081 0.999348
vn 0.669876 -0.168844 0.723020
vn -0.623420 0.390080 -0.677632
vn -0.041108 0.033685 -0.998587
vn -0.852086 0.523402 -0.000000
vn 0.575839 -0.368989 -0.729559
vn -0.623420 0.390080 0.677632
vn -0.999994 0.003360 0.000000
vn 0.837247 -0.546824 0.000000
vn -0.041108 0.033685 0.998587
vn 0.575839 -0.368988 0.729560
vn -0.448284 0.585949 -0.675060
vn -0.023670 0.047237 -0.998603
vn 0.415716 -0.548118 -0.725773
vn -0.615453 0.788174 -0.000001
vn 0.595623 -0.803264 0.000000
vn -0.448284 0.585949 0.675059
vn -0.023670 0.047237 0.998603
vn 0.415715 -0.548118 0.725774
vn -0.004804 0.045872 -0.998936
vn 0.278868 -0.652169 -0.704917
vn -0.274179 0.676731 -0.683273
vn 0.382728 -0.923861 0.000000
vn -0.382366 0.924011 0.000000
vn -0.274179 0.676730 0.683273
vn 0.289699 -0.668568 0.684902
vn -0.011648 0.071395 0.997380
vn -0.190614 0.702524 -0.685657
vn -0.011427 0.055520 -0.998392
vn 0.241792 -0.873478 -0.422579
vn 0.266603 -0.963807 0.000001
vn 0.221886 -0.799264 0.558519
vn -0.263734 0.964595 0.000000
vn -0.051315 0.200436 0.978362
vn -0.190614 0.702524 0.685658
vn 0.106091 -0.372804 -0.921825
vn 0.106145 -0.373116 0.921693
vn 0.089022 -0.489380 -0.867515
vn 0.089022 -0.489380 -0.867515
vn 0.089022 -0.489380 -0.867515
vn 0.089022 -0.489380 -0.867515
vn -0.075337 0.414145 -0.907088
vn -0.075337 0.414145 -0.907088
vn -0.075337 0.414145 -0.907088
vn -0.075337 0.414145 -0.907088
vn 0.178971 -0.983854 0.000000
vn 0.178971 -0.983854 0.000000
vn 0.178971 -0.983854 0.000000
vn 0.178971 -0.983854 0.000000
vn -0.178972 0.983854 0.000000
vn -0.178972 0.983854 0.000000
vn -0.178972 0.983854 0.000000
vn -0.178972 0.983854 0.000000
vn 0.089022 -0.489378 0.867516
vn 0.089022 -0.489378 0.867516
vn 0.089022 -0.489378 0.867516
vn 0.089022 -0.489378 0.867516
vn -0.075337 0.414145 0.907088
vn -0.075337 0.414145 0.907088
vn -0.075337 0.414145 0.907088
vn -0.075337 0.414145 0.907088
vn 0.915529 -0.402253 0.000000
vn 0.915529 -0.402253 0.000000
vn 0.915529 -0.402253 0.000000
vn 0.915529 -0.402253 0.000000
vn 0.775726 0.631070 0.000000
vn 0.775726 0.631070 0.000000
vn 0.775726 0.631070 0.000000
vn 0.775726 0.631070 0.000000
vn -0.715211 -0.698908 0.000000
vn -0.715211 -0.698908 0.000000
vn -0.715211 -0.698908 -0.000002
vn -0.715211 -0.698909 -0.000000
vn -0.983854 -0.178975 0.000002
vn -0.983853 -0.178979 0.000000
vn -0.983854 -0.178974 -0.000002
vn 0.999996 0.002864 0.000000
vn 0.707105 0.002864 0.707103
vn 0.707105 0.002864 -0.707103
vn 0.000000 0.002864 0.999996
vn -0.707105 0.002864 0.707103
vn -0.999996 0.002864 -0.000000
vn 0.000000 0.002864 -0.999996
vn -0.707105 0.002864 -0.707103
vn -0.715210 -0.698910 0.000001
vn -0.715211 -0.698909 0.000003
vn -0.715209 -0.698910 0.000000
vn -0.715209 -0.698910 0.000000
vn -0.715210 -0.698910 0.000000
vn -0.983854 -0.178974 0.000002
vn -0.983854 -0.178974 0.000002
vn -0.983854 -0.178974 0.000002
vn -0.983854 -0.178975 -0.000002
vn -0.983854 -0.178974 -0.000002
vn -0.983854 -0.178974 -0.000002
vn -0.983854 -0.178973 0.000000
vn -0.983853 -0.178977 0.000000
s 1
usemtl aiStandardSurface1SG
f 3/1/1 1/2/2 2/3/3 4/4/4
f 7/5/5 5/6/6 6/7/7 12/8/8
f 10/9/9 8/90/10 9/11/11 13/12/12
f 11/13/13 8/10/10 10/96/9 14/14/14
f 3/1/1 4/4/4 15/15/15 18/16/16
f 4/4/4 16/17/17 17/18/18 15/15/15
f 13/12/12 3/1/1 18/16/16 19/19/19
f 17/18/18 16/17/17 12/8/8 20/20/20
f 10/9/9 13/12/12 19/19/19 23/21/21
f 20/20/20 12/8/8 6/7/7 21/22/22
f 21/22/22 6/7/7 14/14/14 22/23/23
f 22/23/23 14/14/14 10/96/9 23/95/21
f 18/16/16 15/15/15 24/24/24 26/25/25
f 15/15/15 17/18/18 25/26/26 24/24/24
f 19/19/19 18/16/16 26/25/25 28/27/27
f 25/26/26 17/18/18 20/20/20 29/28/28
f 2/3/3 27/29/29 16/17/17 4/4/4
f 23/21/21 19/19/19 28/27/27 32/30/30
f 29/28/28 20/20/20 21/22/22 31/31/31
f 30/32/32 22/23/23 23/95/21 32/94/30
f 31/31/31 21/22/22 22/23/23 30/32/32
f 27/29/29 7/5/5 12/8/8 16/17/17
f 9/11/11 1/2/2 3/1/1 13/12/12
f 5/6/6 11/13/13 14/14/14 6/7/7
f 26/25/25 24/24/24 33/33/33 34/34/34
f 28/27/27 26/25/25 34/34/34 36/35/35
f 24/24/24 25/26/26 35/36/36 33/33/33
f 32/30/30 28/27/27 36/35/35 40/37/37
f 35/36/36 25/26/26 29/28/28 37/38/38
f 37/38/38 29/28/28 31/31/31 39/39/39
f 38/40/40 30/32/32 32/94/30 40/93/37
f 39/39/39 31/31/31 30/32/32 38/40/40
f 36/35/35 34/34/34 41/41/41 43/42/42
f 34/34/34 33/33/33 42/43/43 41/41/41
f 40/37/37 36/35/35 43/42/42 48/44/44
f 33/33/33 35/36/36 44/45/45 42/43/43
f 44/45/45 35/36/36 37/38/38 46/46/46
f 45/47/47 38/40/40 40/93/37 48/92/44
f 46/46/46 37/38/38 39/39/39 47/48/48
f 47/48/48 39/39/39 38/40/40 45/47/47
f 50/88/49 49/84/50 41/41/41 42/43/43
f 52/83/51 51/85/52 48/44/44 43/42/42
f 48/92/44 51/91/52 56/81/53 45/47/47
f 53/87/54 50/88/49 42/43/43 44/45/45
f 47/48/48 55/80/55 54/86/56 46/46/46
f 46/46/46 54/86/56 53/87/54 44/45/45
f 43/42/42 41/41/41 49/84/50 57/57/57
f 55/80/55 47/48/48 58/58/58
s off
f 59/104/59 60/100/60 61/61/61 62/62/62
f 63/103/63 64/64/64 60/100/65 59/104/66
f 62/62/67 61/61/68 65/65/69 66/66/70
f 67/101/71 68/68/72 64/64/73 63/103/74
f 69/97/75 70/102/76 66/106/77 65/105/78
f 70/102/79 69/97/80 68/68/81 67/101/82
f 60/60/83 69/69/84 65/65/85 61/61/86
f 69/69/87 60/60/88 64/99/89 68/98/90
s 4
f 70/70/91 58/79/92 56/53/93 66/66/94
s 5
f 63/63/95 53/54/96 67/67/97
s 1
f 71/71/98 8/10/10 11/13/13 73/72/99
f 72/73/100 9/11/11 8/90/10 71/89/98
f 74/74/101 73/72/99 11/13/13 5/6/6
f 75/75/102 74/74/101 5/6/6 7/5/5
f 76/76/103 75/75/102 7/5/5 27/29/29
f 72/73/100 77/77/104 1/2/2 9/11/11
f 78/78/105 76/76/103 27/29/29 2/3/3
f 77/77/104 78/78/105 2/3/3 1/2/2
s 4
f 62/62/106 52/51/107 57/82/108 59/59/109
f 62/62/106 51/52/110 52/51/107
f 66/66/94 56/53/93 51/52/110
f 66/66/94 51/52/110 62/62/106
s 5
f 59/59/111 49/50/112 50/49/113 63/63/95
f 67/67/97 54/56/114 55/55/115 70/70/116
f 59/59/111 57/82/117 49/50/112
f 63/63/95 50/49/113 53/54/96
f 67/67/97 53/54/96 54/56/114
f 70/70/116 55/55/115 58/79/118
s 1
f 58/58/58 47/48/48 45/47/47 56/81/53
f 43/42/42 57/57/57 52/83/51
