# Blender 4.4.3
# www.blender.org
mtllib leitplanke_hoch.mtl
o leitplanke
v 0.017563 0.409351 -4.000000
v 0.000000 0.409351 -4.000000
v 0.066224 0.442032 -4.000000
v 0.054801 0.443547 -4.000000
v 0.081639 0.477742 -4.000000
v 0.070606 0.477742 -4.000000
v 0.066224 0.511938 -4.000000
v 0.054801 0.511938 -4.000000
v 0.033440 0.546134 -4.000000
v 0.022346 0.546134 -4.000000
v 0.017563 0.580330 -4.000000
v 0.006453 0.580330 -4.000000
v 0.033440 0.614525 -4.000000
v 0.022346 0.614525 -4.000000
v 0.066224 0.648721 -4.000000
v 0.054801 0.648721 -4.000000
v 0.081639 0.682917 -4.000000
v 0.070606 0.682917 -4.000000
v 0.066224 0.718628 -4.000000
v 0.054801 0.717113 -4.000000
v 0.017563 0.751309 -4.000000
v 0.000000 0.751309 -4.000000
v 0.017563 0.751305 -0.000000
v 0.000000 0.751305 -0.000000
v 0.054801 0.717114 -0.000000
v 0.066223 0.718624 -0.000000
v 0.070606 0.682917 -0.000000
v 0.081639 0.682918 -0.000000
v 0.054801 0.648719 -0.000000
v 0.066223 0.648721 -0.000000
v 0.022345 0.614525 -0.000000
v 0.033440 0.614523 -0.000000
v 0.006453 0.580330 -0.000000
v 0.017563 0.580330 -0.000000
v 0.022345 0.546134 -0.000000
v 0.033440 0.546134 -0.000000
v 0.054801 0.511940 -0.000000
v 0.066223 0.511938 -0.000000
v 0.070606 0.477741 -0.000000
v 0.081639 0.477744 -0.000000
v 0.054801 0.443550 -0.000000
v 0.066223 0.442031 -0.000000
v 0.000000 0.409355 -0.000000
v 0.017563 0.409355 -0.000000
v 0.017563 0.751307 -2.000000
v 0.066223 0.718626 -2.000000
v 0.081639 0.682918 -2.000000
v 0.066223 0.648721 -2.000000
v 0.033440 0.614524 -2.000000
v 0.017563 0.580330 -2.000000
v 0.033440 0.546134 -2.000000
v 0.066223 0.511938 -2.000000
v 0.081639 0.477743 -2.000000
v 0.066223 0.442031 -2.000000
v 0.017563 0.409353 -2.000000
v 0.000000 0.409353 -2.000000
v 0.054801 0.443549 -2.000000
v 0.070606 0.477742 -2.000000
v 0.054801 0.511939 -2.000000
v 0.022345 0.546134 -2.000000
v 0.006453 0.580330 -2.000000
v 0.022345 0.614525 -2.000000
v 0.054801 0.648720 -2.000000
v 0.070606 0.682917 -2.000000
v 0.054801 0.717113 -2.000000
v 0.000000 0.751307 -2.000000
v -0.073381 0.473193 -2.036413
v -0.064693 0.473193 -2.036413
v -0.073381 0.473193 -1.963587
v -0.064693 0.473193 -1.963587
v -0.064693 0.684896 -2.036413
v -0.073381 0.684896 -2.036413
v -0.064693 0.684896 -1.963587
v -0.073381 0.684896 -1.963587
v -0.064654 0.695971 -2.036413
v -0.056080 0.721897 -2.036413
v -0.035066 0.739335 -2.036413
v -0.008003 0.742979 -2.036413
v 0.016876 0.731722 -2.036413
v -0.073335 0.696318 -2.036413
v -0.063257 0.726794 -2.036413
v -0.038555 0.747292 -2.036413
v -0.006743 0.751576 -2.036413
v 0.022501 0.738343 -2.036413
v -0.073335 0.696318 -1.963587
v -0.063257 0.726794 -1.963587
v -0.038555 0.747292 -1.963587
v -0.006743 0.751576 -1.963587
v 0.022501 0.738343 -1.963587
v -0.064654 0.695971 -1.963587
v -0.056080 0.721897 -1.963587
v -0.035066 0.739335 -1.963587
v -0.008003 0.742979 -1.963587
v 0.016876 0.731722 -1.963587
v -0.064653 0.462118 -1.963587
v -0.056080 0.436191 -1.963587
v -0.035066 0.418754 -1.963587
v -0.008003 0.415109 -1.963587
v 0.016876 0.426367 -1.963587
v -0.073335 0.461771 -1.963587
v -0.063257 0.431295 -1.963587
v -0.038555 0.410797 -1.963587
v -0.006743 0.406513 -1.963587
v 0.022501 0.419746 -1.963587
v -0.073335 0.461771 -2.036413
v -0.063257 0.431295 -2.036413
v -0.038555 0.410797 -2.036413
v -0.006743 0.406513 -2.036413
v 0.022501 0.419746 -2.036413
v -0.064653 0.462118 -2.036413
v -0.056080 0.436191 -2.036413
v -0.035066 0.418754 -2.036413
v -0.008003 0.415109 -2.036413
v 0.016876 0.426367 -2.036413
v -0.073381 -0.960795 -2.032359
v -0.173179 -0.960795 -2.032359
v -0.173179 0.718723 -2.032359
v -0.173179 0.718723 -1.967641
v -0.073381 -0.960795 -1.967641
v -0.173179 -0.960795 -1.967641
v -0.123280 -0.960795 -2.007077
v -0.123280 0.718723 -2.007077
v -0.123280 0.718723 -1.992923
v -0.123280 -0.960795 -1.992923
v -0.103321 -0.960795 -2.007077
v -0.103321 0.718723 -2.007077
v -0.103321 0.718723 -1.992923
v -0.103321 -0.960795 -1.992923
v -0.143240 -0.960795 -2.007077
v -0.143240 0.718723 -2.007077
v -0.143240 0.718723 -1.992923
v -0.143240 -0.960795 -1.992923
v -0.085357 -0.960795 -2.032359
v -0.085357 0.718723 -2.032359
v -0.085357 0.718723 -1.967641
v -0.085357 -0.960795 -1.967641
v -0.161203 -0.960795 -2.032359
v -0.161203 0.718723 -2.032359
v -0.161203 0.718723 -1.967641
v -0.161203 -0.960795 -1.967641
v -0.033558 -0.960795 -1.979347
v -0.051404 -0.960795 -1.942463
v -0.051192 -0.960795 -2.057271
v -0.033482 -0.960795 -2.020322
v -0.123450 -0.960795 -1.907931
v -0.123110 -0.960795 -2.092069
v -0.163380 -0.960795 -1.917123
v -0.163074 -0.960795 -2.083025
v -0.083486 -0.960795 -1.916975
v -0.083180 -0.960795 -2.082877
v -0.195368 -0.960795 -1.942729
v -0.195157 -0.960795 -2.057537
v -0.213078 -0.960795 -1.979678
v -0.213003 -0.960795 -2.020653
v -0.033558 -1.160072 -1.979347
v -0.051404 -1.160072 -1.942463
v -0.051192 -1.160072 -2.057271
v -0.033482 -1.160072 -2.020322
v -0.123450 -1.160072 -1.907931
v -0.123110 -1.160072 -2.092069
v -0.163380 -1.160072 -1.917123
v -0.163074 -1.160072 -2.083025
v -0.083486 -1.160072 -1.916975
v -0.083180 -1.160072 -2.082877
v -0.195368 -1.160072 -1.942729
v -0.195157 -1.160072 -2.057537
v -0.213078 -1.160072 -1.979678
v -0.213003 -1.160072 -2.020653
v -0.073381 0.718723 -2.032359
v -0.073381 0.718723 -1.967641
v -0.073381 -0.121036 -2.032359
v -0.085357 -0.121036 -2.032359
v -0.085357 -0.121036 -1.967641
v -0.073381 -0.121036 -1.967641
v -0.173179 -0.121036 -2.032359
v -0.173179 -0.121036 -1.967641
v -0.123280 -0.121036 -2.007077
v -0.143240 -0.121036 -2.007077
v -0.143240 -0.121036 -1.992923
v -0.123280 -0.121036 -1.992923
v -0.103321 -0.121036 -2.007077
v -0.103321 -0.121036 -1.992923
v -0.161203 -0.121036 -2.032359
v -0.161203 -0.121036 -1.967641
vn -0.0000 -0.0000 -1.0000
vn -0.0000 -0.0000 1.0000
vn -0.0000 -1.0000 -0.0000
vn 0.4425 -0.8968 -0.0000
vn 0.7298 -0.6837 -0.0000
vn 1.0000 -0.0000 -0.0000
vn 0.8174 0.5761 -0.0000
vn 0.8174 0.5760 -0.0000
vn 0.8148 0.5797 -0.0000
vn 0.8148 -0.5797 -0.0000
vn 0.8174 -0.5761 -0.0000
vn 0.7297 0.6837 -0.0000
vn 0.7298 0.6837 -0.0000
vn 0.4425 0.8968 -0.0000
vn -0.0000 1.0000 -0.0000
vn -0.5294 -0.8484 -0.0000
vn -0.6958 -0.7183 -0.0000
vn -1.0000 -0.0000 -0.0000
vn -0.8171 0.5766 -0.0000
vn -0.8171 0.5765 -0.0000
vn -0.8166 0.5773 -0.0000
vn -0.8166 -0.5773 -0.0000
vn -0.8171 -0.5766 -0.0000
vn -0.8171 -0.5765 -0.0000
vn -0.6958 0.7183 -0.0000
vn -0.5294 0.8484 -0.0000
vn 0.4425 -0.8968 -0.0001
vn -0.6957 -0.7183 -0.0000
vn 1.0000 0.0002 -0.0000
vn 1.0000 -0.0018 -0.0000
vn -0.9720 0.2349 -0.0000
vn -1.0000 0.0020 -0.0000
vn -0.8260 0.5636 -0.0000
vn -0.4016 0.9158 -0.0000
vn 0.1450 0.9894 -0.0000
vn 0.4123 0.9111 -0.0000
vn 0.9740 -0.2267 -0.0000
vn 0.8260 -0.5636 -0.0000
vn 0.4016 -0.9158 -0.0000
vn -0.1450 -0.9894 -0.0000
vn -0.4122 -0.9111 -0.0000
vn -0.9720 -0.2349 -0.0000
vn -1.0000 -0.0020 -0.0000
vn -0.8260 -0.5636 -0.0000
vn -0.4016 -0.9158 -0.0000
vn 0.1450 -0.9894 -0.0000
vn 0.4123 -0.9111 -0.0000
vn 0.9740 0.2267 -0.0000
vn 0.8260 0.5636 -0.0000
vn 0.4016 0.9158 -0.0000
vn -0.1450 0.9894 -0.0000
vn -0.4123 0.9111 -0.0000
vn 0.7621 -0.6475 -0.0000
vn 0.7621 0.6475 -0.0000
vn 0.8152 -0.0000 -0.5792
vn 0.8152 -0.0000 0.5792
vn -0.8152 -0.0000 -0.5792
vn -0.8152 -0.0000 0.5792
vn 0.9745 -0.0000 0.2243
vn 0.7807 -0.0000 0.6249
vn 0.7830 -0.0000 -0.6221
vn 0.9753 -0.0000 -0.2207
vn -0.0019 -0.0000 1.0000
vn -0.4355 -0.0000 0.9002
vn -0.4322 -0.0000 -0.9018
vn 0.0019 -0.0000 -1.0000
vn 0.4322 -0.0000 0.9018
vn 0.4355 -0.0000 -0.9002
vn -0.7830 -0.0000 0.6221
vn -0.7807 -0.0000 -0.6249
vn -0.9753 -0.0000 0.2207
vn -0.9745 -0.0000 -0.2243
vt 0.012092 0.993408
vt 0.010939 0.994560
vt 0.012100 0.988276
vt 0.012980 0.987770
vt 0.012143 0.984039
vt 0.013139 0.983992
vt 0.011876 0.979916
vt 0.012796 0.980354
vt 0.011079 0.975405
vt 0.012001 0.975787
vt 0.010614 0.972106
vt 0.011664 0.972104
vt 0.011071 0.968808
vt 0.011992 0.968426
vt 0.011861 0.964311
vt 0.012781 0.963877
vt 0.012141 0.960192
vt 0.013136 0.960247
vt 0.012114 0.955952
vt 0.012994 0.956465
vt 0.010957 0.949639
vt 0.012110 0.950801
vt 0.403794 0.947562
vt 0.402759 0.948725
vt 0.403681 0.942472
vt 0.404589 0.941982
vt 0.403777 0.938766
vt 0.404818 0.938689
vt 0.403381 0.935079
vt 0.404329 0.935457
vt 0.402587 0.930519
vt 0.403482 0.930949
vt 0.402257 0.926848
vt 0.403240 0.926849
vt 0.402583 0.923183
vt 0.403475 0.922754
vt 0.403353 0.918638
vt 0.404299 0.918258
vt 0.403727 0.914957
vt 0.404769 0.915027
vt 0.403605 0.911251
vt 0.404518 0.911735
vt 0.402633 0.904977
vt 0.403678 0.906140
vt 0.012089 0.995126
vt 0.207612 0.993726
vt 0.207610 0.995444
vt 0.207616 0.987978
vt 0.207619 0.984162
vt 0.207621 0.980486
vt 0.207625 0.975852
vt 0.207628 0.972168
vt 0.207630 0.968481
vt 0.207634 0.963839
vt 0.207636 0.960159
vt 0.207638 0.956346
vt 0.207645 0.950612
vt 0.207645 0.948894
vt 0.012109 0.949083
vt 0.012097 0.942763
vt 0.207653 0.942575
vt 0.012093 0.939077
vt 0.207654 0.938898
vt 0.012088 0.935392
vt 0.207654 0.935222
vt 0.012082 0.930779
vt 0.207655 0.930618
vt 0.012078 0.927090
vt 0.207652 0.926928
vt 0.012074 0.923401
vt 0.207649 0.923234
vt 0.012068 0.918788
vt 0.207645 0.918621
vt 0.012062 0.915102
vt 0.207641 0.914941
vt 0.012057 0.911417
vt 0.207636 0.911265
vt 0.012049 0.905096
vt 0.207626 0.904960
vt 0.402759 0.950444
vt 0.402769 0.956182
vt 0.402772 0.959989
vt 0.402775 0.963661
vt 0.402780 0.968298
vt 0.402783 0.971988
vt 0.402785 0.975678
vt 0.402787 0.980314
vt 0.402787 0.983985
vt 0.402787 0.987792
vt 0.402788 0.993527
vt 0.402789 0.995246
vt 0.007287 0.869884
vt 0.007367 0.849178
vt 0.014490 0.849205
vt 0.014410 0.869912
vt 0.007415 0.802463
vt 0.007408 0.823167
vt 0.006559 0.823177
vt 0.006565 0.802452
vt 0.014551 0.823170
vt 0.014557 0.802465
vt 0.015406 0.802454
vt 0.015400 0.823182
vt 0.007420 0.824264
vt 0.006574 0.824433
vt 0.006631 0.827364
vt 0.007441 0.827351
vt 0.006634 0.830401
vt 0.007439 0.830410
vt 0.006649 0.833432
vt 0.007443 0.833473
vt 0.006567 0.836264
vt 0.007379 0.836563
vt 0.014539 0.824267
vt 0.014516 0.827349
vt 0.014518 0.830412
vt 0.014511 0.833475
vt 0.014565 0.836587
vt 0.015384 0.824436
vt 0.015326 0.827364
vt 0.015323 0.830403
vt 0.015305 0.833437
vt 0.015378 0.836286
vt 0.014495 0.848121
vt 0.007371 0.848095
vt 0.014505 0.845450
vt 0.007380 0.845425
vt 0.014515 0.842778
vt 0.007387 0.842755
vt 0.014529 0.840107
vt 0.007391 0.840084
vt 0.014552 0.837437
vt 0.007386 0.837412
vt 0.014545 0.801367
vt 0.015391 0.801198
vt 0.015332 0.798265
vt 0.014522 0.798279
vt 0.015327 0.795227
vt 0.014522 0.795218
vt 0.015312 0.792196
vt 0.014517 0.792154
vt 0.015399 0.789365
vt 0.014587 0.789065
vt 0.007426 0.801367
vt 0.007446 0.798286
vt 0.007440 0.795224
vt 0.007439 0.792162
vt 0.007371 0.789050
vt 0.006581 0.801199
vt 0.006636 0.798273
vt 0.006635 0.795235
vt 0.006646 0.792203
vt 0.006559 0.789355
vt 0.007283 0.870967
vt 0.014406 0.870996
vt 0.007272 0.873638
vt 0.014395 0.873667
vt 0.007261 0.876309
vt 0.014385 0.876338
vt 0.007250 0.878980
vt 0.014374 0.879009
vt 0.007239 0.881651
vt 0.014363 0.881680
vt 0.007375 0.788200
vt 0.014587 0.788215
vt 0.129471 0.865705
vt 0.129471 0.864536
vt 0.162651 0.864530
vt 0.162651 0.865699
vt 0.184117 0.826685
vt 0.182948 0.826685
vt 0.182947 0.820368
vt 0.184116 0.820368
vt 0.129472 0.873194
vt 0.129472 0.872025
vt 0.162652 0.872019
vt 0.162652 0.873189
vt 0.129469 0.853410
vt 0.129468 0.847090
vt 0.162648 0.847084
vt 0.162649 0.853404
vt 0.129470 0.859558
vt 0.129469 0.857608
vt 0.162649 0.857603
vt 0.162650 0.859552
vt 0.179246 0.822837
vt 0.179246 0.824218
vt 0.177298 0.824219
vt 0.177298 0.822837
vt 0.129474 0.880121
vt 0.129474 0.878173
vt 0.162653 0.878167
vt 0.162653 0.880116
vt 0.129470 0.861507
vt 0.162650 0.861501
vt 0.181194 0.822836
vt 0.181195 0.824218
vt 0.129473 0.876224
vt 0.162653 0.876218
vt 0.129469 0.854580
vt 0.162649 0.854574
vt 0.175545 0.826687
vt 0.175544 0.820370
vt 0.129474 0.883150
vt 0.162654 0.883145
vt 0.174376 0.826687
vt 0.174375 0.820370
vt 0.129474 0.884320
vt 0.162654 0.884314
vt 0.184154 0.806726
vt 0.182984 0.806723
vt 0.186306 0.804272
vt 0.188040 0.807879
vt 0.182969 0.813044
vt 0.184139 0.813046
vt 0.188038 0.811880
vt 0.186300 0.815485
vt 0.179275 0.809183
vt 0.177325 0.809178
vt 0.175376 0.801771
vt 0.179278 0.800882
vt 0.177322 0.810561
vt 0.179271 0.810565
vt 0.179267 0.818866
vt 0.175367 0.817973
vt 0.181224 0.809188
vt 0.183179 0.801775
vt 0.181221 0.810570
vt 0.183169 0.817978
vt 0.175577 0.806705
vt 0.172246 0.804264
vt 0.175561 0.813025
vt 0.172240 0.815476
vt 0.174407 0.806702
vt 0.170508 0.807868
vt 0.174392 0.813023
vt 0.170505 0.811870
vt 0.189565 0.860023
vt 0.189562 0.864024
vt 0.170102 0.864012
vt 0.170104 0.860011
vt 0.189570 0.852020
vt 0.189567 0.856021
vt 0.170106 0.856009
vt 0.170109 0.852008
vt 0.189557 0.872027
vt 0.189555 0.876028
vt 0.170094 0.876017
vt 0.170097 0.872015
vt 0.189577 0.840016
vt 0.189574 0.844017
vt 0.170114 0.844005
vt 0.170116 0.840004
vt 0.189560 0.868026
vt 0.170099 0.868014
vt 0.189572 0.848019
vt 0.170111 0.848007
vt 0.189553 0.880030
vt 0.170092 0.880018
vt 0.189579 0.836014
vt 0.170119 0.836002
vt 0.189550 0.884031
vt 0.170089 0.884019
vt 0.189548 0.888033
vt 0.170087 0.888021
vt 0.189582 0.832013
vt 0.170121 0.832001
vt 0.096295 0.884326
vt 0.096295 0.883156
vt 0.096290 0.854585
vt 0.096289 0.853416
vt 0.096293 0.876229
vt 0.096293 0.873200
vt 0.096292 0.864541
vt 0.096291 0.861513
vt 0.096294 0.880127
vt 0.096290 0.857614
vt 0.096294 0.878178
vt 0.096291 0.859563
vt 0.096293 0.872031
vt 0.096292 0.865711
vt 0.096288 0.847096
s 1
usemtl aiStandardSurface1SG
f 1/1/1 2/2/1 4/3/1 3/4/1
f 3/4/1 4/3/1 6/5/1 5/6/1
f 5/6/1 6/5/1 8/7/1 7/8/1
f 7/8/1 8/7/1 10/9/1 9/10/1
f 9/10/1 10/9/1 12/11/1 11/12/1
f 11/12/1 12/11/1 14/13/1 13/14/1
f 13/14/1 14/13/1 16/15/1 15/16/1
f 15/16/1 16/15/1 18/17/1 17/18/1
f 17/18/1 18/17/1 20/19/1 19/20/1
f 19/20/1 20/19/1 22/21/1 21/22/1
f 23/23/2 24/24/2 25/25/2 26/26/2
f 26/26/2 25/25/2 27/27/2 28/28/2
f 28/28/2 27/27/2 29/29/2 30/30/2
f 30/30/2 29/29/2 31/31/2 32/32/2
f 32/32/2 31/31/2 33/33/2 34/34/2
f 34/34/2 33/33/2 35/35/2 36/36/2
f 36/36/2 35/35/2 37/37/2 38/38/2
f 38/38/2 37/37/2 39/39/2 40/40/2
f 40/40/2 39/39/2 41/41/2 42/42/2
f 42/42/2 41/41/2 43/43/2 44/44/2
f 2/45/3 1/1/4 55/46/4 56/47/3
f 1/1/4 3/4/5 54/48/5 55/46/4
f 3/4/5 5/6/6 53/49/6 54/48/5
f 5/6/6 7/8/7 52/50/8 53/49/6
f 7/8/7 9/10/9 51/51/9 52/50/8
f 9/10/9 11/12/6 50/52/6 51/51/9
f 11/12/6 13/14/10 49/53/10 50/52/6
f 13/14/10 15/16/11 48/54/11 49/53/10
f 15/16/11 17/18/6 47/55/6 48/54/11
f 17/18/6 19/20/12 46/56/13 47/55/6
f 19/20/12 21/22/14 45/57/14 46/56/13
f 66/58/15 45/57/14 21/22/14 22/59/15
f 22/59/16 20/60/17 65/61/17 66/58/16
f 20/60/17 18/62/18 64/63/18 65/61/17
f 18/62/18 16/64/19 63/65/20 64/63/18
f 16/64/19 14/66/21 62/67/21 63/65/20
f 14/66/21 12/68/18 61/69/18 62/67/21
f 12/68/18 10/70/22 60/71/22 61/69/18
f 10/70/22 8/72/23 59/73/24 60/71/22
f 8/72/23 6/74/18 58/75/18 59/73/24
f 6/74/18 4/76/25 57/77/25 58/75/18
f 4/76/25 2/78/26 56/79/26 57/77/25
f 46/56/13 45/57/14 23/80/14 26/81/12
f 47/55/6 46/56/13 26/81/12 28/82/6
f 48/54/11 47/55/6 28/82/6 30/83/11
f 49/53/10 48/54/11 30/83/11 32/84/10
f 50/52/6 49/53/10 32/84/10 34/85/6
f 51/51/9 50/52/6 34/85/6 36/86/9
f 52/50/8 51/51/9 36/86/9 38/87/7
f 53/49/6 52/50/8 38/87/7 40/88/6
f 54/48/5 53/49/6 40/88/6 42/89/5
f 55/46/4 54/48/5 42/89/5 44/90/27
f 56/47/3 55/46/4 44/90/27 43/91/3
f 57/77/25 56/79/26 43/43/26 41/41/25
f 58/75/18 57/77/25 41/41/25 39/39/18
f 59/73/24 58/75/18 39/39/18 37/37/23
f 60/71/22 59/73/24 37/37/23 35/35/22
f 61/69/18 60/71/22 35/35/22 33/33/18
f 62/67/21 61/69/18 33/33/18 31/31/21
f 63/65/20 62/67/21 31/31/21 29/29/19
f 64/63/18 63/65/20 29/29/19 27/27/18
f 65/61/17 64/63/18 27/27/18 25/25/28
f 66/58/16 65/61/17 25/25/28 24/24/16
f 23/80/14 45/57/14 66/58/15 24/24/15
f 68/92/29 71/93/30 73/94/30 70/95/29
f 67/96/1 72/97/1 71/98/1 68/99/1
f 74/100/2 69/101/2 70/102/2 73/103/2
f 71/98/1 72/97/1 80/104/1 75/105/1
f 76/106/1 75/105/1 80/104/1 81/107/1
f 77/108/1 76/106/1 81/107/1 82/109/1
f 78/110/1 77/108/1 82/109/1 83/111/1
f 79/112/1 78/110/1 83/111/1 84/113/1
f 80/104/31 72/97/32 74/100/32 85/114/31
f 81/107/33 80/104/31 85/114/31 86/115/33
f 82/109/34 81/107/33 86/115/33 87/116/34
f 83/111/35 82/109/34 87/116/34 88/117/35
f 84/113/36 83/111/35 88/117/35 89/118/36
f 74/100/2 73/103/2 90/119/2 85/114/2
f 91/120/2 86/115/2 85/114/2 90/119/2
f 92/121/2 87/116/2 86/115/2 91/120/2
f 93/122/2 88/117/2 87/116/2 92/121/2
f 94/123/2 89/118/2 88/117/2 93/122/2
f 90/124/37 73/94/30 71/93/30 75/125/37
f 91/126/38 90/124/37 75/125/37 76/127/38
f 92/128/39 91/126/38 76/127/38 77/129/39
f 93/130/40 92/128/39 77/129/39 78/131/40
f 94/132/41 93/130/40 78/131/40 79/133/41
f 70/102/2 69/101/2 100/134/2 95/135/2
f 96/136/2 95/135/2 100/134/2 101/137/2
f 97/138/2 96/136/2 101/137/2 102/139/2
f 98/140/2 97/138/2 102/139/2 103/141/2
f 99/142/2 98/140/2 103/141/2 104/143/2
f 100/134/42 69/101/43 67/96/43 105/144/42
f 101/137/44 100/134/42 105/144/42 106/145/44
f 102/139/45 101/137/44 106/145/44 107/146/45
f 103/141/46 102/139/45 107/146/45 108/147/46
f 104/143/47 103/141/46 108/147/46 109/148/47
f 67/96/1 68/99/1 110/149/1 105/144/1
f 111/150/1 106/145/1 105/144/1 110/149/1
f 112/151/1 107/146/1 106/145/1 111/150/1
f 113/152/1 108/147/1 107/146/1 112/151/1
f 114/153/1 109/148/1 108/147/1 113/152/1
f 110/154/48 68/92/29 70/95/29 95/155/48
f 111/156/49 110/154/48 95/155/48 96/157/49
f 112/158/50 111/156/49 96/157/49 97/159/50
f 113/160/51 112/158/50 97/159/50 98/161/51
f 114/162/52 113/160/51 98/161/51 99/163/52
f 94/132/53 79/133/53 84/113/53 89/118/53
f 114/164/54 99/165/54 104/143/54 109/148/54
f 72/97/32 67/96/43 69/101/43 74/100/32
f 171/166/1 172/167/1 134/168/1 169/169/1
f 169/170/15 134/171/15 135/172/15 170/173/15
f 173/174/2 174/175/2 170/176/2 135/177/2
f 175/178/18 176/179/18 118/180/18 117/181/18
f 174/175/6 171/166/6 169/169/6 170/176/6
f 177/182/1 178/183/1 130/184/1 122/185/1
f 123/186/15 122/187/15 130/188/15 131/189/15
f 179/190/2 180/191/2 123/192/2 131/193/2
f 181/194/1 177/182/1 122/185/1 126/195/1
f 127/196/15 126/197/15 122/187/15 123/186/15
f 180/191/2 182/198/2 127/199/2 123/192/2
f 178/183/55 183/200/55 138/201/55 130/184/55
f 131/189/15 130/188/15 138/202/15 139/203/15
f 184/204/56 179/190/56 131/193/56 139/205/56
f 172/167/57 181/194/57 126/195/57 134/168/57
f 135/172/15 134/171/15 126/197/15 127/196/15
f 182/198/58 173/174/58 135/177/58 127/199/58
f 183/200/1 175/178/1 117/181/1 138/201/1
f 139/203/15 138/202/15 117/206/15 118/207/15
f 176/208/2 184/204/2 139/205/2 118/209/2
f 119/210/15 136/211/15 142/212/15 141/213/15
f 133/214/15 115/215/15 144/216/15 143/217/15
f 115/215/15 119/210/15 141/213/15 144/216/15
f 124/218/15 132/219/15 147/220/15 145/221/15
f 129/222/15 121/223/15 146/224/15 148/225/15
f 128/226/15 124/218/15 145/221/15 149/227/15
f 121/223/15 125/228/15 150/229/15 146/224/15
f 132/219/15 140/230/15 151/231/15 147/220/15
f 137/232/15 129/222/15 148/225/15 152/233/15
f 136/211/15 128/226/15 149/227/15 142/212/15
f 125/228/15 133/214/15 143/217/15 150/229/15
f 140/230/15 120/234/15 153/235/15 151/231/15
f 120/234/15 116/236/15 154/237/15 153/235/15
f 116/236/15 137/232/15 152/233/15 154/237/15
f 141/238/59 142/239/60 156/240/60 155/241/59
f 143/242/61 144/243/62 158/244/62 157/245/61
f 144/243/62 141/238/59 155/241/59 158/244/62
f 145/246/63 147/247/64 161/248/64 159/249/63
f 148/250/65 146/251/66 160/252/66 162/253/65
f 149/254/67 145/246/63 159/249/63 163/255/67
f 146/251/66 150/256/68 164/257/68 160/252/66
f 147/247/64 151/258/69 165/259/69 161/248/64
f 152/260/70 148/250/65 162/253/65 166/261/70
f 142/239/60 149/254/67 163/255/67 156/240/60
f 150/256/68 143/242/61 157/245/61 164/257/68
f 151/258/69 153/262/71 167/263/71 165/259/69
f 153/262/71 154/264/72 168/265/72 167/263/71
f 154/266/72 152/260/70 166/261/70 168/267/72
f 120/268/2 140/269/2 184/204/2 176/208/2
f 137/270/1 116/271/1 175/178/1 183/200/1
f 128/272/58 136/273/58 173/174/58 182/198/58
f 133/274/57 125/275/57 181/194/57 172/167/57
f 140/269/56 132/276/56 179/190/56 184/204/56
f 129/277/55 137/270/55 183/200/55 178/183/55
f 124/278/2 128/272/2 182/198/2 180/191/2
f 125/275/1 121/279/1 177/182/1 181/194/1
f 132/276/2 124/278/2 180/191/2 179/190/2
f 121/279/1 129/277/1 178/183/1 177/182/1
f 119/280/6 115/281/6 171/166/6 174/175/6
f 116/271/18 120/282/18 176/179/18 175/178/18
f 136/273/2 119/280/2 174/175/2 173/174/2
f 115/281/1 133/274/1 172/167/1 171/166/1
