# This file uses centimeters as units for non-parametric coordinates.

mtllib leitpflock AT.mtl
v -0.063012 -0.206399 0.000000
v -0.045452 -0.206399 0.022521
v -0.058103 -0.206399 0.014280
v -0.063012 0.891635 0.000000
v -0.045452 0.891635 0.022521
v -0.058103 0.891635 0.014280
v 0.048507 -0.206399 0.046138
v 0.062989 -0.206399 0.034846
v 0.058505 -0.206399 0.044028
v 0.062989 0.891635 0.034846
v 0.058505 0.891635 0.044028
v 0.048507 0.891635 0.046138
v -0.069103 1.000000 0.000000
v -0.069103 0.891635 0.000000
v -0.047995 1.000000 0.028343
v -0.062907 1.000000 0.018025
v -0.062907 0.891635 0.018025
v -0.047995 0.891635 0.028343
v 0.069104 1.000000 0.036259
v 0.062064 1.000000 0.048592
v 0.062064 0.891635 0.048592
v 0.069104 0.891635 0.036259
v 0.048387 1.000000 0.052413
v 0.048387 0.891635 0.052413
v -0.045452 -0.206399 -0.022521
v -0.058103 -0.206399 -0.014280
v -0.045452 0.891635 -0.022521
v -0.058103 0.891635 -0.014280
v 0.048507 -0.206399 -0.046138
v 0.062989 -0.206399 -0.034846
v 0.058505 -0.206399 -0.044028
v 0.062989 0.891635 -0.034846
v 0.058505 0.891635 -0.044028
v 0.048507 0.891635 -0.046138
v -0.047995 1.000000 -0.028343
v -0.062907 1.000000 -0.018025
v -0.062907 0.891635 -0.018025
v -0.047995 0.891635 -0.028343
v 0.069104 1.000000 -0.036259
v 0.062064 1.000000 -0.048592
v 0.062064 0.891635 -0.048592
v 0.069104 0.891635 -0.036259
v 0.048387 1.000000 -0.052413
v 0.048387 0.891635 -0.052413
vt 0.689871 0.733175
vt 0.690901 0.734619
vt 0.661875 0.724257
vt 0.663507 0.724093
vt 0.692672 0.735201
vt 0.660170 0.724310
vt 0.663449 0.723492
vt 0.661806 0.723678
vt 0.661383 0.609147
vt 0.662858 0.609147
vt 0.660170 0.723778
vt 0.659909 0.609147
vt 0.689020 0.721894
vt 0.687726 0.722424
vt 0.674101 0.722756
vt 0.688923 0.711381
vt 0.687380 0.723768
vt 0.672779 0.723131
vt 0.695961 0.711366
vt 0.695997 0.721825
vt 0.689025 0.710792
vt 0.688937 0.603460
vt 0.695750 0.603454
vt 0.695857 0.710783
vt 0.688023 0.710793
vt 0.673316 0.609147
vt 0.672635 0.722546
vt 0.672318 0.609147
vt 0.695412 0.733101
vt 0.694425 0.734571
vt 0.697300 0.722337
vt 0.697675 0.723666
vt 0.656833 0.724092
vt 0.658464 0.724257
vt 0.656891 0.723491
vt 0.656960 0.609147
vt 0.658434 0.609147
vt 0.658534 0.723678
vt 0.646238 0.722754
vt 0.647561 0.723129
vt 0.696748 0.603453
vt 0.646662 0.722296
vt 0.647498 0.609147
vt 0.647705 0.722543
vt 0.656263 0.734788
vt 0.646212 0.733451
vt 0.644836 0.733197
vt 0.697311 0.711327
vt 0.696858 0.710782
vt 0.658159 0.734857
vt 0.660169 0.734897
vt 0.646501 0.609147
vt 0.664074 0.734789
vt 0.674126 0.733453
vt 0.675501 0.733200
vt 0.687574 0.711356
vt 0.673318 0.716377
vt 0.662178 0.734857
vt 0.687938 0.603461
vt 0.656961 0.716377
vt 0.647500 0.716377
vt 0.646502 0.716377
vt 0.659910 0.716377
vt 0.658436 0.716377
vt 0.662859 0.716377
vt 0.672320 0.716377
vt 0.673677 0.722299
vt 0.661385 0.716377
vn -0.295209 0.000000 0.955433
vn -0.802028 0.000000 0.597287
vn -0.802028 0.000000 0.597287
vn -0.295209 0.000000 0.955433
vn -1.000000 0.000000 0.000000
vn -1.000000 0.000000 0.000000
vn -0.286318 0.000000 0.958135
vn -0.788620 0.000000 0.614880
vn -0.788620 0.000000 0.614880
vn -0.286318 0.000000 0.958135
vn -1.000000 0.000000 0.000000
vn -1.000000 0.000000 0.000000
vn 0.996577 0.000000 0.082675
vn 0.614906 0.000000 0.788600
vn 0.614906 0.000000 0.788600
vn 0.996577 0.000000 0.082675
vn -0.180946 0.000000 0.983493
vn -0.180946 0.000000 0.983493
vn 0.996577 0.000000 -0.082675
vn 0.996577 0.000000 -0.082675
vn 0.998388 0.000000 0.056756
vn 0.998388 0.000000 0.056756
vn 0.998388 0.000000 -0.056756
vn 0.998388 0.000000 -0.056756
vn 0.614907 0.000000 0.788599
vn 0.614907 0.000000 0.788599
vn -0.202593 0.000000 0.979263
vn -0.202593 0.000000 0.979263
vn 0.000000 1.000000 0.000000
vn 0.000000 1.000000 0.000000
vn 0.000000 1.000000 0.000000
vn 0.000000 1.000000 0.000000
vn 0.000000 -1.000000 -0.000005
vn 0.000000 -1.000000 0.000005
vn 0.000000 -1.000000 0.000005
vn 0.000000 -1.000000 -0.000005
vn 0.000000 -1.000000 0.000000
vn 0.000000 -1.000000 0.000000
vn 0.000000 -1.000000 -0.000004
vn 0.000000 -1.000000 -0.000000
vn 0.000000 -1.000000 -0.000000
vn 0.000000 -1.000000 -0.000004
vn 0.000000 -1.000000 0.000006
vn 0.000000 -1.000000 0.000006
vn 0.000000 -1.000000 0.000000
vn 0.000000 -1.000000 0.000000
vn 0.000000 1.000000 0.000000
vn 0.000000 1.000000 0.000000
vn 0.000000 1.000000 0.000000
vn 0.000000 1.000000 0.000000
vn 0.000000 1.000000 0.000000
vn 0.000000 1.000000 0.000000
vn 0.000000 1.000000 0.000000
vn -0.295210 0.000000 -0.955432
vn -0.295210 0.000000 -0.955432
vn -0.802028 0.000000 -0.597287
vn -0.802028 0.000000 -0.597287
vn -0.286318 0.000000 -0.958135
vn -0.286318 0.000000 -0.958135
vn -0.788620 0.000000 -0.614880
vn -0.788620 0.000000 -0.614880
vn 0.614910 0.000000 -0.788597
vn 0.614910 0.000000 -0.788597
vn -0.180946 0.000000 -0.983493
vn -0.180946 0.000000 -0.983493
vn 0.614913 0.000000 -0.788595
vn 0.614913 0.000000 -0.788595
vn -0.202591 0.000000 -0.979264
vn -0.202591 0.000000 -0.979264
vn 0.000000 -1.000000 0.000005
vn 0.000000 -1.000000 0.000005
vn 0.000000 -1.000000 -0.000009
vn 0.000000 -1.000000 -0.000009
vn 0.000000 -1.000000 0.000000
vn 0.000000 -1.000000 0.000000
vn 0.000000 -1.000000 -0.000011
vn 0.000000 -1.000000 -0.000011
s 1
usemtl aiStandardSurface1SG
f 15/53/1 16/58/2 17/3/3 18/4/4
f 16/58/2 13/51/5 14/6/6 17/3/3
s 2
f 5/65/7 6/68/8 3/9/9 2/10/10
f 6/68/8 4/63/11 1/12/12 3/9/9
s 1
f 19/13/13 20/14/14 21/56/15 22/16/16
f 20/55/14 23/54/17 24/18/18 21/15/15
f 19/13/13 22/16/16 42/19/19 39/20/20
s 2
f 10/21/21 8/22/22 30/23/23 32/24/24
s 1
f 18/4/4 24/18/18 23/54/17 15/53/1
s 2
f 10/21/21 11/25/25 9/59/26 8/22/22
f 11/57/25 12/66/27 7/28/28 9/26/26
s 5
f 16/2/29 15/1/30 35/29/31 36/30/32
s 6
f 6/8/33 5/7/34 18/4/35 17/3/36
f 4/11/37 6/8/33 17/3/36 14/6/38
f 11/25/39 10/21/40 22/16/41 21/56/42
f 12/27/43 11/67/39 21/15/42 24/18/44
f 22/16/41 10/21/40 32/24/45 42/19/46
f 5/7/34 12/27/43 24/18/44 18/4/35
s 5
f 20/14/47 19/13/48 39/20/49 40/31/50
f 13/5/51 16/2/29 36/30/32
f 23/17/52 20/14/47 40/31/50 43/32/53
f 15/1/30 23/17/52 43/32/53 35/29/31
s 1
f 35/45/54 38/33/55 37/34/56 36/50/57
f 36/50/57 37/34/56 14/6/6 13/51/5
s 2
f 27/60/58 25/36/59 26/37/60 28/64/61
f 28/64/61 26/37/60 1/12/12 4/63/11
s 1
f 39/20/20 42/19/19 41/48/62 40/31/63
f 40/47/63 41/39/62 44/40/64 43/46/65
f 38/33/55 35/45/54 43/46/65 44/40/64
s 2
f 32/24/24 30/23/23 31/41/66 33/49/67
f 33/62/67 31/52/66 29/43/68 34/61/69
s 6
f 28/38/70 37/34/71 38/33/72 27/35/73
f 4/11/37 14/6/38 37/34/71 28/38/70
f 33/49/74 41/48/75 42/19/46 32/24/45
f 34/44/76 44/40/77 41/39/75 33/42/74
f 27/35/73 38/33/72 44/40/77 34/44/76
s 2
f 25/36/59 27/60/58 34/61/69 29/43/68
f 5/65/7 2/10/10 7/28/28 12/66/27
