# This file uses centimeters as units for non-parametric coordinates.

mtllib poller grün.mtl
v 0.046419 -0.149746 -0.046419
v 0.000000 -0.149746 -0.065646
v -0.046418 -0.149746 -0.046419
v -0.065646 -0.149746 0.000000
v -0.046418 -0.149746 0.046419
v 0.000000 -0.149746 0.065646
v 0.046419 -0.149746 0.046419
v 0.065646 -0.149746 0.000000
v 0.046419 0.990463 -0.046419
v 0.000000 0.990463 -0.065646
v -0.046418 0.990463 -0.046419
v -0.065646 0.990463 0.000000
v -0.046418 0.990463 0.046419
v 0.000000 0.990463 0.065646
v 0.046419 0.990463 0.046419
v 0.065646 0.990463 0.000000
v 0.000000 1.009151 0.000000
v 0.046419 0.842916 -0.046419
v 0.065646 0.842916 0.000000
v 0.046419 0.842916 0.046419
v 0.000000 0.842916 0.065646
v -0.046418 0.842916 0.046419
v -0.065646 0.842916 0.000000
v -0.046418 0.842916 -0.046419
v 0.000000 0.842916 -0.065646
v 0.046419 0.733585 -0.046419
v 0.065646 0.733585 0.000000
v 0.046419 0.733585 0.046419
v 0.000000 0.733585 0.065646
v -0.046418 0.733585 0.046419
v -0.065646 0.733585 0.000000
v -0.046418 0.733585 -0.046419
v 0.000000 0.733585 -0.065646
v 0.046419 0.808547 -0.046419
v 0.065646 0.808547 0.000000
v 0.046419 0.808547 0.046419
v 0.000000 0.808547 0.065646
v -0.046418 0.808547 0.046419
v -0.065646 0.808547 0.000000
v -0.046418 0.808547 -0.046419
v 0.000000 0.808547 -0.065646
v 0.046419 0.767573 -0.046419
v 0.065646 0.767573 0.000000
v 0.046419 0.767573 0.046419
v 0.000000 0.767573 0.065646
v -0.046418 0.767573 0.046419
v -0.065646 0.767573 0.000000
v -0.046418 0.767573 -0.046419
v 0.000000 0.767573 -0.065646
v 0.040085 0.733585 -0.040085
v 0.056689 0.733585 -0.000001
v 0.040085 0.767573 -0.040085
v 0.056689 0.767573 -0.000001
v 0.040085 0.733585 0.040085
v 0.040085 0.767573 0.040085
v 0.000000 0.733585 0.056689
v 0.000000 0.767573 0.056689
v -0.040085 0.733585 0.040085
v -0.040085 0.767573 0.040085
v -0.056688 0.733585 0.000000
v -0.056688 0.767573 0.000000
v -0.040085 0.733585 -0.040085
v -0.040085 0.767573 -0.040085
v 0.000000 0.733585 -0.056688
v 0.000000 0.767573 -0.056688
v 0.040085 0.808547 -0.040085
v 0.056689 0.808547 -0.000001
v 0.040085 0.842916 -0.040085
v 0.056689 0.842916 -0.000001
v 0.040085 0.808547 0.040085
v 0.040085 0.842916 0.040085
v 0.000000 0.808547 0.056689
v 0.000000 0.842916 0.056689
v -0.040085 0.808547 0.040085
v -0.040085 0.842916 0.040085
v -0.056688 0.808547 0.000000
v -0.056688 0.842916 0.000000
v -0.040085 0.808547 -0.040085
v -0.040085 0.842916 -0.040085
v 0.000000 0.808547 -0.056688
v 0.000000 0.842916 -0.056688
vt 0.532751 0.011131
vt 0.537671 0.011077
vt 0.542611 0.011027
vt 0.547554 0.010994
vt 0.552497 0.010978
vt 0.557440 0.010980
vt 0.562381 0.010999
vt 0.567322 0.011036
vt 0.572257 0.011091
vt 0.532247 0.125119
vt 0.537239 0.125555
vt 0.542266 0.125840
vt 0.547304 0.126003
vt 0.552349 0.126059
vt 0.557390 0.126011
vt 0.562441 0.125837
vt 0.567477 0.125509
vt 0.572399 0.125083
vt 0.560970 0.129539
vt 0.548827 0.129641
vt 0.548871 0.134667
vt 0.552455 0.138192
vt 0.557483 0.138150
vt 0.561009 0.134566
vt 0.554919 0.132103
vt 0.571333 0.110727
vt 0.533495 0.110606
vt 0.566488 0.111301
vt 0.561770 0.111465
vt 0.557053 0.111537
vt 0.552327 0.111550
vt 0.547603 0.111508
vt 0.542893 0.111404
vt 0.538198 0.111199
vt 0.571700 0.097835
vt 0.533183 0.097739
vt 0.566854 0.097498
vt 0.562042 0.097440
vt 0.557250 0.097422
vt 0.552466 0.097407
vt 0.547681 0.097387
vt 0.542885 0.097368
vt 0.538063 0.097391
vt 0.571058 0.106287
vt 0.533614 0.106162
vt 0.566410 0.106320
vt 0.561769 0.106451
vt 0.557106 0.106501
vt 0.552419 0.106504
vt 0.547736 0.106466
vt 0.543087 0.106381
vt 0.538482 0.106221
vt 0.571280 0.102302
vt 0.533693 0.102186
vt 0.566393 0.102433
vt 0.561752 0.102418
vt 0.557076 0.102424
vt 0.552374 0.102417
vt 0.547673 0.102386
vt 0.542995 0.102342
vt 0.538341 0.102329
vt 0.566718 0.098283
vt 0.571144 0.098556
vt 0.570905 0.101539
vt 0.566408 0.101641
vt 0.561978 0.098243
vt 0.561798 0.101615
vt 0.557209 0.098229
vt 0.557113 0.101615
vt 0.552439 0.098214
vt 0.552401 0.101607
vt 0.547668 0.098192
vt 0.547689 0.101578
vt 0.542898 0.098170
vt 0.542999 0.101542
vt 0.538177 0.098189
vt 0.538368 0.101547
vt 0.533704 0.098485
vt 0.534074 0.101451
vt 0.566354 0.107103
vt 0.570640 0.107036
vt 0.570850 0.110009
vt 0.566408 0.110501
vt 0.561748 0.107250
vt 0.561770 0.110660
vt 0.557082 0.107307
vt 0.557070 0.110729
vt 0.552393 0.107312
vt 0.552354 0.110741
vt 0.547707 0.107273
vt 0.547640 0.110700
vt 0.543058 0.107182
vt 0.542947 0.110598
vt 0.538495 0.107013
vt 0.538309 0.110410
vt 0.534027 0.106935
vt 0.533988 0.109921
vn 0.707106 0.000000 -0.707108
vn -0.000000 0.000000 -1.000000
vn -0.000000 0.000000 -1.000000
vn 0.707106 0.000000 -0.707108
vn -0.707107 0.000000 -0.707107
vn -0.707107 0.000000 -0.707107
vn -1.000000 0.000000 0.000000
vn -1.000000 0.000000 0.000000
vn -0.707107 0.000000 0.707107
vn -0.707107 0.000000 0.707107
vn -0.000000 0.000000 1.000000
vn -0.000000 0.000000 1.000000
vn 0.707106 0.000000 0.707108
vn 0.707106 0.000000 0.707108
vn 1.000000 0.000000 0.000000
vn 1.000000 0.000000 0.000000
vn 0.193612 0.961785 -0.193611
vn 0.000000 0.961784 -0.273808
vn -0.000000 1.000000 -0.000000
vn -0.193612 0.961784 -0.193610
vn -0.273809 0.961784 0.000000
vn -0.193612 0.961784 0.193610
vn 0.000000 0.961784 0.273808
vn 0.193612 0.961785 0.193611
vn 0.273808 0.961784 0.000000
vn 1.000000 0.000000 0.000000
vn 0.707105 0.000000 -0.707108
vn 0.707105 0.000000 -0.707108
vn 1.000000 0.000000 0.000000
vn 0.707105 0.000000 0.707108
vn 0.707105 0.000000 0.707108
vn -0.000000 0.000000 1.000000
vn -0.000000 0.000000 1.000000
vn -0.707107 0.000000 0.707107
vn -0.707107 0.000000 0.707107
vn -1.000000 0.000000 0.000000
vn -1.000000 0.000000 0.000000
vn -0.707107 0.000000 -0.707107
vn -0.707107 0.000000 -0.707107
vn -0.000000 0.000000 -1.000000
vn -0.000000 0.000000 -1.000000
vn 1.000000 0.000000 -0.000000
vn 0.707102 0.000000 -0.707111
vn 0.707102 0.000000 -0.707111
vn 1.000000 0.000000 -0.000000
vn 0.707112 0.000000 0.707102
vn 0.707112 0.000000 0.707102
vn 0.000000 0.000000 1.000000
vn 0.000000 0.000000 1.000000
vn -0.707110 0.000000 0.707104
vn -0.707110 0.000000 0.707104
vn -1.000000 0.000000 0.000000
vn -1.000000 0.000000 0.000000
vn -0.707107 0.000000 -0.707107
vn -0.707107 0.000000 -0.707107
vn -0.000000 0.000000 -1.000000
vn -0.000000 0.000000 -1.000000
vn 1.000000 0.000000 -0.000000
vn 0.707102 0.000000 -0.707111
vn 0.707102 0.000000 -0.707111
vn 1.000000 0.000000 -0.000000
vn 0.707112 0.000000 0.707102
vn 0.707112 0.000000 0.707102
vn -0.000000 0.000000 1.000000
vn -0.000000 0.000000 1.000000
vn -0.707109 0.000000 0.707104
vn -0.707109 0.000000 0.707104
vn -1.000000 0.000000 -0.000000
vn -1.000000 0.000000 -0.000000
vn -0.707106 0.000000 -0.707107
vn -0.707106 0.000000 -0.707107
vn 0.000000 0.000000 -1.000000
vn 0.000000 0.000000 -1.000000
vn 1.000000 0.000000 0.000000
vn 0.707106 0.000000 -0.707108
vn 0.707106 0.000000 -0.707108
vn 1.000000 0.000000 0.000000
vn 0.707106 0.000000 0.707108
vn 0.707106 0.000000 0.707108
vn 0.000000 0.000000 1.000000
vn 0.000000 0.000000 1.000000
vn -0.707107 0.000000 0.707107
vn -0.707107 0.000000 0.707107
vn -1.000000 0.000000 0.000000
vn -1.000000 0.000000 0.000000
vn -0.707107 0.000000 -0.707107
vn -0.707107 0.000000 -0.707107
vn 0.000000 0.000000 -1.000000
vn 0.000000 0.000000 -1.000000
vn 0.000000 1.000000 0.000000
vn 0.000000 1.000000 0.000000
vn 0.000000 1.000000 0.000000
vn 0.000000 1.000000 0.000000
vn 0.000000 -1.000000 0.000001
vn 0.000000 -1.000000 0.000001
vn 0.000000 -1.000000 0.000001
vn 0.000000 -1.000000 0.000001
vn 0.000000 1.000000 0.000000
vn 0.000000 1.000000 0.000000
vn 0.000000 -1.000000 0.000000
vn 0.000000 -1.000000 -0.000000
vn 0.000000 1.000000 -0.000001
vn 0.000000 1.000000 -0.000001
vn 0.000000 -1.000000 -0.000001
vn 0.000000 -1.000000 -0.000001
vn 0.000000 1.000000 0.000000
vn 0.000000 1.000000 -0.000000
vn 0.000000 -1.000000 -0.000001
vn 0.000000 -1.000000 -0.000001
vn 0.000000 1.000000 0.000001
vn 0.000000 1.000000 0.000001
vn 0.000000 -1.000000 0.000000
vn 0.000000 -1.000000 0.000000
vn 0.000000 1.000000 0.000002
vn 0.000000 1.000000 0.000002
vn 0.000000 -1.000000 -0.000000
vn 0.000000 -1.000000 0.000000
vn 0.000000 1.000000 0.000002
vn 0.000000 1.000000 0.000002
vn 0.000000 -1.000000 -0.000001
vn 0.000000 -1.000000 -0.000001
vn 0.000000 1.000000 -0.000001
vn 0.000000 1.000000 -0.000002
vn 0.000000 1.000000 -0.000002
vn 0.000000 1.000000 -0.000001
vn 0.000000 -1.000000 -0.000001
vn 0.000000 -1.000000 -0.000001
vn 0.000000 -1.000000 -0.000001
vn 0.000000 -1.000000 -0.000001
vn 0.000000 1.000000 0.000001
vn 0.000000 1.000000 0.000001
vn 0.000000 -1.000000 0.000002
vn 0.000000 -1.000000 0.000002
vn 0.000000 1.000000 0.000000
vn 0.000000 1.000000 0.000000
vn 0.000000 -1.000000 0.000002
vn 0.000000 -1.000000 0.000002
vn 0.000000 1.000000 0.000001
vn 0.000000 1.000000 0.000001
vn 0.000000 -1.000000 0.000001
vn 0.000000 -1.000000 0.000001
vn 0.000000 1.000000 0.000001
vn 0.000000 1.000000 0.000001
vn 0.000000 -1.000000 0.000001
vn 0.000000 -1.000000 0.000001
vn 0.000000 1.000000 0.000000
vn 0.000000 1.000000 0.000000
vn 0.000000 -1.000000 0.000001
vn 0.000000 -1.000000 0.000001
vn 0.000000 1.000000 0.000000
vn 0.000000 1.000000 0.000000
vn 0.000000 -1.000000 0.000001
vn 0.000000 -1.000000 0.000001
s 1
usemtl aiStandardSurface1SG
f 1/1/1 2/2/2 33/43/3 26/36/4
f 2/2/2 3/3/5 32/42/6 33/43/3
f 3/3/5 4/4/7 31/41/8 32/42/6
f 4/4/7 5/5/9 30/40/10 31/41/8
f 5/5/9 6/6/11 29/39/12 30/40/10
f 6/6/11 7/7/13 28/38/14 29/39/12
f 7/7/13 8/8/15 27/37/16 28/38/14
f 8/8/15 1/9/1 26/35/4 27/37/16
s 2
f 9/23/17 10/22/18 17/25/19
f 10/22/18 11/21/20 17/25/19
f 11/21/20 12/20/21 17/25/19
f 12/20/21 13/14/22 17/25/19
f 13/14/22 14/15/23 17/25/19
f 14/15/23 15/19/24 17/25/19
f 15/19/24 16/24/25 17/25/19
f 16/24/25 9/23/17 17/25/19
s 3
f 19/28/26 18/26/27 9/18/28 16/17/29
f 20/29/30 19/28/26 16/17/29 15/16/31
f 21/30/32 20/29/30 15/16/31 14/15/33
f 22/31/34 21/30/32 14/15/33 13/14/35
f 23/32/36 22/31/34 13/14/35 12/13/37
f 24/33/38 23/32/36 12/13/37 11/12/39
f 25/34/40 24/33/38 11/12/39 10/11/41
f 18/27/27 25/34/40 10/11/41 9/10/28
s 4
f 51/62/42 50/63/43 52/64/44 53/65/45
f 54/66/46 51/62/42 53/65/45 55/67/47
f 56/68/48 54/66/46 55/67/47 57/69/49
f 58/70/50 56/68/48 57/69/49 59/71/51
f 60/72/52 58/70/50 59/71/51 61/73/53
f 62/74/54 60/72/52 61/73/53 63/75/55
f 64/76/56 62/74/54 63/75/55 65/77/57
f 50/78/43 64/76/56 65/77/57 52/79/44
s 5
f 67/80/58 66/81/59 68/82/60 69/83/61
f 70/84/62 67/80/58 69/83/61 71/85/63
f 72/86/64 70/84/62 71/85/63 73/87/65
f 74/88/66 72/86/64 73/87/65 75/89/67
f 76/90/68 74/88/66 75/89/67 77/91/69
f 78/92/70 76/90/68 77/91/69 79/93/71
f 80/94/72 78/92/70 79/93/71 81/95/73
f 66/96/59 80/94/72 81/95/73 68/97/60
s 6
f 43/55/74 42/53/75 34/44/76 35/46/77
f 44/56/78 43/55/74 35/46/77 36/47/79
f 45/57/80 44/56/78 36/47/79 37/48/81
f 46/58/82 45/57/80 37/48/81 38/49/83
f 47/59/84 46/58/82 38/49/83 39/50/85
f 48/60/86 47/59/84 39/50/85 40/51/87
f 49/61/88 48/60/86 40/51/87 41/52/89
f 42/54/75 49/61/88 41/52/89 34/45/76
s 7
f 27/37/90 26/35/91 50/63/92 51/62/93
s 8
f 42/53/94 43/55/95 53/65/96 52/64/97
s 7
f 28/38/98 27/37/90 51/62/93 54/66/99
s 8
f 43/55/95 44/56/100 55/67/101 53/65/96
s 7
f 29/39/102 28/38/98 54/66/99 56/68/103
s 8
f 44/56/100 45/57/104 57/69/105 55/67/101
s 7
f 30/40/106 29/39/102 56/68/103 58/70/107
s 8
f 45/57/104 46/58/108 59/71/109 57/69/105
s 7
f 31/41/110 30/40/106 58/70/107 60/72/111
s 8
f 46/58/108 47/59/112 61/73/113 59/71/109
s 7
f 32/42/114 31/41/110 60/72/111 62/74/115
s 8
f 47/59/112 48/60/116 63/75/117 61/73/113
s 7
f 33/43/118 32/42/114 62/74/115 64/76/119
s 8
f 48/60/116 49/61/120 65/77/121 63/75/117
s 7
f 26/36/91 33/43/118 64/76/119 50/78/92
s 8
f 49/61/120 42/54/94 52/79/97 65/77/121
s 9
f 35/46/122 34/44/123 66/81/124 67/80/125
s 10
f 18/26/126 19/28/127 69/83/128 68/82/129
s 9
f 36/47/130 35/46/122 67/80/125 70/84/131
s 10
f 19/28/127 20/29/132 71/85/133 69/83/128
s 9
f 37/48/134 36/47/130 70/84/131 72/86/135
s 10
f 20/29/132 21/30/136 73/87/137 71/85/133
s 9
f 38/49/138 37/48/134 72/86/135 74/88/139
s 10
f 21/30/136 22/31/140 75/89/141 73/87/137
s 9
f 39/50/142 38/49/138 74/88/139 76/90/143
s 10
f 22/31/140 23/32/144 77/91/145 75/89/141
s 9
f 40/51/146 39/50/142 76/90/143 78/92/147
s 10
f 23/32/144 24/33/148 79/93/149 77/91/145
s 9
f 41/52/150 40/51/146 78/92/147 80/94/151
s 10
f 24/33/148 25/34/152 81/95/153 79/93/149
s 9
f 34/45/123 41/52/150 80/94/151 66/96/124
s 10
f 25/34/152 18/27/126 68/97/129 81/95/153
