# This file uses centimeters as units for non-parametric coordinates.

mtllib schild zusatztafel klein.mtl
v -0.186514 0.072274 0.027511
v -0.171392 0.087395 0.027511
v -0.186514 0.072274 0.000000
v -0.171392 0.087395 0.000000
v 0.173752 0.087395 0.027511
v 0.188874 0.072274 0.027511
v 0.188874 0.072274 0.000000
v 0.173752 0.087395 0.000000
v -0.171392 -0.076455 0.027511
v -0.186514 -0.061334 0.027511
v -0.186514 -0.061334 0.000000
v -0.171392 -0.076455 0.000000
v 0.188874 -0.061334 0.027511
v 0.173752 -0.076455 0.027511
v 0.173752 -0.076455 0.000000
v 0.188874 -0.061334 0.000000
vt 0.920156 0.890270
vt 0.920075 0.855556
vt 0.886289 0.855651
vt 0.886373 0.890368
vt 0.920101 0.871539
vt 0.920109 0.874232
vt 0.886327 0.874329
vt 0.886315 0.871636
vt 0.884927 0.869891
vt 0.882303 0.870518
vt 0.882431 0.856744
vt 0.884916 0.857297
vt 0.923991 0.870448
vt 0.921508 0.869898
vt 0.921430 0.857294
vt 0.924059 0.856673
vt 0.883476 0.872557
vt 0.922883 0.872624
vt 0.883504 0.854581
vt 0.886282 0.852959
vt 0.920068 0.852864
vt 0.922911 0.854638
vt 0.884851 0.875814
vt 0.921594 0.875708
vt 0.884889 0.888892
vt 0.921632 0.888786
vn 0.000000 1.000000 0.000000
vn 0.000000 1.000000 0.000000
vn 0.000000 1.000000 0.000000
vn 0.000000 1.000000 0.000000
vn 0.000000 -1.000000 0.000000
vn 0.000000 -1.000000 0.000000
vn 0.000000 -1.000000 0.000000
vn 0.000000 -1.000000 0.000000
vn 1.000000 0.000000 0.000000
vn 1.000000 0.000000 0.000000
vn 1.000000 0.000000 0.000000
vn 1.000000 0.000000 0.000000
vn -1.000000 0.000000 0.000000
vn -1.000000 0.000000 0.000000
vn -1.000000 0.000000 0.000000
vn -1.000000 0.000000 0.000000
vn 0.000000 0.000000 -1.000000
vn 0.000000 0.000000 -1.000000
vn 0.000000 0.000000 -1.000000
vn 0.000000 0.000000 -1.000000
vn 0.000000 0.000000 1.000000
vn 0.000000 0.000000 1.000000
vn 0.000000 0.000000 1.000000
vn 0.000000 0.000000 1.000000
vn -0.707104 0.707110 0.000000
vn -0.707104 0.707110 0.000000
vn -0.707104 0.707110 0.000000
vn -0.707104 0.707110 0.000000
vn 0.707104 0.707109 0.000000
vn 0.707104 0.707109 0.000000
vn 0.707104 0.707109 0.000000
vn 0.707104 0.707109 0.000000
vn -0.707113 -0.707100 0.000000
vn -0.707113 -0.707100 0.000000
vn -0.707113 -0.707100 0.000000
vn -0.707113 -0.707100 0.000000
vn 0.707114 -0.707100 0.000000
vn 0.707114 -0.707100 0.000000
vn 0.707114 -0.707100 0.000000
vn 0.707114 -0.707100 0.000000
vn -0.000000 0.000000 1.000000
vn -0.000000 0.000000 1.000000
vn -0.000000 0.000000 1.000000
vn -0.000000 0.000000 1.000000
vn 0.000000 0.000000 -1.000000
vn 0.000000 0.000000 -1.000000
vn 0.000000 0.000000 -1.000000
vn 0.000000 0.000000 -1.000000
s off
usemtl aiStandardSurface1SG
f 4/21/1 2/2/2 5/3/3 8/20/4
f 9/5/5 12/6/6 15/7/7 14/8/8
f 13/9/9 16/10/10 7/11/11 6/12/12
f 11/13/13 10/14/14 1/15/15 3/16/16
s 1
f 3/26/17 4/1/18 12/6/19 11/24/20
s 2
f 5/3/21 14/8/22 13/9/23 6/12/24
s off
f 1/15/25 2/2/26 4/22/27 3/16/28
f 5/3/29 6/12/30 7/11/31 8/19/32
f 9/5/33 10/14/34 11/13/35 12/18/36
f 13/9/37 14/8/38 15/17/39 16/10/40
s 2
f 2/2/41 9/5/42 14/8/22 5/3/21
f 10/14/43 9/5/42 2/2/41 1/15/44
s 1
f 15/7/45 8/4/46 7/25/47 16/23/48
f 12/6/19 4/1/18 8/4/46 15/7/45
