# This file uses centimeters as units for non-parametric coordinates.

mtllib schild ortsschild DE.mtl
v -0.450477 1.605793 0.009122
v -0.435478 1.620791 0.009122
v -0.450477 1.605793 -0.009122
v -0.435478 1.620791 -0.009122
v 0.434525 1.620791 0.009122
v 0.449523 1.605793 0.009122
v 0.449523 1.605793 -0.009122
v 0.434525 1.620791 -0.009122
v -0.435478 1.020792 0.009122
v -0.450477 1.035790 0.009122
v -0.450477 1.035790 -0.009122
v -0.435478 1.020792 -0.009122
v 0.449523 1.035790 0.009122
v 0.434525 1.020792 0.009122
v 0.434525 1.020792 -0.009122
v 0.449523 1.035790 -0.009122
v -0.484613 1.020008 -0.019537
v -0.506670 1.020008 -0.019537
v -0.517699 1.020008 0.000000
v -0.506670 1.020008 0.019537
v -0.484613 1.020008 0.019537
v -0.473585 1.020008 0.000000
v 0.452052 0.966511 -0.019537
v 0.452052 0.989070 -0.019537
v 0.452052 1.000350 0.000000
v 0.452052 0.989070 0.019537
v 0.452052 0.966511 0.019537
v 0.452052 0.955232 0.000000
v -0.446885 0.966511 -0.019537
v -0.446885 0.989070 -0.019537
v -0.446885 1.000350 0.000000
v -0.446885 0.989070 0.019537
v -0.446885 0.966511 0.019537
v -0.446885 0.955232 0.000000
v 0.506670 1.020008 -0.019537
v 0.484613 1.020008 -0.019537
v 0.473585 1.020008 0.000000
v 0.484613 1.020008 0.019537
v 0.506670 1.020008 0.019537
v 0.517699 1.020008 0.000000
v 0.472595 0.991196 -0.019537
v 0.479451 0.970737 -0.019537
v 0.482879 0.960507 0.000000
v 0.479451 0.970737 0.019537
v 0.472595 0.991196 0.019537
v 0.469167 1.001425 0.000000
v 0.482300 0.999896 -0.019537
v 0.501803 0.992079 -0.019537
v 0.511555 0.988171 0.000000
v 0.501803 0.992079 0.019537
v 0.482300 0.999896 0.019537
v 0.472549 1.003804 0.000000
v -0.500797 0.990720 -0.019537
v -0.510270 0.986425 0.000000
v -0.500797 0.990720 0.019537
v -0.481851 0.999310 0.019537
v -0.472378 1.003605 0.000000
v -0.481851 0.999310 -0.019537
v -0.475897 0.970137 -0.019537
v -0.478902 0.959672 0.000000
v -0.475897 0.970137 0.019537
v -0.469886 0.991066 0.019537
v -0.466880 1.001531 0.000000
v -0.469886 0.991066 -0.019537
v 0.367353 1.044949 0.005363
v 0.389603 1.044949 0.005363
v 0.367353 0.989837 0.005363
v 0.389603 0.989837 0.005363
v 0.367353 0.989837 -0.005362
v 0.389603 0.989837 -0.005362
v 0.367353 1.044949 -0.005362
v 0.389603 1.044949 -0.005362
v -0.394161 1.044949 0.005363
v -0.371912 1.044949 0.005363
v -0.394161 0.989837 0.005363
v -0.371912 0.989837 0.005363
v -0.394161 0.989837 -0.005362
v -0.371912 0.989837 -0.005362
v -0.394161 1.044949 -0.005362
v -0.371912 1.044949 -0.005362
v -0.484613 1.621365 -0.019537
v -0.506670 1.621365 -0.019537
v -0.517699 1.621365 0.000000
v -0.506670 1.621365 0.019537
v -0.484613 1.621365 0.019537
v -0.473585 1.621365 0.000000
v 0.452052 1.674862 -0.019537
v 0.452052 1.652303 -0.019537
v 0.452052 1.641023 0.000000
v 0.452052 1.652303 0.019537
v 0.452052 1.674862 0.019537
v 0.452052 1.686141 0.000000
v -0.446885 1.674862 -0.019537
v -0.446885 1.652303 -0.019537
v -0.446885 1.641023 0.000000
v -0.446885 1.652303 0.019537
v -0.446885 1.674862 0.019537
v -0.446885 1.686141 0.000000
v 0.506670 1.621365 -0.019537
v 0.484613 1.621365 -0.019537
v 0.473585 1.621365 0.000000
v 0.484613 1.621365 0.019537
v 0.506670 1.621365 0.019537
v 0.517699 1.621365 0.000000
v 0.472595 1.650177 -0.019537
v 0.479451 1.670636 -0.019537
v 0.482879 1.680866 0.000000
v 0.479451 1.670636 0.019537
v 0.472595 1.650177 0.019537
v 0.469167 1.639948 0.000000
v 0.482300 1.641477 -0.019537
v 0.501803 1.649294 -0.019537
v 0.511555 1.653202 0.000000
v 0.501803 1.649294 0.019537
v 0.482300 1.641477 0.019537
v 0.472549 1.637569 0.000000
v -0.500797 1.650653 -0.019537
v -0.510270 1.654948 0.000000
v -0.500797 1.650653 0.019537
v -0.481851 1.642063 0.019537
v -0.472378 1.637767 0.000000
v -0.481851 1.642063 -0.019537
v -0.475897 1.671236 -0.019537
v -0.478902 1.681701 0.000000
v -0.475897 1.671236 0.019537
v -0.469886 1.650306 0.019537
v -0.466880 1.639842 0.000000
v -0.469886 1.650306 -0.019537
v 0.367353 1.596424 0.005363
v 0.389603 1.596424 0.005363
v 0.367353 1.651536 0.005363
v 0.389603 1.651536 0.005363
v 0.367353 1.651536 -0.005362
v 0.389603 1.651536 -0.005362
v 0.367353 1.596424 -0.005362
v 0.389603 1.596424 -0.005362
v -0.394161 1.596424 0.005363
v -0.371912 1.596424 0.005363
v -0.394161 1.651536 0.005363
v -0.371912 1.651536 0.005363
v -0.394161 1.651536 -0.005362
v -0.371912 1.651536 -0.005362
v -0.394161 1.596424 -0.005362
v -0.371912 1.596424 -0.005362
v 0.013613 -0.226824 -0.024403
v -0.014566 -0.226824 -0.024403
v -0.028655 -0.226824 -0.000000
v -0.014566 -0.226824 0.024403
v 0.013613 -0.226824 0.024403
v 0.027702 -0.226824 -0.000000
v 0.013613 0.896381 -0.024403
v -0.014566 0.896381 -0.024403
v -0.028655 0.896381 -0.000000
v -0.014566 0.896381 0.024403
v 0.013613 0.896381 0.024403
v 0.027702 0.896381 -0.000000
v 0.018820 0.983569 -0.016124
v -0.019773 0.983569 -0.016124
v -0.039070 0.983569 -0.000000
v -0.019773 0.983569 0.016124
v 0.018820 0.983569 0.016124
v 0.038116 0.983569 -0.000000
vt 0.742648 0.753309
vt 0.861635 0.753302
vt 0.861625 0.668293
vt 0.742637 0.668294
vt 0.803061 0.753301
vt 0.801278 0.753301
vt 0.801267 0.668286
vt 0.803050 0.668283
vt 0.804766 0.666852
vt 0.804379 0.665114
vt 0.860320 0.665131
vt 0.859987 0.666859
vt 0.804373 0.756469
vt 0.804711 0.754742
vt 0.859939 0.754726
vt 0.860319 0.756467
vt 0.730914 0.734832
vt 0.726107 0.662057
vt 0.723909 0.662263
vt 0.733137 0.733260
vt 0.721705 0.662408
vt 0.721141 0.731890
vt 0.732734 0.662263
vt 0.723176 0.733270
vt 0.730532 0.662056
vt 0.725400 0.734837
vt 0.728319 0.661957
vt 0.728157 0.735393
vt 0.732099 0.729951
vt 0.732489 0.727714
vt 0.730344 0.727404
vt 0.730141 0.729714
vt 0.728138 0.727248
vt 0.728150 0.729677
vt 0.725943 0.727412
vt 0.726162 0.729720
vt 0.723818 0.727725
vt 0.724209 0.729961
vt 0.721632 0.727884
vt 0.734339 0.729847
vt 0.732302 0.731364
vt 0.730272 0.732324
vt 0.728156 0.732756
vt 0.726039 0.732329
vt 0.724009 0.731374
vt 0.734408 0.730313
vt 0.726270 0.664296
vt 0.728321 0.664139
vt 0.730372 0.664299
vt 0.732376 0.664772
vt 0.722031 0.665177
vt 0.724265 0.664766
vt 0.726098 0.668875
vt 0.726306 0.666653
vt 0.728318 0.666821
vt 0.728305 0.668986
vt 0.730330 0.666660
vt 0.730519 0.668885
vt 0.732302 0.666348
vt 0.732671 0.668616
vt 0.722101 0.666034
vt 0.721775 0.668402
vt 0.724335 0.666337
vt 0.723959 0.668601
vt 0.709114 0.613595
vt 0.709114 0.608210
vt 0.711288 0.608210
vt 0.711288 0.613595
vt 0.708066 0.608210
vt 0.708066 0.613595
vt 0.705892 0.613595
vt 0.712336 0.608210
vt 0.709114 0.613595
vt 0.709114 0.608210
vt 0.711288 0.608210
vt 0.711288 0.613595
vt 0.708066 0.608210
vt 0.708066 0.613595
vt 0.705892 0.613595
vt 0.712336 0.608210
vt 0.730290 0.668908
vt 0.728090 0.669099
vt 0.725879 0.668919
vt 0.723738 0.668536
vt 0.734591 0.668255
vt 0.732411 0.668521
vt 0.723862 0.727718
vt 0.734724 0.727878
vt 0.732539 0.727735
vt 0.730406 0.727501
vt 0.728210 0.727399
vt 0.726009 0.727490
vt 0.730283 0.662345
vt 0.732471 0.662723
vt 0.723287 0.733729
vt 0.725513 0.735112
vt 0.734669 0.663034
vt 0.735177 0.732607
vt 0.723668 0.662739
vt 0.733097 0.733746
vt 0.725847 0.662356
vt 0.730865 0.735122
vt 0.728063 0.662211
vt 0.728188 0.735825
vt 0.731953 0.666337
vt 0.730041 0.666788
vt 0.728077 0.666900
vt 0.726112 0.666797
vt 0.724194 0.666352
vt 0.734216 0.666009
vt 0.730045 0.664461
vt 0.732048 0.664933
vt 0.728070 0.664236
vt 0.726096 0.664470
vt 0.724094 0.664949
vt 0.734251 0.665415
vt 0.726083 0.732550
vt 0.728192 0.732907
vt 0.730302 0.732559
vt 0.732298 0.731589
vt 0.721944 0.730644
vt 0.724091 0.731573
vt 0.728198 0.729785
vt 0.726204 0.729895
vt 0.730192 0.729904
vt 0.732149 0.730035
vt 0.722047 0.729962
vt 0.724245 0.730018
vt 0.709114 0.608214
vt 0.711285 0.608214
vt 0.711285 0.613591
vt 0.709114 0.613591
vt 0.708068 0.613590
vt 0.705897 0.613590
vt 0.712332 0.608214
vt 0.708068 0.608214
vt 0.709114 0.608208
vt 0.711289 0.608208
vt 0.711290 0.613596
vt 0.709114 0.613596
vt 0.708066 0.613596
vt 0.705890 0.613596
vt 0.712338 0.608208
vt 0.708066 0.608208
vt 0.717001 0.617833
vt 0.703252 0.617921
vt 0.703948 0.727549
vt 0.701196 0.727543
vt 0.706002 0.617904
vt 0.706701 0.727603
vt 0.708751 0.617887
vt 0.709456 0.727533
vt 0.711502 0.617869
vt 0.712209 0.727509
vt 0.714252 0.617851
vt 0.714963 0.727536
vt 0.717646 0.735893
vt 0.704243 0.736059
vt 0.706657 0.736273
vt 0.709070 0.736061
vt 0.712806 0.736022
vt 0.715230 0.736173
vt 0.802342 0.666482
vt 0.802230 0.755126
vt 0.862452 0.666460
vt 0.863407 0.668293
vt 0.863418 0.753302
vt 0.862349 0.755100
vt 0.799801 0.666821
vt 0.799813 0.754767
vt 0.744102 0.666828
vt 0.744114 0.754774
vt 0.728326 0.574026
vt 0.726103 0.574026
vt 0.730547 0.574027
vt 0.732764 0.574030
vt 0.734977 0.574032
vt 0.723883 0.574028
vt 0.727967 0.574457
vt 0.730202 0.574457
vt 0.725730 0.574461
vt 0.723496 0.574467
vt 0.721270 0.574475
vt 0.732427 0.574459
vt 0.734866 0.668424
vt 0.721668 0.727854
vt 0.734688 0.727869
vt 0.721545 0.668270
vt 0.734447 0.730666
vt 0.734646 0.574458
vt 0.721209 0.732585
vt 0.734345 0.729984
vt 0.721926 0.666025
vt 0.721893 0.665431
vt 0.721476 0.663050
vt 0.734610 0.665187
vt 0.734941 0.662410
vt 0.734539 0.666048
vt 0.721974 0.729860
vt 0.721905 0.730325
vt 0.721666 0.574031
vt 0.735172 0.731878
vt 0.712338 0.613596
vt 0.705890 0.608208
vt 0.712331 0.613591
vt 0.705898 0.608214
vt 0.705892 0.608210
vt 0.712336 0.613595
vt 0.705892 0.608210
vt 0.712336 0.613595
vt 0.700490 0.735999
vt 0.717715 0.727439
vt 0.700500 0.617939
vn -0.016945 0.999856 0.000000
vn -0.016945 0.999856 0.000000
vn 0.016945 0.999857 0.000000
vn 0.016945 0.999857 0.000000
vn -0.016945 -0.999856 0.000000
vn -0.016945 -0.999856 0.000000
vn 0.016945 -0.999857 0.000000
vn 0.016945 -0.999857 0.000000
vn 0.999672 -0.025630 0.000000
vn 0.999672 -0.025630 0.000000
vn 0.999672 0.025630 0.000000
vn 0.999672 0.025630 0.000000
vn -0.999672 -0.025630 0.000000
vn -0.999672 -0.025630 0.000000
vn -0.999672 0.025630 0.000000
vn -0.999672 0.025630 0.000000
vn -0.000000 0.000000 -1.000000
vn -0.000000 0.000000 -1.000000
vn -0.000000 0.000000 -1.000000
vn -0.000000 0.000000 -1.000000
vn 0.000000 0.000000 1.000000
vn 0.000000 0.000000 1.000000
vn 0.000000 0.000000 1.000000
vn 0.000000 0.000000 1.000000
vn -0.000000 0.000000 1.000000
vn -0.000000 0.000000 1.000000
vn -0.000000 0.000000 1.000000
vn -0.000000 0.000000 1.000000
vn 0.000000 0.000000 -1.000000
vn 0.000000 0.000000 -1.000000
vn 0.000000 0.000000 -1.000000
vn 0.000000 0.000000 -1.000000
vn 0.002694 -0.502643 -0.864490
vn -0.002263 -0.502312 -0.864683
vn 0.000837 0.498463 -0.866911
vn -0.000841 0.498272 -0.867020
vn 0.001758 0.999999 -0.000000
vn -0.001778 0.999999 -0.000000
vn 0.000837 0.498466 0.866909
vn -0.000841 0.498274 0.867019
vn -0.002263 -0.502315 0.864682
vn 0.002694 -0.502645 0.864489
vn -0.004155 -0.999991 -0.000000
vn 0.004852 -0.999988 -0.000000
vn -0.286649 0.096021 -0.953212
vn -0.505592 0.001319 -0.862772
vn 0.512925 -0.004702 -0.858420
vn 0.580263 -0.338090 -0.740938
vn 0.999966 -0.008227 -0.000000
vn 0.874458 -0.485102 0.000000
vn 0.512926 -0.004702 0.858420
vn 0.580265 -0.338091 0.740937
vn -0.505594 0.001319 0.862770
vn -0.286651 0.096021 0.953211
vn -0.999996 0.002755 -0.000003
vn -0.941077 0.338191 -0.000003
vn -0.084051 0.308321 -0.947562
vn 0.319268 -0.580495 -0.749062
vn 0.459125 -0.888372 0.000000
vn 0.319269 -0.580497 0.749060
vn -0.084052 0.308322 0.947562
vn -0.271923 0.962319 -0.000002
vn -0.284625 -0.587078 -0.757844
vn -0.414773 -0.909925 0.000000
vn -0.284626 -0.587080 0.757843
vn 0.074983 0.342836 0.936398
vn 0.213844 0.976868 -0.000000
vn 0.074983 0.342835 -0.936398
vn -0.513571 -0.005713 -0.858028
vn -0.566620 -0.365682 -0.738389
vn -0.852240 -0.523151 -0.000000
vn -0.999952 -0.009831 -0.000003
vn -0.566621 -0.365683 0.738388
vn -0.513574 -0.005713 0.858027
vn 0.266036 0.114712 0.957113
vn 0.505279 0.001553 0.862955
vn 0.901978 0.431781 0.000002
vn 0.999995 0.003273 0.000001
vn 0.266035 0.114711 -0.957114
vn 0.505278 0.001552 -0.862955
vn 0.000000 0.000000 1.000000
vn 0.000000 0.000000 1.000000
vn 0.000000 0.000000 1.000000
vn 0.000000 0.000000 1.000000
vn 0.000000 0.000000 -1.000000
vn 0.000000 0.000000 -1.000000
vn 0.000000 0.000000 -1.000000
vn 0.000000 0.000000 -1.000000
vn 1.000000 0.000000 0.000000
vn 1.000000 0.000000 0.000000
vn 1.000000 0.000000 0.000000
vn 1.000000 0.000000 0.000000
vn -1.000000 0.000000 0.000000
vn -1.000000 0.000000 0.000000
vn -1.000000 0.000000 0.000000
vn -1.000000 0.000000 0.000000
vn 0.000000 0.000000 1.000000
vn 0.000000 0.000000 1.000000
vn 0.000000 0.000000 1.000000
vn 0.000000 0.000000 1.000000
vn 0.000000 0.000000 -1.000000
vn 0.000000 0.000000 -1.000000
vn 0.000000 0.000000 -1.000000
vn 0.000000 0.000000 -1.000000
vn 1.000000 0.000000 0.000000
vn 1.000000 0.000000 0.000000
vn 1.000000 0.000000 0.000000
vn 1.000000 0.000000 0.000000
vn -1.000000 0.000000 0.000000
vn -1.000000 0.000000 0.000000
vn -1.000000 0.000000 0.000000
vn -1.000000 0.000000 0.000000
vn 0.512925 0.004702 -0.858420
vn 0.999966 0.008227 -0.000000
vn 0.512926 0.004702 0.858420
vn -0.505594 -0.001319 0.862770
vn -0.999996 -0.002755 -0.000003
vn -0.505592 -0.001319 -0.862772
vn 0.505278 -0.001552 -0.862955
vn 0.999995 -0.003273 0.000001
vn 0.505279 -0.001553 0.862955
vn -0.513574 0.005713 0.858027
vn -0.999952 0.009831 -0.000003
vn -0.513571 0.005713 -0.858028
vn 0.002694 0.502643 -0.864490
vn -0.000841 -0.498273 -0.867020
vn 0.000837 -0.498464 -0.866910
vn -0.002263 0.502313 -0.864683
vn -0.001778 -0.999998 -0.000000
vn 0.001758 -0.999999 -0.000000
vn -0.000841 -0.498275 0.867019
vn 0.000837 -0.498466 0.866909
vn 0.002694 0.502646 0.864488
vn -0.002263 0.502315 0.864682
vn 0.004852 0.999988 0.000000
vn -0.004155 0.999991 0.000000
vn -0.286650 -0.096021 -0.953211
vn 0.580264 0.338091 -0.740937
vn 0.874458 0.485102 -0.000000
vn 0.580265 0.338090 0.740937
vn -0.286651 -0.096021 0.953211
vn -0.941077 -0.338191 -0.000007
vn 0.319268 0.580495 -0.749062
vn -0.084051 -0.308321 -0.947562
vn 0.459125 0.888372 0.000000
vn 0.319269 0.580496 0.749060
vn -0.084052 -0.308322 0.947561
vn -0.271923 -0.962319 -0.000004
vn -0.284626 0.587079 -0.757843
vn -0.414773 0.909925 0.000000
vn -0.284627 0.587081 0.757841
vn 0.074984 -0.342837 0.936397
vn 0.213844 -0.976868 0.000001
vn 0.074983 -0.342836 -0.936398
vn -0.852240 0.523151 -0.000002
vn -0.566619 0.365682 -0.738390
vn -0.566622 0.365684 0.738387
vn 0.266037 -0.114713 0.957113
vn 0.901978 -0.431781 0.000001
vn 0.266035 -0.114711 -0.957114
vn 0.000000 0.000000 1.000000
vn 0.000000 0.000000 1.000000
vn 0.000000 0.000000 1.000000
vn 0.000000 0.000000 1.000000
vn 0.000000 0.000000 -1.000000
vn 0.000000 0.000000 -1.000000
vn 0.000000 0.000000 -1.000000
vn 0.000000 0.000000 -1.000000
vn 1.000000 0.000000 0.000000
vn 1.000000 0.000000 0.000000
vn 1.000000 0.000000 0.000000
vn 1.000000 0.000000 0.000000
vn -1.000000 0.000000 0.000000
vn -1.000000 0.000000 0.000000
vn -1.000000 0.000000 0.000000
vn -1.000000 0.000000 0.000000
vn 0.000000 0.000000 1.000000
vn 0.000000 0.000000 1.000000
vn 0.000000 0.000000 1.000000
vn 0.000000 0.000000 1.000000
vn 0.000000 0.000000 -1.000000
vn 0.000000 0.000000 -1.000000
vn 0.000000 0.000000 -1.000000
vn 0.000000 0.000000 -1.000000
vn 1.000000 0.000000 0.000000
vn 1.000000 0.000000 0.000000
vn 1.000000 0.000000 0.000000
vn 1.000000 0.000000 0.000000
vn -1.000000 0.000000 0.000000
vn -1.000000 0.000000 0.000000
vn -1.000000 0.000000 0.000000
vn -1.000000 0.000000 0.000000
vn 0.499998 0.000000 -0.866027
vn -0.499998 0.000000 -0.866027
vn -0.488805 0.003433 -0.872387
vn 0.488805 0.003433 -0.872387
vn -1.000000 0.000000 0.000000
vn -0.999995 -0.003164 -0.000000
vn -0.500000 0.000000 0.866026
vn -0.488807 0.003433 0.872385
vn 0.500000 0.000000 0.866026
vn 0.488807 0.003433 0.872385
vn 1.000000 0.000000 0.000000
vn 0.999995 -0.003164 0.000000
vn -0.397214 0.035961 -0.917021
vn 0.397214 0.035961 -0.917021
vn -0.998729 -0.050406 0.000000
vn -0.397217 0.035959 0.917020
vn 0.397217 0.035959 0.917020
vn 0.998729 -0.050406 0.000000
s 1
usemtl aiStandardSurface1SG
f 4/167/1 2/2/2 5/3/3 8/166/4
f 9/5/5 12/6/6 15/7/7 14/8/8
f 13/9/9 16/10/10 7/11/11 6/12/12
f 11/13/13 10/14/14 1/15/15 3/16/16
s 3
f 3/172/17 4/1/18 12/6/19 11/170/20
s 4
f 5/3/21 14/8/22 13/9/23 6/12/24
s 1
f 1/15/15 2/2/2 4/168/1 3/16/16
f 5/3/3 6/12/12 7/11/11 8/165/4
f 9/5/5 10/14/14 11/13/13 12/164/6
f 13/9/9 14/8/8 15/163/7 16/10/10
s 4
f 2/2/25 9/5/26 14/8/22 5/3/21
f 10/14/27 9/5/26 2/2/25 1/15/28
s 3
f 15/7/29 8/4/30 7/171/31 16/169/32
f 12/6/19 4/1/18 8/4/30 15/7/29
s 5
f 23/174/33 29/18/34 30/19/35 24/178/36
f 24/178/36 30/19/35 31/21/37 25/201/38
f 25/177/38 31/197/37 32/23/39 26/176/40
f 26/176/40 32/23/39 33/25/41 27/175/42
f 27/175/42 33/25/41 34/27/43 28/173/44
f 28/173/44 34/27/43 29/18/34 23/174/33
f 47/29/45 36/30/46 35/31/47 48/32/48
f 48/32/48 35/31/47 40/33/49 49/34/50
f 49/34/50 40/33/49 39/35/51 50/36/52
f 50/36/52 39/35/51 38/37/53 51/38/54
f 51/38/54 38/37/53 37/39/55 52/199/56
f 52/40/56 37/187/55 36/30/46 47/29/45
f 24/20/36 41/41/57 42/42/58 23/17/33
f 23/17/33 42/42/58 43/43/59 28/28/44
f 28/28/44 43/43/59 44/44/60 27/26/42
f 27/26/42 44/44/60 45/45/61 26/24/40
f 26/24/40 45/45/61 46/200/62 25/22/38
f 25/202/38 46/46/62 41/41/57 24/20/36
f 41/41/57 47/29/45 48/32/48 42/42/58
f 42/42/58 48/32/48 49/34/50 43/43/59
f 43/43/59 49/34/50 50/36/52 44/44/60
f 44/44/60 50/36/52 51/38/54 45/45/61
f 45/45/61 51/38/54 52/199/56 46/200/62
f 46/46/62 52/40/56 47/29/45 41/41/57
f 59/47/63 29/18/34 34/27/43 60/48/64
f 60/48/64 34/27/43 33/25/41 61/49/65
f 61/49/65 33/25/41 32/23/39 62/50/66
f 62/50/66 32/23/39 31/197/37 63/196/67
f 63/51/67 31/21/37 30/19/35 64/52/68
f 64/52/68 30/19/35 29/18/34 59/47/63
f 18/53/69 53/54/70 54/55/71 19/56/72
f 19/56/72 54/55/71 55/57/73 20/58/74
f 20/58/74 55/57/73 56/59/75 21/60/76
f 21/60/76 56/59/75 57/198/77 22/185/78
f 22/62/78 57/61/77 58/63/79 17/64/80
f 17/64/80 58/63/79 53/54/70 18/53/69
f 53/54/70 59/47/63 60/48/64 54/55/71
f 54/55/71 60/48/64 61/49/65 55/57/73
f 55/57/73 61/49/65 62/50/66 56/59/75
f 56/59/75 62/50/66 63/196/67 57/198/77
f 57/61/77 63/51/67 64/52/68 58/63/79
f 58/63/79 64/52/68 59/47/63 53/54/70
s off
f 65/65/81 67/66/82 68/67/83 66/68/84
f 69/69/85 71/70/86 72/71/87 70/209/88
f 66/68/89 68/67/90 70/72/91 72/210/92
f 71/70/93 69/69/94 67/66/95 65/65/96
f 73/73/97 75/74/98 76/75/99 74/76/100
f 77/77/101 79/78/102 80/79/103 78/207/104
f 74/76/105 76/75/106 78/80/107 80/208/108
f 79/78/109 77/77/110 75/74/111 73/73/112
s 5
f 40/33/49 35/31/47 99/81/113 104/82/114
f 39/35/51 40/33/49 104/82/114 103/83/115
f 38/37/53 39/35/51 103/83/115 102/84/116
f 37/39/55 38/37/53 102/84/116 101/188/117
f 36/30/46 37/187/55 101/85/117 100/86/118
f 35/31/47 36/30/46 100/86/118 99/81/113
f 22/62/78 17/64/80 81/87/119 86/186/120
f 21/60/76 22/185/78 86/88/120 85/89/121
f 20/58/74 21/60/76 85/89/121 84/90/122
f 19/56/72 20/58/74 84/90/122 83/91/123
f 18/53/69 19/56/72 83/91/123 82/92/124
f 17/64/80 18/53/69 82/92/124 81/87/119
f 87/93/125 88/94/126 94/184/127 93/180/128
f 88/94/126 89/97/129 95/190/130 94/184/127
f 89/195/129 90/99/131 96/182/132 95/183/130
f 90/99/131 91/101/133 97/181/134 96/182/132
f 91/101/133 92/103/135 98/179/136 97/181/134
f 92/103/135 87/93/125 93/180/128 98/179/136
f 111/105/137 112/106/138 99/81/113 100/86/118
f 112/106/138 113/107/139 104/82/114 99/81/113
f 113/107/139 114/108/140 103/83/115 104/82/114
f 114/108/140 115/109/141 102/84/116 103/83/115
f 115/109/141 116/193/142 101/188/117 102/84/116
f 116/110/142 111/105/137 100/86/118 101/85/117
f 88/94/126 87/93/125 106/111/143 105/112/144
f 87/93/125 92/103/135 107/113/145 106/111/143
f 92/103/135 91/101/133 108/114/146 107/113/145
f 91/101/133 90/99/131 109/115/147 108/114/146
f 90/99/131 89/195/129 110/194/148 109/115/147
f 89/97/129 88/94/126 105/112/144 110/116/148
f 105/112/144 106/111/143 112/106/138 111/105/137
f 106/111/143 107/113/145 113/107/139 112/106/138
f 107/113/145 108/114/146 114/108/140 113/107/139
f 108/114/146 109/115/147 115/109/141 114/108/140
f 109/115/147 110/194/148 116/193/142 115/109/141
f 110/116/148 105/112/144 111/105/137 116/110/142
f 123/117/149 124/118/150 98/104/136 93/96/128
f 124/118/150 125/119/151 97/102/134 98/104/136
f 125/119/151 126/120/152 96/100/132 97/102/134
f 126/120/152 127/189/153 95/98/130 96/100/132
f 127/121/153 128/122/154 94/95/127 95/191/130
f 128/122/154 123/117/149 93/96/128 94/95/127
f 82/92/124 83/91/123 118/123/155 117/124/156
f 83/91/123 84/90/122 119/125/157 118/123/155
f 84/90/122 85/89/121 120/126/158 119/125/157
f 85/89/121 86/88/120 121/192/159 120/126/158
f 86/186/120 81/87/119 122/128/160 121/127/159
f 81/87/119 82/92/124 117/124/156 122/128/160
f 117/124/156 118/123/155 124/118/150 123/117/149
f 118/123/155 119/125/157 125/119/151 124/118/150
f 119/125/157 120/126/158 126/120/152 125/119/151
f 120/126/158 121/192/159 127/189/153 126/120/152
f 121/127/159 122/128/160 128/122/154 127/121/153
f 122/128/160 117/124/156 123/117/149 128/122/154
s off
f 129/129/161 130/130/162 132/131/163 131/132/164
f 133/133/165 134/134/166 136/206/167 135/136/168
f 130/130/169 136/135/170 134/205/171 132/131/172
f 135/136/173 129/129/174 131/132/175 133/133/176
f 137/137/177 138/138/178 140/139/179 139/140/180
f 141/141/181 142/142/182 144/204/183 143/144/184
f 138/138/185 144/143/186 142/203/187 140/139/188
f 143/144/189 137/137/190 139/140/191 141/141/192
s 9
f 145/213/193 146/146/194 152/147/195 151/148/196
f 146/146/194 147/149/197 153/150/198 152/147/195
f 147/149/197 148/151/199 154/152/200 153/150/198
f 148/151/199 149/153/201 155/154/202 154/152/200
f 149/153/201 150/155/203 156/156/204 155/154/202
f 150/155/203 145/145/193 151/212/196 156/156/204
f 151/148/196 152/147/195 158/158/205 157/211/206
f 152/147/195 153/150/198 159/159/207 158/158/205
f 153/150/198 154/152/200 160/160/208 159/159/207
f 154/152/200 155/154/202 161/161/209 160/160/208
f 155/154/202 156/156/204 162/162/210 161/161/209
f 156/156/204 151/212/196 157/157/206 162/162/210
