# This file uses centimeters as units for non-parametric coordinates.

mtllib schild ortsschild AT.mtl
v 0.509139 0.960516 -0.013618
v 0.509139 0.944792 -0.013618
v 0.509139 0.936930 0.000000
v 0.509139 0.944792 0.013618
v 0.509139 0.960516 0.013618
v 0.509139 0.968379 0.000000
v -0.509256 0.960516 -0.013618
v -0.509256 0.944792 -0.013618
v -0.509256 0.936930 0.000000
v -0.509256 0.944792 0.013618
v -0.509256 0.960516 0.013618
v -0.509256 0.968379 0.000000
v -0.505228 -0.226824 -0.019537
v -0.527285 -0.226824 -0.019537
v -0.538313 -0.226824 0.000000
v -0.527285 -0.226824 0.019537
v -0.505228 -0.226824 0.019537
v -0.494199 -0.226824 0.000000
v -0.505228 1.634617 -0.019537
v -0.527285 1.634617 -0.019537
v -0.538313 1.634617 0.000000
v -0.527285 1.634617 0.019537
v -0.505228 1.634617 0.019537
v -0.494199 1.634617 0.000000
v 0.467381 1.688114 -0.019537
v 0.467381 1.665555 -0.019537
v 0.467381 1.654276 0.000000
v 0.467381 1.665555 0.019537
v 0.467381 1.688114 0.019537
v 0.467381 1.699394 0.000000
v -0.467499 1.688114 -0.019537
v -0.467499 1.665555 -0.019537
v -0.467499 1.654276 0.000000
v -0.467499 1.665555 0.019537
v -0.467499 1.688114 0.019537
v -0.467499 1.699394 0.000000
v 0.522000 -0.226824 -0.019537
v 0.499943 -0.226824 -0.019537
v 0.488914 -0.226824 0.000000
v 0.499943 -0.226824 0.019537
v 0.522000 -0.226824 0.019537
v 0.533028 -0.226824 0.000000
v 0.522000 1.634617 -0.019537
v 0.499943 1.634617 -0.019537
v 0.488914 1.634617 0.000000
v 0.499943 1.634617 0.019537
v 0.522000 1.634617 0.019537
v 0.533028 1.634617 0.000000
v 0.487925 1.663430 -0.019537
v 0.494781 1.683889 -0.019537
v 0.498209 1.694118 0.000000
v 0.494781 1.683889 0.019537
v 0.487925 1.663430 0.019537
v 0.484497 1.653200 0.000000
v 0.497630 1.654730 -0.019537
v 0.517133 1.662546 -0.019537
v 0.526884 1.666454 0.000000
v 0.517133 1.662546 0.019537
v 0.497630 1.654730 0.019537
v 0.487878 1.650821 0.000000
v -0.521411 1.663906 -0.019537
v -0.530884 1.668201 0.000000
v -0.521411 1.663906 0.019537
v -0.502465 1.655315 0.019537
v -0.492992 1.651020 0.000000
v -0.502465 1.655315 -0.019537
v -0.496511 1.684489 -0.019537
v -0.499517 1.694954 0.000000
v -0.496511 1.684489 0.019537
v -0.490500 1.663559 0.019537
v -0.487495 1.653094 0.000000
v -0.490500 1.663559 -0.019537
v 0.455775 1.614992 -0.012846
v 0.465000 1.592720 -0.012846
v 0.433503 1.624217 -0.012846
v 0.465000 1.592720 0.012846
v 0.455775 1.614992 0.012846
v 0.433503 1.624217 0.012846
v -0.455775 1.614992 -0.012846
v -0.433503 1.624217 -0.012846
v -0.465000 1.592720 -0.012846
v -0.465000 1.592720 0.012846
v -0.433503 1.624217 0.012846
v -0.455775 1.614992 0.012846
v 0.455775 1.003442 -0.012846
v 0.433503 0.994217 -0.012846
v 0.465000 1.025714 -0.012846
v 0.455775 1.003442 0.012846
v 0.465000 1.025714 0.012846
v 0.433503 0.994217 0.012846
v -0.455775 1.003442 -0.012846
v -0.465000 1.025714 -0.012846
v -0.433503 0.994217 -0.012846
v -0.455775 1.003442 0.012846
v -0.433503 0.994217 0.012846
v -0.465000 1.025714 0.012846
v 0.367830 0.951566 0.005362
v 0.390080 0.951566 0.005362
v 0.367830 1.006678 0.005362
v 0.390080 1.006678 0.005362
v 0.367830 1.006678 -0.005362
v 0.390080 1.006678 -0.005362
v 0.367830 0.951566 -0.005362
v 0.390080 0.951566 -0.005362
v 0.367830 1.609676 0.005362
v 0.390080 1.609676 0.005362
v 0.367830 1.664788 0.005362
v 0.390080 1.664788 0.005362
v 0.367830 1.664788 -0.005362
v 0.390080 1.664788 -0.005362
v 0.367830 1.609676 -0.005362
v 0.390080 1.609676 -0.005362
v -0.011125 0.951566 0.005362
v 0.011125 0.951566 0.005362
v -0.011125 1.006678 0.005362
v 0.011125 1.006678 0.005362
v -0.011125 1.006678 -0.005362
v 0.011125 1.006678 -0.005362
v -0.011125 0.951566 -0.005362
v 0.011125 0.951566 -0.005362
v -0.011125 1.609676 0.005362
v 0.011125 1.609676 0.005362
v -0.011125 1.664788 0.005362
v 0.011125 1.664788 0.005362
v -0.011125 1.664788 -0.005362
v 0.011125 1.664788 -0.005362
v -0.011125 1.609676 -0.005362
v 0.011125 1.609676 -0.005362
v -0.393685 0.951566 0.005362
v -0.371435 0.951566 0.005362
v -0.393685 1.006678 0.005362
v -0.371435 1.006678 0.005362
v -0.393685 1.006678 -0.005362
v -0.371435 1.006678 -0.005362
v -0.393685 0.951566 -0.005362
v -0.371435 0.951566 -0.005362
v -0.393685 1.609676 0.005362
v -0.371435 1.609676 0.005362
v -0.393685 1.664788 0.005362
v -0.371435 1.664788 0.005362
v -0.393685 1.664788 -0.005362
v -0.371435 1.664788 -0.005362
v -0.393685 1.609676 -0.005362
v -0.371435 1.609676 -0.005362
vt 0.868994 0.860589
vt 0.867458 0.860589
vt 0.867458 0.761139
vt 0.868993 0.761139
vt 0.865923 0.860589
vt 0.865922 0.761139
vt 0.864387 0.860589
vt 0.864387 0.761139
vt 0.862852 0.860589
vt 0.862851 0.761139
vt 0.861316 0.860589
vt 0.870529 0.761139
vt 0.495651 0.010979
vt 0.497819 0.010978
vt 0.497777 0.192870
vt 0.495642 0.193229
vt 0.500029 0.010978
vt 0.499975 0.192737
vt 0.502240 0.010979
vt 0.502172 0.192873
vt 0.504412 0.010981
vt 0.504303 0.193234
vt 0.506617 0.010983
vt 0.493458 0.193507
vt 0.497728 0.290686
vt 0.495533 0.291063
vt 0.495552 0.199517
vt 0.497742 0.199837
vt 0.493335 0.291372
vt 0.506600 0.199289
vt 0.504359 0.291067
vt 0.504393 0.199522
vt 0.502179 0.290690
vt 0.502189 0.199841
vt 0.499956 0.290551
vt 0.499962 0.199994
vt 0.497765 0.479177
vt 0.495593 0.479176
vt 0.495621 0.296859
vt 0.497752 0.297203
vt 0.493388 0.479175
vt 0.506462 0.296616
vt 0.504352 0.479174
vt 0.504274 0.296860
vt 0.502184 0.479176
vt 0.502139 0.297205
vt 0.499975 0.479177
vt 0.499945 0.297369
vt 0.496072 0.294670
vt 0.497987 0.295106
vt 0.499947 0.295210
vt 0.501907 0.295108
vt 0.503822 0.294673
vt 0.493806 0.294353
vt 0.497974 0.292793
vt 0.495970 0.293269
vt 0.499950 0.292565
vt 0.501924 0.292796
vt 0.503924 0.293273
vt 0.493768 0.293757
vt 0.497979 0.197568
vt 0.499969 0.197732
vt 0.501960 0.197571
vt 0.503937 0.197051
vt 0.493772 0.196614
vt 0.496006 0.197046
vt 0.499973 0.194948
vt 0.498014 0.195126
vt 0.501931 0.195130
vt 0.503866 0.195478
vt 0.493856 0.195794
vt 0.496078 0.195473
vt 0.992934 0.664539
vt 0.867272 0.664709
vt 0.867592 0.749487
vt 0.992958 0.749206
vt 0.928874 0.664359
vt 0.931373 0.664536
vt 0.931580 0.748999
vt 0.929085 0.749211
vt 0.926027 0.752302
vt 0.934521 0.752068
vt 0.989923 0.752265
vt 0.990207 0.754763
vt 0.934400 0.661476
vt 0.934102 0.658981
vt 0.870336 0.661615
vt 0.989968 0.661469
vt 0.868163 0.662528
vt 0.992194 0.662363
vt 0.868504 0.751659
vt 0.992191 0.751381
vt 0.927961 0.662188
vt 0.932132 0.662369
vt 0.928196 0.751391
vt 0.932306 0.751166
vt 0.709114 0.608211
vt 0.711287 0.608210
vt 0.711288 0.613594
vt 0.709115 0.613594
vt 0.708067 0.613594
vt 0.705894 0.613594
vt 0.712335 0.608210
vt 0.708066 0.608211
vt 0.709114 0.608214
vt 0.711285 0.608213
vt 0.711286 0.613591
vt 0.709115 0.613591
vt 0.708068 0.613591
vt 0.705897 0.613592
vt 0.712332 0.608213
vt 0.708068 0.608214
vt 0.709114 0.608212
vt 0.711286 0.608212
vt 0.711287 0.613592
vt 0.709115 0.613592
vt 0.708068 0.613593
vt 0.705896 0.613593
vt 0.712333 0.608212
vt 0.708067 0.608212
vt 0.709114 0.608213
vt 0.711285 0.608213
vt 0.711286 0.613591
vt 0.709115 0.613592
vt 0.708068 0.613592
vt 0.705897 0.613592
vt 0.712332 0.608213
vt 0.708067 0.608213
vt 0.709114 0.608209
vt 0.711288 0.608209
vt 0.711289 0.613595
vt 0.709115 0.613595
vt 0.708066 0.613596
vt 0.705892 0.613596
vt 0.712336 0.608209
vt 0.708066 0.608209
vt 0.709114 0.608211
vt 0.711287 0.608210
vt 0.711288 0.613594
vt 0.709115 0.613594
vt 0.708067 0.613594
vt 0.705894 0.613594
vt 0.712335 0.608210
vt 0.708066 0.608211
vt 0.506174 0.196618
vt 0.493355 0.199285
vt 0.506089 0.195798
vt 0.506484 0.193510
vt 0.506087 0.294354
vt 0.493435 0.296618
vt 0.506123 0.293758
vt 0.506547 0.291374
vt 0.506555 0.479173
vt 0.493448 0.010979
vt 0.870529 0.860589
vt 0.861316 0.761139
vt 0.931714 0.753768
vt 0.929712 0.751600
vt 0.934225 0.754539
vt 0.929471 0.661904
vt 0.931648 0.659790
vt 0.925779 0.661300
vt 0.994853 0.751845
vt 0.992662 0.753967
vt 0.870682 0.752550
vt 0.995449 0.749389
vt 0.992766 0.659754
vt 0.994804 0.661934
vt 0.995435 0.664323
vt 0.990247 0.658996
vt 0.712337 0.613595
vt 0.705891 0.608210
vt 0.712334 0.613592
vt 0.705895 0.608213
vt 0.712335 0.613593
vt 0.705893 0.608211
vt 0.712335 0.613593
vt 0.705893 0.608211
vt 0.712333 0.613591
vt 0.705896 0.608214
vt 0.712332 0.613591
vt 0.705896 0.608214
vn 0.000000 0.500001 -0.866025
vn 0.000000 -0.500001 -0.866025
vn 0.000000 -0.500001 -0.866025
vn 0.000000 0.500001 -0.866025
vn 0.000000 -1.000000 0.000000
vn 0.000000 -1.000000 0.000000
vn 0.000000 -0.500001 0.866025
vn 0.000000 -0.500001 0.866025
vn 0.000000 0.500001 0.866025
vn 0.000000 0.500001 0.866025
vn 0.000000 1.000000 0.000000
vn 0.000000 1.000000 0.000000
vn 0.508462 0.000000 -0.861085
vn -0.508461 0.000000 -0.861085
vn -0.510165 0.001901 -0.860074
vn 0.507410 -0.000514 -0.861705
vn -1.000000 0.000000 -0.000002
vn -0.999995 0.003279 -0.000002
vn -0.508460 0.000000 0.861086
vn -0.510165 0.001901 0.860075
vn 0.508460 0.000000 0.861086
vn 0.507408 -0.000514 0.861706
vn 1.000000 0.000000 0.000002
vn 0.999999 -0.001080 0.000002
vn 0.002593 0.502546 -0.864547
vn -0.000809 -0.498339 -0.866982
vn 0.000806 -0.498523 -0.866876
vn -0.002178 0.502228 -0.864733
vn -0.001711 -0.999999 0.000000
vn 0.001692 -0.999999 0.000000
vn -0.000809 -0.498338 0.866983
vn 0.000806 -0.498522 0.866877
vn 0.002593 0.502545 0.864547
vn -0.002178 0.502227 0.864733
vn 0.004670 0.999989 0.000000
vn -0.004000 0.999992 0.000000
vn 0.508462 0.000000 -0.861085
vn -0.508460 0.000000 -0.861086
vn -0.507513 -0.000436 -0.861644
vn 0.509949 0.001563 -0.860204
vn -1.000000 0.000000 -0.000002
vn -1.000000 -0.000908 -0.000002
vn -0.508459 0.000000 0.861086
vn -0.507512 -0.000436 0.861645
vn 0.508460 0.000000 0.861086
vn 0.509947 0.001563 0.860205
vn 1.000000 0.000000 0.000000
vn 0.999996 0.002741 -0.000000
vn -0.286651 -0.096022 -0.953211
vn 0.580265 0.338090 -0.740937
vn 0.874458 0.485101 -0.000002
vn 0.580264 0.338090 0.740938
vn -0.286649 -0.096021 0.953212
vn -0.941077 -0.338193 0.000001
vn 0.319269 0.580495 -0.749061
vn -0.084052 -0.308323 -0.947561
vn 0.459125 0.888372 -0.000001
vn 0.319269 0.580495 0.749061
vn -0.084051 -0.308321 0.947562
vn -0.271923 -0.962319 0.000002
vn -0.284626 0.587079 -0.757843
vn -0.414772 0.909925 -0.000000
vn -0.284625 0.587078 0.757845
vn 0.074983 -0.342835 0.936398
vn 0.213844 -0.976868 -0.000000
vn 0.074983 -0.342837 -0.936398
vn -0.852240 0.523151 -0.000001
vn -0.566620 0.365683 -0.738388
vn -0.566619 0.365681 0.738390
vn 0.266035 -0.114712 0.957114
vn 0.901979 -0.431781 0.000001
vn 0.266036 -0.114712 -0.957113
vn 0.010373 0.999946 0.000000
vn 0.010373 0.999946 0.000000
vn -0.010373 0.999946 0.000000
vn -0.010373 0.999946 0.000000
vn 0.010373 -0.999946 0.000000
vn 0.010373 -0.999946 0.000000
vn -0.010373 -0.999946 0.000000
vn -0.010373 -0.999946 0.000000
vn -0.999878 -0.015653 0.000000
vn -0.999878 -0.015653 0.000000
vn -0.999878 0.015653 0.000000
vn -0.999878 0.015653 0.000000
vn 0.999878 -0.015653 0.000000
vn 0.999878 -0.015653 0.000000
vn 0.999878 0.015653 0.000000
vn 0.999878 0.015653 0.000000
vn 0.923881 0.382679 0.000000
vn 0.923881 0.382679 0.000000
vn 0.382688 0.923878 0.000000
vn 0.382688 0.923878 0.000000
vn -0.382688 0.923878 0.000000
vn -0.382688 0.923878 0.000000
vn -0.923881 0.382679 0.000000
vn -0.923881 0.382679 0.000000
vn 0.382680 -0.923881 0.000000
vn 0.382680 -0.923881 0.000000
vn 0.923881 -0.382681 0.000000
vn 0.923881 -0.382681 0.000000
vn -0.923881 -0.382681 0.000000
vn -0.923881 -0.382681 0.000000
vn -0.382680 -0.923881 0.000000
vn -0.382680 -0.923881 0.000000
vn 0.000000 0.000000 -1.000000
vn 0.000000 0.000000 -1.000000
vn 0.000000 0.000000 -1.000000
vn 0.000000 0.000000 -1.000000
vn -0.000000 0.000000 1.000000
vn -0.000000 0.000000 1.000000
vn -0.000000 0.000000 1.000000
vn -0.000000 0.000000 1.000000
vn 0.000000 0.000000 1.000000
vn 0.000000 0.000000 1.000000
vn 0.000000 0.000000 1.000000
vn 0.000000 0.000000 1.000000
vn 0.000000 0.000000 1.000000
vn 0.000000 0.000000 1.000000
vn -0.000000 0.000000 1.000000
vn -0.000000 0.000000 1.000000
vn -0.000000 0.000000 -1.000000
vn -0.000000 0.000000 -1.000000
vn 0.000000 0.000000 -1.000000
vn 0.000000 0.000000 -1.000000
vn 0.000000 0.000000 -1.000000
vn 0.000000 0.000000 -1.000000
vn -0.000000 0.000000 -1.000000
vn -0.000000 0.000000 -1.000000
vn 0.000000 0.000000 1.000000
vn 0.000000 0.000000 1.000000
vn 0.000000 0.000000 1.000000
vn 0.000000 0.000000 1.000000
vn 0.000000 0.000000 -1.000000
vn 0.000000 0.000000 -1.000000
vn 0.000000 0.000000 -1.000000
vn 0.000000 0.000000 -1.000000
vn 1.000000 0.000000 0.000000
vn 1.000000 0.000000 0.000000
vn 1.000000 0.000000 0.000000
vn 1.000000 0.000000 0.000000
vn -1.000000 0.000000 0.000000
vn -1.000000 0.000000 0.000000
vn -1.000000 0.000000 0.000000
vn -1.000000 0.000000 0.000000
vn 0.000000 0.000000 1.000000
vn 0.000000 0.000000 1.000000
vn 0.000000 0.000000 1.000000
vn 0.000000 0.000000 1.000000
vn 0.000000 0.000000 -1.000000
vn 0.000000 0.000000 -1.000000
vn 0.000000 0.000000 -1.000000
vn 0.000000 0.000000 -1.000000
vn 1.000000 0.000000 0.000000
vn 1.000000 0.000000 0.000000
vn 1.000000 0.000000 0.000000
vn 1.000000 0.000000 0.000000
vn -1.000000 0.000000 0.000000
vn -1.000000 0.000000 0.000000
vn -1.000000 0.000000 0.000000
vn -1.000000 0.000000 0.000000
vn 0.000000 0.000000 1.000000
vn 0.000000 0.000000 1.000000
vn 0.000000 0.000000 1.000000
vn 0.000000 0.000000 1.000000
vn 0.000000 0.000000 -1.000000
vn 0.000000 0.000000 -1.000000
vn 0.000000 0.000000 -1.000000
vn 0.000000 0.000000 -1.000000
vn 1.000000 0.000000 0.000000
vn 1.000000 0.000000 0.000000
vn 1.000000 0.000000 0.000000
vn 1.000000 0.000000 0.000000
vn -1.000000 0.000000 0.000000
vn -1.000000 0.000000 0.000000
vn -1.000000 0.000000 0.000000
vn -1.000000 0.000000 0.000000
vn 0.000000 0.000000 1.000000
vn 0.000000 0.000000 1.000000
vn 0.000000 0.000000 1.000000
vn 0.000000 0.000000 1.000000
vn 0.000000 0.000000 -1.000000
vn 0.000000 0.000000 -1.000000
vn 0.000000 0.000000 -1.000000
vn 0.000000 0.000000 -1.000000
vn 1.000000 0.000000 0.000000
vn 1.000000 0.000000 0.000000
vn 1.000000 0.000000 0.000000
vn 1.000000 0.000000 0.000000
vn -1.000000 0.000000 0.000000
vn -1.000000 0.000000 0.000000
vn -1.000000 0.000000 0.000000
vn -1.000000 0.000000 0.000000
vn 0.000000 0.000000 1.000000
vn 0.000000 0.000000 1.000000
vn 0.000000 0.000000 1.000000
vn 0.000000 0.000000 1.000000
vn 0.000000 0.000000 -1.000000
vn 0.000000 0.000000 -1.000000
vn 0.000000 0.000000 -1.000000
vn 0.000000 0.000000 -1.000000
vn 1.000000 0.000000 0.000000
vn 1.000000 0.000000 0.000000
vn 1.000000 0.000000 0.000000
vn 1.000000 0.000000 0.000000
vn -1.000000 0.000000 0.000000
vn -1.000000 0.000000 0.000000
vn -1.000000 0.000000 0.000000
vn -1.000000 0.000000 0.000000
vn 0.000000 0.000000 1.000000
vn 0.000000 0.000000 1.000000
vn 0.000000 0.000000 1.000000
vn 0.000000 0.000000 1.000000
vn 0.000000 0.000000 -1.000000
vn 0.000000 0.000000 -1.000000
vn 0.000000 0.000000 -1.000000
vn 0.000000 0.000000 -1.000000
vn 1.000000 0.000000 0.000000
vn 1.000000 0.000000 0.000000
vn 1.000000 0.000000 0.000000
vn 1.000000 0.000000 0.000000
vn -1.000000 0.000000 0.000000
vn -1.000000 0.000000 0.000000
vn -1.000000 0.000000 0.000000
vn -1.000000 0.000000 0.000000
s 1
usemtl aiStandardSurface1SG
f 1/1/1 2/2/2 8/3/3 7/4/4
f 2/2/2 3/5/5 9/6/6 8/3/3
f 3/5/5 4/7/7 10/8/8 9/6/6
f 4/7/7 5/9/9 11/10/10 10/8/8
f 5/9/9 6/11/11 12/156/12 11/10/10
f 6/155/11 1/1/1 7/4/4 12/12/12
s 2
f 13/13/13 14/14/14 20/15/15 19/16/16
f 14/14/14 15/17/17 21/18/18 20/15/15
f 15/17/17 16/19/19 22/20/20 21/18/18
f 16/19/19 17/21/21 23/22/22 22/20/20
f 17/21/21 18/23/23 24/148/24 23/22/22
f 18/154/23 13/13/13 19/16/16 24/24/24
f 25/25/25 26/26/26 32/27/27 31/28/28
f 26/26/26 27/29/29 33/146/30 32/27/27
f 27/152/29 28/31/31 34/32/32 33/30/30
f 28/31/31 29/33/33 35/34/34 34/32/32
f 29/33/33 30/35/35 36/36/36 35/34/34
f 30/35/35 25/25/25 31/28/28 36/36/36
f 37/37/37 38/38/38 44/39/39 43/40/40
f 38/38/38 39/41/41 45/150/42 44/39/39
f 39/153/41 40/43/43 46/44/44 45/42/42
f 40/43/43 41/45/45 47/46/46 46/44/44
f 41/45/45 42/47/47 48/48/48 47/46/46
f 42/47/47 37/37/37 43/40/40 48/48/48
f 55/49/49 56/50/50 43/40/40 44/39/39
f 56/50/50 57/51/51 48/48/48 43/40/40
f 57/51/51 58/52/52 47/46/46 48/48/48
f 58/52/52 59/53/53 46/44/44 47/46/46
f 59/53/53 60/149/54 45/42/42 46/44/44
f 60/54/54 55/49/49 44/39/39 45/150/42
f 26/26/26 25/25/25 50/55/55 49/56/56
f 25/25/25 30/35/35 51/57/57 50/55/55
f 30/35/35 29/33/33 52/58/58 51/57/57
f 29/33/33 28/31/31 53/59/59 52/58/58
f 28/31/31 27/152/29 54/151/60 53/59/59
f 27/29/29 26/26/26 49/56/56 54/60/60
f 49/56/56 50/55/55 56/50/50 55/49/49
f 50/55/55 51/57/57 57/51/51 56/50/50
f 51/57/57 52/58/58 58/52/52 57/51/51
f 52/58/58 53/59/59 59/53/53 58/52/52
f 53/59/59 54/151/60 60/149/54 59/53/53
f 54/60/60 49/56/56 55/49/49 60/54/54
f 67/61/61 68/62/62 36/36/36 31/28/28
f 68/62/62 69/63/63 35/34/34 36/36/36
f 69/63/63 70/64/64 34/32/32 35/34/34
f 70/64/64 71/145/65 33/30/30 34/32/32
f 71/65/65 72/66/66 32/27/27 33/146/30
f 72/66/66 67/61/61 31/28/28 32/27/27
f 20/15/15 21/18/18 62/67/67 61/68/68
f 21/18/18 22/20/20 63/69/69 62/67/67
f 22/20/20 23/22/22 64/70/70 63/69/69
f 23/22/22 24/148/24 65/147/71 64/70/70
f 24/24/24 19/16/16 66/72/72 65/71/71
f 19/16/16 20/15/15 61/68/68 66/72/72
f 61/68/68 62/67/67 68/62/62 67/61/61
f 62/67/67 63/69/69 69/63/63 68/62/62
f 63/69/69 64/70/70 70/64/64 69/63/63
f 64/70/70 65/147/71 71/145/65 70/64/64
f 65/71/71 66/72/72 72/66/66 71/65/65
f 66/72/72 61/68/68 67/61/61 72/66/66
s 5
f 78/73/73 75/169/74 80/166/75 83/76/76
s 6
f 86/77/77 90/78/78 95/79/79 93/80/80
s 7
f 92/159/81 96/82/82 82/83/83 81/84/84
s 8
f 89/85/85 87/86/86 74/170/87 76/88/88
f 74/170/87 73/167/89 77/90/90 76/88/88
s 5
f 73/168/91 75/169/74 78/73/73 77/90/92
f 80/166/75 79/163/93 84/92/94 83/76/76
s 7
f 79/164/95 81/84/84 82/83/83 84/92/96
s 6
f 86/77/77 85/160/97 88/94/98 90/78/78
s 8
f 85/161/99 87/86/86 89/85/85 88/94/100
s 7
f 92/159/81 91/157/101 94/96/102 96/82/82
s 6
f 91/158/103 93/80/80 95/79/79 94/96/104
s 9
f 91/95/105 92/81/106 81/165/107 79/91/108
s 10
f 77/90/109 88/94/110 89/85/111 76/88/112
f 94/96/113 84/92/114 82/83/115 96/82/116
f 94/96/113 95/79/117 83/76/118 84/92/114
f 83/76/118 95/79/117 90/78/119 78/73/120
f 78/73/120 90/78/119 88/94/110 77/90/109
s 9
f 91/95/105 79/91/108 80/75/121 93/80/122
f 93/80/122 80/75/121 75/74/123 86/77/124
f 85/93/125 73/89/126 74/87/127 87/162/128
f 86/77/124 75/74/123 73/89/126 85/93/125
s off
f 97/97/129 98/98/130 100/99/131 99/100/132
f 101/101/133 102/102/134 104/176/135 103/104/136
f 98/98/137 104/103/138 102/175/139 100/99/140
f 103/104/141 97/97/142 99/100/143 101/101/144
f 105/105/145 106/106/146 108/107/147 107/108/148
f 109/109/149 110/110/150 112/182/151 111/112/152
f 106/106/153 112/111/154 110/181/155 108/107/156
f 111/112/157 105/105/158 107/108/159 109/109/160
f 113/113/161 114/114/162 116/115/163 115/116/164
f 117/117/165 118/118/166 120/174/167 119/120/168
f 114/114/169 120/119/170 118/173/171 116/115/172
f 119/120/173 113/113/174 115/116/175 117/117/176
f 121/121/177 122/122/178 124/123/179 123/124/180
f 125/125/181 126/126/182 128/180/183 127/128/184
f 122/122/185 128/127/186 126/179/187 124/123/188
f 127/128/189 121/121/190 123/124/191 125/125/192
f 129/129/193 130/130/194 132/131/195 131/132/196
f 133/133/197 134/134/198 136/172/199 135/136/200
f 130/130/201 136/135/202 134/171/203 132/131/204
f 135/136/205 129/129/206 131/132/207 133/133/208
f 137/137/209 138/138/210 140/139/211 139/140/212
f 141/141/213 142/142/214 144/178/215 143/144/216
f 138/138/217 144/143/218 142/177/219 140/139/220
f 143/144/221 137/137/222 139/140/223 141/141/224
