# This file uses centimeters as units for non-parametric coordinates.

mtllib schild zusatztafel groß.mtl
v -0.277717 0.259643 0.013756
v -0.262595 0.274765 0.013756
v -0.277717 0.259643 -0.013756
v -0.262595 0.274765 -0.013756
v 0.262595 0.274765 0.013756
v 0.277717 0.259643 0.013756
v 0.277717 0.259643 -0.013756
v 0.262595 0.274765 -0.013756
v -0.262595 -0.274378 0.013756
v -0.277717 -0.259256 0.013756
v -0.277717 -0.259256 -0.013756
v -0.262595 -0.274378 -0.013756
v 0.277717 -0.259256 0.013756
v 0.262595 -0.274378 0.013756
v 0.262595 -0.274378 -0.013756
v 0.277717 -0.259256 -0.013756
vt 0.684903 0.840296
vt 0.794871 0.840205
vt 0.794818 0.788852
vt 0.684846 0.788938
vt 0.741293 0.840234
vt 0.738603 0.840237
vt 0.738547 0.788879
vt 0.741238 0.788871
vt 0.742991 0.787439
vt 0.742415 0.784808
vt 0.793673 0.784821
vt 0.793166 0.787415
vt 0.742443 0.844272
vt 0.742959 0.841680
vt 0.793140 0.841630
vt 0.793710 0.844263
vt 0.737067 0.787402
vt 0.737126 0.841718
vt 0.795856 0.785977
vt 0.686323 0.787458
vt 0.797561 0.840202
vt 0.686383 0.841773
vt 0.740355 0.786002
vt 0.740252 0.843099
vt 0.797509 0.788849
vt 0.795765 0.843067
vn 0.000000 1.000000 0.000000
vn 0.000000 1.000000 0.000000
vn 0.000000 1.000000 0.000000
vn 0.000000 1.000000 0.000000
vn 0.000000 -1.000000 0.000000
vn 0.000000 -1.000000 0.000000
vn 0.000000 -1.000000 0.000000
vn 0.000000 -1.000000 0.000000
vn 1.000000 0.000000 0.000000
vn 1.000000 0.000000 0.000000
vn 1.000000 0.000000 0.000000
vn 1.000000 0.000000 0.000000
vn -1.000000 0.000000 0.000000
vn -1.000000 0.000000 0.000000
vn -1.000000 0.000000 0.000000
vn -1.000000 0.000000 0.000000
vn -0.000000 0.000000 -1.000000
vn -0.000000 0.000000 -1.000000
vn -0.000000 0.000000 -1.000000
vn -0.000000 0.000000 -1.000000
vn 0.000000 0.000000 1.000000
vn 0.000000 0.000000 1.000000
vn 0.000000 0.000000 1.000000
vn 0.000000 0.000000 1.000000
vn -0.707103 0.707111 0.000000
vn -0.707103 0.707111 0.000000
vn -0.707103 0.707111 0.000000
vn -0.707103 0.707111 0.000000
vn 0.707102 0.707111 0.000000
vn 0.707102 0.707111 0.000000
vn 0.707102 0.707111 0.000000
vn 0.707102 0.707111 0.000000
vn -0.707115 -0.707098 0.000000
vn -0.707115 -0.707098 0.000000
vn -0.707115 -0.707098 0.000000
vn -0.707115 -0.707098 0.000000
vn 0.707115 -0.707099 0.000000
vn 0.707115 -0.707099 0.000000
vn 0.707115 -0.707099 0.000000
vn 0.707115 -0.707099 0.000000
vn -0.000000 0.000000 1.000000
vn -0.000000 0.000000 1.000000
vn -0.000000 0.000000 1.000000
vn -0.000000 0.000000 1.000000
vn 0.000000 0.000000 -1.000000
vn 0.000000 0.000000 -1.000000
vn 0.000000 0.000000 -1.000000
vn 0.000000 0.000000 -1.000000
s off
usemtl aiStandardSurface1SG
f 4/21/1 2/2/2 5/3/3 8/25/4
f 9/5/5 12/6/6 15/7/7 14/8/8
f 13/9/9 16/10/10 7/11/11 6/12/12
f 11/13/13 10/14/14 1/15/15 3/16/16
s 1
f 3/22/17 4/1/18 12/6/19 11/18/20
s 2
f 5/3/21 14/8/22 13/9/23 6/12/24
s off
f 1/15/25 2/2/26 4/26/27 3/16/28
f 5/3/29 6/12/30 7/11/31 8/19/32
f 9/5/33 10/14/34 11/13/35 12/24/36
f 13/9/37 14/8/38 15/23/39 16/10/40
s 2
f 2/2/41 9/5/42 14/8/22 5/3/21
f 10/14/43 9/5/42 2/2/41 1/15/44
s 1
f 15/7/45 8/4/46 7/20/47 16/17/48
f 12/6/19 4/1/18 8/4/46 15/7/45
