# This file uses centimeters as units for non-parametric coordinates.

mtllib schild wegweiser.mtl
v -0.575000 0.112501 0.026732
v -0.562501 0.125000 0.026732
v -0.575000 0.112501 0.000000
v -0.562501 0.125000 0.000000
v 0.562501 0.125000 0.026732
v 0.575000 0.112501 0.026732
v 0.575000 0.112501 0.000000
v 0.562501 0.125000 0.000000
v -0.562501 -0.125000 0.026732
v -0.575000 -0.112501 0.026732
v -0.575000 -0.112501 0.000000
v -0.562501 -0.125000 0.000000
v 0.575000 -0.112501 0.026732
v 0.562501 -0.125000 0.026732
v 0.562501 -0.125000 0.000000
v 0.575000 -0.112501 0.000000
vt 0.345249 0.638501
vt 0.346479 0.637447
vt 0.455854 0.637467
vt 0.457934 0.663545
vt 0.344316 0.635814
vt 0.345798 0.664427
vt 0.455773 0.661893
vt 0.342638 0.638448
vt 0.345014 0.660782
vt 0.342396 0.660721
vt 0.457066 0.638534
vt 0.459682 0.638553
vt 0.459629 0.660836
vt 0.456292 0.634904
vt 0.346237 0.661868
vt 0.344684 0.611667
vt 0.457015 0.660825
vt 0.456206 0.610431
vt 0.345967 0.634883
vt 0.457511 0.633676
vt 0.345904 0.610441
vt 0.456281 0.664462
vt 0.458062 0.635770
vt 0.344741 0.633664
vt 0.457433 0.611650
vt 0.344028 0.663568
vn -0.010987 0.999940 0.000000
vn -0.010987 0.999940 0.000000
vn 0.010987 0.999940 0.000000
vn 0.010987 0.999940 0.000000
vn -0.010987 -0.999940 0.000000
vn -0.010987 -0.999940 0.000000
vn 0.010987 -0.999940 0.000000
vn 0.010987 -0.999940 0.000000
vn 0.998618 -0.052553 0.000000
vn 0.998618 -0.052553 0.000000
vn 0.998618 0.052553 0.000000
vn 0.998618 0.052553 0.000000
vn -0.998618 -0.052554 0.000000
vn -0.998618 -0.052554 0.000000
vn -0.998618 0.052554 0.000000
vn -0.998618 0.052554 0.000000
vn 0.000000 0.000000 -1.000000
vn 0.000000 0.000000 -1.000000
vn 0.000000 0.000000 -1.000000
vn 0.000000 0.000000 -1.000000
vn -0.000000 0.000000 1.000000
vn -0.000000 0.000000 1.000000
vn -0.000000 0.000000 1.000000
vn -0.000000 0.000000 1.000000
vn 0.000000 0.000000 1.000000
vn 0.000000 0.000000 1.000000
vn 0.000000 0.000000 1.000000
vn 0.000000 0.000000 1.000000
vn 0.000000 0.000000 -1.000000
vn 0.000000 0.000000 -1.000000
vn 0.000000 0.000000 -1.000000
vn 0.000000 0.000000 -1.000000
s 1
usemtl aiStandardSurface1SG
f 4/6/1 2/15/2 5/7/3 8/22/4
f 9/2/5 12/19/6 15/14/7 14/3/8
f 13/11/9 16/12/10 7/13/11 6/17/12
f 11/8/13 10/1/14 1/9/15 3/10/16
s 3
f 3/16/17 4/21/18 12/19/19 11/24/20
s 4
f 5/7/21 14/3/22 13/11/23 6/17/24
s 1
f 1/9/15 2/15/2 4/6/1 3/26/16
f 5/7/3 6/17/12 7/4/11 8/22/4
f 9/2/5 10/1/14 11/5/13 12/19/6
f 13/11/9 14/3/8 15/14/7 16/23/10
s 4
f 5/7/21 2/15/25 9/2/26 14/3/22
f 10/1/27 9/2/26 2/15/25 1/9/28
s 3
f 15/14/29 8/18/30 7/25/31 16/20/32
f 12/19/19 4/21/18 8/18/30 15/14/29
