# This file uses centimeters as units for non-parametric coordinates.

mtllib schild vorrang.mtl
v -0.007930 0.309311 0.022446
v 0.007930 0.309311 0.022446
v -0.007930 0.309311 0.000000
v 0.007930 0.309311 0.000000
v 0.309311 0.007930 0.022446
v 0.309311 -0.007930 0.022446
v 0.309311 -0.007930 0.000000
v 0.309311 0.007930 0.000000
v -0.309311 -0.007930 0.022446
v -0.309311 0.007930 0.022446
v -0.309311 0.007930 0.000000
v -0.309311 -0.007930 0.000000
v 0.007930 -0.309311 0.022446
v -0.007930 -0.309311 0.022446
v -0.007930 -0.309311 0.000000
v 0.007930 -0.309311 0.000000
v 0.000000 0.301381 0.022446
v -0.301381 0.000000 0.022446
v 0.301381 -0.000000 0.022446
v 0.000000 -0.301381 0.022446
v 0.000000 0.301381 0.000000
v 0.301381 0.000000 0.000000
v 0.000000 -0.301381 0.000000
v -0.301381 0.000000 0.000000
vt 0.809071 0.761132
vt 0.808962 0.851015
vt 0.850731 0.851006
vt 0.850767 0.761218
vt 0.808923 0.807189
vt 0.808936 0.804994
vt 0.850708 0.805065
vt 0.850711 0.807258
vt 0.851677 0.808454
vt 0.851803 0.803972
vt 0.851861 0.762317
vt 0.851707 0.849826
vt 0.807845 0.803894
vt 0.807944 0.808378
vt 0.807999 0.849827
vt 0.807972 0.762226
vt 0.809068 0.762228
vt 0.808942 0.803897
vt 0.850632 0.849908
vt 0.850601 0.808351
vt 0.809071 0.849920
vt 0.809022 0.808287
vt 0.850707 0.803970
vt 0.850765 0.762314
vt 0.853066 0.806557
vt 0.806530 0.806436
vt 0.853115 0.851772
vt 0.850727 0.853200
vt 0.808958 0.853209
vt 0.806619 0.851729
vt 0.853838 0.808062
vt 0.805808 0.808041
vt 0.853840 0.850174
vt 0.805840 0.850228
vn 0.707107 0.707107 0.000000
vn 0.707107 0.707107 0.000000
vn 0.707107 0.707107 0.000000
vn 0.707107 0.707107 0.000000
vn -0.707106 -0.707107 0.000000
vn -0.707106 -0.707107 0.000000
vn -0.707106 -0.707107 0.000000
vn -0.707106 -0.707107 0.000000
vn 0.707107 -0.707107 0.000000
vn 0.707107 -0.707107 0.000000
vn 0.707107 -0.707107 0.000000
vn 0.707107 -0.707107 0.000000
vn -0.707107 0.707107 0.000000
vn -0.707107 0.707107 0.000000
vn -0.707107 0.707107 0.000000
vn -0.707107 0.707107 0.000000
vn 0.000000 0.000000 -1.000000
vn 0.000000 0.000000 -1.000000
vn 0.000000 0.000000 -1.000000
vn 0.000000 0.000000 -1.000000
vn 0.000000 0.000000 1.000000
vn 0.000000 0.000000 1.000000
vn 0.000000 0.000000 1.000000
vn 0.000000 1.000000 0.000000
vn 0.000000 1.000000 0.000000
vn 0.000000 1.000000 0.000000
vn 0.000000 1.000000 0.000000
vn 1.000000 0.000000 0.000000
vn 1.000000 0.000000 0.000000
vn 1.000000 0.000000 0.000000
vn 1.000000 0.000000 0.000000
vn -1.000000 0.000009 0.000000
vn -1.000000 0.000009 0.000000
vn -1.000000 0.000009 0.000000
vn -1.000000 0.000009 0.000000
vn 0.000000 -1.000000 0.000000
vn 0.000000 -1.000000 0.000000
vn 0.000000 -1.000000 0.000000
vn 0.000000 -1.000000 0.000000
vn 0.000000 0.000000 1.000000
vn -0.000000 0.000000 1.000000
vn 0.000000 0.000000 1.000000
vn 0.000000 0.000000 1.000000
vn 0.000000 0.000000 1.000000
vn 0.000000 0.000000 1.000000
vn 0.000000 0.000000 1.000000
vn -0.000000 0.000000 1.000000
vn -0.000000 0.000000 1.000000
vn 0.000000 0.000000 -1.000000
vn 0.000000 0.000000 -1.000000
vn 0.000000 0.000000 -1.000000
vn 0.000000 0.000000 -1.000000
vn 0.000000 0.000000 -1.000000
vn 0.000000 0.000000 -1.000000
vn 0.000000 0.000000 -1.000000
vn 0.000000 0.000000 -1.000000
s off
usemtl aiStandardSurface1SG
f 4/29/1 2/2/2 5/3/3 8/28/4
f 9/5/5 12/6/6 15/7/7 14/8/8
f 13/9/9 16/31/10 7/33/11 6/12/12
f 11/32/13 10/14/14 1/15/15 3/34/16
s 1
f 3/16/17 21/17/18 24/18/19 11/13/20
s 2
f 5/3/21 19/19/22 6/12/23
s off
f 1/15/24 2/2/25 4/30/26 3/34/27
f 5/3/28 6/12/29 7/33/30 8/27/31
f 9/5/32 10/14/33 11/32/34 12/26/35
f 13/9/36 14/8/37 15/25/38 16/31/39
s 2
f 20/20/40 14/8/41 13/9/42
f 19/19/22 20/20/40 13/9/42 6/12/23
f 1/15/43 17/21/44 2/2/45
f 10/14/46 18/22/47 17/21/44 1/15/43
f 10/14/46 9/5/48 18/22/47
f 2/2/45 17/21/44 19/19/22 5/3/21
f 17/21/44 18/22/47 20/20/40 19/19/22
f 18/22/47 9/5/48 14/8/41 20/20/40
s 1
f 23/23/49 24/18/19 21/17/18 22/24/50
f 16/10/51 23/23/49 22/24/50 7/11/52
f 3/16/17 4/1/53 21/17/18
f 22/24/50 21/17/18 4/1/53 8/4/54
f 7/11/52 22/24/50 8/4/54
f 15/7/55 23/23/49 16/10/51
f 12/6/56 24/18/19 23/23/49 15/7/55
f 11/13/20 24/18/19 12/6/56
