# This file uses centimeters as units for non-parametric coordinates.

mtllib schild einbahn.mtl
v -0.588024 0.185229 0.031000
v -0.567445 0.205808 0.031000
v -0.588024 0.185229 0.000000
v -0.567445 0.205808 0.000000
v 0.567444 0.205808 0.031000
v 0.588022 0.185229 0.031000
v 0.588022 0.185229 0.000000
v 0.567444 0.205808 0.000000
v -0.567445 -0.205808 0.031000
v -0.588024 -0.185229 0.031000
v -0.588024 -0.185229 0.000000
v -0.567445 -0.205808 0.000000
v 0.588022 -0.185229 0.031000
v 0.567444 -0.205808 0.031000
v 0.567444 -0.205808 0.000000
v 0.588022 -0.185229 0.000000
vt 0.992171 0.847006
vt 0.992171 0.763564
vt 0.881251 0.763579
vt 0.881251 0.847023
vt 0.992165 0.803746
vt 0.992165 0.806776
vt 0.881245 0.806792
vt 0.881239 0.803762
vt 0.879304 0.801398
vt 0.876353 0.802083
vt 0.876436 0.765220
vt 0.879319 0.765817
vt 0.997001 0.802102
vt 0.994121 0.801498
vt 0.994084 0.765907
vt 0.997040 0.765231
vt 0.878094 0.804870
vt 0.995311 0.805057
vt 0.878094 0.762279
vt 0.881251 0.760549
vt 0.992171 0.760534
vt 0.995313 0.762452
vt 0.879234 0.808804
vt 0.994177 0.808787
vt 0.879239 0.845011
vt 0.994182 0.844995
vn -0.017807 0.999842 0.000000
vn -0.017807 0.999842 0.000000
vn 0.017807 0.999841 0.000000
vn 0.017807 0.999841 0.000000
vn -0.017807 -0.999842 0.000000
vn -0.017807 -0.999842 0.000000
vn 0.017807 -0.999841 0.000000
vn 0.017807 -0.999841 0.000000
vn 0.998618 -0.052553 0.000000
vn 0.998618 -0.052553 0.000000
vn 0.998618 0.052553 0.000000
vn 0.998618 0.052553 0.000000
vn -0.998618 -0.052554 0.000000
vn -0.998618 -0.052554 0.000000
vn -0.998618 0.052554 0.000000
vn -0.998618 0.052554 0.000000
vn 0.000000 0.000000 -1.000000
vn 0.000000 0.000000 -1.000000
vn 0.000000 0.000000 -1.000000
vn 0.000000 0.000000 -1.000000
vn 0.000000 0.000000 1.000000
vn 0.000000 0.000000 1.000000
vn 0.000000 0.000000 1.000000
vn 0.000000 0.000000 1.000000
vn -0.000000 0.000000 1.000000
vn -0.000000 0.000000 1.000000
vn -0.000000 0.000000 1.000000
vn -0.000000 0.000000 1.000000
vn 0.000000 0.000000 -1.000000
vn 0.000000 0.000000 -1.000000
vn 0.000000 0.000000 -1.000000
vn 0.000000 0.000000 -1.000000
s 1
usemtl aiStandardSurface1SG
f 4/21/1 2/2/2 5/3/3 8/20/4
f 9/5/5 12/6/6 15/7/7 14/8/8
f 13/9/9 16/10/10 7/11/11 6/12/12
f 11/13/13 10/14/14 1/15/15 3/16/16
s 3
f 3/26/17 4/1/18 12/6/19 11/24/20
s 4
f 5/3/21 14/8/22 13/9/23 6/12/24
s 1
f 1/15/15 2/2/2 4/22/1 3/16/16
f 5/3/3 6/12/12 7/11/11 8/19/4
f 9/5/5 10/14/14 11/13/13 12/18/6
f 13/9/9 14/8/8 15/17/7 16/10/10
s 4
f 10/14/25 9/5/26 2/2/27 1/15/28
f 2/2/27 9/5/26 14/8/22 5/3/21
s 3
f 15/7/29 8/4/30 7/25/31 16/23/32
f 12/6/19 4/1/18 8/4/30 15/7/29
