# This file uses centimeters as units for non-parametric coordinates.

mtllib schild hinweis.mtl
v -0.288847 0.274406 0.020872
v -0.274406 0.288847 0.020872
v -0.288847 0.274406 0.000000
v -0.274406 0.288847 0.000000
v 0.274406 0.288847 0.020872
v 0.288847 0.274406 0.020872
v 0.288847 0.274406 0.000000
v 0.274406 0.288847 0.000000
v -0.274406 -0.288847 0.020872
v -0.288847 -0.274406 0.020872
v -0.288847 -0.274406 0.000000
v -0.274406 -0.288847 0.000000
v 0.288847 -0.274406 0.020872
v 0.274406 -0.288847 0.020872
v 0.274406 -0.288847 0.000000
v 0.288847 -0.274406 0.000000
vt 0.777916 0.541485
vt 0.777936 0.656380
vt 0.831582 0.656364
vt 0.831568 0.541466
vt 0.777936 0.600000
vt 0.777936 0.597960
vt 0.831588 0.597941
vt 0.831592 0.599982
vt 0.832966 0.601645
vt 0.834958 0.601204
vt 0.834936 0.655169
vt 0.832961 0.654787
vt 0.774577 0.601201
vt 0.776551 0.601589
vt 0.776568 0.654738
vt 0.774575 0.655172
vt 0.833711 0.599236
vt 0.775802 0.599118
vt 0.833726 0.657243
vt 0.831583 0.658404
vt 0.777937 0.658421
vt 0.775823 0.657134
vt 0.832999 0.596529
vt 0.776523 0.596549
vt 0.832980 0.542878
vt 0.776505 0.542897
vn -0.025630 0.999672 0.000000
vn -0.025630 0.999672 0.000000
vn 0.025630 0.999672 0.000000
vn 0.025630 0.999672 0.000000
vn -0.025630 -0.999672 0.000000
vn -0.025630 -0.999672 0.000000
vn 0.025630 -0.999672 0.000000
vn 0.025630 -0.999672 0.000000
vn 0.999672 -0.025630 0.000000
vn 0.999672 -0.025630 0.000000
vn 0.999672 0.025630 0.000000
vn 0.999672 0.025630 0.000000
vn -0.999672 -0.025630 0.000000
vn -0.999672 -0.025630 0.000000
vn -0.999672 0.025630 0.000000
vn -0.999672 0.025630 0.000000
vn 0.000000 0.000000 -1.000000
vn 0.000000 0.000000 -1.000000
vn 0.000000 0.000000 -1.000000
vn 0.000000 0.000000 -1.000000
vn 0.000000 0.000000 1.000000
vn 0.000000 0.000000 1.000000
vn 0.000000 0.000000 1.000000
vn 0.000000 0.000000 1.000000
vn -0.000000 0.000000 1.000000
vn -0.000000 0.000000 1.000000
vn -0.000000 0.000000 1.000000
vn -0.000000 0.000000 1.000000
vn 0.000000 0.000000 -1.000000
vn 0.000000 0.000000 -1.000000
vn 0.000000 0.000000 -1.000000
vn 0.000000 0.000000 -1.000000
s 1
usemtl aiStandardSurface1SG
f 4/21/1 2/2/2 5/3/3 8/20/4
f 9/5/5 12/6/6 15/7/7 14/8/8
f 13/9/9 16/10/10 7/11/11 6/12/12
f 11/13/13 10/14/14 1/15/15 3/16/16
s 3
f 3/26/17 4/1/18 12/6/19 11/24/20
s 4
f 5/3/21 14/8/22 13/9/23 6/12/24
s 1
f 1/15/15 2/2/2 4/22/1 3/16/16
f 5/3/3 6/12/12 7/11/11 8/19/4
f 9/5/5 10/14/14 11/13/13 12/18/6
f 13/9/9 14/8/8 15/17/7 16/10/10
s 4
f 10/14/25 9/5/26 2/2/27 1/15/28
f 2/2/27 9/5/26 14/8/22 5/3/21
s 3
f 15/7/29 8/4/30 7/25/31 16/23/32
f 12/6/19 4/1/18 8/4/30 15/7/29
