# This file uses centimeters as units for non-parametric coordinates.

mtllib schild pfosten rund.mtl
v 0.016074 2.321521 -0.063337
v -0.016074 2.321521 -0.063337
v -0.032148 2.321521 -0.035496
v -0.016074 2.321521 -0.007656
v 0.016074 2.321521 -0.007656
v 0.032147 2.321521 -0.035496
v 0.000000 2.321521 -0.035496
v 0.016074 1.786438 -0.063337
v 0.032147 1.786438 -0.035496
v 0.016074 1.786438 -0.007656
v -0.016074 1.786438 -0.007656
v -0.032148 1.786438 -0.035496
v -0.016074 1.786438 -0.063337
v 0.016074 2.295152 -0.063337
v 0.032147 2.295152 -0.035496
v 0.016074 2.295152 -0.007656
v -0.016074 2.295152 -0.007656
v -0.032148 2.295152 -0.035496
v -0.016074 2.295152 -0.063337
v 0.016074 2.258401 -0.063337
v 0.032147 2.258401 -0.035496
v 0.016074 2.258401 -0.007656
v -0.016074 2.258401 -0.007656
v -0.032148 2.258401 -0.035496
v -0.016074 2.258401 -0.063337
v 0.016074 1.825894 -0.063337
v 0.032147 1.825894 -0.035496
v 0.016074 1.825894 -0.007656
v -0.016074 1.825894 -0.007656
v -0.032148 1.825894 -0.035496
v -0.016074 1.825894 -0.063337
v 0.020494 1.786438 -0.070992
v 0.040987 1.786438 -0.035496
v 0.020494 1.825894 -0.070992
v 0.040987 1.825894 -0.035496
v 0.020494 1.786438 0.000000
v 0.020494 1.825894 0.000000
v -0.020494 1.786438 0.000000
v -0.020494 1.825894 0.000000
v -0.040987 1.786438 -0.035496
v -0.040987 1.825894 -0.035496
v -0.020494 1.786438 -0.070992
v -0.020494 1.825894 -0.070992
v 0.020494 2.258401 -0.070992
v 0.040987 2.258401 -0.035496
v 0.020494 2.295152 -0.070992
v 0.040987 2.295152 -0.035496
v 0.020494 2.258401 0.000000
v 0.020494 2.295152 0.000000
v -0.020494 2.258401 0.000000
v -0.020494 2.295152 0.000000
v -0.040987 2.258401 -0.035496
v -0.040987 2.295152 -0.035496
v -0.020494 2.258401 -0.070992
v -0.020494 2.295152 -0.070992
v -0.024914 2.295152 -0.007656
v -0.024914 2.258401 -0.007656
v 0.024914 2.295152 -0.007656
v 0.024914 2.258401 -0.007656
v 0.024914 1.825894 -0.007656
v 0.024914 1.786438 -0.007656
v -0.024914 1.786438 -0.007656
v -0.024914 1.825894 -0.007656
v -0.067564 2.295152 -0.007656
v -0.067564 2.258401 -0.007656
v -0.067563 2.258401 0.000000
v -0.067563 2.295152 0.000000
v 0.067563 2.258401 -0.007656
v 0.067563 2.258401 0.000000
v 0.067563 2.295152 -0.007656
v 0.067563 2.295152 0.000000
v 0.067563 1.786438 -0.007656
v 0.067563 1.786438 0.000000
v 0.067563 1.825894 -0.007656
v 0.067563 1.825894 0.000000
v -0.067564 1.786438 -0.007656
v -0.067564 1.825894 -0.007656
v -0.067563 1.786438 0.000000
v -0.067563 1.825894 0.000000
v 0.016074 -0.226824 -0.063337
v -0.016074 -0.226824 -0.063337
v -0.032148 -0.226824 -0.035496
v -0.016074 -0.226824 -0.007656
v 0.016074 -0.226824 -0.007656
v 0.032147 -0.226824 -0.035496
vt 0.669538 0.588662
vt 0.672525 0.587941
vt 0.671741 0.590923
vt 0.674762 0.590117
vt 0.673962 0.593137
vt 0.670938 0.593951
vt 0.668719 0.591729
vt 0.684749 0.534267
vt 0.688598 0.533859
vt 0.688316 0.538021
vt 0.684734 0.537752
vt 0.479146 0.366886
vt 0.479147 0.370592
vt 0.474591 0.362414
vt 0.478702 0.362413
vt 0.478703 0.366119
vt 0.474591 0.366119
vt 0.675020 0.534324
vt 0.474147 0.361646
vt 0.474148 0.366887
vt 0.674985 0.537765
vt 0.671720 0.534316
vt 0.671774 0.537864
vt 0.668196 0.533982
vt 0.667993 0.538181
vt 0.684667 0.585379
vt 0.687668 0.586021
vt 0.687034 0.588589
vt 0.684108 0.587878
vt 0.478242 0.366866
vt 0.681181 0.587375
vt 0.678432 0.584719
vt 0.678399 0.587300
vt 0.675261 0.585151
vt 0.675474 0.587620
vt 0.672076 0.585442
vt 0.668891 0.586118
vt 0.684807 0.581369
vt 0.688598 0.581284
vt 0.688261 0.585332
vt 0.684803 0.584660
vt 0.479106 0.366866
vt 0.479106 0.370455
vt 0.474671 0.362530
vt 0.478674 0.362530
vt 0.478674 0.366119
vt 0.474671 0.366119
vt 0.469327 0.366119
vt 0.470074 0.361783
vt 0.470074 0.362530
vt 0.470075 0.366119
vt 0.671825 0.581374
vt 0.675165 0.581249
vt 0.675300 0.584477
vt 0.671998 0.584730
vt 0.668281 0.581268
vt 0.668203 0.585397
vt 0.684597 0.538452
vt 0.687736 0.538716
vt 0.687951 0.580462
vt 0.684768 0.580676
vt 0.478260 0.366887
vt 0.681562 0.580727
vt 0.678178 0.538356
vt 0.475103 0.361782
vt 0.674935 0.538424
vt 0.675173 0.580573
vt 0.671827 0.538560
vt 0.671974 0.580674
vt 0.668510 0.538787
vt 0.668853 0.580487
vt 0.684723 0.533581
vt 0.687963 0.533130
vt 0.681350 0.533775
vt 0.678206 0.533755
vt 0.675048 0.533641
vt 0.671895 0.533635
vt 0.668772 0.533300
vt 0.474239 0.361782
vt 0.474240 0.366867
vt 0.483270 0.362529
vt 0.483271 0.370455
vt 0.483271 0.366866
vt 0.483271 0.366118
vt 0.483424 0.362413
vt 0.483425 0.370591
vt 0.483425 0.366886
vt 0.483425 0.366118
vt 0.469102 0.366120
vt 0.469869 0.361647
vt 0.469869 0.362415
vt 0.469870 0.366120
vt 0.668964 0.337455
vt 0.672094 0.337462
vt 0.675224 0.337466
vt 0.678353 0.337467
vt 0.681482 0.337465
vt 0.684612 0.337461
vt 0.687747 0.337455
vt 0.469870 0.370593
vt 0.469101 0.362415
vt 0.677529 0.534210
vt 0.474149 0.370593
vt 0.483424 0.361645
vt 0.484192 0.362412
vt 0.682063 0.534293
vt 0.479146 0.361645
vt 0.677548 0.537902
vt 0.475035 0.366887
vt 0.475034 0.361646
vt 0.478259 0.361645
vt 0.682083 0.537882
vt 0.681370 0.538341
vt 0.483270 0.361782
vt 0.682188 0.581182
vt 0.479105 0.361782
vt 0.470075 0.370456
vt 0.677711 0.581108
vt 0.474240 0.370456
vt 0.478242 0.361782
vt 0.682134 0.584438
vt 0.681396 0.584787
vt 0.678397 0.580676
vt 0.677806 0.584349
vt 0.475103 0.366867
vt 0.484018 0.362529
vt 0.469327 0.362530
vt 0.469870 0.366888
vt 0.484192 0.366118
vt 0.484018 0.366118
vt 0.470075 0.366867
vn 0.000000 1.000000 0.000004
vn 0.000000 1.000000 -0.000004
vn 0.000000 1.000000 -0.000000
vn 0.000000 1.000000 0.000000
vn 0.000000 1.000000 0.000000
vn 0.000000 1.000000 -0.000004
vn 0.000000 1.000000 0.000004
vn 0.997574 0.000000 -0.069615
vn 0.500000 0.000000 -0.866026
vn 0.500000 0.000000 -0.866026
vn 0.997574 0.000000 -0.069615
vn 0.866027 0.000000 0.499997
vn 0.866027 0.000000 0.499997
vn 0.000000 0.000000 1.000000
vn 0.000000 0.000000 1.000000
vn 0.000000 0.000000 1.000000
vn 0.000000 0.000000 1.000000
vn -0.997574 0.000000 -0.069617
vn -0.866024 0.000000 0.500002
vn -0.866025 0.000000 0.500002
vn -0.997574 0.000000 -0.069616
vn -0.499997 0.000000 -0.866027
vn -0.499997 0.000000 -0.866027
vn 1.000000 0.000000 0.000000
vn 0.500000 0.000000 -0.866025
vn 0.500000 0.000000 -0.866025
vn 1.000000 0.000000 0.000000
vn 0.499998 0.000000 0.866027
vn 0.499998 0.000000 0.866027
vn -0.499997 0.000000 0.866027
vn -0.499997 0.000000 0.866027
vn -1.000000 0.000000 0.000000
vn -1.000000 0.000000 0.000000
vn -0.499998 0.000000 -0.866026
vn -0.499998 0.000000 -0.866026
vn 0.997574 0.000000 -0.069613
vn 0.500001 0.000000 -0.866025
vn 0.500001 0.000000 -0.866025
vn 0.997574 0.000000 -0.069613
vn 0.866027 0.000000 0.499998
vn 0.866027 0.000000 0.499998
vn 0.000000 0.000000 1.000000
vn 0.000000 0.000000 1.000000
vn 0.000000 0.000000 1.000000
vn 0.000000 0.000000 1.000000
vn -1.000000 0.000000 0.000016
vn -1.000000 0.000000 0.000016
vn -1.000000 0.000000 0.000016
vn -1.000000 0.000000 0.000016
vn -0.499997 0.000000 -0.866027
vn -0.997574 0.000000 -0.069618
vn -0.997574 0.000000 -0.069617
vn -0.499997 0.000000 -0.866027
vn 1.000000 0.000000 0.000001
vn 0.500001 0.000000 -0.866025
vn 0.500001 0.000000 -0.866025
vn 1.000000 0.000000 0.000001
vn 0.500001 0.000000 0.866025
vn 0.500001 0.000000 0.866025
vn -0.499999 0.000000 0.866026
vn -0.499999 0.000000 0.866026
vn -1.000000 0.000000 -0.000000
vn -1.000000 0.000000 -0.000000
vn -0.499998 0.000000 -0.866027
vn -0.499998 0.000000 -0.866027
vn 0.000000 -1.000000 0.000007
vn 0.000000 -1.000000 0.000000
vn 0.000000 -1.000000 0.000000
vn 0.000000 -1.000000 0.000007
vn 0.000000 1.000000 -0.000007
vn 0.000000 1.000000 -0.000007
vn 0.000000 1.000000 -0.000007
vn 0.000000 1.000000 -0.000007
vn 0.000000 -1.000000 -0.000013
vn 0.000000 -1.000000 0.000014
vn 0.000000 1.000000 0.000000
vn 0.000000 1.000000 0.000000
vn -0.000003 -1.000000 -0.000013
vn 0.000000 -1.000000 -0.000024
vn -0.000001 -1.000000 -0.000024
vn 0.000000 1.000000 -0.000002
vn 0.000000 1.000000 0.000000
vn 0.000000 1.000000 0.000000
vn -0.000003 -1.000000 0.000007
vn -0.000007 -1.000000 0.000014
vn -0.000003 -1.000000 0.000007
vn 0.000000 1.000000 -0.000004
vn 0.000000 1.000000 -0.000004
vn 0.000000 1.000000 -0.000007
vn 0.000000 -1.000000 0.000000
vn 0.000000 -1.000000 0.000000
vn 0.000000 1.000000 0.000000
vn 0.000000 1.000000 0.000000
vn 0.000000 -1.000000 0.000000
vn 0.000000 -1.000000 -0.000007
vn 0.000000 -1.000000 -0.000007
vn 0.000000 -1.000000 0.000000
vn 0.000000 1.000000 -0.000013
vn 0.000000 1.000000 -0.000007
vn 0.000000 1.000000 -0.000007
vn 0.000000 1.000000 -0.000013
vn 0.000000 -1.000000 0.000009
vn 0.000000 -1.000000 0.000000
vn 0.000000 1.000000 -0.000007
vn 0.000000 1.000000 -0.000007
vn -0.000005 -1.000000 0.000016
vn 0.000000 -1.000000 0.000012
vn -0.000003 -1.000000 0.000006
vn 0.000000 1.000000 -0.000009
vn 0.000000 1.000000 -0.000006
vn 0.000000 1.000000 -0.000006
vn -0.000014 -1.000000 0.000025
vn 0.000000 1.000000 -0.000014
vn 0.000000 -1.000000 -0.000007
vn -0.000006 -1.000000 0.000014
vn -0.000006 -1.000000 0.000014
vn 0.000000 -1.000000 -0.000007
vn 0.000000 1.000000 -0.000007
vn 0.000000 1.000000 -0.000010
vn 0.000000 1.000000 -0.000010
vn 0.000000 1.000000 -0.000007
vn -0.866025 0.000000 0.500001
vn -0.866025 0.000000 0.500001
vn 1.000000 0.000000 0.000016
vn 1.000000 0.000000 0.000016
vn 1.000000 0.000000 0.000016
vn 1.000000 0.000000 0.000016
vn 1.000000 0.000000 0.000016
vn 1.000000 0.000000 0.000016
vn 1.000000 0.000000 0.000016
vn 1.000000 0.000000 0.000016
vn -1.000000 0.000000 0.000016
vn -1.000000 0.000000 0.000016
vn -1.000000 0.000000 0.000016
vn -1.000000 0.000000 0.000016
vn 0.000000 0.000000 -1.000000
vn 0.000000 0.000000 -1.000000
vn 0.000000 0.000000 -1.000000
vn 0.000000 0.000000 -1.000000
vn 0.000000 -1.000000 -0.000043
vn 0.000000 -1.000000 -0.000043
vn 0.000000 -1.000000 -0.000043
vn 0.000000 -1.000000 -0.000043
vn 0.000000 0.000000 1.000000
vn 0.000000 0.000000 1.000000
vn 0.000000 0.000000 1.000000
vn 0.000000 0.000000 1.000000
vn 0.000000 1.000000 0.000000
vn 0.000000 1.000000 0.000000
vn 0.000000 1.000000 0.000000
vn 0.000000 1.000000 0.000000
vn 0.000000 -1.000000 0.000000
vn 0.000000 -1.000000 0.000000
vn 0.000000 -1.000000 0.000000
vn 0.000000 -1.000000 0.000000
vn 0.000000 0.000000 -1.000000
vn 0.000000 0.000000 -1.000000
vn 0.000000 0.000000 -1.000000
vn 0.000000 0.000000 -1.000000
vn 0.000000 1.000000 0.000000
vn 0.000000 1.000000 0.000000
vn 0.000000 1.000000 0.000000
vn 0.000000 1.000000 0.000000
vn 0.000000 0.000000 1.000000
vn 0.000000 0.000000 1.000000
vn 0.000000 0.000000 1.000000
vn 0.000000 0.000000 1.000000
vn 0.000000 -1.000000 0.000000
vn 0.000000 -1.000000 0.000000
vn 0.000000 -1.000000 0.000000
vn 0.000000 -1.000000 0.000000
vn 0.000000 0.000000 -1.000000
vn 0.000000 0.000000 -1.000000
vn 0.000000 0.000000 -1.000000
vn 0.000000 0.000000 -1.000000
vn 0.000000 1.000000 0.000022
vn 0.000000 1.000000 0.000022
vn 0.000000 1.000000 0.000022
vn 0.000000 1.000000 0.000022
vn 0.000000 0.000000 1.000000
vn 0.000000 0.000000 1.000000
vn 0.000000 0.000000 1.000000
vn 0.000000 0.000000 1.000000
vn 0.000000 0.000000 -1.000000
vn 0.000000 0.000000 -1.000000
vn 0.000000 0.000000 -1.000000
vn 0.000000 0.000000 -1.000000
vn 0.000000 -1.000000 -0.000022
vn 0.000000 -1.000000 -0.000022
vn 0.000000 -1.000000 -0.000022
vn 0.000000 -1.000000 -0.000022
vn 0.000000 0.000000 1.000000
vn 0.000000 0.000000 1.000000
vn 0.000000 0.000000 1.000000
vn 0.000000 0.000000 1.000000
vn 0.000000 1.000000 0.000000
vn 0.000000 1.000000 0.000000
vn 0.000000 1.000000 0.000000
vn 0.000000 1.000000 0.000000
vn 0.500001 0.000000 -0.866025
vn 0.500001 0.000000 -0.866025
vn -0.499998 0.000000 -0.866027
vn -0.499998 0.000000 -0.866027
vn -1.000000 0.000000 0.000000
vn -1.000000 0.000000 0.000000
vn -0.499999 0.000000 0.866026
vn -0.499999 0.000000 0.866026
vn 0.500001 0.000000 0.866025
vn 0.500001 0.000000 0.866025
vn 1.000000 0.000000 0.000001
vn 1.000000 0.000000 0.000001
s 1
usemtl aiStandardSurface1SG
f 1/1/1 2/2/2 7/3/3
f 2/2/2 3/4/4 7/3/3
f 3/4/4 4/5/5 7/3/3
f 4/5/5 5/6/6 7/3/3
f 5/6/6 6/7/7 7/3/3
f 6/7/7 1/1/1 7/3/3
s 2
f 33/8/8 32/9/9 34/10/10 35/11/11
f 60/112/12 61/106/13 33/8/8 35/11/11
s off
f 38/14/14 36/15/15 37/16/16 39/17/17
s 2
f 40/18/18 62/102/19 63/108/20 41/21/21
f 42/22/22 40/18/18 41/21/21 43/23/23
f 32/24/9 42/22/22 43/23/23 34/25/10
s 4
f 15/26/24 14/27/25 1/28/26 6/29/27
f 16/122/28 15/26/24 6/29/27 5/31/29
f 17/32/30 16/122/28 5/31/29 4/33/31
f 18/34/32 17/32/30 4/33/31 3/35/33
f 19/36/34 18/34/32 3/35/33 2/2/35
f 14/37/25 19/36/34 2/2/35 1/1/26
s 5
f 45/38/36 44/39/37 46/40/38 47/41/39
f 58/121/40 59/115/41 45/38/36 47/41/39
s off
f 50/44/42 48/45/43 49/46/44 51/47/45
f 64/48/46 65/127/47 66/50/48 67/51/49
s 5
f 54/52/50 52/53/51 53/54/52 55/55/53
f 44/56/37 54/52/50 55/55/53 46/57/38
s 7
f 27/58/54 26/59/55 20/60/56 21/61/57
f 28/113/58 27/58/54 21/61/57 22/63/59
f 29/64/60 28/113/58 22/63/59 23/123/61
f 30/66/62 29/64/60 23/123/61 24/67/63
f 31/68/64 30/66/62 24/67/63 25/69/65
f 26/70/55 31/68/64 25/69/65 20/71/56
s 8
f 9/72/66 8/73/67 32/9/68 33/8/69
s 9
f 26/59/70 27/58/71 35/11/72 34/10/73
s 8
f 10/74/74 9/72/66 33/8/69 61/106/75
s 9
f 27/58/71 28/113/76 60/112/77 35/11/72
s 8
f 11/110/78 10/111/74 36/15/79 38/14/80
s 9
f 28/62/76 29/109/81 39/17/82 37/16/83
s 8
f 12/76/84 11/75/78 62/102/85 40/18/86
s 9
f 29/64/81 30/66/87 41/21/88 63/108/89
s 8
f 13/77/90 12/76/84 40/18/86 42/22/91
s 9
f 30/66/87 31/68/92 43/23/93 41/21/88
s 8
f 8/78/67 13/77/90 42/22/91 32/24/68
s 9
f 31/68/92 26/70/70 34/25/73 43/23/93
s 12
f 21/61/94 20/60/95 44/39/96 45/38/97
s 13
f 14/27/98 15/26/99 47/41/100 46/40/101
s 12
f 22/63/102 21/61/94 45/38/97 59/115/103
s 13
f 15/26/99 16/122/104 58/121/105 47/41/100
s 12
f 23/65/106 22/120/102 48/45/107 50/44/108
s 13
f 16/30/104 17/125/109 51/47/110 49/46/111
s 12
f 57/79/112 23/65/106 50/44/108
s 13
f 17/125/109 56/80/113 51/47/110
s 12
f 25/69/114 24/67/115 52/53/116 54/52/117
s 13
f 18/34/118 19/36/119 55/55/120 53/54/121
s 12
f 20/71/95 25/69/114 54/52/117 44/56/96
s 13
f 19/36/119 14/37/98 46/57/101 55/55/120
f 17/32/109 18/34/118 53/54/121 56/124/113
s 5
f 52/53/51 57/118/122 56/124/123 53/54/52
s 12
f 24/67/115 23/123/106 57/118/112 52/53/116
s 13
f 58/42/105 16/30/104 49/46/111
s off
f 69/81/124 68/126/125 70/130/126 71/84/127
s 12
f 22/120/102 59/116/103 48/45/107
s 9
f 60/12/77 28/62/76 37/16/83
s off
f 73/85/128 72/105/129 74/129/130 75/88/131
s 8
f 10/111/74 61/107/75 36/15/79
f 62/19/85 11/110/78 38/14/80
s off
f 77/89/132 76/101/133 78/91/134 79/92/135
s 9
f 29/109/81 63/20/89 39/17/82
s off
f 56/80/136 57/119/137 65/117/138 64/131/139
f 57/79/140 50/44/141 66/50/142 65/49/143
f 50/44/144 51/47/145 67/51/146 66/50/147
f 51/47/148 56/80/149 64/131/150 67/51/151
f 48/45/152 59/116/153 68/114/154 69/81/155
f 59/43/156 58/42/157 70/83/158 68/82/159
f 58/42/160 49/46/161 71/84/162 70/83/163
f 49/46/164 48/45/165 69/81/166 71/84/167
f 36/15/168 61/107/169 72/104/170 73/85/171
f 61/13/172 60/12/173 74/87/174 72/86/175
f 60/12/176 37/16/177 75/88/178 74/87/179
f 37/16/180 36/15/181 73/85/182 75/88/183
f 63/20/184 62/103/185 76/100/186 77/128/187
f 62/19/188 38/14/189 78/91/190 76/90/191
f 38/14/192 39/17/193 79/92/194 78/91/195
f 39/17/196 63/20/197 77/128/198 79/92/199
s 15
f 8/78/200 80/93/201 81/94/202 13/77/203
f 13/77/203 81/94/202 82/95/204 12/76/205
f 12/76/205 82/95/204 83/96/206 11/75/207
f 11/75/207 83/96/206 84/97/208 10/74/209
f 10/74/209 84/97/208 85/98/210 9/72/211
f 9/72/211 85/98/210 80/99/201 8/73/200
