# This file uses centimeters as units for non-parametric coordinates.

mtllib schild verbot & gebot.mtl
v 0.273453 0.113268 0.000000
v 0.209292 0.209292 0.000000
v 0.113268 0.273453 0.000000
v 0.000000 0.295983 0.000000
v -0.113268 0.273453 0.000000
v -0.209292 0.209292 0.000000
v -0.273453 0.113268 0.000000
v -0.295983 0.000000 0.000000
v -0.273453 -0.113268 0.000000
v -0.209292 -0.209292 0.000000
v -0.113268 -0.273453 0.000000
v 0.000000 -0.295983 0.000000
v 0.113268 -0.273453 0.000000
v 0.209292 -0.209292 0.000000
v 0.273453 -0.113268 0.000000
v 0.295983 0.000000 0.000000
v 0.273453 0.113268 0.026431
v 0.209292 0.209292 0.026431
v 0.113268 0.273453 0.026431
v 0.000000 0.295983 0.026431
v -0.113268 0.273453 0.026431
v -0.209292 0.209292 0.026431
v -0.273453 0.113268 0.026431
v -0.295983 0.000000 0.026431
v -0.273453 -0.113268 0.026431
v -0.209292 -0.209292 0.026431
v -0.113268 -0.273453 0.026431
v 0.000000 -0.295983 0.026431
v 0.113268 -0.273453 0.026431
v 0.209292 -0.209292 0.026431
v 0.273453 -0.113268 0.026431
v 0.295983 0.000000 0.026431
v 0.000000 0.000000 0.000000
v 0.000000 0.000000 0.026431
vt 0.882810 0.898607
vt 0.878471 0.888173
vt 0.878341 0.979456
vt 0.882633 0.969064
vt 0.870473 0.880188
vt 0.870397 0.987408
vt 0.860029 0.875868
vt 0.860013 0.991712
vt 0.848727 0.875871
vt 0.848773 0.991711
vt 0.838284 0.880195
vt 0.838390 0.987405
vt 0.830289 0.888183
vt 0.830448 0.979451
vt 0.825955 0.898619
vt 0.826157 0.969059
vt 0.825937 0.909913
vt 0.826177 0.957811
vt 0.830231 0.920347
vt 0.830508 0.947419
vt 0.838175 0.928332
vt 0.838499 0.939467
vt 0.848545 0.932652
vt 0.848935 0.935163
vt 0.860235 0.932649
vt 0.859862 0.935164
vt 0.870603 0.928325
vt 0.870297 0.939470
vt 0.878543 0.920337
vt 0.878287 0.947424
vt 0.882833 0.909901
vt 0.882616 0.957816
vt 0.854384 0.904260
vt 0.854396 0.963438
vt 0.885127 0.957308
vt 0.885148 0.969556
vt 0.880412 0.945993
vt 0.871710 0.937334
vt 0.837071 0.937341
vt 0.828373 0.946003
vt 0.823662 0.957320
vt 0.823646 0.969568
vt 0.828322 0.980882
vt 0.836974 0.989541
vt 0.848282 0.994226
vt 0.860522 0.994224
vt 0.871828 0.989534
vt 0.880477 0.980872
vn 0.923880 0.382683 -0.000001
vn 0.707107 0.707106 -0.000002
vn 0.707107 0.707107 -0.000002
vn 0.923880 0.382683 -0.000001
vn 0.382684 0.923879 -0.000002
vn 0.382684 0.923879 -0.000002
vn 0.000001 1.000000 -0.000001
vn 0.000001 1.000000 -0.000001
vn -0.382682 0.923880 0.000000
vn -0.382682 0.923880 0.000000
vn -0.707107 0.707107 0.000000
vn -0.707107 0.707107 0.000000
vn -0.923880 0.382684 0.000000
vn -0.923880 0.382684 0.000000
vn -1.000000 0.000001 0.000000
vn -1.000000 0.000001 0.000000
vn -0.923880 -0.382682 0.000000
vn -0.923880 -0.382682 0.000000
vn -0.707107 -0.707106 0.000000
vn -0.707107 -0.707106 0.000000
vn -0.382683 -0.923880 0.000000
vn -0.382683 -0.923880 0.000000
vn 0.000000 -1.000000 0.000000
vn 0.000000 -1.000000 0.000000
vn 0.382683 -0.923880 0.000000
vn 0.382683 -0.923880 0.000000
vn 0.707107 -0.707107 0.000000
vn 0.707107 -0.707107 0.000000
vn 0.923880 -0.382683 0.000000
vn 0.923880 -0.382683 0.000000
vn 1.000000 -0.000001 -0.000000
vn 1.000000 -0.000001 -0.000000
vn -0.000000 -0.000000 -1.000000
vn -0.000000 -0.000000 -1.000000
vn -0.000000 0.000000 -1.000000
vn -0.000000 -0.000000 -1.000000
vn -0.000000 -0.000000 -1.000000
vn 0.000000 -0.000000 -1.000000
vn 0.000000 -0.000000 -1.000000
vn 0.000000 -0.000000 -1.000000
vn 0.000000 0.000000 -1.000000
vn 0.000000 0.000000 -1.000000
vn 0.000000 0.000000 -1.000000
vn 0.000000 0.000000 -1.000000
vn 0.000000 0.000000 -1.000000
vn -0.000000 0.000000 -1.000000
vn -0.000000 0.000000 -1.000000
vn -0.000000 0.000000 -1.000000
vn 0.000000 -0.000000 -1.000000
vn -0.000000 -0.000000 1.000000
vn -0.000000 -0.000000 1.000000
vn -0.000000 0.000000 1.000000
vn -0.000000 -0.000000 1.000000
vn 0.000000 -0.000000 1.000000
vn 0.000000 -0.000000 1.000000
vn 0.000000 -0.000000 1.000000
vn 0.000000 -0.000000 1.000000
vn 0.000000 0.000000 1.000000
vn 0.000000 0.000000 1.000000
vn 0.000000 0.000000 1.000000
vn -0.000000 0.000000 1.000000
vn -0.000000 0.000000 1.000000
vn 0.000000 0.000000 1.000000
vn -0.000000 0.000000 1.000000
vn -0.000000 0.000000 1.000000
vn 0.000000 -0.000000 1.000000
s 1
usemtl aiStandardSurface1SG
f 1/36/1 2/48/2 18/3/3 17/4/4
f 2/48/2 3/47/5 19/6/6 18/3/3
f 3/47/5 4/46/7 20/8/8 19/6/6
f 4/46/7 5/45/9 21/10/10 20/8/8
f 5/45/9 6/44/11 22/12/12 21/10/10
f 6/44/11 7/43/13 23/14/14 22/12/12
f 7/43/13 8/42/15 24/16/16 23/14/14
f 8/42/15 9/41/17 25/18/18 24/16/16
f 9/41/17 10/40/19 26/20/20 25/18/18
f 10/40/19 11/39/21 27/22/22 26/20/20
f 11/39/21 12/23/23 28/24/24 27/22/22
f 12/23/23 13/25/25 29/26/26 28/24/24
f 13/25/25 14/38/27 30/28/28 29/26/26
f 14/38/27 15/37/29 31/30/30 30/28/28
f 15/37/29 16/35/31 32/32/32 31/30/30
f 16/35/31 1/36/1 17/4/4 32/32/32
s 2
f 2/2/33 1/1/34 33/33/35
f 3/5/36 2/2/33 33/33/35
f 4/7/37 3/5/36 33/33/35
f 5/9/38 4/7/37 33/33/35
f 6/11/39 5/9/38 33/33/35
f 7/13/40 6/11/39 33/33/35
f 8/15/41 7/13/40 33/33/35
f 9/17/42 8/15/41 33/33/35
f 10/19/43 9/17/42 33/33/35
f 11/21/44 10/19/43 33/33/35
f 12/23/45 11/21/44 33/33/35
f 13/25/46 12/23/45 33/33/35
f 14/27/47 13/25/46 33/33/35
f 15/29/48 14/27/47 33/33/35
f 16/31/49 15/29/48 33/33/35
f 1/1/34 16/31/49 33/33/35
s 3
f 17/4/50 18/3/51 34/34/52
f 18/3/51 19/6/53 34/34/52
f 19/6/53 20/8/54 34/34/52
f 20/8/54 21/10/55 34/34/52
f 21/10/55 22/12/56 34/34/52
f 22/12/56 23/14/57 34/34/52
f 23/14/57 24/16/58 34/34/52
f 24/16/58 25/18/59 34/34/52
f 25/18/59 26/20/60 34/34/52
f 26/20/60 27/22/61 34/34/52
f 27/22/61 28/24/62 34/34/52
f 28/24/62 29/26/63 34/34/52
f 29/26/63 30/28/64 34/34/52
f 30/28/64 31/30/65 34/34/52
f 31/30/65 32/32/66 34/34/52
f 32/32/66 17/4/50 34/34/52
