# Blender v2.80 (sub 45) OBJ File: ''
# www.blender.org
mtllib 10m_vegetation_mesh.mtl
o Plane
v 0.000000 10.000000 5.000000
v 0.000000 -0.000000 5.000000
v 0.000000 0.000000 -5.000000
v 0.000000 10.000000 -5.000000
v 3.535535 10.000000 3.535536
v 3.535535 -0.000000 3.535535
v -3.535535 0.000000 -3.535535
v -3.535535 10.000000 -3.535535
vt 0.000000 1.000000
vt -0.000000 0.000000
vt 1.000000 -0.000000
vt 1.000000 1.000000
vt 0.000000 1.000000
vt -0.000000 0.000000
vt 1.000000 -0.000000
vt 1.000000 1.000000
vn 1.0000 0.0000 0.0000
vn 0.7071 0.0000 -0.7071
usemtl None
s 1
f 1/1/1 2/2/1 3/3/1 4/4/1
f 5/5/2 6/6/2 7/7/2 8/8/2
