# Blender v2.82 (sub 7) OBJ File: ''
# www.blender.org
mtllib 40m_billboard_webm.mtl
o Plane.001
v 0.000000 60.000000 30.000006
v 0.000000 -0.000003 30.000000
v 0.000000 0.000003 -30.000000
v 0.000000 60.000000 -29.999994
v 21.213211 60.000000 21.213215
v 21.213211 -0.000002 21.213211
v -21.213211 0.000002 -21.213211
v -21.213211 60.000000 -21.213205
vt 0.000000 1.000000
vt -0.000000 0.000000
vt 1.000000 -0.000000
vt 1.000000 1.000000
vt 0.000000 1.000000
vt -0.000000 0.000000
vt 1.000000 -0.000000
vt 1.000000 1.000000
vn 1.0000 0.0000 0.0000
vn 0.7071 0.0000 -0.7071
usemtl None.001
s 1
f 1/1/1 2/2/1 3/3/1 4/4/1
f 5/5/2 6/6/2 7/7/2 8/8/2
