<?xml version="1.0" encoding="UTF-8" standalone="no"?>
<!-- Created with Inkscape (http://www.inkscape.org/) -->

<svg
   width="2.4002571mm"
   height="2.4002411mm"
   viewBox="0 0 2.4002571 2.4002411"
   version="1.1"
   id="svg1"
   xml:space="preserve"
   xmlns:inkscape="http://www.inkscape.org/namespaces/inkscape"
   xmlns:sodipodi="http://sodipodi.sourceforge.net/DTD/sodipodi-0.dtd"
   xmlns="http://www.w3.org/2000/svg"
   xmlns:svg="http://www.w3.org/2000/svg"><sodipodi:namedview
     id="namedview1"
     pagecolor="#ffffff"
     bordercolor="#000000"
     borderopacity="0.25"
     inkscape:showpageshadow="2"
     inkscape:pageopacity="0.0"
     inkscape:pagecheckerboard="0"
     inkscape:deskcolor="#d1d1d1"
     inkscape:document-units="mm"
     showgrid="true"><inkscape:grid
       id="grid9"
       units="mm"
       originx="-206.26639"
       originy="-114.09658"
       spacingx="0.99999998"
       spacingy="1"
       empcolor="#0099e5"
       empopacity="0.30196078"
       color="#0099e5"
       opacity="0.14902"
       empspacing="5"
       enabled="true"
       visible="true" /><inkscape:page
       x="0"
       y="4.4822163e-22"
       width="2.4002571"
       height="2.4002411"
       id="page2"
       margin="0"
       bleed="0" /></sodipodi:namedview><defs
     id="defs1"><inkscape:path-effect
       effect="skeletal"
       id="path-effect7"
       is_visible="true"
       lpeversion="1"
       pattern="m 85.502448,52.064742 c -0.03444,0.08033 -0.02806,0.160656 0.01915,0.240985 h 0.202686 c -0.02379,-0.08033 -0.01741,-0.160657 0.01915,-0.240985 z"
       copytype="repeated_stretched"
       prop_scale="1"
       scale_y_rel="false"
       spacing="0.3"
       normal_offset="-0.15"
       tang_offset="0"
       prop_units="false"
       vertical_pattern="false"
       hide_knot="false"
       fuse_tolerance="0" /></defs><g
     inkscape:label="Layer 1"
     inkscape:groupmode="layer"
     id="layer1"
     transform="translate(-206.26638,-114.09658)"><g
       style="clip-rule:evenodd;fill-rule:evenodd;image-rendering:optimizeQuality;shape-rendering:geometricPrecision;text-rendering:geometricPrecision"
       id="g2"
       transform="matrix(0.09659969,0,0,0.09659969,192.84045,113.41997)"><g
         id="Ebene_x0020_1"
         inkscape:label="Ebene 1"
         inkscape:groupmode="layer">
        <metadata
   id="CorelCorpID_0Corel-Layer" />
        
    <g
   style="clip-rule:evenodd;fill-rule:evenodd;image-rendering:optimizeQuality;shape-rendering:geometricPrecision;text-rendering:geometricPrecision"
   id="g6"
   transform="translate(68.774855,-5.6174584)"
   inkscape:export-filename="no_indicator_hydro.svg"
   inkscape:export-xdpi="619.27686"
   inkscape:export-ydpi="619.27686"><g
     id="Ebene_x0020_1-6"
     inkscape:label="Ebene 1">
        <metadata
   id="CorelCorpID_0Corel-Layer-2" />
        
    <g
   style="clip-rule:evenodd;fill:#e6e6e6;fill-opacity:1;fill-rule:evenodd;stroke:#000000;stroke-width:7.69027;stroke-dasharray:none;stroke-opacity:0.17;image-rendering:optimizeQuality;shape-rendering:geometricPrecision;text-rendering:geometricPrecision"
   id="g1"
   transform="matrix(0.20191743,0,0,0.20191743,8.1334764,11.391004)"><g
     id="Ebene_x0020_1-3"
     style="fill:#e6e6e6;fill-opacity:1;stroke:#000000;stroke-width:7.69027;stroke-dasharray:none;stroke-opacity:0.17">
        <metadata
   id="CorelCorpID_0Corel-Layer-6" />
        
    <g
   style="clip-rule:evenodd;fill-rule:evenodd;image-rendering:optimizeQuality;shape-rendering:geometricPrecision;text-rendering:geometricPrecision"
   id="g4"
   transform="matrix(112.57791,0,0,112.57791,-9299.7189,-5917.754)"><g
     id="g8"
     transform="matrix(0.53162743,0,0,0.53162743,40.55706,24.846922)"><g
       id="g7"
       transform="rotate(33.557839,85.261467,53.269665)"><circle
         style="fill:none;fill-opacity:1;stroke:#c0c0c0;stroke-width:0.0910809;stroke-linecap:round;stroke-linejoin:round;stroke-dasharray:none;stroke-opacity:1"
         id="path5"
         cx="85.261467"
         cy="53.269665"
         r="0.72295457" /><circle
         style="clip-rule:evenodd;fill:#c0c0c0;fill-opacity:1;fill-rule:evenodd;stroke:#c0c0c0;stroke-width:0.00735824;stroke-linecap:round;stroke-linejoin:round;stroke-dasharray:none;stroke-opacity:1;image-rendering:optimizeQuality;shape-rendering:geometricPrecision;text-rendering:geometricPrecision"
         id="path5-1"
         cx="85.261467"
         cy="53.269665"
         r="0.11681185" /><path
         style="fill:#c0c0c0;fill-opacity:1;stroke:#c0c0c0;stroke-width:0.0910809;stroke-linecap:round;stroke-linejoin:round;stroke-dasharray:none;stroke-opacity:1"
         id="circle6"
         d="m 86.253502,53.301058 c -0.07829,-0.05306 -0.158925,-0.03206 -0.241151,0.01169 -0.0049,0.07076 -0.02079,0.13979 -0.04597,0.205273 0.08222,0.0054 0.157946,0.03272 0.212692,0.110077 0.04168,-0.101754 0.0675,-0.211781 0.07443,-0.327036 z m -0.318958,0.683153 c -0.02159,-0.09098 -0.09059,-0.134701 -0.179809,-0.160922 -0.05233,0.04716 -0.110702,0.08756 -0.17329,0.119386 0.05754,0.05905 0.09587,0.130821 0.085,0.22416 0.09913,-0.0465 0.189508,-0.108395 0.268102,-0.182624 z m -0.704472,0.277488 c 0.05305,-0.07829 0.03206,-0.158925 -0.01168,-0.24115 -0.07076,-0.0049 -0.13979,-0.02079 -0.205273,-0.04597 -0.0054,0.08222 -0.03272,0.157947 -0.110078,0.212692 0.101755,0.04168 0.211782,0.0675 0.327036,0.07443 z M 84.54692,53.942741 c 0.09098,-0.02159 0.134701,-0.09059 0.160922,-0.179808 -0.04716,-0.05233 -0.08756,-0.110703 -0.119386,-0.173291 -0.05905,0.05754 -0.130821,0.09587 -0.22416,0.085 0.04651,0.09913 0.108395,0.189509 0.182624,0.268103 z m -0.277488,-0.704472 c 0.07829,0.05306 0.158925,0.03206 0.241151,-0.01168 0.0049,-0.07076 0.02079,-0.139791 0.04597,-0.205273 -0.08222,-0.0054 -0.157946,-0.03272 -0.212692,-0.110078 -0.04168,0.101754 -0.0675,0.211781 -0.07443,0.327036 z m 0.31896,-0.683152 c 0.02159,0.09098 0.09059,0.134701 0.179808,0.160922 0.05234,-0.04716 0.110702,-0.08756 0.173291,-0.119385 -0.05754,-0.05905 -0.09587,-0.130822 -0.085,-0.224161 -0.09913,0.04651 -0.189509,0.108395 -0.268103,0.182624 z m 0.704472,-0.277487 c -0.05306,0.07829 -0.03206,0.158925 0.01168,0.241151 0.07076,0.0049 0.13979,0.02079 0.205273,0.04597 0.0054,-0.08222 0.03272,-0.157946 0.110078,-0.212692 -0.101754,-0.04168 -0.211781,-0.0675 -0.327036,-0.07443 z m 0.683151,0.318961 c -0.09098,0.02159 -0.1347,0.09059 -0.160922,0.179808 0.04716,0.05233 0.08756,0.110702 0.119385,0.173291 0.05905,-0.05754 0.130822,-0.09587 0.224161,-0.085 -0.0465,-0.09913 -0.108394,-0.189509 -0.182624,-0.268103 z"
         sodipodi:type="arc"
         sodipodi:ry="0.72295457"
         sodipodi:rx="0.72295457"
         sodipodi:cy="53.269665"
         sodipodi:cx="85.261467"
         inkscape:path-effect="#path-effect7" /></g><path
       style="fill:#c0c0c0;fill-opacity:1;stroke:#c0c0c0;stroke-width:0.0605688;stroke-linecap:round;stroke-linejoin:round;stroke-dasharray:none;stroke-opacity:1"
       d="m 85.261464,52.546712 v 1.445909"
       id="path7" /><path
       style="fill:#c0c0c0;fill-opacity:1;stroke:#c0c0c0;stroke-width:0.0605688;stroke-linecap:round;stroke-linejoin:round;stroke-dasharray:none;stroke-opacity:1"
       d="m 84.538509,53.269666 h 1.445909"
       id="path8" /><path
       style="clip-rule:evenodd;fill:#c0c0c0;fill-opacity:1;fill-rule:evenodd;stroke:#c0c0c0;stroke-width:0.0605688;stroke-linecap:round;stroke-linejoin:round;stroke-dasharray:none;stroke-opacity:1;image-rendering:optimizeQuality;shape-rendering:geometricPrecision;text-rendering:geometricPrecision"
       d="M 84.750257,53.780872 85.77267,52.75846"
       id="path8-6" /><path
       style="clip-rule:evenodd;fill:#c0c0c0;fill-opacity:1;fill-rule:evenodd;stroke:#c0c0c0;stroke-width:0.0605688;stroke-linecap:round;stroke-linejoin:round;stroke-dasharray:none;stroke-opacity:1;image-rendering:optimizeQuality;shape-rendering:geometricPrecision;text-rendering:geometricPrecision"
       d="m 84.722605,52.787697 1.077717,0.963938"
       id="path8-7" /></g></g></g></g></g></g></g></g></g><style
     type="text/css"
     id="style1">.st0{fill-rule:evenodd;clip-rule:evenodd;}</style><style
     type="text/css"
     id="style1-9">.st0{fill-rule:evenodd;clip-rule:evenodd;}</style><style
     type="text/css"
     id="style1-7">.st0{fill-rule:evenodd;clip-rule:evenodd;}</style><style
     type="text/css"
     id="style1-8">.st0{fill-rule:evenodd;clip-rule:evenodd;}</style></svg>
