<?xml version="1.0" encoding="UTF-8" standalone="no"?>
<!-- Creator: CorelDRAW 2021.5 -->

<svg
   xml:space="preserve"
   width="3.7248278mm"
   height="3.3838806mm"
   version="1.1"
   style="clip-rule:evenodd;fill-rule:evenodd;image-rendering:optimizeQuality;shape-rendering:geometricPrecision;text-rendering:geometricPrecision"
   viewBox="0 0 9.17173 8.3351291"
   id="svg31"
   xmlns="http://www.w3.org/2000/svg"
   xmlns:svg="http://www.w3.org/2000/svg">
 <defs
   id="defs1"><style
     type="text/css"
     id="style1">
   <![CDATA[
    .str0 {stroke:black;stroke-width:0.49;stroke-miterlimit:22.9256}
    .fil16 {fill:black}
    .fil26 {fill:#695B4E}
    .fil15 {fill:white}
    .fil9 {fill:#EBECEC;fill-rule:nonzero}
    .fil12 {fill:#D9DADA;fill-rule:nonzero}
    .fil18 {fill:#92AAAC;fill-rule:nonzero}
    .fil17 {fill:#717780;fill-rule:nonzero}
    .fil25 {fill:black;fill-rule:nonzero}
    .fil11 {fill:black;fill-rule:nonzero}
    .fil20 {fill:#020202;fill-rule:nonzero}
    .fil21 {fill:#1D1E1F;fill-rule:nonzero}
    .fil13 {fill:#333333;fill-rule:nonzero}
    .fil2 {fill:#3B3A3C;fill-rule:nonzero}
    .fil7 {fill:#434A54;fill-rule:nonzero}
    .fil0 {fill:#57555C;fill-rule:nonzero}
    .fil8 {fill:#656D78;fill-rule:nonzero}
    .fil1 {fill:#787780;fill-rule:nonzero}
    .fil19 {fill:#857C76;fill-rule:nonzero}
    .fil23 {fill:#8D817E;fill-rule:nonzero}
    .fil10 {fill:#990000;fill-rule:nonzero}
    .fil3 {fill:#AAB2BC;fill-rule:nonzero}
    .fil22 {fill:#C4150F;fill-rule:nonzero}
    .fil6 {fill:#CCD1D9;fill-rule:nonzero}
    .fil24 {fill:#CECFCF;fill-rule:nonzero}
    .fil4 {fill:#F6BB42;fill-rule:nonzero}
    .fil5 {fill:#FFCE54;fill-rule:nonzero}
    .fil14 {fill:white;fill-rule:nonzero}
   ]]>
  </style></defs>
 <g
   id="Ebene_x0020_1"
   transform="translate(-0.29165799,0.00512934)">
  <metadata
   id="CorelCorpID_0Corel-Layer" />
  <g
   id="_1553019012768">
   <path
   class="fil0"
   d="M 4.09,0.41 C 3.54,1.35 3.62,2.57 4.27,3.55 L 5.12,2.59 c 0,0 0.06,0.64 0.41,0.95 0.4,0.35 0.95,0.25 0.95,0.25 L 5.63,4.75 C 6.69,5.28 7.91,5.21 8.77,4.54 9.5,5.91 9.68,7.3 9.19,8.31 7.97,7.58 6.69,7.35 5.8,7.73 5.72,7.63 5.63,7.54 5.53,7.45 4.64,6.66 3.4,6.53 2.41,7.02 2.77,5.98 2.49,4.77 1.6,3.98 1.5,3.89 1.4,3.82 1.29,3.74 1.55,2.81 1.17,1.57 0.29,0.45 c 0.95,-0.6 2.34,-0.6 3.8,-0.04 z"
   id="path1" />
   <path
   class="fil1"
   d="M 2.41,7.03 C 3.31,6.39 4.67,6.13 5.68,6.77 5.79,6.84 5.9,6.92 5.99,7 6.81,6.49 8.14,6.51 9.46,7.04 9.47,7.4 9.39,7.91 9.19,8.33 7.97,7.6 6.69,7.37 5.8,7.75 5.72,7.65 5.63,7.56 5.53,7.47 4.64,6.68 3.4,6.55 2.41,7.04 v 0 z"
   id="path2" />
   <path
   class="fil2"
   d="M 2.41,7.03 C 2.93,6.06 3.02,4.68 2.27,3.76 2.19,3.66 2.09,3.56 2,3.48 2.41,2.61 2.22,1.29 1.53,0.04 1.11,0.09 0.67,0.22 0.29,0.47 1.17,1.59 1.55,2.83 1.29,3.76 1.4,3.83 1.5,3.91 1.6,4 2.49,4.79 2.77,6 2.41,7.04 v 0 z"
   id="path3" />
  </g>
  
  
  
 </g>
</svg>
