<?xml version="1.0" encoding="UTF-8"?>
<!DOCTYPE svg PUBLIC "-//W3C//DTD SVG 1.1//EN" "http://www.w3.org/Graphics/SVG/1.1/DTD/svg11.dtd">
<!--Creator: CorelDRAW-->
<svg xmlns="http://www.w3.org/2000/svg" xml:space="preserve" width="10.3534mm" height="9.0442mm" version="1.1" style="shape-rendering:geometricPrecision;text-rendering:geometricPrecision;image-rendering:optimizeQuality;fill-rule:evenodd;clip-rule:evenodd" viewBox="0 0 179.89 157.14" xmlns:xlink="http://www.w3.org/1999/xlink" xmlns:xodm="http://www.corel.com/coreldraw/odm/2003">
    <g id="Ebene_x0020_1">
        <metadata id="CorelCorpID_0Corel-Layer"/>
        <g id="_105553250410624">
            <line x1="89.94" y1="99.14" x2="89.94" y2="151.01" style="fill:none;stroke:#E6E6E6;stroke-width:12.26;stroke-linecap:round;stroke-miterlimit:22.9256"/>
            <path d="M67.18 113.8c-5.92,-5.99 -9.24,-14.08 -9.24,-22.5 0,-17.68 14.33,-32.01 32.01,-32.01 17.68,0 32.01,14.33 32.01,32.01 0,8.42 -3.32,16.51 -9.24,22.5" style="fill:none;stroke:#E6E6E6;stroke-width:12.26;stroke-linecap:round;stroke-miterlimit:22.9256"/>
            <path d="M47.66 132.4c-11,-11.13 -17.16,-26.14 -17.16,-41.78 0,-32.83 26.61,-59.44 59.44,-59.44 32.83,0 59.44,26.61 59.44,59.44 0,15.64 -6.17,30.66 -17.16,41.78" style="fill:none;stroke:#E6E6E6;stroke-width:9.19;stroke-linecap:round;stroke-miterlimit:22.9256"/>
            <path d="M28.15 151.01c-16.07,-16.26 -25.09,-38.2 -25.09,-61.07 0,-47.98 38.9,-86.88 86.88,-86.88 47.98,0 86.88,38.9 86.88,86.88 0,22.87 -9.01,44.81 -25.09,61.07" style="fill:none;stroke:#E6E6E6;stroke-width:6.13;stroke-linecap:round;stroke-miterlimit:22.9256"/>
            <circle cx="89.94" cy="89.94" r="9.19" style="fill:#FF0066;stroke:#FF0066;stroke-width:12.26;stroke-miterlimit:22.9256"/>
        </g>
    </g>
</svg>
