<?xml version="1.0" encoding="UTF-8" standalone="no"?>
<svg
   version="1.0"
   width="949.75989pt"
   height="1279.9512pt"
   viewBox="0 0 949.75989 1279.9512"
   preserveAspectRatio="xMidYMid"
   id="svg1"
   sodipodi:docname="bird.svg"
   inkscape:version="1.3.2 (091e20ef0f, 2023-11-25, custom)"
   xmlns:inkscape="http://www.inkscape.org/namespaces/inkscape"
   xmlns:sodipodi="http://sodipodi.sourceforge.net/DTD/sodipodi-0.dtd"
   xmlns="http://www.w3.org/2000/svg"
   xmlns:svg="http://www.w3.org/2000/svg">
  <defs
     id="defs1" />
  <sodipodi:namedview
     id="namedview1"
     pagecolor="#ffffff"
     bordercolor="#000000"
     borderopacity="0.25"
     inkscape:showpageshadow="2"
     inkscape:pageopacity="0.0"
     inkscape:pagecheckerboard="0"
     inkscape:deskcolor="#d1d1d1"
     inkscape:document-units="pt"
     inkscape:zoom="0.4839262"
     inkscape:cx="197.34414"
     inkscape:cy="900.96382"
     inkscape:window-width="2560"
     inkscape:window-height="1372"
     inkscape:window-x="1080"
     inkscape:window-y="240"
     inkscape:window-maximized="1"
     inkscape:current-layer="svg1">
    <inkscape:page
       x="0"
       y="0"
       width="949.75989"
       height="1279.9512"
       id="page2"
       margin="0"
       bleed="0" />
  </sodipodi:namedview>
  <metadata
     id="metadata1">
Created by potrace 1.15, written by Peter Selinger 2001-2017
</metadata>
  <g
     transform="matrix(0.1,0,0,-0.1,0,1280.016)"
     fill="#000000"
     stroke="none"
     id="g1"
     style="fill:#ffc000;fill-opacity:0.25">
    <path
       d="m 4910,12774 c -46,-121 -80,-622 -100,-1474 -6,-250 -14,-556 -17,-680 l -6,-225 -28,210 c -97,719 -190,1244 -235,1313 -54,83 -68,-78 -114,-1238 -32,-807 -48,-1102 -76,-1430 -28,-325 -54,-457 -105,-522 -65,-81 -141,-279 -209,-543 -79,-305 -113,-532 -114,-745 -1,-153 0,-156 37,-270 105,-317 227,-937 229,-1165 1,-99 1,-101 -45,-195 -60,-125 -119,-322 -152,-505 -81,-457 -217,-783 -398,-952 -82,-77 -122,-95 -304,-143 -621,-162 -1197,-416 -1440,-635 -66,-59 -87,-95 -103,-175 -6,-35 -20,-83 -31,-105 -21,-45 -147,-191 -221,-255 -58,-51 -82,-101 -103,-215 -9,-49 -26,-128 -37,-174 -25,-108 -25,-178 0,-227 23,-45 86,-107 152,-151 44,-30 144,-83 155,-83 3,0 -4,18 -15,40 -45,89 -10,214 92,325 91,100 148,116 333,90 327,-44 765,-164 831,-226 26,-25 20,-58 -22,-123 -93,-143 -263,-306 -429,-413 -118,-77 -182,-137 -397,-376 -190,-210 -258,-270 -376,-332 -48,-25 -116,-70 -152,-101 C 1360,944 1260,883 1153,855 1121,846 1021,835 930,830 665,814 379,745 165,646 73,603 0,549 0,524 0,499 83,418 130,397 c 32,-15 78,-23 156,-28 135,-8 162,-20 202,-92 26,-46 41,-59 99,-89 C 734,111 972,73 1242,84 l 167,7 93,-31 c 185,-63 282,-72 460,-45 209,31 1059,220 1200,266 276,90 998,439 1091,526 16,15 65,82 110,148 130,193 203,248 395,299 184,49 263,102 437,296 142,158 197,199 325,241 184,61 436,208 718,419 68,51 128,88 132,84 5,-5 185,-254 400,-554 216,-300 396,-549 400,-553 11,-12 125,20 192,54 153,77 212,197 173,351 -9,37 -14,72 -10,78 4,6 65,10 158,10 166,0 217,9 253,45 26,26 31,76 16,145 -12,53 -1,83 38,103 31,16 52,18 180,13 80,-3 182,-9 227,-12 144,-11 169,11 111,99 -45,69 -49,81 -32,105 19,28 58,39 198,57 213,28 236,59 140,188 -49,66 -50,69 -29,87 17,14 49,16 240,10 108,-4 135,-1 161,13 57,30 57,51 -1,169 -77,157 -59,204 116,294 86,45 126,76 129,104 5,38 -5,55 -74,129 -40,44 -76,91 -80,106 -12,45 21,90 119,163 109,81 123,107 80,152 -16,17 -59,44 -94,61 -131,62 -180,112 -161,165 5,11 31,41 59,66 28,25 51,51 51,57 0,19 -49,24 -174,17 -253,-14 -840,-64 -1585,-136 -228,-22 -421,-40 -428,-40 -9,0 0,24 26,73 53,97 81,193 81,278 0,60 -5,77 -40,144 -22,42 -40,86 -40,98 0,14 29,50 85,104 130,124 142,177 78,336 -35,84 -38,100 -37,187 0,85 4,106 38,195 80,212 82,239 16,319 -56,67 -55,109 5,260 62,156 61,174 -15,247 -59,56 -60,59 -60,111 0,37 14,92 44,180 73,209 72,249 -4,333 -75,83 -76,114 -9,336 63,210 54,297 -40,381 -96,86 -102,186 -30,563 35,181 48,367 30,432 -15,55 -53,98 -112,128 -60,31 -93,85 -110,179 -15,87 -7,192 31,443 46,296 41,328 -46,328 -81,0 -98,40 -113,280 -11,164 -22,210 -52,218 -16,4 -19,14 -19,64 0,117 73,483 175,881 26,99 42,184 39,197 -9,37 -49,68 -77,61 -45,-11 -78,-48 -121,-139 -73,-151 -116,-274 -346,-987 -36,-113 -36,-118 19,285 87,633 123,994 125,1237 1,155 -1,179 -16,194 -16,17 -19,17 -38,-1 -69,-63 -212,-481 -389,-1140 -38,-143 -70,-251 -70,-240 -1,11 8,115 19,230 64,694 89,1337 59,1552 -45,327 -179,149 -288,-382 -57,-279 -129,-751 -168,-1098 -18,-167 -31,-182 -32,-37 -1,94 -25,542 -41,770 -38,527 -94,945 -143,1060 -9,20 -25,44 -36,54 -21,19 -22,19 -46,-4 -47,-44 -87,-192 -129,-470 -43,-281 -90,-770 -120,-1225 -7,-116 -15,-185 -18,-165 -4,19 -18,184 -33,365 -44,551 -100,1087 -146,1395 -43,287 -87,408 -119,324 z"
       id="path1"
       style="fill:#c3c3c3;fill-opacity:0.25" />
  </g>
</svg>
