<?xml version="1.0" encoding="UTF-8" standalone="no"?>
<!--Creator: CorelDRAW 2021.5-->
<svg xml:space="preserve" width="52.307098" height="51.947414" version="1.1" style="clip-rule:evenodd;fill-rule:evenodd;image-rendering:optimizeQuality;shape-rendering:geometricPrecision;text-rendering:geometricPrecision" viewBox="0 0 3.7968468 3.7912499" id="svg7" sodipodi:docname="indicator_icons.svg" xmlns:inkscape="http://www.inkscape.org/namespaces/inkscape" xmlns:sodipodi="http://sodipodi.sourceforge.net/DTD/sodipodi-0.dtd" xmlns="http://www.w3.org/2000/svg" xmlns:svg="http://www.w3.org/2000/svg">
    <sodipodi:namedview id="namedview7" pagecolor="#ffffff" bordercolor="#000000" borderopacity="0.25" inkscape:showpageshadow="2" inkscape:pageopacity="0.0" inkscape:pagecheckerboard="0" inkscape:deskcolor="#d1d1d1">
        <inkscape:page x="0" y="0" width="3.7968469" height="3.79125" id="page2" margin="0" bleed="0"/>
    </sodipodi:namedview>
    <defs id="defs1">
        <style type="text/css" id="style1">
            <![CDATA[.fil2{fill:#E9DEEC}.fil3{fill:#F2E3A9}.fil1{fill:#C0B7AB;fill-rule:nonzero}.fil4{fill:#AF9778;fill-rule:nonzero;fill-opacity:0.780392}]]>
        </style>
    </defs>
    <g id="Ebene_x0020_1" inkscape:label="Ebene 1" inkscape:groupmode="layer" transform="translate(-13.235745,-0.2825)">
        <metadata id="CorelCorpID_0Corel-Layer"/>
        <g id="_2529682122016">
            <g id="g1">
                <path d="m 13.2,0.29 c -0.01,0 -0.02,0.01 -0.02,0.04 0,0.01 -0.01,0.05 -0.01,0.08 -0.01,0.02 -0.01,0.08 0,0.09 0,0.01 0,0.03 0,0.04 0.01,0.05 0.03,0.07 0.07,0.14 0.01,0.02 0.03,0.05 0.04,0.07 0.01,0.02 0.01,0.02 0.01,0.05 0,0.03 0,0.04 0,0.05 0.01,0.01 0.01,0.02 0.01,0.03 0.01,0.02 0.04,0.08 0.06,0.11 0.02,0.03 0.05,0.08 0.05,0.1 0.01,0.01 0.01,0.04 0.01,0.06 0.01,0.06 0.02,0.09 0.03,0.1 0,0.01 0,0.02 0.01,0.02 0,0.02 0.02,0.04 0.05,0.07 0.06,0.05 0.08,0.07 0.12,0.13 0.05,0.05 0.06,0.07 0.07,0.1 0.01,0.03 0.02,0.06 0.04,0.07 0.01,0.01 0.04,0.02 0.09,0.05 0.04,0.01 0.04,0.02 0.08,0.03 0.1,0.05 0.12,0.06 0.2,0.14 0.02,0.03 0.05,0.06 0.06,0.07 0.02,0.01 0.03,0.02 0.04,0.04 0.01,0.01 0.02,0.03 0.02,0.04 0.01,0 0.01,0.01 0.01,0.01 0,0 -0.03,0.04 -0.06,0.08 -0.03,0.04 -0.07,0.08 -0.08,0.09 -0.01,0.03 -0.03,0.06 -0.03,0.07 0,0.02 -0.02,0.03 -0.08,0.07 -0.03,0.01 -0.06,0.03 -0.07,0.04 -0.03,0.02 -0.05,0.04 -0.11,0.07 -0.07,0.05 -0.13,0.09 -0.23,0.17 -0.01,0.01 -0.03,0.03 -0.04,0.04 -0.04,0.03 -0.07,0.07 -0.07,0.1 0,0.02 0.01,0.02 0.03,0.02 0.03,0 0.06,-0.01 0.14,-0.04 0.03,-0.01 0.07,-0.03 0.09,-0.04 0.01,0 0.04,-0.01 0.05,-0.02 0.01,0 0.02,0 0.02,0 0,0 -0.02,0.03 -0.05,0.06 -0.12,0.11 -0.18,0.2 -0.18,0.22 0.01,0.01 0.03,0.01 0.06,-0.01 0.01,-0.01 0.03,-0.01 0.03,-0.02 0.01,0 0.07,-0.05 0.13,-0.11 0.06,-0.06 0.1,-0.08 0.17,-0.13 0.03,-0.03 0.07,-0.05 0.09,-0.07 0.02,-0.01 0.03,-0.02 0.05,-0.03 0.01,0 0.03,-0.01 0.04,-0.02 0.04,-0.03 0.08,-0.04 0.09,-0.03 0,0.01 -0.01,0.03 -0.04,0.06 -0.01,0.02 -0.03,0.05 -0.03,0.06 -0.01,0.01 -0.03,0.05 -0.05,0.08 -0.04,0.08 -0.06,0.13 -0.07,0.15 -0.02,0.06 -0.03,0.07 -0.09,0.16 -0.05,0.07 -0.08,0.12 -0.12,0.19 -0.02,0.03 -0.07,0.12 -0.12,0.19 -0.06,0.07 -0.11,0.15 -0.13,0.18 -0.02,0.04 -0.02,0.05 -0.1,0.16 -0.08,0.11 -0.11,0.15 -0.14,0.22 -0.03,0.04 -0.03,0.06 -0.03,0.08 0.01,0.01 0.01,0.01 0.01,0.01 0.02,0.01 0.05,0 0.1,-0.03 0.03,-0.01 0.06,-0.02 0.07,-0.02 0,-0.01 0.02,-0.01 0.02,-0.01 0.01,-0.01 0.02,-0.01 0.05,0 0.02,0.01 0.03,0.01 0.04,0.01 0.02,-0.01 0.03,0 0.03,0 0.03,0.03 0.04,0.04 0.09,0.05 0.02,0 0.03,0 0.04,0 0.01,-0.01 0.01,-0.01 0.03,0 h 0.03 l 0.01,-0.01 c 0.02,-0.01 0.02,-0.01 0.05,0 0.02,0 0.02,0 0.03,-0.01 0.01,0 0.02,0 0.05,0 0.03,-0.01 0.04,-0.01 0.05,-0.01 0.04,-0.02 0.08,-0.09 0.13,-0.23 0.04,-0.09 0.11,-0.27 0.15,-0.39 0.01,-0.05 0.05,-0.16 0.06,-0.18 0.01,-0.02 0.03,-0.06 0.05,-0.1 0,-0.02 0.02,-0.06 0.02,-0.09 0.02,-0.07 0.03,-0.1 0.05,-0.12 0.01,0 0.03,-0.02 0.05,-0.03 0.04,-0.02 0.07,-0.04 0.12,-0.08 0.02,-0.02 0.05,-0.05 0.08,-0.06 0.02,-0.02 0.06,-0.05 0.09,-0.08 0.05,-0.03 0.09,-0.06 0.11,-0.07 0.02,-0.01 0.01,-0.01 0.11,0.05 0.02,0.01 0.08,0.04 0.12,0.06 l 0.08,0.05 0.05,0.01 c 0.11,0.01 0.11,0.02 0.15,0.04 0,0 0.02,0 0.04,0.01 0.02,0.01 0.05,0.01 0.07,0.02 0.01,0 0.04,0.01 0.05,0.01 0.06,0.01 0.12,0.02 0.15,0.05 0.05,0.02 0.09,0.04 0.14,0.04 0.04,0.01 0.06,0.01 0.08,0.03 0.02,0.02 0.03,0.02 0.05,0.03 0.02,0 0.04,0.01 0.06,0.02 0,0 0.03,0.02 0.06,0.05 0.02,0.02 0.06,0.05 0.07,0.07 0.02,0.01 0.05,0.03 0.07,0.05 0.1,0.09 0.18,0.12 0.22,0.07 L 16.5,3.26 16.49,3.25 C 16.48,3.25 16.47,3.23 16.45,3.22 16.44,3.21 16.42,3.2 16.41,3.19 16.39,3.18 16.35,3.14 16.34,3.12 16.31,3.08 16.23,2.99 16.21,2.97 16.2,2.97 16.19,2.96 16.19,2.96 16.18,2.96 16.15,2.94 16.12,2.92 16.05,2.85 15.98,2.82 15.89,2.8 15.86,2.8 15.85,2.79 15.83,2.78 15.8,2.76 15.75,2.74 15.71,2.73 15.69,2.72 15.68,2.72 15.68,2.72 c 0,-0.01 0,-0.01 0,-0.02 C 15.66,2.66 15.58,2.57 15.53,2.54 15.51,2.53 15.5,2.52 15.5,2.52 c 0,0 0.01,-0.01 0.03,-0.02 0.05,-0.02 0.07,-0.03 0.08,-0.04 0.01,0 0.04,-0.02 0.08,-0.04 0.03,-0.02 0.07,-0.04 0.08,-0.05 0.09,-0.06 0.27,-0.26 0.34,-0.36 0.05,-0.08 0.12,-0.2 0.14,-0.27 0.02,-0.05 0.04,-0.09 0.05,-0.13 0.01,-0.03 0.02,-0.13 0.03,-0.18 0.01,-0.08 0.03,-0.17 0.05,-0.22 0.02,-0.08 0.08,-0.16 0.16,-0.22 0.01,-0.01 0.04,-0.03 0.05,-0.04 0.05,-0.04 0.07,-0.04 0.13,-0.05 0.02,0 0.08,0 0.13,0 0.1,0 0.1,0 0.11,-0.01 0.01,-0.01 0.02,-0.01 0.02,-0.02 0,-0.02 -0.1,-0.06 -0.21,-0.09 C 16.73,0.77 16.72,0.77 16.69,0.75 16.66,0.73 16.64,0.71 16.62,0.68 16.57,0.61 16.49,0.53 16.4,0.47 16.36,0.43 16.28,0.41 16.21,0.39 c -0.04,0 -0.15,-0.01 -0.18,0 C 15.94,0.41 15.86,0.45 15.79,0.5 15.76,0.52 15.75,0.54 15.7,0.59 15.68,0.61 15.61,0.67 15.55,0.72 15.47,0.79 15.44,0.81 15.37,0.87 15.33,0.9 15.26,0.95 15.23,0.97 15.14,1.04 15.03,1.14 14.86,1.31 14.73,1.44 14.65,1.52 14.5,1.7 14.48,1.71 14.45,1.75 14.42,1.79 14.4,1.83 14.37,1.86 14.37,1.86 14.36,1.86 14.31,1.81 14.29,1.78 14.26,1.75 14.23,1.72 14.21,1.67 14.18,1.63 14.18,1.61 14.19,1.54 c 0,-0.05 0,-0.07 0.01,-0.09 0.02,-0.04 0.03,-0.1 0.04,-0.15 0.01,-0.02 0.01,-0.04 0.01,-0.05 0,0 0.01,-0.02 0.02,-0.03 0.01,-0.04 0.02,-0.07 0.03,-0.11 0.01,-0.04 0.01,-0.12 0,-0.15 C 14.29,0.93 14.27,0.9 14.25,0.87 14.23,0.85 14.18,0.8 14.18,0.8 c -0.01,0 -0.01,0.01 -0.02,0.02 l -0.01,0.01 0.01,0.02 c 0.01,0.01 0.01,0.03 0.02,0.05 0.01,0.04 0.01,0.04 0.01,0.12 0,0.07 0,0.08 -0.01,0.11 -0.02,0.12 -0.07,0.23 -0.15,0.34 -0.04,0.05 -0.04,0.06 -0.07,0.06 -0.01,0.01 -0.03,0.01 -0.05,0.01 -0.03,0 -0.03,0 -0.05,-0.01 C 13.84,1.52 13.82,1.5 13.79,1.46 13.78,1.44 13.72,1.37 13.69,1.35 13.64,1.31 13.61,1.25 13.61,1.17 13.6,1.12 13.59,1.09 13.56,1.05 13.53,1.02 13.5,0.97 13.49,0.92 13.48,0.9 13.41,0.76 13.35,0.65 13.32,0.6 13.3,0.56 13.3,0.55 13.29,0.54 13.28,0.49 13.27,0.45 13.27,0.4 13.27,0.4 13.25,0.34 13.23,0.32 13.22,0.29 13.22,0.29 13.21,0.28 13.21,0.28 13.2,0.29 Z" id="path1" style="fill:#F7AA47;fill-rule:nonzero;fill-opacity:0.349020"/>
            </g>
        </g>
        <path d="M 15.5,2.52 C 15.48,2.5 15.04,2.58 14.94,2.6 c -0.02,0 -0.02,0.01 -0.02,0.01 0.02,-0.01 0.01,-0.01 0.11,0.05 0.02,0.01 0.08,0.04 0.12,0.06 l 0.08,0.05 0.05,0.01 c 0.11,0.01 0.11,0.02 0.15,0.04 0,0 0.02,0 0.04,0.01 0.02,0.01 0.05,0.01 0.07,0.02 0.01,0 0.04,0.01 0.05,0.01 0.06,0.01 0.12,0.02 0.15,0.05 0.05,0.02 0.09,0.04 0.14,0.04 0.04,0.01 0.06,0.01 0.08,0.03 0.02,0.02 0.03,0.02 0.05,0.03 0.02,0 0.04,0.01 0.06,0.02 0,0 0.03,0.02 0.06,0.05 0.02,0.02 0.06,0.05 0.07,0.07 0.02,0.01 0.05,0.03 0.07,0.05 0.1,0.09 0.18,0.12 0.22,0.07 L 16.5,3.26 16.49,3.25 C 16.48,3.25 16.47,3.23 16.45,3.22 16.44,3.21 16.42,3.2 16.41,3.19 16.39,3.17 16.35,3.14 16.34,3.12 16.31,3.08 16.23,2.99 16.21,2.97 16.2,2.97 16.19,2.96 16.19,2.96 16.18,2.96 16.15,2.94 16.12,2.92 16.05,2.85 15.98,2.82 15.89,2.8 15.86,2.8 15.85,2.79 15.83,2.78 15.8,2.76 15.75,2.74 15.71,2.73 15.69,2.72 15.68,2.72 15.68,2.72 c 0,-0.01 0,-0.01 0,-0.02 C 15.66,2.66 15.58,2.57 15.53,2.54 15.51,2.53 15.5,2.52 15.5,2.52 Z M 14.24,2.02 C 14.3,1.93 14.37,1.86 14.37,1.86 14.36,1.86 14.31,1.81 14.29,1.78 14.26,1.75 14.23,1.72 14.21,1.67 14.18,1.63 14.18,1.61 14.19,1.53 c 0,-0.04 0,-0.06 0.01,-0.08 0.02,-0.04 0.03,-0.1 0.04,-0.15 0.01,-0.02 0.01,-0.04 0.01,-0.05 0,0 0.01,-0.02 0.02,-0.03 0.01,-0.04 0.02,-0.07 0.03,-0.11 0.01,-0.04 0.01,-0.12 0,-0.15 C 14.29,0.93 14.27,0.9 14.25,0.87 14.23,0.85 14.18,0.8 14.18,0.8 c -0.01,0 -0.01,0.01 -0.02,0.02 l -0.01,0.01 0.01,0.02 c 0.01,0.01 0.01,0.03 0.02,0.05 0.01,0.04 0.01,0.04 0.01,0.12 0,0.07 0,0.08 -0.01,0.11 -0.02,0.11 -0.07,0.23 -0.15,0.34 -0.04,0.05 -0.04,0.06 -0.07,0.06 -0.01,0.01 -0.03,0.01 -0.05,0.01 -0.03,0 -0.03,0 -0.05,-0.01 C 13.84,1.52 13.82,1.5 13.79,1.46 13.78,1.44 13.72,1.37 13.69,1.35 13.64,1.31 13.61,1.25 13.61,1.17 13.6,1.12 13.59,1.09 13.56,1.05 13.53,1.02 13.5,0.97 13.49,0.92 13.48,0.9 13.41,0.76 13.35,0.65 13.32,0.6 13.3,0.56 13.3,0.55 13.29,0.54 13.28,0.49 13.27,0.45 13.27,0.4 13.27,0.4 13.25,0.34 13.23,0.32 13.22,0.29 13.22,0.29 13.21,0.28 13.21,0.28 13.2,0.29 v 0 c -0.01,0 -0.02,0.01 -0.02,0.04 0,0.01 -0.01,0.05 -0.01,0.08 -0.01,0.02 -0.01,0.08 0,0.09 0,0.01 0,0.03 0,0.04 0.01,0.05 0.03,0.07 0.07,0.14 0.01,0.02 0.03,0.05 0.04,0.07 0.01,0.02 0.01,0.02 0.01,0.05 0,0.03 0,0.04 0,0.05 0.01,0.01 0.01,0.02 0.01,0.03 0.01,0.02 0.04,0.08 0.06,0.11 0.02,0.03 0.05,0.08 0.05,0.1 0.01,0.01 0.01,0.04 0.01,0.06 0.01,0.06 0.02,0.09 0.03,0.1 0,0.01 0,0.02 0.01,0.02 0,0.02 0.02,0.04 0.05,0.07 0.06,0.05 0.08,0.07 0.12,0.13 0.05,0.05 0.06,0.07 0.07,0.1 0.01,0.03 0.02,0.06 0.04,0.07 0.01,0.01 0.04,0.02 0.09,0.05 0.04,0.01 0.04,0.02 0.08,0.03 0.1,0.05 0.12,0.06 0.2,0.14 0.02,0.03 0.05,0.06 0.06,0.07 0.02,0.01 0.03,0.02 0.04,0.04 0.01,0.01 0.02,0.03 0.02,0.04 0.01,0 0.01,0.01 0.01,0.01 z" id="path7" style="fill:#61A375;fill-rule:nonzero;fill-opacity:0.349020"/>
    </g>
</svg>
