<?xml version="1.0" encoding="UTF-8"?>
<!DOCTYPE svg PUBLIC "-//W3C//DTD SVG 1.1//EN" "http://www.w3.org/Graphics/SVG/1.1/DTD/svg11.dtd">
<!--Creator: CorelDRAW-->
<svg xmlns="http://www.w3.org/2000/svg" xml:space="preserve" width="10.7056mm" height="10.0595mm" version="1.1" style="shape-rendering:geometricPrecision;text-rendering:geometricPrecision;image-rendering:optimizeQuality;fill-rule:evenodd;clip-rule:evenodd" viewBox="0 0 94.9 89.18" xmlns:xlink="http://www.w3.org/1999/xlink" xmlns:xodm="http://www.corel.com/coreldraw/odm/2003">
    <g id="Ebene_x0020_1">
        <metadata id="CorelCorpID_0Corel-Layer"/>
        <g id="_105553306888672">
            <line x1="47.45" y1="52.47" x2="10.92" y2="86.05" style="fill:none;stroke:#E6E6E6;stroke-width:6.26;stroke-linecap:round;stroke-miterlimit:22.9256"/>
            <line x1="47.45" y1="52.47" x2="83.99" y2="86.05" style="fill:none;stroke:#E6E6E6;stroke-width:6.26;stroke-linecap:round;stroke-miterlimit:22.9256"/>
            <polyline points="10.92,18.89 47.45,52.47 3.13,52.47 " style="fill:none;stroke:#E6E6E6;stroke-width:6.26;stroke-linecap:round;stroke-miterlimit:22.9256"/>
            <polyline points="83.99,18.89 47.45,52.47 91.78,52.47 " style="fill:none;stroke:#E6E6E6;stroke-width:6.26;stroke-linecap:round;stroke-miterlimit:22.9256"/>
            <path d="M47.45 18.8l18.81 0c0,-10.39 -8.42,-18.8 -18.81,-18.8 -10.39,0 -18.81,8.42 -18.81,18.8l18.81 0z" style="fill:#E6E6E6"/>
            <path d="M44.24 24.26l0 12.12c0,1.56 1.28,2.84 2.84,2.84l0.74 0c1.56,0 2.84,-1.28 2.84,-2.84l0 -12.12 21.64 0c2.44,0 4.43,2 4.43,4.43l0 22.7c0,16.11 -13.18,29.28 -29.28,29.28l0 0c-16.11,0 -29.28,-13.18 -29.28,-29.28l0 -22.7c0,-2.44 1.99,-4.43 4.43,-4.43l21.64 0z" style="fill:#CC3300"/>
        </g>
    </g>
</svg>
