<?xml version="1.0" encoding="UTF-8"?>
<!DOCTYPE svg PUBLIC "-//W3C//DTD SVG 1.1//EN" "http://www.w3.org/Graphics/SVG/1.1/DTD/svg11.dtd">
<!--Creator: CorelDRAW-->
<svg xmlns="http://www.w3.org/2000/svg" xml:space="preserve" width="11mm" height="6.233mm" version="1.1" style="shape-rendering:geometricPrecision;text-rendering:geometricPrecision;image-rendering:optimizeQuality;fill-rule:evenodd;clip-rule:evenodd" viewBox="0 0 204.45 115.85" xmlns:xlink="http://www.w3.org/1999/xlink" xmlns:xodm="http://www.corel.com/coreldraw/odm/2003">
    <g id="Ebene_x0020_1">
        <metadata id="CorelCorpID_0Corel-Layer"/>
        <g id="_105553250043392">
            <path d="M18.95 87.8l105.99 0c3.52,0 6.4,2.88 6.4,6.4l0 0c0,3.52 -2.88,6.4 -6.4,6.4l-105.99 0c-3.52,0 -6.4,-2.88 -6.4,-6.4l0 0c0,-3.52 2.88,-6.4 6.4,-6.4zm104.82 -62.8c-4.21,0 -7.62,-3.41 -7.62,-7.62 0,-4.21 3.41,-7.62 7.62,-7.62 4.21,0 7.62,3.41 7.62,7.62 0,4.21 -3.41,7.62 -7.62,7.62zm-111.95 -25l120.24 0c6.51,0 11.83,5.32 11.83,11.83l0 92.2c0,6.5 -5.32,11.83 -11.83,11.83l-120.24 0c-6.51,0 -11.83,-5.32 -11.83,-11.83l0 -92.2c0,-6.5 5.32,-11.83 11.83,-11.83z" style="fill:#E6E6E6"/>
            <path d="M158.24 77.67l43.85 26.29c1.12,0.67 2.36,-1.07 2.36,-2.36l0 -87.34c0,-1.3 -1.25,-3.03 -2.36,-2.36l-43.85 26.29c-1.11,0.67 -2.36,1.07 -2.36,2.36l0 34.76c0,1.3 1.25,1.7 2.36,2.36z" style="fill:#E6E6E6"/>
            <circle cx="123.78" cy="17.38" r="5.51" style="fill:#FF0066"/>
        </g>
    </g>
</svg>
