<?xml version="1.0" encoding="UTF-8"?>
<!DOCTYPE svg PUBLIC "-//W3C//DTD SVG 1.1//EN" "http://www.w3.org/Graphics/SVG/1.1/DTD/svg11.dtd">
<!--Creator: CorelDRAW-->
<svg xmlns="http://www.w3.org/2000/svg" xml:space="preserve" width="12mm" height="12mm" version="1.1" style="shape-rendering:geometricPrecision;text-rendering:geometricPrecision;image-rendering:optimizeQuality;fill-rule:evenodd;clip-rule:evenodd" viewBox="0 0 248.52 248.52" xmlns:xlink="http://www.w3.org/1999/xlink" xmlns:xodm="http://www.corel.com/coreldraw/odm/2003">
    <g id="Ebene_x0020_1">
        <metadata id="CorelCorpID_0Corel-Layer"/>
        <g id="_105553249354560">
            <path d="M117.66 135.69l46.22 26.68c6.29,3.63 14.4,1.46 18.03,-4.83l0 0c3.63,-6.29 1.45,-14.4 -4.83,-18.03l-39.62 -22.87 0 -77.05c0,-7.26 -5.94,-13.2 -13.2,-13.2l0 0c-7.26,0 -13.2,5.94 -13.2,13.2l0 84.67c0,4.72 2.52,9.07 6.6,11.43zm6.6 112.83c68.63,0 124.26,-55.63 124.26,-124.26 0,-68.63 -55.63,-124.26 -124.26,-124.26 -68.63,0 -124.26,55.63 -124.26,124.26 0,68.63 55.63,124.26 124.26,124.26z" style="fill:#E6E6E6"/>
            <circle cx="124.26" cy="124.26" r="4.82" style="fill:#E6E6E6"/>
        </g>
    </g>
</svg>
