<?xml version="1.0" encoding="UTF-8"?>
<!DOCTYPE svg PUBLIC "-//W3C//DTD SVG 1.1//EN" "http://www.w3.org/Graphics/SVG/1.1/DTD/svg11.dtd">
<!--Creator: CorelDRAW-->
<svg xmlns="http://www.w3.org/2000/svg" xml:space="preserve" width="5.0014mm" height="5.0014mm" version="1.1" style="shape-rendering:geometricPrecision;text-rendering:geometricPrecision;image-rendering:optimizeQuality;fill-rule:evenodd;clip-rule:evenodd" viewBox="0 0 22.2 22.2" xmlns:xlink="http://www.w3.org/1999/xlink" xmlns:xodm="http://www.corel.com/coreldraw/odm/2003">
    <g id="Ebene_x0020_1">
        <metadata id="CorelCorpID_0Corel-Layer"/>
        <path d="M3.25 18.95c-4.34,-4.34 -4.34,-11.36 -0,-15.7 4.33,-4.33 11.36,-4.33 15.7,0 4.34,4.34 4.34,11.36 0,15.7 -4.33,4.33 -11.36,4.33 -15.7,-0zm4.72 -7.85l-2.75 -2.75c-0.17,-0.17 -0.17,-0.46 -0,-0.63l2.49 -2.49c0.17,-0.17 0.46,-0.17 0.63,0l2.75 2.75 2.75 -2.75c0.17,-0.17 0.46,-0.17 0.63,0l2.49 2.49c0.17,0.17 0.17,0.46 0,0.63l-2.75 2.75 2.75 2.75c0.17,0.17 0.17,0.46 0,0.63l-2.49 2.49c-0.17,0.17 -0.46,0.17 -0.63,-0l-2.75 -2.75 -2.75 2.75c-0.17,0.17 -0.46,0.17 -0.63,0l-2.49 -2.49c-0.17,-0.17 -0.17,-0.46 -0,-0.63l2.75 -2.75z" style="fill:#CCCC33"/>
    </g>
</svg>
