<?xml version="1.0" encoding="UTF-8" standalone="no"?>
<!--Creator: CorelDRAW 2021.5-->
<svg xml:space="preserve" width="32.610596" height="56.214329" version="1.1" style="clip-rule:evenodd;fill-rule:evenodd;image-rendering:optimizeQuality;shape-rendering:geometricPrecision;text-rendering:geometricPrecision" viewBox="0 0 2.3671249 4.1026598" id="svg7" sodipodi:docname="indicator_icons.svg" xmlns:inkscape="http://www.inkscape.org/namespaces/inkscape" xmlns:sodipodi="http://sodipodi.sourceforge.net/DTD/sodipodi-0.dtd" xmlns="http://www.w3.org/2000/svg" xmlns:svg="http://www.w3.org/2000/svg">
    <sodipodi:namedview id="namedview7" pagecolor="#ffffff" bordercolor="#000000" borderopacity="0.25" inkscape:showpageshadow="2" inkscape:pageopacity="0.0" inkscape:pagecheckerboard="0" inkscape:deskcolor="#d1d1d1">
        <inkscape:page x="0" y="0" width="2.3671248" height="4.1026597" id="page2" margin="0" bleed="0"/>
    </sodipodi:namedview>
    <defs id="defs1">
        <style type="text/css" id="style1">
            <![CDATA[.fil2{fill:#E9DEEC}.fil3{fill:#F2E3A9}.fil1{fill:#C0B7AB;fill-rule:nonzero}.fil0{fill:#F7AA47;fill-rule:nonzero;fill-opacity:0.349020}.fil5{fill:#61A375;fill-rule:nonzero;fill-opacity:0.349020}]]>
        </style>
    </defs>
    <g id="Ebene_x0020_1" inkscape:label="Ebene 1" inkscape:groupmode="layer" transform="translate(-24.623245)">
        <metadata id="CorelCorpID_0Corel-Layer"/>
        <path d="m 24.88,0 c -0.01,0.02 -0.01,0.04 -0.01,0.06 0.01,0.02 0.03,0.15 0.03,0.16 0,0 -0.01,0.02 -0.03,0.03 C 24.84,0.29 24.84,0.29 24.82,0.26 24.81,0.25 24.8,0.23 24.8,0.22 24.79,0.2 24.78,0.18 24.77,0.17 24.76,0.15 24.76,0.14 24.75,0.11 24.74,0.08 24.74,0.08 24.72,0.06 24.71,0.05 24.71,0.05 24.7,0.05 c -0.02,0 -0.02,0 -0.02,0.03 -0.01,0.03 -0.01,0.03 0,0.03 0.01,0.01 0.01,0.02 0.01,0.04 0,0.03 0,0.04 0.01,0.05 0,0 0.01,0.01 0.01,0.02 0,0.03 0.01,0.05 0.02,0.06 0.01,0 0.01,0 0.01,0.02 0,0.01 0,0.03 0,0.03 0,0.01 0.01,0.02 0.03,0.05 0.01,0.02 0.02,0.04 0.02,0.05 0,0.02 0.01,0.02 0.02,0.03 0.01,0.01 0.01,0.01 0.01,0.03 0,0.02 0,0.03 0.01,0.03 0.01,0.01 0.02,0.02 0.02,0.04 0.01,0.02 0.01,0.03 0.02,0.03 0,0 0.01,0.01 0.01,0.02 0.01,0.02 0.02,0.03 0.02,0.03 0.01,0.01 0.01,0.01 0.01,0.03 0,0.01 0.01,0.02 0.02,0.04 0.01,0.01 0.01,0.02 0.01,0.05 0,0.03 0,0.03 -0.01,0.04 0,0 -0.01,0 -0.01,0 0,0 0,-0.01 0,-0.02 C 24.92,0.77 24.91,0.74 24.9,0.71 24.89,0.67 24.89,0.66 24.88,0.65 24.87,0.63 24.86,0.62 24.85,0.62 24.85,0.61 24.83,0.59 24.81,0.58 24.8,0.57 24.78,0.55 24.77,0.55 24.75,0.52 24.71,0.5 24.71,0.5 24.7,0.5 24.7,0.52 24.7,0.63 l -0.01,0.11 0.01,0.04 c 0.01,0.03 0.02,0.04 0.03,0.06 0.01,0.02 0.04,0.07 0.04,0.08 0,0.01 -0.02,0.04 -0.03,0.07 -0.03,0.05 -0.04,0.06 -0.07,0.12 -0.04,0.12 -0.09,0.31 -0.11,0.46 -0.01,0.09 -0.01,0.1 -0.01,0.16 0,0.07 0,0.12 0.01,0.18 0.01,0.04 0.02,0.16 0.01,0.17 0,0.01 0,0.03 -0.01,0.1 0,0.07 0,0.07 0,0.11 0.01,0.03 0.01,0.03 0.03,0.05 0,0.01 0.02,0.03 0.03,0.05 0.02,0.01 0.05,0.04 0.08,0.07 l 0.04,0.06 0.02,0.04 0.01,0.04 0.01,0.22 c 0,0.19 0,0.21 -0.01,0.22 0,0 0,0 0,0.02 0,0.01 0,0.04 -0.01,0.09 -0.02,0.1 -0.04,0.27 -0.05,0.37 -0.01,0.11 -0.03,0.2 -0.07,0.28 -0.01,0.02 -0.01,0.03 -0.02,0.05 v 0.02 h 0.04 c 0.03,0.01 0.04,0.01 0.06,0 0.04,0 0.05,-0.01 0.07,-0.05 0.02,-0.03 0.02,-0.03 0.03,-0.03 0,0 0.01,0 0.01,0 0.01,0 0.01,0 0.02,-0.02 0,-0.02 0,-0.04 -0.01,-0.08 V 3.63 l 0.01,-0.11 c 0.01,-0.1 0.01,-0.11 0.02,-0.16 0.01,-0.02 0.02,-0.07 0.02,-0.11 0.01,-0.03 0.01,-0.06 0.02,-0.06 0,-0.01 0.01,-0.03 0.02,-0.05 0.01,-0.01 0.03,-0.03 0.03,-0.04 0.01,-0.02 0.01,-0.02 0,-0.05 0,-0.07 0,-0.07 0.08,-0.33 0,-0.01 0.01,-0.02 0.02,-0.03 0,-0.01 0.01,-0.02 0.01,-0.03 0,-0.01 0,-0.02 0.01,-0.02 0.01,0.01 0.01,0 0.01,-0.02 V 2.61 h 0.01 c 0.03,0 0.03,-0.01 0.01,-0.04 0,-0.01 -0.01,-0.02 -0.01,-0.02 0,0 0.01,-0.01 0.01,-0.02 0.02,-0.02 0.02,-0.02 0.04,-0.01 0,0 0,0 0.01,0.05 0.01,0.08 0.01,0.17 0,0.25 -0.01,0.06 -0.01,0.07 -0.02,0.09 l -0.02,0.03 v 0.11 l 0.01,0.11 -0.02,0.06 c 0,0.02 -0.02,0.09 -0.03,0.15 -0.01,0.06 -0.03,0.13 -0.04,0.15 0,0.03 -0.01,0.05 -0.01,0.06 0,0.01 -0.01,0.03 -0.03,0.06 -0.02,0.02 -0.02,0.04 -0.02,0.05 0,0 -0.01,0.01 -0.01,0.01 0,0 0,0.01 0,0.03 v 0.02 h 0.02 c 0.01,0 0.04,0 0.06,0.01 h 0.05 l 0.01,-0.01 c 0.01,-0.01 0.02,-0.01 0.02,-0.03 0,-0.01 0.01,-0.02 0.01,-0.04 L 25.15,3.66 25.18,3.65 25.21,3.64 V 3.59 c -0.01,-0.07 0,-0.15 0.01,-0.24 0.01,-0.04 0.01,-0.09 0.02,-0.11 0,-0.02 0.01,-0.06 0.02,-0.11 C 25.27,3.07 25.28,3.06 25.3,3 L 25.33,2.95 V 2.9 c 0,-0.04 0,-0.04 0.03,-0.13 0.01,-0.04 0.03,-0.1 0.03,-0.11 0.01,-0.03 0.03,-0.07 0.03,-0.07 0,0 0.01,0 0.02,0 0.04,0.01 0.15,0 0.18,-0.01 0,0 0.02,-0.01 0.02,-0.01 h 0.02 v 0.02 c 0.01,0.01 0.01,0.04 0.02,0.06 l 0.01,0.04 0.06,0.09 c 0.04,0.05 0.07,0.1 0.08,0.11 0.01,0.01 0.04,0.05 0.07,0.08 0.02,0.03 0.04,0.06 0.05,0.06 0,0.01 0.02,0.03 0.04,0.06 0.03,0.05 0.03,0.05 0.04,0.08 0,0.02 0,0.03 0,0.05 0,0.01 0,0.02 -0.01,0.02 0,0 0,0.01 0,0.02 0,0 -0.02,0.03 -0.03,0.06 -0.02,0.04 -0.04,0.07 -0.05,0.1 0,0.03 -0.02,0.06 -0.02,0.09 -0.06,0.13 -0.12,0.29 -0.12,0.31 -0.01,0.03 -0.03,0.07 -0.08,0.17 -0.03,0.05 -0.04,0.07 -0.04,0.08 0,0.01 0,0.02 0,0.02 0,0.01 0,0.01 0.02,0.01 0.04,0.01 0.14,-0.01 0.16,-0.03 0.01,-0.01 0.01,-0.01 0.01,-0.02 0,-0.02 0,-0.07 0.01,-0.07 0.01,-0.01 0.01,-0.01 0.03,0 h 0.02 l 0.01,-0.01 c 0.01,-0.01 0.01,-0.01 0,-0.02 0,-0.03 0,-0.08 0.02,-0.12 0,-0.01 0,-0.03 0,-0.03 0,-0.01 0.01,-0.02 0.02,-0.04 C 25.99,3.74 26,3.72 26,3.71 26,3.7 26.01,3.7 26.01,3.69 c 0,0 0.01,-0.01 0.01,-0.03 0.01,-0.02 0.02,-0.04 0.04,-0.07 0.02,-0.02 0.03,-0.04 0.03,-0.05 0,-0.01 0.04,-0.07 0.07,-0.15 0.07,-0.13 0.11,-0.2 0.11,-0.22 0,0 -0.01,-0.03 -0.01,-0.06 C 26.25,3.06 26.25,3.04 26.23,2.98 26.21,2.95 26.2,2.91 26.2,2.91 26.19,2.9 26.17,2.86 26.16,2.82 26.13,2.76 26.12,2.73 26.12,2.69 L 26.11,2.64 26.13,2.59 c 0.01,-0.02 0.01,-0.04 0.02,-0.04 0,0 0.02,0.01 0.05,0.04 l 0.05,0.04 0.06,0.1 c 0.07,0.09 0.07,0.09 0.08,0.13 0,0.02 0.02,0.07 0.02,0.1 l 0.02,0.07 0.03,0.05 c 0.04,0.07 0.08,0.16 0.12,0.3 0.04,0.09 0.05,0.11 0.09,0.2 l 0.05,0.11 0.01,0.06 c 0,0.03 0.01,0.07 0.01,0.07 0.01,0 0.02,0.04 0.03,0.11 0,0.02 0,0.02 0.01,0.02 0,0.01 0.01,0.01 0.02,0 0.01,-0.01 0.02,-0.01 0.03,-0.01 0.02,0 0.06,-0.02 0.07,-0.04 0.01,0 0.02,-0.01 0.02,-0.03 0.01,-0.02 0.01,-0.02 0,-0.03 C 26.91,3.83 26.9,3.74 26.9,3.7 c 0,-0.03 0,-0.03 0.01,-0.03 0.01,-0.01 0.02,-0.01 0.02,-0.03 0,-0.01 0,-0.01 -0.01,-0.01 -0.01,0 -0.11,-0.11 -0.13,-0.15 0,0 -0.02,-0.05 -0.04,-0.11 C 26.72,3.31 26.7,3.25 26.68,3.19 L 26.65,3.1 V 3.03 L 26.64,2.96 26.62,2.9 C 26.6,2.85 26.59,2.82 26.57,2.78 26.54,2.73 26.54,2.72 26.53,2.67 26.51,2.61 26.5,2.56 26.5,2.52 c 0,-0.03 0,-0.03 0.01,-0.08 0.02,-0.04 0.03,-0.06 0.04,-0.08 0.01,-0.02 0.02,-0.04 0.03,-0.05 0,-0.01 0.02,-0.04 0.03,-0.06 0.02,-0.03 0.03,-0.05 0.06,-0.11 L 26.7,2.06 V 2 c 0,-0.07 0,-0.07 0,-0.1 C 26.69,1.86 26.67,1.8 26.65,1.76 26.63,1.72 26.63,1.72 26.6,1.68 L 26.57,1.64 26.51,1.61 C 26.48,1.6 26.44,1.57 26.43,1.56 26.41,1.55 26.39,1.54 26.39,1.54 c -0.01,0 -0.03,0 -0.05,-0.01 C 26.32,1.52 26.3,1.51 26.29,1.51 26.28,1.5 26.26,1.5 26.24,1.49 26.2,1.47 26.16,1.46 26.12,1.46 26.1,1.46 26.07,1.45 26.06,1.45 26.02,1.44 26,1.44 25.97,1.44 c -0.02,0 -0.05,0.01 -0.07,0.01 -0.04,0 -0.05,0 -0.11,-0.01 -0.06,-0.01 -0.07,-0.01 -0.16,-0.01 -0.1,0.01 -0.25,0.01 -0.34,0.02 -0.02,0.01 -0.06,0.01 -0.07,0.01 -0.01,0 -0.04,0 -0.05,0 -0.02,0.01 -0.04,0.01 -0.05,0.01 -0.02,0 -0.03,0 -0.03,0.01 -0.01,0 -0.01,0 -0.02,0 -0.02,-0.01 -0.02,-0.01 -0.01,-0.08 0,-0.03 0.01,-0.05 0.01,-0.05 0,0 0,0 0,0 0.01,0.01 0.02,0.01 0.07,0.01 l 0.05,0.01 0.06,-0.03 c 0.03,-0.01 0.06,-0.02 0.06,-0.02 0.01,0 0.02,0 0.02,0 0,0 0,0 0.05,-0.01 0.03,0 0.04,0 0.05,0.01 0.01,0 0.03,0 0.04,0 0.03,0 0.03,0 0.05,-0.01 C 25.53,1.3 25.54,1.29 25.56,1.26 25.57,1.23 25.58,1.2 25.59,1.19 V 1.17 L 25.58,1.15 C 25.57,1.13 25.57,1.13 25.55,1.12 25.54,1.11 25.51,1.1 25.49,1.08 25.45,1.06 25.44,1.05 25.41,1 25.35,0.95 25.3,0.9 25.29,0.89 c 0,0 -0.01,-0.01 -0.02,-0.02 -0.01,-0.02 -0.02,-0.02 -0.03,-0.02 0,0 -0.01,-0.01 -0.02,-0.02 -0.01,0 -0.03,-0.02 -0.04,-0.02 C 25.15,0.8 25.15,0.79 25.15,0.78 25.14,0.78 25.14,0.77 25.13,0.76 25.12,0.75 25.12,0.74 25.12,0.73 c 0,0 0,-0.01 -0.01,-0.02 -0.01,-0.02 -0.01,-0.02 0,-0.02 0.01,0 0.02,-0.01 0.04,-0.04 0.02,-0.03 0.02,-0.04 0.04,-0.09 0.02,-0.04 0.02,-0.06 0.03,-0.1 0.02,-0.06 0.02,-0.06 -0.01,-0.06 -0.03,-0.01 -0.03,0 -0.06,0.05 -0.01,0.02 -0.02,0.04 -0.02,0.04 0,0 0,-0.02 0,-0.05 V 0.4 h -0.02 c -0.01,0 -0.01,0 -0.02,0.02 -0.01,0.01 -0.02,0.02 -0.02,0.02 0,0 0,-0.02 0,-0.04 0,-0.04 0,-0.04 0,-0.05 0.01,-0.01 0.01,-0.01 0.01,-0.02 0,0 0.01,-0.02 0.02,-0.04 0.02,-0.02 0.03,-0.04 0.03,-0.06 0.01,-0.04 0.02,-0.04 0.01,-0.07 0,-0.01 -0.01,-0.02 -0.02,-0.03 -0.01,-0.02 -0.01,-0.02 -0.02,-0.01 0,0 -0.01,0.01 -0.01,0.02 -0.01,0.03 -0.04,0.07 -0.05,0.07 0,0 0,0.01 -0.01,0.02 0,0.02 -0.02,0.04 -0.02,0.03 C 25,0.26 24.98,0.2 24.98,0.19 24.99,0.19 24.97,0.12 24.94,0.07 24.93,0.04 24.92,0.01 24.91,0.01 24.91,0 24.9,0 24.9,0 Z m 0.06,0.39 c 0,0 0,0.01 0.01,0.02 0,0 0,0.01 0,0.02 0.01,0.02 0.01,0.02 0.02,0.03 0,0 0,0 0,0.01 0,0.01 0,0.02 0.01,0.03 0.01,0.01 0.01,0.02 0.02,0.04 0,0.02 0,0.03 0.01,0.03 0.01,0.01 0.01,0.01 -0.01,0.02 -0.01,0.01 -0.02,0.01 -0.02,0 0,-0.01 0,-0.01 0,-0.01 0,0 0,-0.01 0,-0.01 0,-0.01 0,-0.01 -0.01,-0.02 -0.01,-0.01 -0.01,-0.01 -0.01,-0.03 0,-0.02 0,-0.02 0,-0.03 -0.01,0 -0.01,-0.02 -0.02,-0.03 0,-0.02 -0.01,-0.05 -0.02,-0.06 0,-0.02 -0.01,-0.04 0,-0.04 V 0.34 l 0.01,0.02 c 0,0 0.01,0.01 0.01,0.03 z" id="path6" style="fill:#AF9778;fill-rule:nonzero;fill-opacity:0.780392"/>
    </g>
</svg>
