<?xml version="1.0" encoding="UTF-8"?>
<!DOCTYPE svg PUBLIC "-//W3C//DTD SVG 1.1//EN" "http://www.w3.org/Graphics/SVG/1.1/DTD/svg11.dtd">
<!--Creator: CorelDRAW-->
<svg xmlns="http://www.w3.org/2000/svg" xml:space="preserve" width="10.3021mm" height="10.8914mm" version="1.1" style="shape-rendering:geometricPrecision;text-rendering:geometricPrecision;image-rendering:optimizeQuality;fill-rule:evenodd;clip-rule:evenodd" viewBox="0 0 178 188.18" xmlns:xlink="http://www.w3.org/1999/xlink" xmlns:xodm="http://www.corel.com/coreldraw/odm/2003">
    <g id="Ebene_x0020_1">
        <metadata id="CorelCorpID_0Corel-Layer"/>
        <g id="_105553248941696">
            <rect transform="matrix(0.221619 -1.246E-001 0.221619 0.1246 0.000333954 93.2335)" width="401.59" height="401.59" style="fill:#E6E6E6"/>
            <polygon points="89,165.73 178,115.69 163.48,107.52 89,149.4 14.52,107.52 -0,115.69 " style="fill:#E6E6E6"/>
            <polygon points="89,188.18 178,138.14 163.48,129.98 89,171.85 14.52,129.98 -0,138.14 " style="fill:#E6E6E6"/>
        </g>
        <g id="_105553248940928">
            <circle cx="89" cy="43.19" r="30.78" style="fill:white"/>
            <path d="M89 86.39c-23.87,0 -43.22,-19.34 -43.22,-43.19 0,-23.86 19.35,-43.19 43.22,-43.19 23.87,0 43.22,19.34 43.22,43.19 0,23.86 -19.35,43.19 -43.22,43.19zm-23.76 -51.8l47.52 0c0.96,0 1.75,0.78 1.75,1.75l0 13.72c0,0.96 -0.78,1.74 -1.75,1.74l-47.52 0c-0.96,0 -1.75,-0.78 -1.75,-1.74l0 -13.72c0,-0.96 0.78,-1.75 1.75,-1.75z" style="fill:#CC3300"/>
        </g>
    </g>
</svg>
