<?xml version="1.0" encoding="UTF-8" standalone="no"?>
<svg
   version="1.0"
   width="1280.000000pt"
   height="1136.000000pt"
   viewBox="0 0 1280.000000 1136.000000"
   preserveAspectRatio="xMidYMid meet"
   id="svg1"
   sodipodi:docname="dolphin.svg"
   inkscape:version="1.3.2 (091e20ef0f, 2023-11-25, custom)"
   xmlns:inkscape="http://www.inkscape.org/namespaces/inkscape"
   xmlns:sodipodi="http://sodipodi.sourceforge.net/DTD/sodipodi-0.dtd"
   xmlns="http://www.w3.org/2000/svg"
   xmlns:svg="http://www.w3.org/2000/svg">
  <defs
     id="defs1" />
  <sodipodi:namedview
     id="namedview1"
     pagecolor="#ffffff"
     bordercolor="#000000"
     borderopacity="0.25"
     inkscape:showpageshadow="2"
     inkscape:pageopacity="0.0"
     inkscape:pagecheckerboard="0"
     inkscape:deskcolor="#d1d1d1"
     inkscape:document-units="pt"
     inkscape:zoom="0.27263448"
     inkscape:cx="819.77892"
     inkscape:cy="572.19468"
     inkscape:window-width="2560"
     inkscape:window-height="1372"
     inkscape:window-x="1080"
     inkscape:window-y="240"
     inkscape:window-maximized="1"
     inkscape:current-layer="svg1" />
  <metadata
     id="metadata1">
Created by potrace 1.15, written by Peter Selinger 2001-2017
</metadata>
  <g
     transform="translate(0.000000,1136.000000) scale(0.100000,-0.100000)"
     fill="#000000"
     stroke="none"
     id="g1"
     style="fill:#9bbaff;fill-opacity:0.25">
    <path
       d="M2775 11350 c-866 -47 -1495 -215 -1894 -507 -99 -73 -234 -210 -294 -301 -63 -94 -113 -202 -139 -305 -30 -113 -32 -353 -4 -476 17 -74 18 -84 4 -92 -53 -30 -269 -192 -313 -235 -63 -62 -72 -84 -51 -124 14 -29 13 -30 -9 -36 -13 -3 -34 -17 -47 -31 -20 -21 -23 -34 -22 -96 2 -194 130 -298 414 -336 41 -6 185 -19 320 -31 591 -50 827 -87 1080 -170 164 -54 410 -182 410 -213 0 -7 -18 -54 -40 -105 -120 -278 -176 -593 -159 -902 25 -454 240 -861 616 -1168 125 -102 425 -284 441 -267 4 3 10 133 13 288 7 305 19 409 68 598 64 244 162 427 314 586 l79 82 -66 108 c-63 105 -132 250 -123 259 3 3 49 -24 103 -59 450 -290 1419 -794 2364 -1229 229 -105 314 -150 840 -438 738 -405 992 -538 1258 -656 224 -100 302 -148 452 -279 149 -129 297 -315 462 -578 45 -73 141 -220 214 -327 356 -528 676 -1114 914 -1675 44 -103 143 -376 138 -380 -2 -1 -52 -12 -112 -24 -646 -129 -1399 -831 -1645 -1534 -57 -164 -84 -349 -62 -439 l6 -27 125 76 c249 151 420 228 584 265 109 24 229 21 546 -13 304 -34 567 -32 910 6 594 66 1130 26 1511 -111 164 -59 239 -100 661 -363 81 -50 150 -91 154 -91 15 0 -7 303 -31 446 -33 188 -58 286 -100 391 -137 340 -554 792 -973 1056 -53 33 -178 103 -277 155 -262 137 -330 180 -399 248 -68 67 -112 146 -126 227 -5 28 -14 126 -20 217 -71 1088 -255 2117 -547 3050 -25 80 -49 160 -55 178 -24 82 -153 435 -226 617 -349 873 -772 1581 -1339 2241 -175 203 -258 320 -328 459 -91 180 -115 320 -76 444 31 99 103 180 209 231 34 17 62 37 62 43 0 16 -70 136 -124 211 -61 86 -181 196 -248 228 -105 52 -173 62 -388 62 -214 -1 -370 -16 -722 -69 l-227 -35 -173 92 c-886 468 -1887 754 -2944 843 -218 19 -751 27 -969 15z"
       id="path1"
       style="fill:#9bbaff;fill-opacity:0.25" />
  </g>
</svg>
