<?xml version="1.0" encoding="UTF-8"?>
<!DOCTYPE svg PUBLIC "-//W3C//DTD SVG 1.1//EN" "http://www.w3.org/Graphics/SVG/1.1/DTD/svg11.dtd">
<!-- Creator: CorelDRAW 2021.5 -->
<svg xmlns="http://www.w3.org/2000/svg" xml:space="preserve" width="3.525mm" height="3.2314mm" version="1.1" style="shape-rendering:geometricPrecision; text-rendering:geometricPrecision; image-rendering:optimizeQuality; fill-rule:evenodd; clip-rule:evenodd"
viewBox="0 0 7.97 7.3"
 xmlns:xlink="http://www.w3.org/1999/xlink"
 xmlns:xodm="http://www.corel.com/coreldraw/odm/2003">
 <defs>
  <style type="text/css">
   <![CDATA[
    .fil2 {fill:#C79F75;fill-rule:nonzero}
    .fil0 {fill:#C7A57E;fill-rule:nonzero}
    .fil3 {fill:#C8B79F;fill-rule:nonzero}
    .fil1 {fill:#E69784;fill-rule:nonzero}
   ]]>
  </style>
 </defs>
 <g id="Ebene_x0020_1">
  <metadata id="CorelCorpID_0Corel-Layer"/>
  <g id="_2622874097120">
   <path class="fil0" d="M7.64 0.99c-0.09,0 -0.16,-0.07 -0.16,-0.16l0 -0.16c0,-0.09 0.07,-0.16 0.16,-0.16 0.09,0 0.16,0.07 0.16,0.16l0 0.16c0,0.09 -0.07,0.16 -0.16,0.16z"/>
   <path class="fil1" d="M4.48 7.3c-0.09,0 -0.16,-0.07 -0.16,-0.16l0 -0.66c0,-0.09 0.07,-0.16 0.16,-0.16 0.09,0 0.16,0.07 0.16,0.16l0 0.66c0,0.09 -0.07,0.16 -0.16,0.16z"/>
   <path class="fil1" d="M5.15 7.3l-1 0c-0.09,0 -0.16,-0.07 -0.16,-0.16 0,-0.09 0.07,-0.16 0.16,-0.16l1 0c0.09,0 0.16,0.07 0.16,0.16 0,0.09 -0.07,0.16 -0.16,0.16z"/>
   <path class="fil1" d="M7.8 0.99l-0.71 0c-0.09,0 -0.16,-0.07 -0.16,-0.16 0,-0.09 0.07,-0.16 0.16,-0.16l0.71 0c0.09,0 0.16,0.07 0.16,0.16 0,0.09 -0.07,0.16 -0.16,0.16z"/>
   <path class="fil2" d="M4.48 4.65c-0.37,0 -0.66,0.3 -0.66,0.66 0,0.17 0.06,0.48 0.16,0.74 0.14,0.39 0.31,0.59 0.51,0.59 0.2,0 0.37,-0.19 0.51,-0.59 0.09,-0.26 0.16,-0.57 0.16,-0.74 0,-0.37 -0.3,-0.66 -0.66,-0.66z"/>
   <g>
    <path class="fil3" d="M7.44 0.59c0.03,-0.05 0.04,-0.1 0.02,-0.15 -0.01,-0.02 -0.18,-0.43 -0.73,-0.43 -0.06,0 -0.13,0.01 -0.19,0.02 -0.4,0.06 -0.65,0.58 -0.93,1.17 -0.22,0.45 -0.44,0.92 -0.73,1.17 -0.18,0.16 -0.73,0.5 -2.29,1.2 -0.94,0.42 -1.81,0.77 -1.82,0.77 -0.06,0.03 -0.11,0.09 -0.1,0.16 0,0.07 0.05,0.13 0.11,0.15 1.5,0.56 2.77,0.84 3.77,0.84l0 0c1.05,0 1.83,-0.31 2.31,-0.91 0.62,-0.77 0.77,-2.02 0.41,-3.71l0.18 -0.27 -0 0z"/>
    <path class="fil3" d="M3.86 5.11l-2.32 -0.55c-0.04,-0.01 -0.08,-0 -0.12,0.02l-1.33 0.76c-0.07,0.04 -0.1,0.12 -0.08,0.19 0.02,0.07 0.09,0.12 0.16,0.12 0,0 0.01,0 0.01,0l3.65 -0.21c0.08,-0 0.15,-0.07 0.16,-0.15 0.01,-0.08 -0.05,-0.16 -0.13,-0.17l0 0z"/>
   </g>
   <path class="fil0" d="M7.35 3.38c-0.35,-0.94 -1.02,-1.13 -1.51,-1.13 -0.65,0 -1.25,0.33 -1.41,0.42 -0.01,0 -0.02,0.01 -0.04,0.02 -1.16,0.66 -3.61,1.65 -3.63,1.65 -0.06,0.03 -0.11,0.09 -0.1,0.16 0,0.07 0.05,0.13 0.11,0.15 1.5,0.56 2.77,0.84 3.77,0.84 0,0 0,0 0,0 0.79,0 1.43,-0.17 1.9,-0.52 0.46,-0.34 0.77,-0.84 0.92,-1.49 0.01,-0.03 0,-0.06 -0.01,-0.09l0 0z"/>
   <path class="fil2" d="M6.81 0.66c0,0.09 -0.07,0.16 -0.16,0.16 -0.09,0 -0.16,-0.07 -0.16,-0.16 0,-0.09 0.07,-0.16 0.16,-0.16 0.09,0 0.16,0.07 0.16,0.16z"/>
  </g>
 </g>
</svg>
