<?xml version="1.0" encoding="UTF-8" standalone="no"?>
<!--Creator: CorelDRAW-->

<svg
   xml:space="preserve"
   width="5mm"
   height="5mm"
   version="1.1"
   style="shape-rendering:geometricPrecision;text-rendering:geometricPrecision;image-rendering:optimizeQuality;fill-rule:evenodd;clip-rule:evenodd"
   viewBox="0 0 51.76 51.76"
   id="svg1"
   sodipodi:docname="energy_wind.svg"
   inkscape:version="1.4.2 (ebf0e940d0, 2025-05-08)"
   xmlns:inkscape="http://www.inkscape.org/namespaces/inkscape"
   xmlns:sodipodi="http://sodipodi.sourceforge.net/DTD/sodipodi-0.dtd"
   xmlns="http://www.w3.org/2000/svg"
   xmlns:svg="http://www.w3.org/2000/svg"><defs
   id="defs1" /><sodipodi:namedview
   id="namedview1"
   pagecolor="#ffffff"
   bordercolor="#000000"
   borderopacity="0.25"
   inkscape:showpageshadow="2"
   inkscape:pageopacity="0.0"
   inkscape:pagecheckerboard="0"
   inkscape:deskcolor="#d1d1d1"
   inkscape:document-units="mm"
   inkscape:zoom="11.313709"
   inkscape:cx="23.422912"
   inkscape:cy="20.815456"
   inkscape:window-width="1912"
   inkscape:window-height="1217"
   inkscape:window-x="2560"
   inkscape:window-y="0"
   inkscape:window-maximized="0"
   inkscape:current-layer="Ebene_x0020_1-3"
   showgrid="true"><inkscape:grid
     id="grid3"
     units="mm"
     originx="0"
     originy="0"
     spacingx="2.7389666"
     spacingy="2.7389666"
     empcolor="#0099e5"
     empopacity="0.30196078"
     color="#0099e5"
     opacity="0.14902"
     empspacing="5"
     enabled="true"
     visible="true" /></sodipodi:namedview>
    <g
   id="Ebene_x0020_1"
   inkscape:label="Ebene 1">
        <metadata
   id="CorelCorpID_0Corel-Layer" />
        <circle
   cx="25.879999"
   cy="25.879999"
   r="25.879999"
   style="fill:#e6e6e6"
   id="circle1" />
    <g
   style="clip-rule:evenodd;fill:#e6e6e6;fill-opacity:1;fill-rule:evenodd;stroke:#000000;stroke-width:7.69027;stroke-dasharray:none;stroke-opacity:0.17;image-rendering:optimizeQuality;shape-rendering:geometricPrecision;text-rendering:geometricPrecision"
   id="g1"
   transform="matrix(0.20191743,0,0,0.20191743,8.1334764,11.391004)"><g
     id="Ebene_x0020_1-3"
     style="fill:#e6e6e6;fill-opacity:1;stroke:#000000;stroke-width:7.69027;stroke-dasharray:none;stroke-opacity:0.17">
        <metadata
   id="CorelCorpID_0Corel-Layer-6" />
        
    <g
   id="g2"
   transform="matrix(0.80806576,0,0,0.80806576,-258.04817,-50.286748)"><path
     style="fill:none;stroke:#c0c0c0;stroke-width:5.12685;stroke-linecap:round;stroke-linejoin:round;stroke-dasharray:none;stroke-opacity:1"
     d="m 312.40323,79.233681 h 54.25913 c 0,0 13.56479,0 13.56479,-13.56478 0,-13.564786 -13.56479,-13.564786 -13.56479,-13.564786 0,0 -13.56478,0 -13.56478,13.564786"
     id="path1"
     sodipodi:nodetypes="ccscc"
     transform="translate(6.9105659e-6)" /><path
     style="clip-rule:evenodd;fill:none;fill-opacity:1;fill-rule:evenodd;stroke:#c0c0c0;stroke-width:5.12685;stroke-linecap:round;stroke-linejoin:round;stroke-dasharray:none;stroke-opacity:1;image-rendering:optimizeQuality;shape-rendering:geometricPrecision;text-rendering:geometricPrecision"
     d="M 298.83845,92.798476 H 417.4826 c 0,0 23.72884,0 23.72884,-23.728819 0,-23.728835 -23.72884,-23.728835 -23.72884,-23.728835 0,0 -23.72882,0 -23.72882,23.728835"
     id="path1-3" /><path
     style="clip-rule:evenodd;fill:none;fill-opacity:1;fill-rule:evenodd;stroke:#c0c0c0;stroke-width:5.12685;stroke-linecap:round;stroke-linejoin:round;stroke-dasharray:none;stroke-opacity:1;image-rendering:optimizeQuality;shape-rendering:geometricPrecision;text-rendering:geometricPrecision"
     d="m 325.96802,106.36326 81.38871,-1e-5 c 0,0 16.27775,-10e-6 16.27775,16.27772 0,16.27775 -16.27775,16.27775 -16.27775,16.27775 0,0 -16.27773,0 -16.27773,-16.27774"
     id="path1-3-1" /><path
     style="clip-rule:evenodd;fill:none;fill-opacity:1;fill-rule:evenodd;stroke:#c0c0c0;stroke-width:5.12685;stroke-linecap:round;stroke-linejoin:round;stroke-dasharray:none;stroke-opacity:1;image-rendering:optimizeQuality;shape-rendering:geometricPrecision;text-rendering:geometricPrecision"
     d="m 325.96802,119.92805 28.34745,-1e-5 c 0,0 11.33899,0 11.33899,11.33897 0,11.33899 -11.33899,11.33899 -11.33899,11.33899 0,0 -11.33897,0 -11.33897,-11.33898"
     id="path1-3-1-3"
     sodipodi:nodetypes="ccscc" /></g><g
   id="g4"
   transform="matrix(0.20393801,0,0,0.20393801,159.75804,37.691098)"><path
     style="fill:#c0c0c0;fill-opacity:1;stroke:#c0c0c0;stroke-width:5.12685;stroke-linecap:round;stroke-linejoin:round;stroke-dasharray:none;stroke-opacity:1"
     d="m -182.71145,669.30188 13.56479,-501.89708 c 13.5648,13.5648 27.12957,13.5648 40.69435,2e-5 0,0 10.56222,425.17941 13.56478,501.89707 0,0 -33.11329,-10e-6 -67.82392,-10e-6 z"
     id="path2"
     sodipodi:nodetypes="ccscc" /><circle
     style="fill:#c0c0c0;fill-opacity:1;stroke:#c0c0c0;stroke-width:6.63578;stroke-linecap:round;stroke-linejoin:round;stroke-dasharray:none;stroke-opacity:1"
     id="path3"
     cx="-148.79951"
     cy="131.69708"
     r="29.82674" /><path
     style="fill:#c0c0c0;fill-opacity:1;stroke:#c0c0c0;stroke-width:4.34678;stroke-linecap:round;stroke-linejoin:round;stroke-dasharray:none;stroke-opacity:1"
     d="m -196.27624,126.71046 c 0,0 -197.1806,73.36204 -223.45649,104.70804 -27.4215,31.1057 165.15995,-33.28766 193.98195,-42.97219 26.85171,-8.96379 60.73132,-16.73465 39.21056,-30.81318 -12.60419,-8.24549 -9.73602,-30.92267 -9.73602,-30.92267 z"
     id="path4"
     sodipodi:nodetypes="cccsc" /><path
     style="clip-rule:evenodd;fill:#c0c0c0;fill-opacity:1;fill-rule:evenodd;stroke:#c0c0c0;stroke-width:4.34678;stroke-linecap:round;stroke-linejoin:round;stroke-dasharray:none;stroke-opacity:1;image-rendering:optimizeQuality;shape-rendering:geometricPrecision;text-rendering:geometricPrecision"
     d="m -101.32274,126.71046 c 0,0 197.180596,73.36204 223.45649,104.70804 27.4215,31.1057 -165.159954,-33.28766 -193.981954,-42.97219 -26.85171,-8.96379 -60.731316,-16.73465 -39.210556,-30.81318 12.604186,-8.24549 9.73602,-30.92267 9.73602,-30.92267 z"
     id="path4-7"
     sodipodi:nodetypes="cccsc" /><path
     style="clip-rule:evenodd;fill:#c0c0c0;fill-opacity:1;fill-rule:evenodd;stroke:#c0c0c0;stroke-width:4.34678;stroke-linecap:round;stroke-linejoin:round;stroke-dasharray:none;stroke-opacity:1;image-rendering:optimizeQuality;shape-rendering:geometricPrecision;text-rendering:geometricPrecision"
     d="m -128.45231,86.016097 c 0,0 2.95042,-210.365087 -16.76499,-246.202167 -19.07691,-36.81813 -28.72436,166.0144069 -30.12409,196.387737 -1.35876,28.27574 -6.37241,62.67163 14.53878,47.70266 12.24721,-8.76695 32.3503,2.11177 32.3503,2.11177 z"
     id="path4-9"
     sodipodi:nodetypes="cccsc" /></g></g></g></g>
<style
   type="text/css"
   id="style1">.st0{fill-rule:evenodd;clip-rule:evenodd;}</style></svg>
