<?xml version="1.0" encoding="UTF-8"?>
<!DOCTYPE svg PUBLIC "-//W3C//DTD SVG 1.1//EN" "http://www.w3.org/Graphics/SVG/1.1/DTD/svg11.dtd">
<!--Creator: CorelDRAW-->
<svg xmlns="http://www.w3.org/2000/svg" xml:space="preserve" width="12mm" height="6.3674mm" version="1.1" style="shape-rendering:geometricPrecision;text-rendering:geometricPrecision;image-rendering:optimizeQuality;fill-rule:evenodd;clip-rule:evenodd" viewBox="0 0 79.1 41.97" xmlns:xlink="http://www.w3.org/1999/xlink" xmlns:xodm="http://www.corel.com/coreldraw/odm/2003">
    <g id="Ebene_x0020_1">
        <metadata id="CorelCorpID_0Corel-Layer"/>
        <g id="Eye">
            <path d="M79.1 18.94c-10.79,-12.18 -24.9,-18.94 -39.55,-18.94 -14.65,0 -28.76,6.76 -39.55,18.93l0 4.11c10.79,12.17 24.9,18.93 39.54,18.93 14.65,0 28.76,-6.75 39.55,-18.92l0 -4.11zm-39.55 17.93c8.77,0 15.88,-7.11 15.88,-15.88 0,-8.77 -7.11,-15.88 -15.88,-15.88 -8.77,0 -15.88,7.11 -15.88,15.88 0,8.77 7.11,15.88 15.88,15.88z" style="fill:#E6E6E6"/>
            <circle cx="39.55" cy="20.98" r="11.23" style="fill:white"/>
        </g>
        <path d="M30.62 29.91c-4.93,-4.93 -4.93,-12.93 -0,-17.86 4.93,-4.93 12.93,-4.93 17.86,0 4.93,4.93 4.93,12.93 0,17.86 -4.93,4.93 -12.93,4.93 -17.86,-0zm5.37 -8.93l-3.13 -3.13c-0.2,-0.2 -0.2,-0.52 0,-0.72l2.84 -2.84c0.2,-0.2 0.52,-0.2 0.72,0l3.13 3.13 3.13 -3.13c0.2,-0.2 0.52,-0.2 0.72,0l2.84 2.84c0.2,0.2 0.2,0.52 0,0.72l-3.13 3.13 3.13 3.13c0.2,0.2 0.2,0.52 0,0.72l-2.84 2.84c-0.2,0.2 -0.52,0.2 -0.72,0l-3.13 -3.13 -3.13 3.13c-0.2,0.2 -0.52,0.2 -0.72,0l-2.84 -2.84c-0.2,-0.2 -0.2,-0.52 -0,-0.72l3.13 -3.13z" style="fill:#CC3300"/>
    </g>
</svg>
