<?xml version="1.0" encoding="UTF-8"?>
<!DOCTYPE svg PUBLIC "-//W3C//DTD SVG 1.1//EN" "http://www.w3.org/Graphics/SVG/1.1/DTD/svg11.dtd">
<!--Creator: CorelDRAW-->
<svg xmlns="http://www.w3.org/2000/svg" xml:space="preserve" width="12mm" height="6.3674mm" version="1.1" style="shape-rendering:geometricPrecision;text-rendering:geometricPrecision;image-rendering:optimizeQuality;fill-rule:evenodd;clip-rule:evenodd" viewBox="0 0 6996.4 3712.41" xmlns:xlink="http://www.w3.org/1999/xlink" xmlns:xodm="http://www.corel.com/coreldraw/odm/2003">
    <g id="Ebene_x0020_1">
        <metadata id="CorelCorpID_0Corel-Layer"/>
        <g id="Eye">
            <path d="M6996.4 1674.94c-954.13,-1077.15 -2202.64,-1674.94 -3498.38,-1674.94 -1295.56,0 -2543.89,597.61 -3498.03,1674.47l0.17 363.64c954.13,1076.8 2202.41,1674.3 3497.85,1674.3 1295.44,0 2544.3,-596.79 3498.38,-1673.54l0 -363.93zm-3498.14 1585.85c775.73,0 1404.59,-628.86 1404.59,-1404.59 0,-775.73 -628.86,-1404.59 -1404.59,-1404.59 -775.78,0 -1404.64,628.86 -1404.64,1404.59 0,775.73 628.86,1404.59 1404.64,1404.59z" style="fill:#E6E6E6"/>
            <ellipse cx="3498.25" cy="1856.2" rx="993.21" ry="993.2" style="fill:#00CCFF"/>
        </g>
    </g>
</svg>
