<?xml version="1.0" encoding="UTF-8"?>
<!DOCTYPE svg PUBLIC "-//W3C//DTD SVG 1.1//EN" "http://www.w3.org/Graphics/SVG/1.1/DTD/svg11.dtd">
<!--Creator: CorelDRAW-->
<svg xmlns="http://www.w3.org/2000/svg" xml:space="preserve" width="10mm" height="14.1531mm" version="1.1" style="shape-rendering:geometricPrecision;text-rendering:geometricPrecision;image-rendering:optimizeQuality;fill-rule:evenodd;clip-rule:evenodd" viewBox="0 0 82.31 116.49" xmlns:xlink="http://www.w3.org/1999/xlink" xmlns:xodm="http://www.corel.com/coreldraw/odm/2003">
    <g id="Ebene_x0020_1">
        <metadata id="CorelCorpID_0Corel-Layer"/>
        <path d="M11.14 61.71c-7.01,-10.12 -10.44,-19.25 -11.09,-33.61 -0.65,-14.36 5.55,-26.55 10.77,-27.55 5.22,-1 9.46,-1.16 14.36,4.06 4.89,5.22 9.14,13.7 10.11,24.63 0.98,10.93 -2.45,25.12 -2.94,26.59 -4.13,1.72 -21.21,5.87 -21.21,5.87z" style="fill:#E6E6E6"/>
        <path d="M13.1 66.31c0,0 1.96,13.64 5.16,17.52 3.2,3.87 7.87,6.94 13.54,4.91 5.67,-2.03 6.43,-7.28 6.77,-10.32 0.34,-3.05 -1.35,-13.96 -5.67,-17.94 -5.25,1.19 -19.8,5.84 -19.8,5.84z" style="fill:#E6E6E6"/>
        <path d="M71.16 88.82c7.01,-10.12 10.44,-19.25 11.09,-33.61 0.65,-14.36 -5.55,-26.55 -10.77,-27.55 -5.22,-1 -9.46,-1.16 -14.36,4.06 -4.89,5.22 -9.14,13.7 -10.11,24.63 -0.98,10.93 2.45,25.12 2.94,26.59 4.13,1.72 21.21,5.87 21.21,5.87z" style="fill:#E6E6E6"/>
        <path d="M69.21 93.42c0,0 -1.96,13.64 -5.16,17.52 -3.2,3.87 -7.87,6.94 -13.54,4.91 -5.67,-2.03 -6.43,-7.28 -6.77,-10.32 -0.34,-3.05 1.35,-13.96 5.67,-17.94 5.25,1.19 19.8,5.84 19.8,5.84z" style="fill:#FFCC00"/>
    </g>
</svg>
