<?xml version="1.0" encoding="UTF-8"?>
<!DOCTYPE svg PUBLIC "-//W3C//DTD SVG 1.1//EN" "http://www.w3.org/Graphics/SVG/1.1/DTD/svg11.dtd">
<!--Creator: CorelDRAW-->
<svg xmlns="http://www.w3.org/2000/svg" xml:space="preserve" width="10.0004mm" height="10.205mm" version="1.1" style="shape-rendering:geometricPrecision;text-rendering:geometricPrecision;image-rendering:optimizeQuality;fill-rule:evenodd;clip-rule:evenodd" viewBox="0 0 171246.58 174750.14" xmlns:xlink="http://www.w3.org/1999/xlink" xmlns:xodm="http://www.corel.com/coreldraw/odm/2003">
    <g id="Ebene_x0020_1">
        <metadata id="CorelCorpID_0Corel-Layer"/>
        <g id="_105553250047584">
            <path d="M129710.67 87036.02l-44087.38 59988.7 -44087.38 -59988.7c-6885.55,-9380.51 -10596.31,-20713.16 -10596.31,-32350.61 0,-30201.55 24482.14,-54685.41 54683.69,-54685.41 30201.55,0 54683.69,24483.86 54683.69,54685.41 0,11637.45 -3710.76,22970.1 -10596.31,32350.61zm-44087.38 3856.32c-19997.38,0 -36206.93,-16211.26 -36206.93,-36206.93 0,-19997.38 16209.55,-36206.93 36206.93,-36206.93 19997.38,0 36206.93,16209.55 36206.93,36206.93 0,19995.66 -16209.55,36206.93 -36206.93,36206.93z" style="fill:#999999"/>
            <path d="M106055.61 132448.79c38282.35,2356.26 65190.96,10964.48 65190.96,20843.3 0,11851.5 -38333.73,21458.05 -85623.29,21458.05 -47289.56,0 -85623.29,-9606.55 -85623.29,-21458.05 0,-9878.82 26910.32,-18487.04 65192.68,-20843.3l20430.61 27800.77 20432.32 -27800.77z" style="fill:#E6E6E6"/>
            <circle cx="85623.29" cy="54685.41" r="20684.05" style="fill:#FFCC00"/>
        </g>
    </g>
</svg>
