<?xml version="1.0" encoding="UTF-8"?>
<!DOCTYPE svg PUBLIC "-//W3C//DTD SVG 1.1//EN" "http://www.w3.org/Graphics/SVG/1.1/DTD/svg11.dtd">
<!--Creator: CorelDRAW-->
<svg xmlns="http://www.w3.org/2000/svg" xml:space="preserve" width="15.5868mm" height="8.5859mm" version="1.1" style="shape-rendering:geometricPrecision;text-rendering:geometricPrecision;image-rendering:optimizeQuality;fill-rule:evenodd;clip-rule:evenodd" viewBox="0 0 458.52 252.57" xmlns:xlink="http://www.w3.org/1999/xlink" xmlns:xodm="http://www.corel.com/coreldraw/odm/2003">
    <g id="Ebene_x0020_1">
        <metadata id="CorelCorpID_0Corel-Layer"/>
        <path d="M440.32 149.52l-75.74 103.05 -75.74 -103.05c-11.83,-16.11 -18.2,-35.58 -18.2,-55.57 0,-51.88 42.06,-93.94 93.94,-93.94 51.88,0 93.94,42.06 93.94,93.94 0,19.99 -6.37,39.46 -18.2,55.57zm-75.74 6.62c-34.35,0 -62.2,-27.85 -62.2,-62.2 0,-34.35 27.85,-62.2 62.2,-62.2 34.35,0 62.2,27.85 62.2,62.2 0,34.35 -27.85,62.2 -62.2,62.2z" style="fill:#E6E6E6"/>
        <path d="M169.68 149.52l-75.74 103.05 -75.74 -103.05c-11.83,-16.11 -18.2,-35.58 -18.2,-55.57 0,-51.88 42.06,-93.94 93.94,-93.94 51.88,0 93.94,42.06 93.94,93.94 0,19.99 -6.37,39.46 -18.2,55.57zm-75.74 6.62c-34.35,0 -62.2,-27.85 -62.2,-62.2 0,-34.35 27.85,-62.2 62.2,-62.2 34.35,0 62.2,27.85 62.2,62.2 0,34.35 -27.85,62.2 -62.2,62.2z" style="fill:#999999"/>
        <path d="M175.56 162.68c17.55,-18.59 27.33,-43.18 27.33,-68.74 0,-22.09 -7.31,-43.57 -20.78,-61.07l141.15 62.91 -147.69 66.91z" style="fill:#99CC33"/>
    </g>
</svg>
