<?xml version="1.0" encoding="UTF-8"?>
<!DOCTYPE svg PUBLIC "-//W3C//DTD SVG 1.1//EN" "http://www.w3.org/Graphics/SVG/1.1/DTD/svg11.dtd">
<!--Creator: CorelDRAW-->
<svg xmlns="http://www.w3.org/2000/svg" xml:space="preserve" width="10.0001mm" height="10.0012mm" version="1.1" style="shape-rendering:geometricPrecision;text-rendering:geometricPrecision;image-rendering:optimizeQuality;fill-rule:evenodd;clip-rule:evenodd" viewBox="0 0 20145.45 20147.66" xmlns:xlink="http://www.w3.org/1999/xlink" xmlns:xodm="http://www.corel.com/coreldraw/odm/2003">
    <g id="Ebene_x0020_1">
        <metadata id="CorelCorpID_0Corel-Layer"/>
        <g id="_105553249024192">
            <path d="M1945.43 1945.43c2594.1,-2593.9 6799.83,-2593.9 9393.73,0 2593.9,2594.1 2593.9,6799.62 0,9393.73 -2593.9,2593.9 -6799.62,2593.9 -9393.73,0 -2593.9,-2594.1 -2593.9,-6799.62 0,-9393.73zm7841.13 7841.13c-1736.52,1736.72 -4552.02,1736.72 -6288.54,0 -1736.52,-1736.52 -1736.52,-4552.02 0,-6288.54 1736.52,-1736.72 4552.02,-1736.72 6288.54,0 1736.72,1736.52 1736.72,4552.02 0,6288.54z" style="fill:#E6E6E6"/>
            <path d="M12840.38 10223.11l5768.19 5753.08 -2634.6 2634.8 -5726.89 -5729.11c541.1,-312.65 1014.92,-736.11 1456.9,-1177.89 441.79,-441.99 823.94,-939.78 1136.39,-1480.88z" style="fill:#E6E6E6"/>
            <path d="M16411.73 19048.74l2634.6 -2634.8 948.64 948.64c200.45,200.45 200.45,528.61 0,729.26l-1905.54 1905.34c-200.45,200.65 -528.61,200.65 -729.26,0l-948.44 -948.44z" style="fill:#E6E6E6"/>
        </g>
    </g>
</svg>
