<?xml version="1.0" encoding="UTF-8" standalone="no"?>
<!--Creator: CorelDRAW 2021.5-->
<svg xml:space="preserve" width="63.139629" height="52.956661" version="1.1" style="clip-rule:evenodd;fill-rule:evenodd;image-rendering:optimizeQuality;shape-rendering:geometricPrecision;text-rendering:geometricPrecision" viewBox="0 0 4.5831542 3.8649072" id="svg7" sodipodi:docname="indicator_icons.svg" xmlns:inkscape="http://www.inkscape.org/namespaces/inkscape" xmlns:sodipodi="http://sodipodi.sourceforge.net/DTD/sodipodi-0.dtd" xmlns="http://www.w3.org/2000/svg" xmlns:svg="http://www.w3.org/2000/svg">
    <sodipodi:namedview id="namedview7" pagecolor="#ffffff" bordercolor="#000000" borderopacity="0.25" inkscape:showpageshadow="2" inkscape:pageopacity="0.0" inkscape:pagecheckerboard="0" inkscape:deskcolor="#d1d1d1">
        <inkscape:page x="0" y="0" width="4.5831542" height="3.8649073" id="page2" margin="0" bleed="0"/>
    </sodipodi:namedview>
    <defs id="defs1">
        <style type="text/css" id="style1">
            <![CDATA[.fil2{fill:#E9DEEC}.fil3{fill:#F2E3A9}.fil0{fill:#F7AA47;fill-rule:nonzero;fill-opacity:0.349020}.fil5{fill:#61A375;fill-rule:nonzero;fill-opacity:0.349020}.fil4{fill:#AF9778;fill-rule:nonzero;fill-opacity:0.780392}]]>
        </style>
    </defs>
    <g id="Ebene_x0020_1" inkscape:label="Ebene 1" inkscape:groupmode="layer" transform="translate(-5.3119307,-0.18678187)">
        <metadata id="CorelCorpID_0Corel-Layer"/>
        <path d="M 5.44,3.56 C 5.77,3.58 5.86,3.62 5.9,3.59 6.2,3.49 6.86,3.65 6.97,3.7 7.08,3.7 7.19,3.73 7.3,3.78 7.53,3.9 7.67,3.96 7.95,4.02 8.19,4.08 8.21,4.04 8.42,4.02 8.54,4.02 9.14,3.88 9.18,3.91 9.21,3.95 9.73,3.86 9.74,3.86 9.77,3.87 9.75,3.83 9.77,3.85 9.78,3.86 9.82,3.83 9.82,3.81 9.81,3.8 9.81,3.79 9.82,3.79 9.88,3.79 9.83,3.7 9.76,3.67 9.72,3.66 9.69,3.64 9.69,3.64 9.27,3.57 9.08,3.49 8.98,3.47 8.82,3.43 8.76,3.41 8.76,3.39 8.78,3.29 8.91,3.24 8.92,2.74 8.92,2.73 9.44,2.23 9.29,2.15 9.22,2.11 9.28,2.05 9.11,2.05 8.97,2.05 9.06,1.99 9.08,1.99 9.14,1.99 9.26,1.79 8.96,1.91 8.9,1.94 8.85,1.82 8.9,1.79 8.93,1.77 8.98,1.69 8.97,1.67 8.96,1.63 9.05,1.56 9.04,1.51 9.03,1.43 9.14,1.26 9.13,1.17 9.11,1.08 9.18,1.03 9.17,0.98 9.15,0.93 9.23,0.86 9.21,0.78 9.2,0.69 9.27,0.68 9.26,0.6 9.25,0.51 9.37,0.46 9.2,0.46 9.14,0.45 9.14,0.38 9.19,0.35 9.21,0.33 9.17,0.31 9.12,0.3 9.06,0.3 9.05,0.29 9.08,0.26 9.18,0.15 9.02,0.12 8.63,0.49 8.43,0.68 8.33,0.74 8.13,0.95 7.94,1.15 7.69,1.52 7.52,1.7 7.41,1.84 7.5,1.88 7.52,2.11 7.56,2.41 7.49,2.69 7.47,2.73 7.46,2.94 7.25,3.38 6.7,3.31 6.4,3.3 6.2,3.25 5.95,3.2 5.81,3.18 5.74,3.24 5.71,3.24 5.68,3.24 5.7,3.27 5.67,3.27 5.65,3.27 5.6,3.32 5.58,3.32 5.53,3.32 5.29,3.45 5.29,3.45 5.28,3.45 5.23,3.49 5.24,3.5 5.26,3.55 5.39,3.56 5.44,3.56 Z" id="path2" style="fill:#C0B7AB;fill-rule:nonzero"/>
    </g>
</svg>
