<?xml version="1.0" encoding="UTF-8"?>
<!DOCTYPE svg PUBLIC "-//W3C//DTD SVG 1.1//EN" "http://www.w3.org/Graphics/SVG/1.1/DTD/svg11.dtd">
<!--Creator: CorelDRAW-->
<svg xmlns="http://www.w3.org/2000/svg" xml:space="preserve" width="5.0024mm" height="5mm" version="1.1" style="shape-rendering:geometricPrecision;text-rendering:geometricPrecision;image-rendering:optimizeQuality;fill-rule:evenodd;clip-rule:evenodd" viewBox="0 0 38.54 38.52" xmlns:xlink="http://www.w3.org/1999/xlink" xmlns:xodm="http://www.corel.com/coreldraw/odm/2003">
    <g id="Ebene_x0020_1">
        <metadata id="CorelCorpID_0Corel-Layer"/>
        <g id="_105553250049344">
            <circle cx="19.27" cy="19.26" r="13.72" style="fill:white"/>
            <path d="M19.27 38.52c-10.64,0 -19.27,-8.62 -19.27,-19.26 0,-10.64 8.63,-19.26 19.27,-19.26 10.64,0 19.27,8.62 19.27,19.26 0,10.64 -8.63,19.26 -19.27,19.26zm-10.59 -23.1l21.19 0c0.43,0 0.78,0.35 0.78,0.78l0 6.12c0,0.43 -0.35,0.78 -0.78,0.78l-21.19 0c-0.43,0 -0.78,-0.35 -0.78,-0.78l0 -6.12c0,-0.43 0.35,-0.78 0.78,-0.78z" style="fill:#CC3300"/>
        </g>
    </g>
</svg>
