<?xml version="1.0" encoding="UTF-8"?>
<!DOCTYPE svg PUBLIC "-//W3C//DTD SVG 1.1//EN" "http://www.w3.org/Graphics/SVG/1.1/DTD/svg11.dtd">
<!--Creator: CorelDRAW-->
<svg xmlns="http://www.w3.org/2000/svg" xml:space="preserve" width="10.3021mm" height="10.8914mm" version="1.1" style="shape-rendering:geometricPrecision;text-rendering:geometricPrecision;image-rendering:optimizeQuality;fill-rule:evenodd;clip-rule:evenodd" viewBox="0 0 26653.26 28177.87" xmlns:xlink="http://www.w3.org/1999/xlink" xmlns:xodm="http://www.corel.com/coreldraw/odm/2003">
    <g id="Ebene_x0020_1">
        <metadata id="CorelCorpID_0Corel-Layer"/>
        <g id="_105553247305184">
            <rect transform="matrix(0.221619 -1.246E-001 0.221619 0.1246 0.0500055 13960.6)" width="60133.27" height="60133.27" style="fill:#E6E6E6"/>
            <polygon points="13326.76,24815.59 26653.26,17322.9 24478.74,16100.2 13326.76,22370.2 2174.77,16100.2 -0,17322.9 " style="fill:#E6E6E6"/>
            <polygon points="13326.76,28177.87 26653.26,20685.18 24478.74,19462.48 13326.76,25732.48 2174.77,19462.48 -0,20685.18 " style="fill:#E6E6E6"/>
        </g>
        <g id="_105553247299008">
            <circle cx="13326.76" cy="6467.92" r="4608.52" style="fill:white"/>
            <path d="M13326.76 12935.84c-3573.91,0 -6471.02,-2895.82 -6471.02,-6467.92 0,-3572.1 2897.11,-6467.92 6471.02,-6467.92 3573.91,0 6471.02,2895.82 6471.02,6467.92 0,3572.1 -2897.11,6467.92 -6471.02,6467.92zm-1288.93 -5179.77l-2268.69 0c-143.33,0 -261.3,-117.46 -261.3,-261.05l0 -2054.21c0,-143.85 117.46,-261.3 261.3,-261.3l2268.69 0 0 -2267.39c0,-143.85 117.46,-261.3 261.3,-261.3l2055.25 0c143.59,0 261.3,117.72 261.3,261.3l0 2267.39 2268.69 0c143.85,0 261.3,117.72 261.3,261.3l0 2054.21c0,143.33 -117.97,261.05 -261.3,261.05l-2268.69 0 0 2267.65c0,143.59 -117.97,261.3 -261.3,261.3l-2055.25 0c-143.59,0 -261.3,-117.46 -261.3,-261.3l0 -2267.65z" style="fill:#99CC33"/>
        </g>
    </g>
</svg>
