<?xml version="1.0" encoding="UTF-8"?>
<!DOCTYPE svg PUBLIC "-//W3C//DTD SVG 1.1//EN" "http://www.w3.org/Graphics/SVG/1.1/DTD/svg11.dtd">
<!--Creator: CorelDRAW-->
<svg xmlns="http://www.w3.org/2000/svg" xml:space="preserve" width="5.0024mm" height="5mm" version="1.1" style="shape-rendering:geometricPrecision;text-rendering:geometricPrecision;image-rendering:optimizeQuality;fill-rule:evenodd;clip-rule:evenodd" viewBox="0 0 510.53 510.28" xmlns:xlink="http://www.w3.org/1999/xlink" xmlns:xodm="http://www.corel.com/coreldraw/odm/2003">
    <g id="Ebene_x0020_1">
        <metadata id="CorelCorpID_0Corel-Layer"/>
        <g id="_105553246562176">
            <circle cx="255.26" cy="255.14" r="181.79" style="fill:white"/>
            <path d="M255.26 510.28c-140.98,0 -255.26,-114.23 -255.26,-255.14 0,-140.91 114.28,-255.14 255.26,-255.14 140.98,0 255.26,114.23 255.26,255.14 0,140.91 -114.28,255.14 -255.26,255.14zm-50.84 -204.33l-89.49 0c-5.65,0 -10.31,-4.63 -10.31,-10.3l0 -81.03c0,-5.67 4.63,-10.31 10.31,-10.31l89.49 0 0 -89.44c0,-5.67 4.63,-10.31 10.31,-10.31l81.07 0c5.66,0 10.31,4.64 10.31,10.31l0 89.44 89.49 0c5.67,0 10.31,4.64 10.31,10.31l0 81.03c0,5.65 -4.65,10.3 -10.31,10.3l-89.49 0 0 89.45c0,5.66 -4.65,10.31 -10.31,10.31l-81.07 0c-5.66,0 -10.31,-4.63 -10.31,-10.31l0 -89.45z" style="fill:#99CC33"/>
        </g>
    </g>
</svg>
