<?xml version="1.0" encoding="UTF-8"?>
<!DOCTYPE svg PUBLIC "-//W3C//DTD SVG 1.1//EN" "http://www.w3.org/Graphics/SVG/1.1/DTD/svg11.dtd">
<!--Creator: CorelDRAW-->
<svg xmlns="http://www.w3.org/2000/svg" xml:space="preserve" width="13.8127mm" height="8.1523mm" version="1.1" style="shape-rendering:geometricPrecision;text-rendering:geometricPrecision;image-rendering:optimizeQuality;fill-rule:evenodd;clip-rule:evenodd" viewBox="0 0 155.21 91.6" xmlns:xlink="http://www.w3.org/1999/xlink" xmlns:xodm="http://www.corel.com/coreldraw/odm/2003">
    <g id="Ebene_x0020_1">
        <metadata id="CorelCorpID_0Corel-Layer"/>
        <g id="_105553313668128">
            <polygon points="120.01,90.48 60.81,90.48 94.39,1.12 129.38,65.54 " style="fill:#336699"/>
            <polygon points="129.38,65.54 94.39,1.12 153.58,1.12 " style="fill:#6A93BD"/>
            <polygon points="60.81,90.48 1.62,90.48 35.2,1.12 70.19,65.54 " style="fill:#336699"/>
            <polygon points="70.19,65.54 35.2,1.12 94.39,1.12 " style="fill:#6A93BD"/>
            <line x1="60.81" y1="90.48" x2="94.39" y2="1.12" style="fill:none;stroke:#E6E6E6;stroke-width:2.25;stroke-miterlimit:22.9256"/>
            <polygon points="35.2,1.12 153.58,1.12 120,90.48 1.62,90.48 " style="fill:none;stroke:#E6E6E6;stroke-width:2.25;stroke-miterlimit:22.9256"/>
            <line x1="90.41" y1="90.48" x2="123.99" y2="1.12" style="fill:none;stroke:#E6E6E6;stroke-width:0.86;stroke-miterlimit:22.9256"/>
            <line x1="31.22" y1="90.48" x2="64.8" y2="1.12" style="fill:none;stroke:#E6E6E6;stroke-width:0.86;stroke-miterlimit:22.9256"/>
            <line x1="18.41" y1="45.8" x2="136.79" y2="45.8" style="fill:none;stroke:#E6E6E6;stroke-width:0.86;stroke-miterlimit:22.9256"/>
            <line x1="10.02" y1="68.14" x2="128.4" y2="68.14" style="fill:none;stroke:#E6E6E6;stroke-width:0.86;stroke-miterlimit:22.9256"/>
            <line x1="26.81" y1="23.46" x2="145.19" y2="23.46" style="fill:none;stroke:#E6E6E6;stroke-width:0.86;stroke-miterlimit:22.9256"/>
        </g>
    </g>
</svg>
