<?xml version="1.0" encoding="UTF-8"?>
<!DOCTYPE svg PUBLIC "-//W3C//DTD SVG 1.1//EN" "http://www.w3.org/Graphics/SVG/1.1/DTD/svg11.dtd">
<!--Creator: CorelDRAW-->
<svg xmlns="http://www.w3.org/2000/svg" xml:space="preserve" width="9.5mm" height="9.5mm" version="1.1" style="shape-rendering:geometricPrecision;text-rendering:geometricPrecision;image-rendering:optimizeQuality;fill-rule:evenodd;clip-rule:evenodd" viewBox="0 0 155603.45 155603.45" xmlns:xlink="http://www.w3.org/1999/xlink" xmlns:xodm="http://www.corel.com/coreldraw/odm/2003">
    <g id="Ebene_x0020_1">
        <metadata id="CorelCorpID_0Corel-Layer"/>
        <g id="_105553247845088">
            <rect x="0" y="0" width="32758.62" height="32758.62" style="fill:#999999"/>
            <rect x="40948.28" y="0" width="32758.62" height="32758.62" style="fill:#FFCC00"/>
            <rect x="81896.55" y="0" width="32758.62" height="32758.62" style="fill:white"/>
            <rect x="122844.83" y="0" width="32758.62" height="32758.62" style="fill:#FF0066"/>
            <rect x="0" y="40948.28" width="32758.62" height="32758.62" style="fill:#FF0066"/>
            <rect x="40948.28" y="40948.28" width="32758.62" height="32758.62" style="fill:white"/>
            <rect x="81896.55" y="40948.28" width="32758.62" height="32758.62" style="fill:#999999"/>
            <rect x="122844.83" y="40948.28" width="32758.62" height="32758.62" style="fill:#999999"/>
            <rect x="0" y="81896.55" width="32758.62" height="32758.62" style="fill:#E6E6E6"/>
            <rect x="40948.28" y="81896.55" width="32758.62" height="32758.62" style="fill:#FF0066"/>
            <rect x="81896.55" y="81896.55" width="32758.62" height="32758.62" style="fill:white"/>
            <rect x="122844.83" y="81896.55" width="32758.62" height="32758.62" style="fill:#FFCC00"/>
            <rect x="0" y="122844.83" width="32758.62" height="32758.62" style="fill:#FFCC00"/>
            <rect x="40948.28" y="122844.83" width="32758.62" height="32758.62" style="fill:white"/>
            <rect x="81896.55" y="122844.83" width="32758.62" height="32758.62" style="fill:#E6E6E6"/>
            <rect x="122844.83" y="122844.83" width="32758.62" height="32758.62" style="fill:#999999"/>
        </g>
    </g>
</svg>
