<?xml version="1.0" encoding="UTF-8"?>
<!DOCTYPE svg PUBLIC "-//W3C//DTD SVG 1.1//EN" "http://www.w3.org/Graphics/SVG/1.1/DTD/svg11.dtd">
<!--Creator: CorelDRAW-->
<svg xmlns="http://www.w3.org/2000/svg" xml:space="preserve" width="11.0584mm" height="12.7434mm" version="1.1" style="shape-rendering:geometricPrecision;text-rendering:geometricPrecision;image-rendering:optimizeQuality;fill-rule:evenodd;clip-rule:evenodd" viewBox="0 0 200.09 230.58" xmlns:xlink="http://www.w3.org/1999/xlink" xmlns:xodm="http://www.corel.com/coreldraw/odm/2003">
    <g id="Ebene_x0020_1">
        <metadata id="CorelCorpID_0Corel-Layer"/>
        <g id="_105553246738816">
            <g>
                <path d="M51.06 24.82l49.64 -24.82 0 49.64 -49.64 -24.82zm48.99 9.58c-5.29,0 -9.58,-4.29 -9.58,-9.58 0,-5.29 4.29,-9.58 9.58,-9.58l0 19.15zm100.05 80.89l-19.15 0 -0.1 -4.17 -0.31 -4.11 -0.51 -4.05 -0.71 -3.98 -0.9 -3.91 -1.09 -3.83 -1.27 -3.76 -1.45 -3.67 -1.62 -3.58 -1.79 -3.49 -1.95 -3.39 -2.1 -3.28 -2.26 -3.17 -2.4 -3.06 -2.54 -2.94 -2.68 -2.81 -2.81 -2.68 -2.94 -2.54 -3.06 -2.4 -3.17 -2.26 -3.28 -2.1 -3.39 -1.95 -3.49 -1.79 -3.58 -1.62 -3.67 -1.45 -3.76 -1.27 -3.83 -1.09 -3.91 -0.9 -3.98 -0.71 -4.05 -0.51 -4.11 -0.31 -4.17 -0.1 0 -19.15 5.14 0.13 5.08 0.39 5.01 0.64 4.93 0.88 4.84 1.12 4.75 1.35 4.65 1.57 4.55 1.79 4.43 2 4.31 2.21 4.19 2.41 4.06 2.6 3.92 2.79 3.78 2.97 3.63 3.14 3.47 3.31 3.31 3.47 3.14 3.63 2.97 3.78 2.79 3.92 2.6 4.06 2.41 4.19 2.21 4.31 2 4.43 1.79 4.55 1.57 4.65 1.35 4.75 1.12 4.84 0.88 4.93 0.64 5.01 0.39 5.08 0.13 5.14zm0 0c0,5.29 -4.29,9.58 -9.58,9.58 -5.29,0 -9.58,-4.29 -9.58,-9.58l19.15 0z" style="fill:#E6E6E6;fill-rule:nonzero"/>
            </g>
            <g>
                <path d="M149.03 205.76l-49.64 24.82 0 -49.64 49.64 24.82zm-48.99 -9.58c5.29,0 9.58,4.29 9.58,9.58 0,5.29 -4.29,9.58 -9.58,9.58l0 -19.15zm-100.05 -80.89l19.15 0 0.1 4.17 0.31 4.11 0.51 4.05 0.71 3.98 0.9 3.91 1.09 3.83 1.27 3.76 1.45 3.67 1.62 3.58 1.79 3.49 1.95 3.39 2.1 3.28 2.26 3.17 2.4 3.06 2.54 2.94 2.68 2.81 2.81 2.68 2.94 2.54 3.06 2.4 3.17 2.26 3.28 2.1 3.39 1.95 3.49 1.79 3.58 1.62 3.67 1.45 3.76 1.27 3.83 1.09 3.91 0.9 3.98 0.71 4.05 0.51 4.11 0.31 4.17 0.1 0 19.15 -5.14 -0.13 -5.08 -0.39 -5.01 -0.64 -4.93 -0.88 -4.84 -1.12 -4.75 -1.35 -4.65 -1.57 -4.55 -1.79 -4.43 -2 -4.31 -2.21 -4.19 -2.41 -4.06 -2.6 -3.92 -2.79 -3.78 -2.97 -3.63 -3.14 -3.47 -3.31 -3.31 -3.47 -3.14 -3.63 -2.97 -3.78 -2.79 -3.92 -2.6 -4.06 -2.41 -4.19 -2.21 -4.31 -2 -4.43 -1.79 -4.55 -1.57 -4.65 -1.35 -4.75 -1.12 -4.84 -0.88 -4.93 -0.64 -5.01 -0.39 -5.08 -0.13 -5.14zm0 0c0,-5.29 4.29,-9.58 9.58,-9.58 5.29,0 9.58,4.29 9.58,9.58l-19.15 0z" style="fill:#E6E6E6;fill-rule:nonzero"/>
            </g>
        </g>
    </g>
</svg>
