<?xml version="1.0" encoding="UTF-8"?>
<!DOCTYPE svg PUBLIC "-//W3C//DTD SVG 1.1//EN" "http://www.w3.org/Graphics/SVG/1.1/DTD/svg11.dtd">
<!--Creator: CorelDRAW-->
<svg xmlns="http://www.w3.org/2000/svg" xml:space="preserve" width="10.0001mm" height="10mm" version="1.1" style="shape-rendering:geometricPrecision;text-rendering:geometricPrecision;image-rendering:optimizeQuality;fill-rule:evenodd;clip-rule:evenodd" viewBox="0 0 166.83 166.83" xmlns:xlink="http://www.w3.org/1999/xlink" xmlns:xodm="http://www.corel.com/coreldraw/odm/2003">
    <g id="Ebene_x0020_1">
        <metadata id="CorelCorpID_0Corel-Layer"/>
        <path d="M48.55 11.6l23.55 23.54 -7.81 29.14 -29.14 7.81 -23.55 -23.54c-2.63,-2.63 -6.92,-2.6 -9.58,0.06 -1.29,1.29 -2.01,3.03 -2.01,4.84 0.39,13.2 5.8,25.63 15.14,34.97 15.87,15.87 39.41,19.33 58.61,10.3l49.27 60.43c8.73,10.7 25.74,9.76 35.5,0l0.63 -0.63c9.76,-9.76 10.7,-26.78 0,-35.5l-60.43 -49.27c9.16,-19.25 5.63,-42.68 -10.3,-58.61 -9.34,-9.34 -21.76,-14.75 -34.97,-15.14 -1.81,0 -3.56,0.72 -4.85,2.01 -2.66,2.66 -2.69,6.95 -0.06,9.58zm100.77 137.72c-5.17,5.17 -13.56,5.17 -18.73,0 -5.17,-5.17 -5.17,-13.56 0,-18.73 5.17,-5.17 13.56,-5.17 18.73,0 5.17,5.17 5.17,13.56 0,18.73z" style="fill:#E6E6E6"/>
    </g>
</svg>
