<?xml version="1.0" encoding="UTF-8"?>
<!DOCTYPE svg PUBLIC "-//W3C//DTD SVG 1.1//EN" "http://www.w3.org/Graphics/SVG/1.1/DTD/svg11.dtd">
<!--Creator: CorelDRAW-->
<svg xmlns="http://www.w3.org/2000/svg" xml:space="preserve" width="12.7434mm" height="11.0584mm" version="1.1" style="shape-rendering:geometricPrecision;text-rendering:geometricPrecision;image-rendering:optimizeQuality;fill-rule:evenodd;clip-rule:evenodd" viewBox="0 0 132.24 114.76" xmlns:xlink="http://www.w3.org/1999/xlink" xmlns:xodm="http://www.corel.com/coreldraw/odm/2003">
    <g id="Ebene_x0020_1">
        <metadata id="CorelCorpID_0Corel-Layer"/>
        <g id="_105553305371232">
            <g>
                <path d="M14.23 85.47l-14.23 -28.47 28.47 0 -14.23 28.47zm5.49 -28.1c0,3.03 -2.46,5.49 -5.49,5.49 -3.03,0 -5.49,-2.46 -5.49,-5.49l10.98 0zm46.39 -57.38l0 10.98 0 0 -2.39 0.06 -2.36 0.18 -2.32 0.29 -2.29 0.41 -2.24 0.52 -2.2 0.62 -2.16 0.73 -2.1 0.83 -2.05 0.93 -2 1.02 -1.94 1.12 -1.88 1.21 -1.82 1.29 -1.75 1.38 -1.68 1.46 -1.61 1.54 -1.54 1.61 -1.46 1.68 -1.38 1.75 -1.29 1.82 -1.21 1.88 -1.12 1.94 -1.02 2 -0.93 2.05 -0.83 2.1 -0.73 2.16 -0.62 2.2 -0.52 2.24 -0.41 2.29 -0.29 2.32 -0.18 2.36 -0.06 2.39 -10.98 0 0.07 -2.95 0.22 -2.91 0.37 -2.87 0.51 -2.83 0.64 -2.78 0.77 -2.72 0.9 -2.67 1.03 -2.61 1.15 -2.54 1.27 -2.47 1.38 -2.4 1.49 -2.33 1.6 -2.25 1.7 -2.17 1.8 -2.08 1.9 -1.99 1.99 -1.9 2.08 -1.8 2.17 -1.7 2.25 -1.6 2.33 -1.49 2.4 -1.38 2.47 -1.27 2.54 -1.15 2.61 -1.03 2.67 -0.9 2.72 -0.77 2.78 -0.64 2.83 -0.51 2.87 -0.37 2.91 -0.22 2.95 -0.07 0 0zm57.38 57.38l-10.98 0 -0.06 -2.39 -0.18 -2.36 -0.29 -2.32 -0.41 -2.29 -0.52 -2.24 -0.62 -2.2 -0.73 -2.16 -0.83 -2.1 -0.93 -2.05 -1.02 -2 -1.12 -1.94 -1.21 -1.88 -1.29 -1.82 -1.38 -1.75 -1.46 -1.68 -1.54 -1.61 -1.61 -1.54 -1.68 -1.46 -1.75 -1.38 -1.82 -1.29 -1.88 -1.21 -1.94 -1.12 -2 -1.02 -2.05 -0.93 -2.1 -0.83 -2.16 -0.73 -2.2 -0.62 -2.24 -0.52 -2.29 -0.41 -2.32 -0.29 -2.36 -0.18 -2.39 -0.06 0 -10.98 2.95 0.07 2.91 0.22 2.87 0.37 2.83 0.51 2.78 0.64 2.72 0.77 2.67 0.9 2.61 1.03 2.54 1.15 2.47 1.27 2.4 1.38 2.33 1.49 2.25 1.6 2.17 1.7 2.08 1.8 1.99 1.9 1.9 1.99 1.8 2.08 1.7 2.17 1.6 2.25 1.49 2.33 1.38 2.4 1.27 2.47 1.15 2.54 1.03 2.61 0.9 2.67 0.77 2.72 0.64 2.78 0.51 2.83 0.37 2.87 0.22 2.91 0.07 2.95zm0 0c0,3.03 -2.46,5.49 -5.49,5.49 -3.03,0 -5.49,-2.46 -5.49,-5.49l10.98 0z" style="fill:#CC3300;fill-rule:nonzero"/>
            </g>
            <g>
                <path d="M118.01 29.28l14.23 28.47 -28.47 0 14.23 -28.47zm-5.49 28.1c0,-3.03 2.46,-5.49 5.49,-5.49 3.03,0 5.49,2.46 5.49,5.49l-10.98 0zm-46.39 57.38l0 -10.98 0 0 2.39 -0.06 2.36 -0.18 2.32 -0.29 2.29 -0.41 2.24 -0.52 2.2 -0.62 2.16 -0.73 2.1 -0.83 2.05 -0.93 2 -1.02 1.94 -1.12 1.88 -1.21 1.82 -1.29 1.75 -1.38 1.68 -1.46 1.61 -1.54 1.54 -1.61 1.46 -1.68 1.38 -1.75 1.29 -1.82 1.21 -1.88 1.12 -1.94 1.02 -2 0.93 -2.05 0.83 -2.1 0.73 -2.16 0.62 -2.2 0.52 -2.24 0.41 -2.29 0.29 -2.32 0.18 -2.36 0.06 -2.39 10.98 0 -0.07 2.95 -0.22 2.91 -0.37 2.87 -0.51 2.83 -0.64 2.78 -0.77 2.72 -0.9 2.67 -1.03 2.61 -1.15 2.54 -1.27 2.47 -1.38 2.4 -1.49 2.33 -1.6 2.25 -1.7 2.17 -1.8 2.08 -1.9 1.99 -1.99 1.9 -2.08 1.8 -2.17 1.7 -2.25 1.6 -2.33 1.49 -2.4 1.38 -2.47 1.27 -2.54 1.15 -2.61 1.03 -2.67 0.9 -2.72 0.77 -2.78 0.64 -2.83 0.51 -2.87 0.37 -2.91 0.22 -2.95 0.07 0 0zm-57.38 -57.38l10.98 0 0.06 2.39 0.18 2.36 0.29 2.32 0.41 2.29 0.52 2.24 0.62 2.2 0.73 2.16 0.83 2.1 0.93 2.05 1.02 2 1.12 1.94 1.21 1.88 1.29 1.82 1.38 1.75 1.46 1.68 1.54 1.61 1.61 1.54 1.68 1.46 1.75 1.38 1.82 1.29 1.88 1.21 1.94 1.12 2 1.02 2.05 0.93 2.1 0.83 2.16 0.73 2.2 0.62 2.24 0.52 2.29 0.41 2.32 0.29 2.36 0.18 2.39 0.06 0 10.98 -2.95 -0.07 -2.91 -0.22 -2.87 -0.37 -2.83 -0.51 -2.78 -0.64 -2.72 -0.77 -2.67 -0.9 -2.61 -1.03 -2.54 -1.15 -2.47 -1.27 -2.4 -1.38 -2.33 -1.49 -2.25 -1.6 -2.17 -1.7 -2.08 -1.8 -1.99 -1.9 -1.9 -1.99 -1.8 -2.08 -1.7 -2.17 -1.6 -2.25 -1.49 -2.33 -1.38 -2.4 -1.27 -2.47 -1.15 -2.54 -1.03 -2.61 -0.9 -2.67 -0.77 -2.72 -0.64 -2.78 -0.51 -2.83 -0.37 -2.87 -0.22 -2.91 -0.07 -2.95zm0 0c0,-3.03 2.46,-5.49 5.49,-5.49 3.03,0 5.49,2.46 5.49,5.49l-10.98 0z" style="fill:#99CC33;fill-rule:nonzero"/>
            </g>
            <g>
                <path d="M14.23 85.47l-14.23 -28.47 28.47 0 -14.23 28.47zm5.49 -28.1c0,3.03 -2.46,5.49 -5.49,5.49 -3.03,0 -5.49,-2.46 -5.49,-5.49l10.98 0zm1.04 -35.14l8.68 6.73 -0.58 0.77 -0.56 0.78 -0.55 0.79 -0.53 0.8 -0.51 0.81 -0.5 0.82 -0.48 0.83 -0.46 0.84 -0.44 0.84 -0.43 0.85 -0.41 0.86 -0.39 0.87 -0.37 0.88 -0.35 0.88 -0.34 0.89 -0.32 0.9 -0.3 0.9 -0.28 0.91 -0.26 0.92 -0.24 0.92 -0.22 0.92 -0.21 0.93 -0.19 0.94 -0.17 0.94 -0.15 0.94 -0.13 0.95 -0.11 0.95 -0.09 0.95 -0.07 0.96 -0.05 0.96 -0.03 0.96 -0.01 0.96 -10.98 0 0.01 -1.19 0.04 -1.19 0.06 -1.19 0.09 -1.18 0.11 -1.18 0.13 -1.18 0.16 -1.17 0.18 -1.17 0.21 -1.16 0.23 -1.16 0.25 -1.15 0.28 -1.15 0.3 -1.14 0.32 -1.13 0.35 -1.13 0.37 -1.12 0.39 -1.11 0.42 -1.1 0.44 -1.09 0.46 -1.08 0.48 -1.08 0.51 -1.06 0.53 -1.06 0.55 -1.04 0.57 -1.03 0.59 -1.02 0.61 -1.01 0.64 -1 0.66 -0.99 0.68 -0.98 0.7 -0.96 0.72 -0.95zm0 0c1.86,-2.4 5.31,-2.83 7.7,-0.98 2.4,1.86 2.83,5.31 0.98,7.7l-8.68 -6.73z" style="fill:#CC3300;fill-rule:nonzero"/>
            </g>
        </g>
    </g>
</svg>
