<?xml version="1.0" encoding="UTF-8"?>
<!DOCTYPE svg PUBLIC "-//W3C//DTD SVG 1.1//EN" "http://www.w3.org/Graphics/SVG/1.1/DTD/svg11.dtd">
<!--Creator: CorelDRAW-->
<svg xmlns="http://www.w3.org/2000/svg" xml:space="preserve" width="12.9243mm" height="10.8014mm" version="1.1" style="shape-rendering:geometricPrecision;text-rendering:geometricPrecision;image-rendering:optimizeQuality;fill-rule:evenodd;clip-rule:evenodd" viewBox="0 0 136.08 113.72" xmlns:xlink="http://www.w3.org/1999/xlink" xmlns:xodm="http://www.corel.com/coreldraw/odm/2003">
    <g id="Ebene_x0020_1">
        <metadata id="CorelCorpID_0Corel-Layer"/>
        <g id="_105553305027744">
            <circle cx="52.64" cy="39.44" r="29.54" style="fill:#E6E6E6"/>
            <path d="M105.29 113.72l-105.29 -0c0.96,-20.47 12.14,-37.76 28.41,-46.52 6.71,5.86 15.32,9.09 24.23,9.09 8.91,0 17.52,-3.23 24.23,-9.09 16.17,8.8 27.46,26.14 28.42,46.53z" style="fill:#E6E6E6"/>
        </g>
        <g id="_105553305145408">
            <path d="M83.43 59.08c16.31,0 29.54,-13.22 29.54,-29.54 0,-16.31 -13.22,-29.54 -29.54,-29.54 -6.53,0 -12.56,2.12 -17.45,5.71 13.43,5.31 22.93,18.42 22.93,33.74 0,7.23 -2.12,13.97 -5.77,19.63l0.29 0z" style="fill:#FF6666"/>
            <path d="M136.08 103.82l-21.13 -0c-4.2,-15.68 -13.56,-28.99 -26.02,-37.85 6.91,-1.04 13.42,-4.03 18.73,-8.67 16.17,8.8 27.46,26.14 28.42,46.53z" style="fill:#FF6666"/>
        </g>
    </g>
</svg>
