<?xml version="1.0" encoding="UTF-8"?>
<!DOCTYPE svg PUBLIC "-//W3C//DTD SVG 1.1//EN" "http://www.w3.org/Graphics/SVG/1.1/DTD/svg11.dtd">
<!--Creator: CorelDRAW-->
<svg xmlns="http://www.w3.org/2000/svg" xml:space="preserve" width="10.7946mm" height="10.0551mm" version="1.1" style="shape-rendering:geometricPrecision;text-rendering:geometricPrecision;image-rendering:optimizeQuality;fill-rule:evenodd;clip-rule:evenodd" viewBox="0 0 64.43 60.02" xmlns:xlink="http://www.w3.org/1999/xlink" xmlns:xodm="http://www.corel.com/coreldraw/odm/2003">
    <g id="Ebene_x0020_1">
        <metadata id="CorelCorpID_0Corel-Layer"/>
        <path d="M44.15 26.57l0 -4.77 14.31 0c3.28,0 5.97,2.69 5.97,5.97l0 26.29c0,3.28 -2.69,5.97 -5.97,5.97l-52.49 0c-3.28,0 -5.97,-2.69 -5.97,-5.97l0 -26.29c0,-3.28 2.69,-5.97 5.97,-5.97l14.31 0 0 4.77 -14.09 0c-0.98,0 -1.79,0.81 -1.79,1.79l0 25.09c0,0.98 0.81,1.79 1.79,1.79l51.68 0c0.98,0 1.79,-0.81 1.79,-1.79l0 -25.09c0,-0.98 -0.81,-1.79 -1.79,-1.79l-13.71 0z" style="fill:#E6E6E6"/>
        <polygon points="32.22,49.64 49.76,39.51 47.67,35.89 34.31,43.6 34.31,0 30.12,0 30.12,43.6 16.76,35.89 14.67,39.51 " style="fill:#99CC33"/>
    </g>
</svg>
