<?xml version="1.0" encoding="UTF-8"?>
<!DOCTYPE svg PUBLIC "-//W3C//DTD SVG 1.1//EN" "http://www.w3.org/Graphics/SVG/1.1/DTD/svg11.dtd">
<!--Creator: CorelDRAW-->
<svg xmlns="http://www.w3.org/2000/svg" xml:space="preserve" width="12mm" height="7.49mm" version="1.1" style="shape-rendering:geometricPrecision;text-rendering:geometricPrecision;image-rendering:optimizeQuality;fill-rule:evenodd;clip-rule:evenodd" viewBox="0 0 232.04 144.83" xmlns:xlink="http://www.w3.org/1999/xlink" xmlns:xodm="http://www.corel.com/coreldraw/odm/2003">
    <g id="Ebene_x0020_1">
        <metadata id="CorelCorpID_0Corel-Layer"/>
        <g id="_105553246367296">
            <path d="M107.05 122.49l-15.34 15.03c-3.26,4.37 -12.53,7.32 -22.99,7.32l-43.33 0c-13.97,0 -25.4,-11.43 -25.4,-25.4l0 -94.04c0,-13.97 11.43,-25.4 25.4,-25.4l181.24 0c13.97,0 25.4,11.43 25.4,25.4l0 94.04c0,13.97 -11.43,25.4 -25.4,25.4l-40.42 0c-10.45,0 -19.72,-2.95 -22.99,-7.32l-15.34 -15.03c-3.04,-2.98 -6.68,-4.58 -10.42,-4.58 -3.74,0 -7.39,1.6 -10.42,4.58zm-49.88 -20.26c-16.46,0 -29.81,-13.35 -29.81,-29.81 0,-16.46 13.35,-29.81 29.81,-29.81 16.46,0 29.81,13.35 29.81,29.81 0,16.46 -13.35,29.81 -29.81,29.81zm117.71 0c-16.46,0 -29.81,-13.35 -29.81,-29.81 0,-16.46 13.35,-29.81 29.81,-29.81 16.46,0 29.81,13.35 29.81,29.81 0,16.46 -13.35,29.81 -29.81,29.81z" style="fill:#E6E6E6"/>
            <circle cx="57.17" cy="72.42" r="16.76" style="fill:#E6E6E6"/>
            <circle cx="174.87" cy="72.42" r="16.76" style="fill:#FF0066"/>
        </g>
    </g>
</svg>
