<?xml version="1.0" encoding="UTF-8" standalone="no"?>
<!-- Creator: CorelDRAW 2021.5 -->

<svg
   xml:space="preserve"
   width="3.2308209mm"
   height="3.1283872mm"
   version="1.1"
   style="clip-rule:evenodd;fill-rule:evenodd;image-rendering:optimizeQuality;shape-rendering:geometricPrecision;text-rendering:geometricPrecision"
   viewBox="0 0 7.9553254 7.7058012"
   id="svg31"
   sodipodi:docname="bat_grouse_woodpecker_dove.svg"
   inkscape:export-filename="woodpecker.svg"
   inkscape:export-xdpi="96"
   inkscape:export-ydpi="96"
   xmlns:inkscape="http://www.inkscape.org/namespaces/inkscape"
   xmlns:sodipodi="http://sodipodi.sourceforge.net/DTD/sodipodi-0.dtd"
   xmlns="http://www.w3.org/2000/svg"
   xmlns:svg="http://www.w3.org/2000/svg"><sodipodi:namedview
   id="namedview31"
   pagecolor="#ffffff"
   bordercolor="#000000"
   borderopacity="0.25"
   inkscape:showpageshadow="2"
   inkscape:pageopacity="0.0"
   inkscape:pagecheckerboard="0"
   inkscape:deskcolor="#d1d1d1"
   inkscape:document-units="mm" />
 <defs
   id="defs1"><style
     type="text/css"
     id="style1">
   <![CDATA[
    .str0 {stroke:black;stroke-width:0.49;stroke-miterlimit:22.9256}
    .fil16 {fill:black}
    .fil24 {fill:#695B4E}
    .fil15 {fill:white}
    .fil9 {fill:#EBECEC;fill-rule:nonzero}
    .fil12 {fill:#D9DADA;fill-rule:nonzero}
    .fil17 {fill:#92AAAC;fill-rule:nonzero}
    .fil23 {fill:black;fill-rule:nonzero}
    .fil11 {fill:black;fill-rule:nonzero}
    .fil19 {fill:#020202;fill-rule:nonzero}
    .fil13 {fill:#333333;fill-rule:nonzero}
    .fil2 {fill:#3B3A3C;fill-rule:nonzero}
    .fil7 {fill:#434A54;fill-rule:nonzero}
    .fil0 {fill:#57555C;fill-rule:nonzero}
    .fil8 {fill:#656D78;fill-rule:nonzero}
    .fil1 {fill:#787780;fill-rule:nonzero}
    .fil18 {fill:#857C76;fill-rule:nonzero}
    .fil21 {fill:#8D817E;fill-rule:nonzero}
    .fil10 {fill:#990000;fill-rule:nonzero}
    .fil3 {fill:#AAB2BC;fill-rule:nonzero}
    .fil20 {fill:#C4150F;fill-rule:nonzero}
    .fil6 {fill:#CCD1D9;fill-rule:nonzero}
    .fil22 {fill:#CECFCF;fill-rule:nonzero}
    .fil4 {fill:#F6BB42;fill-rule:nonzero}
    .fil5 {fill:#FFCE54;fill-rule:nonzero}
    .fil14 {fill:white;fill-rule:nonzero}
   ]]>
  </style></defs>
 <g
   id="Ebene_x0020_1"
   inkscape:label="Ebene 1"
   inkscape:groupmode="layer"
   transform="translate(-0.84165799,-29.579527)">
  <metadata
   id="CorelCorpID_0Corel-Layer" />
  
  
  <g
   id="_1589046014784"
   inkscape:export-filename="_1589046014784.svg"
   inkscape:export-xdpi="96"
   inkscape:export-ydpi="96">
   <path
   id="Path_1183"
   class="fil9"
   d="M 6.11,34.68 C 6.1,34.66 6.09,34.64 6.07,34.62 c 0,0 0,0 0,0 L 5.87,34.44 C 5.99,34.34 6.1,34.23 6.2,34.12 6.38,33.92 6.97,33.13 6.93,32.44 6.87,31.37 6.58,31.26 6.77,31.05 6.96,30.84 7.33,30.77 7.33,30.77 L 7.24,30.53 7.47,30.27 7.38,30.2 C 7.33,30.05 7.22,29.96 7.1,29.85 6.72,29.51 6.17,29.55 5.8,29.87 c -0.6,0.67 -0.52,1.1 -0.52,1.1 l 0.23,-0.26 -0.06,0.32 c 0.46,-0.71 0.94,-0.78 0.94,-0.78 -0.87,0.97 -0.25,1.49 -0.25,1.49 v 0 c 0,0 0,0 0,0 0.48,0.43 0.52,1.16 0.09,1.64 -0.93,1.04 -2.44,1.9 -3.63,2.48 -0.19,0.09 -0.37,0.18 -0.54,0.25 1.12,-0.34 1.32,-0.45 1.74,-0.55 0.35,-0.07 0.69,-0.2 1,-0.37 l -0.02,0.32 c 0,0 0.67,-0.05 1.28,-0.73 0,0 0,0 0.01,-0.01 0.02,-0.03 0.03,-0.06 0.03,-0.1 v 0 z"
   data-name="Path 1183" />
   <path
   id="Path_1183_0"
   class="fil10"
   d="m 4.82,34.46 c -0.08,-1.39 -1.01,0.82 -2.19,1.4 -0.19,0.09 -0.37,0.18 -0.54,0.25 1.12,-0.34 1.32,-0.45 1.74,-0.55 0.35,-0.07 0.69,-0.2 1,-0.37 0.06,-0.03 0.01,-0.36 -0.01,-0.73 z"
   data-name="Path 1183" />
   <path
   id="Path_1179"
   class="fil11"
   d="m 1.79,36.24 -0.75,1.03 c 0.14,0.04 0.3,0 0.41,-0.1 l 0.39,-0.43 0.79,-0.88 c -0.1,0.05 -0.74,0.34 -0.84,0.39 z"
   data-name="Path 1179" />
   <path
   id="Path_1178"
   class="fil11"
   d="m 7.35,30.77 -0.1,-0.24 0.23,-0.26 1.27,0.5 c 0.01,0 0.02,0.01 0.02,0.02 0.03,0.03 0.04,0.08 0.01,0.11 -0.02,0.02 -0.04,0.03 -0.07,0.03 L 7.34,30.78 Z"
   data-name="Path 1178" />
   <path
   id="Path_1180"
   class="fil12"
   d="m 4.55,33.72 c -1.39,1.55 -2.31,1.36 -2.31,1.36 l -1.4,1.55 c 0,0 0.38,-0.14 0.95,-0.38 0.09,-0.04 0.19,-0.09 0.3,-0.13 0.17,-0.08 0.35,-0.16 0.54,-0.25 1.19,-0.58 2.7,-1.44 3.63,-2.48 -0.69,0.77 -1.71,0.34 -1.71,0.34 z"
   data-name="Path 1180" />
   <path
   id="Path_1181"
   class="fil11"
   d="m 6.16,31.74 v 0 c 0,0 -0.63,-0.52 0.25,-1.49 0,0 -0.48,0.07 -0.94,0.78 -0.05,0.08 -0.1,0.17 -0.15,0.26 v 0 C 4.96,31.58 4.62,31.9 4.3,32.25 3.99,32.6 3.7,32.97 3.46,33.36 v 0 L 2.53,34.4 c 0,0 -0.35,0.34 -0.29,0.67 0,0 0.92,0.19 2.31,-1.36 0,0 1.02,0.43 1.71,-0.34 0.43,-0.48 0.39,-1.21 -0.09,-1.64 0,0 0,0 0,0 v 0 z"
   data-name="Path 1181" />
   <path
   id="Path_1182"
   class="fil13"
   d="m 6.43,35.1 0.31,-0.35 c 0.18,-0.2 0.15,-0.34 0.15,-0.34 0.12,-0.03 0.23,-0.09 0.32,-0.18 L 7.6,33.8 c 0,0 0,0 0,-0.01 C 7.7,33.68 7.86,33.64 8,33.69 7.74,33.46 7.51,33.72 7.51,33.72 L 7.2,34.07 C 7.03,34.26 6.72,34.26 6.72,34.26 L 6.48,34.36 6,34.55 6.09,34.63 c 0,0 0,0 0,0 0.02,0.02 0.03,0.04 0.04,0.06 l 0.08,-0.03 0.44,-0.15 c 0.04,0.05 0.04,0.11 0.01,0.16 l -0.31,0.35 c -0.16,0.32 0.1,0.41 0.1,0.41 C 6.35,35.34 6.35,35.2 6.43,35.1 Z"
   data-name="Path 1182" />
   <path
   id="Path_1183_1"
   class="fil11"
   d="M 6.81,30.03 7.49,30.28 7.4,30.21 C 7.35,30.06 7.26,29.91 7.14,29.81 6.67,29.41 5.94,29.63 5.83,29.88 5.81,29.93 5.81,30.04 5.81,30.09 6.04,31.83 5.78,29.76 6.82,30.04 Z"
   data-name="Path 1183" />
   <path
   id="Path_1184"
   class="fil14"
   d="m 7.25,30.53 c 0,0 0.11,-0.19 -0.19,-0.48 -0.3,-0.29 -0.65,0.2 -0.65,0.2 0,0 0.31,0.45 0.84,0.28 z"
   data-name="Path 1184" />
   <path
   class="fil15 str0"
   d="M 5.64,32.46 C 5.51,32.75 4.69,33.88 4.42,33.55 3.9,32.9 4.76,32.48 4.99,32.31 5.21,32.15 5.58,31.74 5.77,31.79 6.17,31.9 5.7,32.32 5.64,32.46 Z"
   id="path13" />
   <circle
   class="fil16"
   transform="matrix(-0.0150806,-0.013538,-0.013538,0.0150806,6.90476,30.2214)"
   r="7.4200001"
   id="circle13"
   cx="0"
   cy="0" />
   <path
   id="Path_1183_2"
   class="fil10"
   d="M 6.52,29.58 C 6.19,29.57 5.88,29.72 5.82,29.87 5.8,29.92 5.8,30.03 5.8,30.08 5.93,29.9 6.24,29.7 6.52,29.58 Z"
   data-name="Path 1183" />
  </g>
  
 </g>
</svg>
