<?xml version="1.0" encoding="UTF-8"?>
<!DOCTYPE svg PUBLIC "-//W3C//DTD SVG 1.1//EN" "http://www.w3.org/Graphics/SVG/1.1/DTD/svg11.dtd">
<!--Creator: CorelDRAW-->
<svg xmlns="http://www.w3.org/2000/svg" xml:space="preserve" width="12.3102mm" height="12.3102mm" version="1.1" style="shape-rendering:geometricPrecision;text-rendering:geometricPrecision;image-rendering:optimizeQuality;fill-rule:evenodd;clip-rule:evenodd" viewBox="0 0 262.95 262.95" xmlns:xlink="http://www.w3.org/1999/xlink" xmlns:xodm="http://www.corel.com/coreldraw/odm/2003">
    <g id="Ebene_x0020_1">
        <metadata id="CorelCorpID_0Corel-Layer"/>
        <g id="_105553249489824">
            <path d="M131.47 262.95c-72.61,0 -131.47,-58.86 -131.47,-131.47 0,-72.61 58.86,-131.47 131.47,-131.47 72.61,0 131.47,58.86 131.47,131.47 0,72.61 -58.86,131.47 -131.47,131.47z" style="fill:#336699"/>
            <path d="M221.07 182.58c1.67,10.2 -7.75,7.76 -8.85,9.97 -0.97,1.95 -7.27,24.36 0.22,19.94 4.89,-2.89 12.4,-23.04 9.9,-28.56 -0.5,-1.1 -1.11,-0.38 -1.27,-1.35zm-181.52 42.87c-17.97,-17.59 -30.92,-40.28 -36.5,-65.74 0.45,-1.84 1.72,-2.69 4.49,-2.45 2.78,0.24 14.57,8.53 17.89,9.53 2.64,0.79 6.22,6.08 6.42,7.8 0.43,3.85 4.18,6.06 4.45,7.29 1.31,6.09 10.27,5.58 13.18,8.2 4.11,3.71 11.5,4.8 7.28,11.86 -0.07,0.68 -1.5,5.83 -2.07,6.37 -3.38,3.21 -1.55,9.03 -0.29,10.1 2.33,1.99 0.32,2.22 -0.61,3.4 -2.51,3.17 -8.84,4.38 -14.23,3.64zm-37.75 -115.7c3.55,-21.34 12.24,-40.95 24.75,-57.5 0.88,-0.25 1.79,-0.39 2.71,-0.39 0.92,0 1.28,0.28 1.44,0.96 0.45,1.99 -0.93,7.28 1.67,10.94 2.71,3.82 -1.32,7.85 -5.06,8.86 -1.41,0.38 -12.44,6.39 -6.36,6.39 6,0 -5.18,12.86 -6.68,14.7 -3.98,4.86 -6.4,13.79 -6.1,20.15 0.07,1.5 -2.5,27.09 -3.49,13.71 -0.31,-4.13 -2.35,-11.39 -2.9,-17.82zm46.41 -80.02c9.86,-8.08 20.92,-14.75 32.87,-19.72 1.13,0.54 2.13,0.68 2.83,-0.15 0.01,-0.01 3.97,-1.32 3.91,-0.44 -0.12,1.69 -2.16,4.21 -3.84,4.14 -3.18,-0.13 -12.21,8.22 -13.59,11.79 -1.03,2.68 -5.23,5.9 -6.28,8.87 -0.77,2.17 -5.03,4.8 -7.3,4.8 -4.88,0 -2.18,-1.29 -4.55,-2.17 -1.35,-0.5 -1.01,0.89 -3.05,-1.67 -0.35,-0.43 -1.07,-2.99 -1.01,-5.46zm154.22 -8.95c29.78,19.13 51.32,49.94 58.18,85.97 -0.24,3.23 -0.56,6.6 -0.56,10.27 0,4.06 0.13,12.48 1.12,16.28 -1.98,-7.59 -11.08,-21.15 -18.6,-23.75 -7.51,-2.6 -3.44,0.24 -11.77,-4.81 -6.43,-3.9 -10.52,-4.44 -4.07,3.58 5.23,6.51 4.59,-2.28 11.06,9.48 4.6,8.36 -4.85,8.8 -8.38,12.37 -2.8,2.83 -12.09,3.22 -14.74,-2.13 -4.16,-8.37 -3.26,-10.27 -10.79,-17.44 -4.18,-3.97 -8.36,-11.88 -8.36,-17.63 0,-1.54 0.7,-8.13 -0.9,-8.06 -7.45,0.29 -8,3.55 -12.43,-7.17 -2.61,-6.32 4.85,-8.96 10.19,-8.96 2.89,0 8.03,-1.35 8.07,-1.34 1.5,-5.83 0.09,-0.05 -2.84,-2.98 -3.99,-3.99 7.7,-9.4 -5.22,-7.81 -3.87,0.48 -10.21,5.34 -11.31,9 -1.89,6.25 -10.62,1.15 -10.19,12.1 0.05,1.23 -3.42,2.64 -4.44,-3.62 -0.01,-0.03 -3.97,-4.43 -4.52,-6.2 -1.99,-6.36 -19.2,-14.76 -11.94,-5.08 3.32,4.42 13.42,14.15 2.05,12.7 -3.45,-0.44 4.4,-6.31 -0.41,-6.31 -2.26,0 -4.36,-1.95 -5.67,-3.7 -5.36,-7.14 -13.73,-0.28 -19.91,3.1 -4.06,2.23 -3.2,11.91 -18.33,10.05 -6.79,-0.84 -1.96,-3.18 -5.98,-6.61 -0.15,-0.13 -1.1,-7.18 0.6,-7.77 3.74,-1.29 6.95,-4.2 11.2,-4.03 0.93,0.04 8.39,-3.55 4.33,-7.01 -2.81,-2.4 6.28,-6.41 8.33,-8.07 1.53,-1.23 15.93,-10.59 16.91,-7.77 1.83,5.27 19.74,8.6 16.5,-7.09 -8.51,-1.77 -3.16,5.89 -10.27,4.44 -3.05,-0.62 0.84,-5.53 -9.78,-7.69 -1.33,-0.27 -11.72,1.89 -1.72,-5.63 5.08,-3.82 17.58,-7.32 24.08,-7.32 6.02,0 12.31,1.04 17.77,0.41 10.66,-1.24 6.13,2.26 12.7,6.76 4.57,3.13 6.56,0.07 10.04,-0.5zm-87.88 6.85c-0.69,1.87 -0.42,4.54 0.98,5.87 0.95,0.91 6.82,7.66 6.82,8.36 0,3.3 -3.91,1.47 -6.17,2.9 -0.84,0.53 -8.64,1.89 -6.55,-0.42 1.1,-1.22 3.49,-2.09 2.23,-4.22 -0.29,-0.49 -0.08,-5.78 -0.09,-5.81 -2.21,-0.76 -0.46,-1.51 -1.6,-3.2 -1.33,-1.99 0.75,-3.87 2.05,-4.85 1.27,-0.96 0.46,0.32 2.05,1.11 0.01,0 0.25,0.31 0.26,0.26zm109.2 114.41c-4.81,0.45 -10.51,4.01 -12.06,-5.19 -0.28,-1.65 -11.78,-11.76 -13.93,-20.12 -0.32,-1.26 -5.41,-12.95 -6.16,-14.45 -0.05,-0.1 -21,-8.85 -24.8,-8.85 -6.32,0 -15.93,2.73 -19.68,-1.34 -3.39,-3.68 -2.3,-0.45 -4.15,-5.82 -3.17,-9.23 -21.74,-3.5 -28.19,-1.79 -4.43,1.17 -1.36,1.28 -8.89,2.2 -5.76,0.71 -12.63,17.83 -15.98,19.42 -11.64,5.52 3.15,41.9 10.15,45.07 11.73,5.3 24.42,-4.33 26.14,-2.32 5.4,6.33 12.87,-2.06 14.75,6.09 1.21,5.25 2.17,2.89 2.54,9.7 0.41,7.66 8.23,5.84 6.8,24.19 -0.32,4.15 -2.14,15.34 0.26,18.52 3.04,4.04 7.74,16.77 7.32,21.84 -0.18,2.24 8.25,1.93 12.37,-1.23 2.3,-1.77 14.84,-10.08 16.16,-11.47 5.18,-5.46 6.48,-0.24 5.98,-11.94 -0.21,-5.01 15.43,-10.32 12.51,-24.6 -1.94,-9.5 7.57,-13.04 11.09,-21.96 0.88,-2.22 10.08,-16.16 7.77,-15.95z" style="fill:#CCCC33"/>
        </g>
    </g>
</svg>
