# This file uses centimeters as units for non-parametric coordinates.

mtllib argynnis paphia.mtl
v 0.059129 0.027176 -0.582846
v -0.059129 0.027176 -0.582846
v 0.000000 -0.075238 -0.668197
v 0.083245 0.048062 0.302546
v -0.083245 0.048062 0.302546
v 0.000000 -0.096123 0.214901
v 0.051256 0.020359 -0.220673
v 0.000000 -0.068420 -0.220673
v -0.051256 0.020359 -0.220673
v 0.000000 0.000000 0.122751
v -0.738900 0.086742 0.801237
v -1.306638 0.153391 0.958372
v -1.447232 0.169896 0.703426
v -1.284341 0.150774 0.294515
v -0.975236 0.114487 -0.014005
v 0.000000 0.000000 -0.204925
v -0.629412 0.073889 -0.963158
v -1.056212 0.123993 -0.553677
v -1.108349 0.130113 0.930271
v -0.900615 0.105727 -0.797238
v -0.369450 0.043371 0.541190
v -0.402093 0.047203 -0.939650
v -1.437462 0.168749 0.856895
v -1.341826 0.157522 0.550681
v -1.151696 0.135202 0.070769
v -1.086311 0.127526 -0.271708
v -0.167395 0.019651 -0.598629
v 0.738900 0.086742 0.801237
v 1.306638 0.153391 0.958372
v 1.447232 0.169896 0.703426
v 1.284341 0.150774 0.294515
v 0.975236 0.114487 -0.014005
v 0.629412 0.073889 -0.963158
v 1.056212 0.123993 -0.553677
v 1.108349 0.130113 0.930271
v 0.900615 0.105727 -0.797238
v 0.369450 0.043371 0.541190
v 0.402093 0.047203 -0.939650
v 1.437462 0.168749 0.856895
v 1.341826 0.157522 0.550681
v 1.151696 0.135202 0.070769
v 1.086311 0.127526 -0.271708
v 0.167395 0.019651 -0.598629
vt 0.541707 0.152970
vt 0.585549 0.107032
vt 0.511260 0.080082
vt 0.464689 0.170887
vt 0.883898 0.495934
vt 0.945701 0.431178
vt 0.960352 0.331431
vt 0.981139 0.526674
vt 0.688089 0.286971
vt 0.763619 0.203732
vt 0.726708 0.245910
vt 0.647833 0.325966
vt 0.785069 0.515676
vt 0.599436 0.029207
vt 0.636707 0.462362
vt 0.484680 0.452735
vt 0.844270 0.682371
vt 0.765358 0.546604
vt 0.487614 0.346028
vt 0.412563 0.226311
vt 0.303178 0.135126
vt 0.255634 0.046178
vt 0.179112 0.013040
vt 0.097600 0.051582
vt 0.061879 0.154909
vt 0.032341 0.366357
vt 0.856961 0.855166
vt 0.066055 0.610148
vt 0.176240 0.893043
vt 0.566126 0.989762
vt 0.789107 0.959864
vt 0.334439 0.973939
vt 0.636629 0.461842
vt 0.765409 0.545887
vt 0.844528 0.681533
vt 0.484587 0.452448
vt 0.302600 0.135116
vt 0.412125 0.226134
vt 0.487359 0.345736
vt 0.096896 0.051887
vt 0.178348 0.013219
vt 0.254921 0.046241
vt 0.061332 0.155268
vt 0.032117 0.366760
vt 0.857484 0.854309
vt 0.176821 0.893226
vt 0.066204 0.610500
vt 0.566854 0.989350
vt 0.789789 0.959110
vt 0.335144 0.973880
vn 0.000000 0.999823 0.018821
vn 0.000000 0.999823 0.018821
vn 0.000000 0.999626 -0.027338
vn 0.000000 0.999626 -0.027338
vn -0.864366 -0.502793 0.008404
vn -0.864366 -0.502793 0.008404
vn -0.868093 -0.496208 -0.013887
vn -0.868099 -0.496197 -0.013925
vn 0.864366 -0.502793 0.008404
vn 0.864366 -0.502794 0.008404
vn 0.868099 -0.496197 -0.013925
vn 0.868093 -0.496208 -0.013887
vn 0.000000 0.640212 -0.768198
vn 0.000000 0.640212 -0.768198
vn 0.000000 0.640212 -0.768198
vn 0.000000 -0.519428 0.854514
vn 0.000000 -0.519428 0.854514
vn 0.000000 -0.519428 0.854514
vn 0.870352 -0.491573 -0.029038
vn 0.870352 -0.491573 -0.029038
vn -0.870352 -0.491573 -0.029038
vn -0.870352 -0.491573 -0.029038
vn 0.000000 0.998601 -0.052874
vn 0.000000 0.998601 -0.052874
vn 0.116593 0.993180 -0.000000
vn 0.116593 0.993180 0.000000
vn 0.116593 0.993180 -0.000000
vn 0.116593 0.993180 -0.000000
vn 0.116593 0.993180 -0.000000
vn 0.116593 0.993180 -0.000000
vn 0.116593 0.993180 0.000000
vn 0.116592 0.993180 0.000001
vn 0.116592 0.993180 0.000001
vn 0.116593 0.993180 0.000000
vn 0.116593 0.993180 0.000000
vn 0.116593 0.993180 0.000000
vn 0.116593 0.993180 -0.000000
vn 0.116593 0.993180 0.000000
vn 0.116593 0.993180 0.000000
vn 0.116593 0.993180 0.000000
vn 0.116593 0.993180 -0.000000
vn 0.116593 0.993180 0.000000
vn -0.116593 0.993180 -0.000000
vn -0.116593 0.993180 -0.000000
vn -0.116593 0.993180 -0.000000
vn -0.116593 0.993180 0.000000
vn -0.116593 0.993180 0.000000
vn -0.116593 0.993180 -0.000000
vn -0.116593 0.993180 -0.000000
vn -0.116593 0.993180 0.000000
vn -0.116592 0.993180 0.000001
vn -0.116592 0.993180 0.000001
vn -0.116593 0.993180 0.000000
vn -0.116593 0.993180 0.000000
vn -0.116593 0.993180 -0.000000
vn -0.116593 0.993180 0.000000
vn -0.116593 0.993180 0.000000
vn -0.116593 0.993180 0.000000
vn -0.116593 0.993180 -0.000000
vn -0.116593 0.993180 0.000000
s 1
usemtl initialShadingGroup
f 1/1/1 2/2/2 9/11/3 7/9/4
s 2
f 2/2/5 3/14/6 8/10/7 9/11/8
s 3
f 3/4/9 1/1/10 7/9/11 8/12/12
s off
f 2/2/13 1/1/14 3/3/15
f 6/8/16 4/5/17 5/6/18
s 3
f 8/12/12 7/9/11 4/5/19 6/13/20
s 2
f 9/11/8 8/10/7 6/7/21 5/6/22
s 1
f 7/9/4 9/11/3 5/6/23 4/5/24
s 4
f 26/15/25 15/16/26 20/17/27 18/18/28
f 15/16/26 25/19/29 14/20/30 24/21/31
f 24/21/31 13/22/32 23/23/33 12/24/34
f 15/16/26 24/21/31 12/24/34 19/25/35
f 19/25/35 11/26/36 15/16/26
f 15/16/26 17/27/37 20/17/27
f 11/26/36 21/28/38 10/29/39 15/16/26
f 27/30/40 22/31/41 17/27/37 15/16/26
f 10/29/39 16/32/42 27/30/40 15/16/26
s 6
f 42/33/43 34/34/44 36/35/45 32/36/46
f 32/36/46 40/37/47 31/38/48 41/39/49
f 40/37/47 29/40/50 39/41/51 30/42/52
f 32/36/46 35/43/53 29/40/50 40/37/47
f 35/43/53 32/36/46 28/44/54
f 32/36/46 36/35/45 33/45/55
f 28/44/54 32/36/46 10/46/56 37/47/57
f 43/48/58 32/36/46 33/45/55 38/49/59
f 10/46/56 32/36/46 43/48/58 16/50/60
