# Blender 4.0.2
# www.blender.org
mtllib lod_mesh_10x10.mtl
o Plane_Plane.001
v -5.000000 0.000000 5.000000
v 5.000000 0.000000 5.000000
v -5.000000 -0.000000 -5.000000
v 5.000000 -0.000000 -5.000000
v -5.000000 -0.000000 -4.000000
v -5.000000 -0.000000 -3.000000
v -5.000000 -0.000000 -2.000000
v -5.000000 -0.000000 -1.000000
v -5.000000 -0.000000 0.000000
v -5.000000 0.000000 1.000000
v -5.000000 0.000000 2.000000
v -5.000000 0.000000 3.000000
v -5.000000 0.000000 4.000000
v 5.000000 0.000000 4.000000
v 5.000000 0.000000 3.000000
v 5.000000 0.000000 2.000000
v 5.000000 0.000000 1.000000
v 5.000000 -0.000000 0.000000
v 5.000000 -0.000000 -1.000000
v 5.000000 -0.000000 -2.000000
v 5.000000 -0.000000 -3.000000
v 5.000000 -0.000000 -4.000000
v -4.000000 0.000000 5.000000
v -3.000000 0.000000 5.000000
v -2.000000 0.000000 5.000000
v -1.000000 0.000000 5.000000
v -0.000000 0.000000 5.000000
v 1.000000 0.000000 5.000000
v 2.000000 0.000000 5.000000
v 3.000000 0.000000 5.000000
v 4.000000 0.000000 5.000000
v 4.000000 -0.000000 -5.000000
v 3.000000 -0.000000 -5.000000
v 2.000000 -0.000000 -5.000000
v 1.000000 -0.000000 -5.000000
v -0.000000 -0.000000 -5.000000
v -1.000000 -0.000000 -5.000000
v -2.000000 -0.000000 -5.000000
v -3.000000 -0.000000 -5.000000
v -4.000000 -0.000000 -5.000000
v 4.000000 0.000000 4.000000
v 3.000000 0.000000 4.000000
v 2.000000 0.000000 4.000000
v 1.000000 0.000000 4.000000
v -0.000000 0.000000 4.000000
v -1.000000 0.000000 4.000000
v -2.000000 0.000000 4.000000
v -3.000000 0.000000 4.000000
v -4.000000 0.000000 4.000000
v 4.000000 0.000000 3.000000
v 3.000000 0.000000 3.000000
v 2.000000 0.000000 3.000000
v 1.000000 0.000000 3.000000
v -0.000000 0.000000 3.000000
v -1.000000 0.000000 3.000000
v -2.000000 0.000000 3.000000
v -3.000000 0.000000 3.000000
v -4.000000 0.000000 3.000000
v 4.000000 0.000000 2.000000
v 3.000000 0.000000 2.000000
v 2.000000 0.000000 2.000000
v 1.000000 0.000000 2.000000
v -0.000000 0.000000 2.000000
v -1.000000 0.000000 2.000000
v -2.000000 0.000000 2.000000
v -3.000000 0.000000 2.000000
v -4.000000 0.000000 2.000000
v 4.000000 0.000000 1.000000
v 3.000000 0.000000 1.000000
v 2.000000 0.000000 1.000000
v 1.000000 0.000000 1.000000
v -0.000000 0.000000 1.000000
v -1.000000 0.000000 1.000000
v -2.000000 0.000000 1.000000
v -3.000000 0.000000 1.000000
v -4.000000 0.000000 1.000000
v 4.000000 -0.000000 0.000000
v 3.000000 -0.000000 0.000000
v 2.000000 -0.000000 0.000000
v 1.000000 -0.000000 0.000000
v -0.000000 -0.000000 0.000000
v -1.000000 -0.000000 0.000000
v -2.000000 -0.000000 0.000000
v -3.000000 -0.000000 0.000000
v -4.000000 -0.000000 0.000000
v 4.000000 -0.000000 -1.000000
v 3.000000 -0.000000 -1.000000
v 2.000000 -0.000000 -1.000000
v 1.000000 -0.000000 -1.000000
v -0.000000 -0.000000 -1.000000
v -1.000000 -0.000000 -1.000000
v -2.000000 -0.000000 -1.000000
v -3.000000 -0.000000 -1.000000
v -4.000000 -0.000000 -1.000000
v 4.000000 -0.000000 -2.000000
v 3.000000 -0.000000 -2.000000
v 2.000000 -0.000000 -2.000000
v 1.000000 -0.000000 -2.000000
v -0.000000 -0.000000 -2.000000
v -1.000000 -0.000000 -2.000000
v -2.000000 -0.000000 -2.000000
v -3.000000 -0.000000 -2.000000
v -4.000000 -0.000000 -2.000000
v 4.000000 -0.000000 -3.000000
v 3.000000 -0.000000 -3.000000
v 2.000000 -0.000000 -3.000000
v 1.000000 -0.000000 -3.000000
v -0.000000 -0.000000 -3.000000
v -1.000000 -0.000000 -3.000000
v -2.000000 -0.000000 -3.000000
v -3.000000 -0.000000 -3.000000
v -4.000000 -0.000000 -3.000000
v 4.000000 -0.000000 -4.000000
v 3.000000 -0.000000 -4.000000
v 2.000000 -0.000000 -4.000000
v 1.000000 -0.000000 -4.000000
v -0.000000 -0.000000 -4.000000
v -1.000000 -0.000000 -4.000000
v -2.000000 -0.000000 -4.000000
v -3.000000 -0.000000 -4.000000
v -4.000000 -0.000000 -4.000000
v -5.026276 0.000000 5.026276
v 5.026276 0.000000 5.026276
v -5.026276 -0.000000 -5.026276
v 5.026276 -0.000000 -5.026276
v -5.026276 -0.000000 -4.021021
v -5.026276 -0.000000 -3.015766
v -5.026276 -0.000000 -2.010510
v -5.026276 -0.000000 -1.005255
v -5.026276 -0.000000 0.000000
v -5.026276 0.000000 1.005255
v -5.026276 0.000000 2.010510
v -5.026276 0.000000 3.015766
v -5.026276 0.000000 4.021021
v 5.026276 0.000000 4.021021
v 5.026276 0.000000 3.015766
v 5.026276 0.000000 2.010510
v 5.026276 0.000000 1.005255
v 5.026276 -0.000000 0.000000
v 5.026276 -0.000000 -1.005255
v 5.026276 -0.000000 -2.010510
v 5.026276 -0.000000 -3.015766
v 5.026276 -0.000000 -4.021021
v -4.021021 0.000000 5.026276
v -3.015766 0.000000 5.026276
v -2.010510 0.000000 5.026276
v -1.005255 0.000000 5.026276
v -0.000000 0.000000 5.026276
v 1.005255 0.000000 5.026276
v 2.010510 0.000000 5.026276
v 3.015766 0.000000 5.026276
v 4.021021 0.000000 5.026276
v 4.021021 -0.000000 -5.026276
v 3.015766 -0.000000 -5.026276
v 2.010510 -0.000000 -5.026276
v 1.005255 -0.000000 -5.026276
v -0.000000 -0.000000 -5.026276
v -1.005255 -0.000000 -5.026276
v -2.010510 -0.000000 -5.026276
v -3.015766 -0.000000 -5.026276
v -4.021021 -0.000000 -5.026276
vn -0.0000 1.0000 -0.0000
vt 0.900003 0.600000
vt 0.900003 0.700001
vt 0.800002 0.700001
vt 0.800002 0.600000
vt 0.600000 0.299998
vt 0.600000 0.399999
vt 0.499999 0.399999
vt 0.499999 0.299998
vt 0.099997 1.000003
vt 0.099997 0.900002
vt 0.199998 0.900003
vt 0.199997 1.000003
vt 1.000003 0.800002
vt 1.000003 0.700001
vt 1.499994 0.899998
vt 1.499995 1.099997
vt 0.600000 -0.000005
vt 0.699998 -0.499995
vt 0.899998 -0.499995
vt 0.700001 -0.000004
vt 0.700001 0.700001
vt 0.700001 0.800002
vt 0.600001 0.800002
vt 0.600001 0.700001
vt 0.700002 1.000003
vt 0.899999 1.499994
vt 0.700000 1.499994
vt 0.600001 1.000004
vt 0.299998 0.399999
vt 0.299998 0.500000
vt 0.199997 0.500000
vt 0.199997 0.399999
vt 0.900003 0.800002
vt 0.900002 0.900002
vt 0.800002 0.900002
vt 0.800002 0.800002
vt 0.700002 0.900002
vt -0.099998 1.499996
vt -0.299998 1.499998
vt 0.500001 1.499994
vt 0.500000 1.000004
vt 1.000004 0.499999
vt 1.000004 0.600000
vt 0.900003 0.499999
vt 1.499997 1.299997
vt 1.000002 0.900002
vt 0.500000 0.800002
vt 0.500000 0.700001
vt 1.000004 0.399998
vt 0.900003 0.399998
vt 0.700001 0.099996
vt 0.600000 0.099996
vt 0.600000 0.199997
vt 0.499999 0.199997
vt 1.499994 0.699999
vt 0.500000 0.500000
vt 0.399999 0.500000
vt 0.399999 0.399999
vt -0.000004 0.700002
vt -0.499995 0.899999
vt -0.499995 0.700000
vt -0.000005 0.600001
vt -0.000005 0.500000
vt -0.499994 0.500000
vt -0.499994 0.300001
vt -0.000005 0.399999
vt 0.299998 0.800002
vt 0.399999 0.800002
vt 0.399999 0.900003
vt 0.299998 0.900003
vt 0.700001 0.299998
vt 0.800002 0.299998
vt 0.800002 0.399999
vt 0.700001 0.399999
vt 0.800002 0.499999
vt -0.000003 0.900003
vt -0.499997 1.299999
vt -0.499996 1.099999
vt -0.000003 0.800003
vt 0.099996 0.500000
vt 0.199997 0.600001
vt 0.099996 0.600001
vt 0.399999 0.700001
vt 0.099997 0.700002
vt 0.099997 0.800002
vt 0.600000 0.500000
vt 0.700001 0.499999
vt 0.700001 0.600000
vt 0.600001 0.600000
vt 0.900003 1.000002
vt 1.000002 1.000001
vt 0.299997 -0.000004
vt 0.299998 0.099997
vt 0.199997 0.099997
vt 0.199997 -0.000003
vt 0.500000 0.600000
vt 0.399998 0.099996
vt 0.499999 0.099996
vt 0.399999 0.199997
vt 0.700001 0.199997
vt 0.099996 0.299998
vt 0.099996 0.399999
vt -0.000004 0.299998
vt -0.000002 1.000002
vt 0.900002 -0.000003
vt 0.900002 0.099997
vt 0.800002 0.099997
vt 0.800002 -0.000004
vt 0.199997 0.199998
vt 0.099997 0.199998
vt 0.099997 0.099997
vt 0.500000 0.900003
vt 0.600001 0.900003
vt 0.900002 0.199997
vt 0.900002 0.299998
vt 0.800002 0.199997
vt 0.299998 1.000004
vt 0.100002 1.499995
vt 0.800003 1.000003
vt 1.099999 1.499995
vt 0.399999 0.600000
vt 0.299998 0.600001
vt 0.399998 -0.000005
vt 0.299999 -0.499994
vt 0.499999 -0.499994
vt 0.499999 -0.000005
vt 0.199997 0.299998
vt -0.000004 0.199997
vt -0.499995 0.100001
vt -0.499996 -0.099998
vt 0.399999 0.299998
vt 0.299998 0.299998
vt 0.299998 0.199997
vt 0.099997 -0.000003
vt 0.199998 0.800002
vt 0.399999 1.000004
vt -0.000003 0.099997
vt -0.499998 -0.299998
vt -0.500000 -0.499998
vt -0.000003 -0.000002
vt -0.499999 1.500000
vt 1.499994 0.300000
vt 1.499994 0.499999
vt 1.000002 0.099996
vt 1.499997 -0.299999
vt 1.499995 -0.099999
vt 1.000003 0.199996
vt 1.299998 -0.499998
vt 1.499999 -0.500000
vt 1.000001 -0.000003
vt 1.499999 1.499998
vt 0.299998 0.700001
vt 0.199997 0.700001
vt 1.000003 0.299997
vt 1.499994 0.100000
vt 1.299999 1.499996
vt 0.300001 1.499994
vt 1.099998 -0.499996
vt -0.299999 -0.499997
vt -0.099999 -0.499995
vt 0.100000 -0.499994
s 0
usemtl None
f 86/1/1 95/2/1 96/3/1 87/4/1
f 62/5/1 71/6/1 72/7/1 63/8/1
f 40/9/1 121/10/1 120/11/1 39/12/1
f 21/13/1 20/14/1 141/15/1 142/16/1
f 28/17/1 149/18/1 150/19/1 29/20/1
f 97/21/1 106/22/1 107/23/1 98/24/1
f 34/25/1 155/26/1 156/27/1 35/28/1
f 74/29/1 83/30/1 84/31/1 75/32/1
f 104/33/1 113/34/1 114/35/1 105/36/1
f 106/22/1 105/36/1 114/35/1 115/37/1
f 40/9/1 39/12/1 160/38/1 161/39/1
f 35/28/1 156/27/1 157/40/1 36/41/1
f 18/42/1 19/43/1 86/1/1 77/44/1
f 21/13/1 142/16/1 143/45/1 22/46/1
f 98/24/1 107/23/1 108/47/1 99/48/1
f 17/49/1 18/42/1 77/44/1 68/50/1
f 28/17/1 29/20/1 43/51/1 44/52/1
f 96/3/1 95/2/1 104/33/1 105/36/1
f 53/53/1 62/5/1 63/8/1 54/54/1
f 19/43/1 140/55/1 141/15/1 20/14/1
f 81/56/1 82/57/1 73/58/1 72/7/1
f 7/59/1 128/60/1 129/61/1 8/62/1
f 9/63/1 130/64/1 131/65/1 10/66/1
f 110/67/1 109/68/1 118/69/1 119/70/1
f 61/71/1 60/72/1 69/73/1 70/74/1
f 69/73/1 68/50/1 77/44/1 78/75/1
f 5/76/1 126/77/1 127/78/1 6/79/1
f 85/80/1 84/31/1 93/81/1 94/82/1
f 99/48/1 108/47/1 109/68/1 100/83/1
f 7/59/1 103/84/1 112/85/1 6/79/1
f 73/58/1 82/57/1 83/30/1 74/29/1
f 80/86/1 79/87/1 88/88/1 89/89/1
f 61/71/1 70/74/1 71/6/1 62/5/1
f 32/90/1 113/34/1 22/46/1 4/91/1
f 25/92/1 47/93/1 48/94/1 24/95/1
f 72/7/1 71/6/1 80/86/1 81/56/1
f 89/89/1 90/96/1 81/56/1 80/86/1
f 46/97/1 45/98/1 54/54/1 55/99/1
f 43/51/1 52/100/1 53/53/1 44/52/1
f 89/89/1 98/24/1 99/48/1 90/96/1
f 67/101/1 76/102/1 10/66/1 11/103/1
f 121/10/1 40/9/1 3/104/1 5/76/1
f 31/105/1 41/106/1 42/107/1 30/108/1
f 57/109/1 58/110/1 49/111/1 48/94/1
f 117/112/1 116/113/1 35/28/1 36/41/1
f 50/114/1 59/115/1 60/72/1 51/116/1
f 38/117/1 159/118/1 160/38/1 39/12/1
f 33/119/1 154/120/1 155/26/1 34/25/1
f 83/30/1 82/57/1 91/121/1 92/122/1
f 59/115/1 68/50/1 69/73/1 60/72/1
f 26/123/1 147/124/1 148/125/1 27/126/1
f 57/109/1 66/127/1 67/101/1 58/110/1
f 12/128/1 11/103/1 132/129/1 133/130/1
f 64/131/1 63/8/1 72/7/1 73/58/1
f 53/53/1 52/100/1 61/71/1 62/5/1
f 67/101/1 11/103/1 12/128/1 58/110/1
f 65/132/1 66/127/1 57/109/1 56/133/1
f 23/134/1 24/95/1 48/94/1 49/111/1
f 45/98/1 44/52/1 53/53/1 54/54/1
f 110/67/1 119/70/1 120/11/1 111/135/1
f 118/69/1 117/112/1 36/41/1 37/136/1
f 120/11/1 119/70/1 38/117/1 39/12/1
f 94/82/1 8/62/1 9/63/1 85/80/1
f 79/87/1 78/75/1 87/4/1 88/88/1
f 13/137/1 134/138/1 122/139/1 1/140/1
f 40/9/1 161/39/1 124/141/1 3/104/1
f 17/49/1 138/142/1 139/143/1 18/42/1
f 25/92/1 26/123/1 46/97/1 47/93/1
f 14/144/1 135/145/1 136/146/1 15/147/1
f 10/66/1 76/102/1 85/80/1 9/63/1
f 41/106/1 50/114/1 51/116/1 42/107/1
f 12/128/1 133/130/1 134/138/1 13/137/1
f 78/75/1 77/44/1 86/1/1 87/4/1
f 109/68/1 108/47/1 117/112/1 118/69/1
f 31/105/1 152/148/1 123/149/1 2/150/1
f 49/111/1 58/110/1 12/128/1 13/137/1
f 6/79/1 127/78/1 128/60/1 7/59/1
f 112/85/1 111/135/1 120/11/1 121/10/1
f 22/46/1 143/45/1 125/151/1 4/91/1
f 86/1/1 19/43/1 20/14/1 95/2/1
f 121/10/1 5/76/1 6/79/1 112/85/1
f 2/150/1 123/149/1 135/145/1 14/144/1
f 93/81/1 92/122/1 101/152/1 102/153/1
f 29/20/1 30/108/1 42/107/1 43/51/1
f 91/121/1 90/96/1 99/48/1 100/83/1
f 16/154/1 137/155/1 138/142/1 17/49/1
f 26/123/1 27/126/1 45/98/1 46/97/1
f 113/34/1 32/90/1 33/119/1 114/35/1
f 32/90/1 153/156/1 154/120/1 33/119/1
f 115/37/1 34/25/1 35/28/1 116/113/1
f 37/136/1 158/157/1 159/118/1 38/117/1
f 31/105/1 2/150/1 14/144/1 41/106/1
f 83/30/1 92/122/1 93/81/1 84/31/1
f 94/82/1 103/84/1 7/59/1 8/62/1
f 54/54/1 63/8/1 64/131/1 55/99/1
f 10/66/1 131/65/1 132/129/1 11/103/1
f 51/116/1 60/72/1 61/71/1 52/100/1
f 56/133/1 55/99/1 64/131/1 65/132/1
f 16/154/1 15/147/1 136/146/1 137/155/1
f 42/107/1 51/116/1 52/100/1 43/51/1
f 101/152/1 100/83/1 109/68/1 110/67/1
f 30/108/1 151/158/1 152/148/1 31/105/1
f 71/6/1 70/74/1 79/87/1 80/86/1
f 46/97/1 55/99/1 56/133/1 47/93/1
f 16/154/1 59/115/1 50/114/1 15/147/1
f 75/32/1 84/31/1 85/80/1 76/102/1
f 23/134/1 144/159/1 145/160/1 24/95/1
f 102/153/1 111/135/1 112/85/1 103/84/1
f 104/33/1 21/13/1 22/46/1 113/34/1
f 28/17/1 44/52/1 45/98/1 27/126/1
f 1/140/1 122/139/1 144/159/1 23/134/1
f 101/152/1 110/67/1 111/135/1 102/153/1
f 25/92/1 146/161/1 147/124/1 26/123/1
f 28/17/1 27/126/1 148/125/1 149/18/1
f 67/101/1 66/127/1 75/32/1 76/102/1
f 25/92/1 24/95/1 145/160/1 146/161/1
f 101/152/1 92/122/1 91/121/1 100/83/1
f 3/104/1 124/141/1 126/77/1 5/76/1
f 69/73/1 78/75/1 79/87/1 70/74/1
f 18/42/1 139/143/1 140/55/1 19/43/1
f 88/88/1 87/4/1 96/3/1 97/21/1
f 106/22/1 115/37/1 116/113/1 107/23/1
f 14/144/1 15/147/1 50/114/1 41/106/1
f 32/90/1 4/91/1 125/151/1 153/156/1
f 105/36/1 106/22/1 97/21/1 96/3/1
f 48/94/1 47/93/1 56/133/1 57/109/1
f 95/2/1 20/14/1 21/13/1 104/33/1
f 64/131/1 73/58/1 74/29/1 65/132/1
f 9/63/1 8/62/1 129/61/1 130/64/1
f 37/136/1 36/41/1 157/40/1 158/157/1
f 29/20/1 150/19/1 151/158/1 30/108/1
f 118/69/1 37/136/1 38/117/1 119/70/1
f 59/115/1 16/154/1 17/49/1 68/50/1
f 97/21/1 98/24/1 89/89/1 88/88/1
f 81/56/1 90/96/1 91/121/1 82/57/1
f 93/81/1 102/153/1 103/84/1 94/82/1
f 1/140/1 23/134/1 49/111/1 13/137/1
f 115/37/1 114/35/1 33/119/1 34/25/1
f 65/132/1 74/29/1 75/32/1 66/127/1
f 107/23/1 116/113/1 117/112/1 108/47/1
