<?xml version="1.0" encoding="UTF-8" standalone="no"?>
<!--Creator: CorelDRAW 2021.5-->
<svg xml:space="preserve" width="318.2926" height="318.30429" version="1.1" style="clip-rule:evenodd;fill-rule:evenodd;image-rendering:optimizeQuality;shape-rendering:geometricPrecision;text-rendering:geometricPrecision" viewBox="0 0 272.06001 272.02285" id="svg182" sodipodi:docname="icons_map_layer(1).svg" xmlns:inkscape="http://www.inkscape.org/namespaces/inkscape" xmlns:sodipodi="http://sodipodi.sourceforge.net/DTD/sodipodi-0.dtd" xmlns="http://www.w3.org/2000/svg" xmlns:svg="http://www.w3.org/2000/svg">
    <sodipodi:namedview id="namedview182" pagecolor="#ffffff" bordercolor="#000000" borderopacity="0.25" inkscape:showpageshadow="2" inkscape:pageopacity="0.0" inkscape:pagecheckerboard="0" inkscape:deskcolor="#d1d1d1">
        <inkscape:page x="0" y="0" width="272.06" height="272.02286" id="page2" margin="0" bleed="0"/>
    </sodipodi:namedview>
    <defs id="defs1">
        <style type="text/css" id="style1">
            <![CDATA[.fil14{fill:#D9DADA}.fil15{fill:#C5C6C6}.fil19{fill:#B2B3B3}.fil12{fill:#9D9E9E}.fil20{fill:#FCD5A6}.fil11{fill:#D19563}.fil17{fill:#E31E24}.fil21{fill:#DBE285}.fil22{fill:#BBC274}.fil18{fill:#539433}.fil23{fill:#00A0E3}.fil8{fill:#008DD2}.fil9{fill:#8FA883}.fil7{fill:#ACD4DE}.fil6{fill:#ACDDA1}.fil16{fill:#BDBDBD}.fil10{fill:#CFCBC4}.fil4{fill:#EAEBD5}.fil3{fill:#ECEDD3}.fil5{fill:#EDEED6}.fil2{fill:#EDEFD4}.fil0{fill:#F0EBE2}.fil1{fill:#F1EEE9}.fil38{fill:#2B2A29;fill-rule:nonzero}.fil35{fill:black;fill-rule:nonzero}.fil24{fill:#00A0E3;fill-rule:nonzero;fill-opacity:0.400000}.fil26{fill:#FECC00;fill-opacity:0.501961}.fil39{fill:#F08143;fill-rule:nonzero;fill-opacity:0.501961}.fil29{fill:#748187;fill-rule:nonzero;fill-opacity:0.580392}.fil27{fill:#B1709C;fill-opacity:0.600000}.fil31{fill:#86755D;fill-rule:nonzero;fill-opacity:0.600000}.fil30{fill:black;fill-rule:nonzero;fill-opacity:0.600000}.fil32{fill:#86755D;fill-rule:nonzero;fill-opacity:0.611765}.fil25{fill:#00A0E3;fill-rule:nonzero;fill-opacity:0.701961}.fil28{fill:#AE4A84;fill-rule:nonzero;fill-opacity:0.729412}.fil33{fill:#61A375;fill-rule:nonzero;fill-opacity:0.760784}.fil34{fill:#AF9778;fill-rule:nonzero;fill-opacity:0.780392}]]>
        </style>
    </defs>
    <g id="Ebene_x0020_1" inkscape:label="Ebene 1" inkscape:groupmode="layer" transform="translate(-969.55992,-67.989977)">
        <metadata id="CorelCorpID_0Corel-Layer"/>
        <g id="_2130168594784">
            <circle cx="1105.59" cy="203.92" r="135.02" id="circle122" style="stroke:#EBECEC;stroke-width:2.02;stroke-miterlimit:22.9256;fill:#EBECEC"/>
        </g>
        <path d="m 1051.46,80.2 c 5.12,17.71 6.41,39.66 17.73,63.2 -6.56,38.66 -6.92,76.12 0.34,112.39 -24.77,-25.24 -47.16,-53.11 -74.31,-75.74 l -18.96,-15.02 c -1.68,5.61 -3.01,11.37 -3.96,17.25 l 19.34,4.92 c 25.65,32.39 51.29,46.44 76.94,75.02 14.83,23.78 4.7,56.69 18.88,75.51 5.93,0.8 11.98,1.22 18.13,1.22 l 0.16,-0.01 c -15.32,-18.89 -23.68,-55.95 -29.96,-75.73 -1.57,-4.96 85.46,23.11 126.42,35.02 2.52,-2.58 4.93,-5.25 7.24,-8.03 -29.51,-14.53 -99.58,-24.7 -130.82,-34.4 -17.99,-41.81 -1.2,-88.24 -2.94,-103.82 32.59,22.89 63.99,46.5 95.15,74.15 17.8,-9.09 45.08,-20.2 69.66,-27.56 -0.32,-8.29 -1.39,-16.39 -3.14,-24.23 -20.61,22.7 -44.2,30.89 -62.32,41.44 -33.66,-20.4 -62.56,-42.24 -97.41,-72.65 -2.34,-27.82 -14.62,-49.65 -16.44,-66.75 -3.3,1.15 -6.55,2.43 -9.73,3.82 z" id="path123" style="stroke:#B0CB1F;stroke-width:2.02;stroke-miterlimit:22.9256;fill:#B0CB1F"/>
        <path d="m 1056.62,137.45 c -11.11,18.88 14.43,39.98 29.98,24.44 13.33,-13.33 4.45,-36.66 -12.21,-36.66 -5.56,0 -13.33,5.56 -17.77,12.22 z" id="path124" style="fill:#B0CB1F;fill-rule:nonzero"/>
        <path d="m 1161.63,214.47 c -7.79,13.25 10.13,28.06 21.04,17.15 9.35,-9.35 3.12,-25.72 -8.57,-25.72 -3.9,0 -9.35,3.9 -12.47,8.57 z" id="path125" style="fill:#B0CB1F;fill-rule:nonzero"/>
        <path d="m 1060.9,253.09 c -8.31,14.13 10.8,29.92 22.44,18.29 9.97,-9.98 3.32,-27.43 -9.15,-27.43 -4.15,0 -9.97,4.15 -13.29,9.14 z" id="path126" style="fill:#B0CB1F;fill-rule:nonzero"/>
        <path d="m 983.03,178.22 c -7.03,11.96 9.14,25.32 18.99,15.47 8.43,-8.43 2.81,-23.2 -7.74,-23.2 -3.52,0 -8.44,3.51 -11.25,7.73 z" id="path127" style="fill:#B0CB1F;fill-rule:nonzero"/>
    </g>
</svg>
