<?xml version="1.0" encoding="UTF-8" standalone="no"?>
<!--Creator: CorelDRAW 2021.5-->
<svg xml:space="preserve" width="318.29263" height="318.2926" version="1.1" style="clip-rule:evenodd;fill-rule:evenodd;image-rendering:optimizeQuality;shape-rendering:geometricPrecision;text-rendering:geometricPrecision" viewBox="0 0 272.06003 272.01286" id="svg182" sodipodi:docname="icons_map_layer(1).svg" xmlns:inkscape="http://www.inkscape.org/namespaces/inkscape" xmlns:sodipodi="http://sodipodi.sourceforge.net/DTD/sodipodi-0.dtd" xmlns="http://www.w3.org/2000/svg" xmlns:svg="http://www.w3.org/2000/svg">
    <sodipodi:namedview id="namedview182" pagecolor="#ffffff" bordercolor="#000000" borderopacity="0.25" inkscape:showpageshadow="2" inkscape:pageopacity="0.0" inkscape:pagecheckerboard="0" inkscape:deskcolor="#d1d1d1">
        <inkscape:page x="0" y="0" width="272.06003" height="272.01285" id="page2" margin="0" bleed="0"/>
    </sodipodi:namedview>
    <defs id="defs1">
        <style type="text/css" id="style1">
            <![CDATA[.str1{stroke:#B0CB1F;stroke-width:2.02;stroke-miterlimit:22.9256}.fil14{fill:#D9DADA}.fil15{fill:#C5C6C6}.fil19{fill:#B2B3B3}.fil12{fill:#9D9E9E}.fil20{fill:#FCD5A6}.fil11{fill:#D19563}.fil17{fill:#E31E24}.fil21{fill:#DBE285}.fil22{fill:#BBC274}.fil36{fill:#B0CB1F}.fil18{fill:#539433}.fil23{fill:#00A0E3}.fil8{fill:#008DD2}.fil9{fill:#8FA883}.fil7{fill:#ACD4DE}.fil6{fill:#ACDDA1}.fil16{fill:#BDBDBD}.fil10{fill:#CFCBC4}.fil4{fill:#EAEBD5}.fil3{fill:#ECEDD3}.fil5{fill:#EDEED6}.fil2{fill:#EDEFD4}.fil0{fill:#F0EBE2}.fil1{fill:#F1EEE9}.fil38{fill:#2B2A29;fill-rule:nonzero}.fil37{fill:#B0CB1F;fill-rule:nonzero}.fil35{fill:black;fill-rule:nonzero}.fil24{fill:#00A0E3;fill-rule:nonzero;fill-opacity:0.400000}.fil26{fill:#FECC00;fill-opacity:0.501961}.fil39{fill:#F08143;fill-rule:nonzero;fill-opacity:0.501961}.fil29{fill:#748187;fill-rule:nonzero;fill-opacity:0.580392}.fil27{fill:#B1709C;fill-opacity:0.600000}.fil31{fill:#86755D;fill-rule:nonzero;fill-opacity:0.600000}.fil32{fill:#86755D;fill-rule:nonzero;fill-opacity:0.611765}.fil25{fill:#00A0E3;fill-rule:nonzero;fill-opacity:0.701961}.fil28{fill:#AE4A84;fill-rule:nonzero;fill-opacity:0.729412}.fil33{fill:#61A375;fill-rule:nonzero;fill-opacity:0.760784}.fil34{fill:#AF9778;fill-rule:nonzero;fill-opacity:0.780392}]]>
        </style>
    </defs>
    <g id="Ebene_x0020_1" inkscape:label="Ebene 1" inkscape:groupmode="layer" transform="translate(-302.91,-483.91)">
        <metadata id="CorelCorpID_0Corel-Layer"/>
        <circle cx="438.94" cy="619.84003" r="135.02" id="circle100" style="stroke:#EBECEC;stroke-width:2.02;stroke-miterlimit:22.9256;fill:#EBECEC"/>
        <path d="m 352.78,605.37 c -0.01,0.02 -0.14,0.19 -0.29,0.37 -2.06,2.59 -4.81,4.05 -8,4.25 -0.76,0.05 -2.1,-0.03 -2.14,-0.12 -0.01,-0.01 0.09,-0.7 0.22,-1.53 0.13,-0.82 0.23,-1.49 0.21,-1.49 -0.01,0 -0.38,0.16 -0.82,0.35 l -0.8,0.35 -0.12,-0.15 c -0.2,-0.27 -0.43,-0.42 -0.86,-0.55 -0.23,-0.08 -0.43,-0.12 -0.54,-0.12 h -0.17 l -0.34,-0.78 -0.34,-0.77 -0.18,0.23 c -0.1,0.13 -0.58,0.77 -1.06,1.42 -0.48,0.64 -0.91,1.21 -0.94,1.26 -0.09,0.11 -0.09,0.12 -0.64,-0.32 -2.29,-1.79 -3.67,-4.11 -4.14,-6.94 -0.13,-0.79 -0.18,-2.18 -0.09,-2.69 0.01,-0.07 0.01,-0.13 -0.01,-0.13 -0.01,-0.01 -0.1,0.04 -0.19,0.09 -0.27,0.16 -0.87,0.46 -1.27,0.62 -1.93,0.81 -4.08,1.01 -6.22,0.59 -0.5,-0.1 -1.12,-0.27 -1.55,-0.42 l -0.32,-0.12 0.32,0.2 c 1.99,1.24 2.97,2.86 2.79,4.6 -0.01,0.17 -0.06,0.42 -0.1,0.56 -0.05,0.2 -0.05,0.25 -0.01,0.25 0.13,-0.01 0.62,0.06 0.98,0.12 0.49,0.09 1.37,0.38 1.71,0.56 1.22,0.66 1.89,1.65 2.03,3.03 0.05,0.5 0.04,0.94 -0.03,1.41 -0.06,0.38 -0.16,0.82 -0.23,1.01 l -0.04,0.13 0.35,-0.07 c 0.4,-0.08 0.7,-0.09 1.13,-0.07 0.29,0.01 0.35,0.03 0.86,0.22 0.5,0.18 0.56,0.21 0.79,0.38 0.33,0.25 0.76,0.71 1.02,1.08 0.25,0.37 0.71,1.35 0.9,1.91 0.16,0.49 0.37,1.35 0.47,1.94 0.09,0.51 0.21,1.7 0.23,2.13 l 0.01,0.3 0.09,-0.13 c 0.94,-1.33 2.1,-2.11 3.72,-2.5 1.52,-0.37 3.4,-0.31 5.24,0.14 0.26,0.07 0.47,0.12 0.48,0.11 0,0 0.1,-0.16 0.21,-0.35 1.26,-2.09 2.9,-3.2 4.66,-3.14 0.93,0.03 1.96,0.4 2.77,0.98 0.18,0.13 0.18,0.13 0.21,0.07 0.27,-0.45 0.63,-0.83 1.04,-1.12 0.76,-0.52 1.89,-0.96 3.27,-1.28 0.78,-0.18 1.37,-0.28 2.39,-0.4 0.52,-0.06 0.92,-0.11 0.89,-0.11 -0.04,0 -0.24,-0.04 -0.45,-0.08 -0.6,-0.13 -1.89,-0.61 -2.46,-0.93 -1.13,-0.62 -2.01,-1.3 -2.91,-2.24 -0.65,-0.67 -1.19,-1.33 -1.57,-1.94 -0.09,-0.14 -0.14,-0.19 -0.16,-0.17 z" id="path101" style="fill:black;fill-rule:nonzero;fill-opacity:0.600000"/>
        <path d="m 520.42,621.3 c 0.03,0.1 0.2,1.02 0.38,2.04 2.65,14.37 -0.46,27.77 -9.04,38.95 -2.03,2.66 -6.19,6.92 -6.6,6.78 -0.08,-0.02 -2.07,-2.35 -4.44,-5.18 -2.36,-2.81 -4.32,-5.07 -4.36,-5.03 -0.04,0.06 -0.59,1.75 -1.22,3.77 l -1.15,3.68 -0.83,-0.05 c -1.49,-0.1 -2.66,0.24 -4.33,1.26 -0.94,0.56 -1.66,1.09 -1.98,1.45 l -0.5,0.57 -3.56,-1.11 -3.57,-1.12 0.27,1.28 c 0.15,0.7 0.87,4.12 1.63,7.61 0.77,3.49 1.42,6.57 1.48,6.83 0.12,0.61 0.14,0.59 -2.92,1.19 -12.6,2.4 -24.3,0.3 -35.08,-6.34 -3,-1.85 -7.78,-5.72 -9.22,-7.5 -0.2,-0.23 -0.41,-0.4 -0.46,-0.37 -0.05,0.03 -0.17,0.44 -0.26,0.92 -0.24,1.36 -1.01,4.21 -1.61,6.01 -2.9,8.79 -8.45,16.52 -16.07,22.42 -1.76,1.37 -4.13,2.95 -5.9,3.94 l -1.3,0.71 1.57,-0.48 c 9.92,-3.02 18.16,-1.6 23.4,4.02 0.51,0.55 1.22,1.44 1.57,1.96 0.52,0.77 0.67,0.92 0.8,0.78 0.36,-0.45 2.01,-1.9 3.24,-2.9 1.73,-1.38 5.23,-3.47 6.84,-4.08 5.73,-2.16 10.98,-1.5 15.96,2.02 1.83,1.28 3.26,2.6 4.62,4.19 1.07,1.28 2.26,2.9 2.68,3.67 l 0.3,0.54 0.79,-1.36 c 0.91,-1.56 1.73,-2.63 3.04,-4 0.89,-0.91 1.12,-1.06 3.2,-2.2 2.06,-1.14 2.35,-1.26 3.59,-1.52 1.78,-0.38 4.54,-0.49 6.53,-0.27 1.97,0.22 6.58,1.53 8.96,2.53 2.11,0.89 5.57,2.69 7.84,4.07 1.93,1.17 6.26,4.2 7.75,5.42 l 1.02,0.84 -0.17,-0.72 c -1.72,-6.96 -0.94,-13.09 2.46,-19.6 3.19,-6.12 8.81,-12.22 15.67,-17.04 0.97,-0.66 1.74,-1.23 1.75,-1.25 0,-0.02 -0.24,-0.81 -0.56,-1.74 -3.32,-10.26 -2.25,-18.95 3.05,-24.6 2.8,-3 6.99,-5.37 11.28,-6.37 0.94,-0.23 0.94,-0.23 0.85,-0.53 -0.7,-2.19 -0.94,-4.51 -0.7,-6.68 0.46,-4.04 2.26,-9.1 5.21,-14.62 1.65,-3.09 3.04,-5.34 5.61,-9.1 1.3,-1.9 2.27,-3.37 2.19,-3.26 -0.11,0.11 -0.82,0.67 -1.57,1.25 -2.16,1.63 -7.52,4.52 -10.22,5.5 -5.32,1.95 -10.13,2.91 -15.88,3.2 -4.1,0.2 -7.88,0.06 -11.01,-0.42 -0.72,-0.11 -1.04,-0.1 -1.02,0.04 z" id="path102" style="fill:black;fill-rule:nonzero;fill-opacity:0.600000"/>
        <path d="m 384.3,638.55 c 0.01,0.04 0.08,0.41 0.15,0.81 1.04,5.65 -0.18,10.92 -3.56,15.31 -0.79,1.05 -2.43,2.72 -2.59,2.67 -0.03,-0.01 -0.82,-0.93 -1.75,-2.04 -0.92,-1.1 -1.69,-1.99 -1.71,-1.97 -0.02,0.02 -0.24,0.68 -0.48,1.48 l -0.46,1.44 -0.32,-0.02 c -0.59,-0.04 -1.05,0.1 -1.7,0.5 -0.37,0.22 -0.66,0.43 -0.78,0.57 l -0.2,0.23 -1.4,-0.44 -1.4,-0.44 0.1,0.5 c 0.06,0.28 0.35,1.62 0.65,2.99 0.3,1.37 0.55,2.58 0.58,2.69 0.04,0.24 0.05,0.23 -1.15,0.47 -4.96,0.94 -9.56,0.11 -13.8,-2.49 -1.18,-0.73 -3.06,-2.26 -3.62,-2.96 -0.08,-0.09 -0.16,-0.15 -0.18,-0.14 -0.02,0.01 -0.07,0.17 -0.11,0.36 -0.09,0.53 -0.39,1.66 -0.63,2.36 -1.14,3.46 -3.32,6.5 -6.32,8.82 -0.69,0.54 -1.62,1.16 -2.32,1.55 l -0.51,0.28 0.62,-0.19 c 3.9,-1.19 7.14,-0.63 9.2,1.58 0.2,0.22 0.48,0.57 0.62,0.77 0.2,0.3 0.26,0.36 0.31,0.31 0.14,-0.18 0.79,-0.75 1.28,-1.14 0.68,-0.54 2.05,-1.36 2.68,-1.61 2.26,-0.84 4.32,-0.59 6.28,0.8 0.72,0.5 1.29,1.02 1.82,1.65 0.42,0.5 0.89,1.14 1.05,1.44 l 0.12,0.21 0.31,-0.53 c 0.36,-0.62 0.68,-1.04 1.2,-1.58 0.35,-0.35 0.44,-0.41 1.25,-0.86 0.82,-0.45 0.93,-0.5 1.42,-0.6 0.7,-0.15 1.78,-0.19 2.56,-0.1 0.78,0.08 2.59,0.6 3.53,0.99 0.83,0.35 2.19,1.06 3.08,1.6 0.76,0.46 2.46,1.65 3.05,2.13 l 0.4,0.33 -0.07,-0.28 c -0.67,-2.74 -0.37,-5.15 0.97,-7.71 1.25,-2.4 3.47,-4.81 6.16,-6.7 0.38,-0.26 0.69,-0.48 0.69,-0.49 0,-0.01 -0.09,-0.32 -0.22,-0.68 -1.3,-4.04 -0.88,-7.46 1.2,-9.68 1.1,-1.18 2.75,-2.11 4.44,-2.51 0.37,-0.09 0.37,-0.09 0.33,-0.2 -0.27,-0.86 -0.37,-1.78 -0.27,-2.63 0.18,-1.59 0.88,-3.58 2.05,-5.75 0.64,-1.22 1.19,-2.1 2.2,-3.58 0.51,-0.75 0.9,-1.32 0.86,-1.28 -0.04,0.04 -0.32,0.26 -0.62,0.49 -0.84,0.64 -2.95,1.78 -4.01,2.16 -2.1,0.77 -3.99,1.15 -6.25,1.26 -1.61,0.08 -3.1,0.03 -4.33,-0.16 -0.28,-0.05 -0.41,-0.04 -0.4,0.01 z" id="path103" style="fill:black;fill-rule:nonzero;fill-opacity:0.600000"/>
    </g>
</svg>
