<?xml version="1.0" encoding="UTF-8" standalone="no"?>
<!--Creator: CorelDRAW 2021.5-->
<svg xml:space="preserve" width="318.2926" height="318.2926" version="1.1" style="clip-rule:evenodd;fill-rule:evenodd;image-rendering:optimizeQuality;shape-rendering:geometricPrecision;text-rendering:geometricPrecision" viewBox="0 0 272.06001 272.01286" id="svg182" sodipodi:docname="icons_map_layer(1).svg" xmlns:inkscape="http://www.inkscape.org/namespaces/inkscape" xmlns:sodipodi="http://sodipodi.sourceforge.net/DTD/sodipodi-0.dtd" xmlns="http://www.w3.org/2000/svg" xmlns:svg="http://www.w3.org/2000/svg">
    <sodipodi:namedview id="namedview182" pagecolor="#ffffff" bordercolor="#000000" borderopacity="0.25" inkscape:showpageshadow="2" inkscape:pageopacity="0.0" inkscape:pagecheckerboard="0" inkscape:deskcolor="#d1d1d1">
        <inkscape:page x="0" y="0" width="272.06" height="272.01285" id="page2" margin="0" bleed="0"/>
    </sodipodi:namedview>
    <defs id="defs1">
        <style type="text/css" id="style1">
            <![CDATA[.str1{stroke:#B0CB1F;stroke-width:2.02;stroke-miterlimit:22.9256}.fil14{fill:#D9DADA}.fil15{fill:#C5C6C6}.fil19{fill:#B2B3B3}.fil12{fill:#9D9E9E}.fil20{fill:#FCD5A6}.fil11{fill:#D19563}.fil17{fill:#E31E24}.fil21{fill:#DBE285}.fil22{fill:#BBC274}.fil36{fill:#B0CB1F}.fil18{fill:#539433}.fil23{fill:#00A0E3}.fil8{fill:#008DD2}.fil9{fill:#8FA883}.fil7{fill:#ACD4DE}.fil6{fill:#ACDDA1}.fil16{fill:#BDBDBD}.fil10{fill:#CFCBC4}.fil4{fill:#EAEBD5}.fil3{fill:#ECEDD3}.fil5{fill:#EDEED6}.fil2{fill:#EDEFD4}.fil0{fill:#F0EBE2}.fil1{fill:#F1EEE9}.fil38{fill:#2B2A29;fill-rule:nonzero}.fil37{fill:#B0CB1F;fill-rule:nonzero}.fil35{fill:black;fill-rule:nonzero}.fil24{fill:#00A0E3;fill-rule:nonzero;fill-opacity:0.400000}.fil26{fill:#FECC00;fill-opacity:0.501961}.fil39{fill:#F08143;fill-rule:nonzero;fill-opacity:0.501961}.fil29{fill:#748187;fill-rule:nonzero;fill-opacity:0.580392}.fil27{fill:#B1709C;fill-opacity:0.600000}.fil30{fill:black;fill-rule:nonzero;fill-opacity:0.600000}.fil32{fill:#86755D;fill-rule:nonzero;fill-opacity:0.611765}.fil25{fill:#00A0E3;fill-rule:nonzero;fill-opacity:0.701961}.fil28{fill:#AE4A84;fill-rule:nonzero;fill-opacity:0.729412}.fil33{fill:#61A375;fill-rule:nonzero;fill-opacity:0.760784}.fil34{fill:#AF9778;fill-rule:nonzero;fill-opacity:0.780392}]]>
        </style>
    </defs>
    <g id="Ebene_x0020_1" inkscape:label="Ebene 1" inkscape:groupmode="layer" transform="translate(-605.82995,-483.91)">
        <metadata id="CorelCorpID_0Corel-Layer"/>
        <circle cx="741.85999" cy="619.84003" r="135.02" id="circle103" style="stroke:#EBECEC;stroke-width:2.02;stroke-miterlimit:22.9256;fill:#EBECEC"/>
        <g id="_2094855336064">
            <g id="g104">
                <path d="m 779.38,513.8 c -0.78,2.06 -1.36,10.59 -1.7,25.1 -0.1,4.26 -0.24,9.47 -0.29,11.58 l -0.1,3.84 -0.48,-3.58 c -1.65,-12.24 -3.23,-21.19 -4,-22.36 -0.92,-1.41 -1.16,1.33 -1.94,21.08 -0.55,13.75 -0.82,18.77 -1.29,24.36 -0.48,5.53 -0.92,7.78 -1.79,8.89 -1.11,1.38 -2.4,4.75 -3.56,9.24 -1.35,5.2 -1.93,9.06 -1.94,12.69 -0.02,2.61 0,2.66 0.63,4.6 1.78,5.4 3.86,15.96 3.9,19.84 0.01,1.69 0.01,1.72 -0.77,3.32 -1.02,2.13 -2.03,5.49 -2.59,8.6 -1.38,7.79 -3.69,13.34 -6.78,16.22 -1.39,1.31 -2.07,1.61 -5.17,2.43 -10.58,2.76 -20.39,7.09 -24.53,10.82 -1.12,1 -1.48,1.61 -1.75,2.98 -0.1,0.59 -0.34,1.41 -0.53,1.78 -0.36,0.77 -2.5,3.26 -3.76,4.35 -0.99,0.87 -1.4,1.72 -1.76,3.66 -0.15,0.83 -0.44,2.18 -0.63,2.96 -0.42,1.84 -0.42,3.03 0,3.87 0.39,0.76 1.47,1.82 2.59,2.57 0.75,0.51 2.45,1.41 2.64,1.41 0.05,0 -0.07,-0.3 -0.26,-0.68 -0.76,-1.51 -0.17,-3.64 1.57,-5.53 1.55,-1.71 2.52,-1.98 5.67,-1.54 5.57,0.75 13.03,2.8 14.15,3.85 0.45,0.43 0.35,0.99 -0.37,2.1 -1.58,2.43 -4.48,5.21 -7.31,7.03 -2.01,1.31 -3.1,2.33 -6.76,6.41 -3.23,3.57 -4.39,4.59 -6.4,5.65 -0.82,0.42 -1.98,1.19 -2.59,1.72 -2.55,2.21 -4.26,3.25 -6.08,3.73 -0.54,0.15 -2.25,0.34 -3.8,0.42 -4.51,0.28 -9.38,1.45 -13.03,3.14 -1.56,0.73 -2.81,1.65 -2.81,2.08 0,0.42 1.42,1.8 2.22,2.16 0.54,0.25 1.33,0.39 2.66,0.48 2.29,0.13 2.75,0.34 3.44,1.56 0.44,0.79 0.69,1.01 1.68,1.52 2.5,1.31 6.56,1.96 11.16,1.77 l 2.84,-0.12 1.58,0.53 c 3.16,1.07 4.81,1.23 7.84,0.76 3.56,-0.52 18.03,-3.74 20.43,-4.52 4.71,-1.54 17,-7.48 18.59,-8.96 0.27,-0.26 1.1,-1.4 1.87,-2.52 2.21,-3.29 3.46,-4.23 6.73,-5.1 3.13,-0.83 4.47,-1.73 7.44,-5.04 2.42,-2.69 3.35,-3.39 5.53,-4.1 3.14,-1.04 7.43,-3.54 12.23,-7.14 1.16,-0.87 2.18,-1.5 2.25,-1.43 0.08,0.09 3.15,4.33 6.81,9.44 3.68,5.11 6.75,9.35 6.81,9.41 0.19,0.21 2.13,-0.34 3.27,-0.91 2.61,-1.32 3.61,-3.36 2.95,-5.98 -0.15,-0.63 -0.24,-1.23 -0.17,-1.33 0.07,-0.1 1.11,-0.17 2.69,-0.17 2.83,0 3.7,-0.15 4.31,-0.77 0.44,-0.44 0.53,-1.29 0.27,-2.47 -0.2,-0.9 -0.01,-1.41 0.65,-1.75 0.53,-0.27 0.89,-0.31 3.07,-0.22 1.36,0.05 3.09,0.15 3.86,0.2 2.45,0.19 2.88,-0.19 1.89,-1.68 -0.76,-1.18 -0.83,-1.38 -0.54,-1.79 0.32,-0.48 0.98,-0.67 3.37,-0.97 3.63,-0.48 4.02,-1.01 2.38,-3.21 -0.83,-1.12 -0.85,-1.17 -0.49,-1.48 0.29,-0.23 0.83,-0.27 4.09,-0.17 1.84,0.07 2.3,0.02 2.74,-0.22 0.97,-0.51 0.97,-0.87 -0.02,-2.88 -1.31,-2.67 -1,-3.47 1.98,-5 1.46,-0.77 2.14,-1.3 2.19,-1.78 0.09,-0.64 -0.08,-0.93 -1.26,-2.19 -0.68,-0.75 -1.29,-1.55 -1.36,-1.81 -0.2,-0.76 0.36,-1.53 2.03,-2.77 1.85,-1.38 2.09,-1.82 1.36,-2.59 -0.27,-0.29 -1,-0.75 -1.6,-1.04 -2.23,-1.06 -3.07,-1.91 -2.74,-2.81 0.08,-0.19 0.53,-0.7 1,-1.12 0.48,-0.43 0.87,-0.87 0.87,-0.98 0,-0.32 -0.83,-0.4 -2.96,-0.29 -4.31,0.24 -14.31,1.1 -27,2.32 -3.88,0.38 -7.17,0.68 -7.29,0.68 -0.15,0 0,-0.41 0.45,-1.24 0.9,-1.65 1.38,-3.29 1.38,-4.73 0,-1.03 -0.09,-1.32 -0.68,-2.46 -0.38,-0.71 -0.69,-1.46 -0.69,-1.67 0,-0.23 0.5,-0.85 1.45,-1.77 2.22,-2.11 2.42,-3.01 1.33,-5.72 -0.6,-1.43 -0.65,-1.7 -0.63,-3.18 0,-1.45 0.07,-1.81 0.65,-3.33 1.36,-3.61 1.39,-4.07 0.27,-5.43 -0.95,-1.14 -0.94,-1.85 0.08,-4.43 1.06,-2.65 1.04,-2.96 -0.25,-4.2 -1.01,-0.96 -1.02,-1.01 -1.02,-1.89 0,-0.63 0.24,-1.57 0.75,-3.07 1.24,-3.56 1.22,-4.24 -0.07,-5.67 -1.28,-1.41 -1.3,-1.94 -0.15,-5.72 1.07,-3.58 0.92,-5.06 -0.69,-6.49 -1.63,-1.47 -1.73,-3.17 -0.51,-9.59 0.6,-3.08 0.82,-6.25 0.51,-7.36 -0.25,-0.93 -0.9,-1.67 -1.9,-2.18 -1.03,-0.52 -1.59,-1.44 -1.88,-3.05 -0.25,-1.48 -0.12,-3.26 0.53,-7.54 0.78,-5.04 0.7,-5.59 -0.78,-5.59 -1.38,0 -1.67,-0.68 -1.93,-4.76 -0.18,-2.8 -0.37,-3.58 -0.88,-3.72 -0.27,-0.06 -0.33,-0.24 -0.33,-1.09 0,-1.99 1.25,-8.22 2.98,-15 0.45,-1.69 0.72,-3.13 0.67,-3.36 -0.15,-0.63 -0.84,-1.15 -1.31,-1.03 -0.77,0.18 -1.33,0.81 -2.06,2.36 -1.25,2.57 -1.98,4.67 -5.9,16.81 -0.61,1.93 -0.61,2.01 0.33,-4.85 1.48,-10.78 2.09,-16.93 2.13,-21.07 0.01,-2.64 -0.02,-3.05 -0.28,-3.3 -0.27,-0.29 -0.32,-0.29 -0.64,0.01 -1.18,1.08 -3.61,8.2 -6.63,19.42 -0.65,2.43 -1.19,4.27 -1.19,4.09 -0.02,-0.19 0.14,-1.96 0.32,-3.92 1.09,-11.82 1.52,-22.77 1.01,-26.43 -0.77,-5.57 -3.05,-2.54 -4.91,6.5 -0.97,4.76 -2.19,12.79 -2.86,18.7 -0.3,2.85 -0.53,3.1 -0.54,0.63 -0.02,-1.6 -0.43,-9.23 -0.7,-13.11 -0.65,-8.98 -1.6,-16.09 -2.44,-18.05 -0.15,-0.34 -0.42,-0.75 -0.61,-0.92 -0.36,-0.33 -0.37,-0.33 -0.78,0.07 -0.8,0.74 -1.49,3.27 -2.2,8 -0.73,4.79 -1.53,13.11 -2.04,20.86 -0.12,1.98 -0.26,3.15 -0.31,2.81 -0.07,-0.32 -0.31,-3.13 -0.56,-6.21 -0.75,-9.39 -1.71,-18.52 -2.49,-23.76 -0.73,-4.89 -1.48,-6.95 -2.03,-5.52 z" id="path104" style="fill:#86755D;fill-rule:nonzero;fill-opacity:0.600000"/>
            </g>
        </g>
    </g>
</svg>
