<?xml version="1.0" encoding="UTF-8" standalone="no"?>
<!--Creator: CorelDRAW 2021.5-->
<svg xml:space="preserve" width="318.2926" height="318.2926" version="1.1" style="clip-rule:evenodd;fill-rule:evenodd;image-rendering:optimizeQuality;shape-rendering:geometricPrecision;text-rendering:geometricPrecision" viewBox="0 0 272.06001 272.01286" id="svg196" sodipodi:docname="map_layer_icons.svg" xmlns:inkscape="http://www.inkscape.org/namespaces/inkscape" xmlns:sodipodi="http://sodipodi.sourceforge.net/DTD/sodipodi-0.dtd" xmlns="http://www.w3.org/2000/svg" xmlns:svg="http://www.w3.org/2000/svg">
    <sodipodi:namedview id="namedview196" pagecolor="#ffffff" bordercolor="#000000" borderopacity="0.25" inkscape:showpageshadow="2" inkscape:pageopacity="0.0" inkscape:pagecheckerboard="0" inkscape:deskcolor="#d1d1d1">
        <inkscape:page x="0" y="0" width="272.06" height="272.01285" id="page2" margin="0" bleed="0"/>
    </sodipodi:namedview>
    <defs id="defs1">
        <style type="text/css" id="style1">
            <![CDATA[.str5{stroke:#AF9778;stroke-width:1.42;stroke-miterlimit:22.9256;stroke-opacity:0.250980}.str9{stroke:#B0CB1F;stroke-width:2.02;stroke-miterlimit:22.9256;stroke-opacity:0.439216}.str10{stroke:#F08143;stroke-width:1.42;stroke-miterlimit:22.9256;stroke-opacity:0.501961}.str11{stroke:#EBECEC;stroke-width:2.02;stroke-miterlimit:22.9256;stroke-opacity:0.501961}.str1{stroke:#FFED00;stroke-width:2.02;stroke-miterlimit:22.9256;stroke-opacity:0.501961}.str3{stroke:#008DD2;stroke-width:1.42;stroke-miterlimit:22.9256;stroke-opacity:0.580392}.str4{stroke:#434242;stroke-width:1.42;stroke-miterlimit:22.9256;stroke-opacity:0.600000}.str2{stroke:#BD77A1;stroke-width:2.02;stroke-miterlimit:22.9256;stroke-opacity:0.600000}.str8{stroke:#AF9778;stroke-width:1.42;stroke-miterlimit:22.9256;stroke-opacity:0.780392}.fil35{fill:none;fill-rule:nonzero}.fil26{fill:none}.fil47{fill:none;fill-rule:nonzero}.fil31{fill:none;fill-rule:nonzero}.fil28{fill:none}.fil33{fill:none;fill-rule:nonzero}.fil40{fill:none;fill-rule:nonzero}.fil14{fill:#D9DADA}.fil15{fill:#C5C6C6}.fil19{fill:#B2B3B3}.fil12{fill:#9D9E9E}.fil11{fill:#D19563}.fil17{fill:#E31E24}.fil18{fill:#539433}.fil23{fill:#00A0E3}.fil8{fill:#008DD2}.fil9{fill:#8FA883}.fil7{fill:#ACD4DE}.fil6{fill:#ACDDA1}.fil16{fill:#BDBDBD}.fil10{fill:#CFCBC4}.fil4{fill:#EAEBD5}.fil3{fill:#ECEDD3}.fil5{fill:#EDEED6}.fil2{fill:#EDEFD4}.fil0{fill:#F0EBE2}.fil1{fill:#F1EEE9}.fil45{fill:#2B2A29;fill-rule:nonzero}.fil42{fill:black;fill-rule:nonzero}.fil46{fill:#F08143;fill-rule:nonzero;fill-opacity:0.090196}.fil34{fill:#86755D;fill-rule:nonzero;fill-opacity:0.101961}.fil32{fill:black;fill-rule:nonzero;fill-opacity:0.149020}.fil30{fill:#748187;fill-rule:nonzero;fill-opacity:0.168627}.fil39{fill:#AF9778;fill-rule:nonzero;fill-opacity:0.211765}.fil20{fill:#BBC274;fill-opacity:0.258824}.fil22{fill:#BBC274;fill-opacity:0.360784}.fil24{fill:#00A0E3;fill-rule:nonzero;fill-opacity:0.400000}.fil43{fill:#B0CB1F;fill-opacity:0.439216}.fil44{fill:#B0CB1F;fill-rule:nonzero;fill-opacity:0.439216}.fil48{fill:#FCD5A6;fill-opacity:0.501961}.fil27{fill:#FECC00;fill-opacity:0.501961}.fil41{fill:#DBE285;fill-opacity:0.501961}.fil21{fill:#DBE285;fill-opacity:0.701961}.fil25{fill:#00A0E3;fill-rule:nonzero;fill-opacity:0.701961}.fil29{fill:#AE4A84;fill-rule:nonzero;fill-opacity:0.729412}]]>
        </style>
    </defs>
    <g id="Ebene_x0020_1" inkscape:label="Ebene 1" inkscape:groupmode="layer" transform="translate(-908.73997,-483.91)">
        <metadata id="CorelCorpID_0Corel-Layer"/>
        <circle cx="1044.77" cy="619.84003" r="135.02" id="circle109" style="stroke:#EBECEC;stroke-width:2.02;stroke-miterlimit:22.9256;fill:#EBECEC"/>
        <g id="_2494326238064">
            <g id="g110">
                <path d="m 945.58,639.25 c -0.23,0.05 -0.4,0.38 -0.4,0.78 0,0.31 -0.11,1.02 -0.26,1.73 -0.08,0.34 -0.08,1.41 0,1.76 0.03,0.15 0.09,0.44 0.13,0.65 0.19,0.94 0.45,1.51 1.28,2.75 0.31,0.48 0.66,1.09 0.76,1.34 0.19,0.45 0.2,0.53 0.19,1.14 -0.01,0.59 0,0.69 0.12,0.89 0.08,0.12 0.19,0.36 0.25,0.54 0.12,0.36 0.71,1.52 1.12,2.19 0.35,0.57 0.86,1.58 0.98,1.95 0.06,0.16 0.15,0.73 0.2,1.26 0.1,1 0.24,1.6 0.46,1.91 0.07,0.1 0.16,0.29 0.21,0.41 0.1,0.33 0.49,0.8 1.03,1.26 1.14,0.98 1.59,1.44 2.44,2.5 0.91,1.14 1.1,1.44 1.3,2.06 0.18,0.53 0.46,1.06 0.69,1.3 0.22,0.22 0.8,0.52 1.84,0.98 0.79,0.34 0.86,0.37 1.64,0.7 1.95,0.83 2.27,1.06 3.81,2.75 0.44,0.5 1,1.06 1.24,1.25 0.29,0.25 0.52,0.5 0.72,0.84 0.15,0.26 0.38,0.57 0.48,0.68 0.11,0.11 0.18,0.24 0.16,0.29 -0.02,0.04 -0.58,0.73 -1.23,1.52 -0.66,0.8 -1.32,1.62 -1.47,1.83 -0.35,0.48 -0.67,1.1 -0.67,1.26 0,0.38 -0.34,0.67 -1.65,1.41 -0.47,0.27 -1.04,0.65 -1.28,0.84 -0.54,0.42 -0.95,0.7 -2.1,1.39 -1.39,0.84 -2.64,1.75 -4.46,3.28 -0.27,0.22 -0.69,0.57 -0.95,0.76 -0.74,0.58 -1.29,1.42 -1.31,1.99 0,0.36 0.14,0.45 0.67,0.42 0.47,-0.04 1.06,-0.24 2.6,-0.86 0.59,-0.25 1.38,-0.55 1.75,-0.68 0.38,-0.12 0.85,-0.29 1.07,-0.37 0.23,-0.08 0.42,-0.14 0.43,-0.12 0.02,0.01 -0.48,0.55 -1.1,1.18 -2.2,2.24 -3.5,3.87 -3.37,4.25 0.09,0.28 0.58,0.22 1.17,-0.15 0.21,-0.12 0.45,-0.24 0.53,-0.28 0.18,-0.07 1.36,-1.1 2.59,-2.25 1.14,-1.08 1.87,-1.65 3.27,-2.59 0.66,-0.45 1.43,-1 1.71,-1.25 0.36,-0.33 0.61,-0.49 0.96,-0.62 0.25,-0.1 0.63,-0.29 0.82,-0.42 0.88,-0.57 1.61,-0.83 1.7,-0.61 0.05,0.14 -0.17,0.54 -0.68,1.26 -0.23,0.34 -0.54,0.83 -0.67,1.09 -0.14,0.26 -0.54,1.01 -0.9,1.67 -0.85,1.54 -1.28,2.39 -1.41,2.82 -0.37,1.19 -0.5,1.41 -1.79,3.23 -0.94,1.31 -1.56,2.28 -2.34,3.68 -0.32,0.57 -1.4,2.22 -2.35,3.58 -1.05,1.51 -2.08,3.1 -2.41,3.69 -0.39,0.72 -0.5,0.87 -2.07,3.01 -1.62,2.19 -2.12,2.95 -2.77,4.24 -0.46,0.9 -0.56,1.28 -0.44,1.65 0.05,0.16 0.13,0.26 0.2,0.27 0.27,0.05 0.88,-0.15 1.83,-0.61 0.61,-0.29 1.12,-0.5 1.32,-0.52 0.18,-0.03 0.39,-0.1 0.48,-0.15 0.21,-0.15 0.45,-0.14 0.97,0.05 0.38,0.13 0.51,0.15 0.88,0.12 0.39,-0.04 0.45,-0.03 0.55,0.09 0.45,0.52 0.79,0.68 1.77,0.87 0.41,0.08 0.5,0.08 0.71,-0.01 0.22,-0.09 0.28,-0.09 0.67,0.01 l 0.42,0.11 0.33,-0.17 c 0.32,-0.16 0.38,-0.17 0.86,-0.13 0.44,0.04 0.55,0.03 0.69,-0.06 0.13,-0.08 0.36,-0.12 0.88,-0.14 0.61,-0.03 0.76,-0.06 1.03,-0.2 0.72,-0.39 1.51,-1.7 2.63,-4.4 0.76,-1.83 2.05,-5.32 2.85,-7.72 0.27,-0.8 1.08,-3.13 1.2,-3.42 0.12,-0.31 0.5,-1.16 0.91,-2.05 0.12,-0.25 0.35,-1.01 0.52,-1.69 0.33,-1.33 0.58,-1.92 0.93,-2.27 0.12,-0.11 0.52,-0.38 0.9,-0.58 0.8,-0.44 1.38,-0.83 2.36,-1.65 0.39,-0.32 1.08,-0.87 1.53,-1.22 0.46,-0.36 1.27,-1 1.8,-1.42 0.92,-0.74 1.78,-1.33 2.16,-1.5 0.32,-0.14 0.15,-0.21 2.13,0.95 0.46,0.27 1.55,0.87 2.43,1.33 l 1.6,0.84 0.9,0.17 c 2.07,0.38 2.23,0.42 2.87,0.78 0.1,0.05 0.51,0.18 0.9,0.29 0.39,0.1 0.94,0.25 1.22,0.34 0.28,0.08 0.8,0.18 1.15,0.22 1.09,0.13 2.23,0.49 2.89,0.92 0.83,0.55 1.71,0.86 2.65,0.94 0.85,0.07 1.18,0.18 1.64,0.58 0.43,0.38 0.5,0.41 0.86,0.47 0.37,0.05 0.86,0.21 1.17,0.37 0.14,0.06 0.67,0.53 1.19,1.03 0.52,0.5 1.2,1.09 1.51,1.31 0.31,0.21 0.86,0.67 1.22,1.01 2,1.87 3.49,2.36 4.35,1.44 l 0.19,-0.19 -0.22,-0.18 c -0.12,-0.09 -0.42,-0.36 -0.67,-0.6 -0.24,-0.23 -0.59,-0.52 -0.76,-0.63 -0.43,-0.29 -1.2,-1.04 -1.5,-1.44 -0.49,-0.67 -2.14,-2.47 -2.58,-2.81 -0.13,-0.1 -0.27,-0.17 -0.32,-0.17 -0.27,0 -0.82,-0.37 -1.42,-0.94 -1.3,-1.26 -2.65,-1.93 -4.43,-2.23 -0.54,-0.09 -0.73,-0.16 -1.19,-0.42 -0.66,-0.37 -1.57,-0.76 -2.32,-1 -0.31,-0.09 -0.58,-0.2 -0.59,-0.24 -0.01,-0.04 -0.05,-0.19 -0.09,-0.33 -0.24,-0.87 -1.87,-2.63 -2.86,-3.08 -0.36,-0.16 -0.6,-0.34 -0.6,-0.43 0,-0.05 0.25,-0.2 0.56,-0.34 1.05,-0.49 1.39,-0.65 1.64,-0.8 0.15,-0.08 0.81,-0.45 1.47,-0.82 0.67,-0.37 1.44,-0.82 1.7,-1.01 1.64,-1.18 5.27,-5.06 6.63,-7.09 0.96,-1.44 2.26,-3.86 2.76,-5.12 0.37,-0.97 0.68,-1.89 0.86,-2.6 0.17,-0.67 0.51,-2.59 0.6,-3.46 0.17,-1.55 0.57,-3.47 0.91,-4.43 0.57,-1.59 1.71,-3.09 3.16,-4.16 0.34,-0.26 0.83,-0.62 1.09,-0.82 1.01,-0.75 1.39,-0.9 2.44,-0.93 0.4,-0.02 1.6,-0.06 2.65,-0.09 1.89,-0.07 1.93,-0.08 2.17,-0.23 0.13,-0.09 0.23,-0.21 0.23,-0.28 0,-0.41 -1.95,-1.27 -4,-1.76 -0.85,-0.2 -1.08,-0.29 -1.63,-0.61 -0.62,-0.36 -1.03,-0.77 -1.38,-1.33 -0.85,-1.39 -2.5,-3.07 -4.16,-4.25 -0.89,-0.62 -2.41,-1.2 -3.87,-1.45 -0.79,-0.13 -2.79,-0.15 -3.43,-0.02 -1.72,0.33 -3.32,1.05 -4.67,2.1 -0.53,0.41 -0.9,0.77 -1.83,1.78 -0.35,0.38 -1.71,1.6 -2.88,2.57 -1.67,1.4 -2.2,1.82 -3.59,2.9 -0.82,0.65 -2.03,1.56 -2.69,2.04 -1.69,1.24 -3.93,3.26 -7.26,6.54 -2.56,2.52 -4.03,4.09 -7.09,7.55 -0.26,0.3 -0.9,1.13 -1.42,1.85 -0.52,0.71 -0.98,1.3 -1.02,1.3 -0.11,0 -1.1,-0.91 -1.61,-1.46 -0.54,-0.6 -1.06,-1.29 -1.57,-2.12 -0.54,-0.88 -0.59,-1.16 -0.43,-2.7 0.09,-0.86 0.15,-1.2 0.3,-1.62 0.32,-0.87 0.63,-1.99 0.8,-2.91 0.09,-0.47 0.16,-0.91 0.16,-0.97 0,-0.06 0.13,-0.4 0.29,-0.74 0.34,-0.71 0.56,-1.36 0.71,-2.1 0.15,-0.75 0.09,-2.28 -0.1,-2.9 -0.19,-0.57 -0.52,-1.24 -0.88,-1.73 -0.34,-0.48 -1.35,-1.45 -1.49,-1.43 -0.06,0.02 -0.17,0.17 -0.25,0.33 l -0.15,0.31 0.13,0.36 c 0.07,0.2 0.21,0.68 0.31,1.07 0.17,0.67 0.17,0.79 0.18,2.21 0,1.33 -0.02,1.6 -0.15,2.24 -0.45,2.21 -1.41,4.38 -2.91,6.57 -0.74,1.06 -0.81,1.14 -1.27,1.28 -0.29,0.09 -0.59,0.13 -1.05,0.13 -0.59,0 -0.68,-0.02 -1.01,-0.19 -0.37,-0.19 -0.77,-0.61 -1.27,-1.38 -0.26,-0.39 -1.49,-1.67 -2.02,-2.1 -0.98,-0.8 -1.58,-2.08 -1.66,-3.51 -0.05,-1.05 -0.28,-1.6 -0.94,-2.33 -0.62,-0.68 -1.11,-1.57 -1.4,-2.51 -0.16,-0.55 -1.46,-3.17 -2.69,-5.45 -0.5,-0.92 -0.94,-1.74 -0.99,-1.81 -0.2,-0.33 -0.41,-1.19 -0.5,-2.09 -0.09,-0.92 -0.1,-0.96 -0.52,-1.99 -0.24,-0.57 -0.48,-1.08 -0.53,-1.12 -0.1,-0.08 -0.13,-0.09 -0.38,-0.04 z" id="path110" style="fill:#FECC00;fill-rule:nonzero;fill-opacity:0.149020"/>
            </g>
        </g>
        <g id="_2494326236672">
            <g id="g111">
                <path d="m 945.58,639.25 c -0.23,0.05 -0.4,0.38 -0.4,0.78 0,0.31 -0.11,1.02 -0.26,1.73 -0.08,0.34 -0.08,1.41 0,1.76 0.03,0.15 0.09,0.44 0.13,0.65 0.19,0.94 0.45,1.51 1.28,2.75 0.31,0.48 0.66,1.09 0.76,1.34 0.19,0.45 0.2,0.53 0.19,1.14 -0.01,0.59 0,0.69 0.12,0.89 0.08,0.12 0.19,0.36 0.25,0.54 0.12,0.36 0.71,1.52 1.12,2.19 0.35,0.57 0.86,1.58 0.98,1.95 0.06,0.16 0.15,0.73 0.2,1.26 0.1,1 0.24,1.6 0.46,1.91 0.07,0.1 0.16,0.29 0.21,0.41 0.1,0.33 0.49,0.8 1.03,1.26 1.14,0.98 1.59,1.44 2.44,2.5 0.91,1.14 1.1,1.44 1.3,2.06 0.18,0.53 0.46,1.06 0.69,1.3 0.22,0.22 0.8,0.52 1.84,0.98 0.79,0.34 0.86,0.37 1.64,0.7 1.95,0.83 2.27,1.06 3.81,2.75 0.44,0.5 1,1.06 1.24,1.25 0.29,0.25 0.52,0.5 0.72,0.84 0.15,0.26 0.38,0.57 0.48,0.68 0.11,0.11 0.18,0.24 0.16,0.29 -0.02,0.04 -0.58,0.73 -1.23,1.52 -0.66,0.8 -1.32,1.62 -1.47,1.83 -0.35,0.48 -0.67,1.1 -0.67,1.26 0,0.38 -0.34,0.67 -1.65,1.41 -0.47,0.27 -1.04,0.65 -1.28,0.84 -0.54,0.42 -0.95,0.7 -2.1,1.39 -1.39,0.84 -2.64,1.75 -4.46,3.28 -0.27,0.22 -0.69,0.57 -0.95,0.76 -0.74,0.58 -1.29,1.42 -1.31,1.99 0,0.36 0.14,0.45 0.67,0.42 0.47,-0.04 1.06,-0.24 2.6,-0.86 0.59,-0.25 1.38,-0.55 1.75,-0.68 0.38,-0.12 0.85,-0.29 1.07,-0.37 0.23,-0.08 0.42,-0.14 0.43,-0.12 0.02,0.01 -0.48,0.55 -1.1,1.18 -2.2,2.24 -3.5,3.87 -3.37,4.25 0.09,0.28 0.58,0.22 1.17,-0.15 0.21,-0.12 0.45,-0.24 0.53,-0.28 0.18,-0.07 1.36,-1.1 2.59,-2.25 1.14,-1.08 1.87,-1.65 3.27,-2.59 0.66,-0.45 1.43,-1 1.71,-1.25 0.36,-0.33 0.61,-0.49 0.96,-0.62 0.25,-0.1 0.63,-0.29 0.82,-0.42 0.88,-0.57 1.61,-0.83 1.7,-0.61 0.05,0.14 -0.17,0.54 -0.68,1.26 -0.23,0.34 -0.54,0.83 -0.67,1.09 -0.14,0.26 -0.54,1.01 -0.9,1.67 -0.85,1.54 -1.28,2.39 -1.41,2.82 -0.37,1.19 -0.5,1.41 -1.79,3.23 -0.94,1.31 -1.56,2.28 -2.34,3.68 -0.32,0.57 -1.4,2.22 -2.35,3.58 -1.05,1.51 -2.08,3.1 -2.41,3.69 -0.39,0.72 -0.5,0.87 -2.07,3.01 -1.62,2.19 -2.12,2.95 -2.77,4.24 -0.46,0.9 -0.56,1.28 -0.44,1.65 0.05,0.16 0.13,0.26 0.2,0.27 0.27,0.05 0.88,-0.15 1.83,-0.61 0.61,-0.29 1.12,-0.5 1.32,-0.52 0.18,-0.03 0.39,-0.1 0.48,-0.15 0.21,-0.15 0.45,-0.14 0.97,0.05 0.38,0.13 0.51,0.15 0.88,0.12 0.39,-0.04 0.45,-0.03 0.55,0.09 0.45,0.52 0.79,0.68 1.77,0.87 0.41,0.08 0.5,0.08 0.71,-0.01 0.22,-0.09 0.28,-0.09 0.67,0.01 l 0.42,0.11 0.33,-0.17 c 0.32,-0.16 0.38,-0.17 0.86,-0.13 0.44,0.04 0.55,0.03 0.69,-0.06 0.13,-0.08 0.36,-0.12 0.88,-0.14 0.61,-0.03 0.76,-0.06 1.03,-0.2 0.72,-0.39 1.51,-1.7 2.63,-4.4 0.76,-1.83 2.05,-5.32 2.85,-7.72 0.27,-0.8 1.08,-3.13 1.2,-3.42 0.12,-0.31 0.5,-1.16 0.91,-2.05 0.12,-0.25 0.35,-1.01 0.52,-1.69 0.33,-1.33 0.58,-1.92 0.93,-2.27 0.12,-0.11 0.52,-0.38 0.9,-0.58 0.8,-0.44 1.38,-0.83 2.36,-1.65 0.39,-0.32 1.08,-0.87 1.53,-1.22 0.46,-0.36 1.27,-1 1.8,-1.42 0.92,-0.74 1.78,-1.33 2.16,-1.5 0.32,-0.14 0.15,-0.21 2.13,0.95 0.46,0.27 1.55,0.87 2.43,1.33 l 1.6,0.84 0.9,0.17 c 2.07,0.38 2.23,0.42 2.87,0.78 0.1,0.05 0.51,0.18 0.9,0.29 0.39,0.1 0.94,0.25 1.22,0.34 0.28,0.08 0.8,0.18 1.15,0.22 1.09,0.13 2.23,0.49 2.89,0.92 0.83,0.55 1.71,0.86 2.65,0.94 0.85,0.07 1.18,0.18 1.64,0.58 0.43,0.38 0.5,0.41 0.86,0.47 0.37,0.05 0.86,0.21 1.17,0.37 0.14,0.06 0.67,0.53 1.19,1.03 0.52,0.5 1.2,1.09 1.51,1.31 0.31,0.21 0.86,0.67 1.22,1.01 2,1.87 3.49,2.36 4.35,1.44 l 0.19,-0.19 -0.22,-0.18 c -0.12,-0.09 -0.42,-0.36 -0.67,-0.6 -0.24,-0.23 -0.59,-0.52 -0.76,-0.63 -0.43,-0.29 -1.2,-1.04 -1.5,-1.44 -0.49,-0.67 -2.14,-2.47 -2.58,-2.81 -0.13,-0.1 -0.27,-0.17 -0.32,-0.17 -0.27,0 -0.82,-0.37 -1.42,-0.94 -1.3,-1.26 -2.65,-1.93 -4.43,-2.23 -0.54,-0.09 -0.73,-0.16 -1.19,-0.42 -0.66,-0.37 -1.57,-0.76 -2.32,-1 -0.31,-0.09 -0.58,-0.2 -0.59,-0.24 -0.01,-0.04 -0.05,-0.19 -0.09,-0.33 -0.24,-0.87 -1.87,-2.63 -2.86,-3.08 -0.36,-0.16 -0.6,-0.34 -0.6,-0.43 0,-0.05 0.25,-0.2 0.56,-0.34 1.05,-0.49 1.39,-0.65 1.64,-0.8 0.15,-0.08 0.81,-0.45 1.47,-0.82 0.67,-0.37 1.44,-0.82 1.7,-1.01 1.64,-1.18 5.27,-5.06 6.63,-7.09 0.96,-1.44 2.26,-3.86 2.76,-5.12 0.37,-0.97 0.68,-1.89 0.86,-2.6 0.17,-0.67 0.51,-2.59 0.6,-3.46 0.17,-1.55 0.57,-3.47 0.91,-4.43 0.57,-1.59 1.71,-3.09 3.16,-4.16 0.34,-0.26 0.83,-0.62 1.09,-0.82 1.01,-0.75 1.39,-0.9 2.44,-0.93 0.4,-0.02 1.6,-0.06 2.65,-0.09 1.89,-0.07 1.93,-0.08 2.17,-0.23 0.13,-0.09 0.23,-0.21 0.23,-0.28 0,-0.41 -1.95,-1.27 -4,-1.76 -0.85,-0.2 -1.08,-0.29 -1.63,-0.61 -0.62,-0.36 -1.03,-0.77 -1.38,-1.33 -0.85,-1.39 -2.5,-3.07 -4.16,-4.25 -0.89,-0.62 -2.41,-1.2 -3.87,-1.45 -0.79,-0.13 -2.79,-0.15 -3.43,-0.02 -1.72,0.33 -3.32,1.05 -4.67,2.1 -0.53,0.41 -0.9,0.77 -1.83,1.78 -0.35,0.38 -1.71,1.6 -2.88,2.57 -1.67,1.4 -2.2,1.82 -3.59,2.9 -0.82,0.65 -2.03,1.56 -2.69,2.04 -1.69,1.24 -3.93,3.26 -7.26,6.54 -2.56,2.52 -4.03,4.09 -7.09,7.55 -0.26,0.3 -0.9,1.13 -1.42,1.85 -0.52,0.71 -0.98,1.3 -1.02,1.3 -0.11,0 -1.1,-0.91 -1.61,-1.46 -0.54,-0.6 -1.06,-1.29 -1.57,-2.12 -0.54,-0.88 -0.59,-1.16 -0.43,-2.7 0.09,-0.86 0.15,-1.2 0.3,-1.62 0.32,-0.87 0.63,-1.99 0.8,-2.91 0.09,-0.47 0.16,-0.91 0.16,-0.97 0,-0.06 0.13,-0.4 0.29,-0.74 0.34,-0.71 0.56,-1.36 0.71,-2.1 0.15,-0.75 0.09,-2.28 -0.1,-2.9 -0.19,-0.57 -0.52,-1.24 -0.88,-1.73 -0.34,-0.48 -1.35,-1.45 -1.49,-1.43 -0.06,0.02 -0.17,0.17 -0.25,0.33 l -0.15,0.31 0.13,0.36 c 0.07,0.2 0.21,0.68 0.31,1.07 0.17,0.67 0.17,0.79 0.18,2.21 0,1.33 -0.02,1.6 -0.15,2.24 -0.45,2.21 -1.41,4.38 -2.91,6.57 -0.74,1.06 -0.81,1.14 -1.27,1.28 -0.29,0.09 -0.59,0.13 -1.05,0.13 -0.59,0 -0.68,-0.02 -1.01,-0.19 -0.37,-0.19 -0.77,-0.61 -1.27,-1.38 -0.26,-0.39 -1.49,-1.67 -2.02,-2.1 -0.98,-0.8 -1.58,-2.08 -1.66,-3.51 -0.05,-1.05 -0.28,-1.6 -0.94,-2.33 -0.62,-0.68 -1.11,-1.57 -1.4,-2.51 -0.16,-0.55 -1.46,-3.17 -2.69,-5.45 -0.5,-0.92 -0.94,-1.74 -0.99,-1.81 -0.2,-0.33 -0.41,-1.19 -0.5,-2.09 -0.09,-0.92 -0.1,-0.96 -0.52,-1.99 -0.24,-0.57 -0.48,-1.08 -0.53,-1.12 -0.1,-0.08 -0.13,-0.09 -0.38,-0.04 z" id="path111" style="stroke:#5B5A50;stroke-width:1.66;stroke-miterlimit:22.9256;stroke-opacity:0.349020;fill:none;fill-rule:nonzero"/>
            </g>
        </g>
        <path d="m 1152.97,701.96 c -1.85,-1.27 -3.67,-3.95 -4.15,-4.46 -0.19,-0.16 -0.23,1.14 -0.15,2.94 0.19,3.3 0.19,3.3 -0.55,2.51 -0.63,-0.63 -0.86,-1.57 -1.06,-4.71 l -0.28,-3.92 1.46,-2.16 1.49,-2.16 -1.45,1.34 -1.42,1.37 v -3.29 c 0,-4.28 -0.55,-3.73 -1.37,1.37 -0.59,3.69 -0.86,4.31 -2.79,6.83 -0.07,0.07 -0.47,-0.08 -0.82,-0.4 -0.63,-0.47 -0.67,-0.47 -0.24,0.08 0.44,0.51 0.16,0.9 -1.64,2.44 -2.08,1.8 -2.59,2.11 -2.51,1.53 0.03,-0.16 0.03,-1.89 0,-3.81 -0.04,-2.47 -0.2,-3.34 -0.44,-2.9 -0.43,0.74 -1.37,4.78 -1.76,7.53 l -0.24,1.88 -2.35,-2.55 c -1.3,-1.41 -3.06,-3.1 -3.93,-3.8 l -1.56,-1.26 1.88,2.51 c 1.02,1.37 2.51,3.73 3.3,5.26 l 1.41,2.75 -1.26,2.04 -1.25,2.08 -0.91,-1.61 c -0.47,-0.91 -1.72,-2.75 -2.74,-4.08 -1.85,-2.44 -1.85,-2.48 -2.12,-6.32 -0.16,-2.12 -0.35,-4.47 -0.51,-5.18 -0.2,-1.18 -0.12,-1.3 1.29,-1.88 0.83,-0.36 2.08,-0.71 2.79,-0.83 0.7,-0.11 1.41,-0.35 1.49,-0.51 0.08,-0.16 -0.59,-0.16 -1.49,0.04 -0.9,0.16 -2.32,0.32 -3.1,0.36 -1.3,0 -1.49,-0.12 -1.49,-0.91 -0.04,-0.47 -0.28,-1.41 -0.59,-2.04 -0.51,-1.14 -0.51,-1.14 -0.55,1.22 -0.04,2.31 -0.08,2.39 -0.98,2.24 -0.71,-0.16 -1.14,0.11 -1.81,1.05 -0.47,0.67 -0.78,1.3 -0.66,1.42 0.08,0.07 0.47,-0.28 0.82,-0.87 1.18,-1.72 1.14,-0.74 -0.04,1.38 -0.59,1.1 -1.29,2 -1.57,2 -0.27,0 -0.39,0.23 -0.27,0.51 0.12,0.31 -0.16,1.37 -0.63,2.39 -0.74,1.73 -0.86,1.89 -1.84,1.61 -1.06,-0.24 -1.06,-0.24 -0.36,0.51 0.59,0.67 0.63,0.94 0.24,1.69 -0.47,0.82 -0.51,0.82 -0.9,0.15 -0.2,-0.39 -0.4,-2 -0.36,-3.49 l 0.04,-2.78 -0.7,2.12 c -0.4,1.17 -0.83,1.96 -0.95,1.76 -0.51,-0.9 -1.09,-10.55 -0.98,-16.95 l 0.12,-6.94 -1.69,-2.48 c -0.94,-1.37 -1.84,-2.86 -2.04,-3.33 -0.31,-0.83 -0.35,-0.83 -0.35,-0.08 -0.04,0.43 0.28,2.94 0.63,5.61 0.51,3.77 0.55,4.98 0.19,5.49 -2.15,3.06 -2.59,4.2 -2.66,6.87 -0.12,3.61 -0.67,4.12 -1.49,1.29 -0.36,-1.21 -0.71,-2.19 -0.79,-2.19 -0.08,0 -0.08,1.37 0.04,3.06 0.16,2.39 0.08,3.14 -0.35,3.53 -0.51,0.39 -0.71,0.31 -1.26,-0.47 -0.63,-0.98 -2.08,-1.53 -4.98,-2 l -1.45,-0.2 -0.28,-6.9 c -0.16,-3.77 -0.35,-6.79 -0.43,-6.71 -0.55,0.51 -1.37,6.94 -1.77,13.42 -0.23,4.08 -0.51,7.53 -0.58,7.61 -0.12,0.11 -1.22,0 -2.52,-0.2 -2.82,-0.47 -2.66,-0.16 0.32,0.63 l 2.23,0.59 0.12,5.45 c 0.08,5.1 -0.12,6.51 -1.06,6.51 -0.15,0 -0.7,-1.29 -1.17,-2.86 -0.95,-2.9 -3.5,-8.28 -4.83,-10.16 l -0.75,-1.1 1.42,-2.79 c 1.53,-3.06 3.29,-5.8 4.27,-6.59 0.36,-0.31 0.63,-0.7 0.63,-0.94 0,-0.51 -3.69,2.94 -6.04,5.69 l -1.92,2.24 -1.69,-2.04 c -0.94,-1.14 -2.63,-2.83 -3.77,-3.81 l -2.04,-1.77 1.61,2.16 c 0.9,1.18 2.24,3.34 3.02,4.75 l 1.42,2.59 -1.89,3.69 c -1.06,2.04 -2.12,4.27 -2.39,5.02 -0.36,1.06 -0.55,1.26 -0.9,0.9 -0.4,-0.39 -0.36,-0.66 0.03,-1.37 0.51,-0.79 0.51,-0.82 -0.11,-0.31 -0.55,0.47 -0.75,0.43 -1.22,-0.2 -0.86,-1.1 -0.9,-1.61 -1.14,-10.75 -0.19,-7.97 -1.02,-15.89 -1.8,-17.27 -0.24,-0.35 -0.39,0.83 -0.39,3.3 0,4.35 -0.79,19.19 -1.02,19.42 -0.08,0.08 -0.51,-0.16 -0.95,-0.55 -0.43,-0.39 -0.78,-0.55 -0.78,-0.31 0,0.2 0.35,0.7 0.78,1.1 0.67,0.59 0.79,1.17 0.75,3.69 -0.04,1.64 -0.2,3.49 -0.35,4.16 -0.28,1.05 -0.32,0.98 -0.36,-0.71 0,-1.02 -0.19,-1.85 -0.39,-1.85 -0.2,0 -0.55,-0.9 -0.82,-2 -0.28,-1.1 -1.26,-3.45 -2.2,-5.29 l -1.69,-3.3 1.02,-0.74 c 0.55,-0.44 1.57,-0.91 2.32,-1.06 0.74,-0.12 1.45,-0.44 1.61,-0.67 0.11,-0.2 0.07,-0.28 -0.16,-0.16 -0.2,0.12 -1.57,0.43 -3.02,0.67 l -2.67,0.43 -2.94,-3.18 c -1.61,-1.72 -3.14,-3.14 -3.38,-3.14 -0.23,0 -0.04,0.4 0.39,0.87 0.99,1.06 3.65,5.45 3.65,5.96 0,0.24 -0.35,0 -0.78,-0.47 -1.69,-1.81 -2.28,-0.86 -2.98,5.1 -0.47,3.65 -0.9,5.42 -1.77,7.22 -0.63,1.29 -1.14,2.59 -1.14,2.82 0,0.24 -0.15,0.51 -0.39,0.67 -0.94,0.59 -2.35,-4.86 -1.8,-7.02 0.11,-0.51 0.98,-1.89 1.88,-3.06 1.57,-2 1.29,-2 -0.94,0 l -1.06,0.94 -0.28,-1.41 c -0.31,-1.69 -0.04,-4.4 0.79,-8.28 0.78,-3.65 0.82,-11.14 0.08,-12.2 -0.59,-0.75 -0.59,-0.75 -1.18,0.04 -0.31,0.43 -0.94,2 -1.37,3.53 -0.71,2.47 -0.79,3.45 -0.55,10.04 0.12,4 0.12,8.12 -0.04,9.14 l -0.31,1.89 -1.54,-1.49 c -0.86,-0.83 -1.96,-2.44 -2.51,-3.57 -2.43,-5.34 -3.49,-6.09 -8.83,-6.52 l -2.55,-0.19 1.97,0.54 c 3.02,0.91 3.64,1.22 4.35,2.32 0.67,1.02 0.67,1.02 -1.33,2.94 -1.1,1.02 -2.51,2.63 -3.18,3.57 l -1.22,1.65 v -1.88 c 0,-1.65 0.2,-2.16 1.61,-3.81 1.81,-2.16 1.92,-2.94 0.16,-1.1 -1.34,1.42 -1.77,1.49 -1.81,0.28 -0.04,-0.63 -0.15,-0.47 -0.51,0.59 -0.59,2 -1.21,2.55 -2,1.88 -0.9,-0.75 -1.84,0.31 -2.19,2.43 l -0.24,1.69 -0.08,-2.16 c -0.08,-2.04 -0.08,-2.12 -0.59,-1.18 -0.31,0.55 -0.74,2.05 -1.02,3.34 -0.27,1.29 -0.55,2.59 -0.63,2.86 -0.11,0.4 -0.66,0.16 -1.84,-0.78 l -1.65,-1.3 1.45,1.73 c 0.83,0.98 1.5,1.88 1.5,2.04 0,0.16 -0.59,1.49 -1.3,2.98 -0.75,1.45 -1.57,3.3 -1.92,4.04 l -0.59,1.34 -0.98,-1.73 c -0.98,-1.72 -1.02,-2.04 -1.26,-10.98 -0.19,-8.32 -0.82,-14.6 -1.72,-17.86 -0.24,-0.82 -0.43,1.34 -0.63,6.87 -0.24,7.1 -0.86,14.44 -1.26,14.87 -0.27,0.31 -5.61,-4.71 -7.22,-6.79 -1.57,-2.08 -1.6,-2.23 -1.17,-3.57 0.55,-1.69 1.64,-2.43 4.82,-3.37 l 2.44,-0.71 -2.55,0.2 c -3.85,0.35 -5.34,0.82 -6.44,2.12 -1.58,1.75 -2.14,3.35 -2.75,4.67 -0.78,1.68 -1.76,4.23 -2.15,5.61 l -0.71,2.47 -0.47,-1.69 c -0.14,-0.48 -0.99,-4.7 -1.02,-4.98 -0.16,-1.45 -0.2,-5.65 -0.04,-9.38 l 0.27,-6.71 -1.29,-2.12 c -0.71,-1.14 -1.69,-2.74 -2.16,-3.53 -0.78,-1.26 -0.9,-1.29 -0.9,-0.51 0,0.51 0.43,3.77 0.98,7.26 1.18,7.85 1.25,9.02 0.82,15.38 -0.31,4.83 -0.39,5.18 -1.53,6.79 -1.06,1.45 -1.29,1.61 -1.53,0.98 -0.15,-0.39 -0.98,-2.36 -1.84,-4.36 -1.45,-3.37 -1.57,-3.88 -1.37,-6.08 l 0.23,-2.43 -0.86,1.37 -0.86,1.34 -0.95,-1.14 c -0.51,-0.67 -0.94,-1.3 -0.94,-1.41 0,-0.63 -2.2,-1.57 -4.04,-1.77 -1.73,-0.16 -1.88,-0.12 -1.06,0.24 3.26,1.41 4.28,4.31 4.51,12.71 0.12,3.45 0.08,7.96 -0.08,10 -0.23,3.53 -0.31,3.77 -1.53,5.1 -2,2.12 -2.19,1.42 -1.92,-5.84 0.12,-3.34 0.32,-7.22 0.47,-8.63 0.2,-2.4 0.16,-2.52 -0.43,-1.77 l -0.63,0.78 0.24,-0.78 c 0.19,-0.75 0.19,-0.75 -0.36,-0.12 -0.51,0.67 -1.41,4.4 -2.11,8.75 -0.28,1.85 -0.32,1.77 -0.55,-1.96 -0.36,-5.34 -0.44,-17.26 -0.08,-17.58 0.12,-0.15 4.59,1.99 0.86,-0.51 -0.31,-0.15 -0.27,-0.35 0.08,-0.59 0.39,-0.23 0.24,-0.35 -0.47,-0.35 -1.26,0 -1.84,0.63 -2.16,2.39 -0.16,0.87 -0.98,2.12 -2.27,3.5 -3.61,3.8 -5.58,7.1 -7.54,12.47 l -0.94,2.63 0.16,-4.71 c 0.19,-5.72 1.1,-10.16 2.63,-13.26 0.66,-1.25 1.1,-2.39 1.02,-2.51 -0.32,-0.27 -2.55,3.18 -4.01,6.24 -0.74,1.57 -1.41,2.75 -1.41,2.67 -0.04,-0.12 -0.27,-4 -0.51,-8.63 -0.43,-7.93 -0.47,-8.32 -0.9,-6.44 -1.06,4.47 -1.57,10.67 -1.69,20.17 -0.08,5.61 -0.16,6.39 -0.43,4.31 -0.16,-1.41 -0.31,-6.16 -0.31,-10.55 0,-4.39 -0.08,-8.08 -0.2,-8.2 -0.35,-0.31 -1.1,1.96 -1.3,3.88 -0.19,1.77 -0.19,1.77 -1.84,1.85 -2.59,0.15 -4.12,0.82 -5.1,2.27 l -0.9,1.34 -0.79,-0.9 c -1.13,-1.22 -1.8,-6.67 -1.06,-8.21 0.71,-1.37 0.67,-1.88 -0.04,-0.94 -0.51,0.67 -0.54,0.59 -0.82,-0.78 -0.12,-0.87 -0.51,-1.85 -0.86,-2.24 -0.59,-0.63 -0.63,-0.63 -1.45,0.12 l -0.87,0.82 -1.49,-2.27 c -0.82,-1.26 -1.76,-2.71 -2.04,-3.26 -0.51,-0.98 -0.51,-0.98 -0.51,-0.08 0,0.47 0.35,3.3 0.83,6.2 0.43,2.94 0.74,5.42 0.62,5.5 -0.08,0.11 -0.74,-0.28 -1.41,-0.83 -0.94,-0.82 -1.22,-1.37 -1.26,-2.47 l -0.03,-1.45 -0.51,1.21 c -0.32,0.67 -0.83,1.42 -1.14,1.69 -0.55,0.43 -0.63,0.43 -0.63,-0.2 -0.04,-0.43 -0.27,-1.29 -0.59,-1.92 -0.55,-1.14 -0.55,-1.1 -0.35,1.22 l 0.23,2.39 -2.19,2.08 c -0.6,0.56 -1.07,1.1 -2.12,1.9 M 1099,693.69 c 0.54,0.36 1.41,1.53 1.88,2.59 0.9,1.85 0.9,1.92 0.23,3.38 -0.35,0.86 -0.82,1.53 -1.02,1.53 -0.15,0 -0.31,0.27 -0.31,0.58 0,0.36 -0.59,0 -1.49,-0.9 -1.49,-1.49 -1.53,-1.61 -1.73,-4.94 -0.23,-3.34 -0.19,-3.42 0.63,-3.18 0.43,0.16 1.26,0.55 1.81,0.94 z" id="path112" style="stroke:#5CA595;stroke-width:2.02;stroke-miterlimit:22.9256;stroke-opacity:0.639216;fill:none;fill-rule:nonzero"/>
    </g>
</svg>
