<?xml version="1.0" encoding="UTF-8" standalone="no"?>
<!--Creator: CorelDRAW 2021.5-->
<svg xml:space="preserve" width="318.29272" height="318.2926" version="1.1" style="clip-rule:evenodd;fill-rule:evenodd;image-rendering:optimizeQuality;shape-rendering:geometricPrecision;text-rendering:geometricPrecision" viewBox="0 0 272.06011 272.01286" id="svg196" sodipodi:docname="map_layer_icons.svg" xmlns:inkscape="http://www.inkscape.org/namespaces/inkscape" xmlns:sodipodi="http://sodipodi.sourceforge.net/DTD/sodipodi-0.dtd" xmlns="http://www.w3.org/2000/svg" xmlns:svg="http://www.w3.org/2000/svg">
    <sodipodi:namedview id="namedview196" pagecolor="#ffffff" bordercolor="#000000" borderopacity="0.25" inkscape:showpageshadow="2" inkscape:pageopacity="0.0" inkscape:pagecheckerboard="0" inkscape:deskcolor="#d1d1d1">
        <inkscape:page x="0" y="0" width="272.06012" height="272.01285" id="page2" margin="0" bleed="0"/>
    </sodipodi:namedview>
    <defs id="defs1">
        <style type="text/css" id="style1">
            <![CDATA[.str5{stroke:#AF9778;stroke-width:1.42;stroke-miterlimit:22.9256;stroke-opacity:0.250980}.str6{stroke:#5B5A50;stroke-width:1.66;stroke-miterlimit:22.9256;stroke-opacity:0.349020}.str9{stroke:#B0CB1F;stroke-width:2.02;stroke-miterlimit:22.9256;stroke-opacity:0.439216}.str11{stroke:#EBECEC;stroke-width:2.02;stroke-miterlimit:22.9256;stroke-opacity:0.501961}.str1{stroke:#FFED00;stroke-width:2.02;stroke-miterlimit:22.9256;stroke-opacity:0.501961}.str3{stroke:#008DD2;stroke-width:1.42;stroke-miterlimit:22.9256;stroke-opacity:0.580392}.str4{stroke:#434242;stroke-width:1.42;stroke-miterlimit:22.9256;stroke-opacity:0.600000}.str2{stroke:#BD77A1;stroke-width:2.02;stroke-miterlimit:22.9256;stroke-opacity:0.600000}.str7{stroke:#5CA595;stroke-width:2.02;stroke-miterlimit:22.9256;stroke-opacity:0.639216}.str8{stroke:#AF9778;stroke-width:1.42;stroke-miterlimit:22.9256;stroke-opacity:0.780392}.fil35{fill:none;fill-rule:nonzero}.fil37{fill:none;fill-rule:nonzero}.fil26{fill:none}.fil31{fill:none;fill-rule:nonzero}.fil28{fill:none}.fil33{fill:none;fill-rule:nonzero}.fil38{fill:none;fill-rule:nonzero}.fil40{fill:none;fill-rule:nonzero}.fil14{fill:#D9DADA}.fil15{fill:#C5C6C6}.fil19{fill:#B2B3B3}.fil12{fill:#9D9E9E}.fil11{fill:#D19563}.fil17{fill:#E31E24}.fil18{fill:#539433}.fil23{fill:#00A0E3}.fil8{fill:#008DD2}.fil9{fill:#8FA883}.fil7{fill:#ACD4DE}.fil6{fill:#ACDDA1}.fil16{fill:#BDBDBD}.fil10{fill:#CFCBC4}.fil4{fill:#EAEBD5}.fil3{fill:#ECEDD3}.fil5{fill:#EDEED6}.fil2{fill:#EDEFD4}.fil0{fill:#F0EBE2}.fil1{fill:#F1EEE9}.fil45{fill:#2B2A29;fill-rule:nonzero}.fil42{fill:black;fill-rule:nonzero}.fil34{fill:#86755D;fill-rule:nonzero;fill-opacity:0.101961}.fil36{fill:#FECC00;fill-rule:nonzero;fill-opacity:0.149020}.fil32{fill:black;fill-rule:nonzero;fill-opacity:0.149020}.fil30{fill:#748187;fill-rule:nonzero;fill-opacity:0.168627}.fil39{fill:#AF9778;fill-rule:nonzero;fill-opacity:0.211765}.fil20{fill:#BBC274;fill-opacity:0.258824}.fil22{fill:#BBC274;fill-opacity:0.360784}.fil24{fill:#00A0E3;fill-rule:nonzero;fill-opacity:0.400000}.fil43{fill:#B0CB1F;fill-opacity:0.439216}.fil44{fill:#B0CB1F;fill-rule:nonzero;fill-opacity:0.439216}.fil48{fill:#FCD5A6;fill-opacity:0.501961}.fil27{fill:#FECC00;fill-opacity:0.501961}.fil41{fill:#DBE285;fill-opacity:0.501961}.fil21{fill:#DBE285;fill-opacity:0.701961}.fil25{fill:#00A0E3;fill-rule:nonzero;fill-opacity:0.701961}.fil29{fill:#AE4A84;fill-rule:nonzero;fill-opacity:0.729412}]]>
        </style>
    </defs>
    <g id="Ebene_x0020_1" inkscape:label="Ebene 1" inkscape:groupmode="layer" transform="translate(-2120.3799,-483.91)">
        <metadata id="CorelCorpID_0Corel-Layer"/>
        <circle cx="2256.4099" cy="619.84003" r="135.02" id="circle167" style="stroke:#EBECEC;stroke-width:2.02;stroke-miterlimit:22.9256;fill:#EBECEC"/>
        <g id="_2494746365824">
            <g id="g173">
                <path d="m 2330.85,558.19 c 0,0.2 0.07,0.38 0.13,0.38 0.08,0 0.13,-0.18 0.13,-0.38 0,-0.22 -0.05,-0.39 -0.13,-0.39 -0.06,0 -0.13,0.17 -0.13,0.39 z" id="path168" style="fill:#F08143;fill-rule:nonzero;fill-opacity:0.090196"/>
                <path d="m 2176.8,558.97 c -0.34,0.06 -0.95,0.08 -1.3,0.04 -0.52,-0.07 -0.76,-0.03 -1,0.12 -0.17,0.12 -0.53,0.21 -0.81,0.21 -0.35,0 -0.6,0.1 -0.92,0.38 -0.25,0.21 -0.52,0.38 -0.59,0.39 -0.08,0 -0.45,0.28 -0.82,0.64 -0.37,0.35 -0.73,0.64 -0.78,0.64 -0.06,0 -0.2,0.17 -0.31,0.36 -0.13,0.2 -0.34,0.41 -0.49,0.49 -0.14,0.06 -0.36,0.29 -0.49,0.51 -0.25,0.47 -0.52,2.24 -0.35,2.41 0.15,0.17 0.14,1.23 -0.02,1.23 -0.06,0 -0.13,-0.07 -0.13,-0.13 0,-0.08 -0.06,-0.13 -0.14,-0.13 -0.09,0 -0.1,0.14 -0.05,0.38 0.07,0.29 0.01,0.5 -0.18,0.82 -0.27,0.43 -0.27,1.14 0,1.31 0.07,0.04 0.12,0.27 0.12,0.51 0,0.25 0.06,0.44 0.13,0.44 0.07,0 0.12,0.11 0.12,0.25 0,0.15 0.07,0.26 0.13,0.26 0.08,0 0.13,0.13 0.13,0.3 0,0.16 0.12,0.42 0.26,0.57 0.18,0.19 0.25,0.45 0.25,0.89 0,0.57 0.4,1.88 0.66,2.15 0.06,0.06 0.11,0.2 0.11,0.32 0,0.11 0.1,0.32 0.23,0.46 0.21,0.23 0.41,0.63 0.66,1.23 0.05,0.17 0.23,0.55 0.38,0.84 0.14,0.31 0.27,0.67 0.27,0.8 0,0.14 0.06,0.28 0.13,0.32 0.07,0.04 0.13,0.22 0.13,0.38 0,0.17 0.06,0.35 0.12,0.39 0.08,0.04 0.13,0.22 0.13,0.4 0,0.17 0.12,0.43 0.26,0.58 0.14,0.16 0.25,0.39 0.25,0.5 0,0.13 0.07,0.27 0.13,0.31 0.08,0.04 0.13,0.19 0.13,0.34 0,0.12 0.06,0.37 0.15,0.53 0.31,0.62 0.36,0.73 0.36,0.98 0,0.14 0.07,0.29 0.13,0.33 0.08,0.04 0.13,0.28 0.13,0.51 0,0.49 0.22,1.54 0.4,1.89 0.06,0.12 0.11,0.34 0.11,0.47 0,0.28 0.21,0.81 0.51,1.29 0.26,0.41 0.52,1.16 0.52,1.5 0,0.16 0.05,0.41 0.11,0.58 0.07,0.16 0.25,0.73 0.4,1.25 0.15,0.53 0.33,1.07 0.4,1.18 0.06,0.13 0.11,0.34 0.11,0.46 0,0.13 0.08,0.31 0.16,0.39 0.12,0.13 0.12,0.22 0,0.41 -0.22,0.36 -0.2,0.77 0.05,0.77 0.33,0 0.56,0.33 0.56,0.8 0,0.26 0.08,0.48 0.17,0.52 0.11,0.03 0.11,0.11 -0.02,0.33 -0.11,0.19 -0.11,0.35 -0.03,0.51 0.07,0.13 0.1,0.44 0.05,0.69 -0.05,0.32 0,0.57 0.14,0.78 0.11,0.18 0.2,0.52 0.2,0.76 0,0.23 0.05,0.47 0.12,0.55 0.06,0.07 0.14,0.35 0.18,0.63 0.04,0.28 0.21,1.19 0.39,2.04 0.18,0.83 0.34,1.8 0.34,2.14 0,0.34 0.05,0.73 0.11,0.85 0.21,0.43 0.4,1.14 0.4,1.54 0,0.22 0.06,0.44 0.13,0.48 0.07,0.03 0.13,0.19 0.13,0.32 0,0.14 0.11,0.44 0.25,0.7 0.14,0.26 0.26,0.56 0.26,0.68 0,0.13 0.06,0.29 0.14,0.37 0.08,0.08 0.14,0.42 0.14,0.76 0,0.34 0.05,0.68 0.1,0.75 0.11,0.14 0.16,0.39 0.44,2.37 0.11,0.75 0.25,1.48 0.33,1.64 0.07,0.17 0.13,0.46 0.13,0.67 0,0.2 0.06,0.41 0.13,0.45 0.07,0.04 0.13,0.21 0.13,0.39 0,0.17 0.06,0.31 0.12,0.31 0.08,0 0.13,0.19 0.13,0.44 0,0.24 0.07,0.48 0.13,0.52 0.08,0.04 0.13,0.21 0.13,0.37 0,0.17 0.1,0.39 0.24,0.52 0.13,0.11 0.37,0.48 0.54,0.82 0.17,0.33 0.38,0.67 0.46,0.76 0.09,0.09 0.17,0.22 0.17,0.27 0,0.05 0.45,0.57 1,1.13 1.03,1.08 2.07,1.85 3.47,2.61 0.46,0.25 1.06,0.58 1.33,0.74 0.27,0.15 0.56,0.28 0.67,0.28 0.11,0 0.29,0.05 0.42,0.11 0.11,0.07 0.47,0.19 0.79,0.27 0.32,0.09 0.72,0.21 0.9,0.26 0.18,0.06 0.85,0.18 1.47,0.27 0.64,0.07 1.21,0.2 1.27,0.25 0.08,0.07 0.26,0.12 0.43,0.12 0.15,0 0.49,0.13 0.76,0.28 0.27,0.15 0.76,0.41 1.11,0.58 0.33,0.16 0.6,0.35 0.6,0.43 0,0.17 -0.32,0.5 -0.49,0.5 -0.06,0 -0.33,0.22 -0.61,0.49 -0.27,0.25 -0.76,0.61 -1.08,0.78 -0.32,0.18 -0.67,0.42 -0.78,0.55 -0.12,0.13 -0.28,0.23 -0.36,0.23 -0.09,0 -0.27,0.12 -0.42,0.26 -0.16,0.14 -0.36,0.25 -0.45,0.25 -0.09,0 -0.17,0.05 -0.17,0.13 0,0.07 -0.09,0.13 -0.2,0.13 -0.11,0 -0.43,0.23 -0.69,0.51 -0.27,0.28 -0.56,0.51 -0.65,0.51 -0.16,0 -2.52,2.35 -3.02,3.04 -0.2,0.27 -0.47,0.59 -0.59,0.73 -0.49,0.54 -0.64,1.08 -0.55,1.92 0.06,0.55 0.04,0.98 -0.08,1.31 -0.16,0.5 -0.85,1.61 -1.05,1.69 -0.24,0.11 0.02,2.45 0.31,2.77 0.07,0.07 0.12,0.2 0.12,0.3 0,0.11 0.16,0.35 0.38,0.54 0.21,0.2 0.38,0.45 0.38,0.55 0,0.12 0.06,0.22 0.11,0.25 0.38,0.15 1.43,1.88 1.43,2.34 0,0.17 0.07,0.35 0.13,0.39 0.15,0.09 0.18,2.88 0.03,2.88 -0.18,0 -0.58,1.07 -0.68,1.86 -0.07,0.42 -0.14,0.97 -0.2,1.23 -0.1,0.61 0.32,1.47 1.12,2.29 0.35,0.36 0.63,0.7 0.63,0.78 0,0.08 0.27,0.4 0.61,0.73 0.34,0.33 0.68,0.76 0.78,0.96 0.11,0.19 0.23,0.35 0.3,0.35 0.05,0 0.1,0.16 0.1,0.38 0,0.21 0.06,0.39 0.13,0.39 0.08,0 0.13,0.12 0.13,0.29 0,0.17 0.07,0.37 0.16,0.46 0.2,0.19 0.17,2.74 -0.03,2.81 -0.07,0.02 -0.13,0.15 -0.13,0.28 0,0.13 -0.16,0.54 -0.36,0.91 -0.42,0.82 -0.67,1.51 -0.67,1.86 0,0.14 -0.06,0.32 -0.13,0.38 -0.07,0.08 -0.14,0.76 -0.14,1.56 0,0.78 -0.05,1.46 -0.11,1.5 -0.17,0.1 -0.17,1.22 0,1.22 0.07,0 0.13,0.17 0.13,0.38 0,0.49 0.3,0.99 1.14,1.85 0.35,0.38 0.65,0.78 0.65,0.89 0,0.12 0.06,0.21 0.13,0.21 0.07,0 0.13,0.12 0.13,0.26 0,0.14 0.06,0.25 0.12,0.25 0.08,0 0.13,0.12 0.13,0.26 0,0.14 0.07,0.26 0.13,0.26 0.08,0 0.13,0.16 0.13,0.37 0,0.2 0.06,0.39 0.14,0.42 0.19,0.06 0.18,4.48 -0.01,4.84 -0.07,0.13 -0.13,0.41 -0.13,0.63 0,0.2 -0.05,0.42 -0.13,0.46 -0.06,0.04 -0.13,0.19 -0.13,0.32 0,0.14 -0.11,0.45 -0.25,0.71 -0.18,0.3 -0.26,0.69 -0.26,1.21 0,0.66 -0.09,0.94 -0.63,2.01 -0.34,0.7 -0.69,1.48 -0.78,1.76 -0.09,0.27 -0.32,0.67 -0.53,0.88 -0.2,0.21 -0.37,0.45 -0.37,0.54 0,0.09 -0.11,0.26 -0.25,0.38 -0.14,0.13 -0.26,0.34 -0.26,0.45 0,0.12 -0.27,0.55 -0.6,0.98 -0.35,0.41 -0.69,0.91 -0.8,1.11 -0.1,0.19 -0.23,0.35 -0.29,0.35 -0.05,0 -0.1,0.11 -0.1,0.25 0,0.14 -0.05,0.26 -0.12,0.26 -0.06,0 -0.16,0.12 -0.2,0.26 -0.04,0.14 -0.16,0.33 -0.25,0.41 -0.07,0.09 -0.24,0.37 -0.36,0.61 -0.11,0.26 -0.35,0.63 -0.53,0.83 -0.18,0.22 -0.34,0.45 -0.34,0.52 0,0.07 -0.11,0.21 -0.25,0.32 -0.14,0.1 -0.26,0.27 -0.26,0.38 0,0.12 -0.11,0.28 -0.25,0.39 -0.15,0.1 -0.26,0.26 -0.26,0.37 0,0.09 -0.1,0.27 -0.23,0.38 -0.12,0.12 -0.36,0.42 -0.54,0.68 -0.18,0.27 -0.36,0.49 -0.41,0.49 -0.06,0 -0.1,0.07 -0.1,0.18 0,0.09 -0.14,0.3 -0.3,0.47 -0.28,0.28 -1.53,1.74 -2.01,2.34 -0.1,0.15 -0.37,0.45 -0.57,0.71 -0.22,0.26 -0.56,0.68 -0.75,0.93 -0.45,0.62 -1.57,1.77 -1.71,1.77 -0.07,0 -0.25,0.12 -0.4,0.26 -0.21,0.19 -0.26,0.34 -0.19,0.64 0.06,0.33 0.03,0.38 -0.21,0.38 -0.15,0 -0.27,0.08 -0.27,0.2 0,0.11 -0.11,0.33 -0.25,0.48 -0.5,0.54 -1.03,1.28 -1.03,1.45 0,0.09 -0.04,0.18 -0.1,0.21 -0.14,0.06 -1.44,2.08 -1.44,2.25 0,0.06 -0.11,0.22 -0.25,0.35 -0.14,0.12 -0.26,0.26 -0.26,0.33 0,0.24 -1.01,1.73 -1.25,1.84 -0.23,0.11 -0.27,0.23 -0.27,0.78 0.01,0.62 -0.03,0.71 -0.52,1.21 -0.39,0.41 -0.52,0.64 -0.52,0.96 0,0.24 -0.06,0.45 -0.14,0.47 -0.18,0.07 -0.22,1.64 -0.05,1.9 0.06,0.1 0.14,0.68 0.15,1.27 0.03,0.98 0.05,1.09 0.39,1.37 0.32,0.27 0.48,0.31 1.42,0.31 0.57,0 1.05,-0.04 1.05,-0.11 0,-0.1 0.63,-0.41 0.86,-0.41 0.09,0 0.16,-0.06 0.16,-0.12 0,-0.08 0.09,-0.13 0.21,-0.13 0.22,0 1.07,-0.86 1.07,-1.08 0,-0.08 0.21,-0.4 0.45,-0.7 0.25,-0.31 0.45,-0.6 0.45,-0.67 0,-0.05 0.23,-0.33 0.51,-0.63 0.28,-0.29 0.6,-0.74 0.73,-1 0.12,-0.25 0.41,-0.67 0.64,-0.92 0.23,-0.24 0.46,-0.59 0.5,-0.77 0.05,-0.18 0.25,-0.5 0.44,-0.7 0.19,-0.22 0.42,-0.58 0.52,-0.81 0.11,-0.22 0.22,-0.41 0.27,-0.41 0.07,0 0.11,-0.09 0.11,-0.19 0,-0.26 0.6,-1.41 0.84,-1.62 0.1,-0.07 0.18,-0.23 0.18,-0.32 0,-0.1 0.05,-0.18 0.1,-0.18 0.07,0 0.25,-0.3 0.41,-0.67 0.16,-0.36 0.36,-0.81 0.44,-0.99 0.08,-0.18 0.33,-0.64 0.59,-1.02 0.25,-0.39 0.54,-0.86 0.63,-1.07 0.1,-0.19 0.23,-0.34 0.29,-0.34 0.05,0 0.1,-0.12 0.1,-0.26 0,-0.14 0.04,-0.26 0.11,-0.26 0.05,0 0.15,-0.12 0.23,-0.29 0.55,-1.09 1.03,-1.99 1.21,-2.18 0.21,-0.23 0.31,-0.42 0.68,-1.25 0.12,-0.26 0.28,-0.54 0.4,-0.63 0.1,-0.09 0.19,-0.21 0.19,-0.27 0,-0.07 0.1,-0.23 0.23,-0.37 0.26,-0.31 0.83,-1.3 1.13,-1.92 0.46,-1.03 0.68,-1.38 1.23,-1.98 0.27,-0.29 0.49,-0.56 0.49,-0.62 0,-0.06 0.06,-0.17 0.12,-0.26 0.26,-0.31 1.67,-2.54 1.67,-2.63 0,-0.05 0.11,-0.18 0.26,-0.28 0.14,-0.1 0.25,-0.23 0.25,-0.29 0,-0.13 0.64,-1.07 0.99,-1.44 0.13,-0.14 0.4,-0.49 0.6,-0.76 0.22,-0.28 0.41,-0.43 0.44,-0.35 0.09,0.28 0.28,0.15 0.28,-0.18 0,-0.31 0.2,-0.81 0.37,-0.95 0.05,-0.04 0.23,-0.26 0.4,-0.5 0.53,-0.78 1.61,-1.81 1.88,-1.81 0.15,0 0.46,-0.19 0.69,-0.42 0.42,-0.4 0.46,-0.41 1.45,-0.38 1.27,0.02 2.57,0.27 3.15,0.6 0.24,0.13 0.68,0.37 0.95,0.51 0.28,0.15 0.65,0.42 0.84,0.6 0.26,0.26 0.52,0.36 1.12,0.44 0.43,0.05 0.84,0.05 0.91,0.01 0.06,-0.04 0.24,0.05 0.4,0.19 l 0.26,0.26 0.49,-0.37 c 0.26,-0.21 0.65,-0.44 0.86,-0.51 0.64,-0.25 1.79,-0.38 2.13,-0.25 0.16,0.07 1.03,0.13 1.92,0.13 1.51,0.03 2.07,-0.08 2.42,-0.42 0.04,-0.04 0.31,-0.21 0.61,-0.36 0.31,-0.17 1,-0.74 1.54,-1.27 0.54,-0.52 1.13,-1.02 1.31,-1.1 0.18,-0.09 0.33,-0.26 0.36,-0.4 0.05,-0.27 0.34,-0.65 0.76,-1.02 0.17,-0.16 0.68,-0.62 1.14,-1.04 0.47,-0.42 0.97,-0.85 1.12,-0.95 0.14,-0.1 0.38,-0.33 0.52,-0.51 0.15,-0.18 0.56,-0.64 0.91,-1.04 0.93,-1 1.98,-2.6 1.98,-3 0,-0.1 0.19,-0.51 0.43,-0.92 0.25,-0.42 0.54,-0.96 0.66,-1.2 0.11,-0.25 0.29,-0.59 0.39,-0.77 0.82,-1.44 1.59,-3.24 1.59,-3.7 0,-0.45 0.21,-1.07 0.65,-1.96 0.07,-0.13 0.11,-0.5 0.11,-0.84 -0.02,-0.34 -0.05,-0.48 -0.08,-0.33 -0.03,0.17 -0.1,0.29 -0.17,0.29 -0.06,0 -0.2,0.27 -0.29,0.61 -0.22,0.74 -0.47,0.88 -0.47,0.24 0,-0.24 0.05,-0.49 0.12,-0.53 0.07,-0.03 0.12,-0.2 0.12,-0.35 -0.01,-0.38 0.19,-0.95 0.78,-2.21 0.27,-0.56 0.53,-1.14 0.58,-1.28 0.09,-0.24 0.1,-0.23 0.24,0.09 0.14,0.33 0.15,0.33 0.31,0.1 0.09,-0.14 0.15,-0.41 0.15,-0.61 0,-0.19 0.05,-0.41 0.12,-0.49 0.06,-0.06 0.14,-0.34 0.19,-0.63 0.17,-1.23 0.23,-1.55 0.32,-1.79 0.33,-0.85 0.58,-1.64 0.73,-2.39 0.24,-1.23 0.67,-2.48 1.15,-3.44 0.23,-0.46 0.54,-1.15 0.69,-1.54 0.16,-0.38 0.35,-0.88 0.45,-1.08 0.09,-0.22 0.3,-0.73 0.46,-1.16 0.17,-0.42 0.41,-0.97 0.55,-1.21 0.15,-0.25 0.41,-0.75 0.59,-1.09 0.59,-1.09 0.9,-1.62 1.43,-2.4 0.27,-0.42 0.5,-0.79 0.5,-0.82 0,-0.11 1.14,-1.77 1.67,-2.42 1.02,-1.24 1.46,-1.91 2.04,-2.99 0.32,-0.6 0.67,-1.12 0.76,-1.15 0.11,-0.04 0.14,0.03 0.09,0.18 -0.06,0.21 -0.52,3.82 -0.59,4.79 -0.12,1.34 -0.03,4.2 0.16,5.37 0.12,0.74 0.22,1.5 0.22,1.7 0,0.21 0.05,0.47 0.12,0.59 0.06,0.12 0.18,0.45 0.27,0.73 0.2,0.68 0.48,1.32 0.64,1.41 0.06,0.04 0.23,0.32 0.35,0.62 0.27,0.59 0.38,0.7 1.09,1.1 0.58,0.32 0.82,0.33 1.34,0.08 0.41,-0.21 0.79,-0.58 0.6,-0.58 -0.05,0 0.14,-0.26 0.45,-0.56 l 0.56,-0.58 0.01,-1.06 c 0.03,-1.09 0.32,-2.5 0.7,-3.31 0.11,-0.24 0.24,-0.59 0.28,-0.77 0.04,-0.18 0.12,-0.29 0.19,-0.25 0.2,0.1 0.06,1.55 -0.21,2.16 -0.14,0.31 -0.21,0.65 -0.18,0.77 0.08,0.24 -0.35,2.28 -0.62,2.96 -0.04,0.1 -0.11,0.4 -0.13,0.64 -0.04,0.24 -0.15,0.77 -0.27,1.15 -0.1,0.39 -0.19,0.82 -0.19,0.99 0,0.15 -0.05,0.32 -0.13,0.36 -0.08,0.04 -0.13,0.24 -0.13,0.45 0,0.19 -0.18,0.75 -0.41,1.24 -0.22,0.47 -0.41,0.91 -0.41,0.96 -0.01,0.05 -0.09,0.17 -0.16,0.26 -0.09,0.07 -0.17,0.29 -0.17,0.44 0,0.17 -0.12,0.55 -0.26,0.84 -0.14,0.29 -0.25,0.59 -0.25,0.66 0,0.13 -0.41,1.09 -0.71,1.62 -0.18,0.33 -0.61,1.23 -1.22,2.5 -0.19,0.42 -0.42,1 -0.51,1.28 -0.09,0.28 -0.22,0.65 -0.29,0.83 -0.26,0.67 -0.52,1.5 -0.63,2.11 -0.23,1.28 -0.26,1.58 -0.12,1.66 0.17,0.11 0.2,1.03 0.03,1.33 -0.17,0.32 0.05,1.48 0.43,2.24 0.48,0.95 0.71,3.18 0.74,7.2 v 1.15 l 1.39,1.37 c 0.76,0.77 1.45,1.39 1.51,1.39 0.08,0 0.14,0.11 0.14,0.27 0,0.53 0.24,0.75 0.81,0.75 0.42,0 0.66,0.09 1.03,0.4 0.25,0.22 0.47,0.46 0.47,0.55 0,0.09 0.14,0.29 0.31,0.45 0.19,0.19 0.28,0.37 0.23,0.55 -0.03,0.14 0,0.55 0.08,0.91 0.07,0.37 0.26,1.33 0.42,2.14 0.15,0.8 0.34,1.55 0.41,1.64 0.07,0.1 0.13,0.47 0.11,0.82 0,0.36 0.05,0.77 0.12,0.91 0.08,0.13 0.15,0.59 0.19,1.01 0.03,0.42 0.1,0.85 0.18,0.93 0.06,0.08 0.09,0.18 0.05,0.22 -0.02,0.04 0.03,0.85 0.13,1.78 0.29,2.51 0.42,5.32 0.29,6.27 -0.16,1.19 -0.05,2.56 0.26,3.15 0.13,0.28 0.36,0.84 0.49,1.27 0.11,0.42 0.29,0.86 0.37,0.96 0.09,0.1 0.22,0.34 0.31,0.54 0.07,0.19 0.35,0.59 0.62,0.88 0.27,0.29 0.48,0.58 0.45,0.61 -0.01,0.04 0.1,0.11 0.26,0.12 0.17,0.03 0.36,0.1 0.45,0.18 0.09,0.06 0.23,0.08 0.32,0.03 0.09,-0.07 0.47,-0.12 0.84,-0.13 0.61,-0.02 0.75,-0.08 1.18,-0.5 0.44,-0.43 0.54,-0.67 0.68,-1.5 0.03,-0.12 0.1,-0.28 0.18,-0.39 0.09,-0.11 0.1,-0.52 0.04,-1.3 -0.07,-0.68 -0.07,-1.27 0.01,-1.46 0.09,-0.23 0.08,-0.37 -0.05,-0.53 -0.18,-0.2 -0.44,-1.34 -0.56,-2.51 -0.04,-0.36 -0.12,-0.7 -0.18,-0.78 -0.07,-0.08 -0.21,-0.46 -0.32,-0.83 -0.12,-0.39 -0.26,-0.76 -0.31,-0.82 -0.12,-0.16 -0.27,-0.95 -0.32,-1.75 -0.01,-0.33 -0.07,-0.65 -0.12,-0.73 -0.03,-0.06 -0.1,-1.01 -0.14,-2.08 -0.06,-1.77 -0.18,-2.62 -0.59,-4.28 -0.07,-0.28 -0.11,-0.81 -0.1,-1.16 0.01,-0.35 -0.08,-0.88 -0.2,-1.21 -0.47,-1.21 -0.76,-4.77 -0.45,-5.56 0.06,-0.18 0.19,-0.34 0.29,-0.34 0.09,0 0.4,-0.23 0.67,-0.51 0.27,-0.28 0.56,-0.51 0.64,-0.51 0.08,0 0.28,-0.15 0.46,-0.33 0.17,-0.18 0.51,-0.41 0.76,-0.53 0.24,-0.1 0.78,-0.36 1.19,-0.56 0.41,-0.21 0.88,-0.37 1.05,-0.37 0.16,0 0.33,-0.06 0.37,-0.12 0.06,-0.1 0.7,-0.18 2.54,-0.32 0.75,-0.06 1.33,-0.33 1.44,-0.7 0.04,-0.13 0.25,-0.4 0.45,-0.59 0.33,-0.32 0.44,-0.36 0.63,-0.23 0.22,0.12 0.33,0.07 0.83,-0.44 0.34,-0.32 0.57,-0.61 0.53,-0.65 -0.04,-0.04 -0.34,0.18 -0.64,0.48 -0.32,0.31 -0.58,0.5 -0.58,0.43 0,-0.08 0.18,-0.3 0.38,-0.46 0.22,-0.18 0.39,-0.41 0.39,-0.53 0,-0.1 0.05,-0.23 0.13,-0.27 0.06,-0.04 0.13,-0.22 0.13,-0.38 0,-0.17 0.05,-0.35 0.12,-0.39 0.07,-0.04 0.13,-0.27 0.13,-0.51 0,-0.24 0.05,-0.46 0.12,-0.5 0.06,-0.04 0.16,-0.32 0.24,-0.63 0.08,-0.3 0.27,-0.66 0.41,-0.79 0.14,-0.13 0.26,-0.36 0.26,-0.53 0,-0.16 0.05,-0.33 0.12,-0.37 0.07,-0.04 0.13,-0.27 0.15,-0.48 0,-0.24 0.1,-0.56 0.21,-0.73 0.12,-0.18 0.36,-0.56 0.52,-0.81 0.16,-0.26 0.37,-0.48 0.43,-0.48 0.08,0 0.55,-0.39 1.05,-0.87 0.5,-0.47 1.12,-0.95 1.36,-1.04 0.24,-0.09 0.67,-0.26 0.93,-0.41 0.29,-0.12 0.57,-0.24 0.66,-0.24 0.09,0 0.38,-0.11 0.66,-0.24 0.45,-0.22 0.61,-0.23 1.58,-0.1 l 1.08,0.14 0.39,-0.45 c 0.23,-0.25 0.5,-0.42 0.63,-0.4 0.12,0.03 0.22,-0.01 0.22,-0.09 0,-0.08 -0.05,-0.14 -0.13,-0.14 -0.06,0 -0.13,-0.06 -0.13,-0.13 0,-0.07 0.18,-0.13 0.4,-0.13 0.35,0 0.38,-0.02 0.24,-0.19 -0.12,-0.15 -0.12,-0.24 -0.02,-0.34 0.09,-0.09 0.15,-0.23 0.15,-0.34 0,-0.1 0.23,-0.65 0.51,-1.24 0.29,-0.59 0.52,-1.11 0.52,-1.18 0,-0.06 0.16,-0.31 0.38,-0.55 0.21,-0.24 0.37,-0.51 0.38,-0.58 0,-0.07 0.24,-0.37 0.52,-0.64 0.28,-0.26 0.51,-0.56 0.51,-0.64 0,-0.18 1.05,-1.21 1.23,-1.21 0.08,0 0.29,-0.18 0.5,-0.39 0.2,-0.22 0.43,-0.38 0.51,-0.38 0.09,0 0.26,-0.12 0.39,-0.26 0.11,-0.13 0.43,-0.32 0.69,-0.4 0.25,-0.07 0.61,-0.25 0.8,-0.38 0.18,-0.14 0.39,-0.24 0.45,-0.24 0.07,0 0.27,-0.17 0.46,-0.36 0.3,-0.31 0.35,-0.46 0.35,-1.14 0,-0.44 0.06,-0.83 0.13,-0.87 0.08,-0.04 0.13,-0.22 0.13,-0.4 0,-0.17 0.05,-0.41 0.11,-0.54 0.07,-0.11 0.21,-0.42 0.32,-0.66 0.21,-0.44 0.95,-1.52 1.44,-2.11 0.25,-0.28 1.14,-0.98 1.41,-1.1 0.07,-0.04 0.41,-0.29 0.71,-0.59 0.69,-0.64 0.95,-1.35 1.13,-3.19 0.08,-0.7 0.15,-1.46 0.19,-1.66 0.07,-0.39 0.16,-1.19 0.28,-2.79 0.08,-1.06 -0.29,-3.23 -0.62,-3.62 -0.05,-0.06 -0.11,-0.19 -0.11,-0.27 0,-0.09 -0.28,-0.77 -0.64,-1.51 -0.34,-0.74 -0.64,-1.41 -0.64,-1.47 0,-0.37 -2.78,-2.83 -3.19,-2.83 -0.07,0 -0.14,-0.05 -0.14,-0.12 0,-0.05 0.89,-0.14 1.96,-0.19 2.83,-0.13 4.56,-0.28 5.22,-0.46 0.32,-0.08 0.77,-0.18 1,-0.22 0.23,-0.04 0.44,-0.11 0.48,-0.18 0.04,-0.06 0.21,-0.11 0.37,-0.11 0.17,0 0.35,-0.05 0.39,-0.13 0.04,-0.07 0.17,-0.13 0.25,-0.13 0.11,0 0.52,-0.15 0.93,-0.33 0.41,-0.18 0.95,-0.43 1.19,-0.54 0.24,-0.12 0.65,-0.36 0.9,-0.56 0.24,-0.2 0.51,-0.36 0.6,-0.36 0.19,0 3.11,-2.89 3.11,-3.08 0,-0.08 0.17,-0.31 0.36,-0.51 0.33,-0.35 0.69,-0.99 1.47,-2.69 0.16,-0.32 0.44,-0.77 0.63,-1 0.19,-0.23 0.36,-0.54 0.36,-0.67 0,-0.14 0.11,-0.32 0.26,-0.41 0.14,-0.09 0.25,-0.26 0.25,-0.38 0,-0.13 0.07,-0.23 0.13,-0.23 0.08,0 0.13,-0.1 0.13,-0.23 0,-0.13 0.2,-0.44 0.45,-0.67 0.44,-0.43 0.83,-1.05 0.83,-1.33 0,-0.08 0.28,-0.51 0.64,-0.97 0.35,-0.47 0.63,-0.9 0.64,-0.98 0,-0.07 0.13,-0.24 0.27,-0.38 0.15,-0.13 0.63,-0.76 1.05,-1.4 0.43,-0.63 0.88,-1.27 1.01,-1.39 0.13,-0.15 0.23,-0.31 0.23,-0.38 0,-0.06 0.18,-0.28 0.39,-0.47 0.21,-0.19 0.38,-0.41 0.38,-0.47 0,-0.07 0.19,-0.3 0.42,-0.5 0.57,-0.54 1.37,-1.45 1.37,-1.58 0,-0.05 0.22,-0.31 0.49,-0.55 0.26,-0.26 0.59,-0.62 0.73,-0.82 0.23,-0.33 1.37,-1.61 1.86,-2.1 0.11,-0.1 0.34,-0.4 0.51,-0.64 0.18,-0.25 0.41,-0.57 0.54,-0.69 0.13,-0.14 0.23,-0.31 0.23,-0.38 0,-0.07 0.21,-0.33 0.45,-0.58 0.65,-0.68 1.78,-2.08 1.97,-2.46 0.09,-0.18 0.33,-0.53 0.55,-0.77 0.21,-0.25 0.6,-0.76 0.87,-1.14 0.64,-0.9 0.78,-1.07 1.09,-1.23 0.13,-0.08 0.28,-0.22 0.32,-0.32 0.05,-0.11 0.16,-0.31 0.23,-0.46 0.09,-0.17 0.16,-0.39 0.16,-0.5 0,-0.21 0.62,-1.2 1.05,-1.64 0.12,-0.14 0.23,-0.35 0.23,-0.45 0,-0.12 0.18,-0.41 0.38,-0.66 0.21,-0.24 0.39,-0.58 0.39,-0.74 0,-0.16 0.1,-0.46 0.23,-0.64 0.12,-0.19 0.32,-0.55 0.41,-0.79 0.09,-0.25 0.27,-0.59 0.38,-0.77 0.1,-0.18 0.28,-0.5 0.37,-0.71 0.09,-0.21 0.26,-0.52 0.36,-0.7 0.1,-0.18 0.22,-0.42 0.26,-0.55 0.04,-0.12 0.11,-0.22 0.18,-0.22 0.06,0 0.11,-0.2 0.11,-0.45 0,-0.41 0.41,-1.43 0.63,-1.6 0.05,-0.04 0.09,-0.31 0.1,-0.61 0,-0.31 0.08,-0.63 0.16,-0.71 0.07,-0.08 0.14,-0.29 0.14,-0.47 0,-0.2 0.04,-0.39 0.09,-0.44 0.05,-0.05 0.11,-0.32 0.13,-0.61 0.02,-0.29 0.08,-0.59 0.15,-0.67 0.11,-0.15 0.2,-0.65 0.41,-2.38 0.31,-2.68 0.31,-2.56 -0.15,-3.47 -0.06,-0.12 -0.07,-0.34 -0.03,-0.49 0.05,-0.21 -0.01,-0.3 -0.26,-0.39 -0.18,-0.06 -0.36,-0.17 -0.39,-0.25 -0.12,-0.17 -0.84,-0.53 -1.09,-0.53 -0.12,0 -0.46,-0.1 -0.78,-0.2 -1.32,-0.48 -2.26,-0.57 -4.28,-0.42 -1.07,0.07 -1.95,0.19 -1.98,0.25 -0.02,0.07 -0.15,0.12 -0.29,0.12 -0.13,0 -0.24,0.05 -0.24,0.13 0,0.07 -0.35,0.12 -0.77,0.12 -0.43,0 -0.77,0.05 -0.77,0.13 0,0.07 -0.28,0.13 -0.62,0.13 -0.34,0 -0.66,0.04 -0.71,0.09 -0.13,0.14 -1.02,0.42 -1.32,0.42 -0.16,0 -0.32,0.05 -0.36,0.13 -0.04,0.06 -0.18,0.13 -0.3,0.13 -0.11,0 -0.36,0.11 -0.54,0.25 -0.17,0.15 -0.44,0.26 -0.61,0.26 -0.29,0 -1.27,0.41 -1.82,0.77 -0.18,0.1 -0.55,0.28 -0.83,0.37 -0.28,0.09 -0.83,0.32 -1.22,0.51 -0.38,0.21 -1.05,0.49 -1.47,0.66 -1.27,0.47 -1.47,0.57 -1.47,0.66 0,0.07 -0.11,0.11 -0.22,0.12 -0.13,0 -0.46,0.14 -0.75,0.31 -0.28,0.16 -0.71,0.39 -0.96,0.51 -0.24,0.11 -0.56,0.28 -0.7,0.36 -0.33,0.18 -1.04,0.51 -1.56,0.74 -0.24,0.1 -0.43,0.22 -0.43,0.27 0,0.06 -0.07,0.1 -0.16,0.1 -0.23,0 -0.86,0.31 -0.86,0.41 0,0.07 -0.12,0.1 -0.26,0.1 -0.14,0 -0.32,0.12 -0.41,0.26 -0.09,0.14 -0.25,0.26 -0.37,0.26 -0.12,0 -0.31,0.11 -0.44,0.25 -0.12,0.14 -0.37,0.26 -0.52,0.26 -0.17,0 -0.37,0.11 -0.46,0.25 -0.09,0.15 -0.24,0.26 -0.33,0.26 -0.09,0 -0.58,0.27 -1.09,0.62 -0.52,0.33 -1.09,0.69 -1.31,0.79 -0.21,0.1 -0.41,0.23 -0.45,0.27 -0.14,0.15 -1.65,1.14 -1.77,1.14 -0.05,0 -0.21,0.1 -0.36,0.23 -0.12,0.13 -0.59,0.4 -1.01,0.59 -0.42,0.2 -0.97,0.55 -1.23,0.77 -0.89,0.77 -1.2,0.97 -1.43,0.97 -0.3,0 -0.72,0.25 -1.13,0.67 -0.19,0.2 -0.41,0.36 -0.49,0.36 -0.07,0 -0.43,0.23 -0.8,0.51 -0.37,0.28 -0.76,0.51 -0.84,0.51 -0.09,0 -0.16,0.05 -0.16,0.13 0,0.06 -0.07,0.13 -0.14,0.13 -0.07,0 -0.48,0.23 -0.89,0.51 -0.41,0.28 -0.82,0.51 -0.88,0.51 -0.08,0 -0.14,0.05 -0.14,0.13 0,0.06 -0.08,0.13 -0.16,0.13 -0.09,0 -0.37,0.18 -0.61,0.4 -0.24,0.2 -0.81,0.56 -1.23,0.76 -0.44,0.22 -0.9,0.5 -1.01,0.64 -0.13,0.13 -0.3,0.25 -0.37,0.25 -0.15,0 -1.06,0.57 -1.62,1.02 -0.18,0.13 -0.68,0.44 -1.11,0.67 -0.45,0.23 -0.81,0.46 -0.81,0.51 0,0.07 -0.09,0.1 -0.19,0.1 -0.12,0 -0.98,0.52 -1.92,1.16 -0.95,0.63 -1.76,1.15 -1.8,1.15 -0.05,0 -0.32,0.17 -0.61,0.36 -0.3,0.19 -0.71,0.44 -0.93,0.54 -0.2,0.1 -0.69,0.46 -1.06,0.79 -0.38,0.35 -0.74,0.62 -0.79,0.62 -0.18,0 -1.57,0.84 -1.99,1.2 -0.2,0.18 -0.46,0.33 -0.54,0.33 -0.09,0 -0.16,0.05 -0.16,0.13 0,0.07 -0.08,0.13 -0.17,0.13 -0.33,0 -0.92,0.37 -1.5,0.96 -0.31,0.32 -0.63,0.58 -0.7,0.58 -0.08,0 -0.28,0.15 -0.46,0.33 -0.17,0.18 -0.49,0.41 -0.71,0.51 -0.22,0.1 -0.7,0.48 -1.09,0.82 -0.38,0.35 -0.74,0.64 -0.79,0.64 -0.05,0 -0.32,0.21 -0.6,0.46 -0.54,0.5 -1.58,1.08 -1.94,1.08 -0.11,0 -0.24,-0.08 -0.28,-0.17 -0.1,-0.29 -0.47,0.18 -0.47,0.61 0,0.47 -0.63,1.18 -0.94,1.06 -0.17,-0.06 -0.41,-0.77 -0.36,-1.03 0.02,-0.06 -0.1,-0.14 -0.24,-0.17 -0.39,-0.11 -0.32,-0.41 0.08,-0.39 0.43,0.04 0.51,-0.17 0.19,-0.5 -0.34,-0.36 -0.45,-0.99 -0.26,-1.34 0.08,-0.17 0.22,-0.57 0.31,-0.9 0.15,-0.59 0.15,-0.62 -0.21,-0.96 -0.2,-0.19 -0.37,-0.48 -0.37,-0.63 0,-0.28 -1.11,-1.47 -1.37,-1.47 -0.24,0 -0.34,-0.27 -0.42,-1.03 -0.05,-0.6 -0.1,-0.7 -0.33,-0.74 -0.38,-0.05 -1.81,1.28 -1.94,1.78 -0.13,0.49 -0.34,0.53 -0.4,0.08 -0.02,-0.2 -0.11,-0.35 -0.23,-0.35 -0.21,0 -0.24,-0.24 -0.01,-0.28 0.08,0 0.22,-0.03 0.28,-0.03 0.25,-0.03 0.45,-0.23 0.66,-0.61 0.19,-0.36 0.18,-0.4 -0.07,-0.63 -0.31,-0.29 -0.33,-0.38 -0.11,-0.6 0.23,-0.23 0.36,-0.19 0.36,0.1 0,0.27 0.3,0.36 0.44,0.13 0.05,-0.08 0.21,-0.1 0.34,-0.06 0.15,0.05 0.39,0 0.59,-0.13 0.32,-0.22 0.33,-0.21 0.82,0.31 0.5,0.51 1.02,0.69 1.2,0.39 0.1,-0.16 0.54,-0.16 0.64,0 0.09,0.14 -0.13,0.6 -0.47,0.99 -0.26,0.27 -0.26,0.28 -0.02,0.91 0.13,0.34 0.27,0.65 0.34,0.68 0.05,0.02 0.23,-0.21 0.38,-0.53 0.16,-0.32 0.37,-0.59 0.48,-0.59 0.1,-0.01 0.26,-0.02 0.35,-0.04 0.09,0 0.16,-0.16 0.16,-0.37 -0.01,-0.47 0.13,-1.05 0.37,-1.46 0.43,-0.71 1.34,-1.98 1.74,-2.41 0.23,-0.24 0.74,-0.93 1.15,-1.53 0.41,-0.61 0.85,-1.21 0.98,-1.35 0.46,-0.51 1.91,-2.57 1.91,-2.71 0,-0.07 0.2,-0.41 0.45,-0.8 0.24,-0.37 0.44,-0.78 0.44,-0.91 0,-0.11 0.09,-0.29 0.2,-0.38 0.1,-0.08 0.21,-0.28 0.27,-0.43 0.11,-0.42 0.94,-2.04 1.15,-2.28 0.1,-0.1 0.18,-0.3 0.18,-0.42 0,-0.29 0.36,-1.43 0.59,-1.89 0.1,-0.18 0.18,-0.58 0.18,-0.88 0,-0.55 0.33,-1.74 0.52,-1.87 0.21,-0.11 0.13,-0.56 -0.09,-0.56 -0.16,0 -0.19,-0.09 -0.13,-0.49 0.3,-1.75 0.32,-2.14 0.11,-2.3 -0.16,-0.12 -0.17,-0.19 -0.06,-0.31 0.12,-0.11 0.04,-0.22 -0.29,-0.45 -0.54,-0.36 -0.76,-0.37 -1.23,-0.02 -0.52,0.37 -0.49,0.85 0.13,1.84 0.22,0.33 0.25,0.64 0.25,2.13 0.02,0.96 -0.02,1.78 -0.07,1.82 -0.16,0.16 -0.67,1.8 -0.68,2.16 0,0.19 -0.05,0.39 -0.13,0.42 -0.06,0.04 -0.13,0.2 -0.13,0.32 0,0.15 -0.1,0.44 -0.23,0.67 -0.13,0.23 -0.37,0.74 -0.52,1.13 -0.17,0.38 -0.53,1.06 -0.8,1.51 -0.28,0.45 -0.5,0.87 -0.5,0.93 0,0.07 -0.2,0.4 -0.45,0.75 -0.24,0.33 -0.44,0.68 -0.44,0.74 0,0.06 -0.15,0.26 -0.32,0.42 -0.18,0.17 -0.32,0.36 -0.32,0.43 0,0.06 -0.26,0.44 -0.58,0.84 -0.32,0.4 -1.18,1.5 -1.92,2.45 -0.75,0.95 -1.5,1.9 -1.67,2.11 -0.16,0.21 -0.43,0.55 -0.59,0.76 -0.25,0.33 -0.33,0.36 -0.8,0.27 -0.3,-0.05 -0.71,-0.12 -0.94,-0.16 -0.22,-0.03 -0.56,-0.23 -0.76,-0.43 -0.38,-0.41 -0.57,-0.45 -0.94,-0.22 -0.2,0.13 -0.31,0.12 -0.58,-0.02 -0.18,-0.11 -0.54,-0.18 -0.81,-0.18 -0.25,-0.02 -0.57,-0.08 -0.69,-0.15 -0.24,-0.15 -1.38,-2.75 -1.38,-3.17 0,-0.3 -0.26,-1.18 -0.52,-1.82 -0.39,-0.96 -0.35,-0.8 -0.6,-2.22 -0.04,-0.23 -0.11,-0.45 -0.18,-0.48 -0.06,-0.04 -0.11,-0.2 -0.11,-0.35 0,-0.15 -0.14,-0.69 -0.32,-1.18 -0.17,-0.5 -0.39,-1.24 -0.46,-1.65 -0.08,-0.42 -0.25,-0.99 -0.39,-1.26 -0.13,-0.25 -0.24,-0.55 -0.24,-0.63 0,-0.35 -1.36,-2.79 -1.92,-3.44 -0.34,-0.39 -0.76,-1.01 -0.95,-1.38 -0.19,-0.38 -0.49,-0.8 -0.65,-0.95 -0.18,-0.16 -0.32,-0.35 -0.32,-0.45 0,-0.09 -0.29,-0.47 -0.63,-0.86 -0.35,-0.37 -0.64,-0.73 -0.67,-0.79 -0.1,-0.25 -1.61,-1.46 -1.82,-1.46 -0.11,0 -0.24,-0.07 -0.28,-0.13 -0.14,-0.22 -0.69,-0.14 -0.83,0.13 -0.18,0.34 -0.03,0.87 0.31,1.05 0.14,0.07 0.51,0.33 0.8,0.56 0.3,0.24 0.59,0.44 0.66,0.44 0.19,0 2.12,2.19 2.65,2.99 0.13,0.22 0.31,0.49 0.38,0.6 0.07,0.12 0.26,0.45 0.43,0.74 0.15,0.29 0.44,0.71 0.64,0.94 0.37,0.43 1.52,2.8 1.83,3.76 0.09,0.28 0.23,0.59 0.31,0.69 0.06,0.1 0.11,0.28 0.08,0.41 -0.02,0.11 0.03,0.26 0.11,0.31 0.06,0.04 0.13,0.21 0.13,0.38 0,0.17 0.06,0.35 0.12,0.39 0.08,0.03 0.13,0.26 0.13,0.49 0,0.25 0.09,0.5 0.19,0.59 0.11,0.09 0.16,0.22 0.12,0.29 -0.08,0.11 0.17,0.82 0.47,1.4 0.07,0.13 0.12,0.35 0.12,0.49 0,0.13 0.11,0.45 0.24,0.69 0.14,0.25 0.32,0.93 0.41,1.52 0.08,0.57 0.23,1.15 0.33,1.28 0.11,0.11 0.21,0.28 0.22,0.38 0.03,0.09 0.08,0.4 0.14,0.68 0.05,0.28 0.17,0.6 0.26,0.7 0.09,0.11 0.24,0.44 0.33,0.75 0.16,0.51 0.14,0.56 -0.18,0.89 -0.34,0.38 -0.56,1.18 -0.39,1.46 0.18,0.29 0.16,0.54 -0.04,0.77 -0.1,0.12 -0.16,0.28 -0.1,0.36 0.05,0.08 -0.31,0.55 -0.81,1.09 -0.5,0.51 -0.92,1.08 -0.95,1.24 -0.03,0.23 -0.13,0.31 -0.46,0.34 -0.23,0.02 -0.46,0.12 -0.5,0.23 -0.04,0.1 -0.27,0.27 -0.5,0.38 -0.41,0.19 -0.46,0.19 -0.69,-0.01 -0.14,-0.13 -0.22,-0.27 -0.19,-0.33 0.03,-0.06 -0.2,-0.43 -0.52,-0.81 -0.32,-0.4 -0.79,-1.05 -1.05,-1.46 -0.25,-0.4 -0.56,-0.8 -0.68,-0.89 -0.28,-0.2 -3.88,-4.2 -4.71,-5.24 -0.35,-0.43 -0.87,-1.03 -1.19,-1.34 -0.31,-0.32 -0.85,-0.91 -1.21,-1.32 -0.34,-0.4 -1.05,-1.18 -1.55,-1.72 -0.5,-0.54 -0.99,-1.12 -1.11,-1.3 -0.26,-0.39 -1.72,-1.99 -3.55,-3.91 -0.74,-0.77 -1.58,-1.67 -1.84,-1.99 -0.57,-0.66 -7.32,-7.62 -7.7,-7.93 -0.26,-0.21 -0.93,-0.88 -2.09,-2.11 -0.55,-0.59 -3.93,-3.02 -4.19,-3.02 -0.13,0 -1.65,-1.05 -1.86,-1.28 -0.1,-0.12 -0.56,-0.47 -1.01,-0.77 -0.45,-0.3 -0.91,-0.63 -1.03,-0.72 -0.61,-0.5 -1.79,-1.33 -1.88,-1.33 -0.06,0 -0.32,-0.18 -0.56,-0.39 -0.25,-0.2 -0.53,-0.38 -0.6,-0.38 -0.09,0 -0.17,-0.07 -0.17,-0.13 0,-0.08 -0.1,-0.13 -0.22,-0.13 -0.11,0 -0.49,-0.23 -0.82,-0.51 -0.33,-0.28 -0.65,-0.51 -0.72,-0.51 -0.05,0 -0.41,-0.23 -0.78,-0.52 -0.37,-0.28 -0.73,-0.51 -0.79,-0.51 -0.15,0 -0.74,-0.33 -1.78,-1.01 -0.45,-0.28 -0.92,-0.53 -1.07,-0.53 -0.12,0 -0.23,-0.05 -0.23,-0.11 0,-0.1 -1.53,-0.91 -1.73,-0.91 -0.05,0 -0.24,-0.1 -0.42,-0.23 -0.19,-0.13 -0.55,-0.31 -0.79,-0.4 -0.25,-0.1 -0.63,-0.25 -0.86,-0.34 -0.22,-0.11 -0.58,-0.22 -0.8,-0.26 -0.2,-0.05 -0.49,-0.19 -0.64,-0.32 -0.14,-0.14 -0.34,-0.24 -0.46,-0.24 -0.1,0 -0.19,-0.07 -0.19,-0.13 0,-0.08 -0.09,-0.13 -0.19,-0.13 -0.18,0 -0.68,-0.23 -0.83,-0.38 -0.09,-0.09 -1.45,-0.73 -2.82,-1.32 -0.18,-0.08 -0.48,-0.25 -0.67,-0.37 -0.18,-0.13 -0.41,-0.24 -0.51,-0.24 -0.09,0 -0.64,-0.23 -1.22,-0.51 -0.59,-0.28 -1.33,-0.57 -1.66,-0.64 -0.35,-0.08 -0.98,-0.31 -1.41,-0.51 -0.44,-0.22 -0.89,-0.39 -0.99,-0.39 -0.25,0 -0.84,-0.25 -1.22,-0.53 -0.2,-0.17 -0.53,-0.23 -1.05,-0.23 -0.42,0 -0.75,-0.06 -0.75,-0.13 0,-0.08 -0.39,-0.13 -0.9,-0.13 -0.51,0 -0.9,-0.05 -0.9,-0.13 0,-0.08 -0.11,-0.13 -0.25,-0.13 -0.14,0 -0.26,-0.06 -0.26,-0.12 0,-0.17 -3.03,-0.18 -3.14,-0.02 -0.04,0.08 -0.23,0.08 -0.48,0 -0.46,-0.13 -0.54,-0.13 -1.44,0.03 z m 104.35,93.36 c 0,0.29 0.06,0.53 0.16,0.57 0.08,0.02 0.12,0.1 0.07,0.15 -0.06,0.05 -0.18,0.03 -0.3,-0.06 -0.22,-0.18 -0.27,-1.16 -0.06,-1.16 0.07,0 0.13,0.23 0.13,0.5 z m 1.21,1.18 c 0.05,0.08 -0.02,0.27 -0.18,0.43 -0.15,0.15 -0.27,0.38 -0.27,0.5 0,0.11 -0.05,0.21 -0.12,0.21 -0.07,0 -0.13,-0.18 -0.13,-0.38 0,-0.31 0.05,-0.39 0.28,-0.39 0.22,0 0.24,-0.03 0.13,-0.15 -0.09,-0.09 -0.16,-0.2 -0.16,-0.26 0,-0.15 0.36,-0.12 0.45,0.04 z m 4.33,1.3 c 0.03,0.09 -0.06,0.36 -0.19,0.59 -0.13,0.23 -0.23,0.5 -0.23,0.6 0,0.1 -0.05,0.19 -0.13,0.19 -0.06,0 -0.13,-0.17 -0.13,-0.37 0,-0.22 0.07,-0.42 0.13,-0.46 0.08,-0.04 0.13,-0.22 0.13,-0.4 0,-0.32 0.32,-0.44 0.42,-0.15 z m -7.85,4.84 c 0,0.06 -0.05,0.13 -0.13,0.13 -0.06,0 -0.13,-0.07 -0.13,-0.13 0,-0.08 0.07,-0.13 0.13,-0.13 0.08,0 0.13,0.05 0.13,0.13 z m 4.07,0.02 c 0.12,0.12 0.22,0.12 0.46,-0.01 0.31,-0.17 0.59,-0.11 0.59,0.12 0,0.06 -0.21,0.21 -0.47,0.34 -0.27,0.12 -0.51,0.26 -0.55,0.31 -0.04,0.04 -0.26,0.18 -0.49,0.29 -0.43,0.22 -1.82,1.57 -1.82,1.76 0,0.06 -0.05,0.12 -0.12,0.12 -0.2,0 -0.16,-0.81 0.06,-1.23 0.1,-0.21 0.36,-0.56 0.58,-0.76 0.32,-0.31 0.42,-0.35 0.51,-0.19 0.06,0.1 0.15,0.14 0.22,0.09 0.05,-0.07 0.01,-0.16 -0.09,-0.22 -0.22,-0.13 -0.11,-0.31 0.41,-0.58 0.38,-0.22 0.52,-0.23 0.71,-0.04 z m -52.5,3.3 c -0.07,0.15 -0.2,0.24 -0.26,0.19 -0.08,-0.05 -0.06,-0.17 0.09,-0.32 0.26,-0.31 0.37,-0.23 0.17,0.13 z m 48.17,2.57 c 0,0.07 -0.05,0.13 -0.12,0.13 -0.07,0 -0.13,0.14 -0.13,0.31 0,0.18 -0.05,0.36 -0.13,0.39 -0.06,0.04 -0.13,0.25 -0.13,0.47 0,0.46 -0.14,0.47 -0.34,0.02 -0.23,-0.49 -0.22,-0.55 0.24,-1.02 0.41,-0.44 0.61,-0.53 0.61,-0.3 z m -1.02,2.74 c 0,0.04 -0.05,0.11 -0.13,0.14 -0.06,0.04 -0.13,0.02 -0.13,-0.05 0,-0.07 0.07,-0.14 0.13,-0.14 0.08,0 0.13,0.03 0.13,0.05 z m -0.64,0.32 c 0,0.07 -0.16,0.3 -0.33,0.52 -0.27,0.32 -0.43,0.39 -0.84,0.39 -0.27,0 -0.5,-0.04 -0.5,-0.1 0,-0.1 1.16,-0.67 1.39,-0.67 0.09,0 0.15,-0.06 0.15,-0.12 0,-0.08 0.03,-0.13 0.06,-0.13 0.04,0 0.07,0.05 0.07,0.11 z m -6.02,2.07 c 0,0.06 -0.11,0.12 -0.22,0.12 -0.12,0 -0.41,0.18 -0.64,0.41 -0.23,0.23 -0.42,0.35 -0.42,0.26 0,-0.09 0.06,-0.15 0.12,-0.15 0.08,0 0.13,-0.11 0.13,-0.23 0,-0.13 0.07,-0.3 0.16,-0.39 0.18,-0.18 0.87,-0.2 0.87,-0.02 z m -15.25,13.64 c -0.16,0.18 -0.33,0.29 -0.36,0.26 -0.03,-0.04 0.07,-0.21 0.23,-0.39 0.17,-0.18 0.34,-0.29 0.36,-0.25 0.04,0.03 -0.06,0.2 -0.23,0.38 z" id="path169" style="fill:#F08143;fill-rule:nonzero;fill-opacity:0.090196"/>
                <path d="m 2282.43,660.16 c 0,0.07 0.06,0.13 0.12,0.13 0.08,0 0.13,-0.06 0.13,-0.13 0,-0.08 -0.05,-0.13 -0.13,-0.13 -0.06,0 -0.12,0.05 -0.12,0.13 z" id="path170" style="fill:#F08143;fill-rule:nonzero;fill-opacity:0.090196"/>
                <path d="m 2330.85,588.04 c 0,0.28 0.07,0.51 0.13,0.51 0.08,0 0.13,-0.23 0.13,-0.51 0,-0.29 -0.05,-0.52 -0.13,-0.52 -0.06,0 -0.13,0.23 -0.13,0.52 z" id="path171" style="fill:#F08143;fill-rule:nonzero;fill-opacity:0.090196"/>
                <path d="m 2230.65,663.95 c -0.07,0.05 -0.11,0.22 -0.11,0.36 0,0.16 -0.09,0.44 -0.19,0.64 -0.26,0.48 -0.26,0.86 0,0.77 0.1,-0.05 0.19,-0.23 0.19,-0.42 0,-0.19 0.07,-0.41 0.14,-0.49 0.08,-0.07 0.12,-0.32 0.09,-0.55 -0.02,-0.22 -0.07,-0.36 -0.12,-0.31 z" id="path172" style="fill:#F08143;fill-rule:nonzero;fill-opacity:0.090196"/>
                <path d="m 2266.54,679.38 c 0,0.06 0.07,0.13 0.13,0.13 0.08,0 0.13,-0.07 0.13,-0.13 0,-0.08 -0.05,-0.13 -0.13,-0.13 -0.06,0 -0.13,0.05 -0.13,0.13 z" id="path173" style="fill:#F08143;fill-rule:nonzero;fill-opacity:0.090196"/>
            </g>
        </g>
        <g id="_2494746365488">
            <g id="g179">
                <path d="m 2330.85,558.19 c 0,0.2 0.07,0.38 0.13,0.38 0.08,0 0.13,-0.18 0.13,-0.38 0,-0.22 -0.05,-0.39 -0.13,-0.39 -0.06,0 -0.13,0.17 -0.13,0.39 z" id="path174" style="stroke:#F08143;stroke-width:1.42;stroke-miterlimit:22.9256;stroke-opacity:0.501961;fill:none;fill-rule:nonzero"/>
                <path d="m 2176.8,558.97 c -0.34,0.06 -0.95,0.08 -1.3,0.04 -0.52,-0.07 -0.76,-0.03 -1,0.12 -0.17,0.12 -0.53,0.21 -0.81,0.21 -0.35,0 -0.6,0.1 -0.92,0.38 -0.25,0.21 -0.52,0.38 -0.59,0.39 -0.08,0 -0.45,0.28 -0.82,0.64 -0.37,0.35 -0.73,0.64 -0.78,0.64 -0.06,0 -0.2,0.17 -0.31,0.36 -0.13,0.2 -0.34,0.41 -0.49,0.49 -0.14,0.06 -0.36,0.29 -0.49,0.51 -0.25,0.47 -0.52,2.24 -0.35,2.41 0.15,0.17 0.14,1.23 -0.02,1.23 -0.06,0 -0.13,-0.07 -0.13,-0.13 0,-0.08 -0.06,-0.13 -0.14,-0.13 -0.09,0 -0.1,0.14 -0.05,0.38 0.07,0.29 0.01,0.5 -0.18,0.82 -0.27,0.43 -0.27,1.14 0,1.31 0.07,0.04 0.12,0.27 0.12,0.51 0,0.25 0.06,0.44 0.13,0.44 0.07,0 0.12,0.11 0.12,0.25 0,0.15 0.07,0.26 0.13,0.26 0.08,0 0.13,0.13 0.13,0.3 0,0.16 0.12,0.42 0.26,0.57 0.18,0.19 0.25,0.45 0.25,0.89 0,0.57 0.4,1.88 0.66,2.15 0.06,0.06 0.11,0.2 0.11,0.32 0,0.11 0.1,0.32 0.23,0.46 0.21,0.23 0.41,0.63 0.66,1.23 0.05,0.17 0.23,0.55 0.38,0.84 0.14,0.31 0.27,0.67 0.27,0.8 0,0.14 0.06,0.28 0.13,0.32 0.07,0.04 0.13,0.22 0.13,0.38 0,0.17 0.06,0.35 0.12,0.39 0.08,0.04 0.13,0.22 0.13,0.4 0,0.17 0.12,0.43 0.26,0.58 0.14,0.16 0.25,0.39 0.25,0.5 0,0.13 0.07,0.27 0.13,0.31 0.08,0.04 0.13,0.19 0.13,0.34 0,0.12 0.06,0.37 0.15,0.53 0.31,0.62 0.36,0.73 0.36,0.98 0,0.14 0.07,0.29 0.13,0.33 0.08,0.04 0.13,0.28 0.13,0.51 0,0.49 0.22,1.54 0.4,1.89 0.06,0.12 0.11,0.34 0.11,0.47 0,0.28 0.21,0.81 0.51,1.29 0.26,0.41 0.52,1.16 0.52,1.5 0,0.16 0.05,0.41 0.11,0.58 0.07,0.16 0.25,0.73 0.4,1.25 0.15,0.53 0.33,1.07 0.4,1.18 0.06,0.13 0.11,0.34 0.11,0.46 0,0.13 0.08,0.31 0.16,0.39 0.12,0.13 0.12,0.22 0,0.41 -0.22,0.36 -0.2,0.77 0.05,0.77 0.33,0 0.56,0.33 0.56,0.8 0,0.26 0.08,0.48 0.17,0.52 0.11,0.03 0.11,0.11 -0.02,0.33 -0.11,0.19 -0.11,0.35 -0.03,0.51 0.07,0.13 0.1,0.44 0.05,0.69 -0.05,0.32 0,0.57 0.14,0.78 0.11,0.18 0.2,0.52 0.2,0.76 0,0.23 0.05,0.47 0.12,0.55 0.06,0.07 0.14,0.35 0.18,0.63 0.04,0.28 0.21,1.19 0.39,2.04 0.18,0.83 0.34,1.8 0.34,2.14 0,0.34 0.05,0.73 0.11,0.85 0.21,0.43 0.4,1.14 0.4,1.54 0,0.22 0.06,0.44 0.13,0.48 0.07,0.03 0.13,0.19 0.13,0.32 0,0.14 0.11,0.44 0.25,0.7 0.14,0.26 0.26,0.56 0.26,0.68 0,0.13 0.06,0.29 0.14,0.37 0.08,0.08 0.14,0.42 0.14,0.76 0,0.34 0.05,0.68 0.1,0.75 0.11,0.14 0.16,0.39 0.44,2.37 0.11,0.75 0.25,1.48 0.33,1.64 0.07,0.17 0.13,0.46 0.13,0.67 0,0.2 0.06,0.41 0.13,0.45 0.07,0.04 0.13,0.21 0.13,0.39 0,0.17 0.06,0.31 0.12,0.31 0.08,0 0.13,0.19 0.13,0.44 0,0.24 0.07,0.48 0.13,0.52 0.08,0.04 0.13,0.21 0.13,0.37 0,0.17 0.1,0.39 0.24,0.52 0.13,0.11 0.37,0.48 0.54,0.82 0.17,0.33 0.38,0.67 0.46,0.76 0.09,0.09 0.17,0.22 0.17,0.27 0,0.05 0.45,0.57 1,1.13 1.03,1.08 2.07,1.85 3.47,2.61 0.46,0.25 1.06,0.58 1.33,0.74 0.27,0.15 0.56,0.28 0.67,0.28 0.11,0 0.29,0.05 0.42,0.11 0.11,0.07 0.47,0.19 0.79,0.27 0.32,0.09 0.72,0.21 0.9,0.26 0.18,0.06 0.85,0.18 1.47,0.27 0.64,0.07 1.21,0.2 1.27,0.25 0.08,0.07 0.26,0.12 0.43,0.12 0.15,0 0.49,0.13 0.76,0.28 0.27,0.15 0.76,0.41 1.11,0.58 0.33,0.16 0.6,0.35 0.6,0.43 0,0.17 -0.32,0.5 -0.49,0.5 -0.06,0 -0.33,0.22 -0.61,0.49 -0.27,0.25 -0.76,0.61 -1.08,0.78 -0.32,0.18 -0.67,0.42 -0.78,0.55 -0.12,0.13 -0.28,0.23 -0.36,0.23 -0.09,0 -0.27,0.12 -0.42,0.26 -0.16,0.14 -0.36,0.25 -0.45,0.25 -0.09,0 -0.17,0.05 -0.17,0.13 0,0.07 -0.09,0.13 -0.2,0.13 -0.11,0 -0.43,0.23 -0.69,0.51 -0.27,0.28 -0.56,0.51 -0.65,0.51 -0.16,0 -2.52,2.35 -3.02,3.04 -0.2,0.27 -0.47,0.59 -0.59,0.73 -0.49,0.54 -0.64,1.08 -0.55,1.92 0.06,0.55 0.04,0.98 -0.08,1.31 -0.16,0.5 -0.85,1.61 -1.05,1.69 -0.24,0.11 0.02,2.45 0.31,2.77 0.07,0.07 0.12,0.2 0.12,0.3 0,0.11 0.16,0.35 0.38,0.54 0.21,0.2 0.38,0.45 0.38,0.55 0,0.12 0.06,0.22 0.11,0.25 0.38,0.15 1.43,1.88 1.43,2.34 0,0.17 0.07,0.35 0.13,0.39 0.15,0.09 0.18,2.88 0.03,2.88 -0.18,0 -0.58,1.07 -0.68,1.86 -0.07,0.42 -0.14,0.97 -0.2,1.23 -0.1,0.61 0.32,1.47 1.12,2.29 0.35,0.36 0.63,0.7 0.63,0.78 0,0.08 0.27,0.4 0.61,0.73 0.34,0.33 0.68,0.76 0.78,0.96 0.11,0.19 0.23,0.35 0.3,0.35 0.05,0 0.1,0.16 0.1,0.38 0,0.21 0.06,0.39 0.13,0.39 0.08,0 0.13,0.12 0.13,0.29 0,0.17 0.07,0.37 0.16,0.46 0.2,0.19 0.17,2.74 -0.03,2.81 -0.07,0.02 -0.13,0.15 -0.13,0.28 0,0.13 -0.16,0.54 -0.36,0.91 -0.42,0.82 -0.67,1.51 -0.67,1.86 0,0.14 -0.06,0.32 -0.13,0.38 -0.07,0.08 -0.14,0.76 -0.14,1.56 0,0.78 -0.05,1.46 -0.11,1.5 -0.17,0.1 -0.17,1.22 0,1.22 0.07,0 0.13,0.17 0.13,0.38 0,0.49 0.3,0.99 1.14,1.85 0.35,0.38 0.65,0.78 0.65,0.89 0,0.12 0.06,0.21 0.13,0.21 0.07,0 0.13,0.12 0.13,0.26 0,0.14 0.06,0.25 0.12,0.25 0.08,0 0.13,0.12 0.13,0.26 0,0.14 0.07,0.26 0.13,0.26 0.08,0 0.13,0.16 0.13,0.37 0,0.2 0.06,0.39 0.14,0.42 0.19,0.06 0.18,4.48 -0.01,4.84 -0.07,0.13 -0.13,0.41 -0.13,0.63 0,0.2 -0.05,0.42 -0.13,0.46 -0.06,0.04 -0.13,0.19 -0.13,0.32 0,0.14 -0.11,0.45 -0.25,0.71 -0.18,0.3 -0.26,0.69 -0.26,1.21 0,0.66 -0.09,0.94 -0.63,2.01 -0.34,0.7 -0.69,1.48 -0.78,1.76 -0.09,0.27 -0.32,0.67 -0.53,0.88 -0.2,0.21 -0.37,0.45 -0.37,0.54 0,0.09 -0.11,0.26 -0.25,0.38 -0.14,0.13 -0.26,0.34 -0.26,0.45 0,0.12 -0.27,0.55 -0.6,0.98 -0.35,0.41 -0.69,0.91 -0.8,1.11 -0.1,0.19 -0.23,0.35 -0.29,0.35 -0.05,0 -0.1,0.11 -0.1,0.25 0,0.14 -0.05,0.26 -0.12,0.26 -0.06,0 -0.16,0.12 -0.2,0.26 -0.04,0.14 -0.16,0.33 -0.25,0.41 -0.07,0.09 -0.24,0.37 -0.36,0.61 -0.11,0.26 -0.35,0.63 -0.53,0.83 -0.18,0.22 -0.34,0.45 -0.34,0.52 0,0.07 -0.11,0.21 -0.25,0.32 -0.14,0.1 -0.26,0.27 -0.26,0.38 0,0.12 -0.11,0.28 -0.25,0.39 -0.15,0.1 -0.26,0.26 -0.26,0.37 0,0.09 -0.1,0.27 -0.23,0.38 -0.12,0.12 -0.36,0.42 -0.54,0.68 -0.18,0.27 -0.36,0.49 -0.41,0.49 -0.06,0 -0.1,0.07 -0.1,0.18 0,0.09 -0.14,0.3 -0.3,0.47 -0.28,0.28 -1.53,1.74 -2.01,2.34 -0.1,0.15 -0.37,0.45 -0.57,0.71 -0.22,0.26 -0.56,0.68 -0.75,0.93 -0.45,0.62 -1.57,1.77 -1.71,1.77 -0.07,0 -0.25,0.12 -0.4,0.26 -0.21,0.19 -0.26,0.34 -0.19,0.64 0.06,0.33 0.03,0.38 -0.21,0.38 -0.15,0 -0.27,0.08 -0.27,0.2 0,0.11 -0.11,0.33 -0.25,0.48 -0.5,0.54 -1.03,1.28 -1.03,1.45 0,0.09 -0.04,0.18 -0.1,0.21 -0.14,0.06 -1.44,2.08 -1.44,2.25 0,0.06 -0.11,0.22 -0.25,0.35 -0.14,0.12 -0.26,0.26 -0.26,0.33 0,0.24 -1.01,1.73 -1.25,1.84 -0.23,0.11 -0.27,0.23 -0.27,0.78 0.01,0.62 -0.03,0.71 -0.52,1.21 -0.39,0.41 -0.52,0.64 -0.52,0.96 0,0.24 -0.06,0.45 -0.14,0.47 -0.18,0.07 -0.22,1.64 -0.05,1.9 0.06,0.1 0.14,0.68 0.15,1.27 0.03,0.98 0.05,1.09 0.39,1.37 0.32,0.27 0.48,0.31 1.42,0.31 0.57,0 1.05,-0.04 1.05,-0.11 0,-0.1 0.63,-0.41 0.86,-0.41 0.09,0 0.16,-0.06 0.16,-0.12 0,-0.08 0.09,-0.13 0.21,-0.13 0.22,0 1.07,-0.86 1.07,-1.08 0,-0.08 0.21,-0.4 0.45,-0.7 0.25,-0.31 0.45,-0.6 0.45,-0.67 0,-0.05 0.23,-0.33 0.51,-0.63 0.28,-0.29 0.6,-0.74 0.73,-1 0.12,-0.25 0.41,-0.67 0.64,-0.92 0.23,-0.24 0.46,-0.59 0.5,-0.77 0.05,-0.18 0.25,-0.5 0.44,-0.7 0.19,-0.22 0.42,-0.58 0.52,-0.81 0.11,-0.22 0.22,-0.41 0.27,-0.41 0.07,0 0.11,-0.09 0.11,-0.19 0,-0.26 0.6,-1.41 0.84,-1.62 0.1,-0.07 0.18,-0.23 0.18,-0.32 0,-0.1 0.05,-0.18 0.1,-0.18 0.07,0 0.25,-0.3 0.41,-0.67 0.16,-0.36 0.36,-0.81 0.44,-0.99 0.08,-0.18 0.33,-0.64 0.59,-1.02 0.25,-0.39 0.54,-0.86 0.63,-1.07 0.1,-0.19 0.23,-0.34 0.29,-0.34 0.05,0 0.1,-0.12 0.1,-0.26 0,-0.14 0.04,-0.26 0.11,-0.26 0.05,0 0.15,-0.12 0.23,-0.29 0.55,-1.09 1.03,-1.99 1.21,-2.18 0.21,-0.23 0.31,-0.42 0.68,-1.25 0.12,-0.26 0.28,-0.54 0.4,-0.63 0.1,-0.09 0.19,-0.21 0.19,-0.27 0,-0.07 0.1,-0.23 0.23,-0.37 0.26,-0.31 0.83,-1.3 1.13,-1.92 0.46,-1.03 0.68,-1.38 1.23,-1.98 0.27,-0.29 0.49,-0.56 0.49,-0.62 0,-0.06 0.06,-0.17 0.12,-0.26 0.26,-0.31 1.67,-2.54 1.67,-2.63 0,-0.05 0.11,-0.18 0.26,-0.28 0.14,-0.1 0.25,-0.23 0.25,-0.29 0,-0.13 0.64,-1.07 0.99,-1.44 0.13,-0.14 0.4,-0.49 0.6,-0.76 0.22,-0.28 0.41,-0.43 0.44,-0.35 0.09,0.28 0.28,0.15 0.28,-0.18 0,-0.31 0.2,-0.81 0.37,-0.95 0.05,-0.04 0.23,-0.26 0.4,-0.5 0.53,-0.78 1.61,-1.81 1.88,-1.81 0.15,0 0.46,-0.19 0.69,-0.42 0.42,-0.4 0.46,-0.41 1.45,-0.38 1.27,0.02 2.57,0.27 3.15,0.6 0.24,0.13 0.68,0.37 0.95,0.51 0.28,0.15 0.65,0.42 0.84,0.6 0.26,0.26 0.52,0.36 1.12,0.44 0.43,0.05 0.84,0.05 0.91,0.01 0.06,-0.04 0.24,0.05 0.4,0.19 l 0.26,0.26 0.49,-0.37 c 0.26,-0.21 0.65,-0.44 0.86,-0.51 0.64,-0.25 1.79,-0.38 2.13,-0.25 0.16,0.07 1.03,0.13 1.92,0.13 1.51,0.03 2.07,-0.08 2.42,-0.42 0.04,-0.04 0.31,-0.21 0.61,-0.36 0.31,-0.17 1,-0.74 1.54,-1.27 0.54,-0.52 1.13,-1.02 1.31,-1.1 0.18,-0.09 0.33,-0.26 0.36,-0.4 0.05,-0.27 0.34,-0.65 0.76,-1.02 0.17,-0.16 0.68,-0.62 1.14,-1.04 0.47,-0.42 0.97,-0.85 1.12,-0.95 0.14,-0.1 0.38,-0.33 0.52,-0.51 0.15,-0.18 0.56,-0.64 0.91,-1.04 0.93,-1 1.98,-2.6 1.98,-3 0,-0.1 0.19,-0.51 0.43,-0.92 0.25,-0.42 0.54,-0.96 0.66,-1.2 0.11,-0.25 0.29,-0.59 0.39,-0.77 0.82,-1.44 1.59,-3.24 1.59,-3.7 0,-0.45 0.21,-1.07 0.65,-1.96 0.07,-0.13 0.11,-0.5 0.11,-0.84 -0.02,-0.34 -0.05,-0.48 -0.08,-0.33 -0.03,0.17 -0.1,0.29 -0.17,0.29 -0.06,0 -0.2,0.27 -0.29,0.61 -0.22,0.74 -0.47,0.88 -0.47,0.24 0,-0.24 0.05,-0.49 0.12,-0.53 0.07,-0.03 0.12,-0.2 0.12,-0.35 -0.01,-0.38 0.19,-0.95 0.78,-2.21 0.27,-0.56 0.53,-1.14 0.58,-1.28 0.09,-0.24 0.1,-0.23 0.24,0.09 0.14,0.33 0.15,0.33 0.31,0.1 0.09,-0.14 0.15,-0.41 0.15,-0.61 0,-0.19 0.05,-0.41 0.12,-0.49 0.06,-0.06 0.14,-0.34 0.19,-0.63 0.17,-1.23 0.23,-1.55 0.32,-1.79 0.33,-0.85 0.58,-1.64 0.73,-2.39 0.24,-1.23 0.67,-2.48 1.15,-3.44 0.23,-0.46 0.54,-1.15 0.69,-1.54 0.16,-0.38 0.35,-0.88 0.45,-1.08 0.09,-0.22 0.3,-0.73 0.46,-1.16 0.17,-0.42 0.41,-0.97 0.55,-1.21 0.15,-0.25 0.41,-0.75 0.59,-1.09 0.59,-1.09 0.9,-1.62 1.43,-2.4 0.27,-0.42 0.5,-0.79 0.5,-0.82 0,-0.11 1.14,-1.77 1.67,-2.42 1.02,-1.24 1.46,-1.91 2.04,-2.99 0.32,-0.6 0.67,-1.12 0.76,-1.15 0.11,-0.04 0.14,0.03 0.09,0.18 -0.06,0.21 -0.52,3.82 -0.59,4.79 -0.12,1.34 -0.03,4.2 0.16,5.37 0.12,0.74 0.22,1.5 0.22,1.7 0,0.21 0.05,0.47 0.12,0.59 0.06,0.12 0.18,0.45 0.27,0.73 0.2,0.68 0.48,1.32 0.64,1.41 0.06,0.04 0.23,0.32 0.35,0.62 0.27,0.59 0.38,0.7 1.09,1.1 0.58,0.32 0.82,0.33 1.34,0.08 0.41,-0.21 0.79,-0.58 0.6,-0.58 -0.05,0 0.14,-0.26 0.45,-0.56 l 0.56,-0.58 0.01,-1.06 c 0.03,-1.09 0.32,-2.5 0.7,-3.31 0.11,-0.24 0.24,-0.59 0.28,-0.77 0.04,-0.18 0.12,-0.29 0.19,-0.25 0.2,0.1 0.06,1.55 -0.21,2.16 -0.14,0.31 -0.21,0.65 -0.18,0.77 0.08,0.24 -0.35,2.28 -0.62,2.96 -0.04,0.1 -0.11,0.4 -0.13,0.64 -0.04,0.24 -0.15,0.77 -0.27,1.15 -0.1,0.39 -0.19,0.82 -0.19,0.99 0,0.15 -0.05,0.32 -0.13,0.36 -0.08,0.04 -0.13,0.24 -0.13,0.45 0,0.19 -0.18,0.75 -0.41,1.24 -0.22,0.47 -0.41,0.91 -0.41,0.96 -0.01,0.05 -0.09,0.17 -0.16,0.26 -0.09,0.07 -0.17,0.29 -0.17,0.44 0,0.17 -0.12,0.55 -0.26,0.84 -0.14,0.29 -0.25,0.59 -0.25,0.66 0,0.13 -0.41,1.09 -0.71,1.62 -0.18,0.33 -0.61,1.23 -1.22,2.5 -0.19,0.42 -0.42,1 -0.51,1.28 -0.09,0.28 -0.22,0.65 -0.29,0.83 -0.26,0.67 -0.52,1.5 -0.63,2.11 -0.23,1.28 -0.26,1.58 -0.12,1.66 0.17,0.11 0.2,1.03 0.03,1.33 -0.17,0.32 0.05,1.48 0.43,2.24 0.48,0.95 0.71,3.18 0.74,7.2 v 1.15 l 1.39,1.37 c 0.76,0.77 1.45,1.39 1.51,1.39 0.08,0 0.14,0.11 0.14,0.27 0,0.53 0.24,0.75 0.81,0.75 0.42,0 0.66,0.09 1.03,0.4 0.25,0.22 0.47,0.46 0.47,0.55 0,0.09 0.14,0.29 0.31,0.45 0.19,0.19 0.28,0.37 0.23,0.55 -0.03,0.14 0,0.55 0.08,0.91 0.07,0.37 0.26,1.33 0.42,2.14 0.15,0.8 0.34,1.55 0.41,1.64 0.07,0.1 0.13,0.47 0.11,0.82 0,0.36 0.05,0.77 0.12,0.91 0.08,0.13 0.15,0.59 0.19,1.01 0.03,0.42 0.1,0.85 0.18,0.93 0.06,0.08 0.09,0.18 0.05,0.22 -0.02,0.04 0.03,0.85 0.13,1.78 0.29,2.51 0.42,5.32 0.29,6.27 -0.16,1.19 -0.05,2.56 0.26,3.15 0.13,0.28 0.36,0.84 0.49,1.27 0.11,0.42 0.29,0.86 0.37,0.96 0.09,0.1 0.22,0.34 0.31,0.54 0.07,0.19 0.35,0.59 0.62,0.88 0.27,0.29 0.48,0.58 0.45,0.61 -0.01,0.04 0.1,0.11 0.26,0.12 0.17,0.03 0.36,0.1 0.45,0.18 0.09,0.06 0.23,0.08 0.32,0.03 0.09,-0.07 0.47,-0.12 0.84,-0.13 0.61,-0.02 0.75,-0.08 1.18,-0.5 0.44,-0.43 0.54,-0.67 0.68,-1.5 0.03,-0.12 0.1,-0.28 0.18,-0.39 0.09,-0.11 0.1,-0.52 0.04,-1.3 -0.07,-0.68 -0.07,-1.27 0.01,-1.46 0.09,-0.23 0.08,-0.37 -0.05,-0.53 -0.18,-0.2 -0.44,-1.34 -0.56,-2.51 -0.04,-0.36 -0.12,-0.7 -0.18,-0.78 -0.07,-0.08 -0.21,-0.46 -0.32,-0.83 -0.12,-0.39 -0.26,-0.76 -0.31,-0.82 -0.12,-0.16 -0.27,-0.95 -0.32,-1.75 -0.01,-0.33 -0.07,-0.65 -0.12,-0.73 -0.03,-0.06 -0.1,-1.01 -0.14,-2.08 -0.06,-1.77 -0.18,-2.62 -0.59,-4.28 -0.07,-0.28 -0.11,-0.81 -0.1,-1.16 0.01,-0.35 -0.08,-0.88 -0.2,-1.21 -0.47,-1.21 -0.76,-4.77 -0.45,-5.56 0.06,-0.18 0.19,-0.34 0.29,-0.34 0.09,0 0.4,-0.23 0.67,-0.51 0.27,-0.28 0.56,-0.51 0.64,-0.51 0.08,0 0.28,-0.15 0.46,-0.33 0.17,-0.18 0.51,-0.41 0.76,-0.53 0.24,-0.1 0.78,-0.36 1.19,-0.56 0.41,-0.21 0.88,-0.37 1.05,-0.37 0.16,0 0.33,-0.06 0.37,-0.12 0.06,-0.1 0.7,-0.18 2.54,-0.32 0.75,-0.06 1.33,-0.33 1.44,-0.7 0.04,-0.13 0.25,-0.4 0.45,-0.59 0.33,-0.32 0.44,-0.36 0.63,-0.23 0.22,0.12 0.33,0.07 0.83,-0.44 0.34,-0.32 0.57,-0.61 0.53,-0.65 -0.04,-0.04 -0.34,0.18 -0.64,0.48 -0.32,0.31 -0.58,0.5 -0.58,0.43 0,-0.08 0.18,-0.3 0.38,-0.46 0.22,-0.18 0.39,-0.41 0.39,-0.53 0,-0.1 0.05,-0.23 0.13,-0.27 0.06,-0.04 0.13,-0.22 0.13,-0.38 0,-0.17 0.05,-0.35 0.12,-0.39 0.07,-0.04 0.13,-0.27 0.13,-0.51 0,-0.24 0.05,-0.46 0.12,-0.5 0.06,-0.04 0.16,-0.32 0.24,-0.63 0.08,-0.3 0.27,-0.66 0.41,-0.79 0.14,-0.13 0.26,-0.36 0.26,-0.53 0,-0.16 0.05,-0.33 0.12,-0.37 0.07,-0.04 0.13,-0.27 0.15,-0.48 0,-0.24 0.1,-0.56 0.21,-0.73 0.12,-0.18 0.36,-0.56 0.52,-0.81 0.16,-0.26 0.37,-0.48 0.43,-0.48 0.08,0 0.55,-0.39 1.05,-0.87 0.5,-0.47 1.12,-0.95 1.36,-1.04 0.24,-0.09 0.67,-0.26 0.93,-0.41 0.29,-0.12 0.57,-0.24 0.66,-0.24 0.09,0 0.38,-0.11 0.66,-0.24 0.45,-0.22 0.61,-0.23 1.58,-0.1 l 1.08,0.14 0.39,-0.45 c 0.23,-0.25 0.5,-0.42 0.63,-0.4 0.12,0.03 0.22,-0.01 0.22,-0.09 0,-0.08 -0.05,-0.14 -0.13,-0.14 -0.06,0 -0.13,-0.06 -0.13,-0.13 0,-0.07 0.18,-0.13 0.4,-0.13 0.35,0 0.38,-0.02 0.24,-0.19 -0.12,-0.15 -0.12,-0.24 -0.02,-0.34 0.09,-0.09 0.15,-0.23 0.15,-0.34 0,-0.1 0.23,-0.65 0.51,-1.24 0.29,-0.59 0.52,-1.11 0.52,-1.18 0,-0.06 0.16,-0.31 0.38,-0.55 0.21,-0.24 0.37,-0.51 0.38,-0.58 0,-0.07 0.24,-0.37 0.52,-0.64 0.28,-0.26 0.51,-0.56 0.51,-0.64 0,-0.18 1.05,-1.21 1.23,-1.21 0.08,0 0.29,-0.18 0.5,-0.39 0.2,-0.22 0.43,-0.38 0.51,-0.38 0.09,0 0.26,-0.12 0.39,-0.26 0.11,-0.13 0.43,-0.32 0.69,-0.4 0.25,-0.07 0.61,-0.25 0.8,-0.38 0.18,-0.14 0.39,-0.24 0.45,-0.24 0.07,0 0.27,-0.17 0.46,-0.36 0.3,-0.31 0.35,-0.46 0.35,-1.14 0,-0.44 0.06,-0.83 0.13,-0.87 0.08,-0.04 0.13,-0.22 0.13,-0.4 0,-0.17 0.05,-0.41 0.11,-0.54 0.07,-0.11 0.21,-0.42 0.32,-0.66 0.21,-0.44 0.95,-1.52 1.44,-2.11 0.25,-0.28 1.14,-0.98 1.41,-1.1 0.07,-0.04 0.41,-0.29 0.71,-0.59 0.69,-0.64 0.95,-1.35 1.13,-3.19 0.08,-0.7 0.15,-1.46 0.19,-1.66 0.07,-0.39 0.16,-1.19 0.28,-2.79 0.08,-1.06 -0.29,-3.23 -0.62,-3.62 -0.05,-0.06 -0.11,-0.19 -0.11,-0.27 0,-0.09 -0.28,-0.77 -0.64,-1.51 -0.34,-0.74 -0.64,-1.41 -0.64,-1.47 0,-0.37 -2.78,-2.83 -3.19,-2.83 -0.07,0 -0.14,-0.05 -0.14,-0.12 0,-0.05 0.89,-0.14 1.96,-0.19 2.83,-0.13 4.56,-0.28 5.22,-0.46 0.32,-0.08 0.77,-0.18 1,-0.22 0.23,-0.04 0.44,-0.11 0.48,-0.18 0.04,-0.06 0.21,-0.11 0.37,-0.11 0.17,0 0.35,-0.05 0.39,-0.13 0.04,-0.07 0.17,-0.13 0.25,-0.13 0.11,0 0.52,-0.15 0.93,-0.33 0.41,-0.18 0.95,-0.43 1.19,-0.54 0.24,-0.12 0.65,-0.36 0.9,-0.56 0.24,-0.2 0.51,-0.36 0.6,-0.36 0.19,0 3.11,-2.89 3.11,-3.08 0,-0.08 0.17,-0.31 0.36,-0.51 0.33,-0.35 0.69,-0.99 1.47,-2.69 0.16,-0.32 0.44,-0.77 0.63,-1 0.19,-0.23 0.36,-0.54 0.36,-0.67 0,-0.14 0.11,-0.32 0.26,-0.41 0.14,-0.09 0.25,-0.26 0.25,-0.38 0,-0.13 0.07,-0.23 0.13,-0.23 0.08,0 0.13,-0.1 0.13,-0.23 0,-0.13 0.2,-0.44 0.45,-0.67 0.44,-0.43 0.83,-1.05 0.83,-1.33 0,-0.08 0.28,-0.51 0.64,-0.97 0.35,-0.47 0.63,-0.9 0.64,-0.98 0,-0.07 0.13,-0.24 0.27,-0.38 0.15,-0.13 0.63,-0.76 1.05,-1.4 0.43,-0.63 0.88,-1.27 1.01,-1.39 0.13,-0.15 0.23,-0.31 0.23,-0.38 0,-0.06 0.18,-0.28 0.39,-0.47 0.21,-0.19 0.38,-0.41 0.38,-0.47 0,-0.07 0.19,-0.3 0.42,-0.5 0.57,-0.54 1.37,-1.45 1.37,-1.58 0,-0.05 0.22,-0.31 0.49,-0.55 0.26,-0.26 0.59,-0.62 0.73,-0.82 0.23,-0.33 1.37,-1.61 1.86,-2.1 0.11,-0.1 0.34,-0.4 0.51,-0.64 0.18,-0.25 0.41,-0.57 0.54,-0.69 0.13,-0.14 0.23,-0.31 0.23,-0.38 0,-0.07 0.21,-0.33 0.45,-0.58 0.65,-0.68 1.78,-2.08 1.97,-2.46 0.09,-0.18 0.33,-0.53 0.55,-0.77 0.21,-0.25 0.6,-0.76 0.87,-1.14 0.64,-0.9 0.78,-1.07 1.09,-1.23 0.13,-0.08 0.28,-0.22 0.32,-0.32 0.05,-0.11 0.16,-0.31 0.23,-0.46 0.09,-0.17 0.16,-0.39 0.16,-0.5 0,-0.21 0.62,-1.2 1.05,-1.64 0.12,-0.14 0.23,-0.35 0.23,-0.45 0,-0.12 0.18,-0.41 0.38,-0.66 0.21,-0.24 0.39,-0.58 0.39,-0.74 0,-0.16 0.1,-0.46 0.23,-0.64 0.12,-0.19 0.32,-0.55 0.41,-0.79 0.09,-0.25 0.27,-0.59 0.38,-0.77 0.1,-0.18 0.28,-0.5 0.37,-0.71 0.09,-0.21 0.26,-0.52 0.36,-0.7 0.1,-0.18 0.22,-0.42 0.26,-0.55 0.04,-0.12 0.11,-0.22 0.18,-0.22 0.06,0 0.11,-0.2 0.11,-0.45 0,-0.41 0.41,-1.43 0.63,-1.6 0.05,-0.04 0.09,-0.31 0.1,-0.61 0,-0.31 0.08,-0.63 0.16,-0.71 0.07,-0.08 0.14,-0.29 0.14,-0.47 0,-0.2 0.04,-0.39 0.09,-0.44 0.05,-0.05 0.11,-0.32 0.13,-0.61 0.02,-0.29 0.08,-0.59 0.15,-0.67 0.11,-0.15 0.2,-0.65 0.41,-2.38 0.31,-2.68 0.31,-2.56 -0.15,-3.47 -0.06,-0.12 -0.07,-0.34 -0.03,-0.49 0.05,-0.21 -0.01,-0.3 -0.26,-0.39 -0.18,-0.06 -0.36,-0.17 -0.39,-0.25 -0.12,-0.17 -0.84,-0.53 -1.09,-0.53 -0.12,0 -0.46,-0.1 -0.78,-0.2 -1.32,-0.48 -2.26,-0.57 -4.28,-0.42 -1.07,0.07 -1.95,0.19 -1.98,0.25 -0.02,0.07 -0.15,0.12 -0.29,0.12 -0.13,0 -0.24,0.05 -0.24,0.13 0,0.07 -0.35,0.12 -0.77,0.12 -0.43,0 -0.77,0.05 -0.77,0.13 0,0.07 -0.28,0.13 -0.62,0.13 -0.34,0 -0.66,0.04 -0.71,0.09 -0.13,0.14 -1.02,0.42 -1.32,0.42 -0.16,0 -0.32,0.05 -0.36,0.13 -0.04,0.06 -0.18,0.13 -0.3,0.13 -0.11,0 -0.36,0.11 -0.54,0.25 -0.17,0.15 -0.44,0.26 -0.61,0.26 -0.29,0 -1.27,0.41 -1.82,0.77 -0.18,0.1 -0.55,0.28 -0.83,0.37 -0.28,0.09 -0.83,0.32 -1.22,0.51 -0.38,0.21 -1.05,0.49 -1.47,0.66 -1.27,0.47 -1.47,0.57 -1.47,0.66 0,0.07 -0.11,0.11 -0.22,0.12 -0.13,0 -0.46,0.14 -0.75,0.31 -0.28,0.16 -0.71,0.39 -0.96,0.51 -0.24,0.11 -0.56,0.28 -0.7,0.36 -0.33,0.18 -1.04,0.51 -1.56,0.74 -0.24,0.1 -0.43,0.22 -0.43,0.27 0,0.06 -0.07,0.1 -0.16,0.1 -0.23,0 -0.86,0.31 -0.86,0.41 0,0.07 -0.12,0.1 -0.26,0.1 -0.14,0 -0.32,0.12 -0.41,0.26 -0.09,0.14 -0.25,0.26 -0.37,0.26 -0.12,0 -0.31,0.11 -0.44,0.25 -0.12,0.14 -0.37,0.26 -0.52,0.26 -0.17,0 -0.37,0.11 -0.46,0.25 -0.09,0.15 -0.24,0.26 -0.33,0.26 -0.09,0 -0.58,0.27 -1.09,0.62 -0.52,0.33 -1.09,0.69 -1.31,0.79 -0.21,0.1 -0.41,0.23 -0.45,0.27 -0.14,0.15 -1.65,1.14 -1.77,1.14 -0.05,0 -0.21,0.1 -0.36,0.23 -0.12,0.13 -0.59,0.4 -1.01,0.59 -0.42,0.2 -0.97,0.55 -1.23,0.77 -0.89,0.77 -1.2,0.97 -1.43,0.97 -0.3,0 -0.72,0.25 -1.13,0.67 -0.19,0.2 -0.41,0.36 -0.49,0.36 -0.07,0 -0.43,0.23 -0.8,0.51 -0.37,0.28 -0.76,0.51 -0.84,0.51 -0.09,0 -0.16,0.05 -0.16,0.13 0,0.06 -0.07,0.13 -0.14,0.13 -0.07,0 -0.48,0.23 -0.89,0.51 -0.41,0.28 -0.82,0.51 -0.88,0.51 -0.08,0 -0.14,0.05 -0.14,0.13 0,0.06 -0.08,0.13 -0.16,0.13 -0.09,0 -0.37,0.18 -0.61,0.4 -0.24,0.2 -0.81,0.56 -1.23,0.76 -0.44,0.22 -0.9,0.5 -1.01,0.64 -0.13,0.13 -0.3,0.25 -0.37,0.25 -0.15,0 -1.06,0.57 -1.62,1.02 -0.18,0.13 -0.68,0.44 -1.11,0.67 -0.45,0.23 -0.81,0.46 -0.81,0.51 0,0.07 -0.09,0.1 -0.19,0.1 -0.12,0 -0.98,0.52 -1.92,1.16 -0.95,0.63 -1.76,1.15 -1.8,1.15 -0.05,0 -0.32,0.17 -0.61,0.36 -0.3,0.19 -0.71,0.44 -0.93,0.54 -0.2,0.1 -0.69,0.46 -1.06,0.79 -0.38,0.35 -0.74,0.62 -0.79,0.62 -0.18,0 -1.57,0.84 -1.99,1.2 -0.2,0.18 -0.46,0.33 -0.54,0.33 -0.09,0 -0.16,0.05 -0.16,0.13 0,0.07 -0.08,0.13 -0.17,0.13 -0.33,0 -0.92,0.37 -1.5,0.96 -0.31,0.32 -0.63,0.58 -0.7,0.58 -0.08,0 -0.28,0.15 -0.46,0.33 -0.17,0.18 -0.49,0.41 -0.71,0.51 -0.22,0.1 -0.7,0.48 -1.09,0.82 -0.38,0.35 -0.74,0.64 -0.79,0.64 -0.05,0 -0.32,0.21 -0.6,0.46 -0.54,0.5 -1.58,1.08 -1.94,1.08 -0.11,0 -0.24,-0.08 -0.28,-0.17 -0.1,-0.29 -0.47,0.18 -0.47,0.61 0,0.47 -0.63,1.18 -0.94,1.06 -0.17,-0.06 -0.41,-0.77 -0.36,-1.03 0.02,-0.06 -0.1,-0.14 -0.24,-0.17 -0.39,-0.11 -0.32,-0.41 0.08,-0.39 0.43,0.04 0.51,-0.17 0.19,-0.5 -0.34,-0.36 -0.45,-0.99 -0.26,-1.34 0.08,-0.17 0.22,-0.57 0.31,-0.9 0.15,-0.59 0.15,-0.62 -0.21,-0.96 -0.2,-0.19 -0.37,-0.48 -0.37,-0.63 0,-0.28 -1.11,-1.47 -1.37,-1.47 -0.24,0 -0.34,-0.27 -0.42,-1.03 -0.05,-0.6 -0.1,-0.7 -0.33,-0.74 -0.38,-0.05 -1.81,1.28 -1.94,1.78 -0.13,0.49 -0.34,0.53 -0.4,0.08 -0.02,-0.2 -0.11,-0.35 -0.23,-0.35 -0.21,0 -0.24,-0.24 -0.01,-0.28 0.08,0 0.22,-0.03 0.28,-0.03 0.25,-0.03 0.45,-0.23 0.66,-0.61 0.19,-0.36 0.18,-0.4 -0.07,-0.63 -0.31,-0.29 -0.33,-0.38 -0.11,-0.6 0.23,-0.23 0.36,-0.19 0.36,0.1 0,0.27 0.3,0.36 0.44,0.13 0.05,-0.08 0.21,-0.1 0.34,-0.06 0.15,0.05 0.39,0 0.59,-0.13 0.32,-0.22 0.33,-0.21 0.82,0.31 0.5,0.51 1.02,0.69 1.2,0.39 0.1,-0.16 0.54,-0.16 0.64,0 0.09,0.14 -0.13,0.6 -0.47,0.99 -0.26,0.27 -0.26,0.28 -0.02,0.91 0.13,0.34 0.27,0.65 0.34,0.68 0.05,0.02 0.23,-0.21 0.38,-0.53 0.16,-0.32 0.37,-0.59 0.48,-0.59 0.1,-0.01 0.26,-0.02 0.35,-0.04 0.09,0 0.16,-0.16 0.16,-0.37 -0.01,-0.47 0.13,-1.05 0.37,-1.46 0.43,-0.71 1.34,-1.98 1.74,-2.41 0.23,-0.24 0.74,-0.93 1.15,-1.53 0.41,-0.61 0.85,-1.21 0.98,-1.35 0.46,-0.51 1.91,-2.57 1.91,-2.71 0,-0.07 0.2,-0.41 0.45,-0.8 0.24,-0.37 0.44,-0.78 0.44,-0.91 0,-0.11 0.09,-0.29 0.2,-0.38 0.1,-0.08 0.21,-0.28 0.27,-0.43 0.11,-0.42 0.94,-2.04 1.15,-2.28 0.1,-0.1 0.18,-0.3 0.18,-0.42 0,-0.29 0.36,-1.43 0.59,-1.89 0.1,-0.18 0.18,-0.58 0.18,-0.88 0,-0.55 0.33,-1.74 0.52,-1.87 0.21,-0.11 0.13,-0.56 -0.09,-0.56 -0.16,0 -0.19,-0.09 -0.13,-0.49 0.3,-1.75 0.32,-2.14 0.11,-2.3 -0.16,-0.12 -0.17,-0.19 -0.06,-0.31 0.12,-0.11 0.04,-0.22 -0.29,-0.45 -0.54,-0.36 -0.76,-0.37 -1.23,-0.02 -0.52,0.37 -0.49,0.85 0.13,1.84 0.22,0.33 0.25,0.64 0.25,2.13 0.02,0.96 -0.02,1.78 -0.07,1.82 -0.16,0.16 -0.67,1.8 -0.68,2.16 0,0.19 -0.05,0.39 -0.13,0.42 -0.06,0.04 -0.13,0.2 -0.13,0.32 0,0.15 -0.1,0.44 -0.23,0.67 -0.13,0.23 -0.37,0.74 -0.52,1.13 -0.17,0.38 -0.53,1.06 -0.8,1.51 -0.28,0.45 -0.5,0.87 -0.5,0.93 0,0.07 -0.2,0.4 -0.45,0.75 -0.24,0.33 -0.44,0.68 -0.44,0.74 0,0.06 -0.15,0.26 -0.32,0.42 -0.18,0.17 -0.32,0.36 -0.32,0.43 0,0.06 -0.26,0.44 -0.58,0.84 -0.32,0.4 -1.18,1.5 -1.92,2.45 -0.75,0.95 -1.5,1.9 -1.67,2.11 -0.16,0.21 -0.43,0.55 -0.59,0.76 -0.25,0.33 -0.33,0.36 -0.8,0.27 -0.3,-0.05 -0.71,-0.12 -0.94,-0.16 -0.22,-0.03 -0.56,-0.23 -0.76,-0.43 -0.38,-0.41 -0.57,-0.45 -0.94,-0.22 -0.2,0.13 -0.31,0.12 -0.58,-0.02 -0.18,-0.11 -0.54,-0.18 -0.81,-0.18 -0.25,-0.02 -0.57,-0.08 -0.69,-0.15 -0.24,-0.15 -1.38,-2.75 -1.38,-3.17 0,-0.3 -0.26,-1.18 -0.52,-1.82 -0.39,-0.96 -0.35,-0.8 -0.6,-2.22 -0.04,-0.23 -0.11,-0.45 -0.18,-0.48 -0.06,-0.04 -0.11,-0.2 -0.11,-0.35 0,-0.15 -0.14,-0.69 -0.32,-1.18 -0.17,-0.5 -0.39,-1.24 -0.46,-1.65 -0.08,-0.42 -0.25,-0.99 -0.39,-1.26 -0.13,-0.25 -0.24,-0.55 -0.24,-0.63 0,-0.35 -1.36,-2.79 -1.92,-3.44 -0.34,-0.39 -0.76,-1.01 -0.95,-1.38 -0.19,-0.38 -0.49,-0.8 -0.65,-0.95 -0.18,-0.16 -0.32,-0.35 -0.32,-0.45 0,-0.09 -0.29,-0.47 -0.63,-0.86 -0.35,-0.37 -0.64,-0.73 -0.67,-0.79 -0.1,-0.25 -1.61,-1.46 -1.82,-1.46 -0.11,0 -0.24,-0.07 -0.28,-0.13 -0.14,-0.22 -0.69,-0.14 -0.83,0.13 -0.18,0.34 -0.03,0.87 0.31,1.05 0.14,0.07 0.51,0.33 0.8,0.56 0.3,0.24 0.59,0.44 0.66,0.44 0.19,0 2.12,2.19 2.65,2.99 0.13,0.22 0.31,0.49 0.38,0.6 0.07,0.12 0.26,0.45 0.43,0.74 0.15,0.29 0.44,0.71 0.64,0.94 0.37,0.43 1.52,2.8 1.83,3.76 0.09,0.28 0.23,0.59 0.31,0.69 0.06,0.1 0.11,0.28 0.08,0.41 -0.02,0.11 0.03,0.26 0.11,0.31 0.06,0.04 0.13,0.21 0.13,0.38 0,0.17 0.06,0.35 0.12,0.39 0.08,0.03 0.13,0.26 0.13,0.49 0,0.25 0.09,0.5 0.19,0.59 0.11,0.09 0.16,0.22 0.12,0.29 -0.08,0.11 0.17,0.82 0.47,1.4 0.07,0.13 0.12,0.35 0.12,0.49 0,0.13 0.11,0.45 0.24,0.69 0.14,0.25 0.32,0.93 0.41,1.52 0.08,0.57 0.23,1.15 0.33,1.28 0.11,0.11 0.21,0.28 0.22,0.38 0.03,0.09 0.08,0.4 0.14,0.68 0.05,0.28 0.17,0.6 0.26,0.7 0.09,0.11 0.24,0.44 0.33,0.75 0.16,0.51 0.14,0.56 -0.18,0.89 -0.34,0.38 -0.56,1.18 -0.39,1.46 0.18,0.29 0.16,0.54 -0.04,0.77 -0.1,0.12 -0.16,0.28 -0.1,0.36 0.05,0.08 -0.31,0.55 -0.81,1.09 -0.5,0.51 -0.92,1.08 -0.95,1.24 -0.03,0.23 -0.13,0.31 -0.46,0.34 -0.23,0.02 -0.46,0.12 -0.5,0.23 -0.04,0.1 -0.27,0.27 -0.5,0.38 -0.41,0.19 -0.46,0.19 -0.69,-0.01 -0.14,-0.13 -0.22,-0.27 -0.19,-0.33 0.03,-0.06 -0.2,-0.43 -0.52,-0.81 -0.32,-0.4 -0.79,-1.05 -1.05,-1.46 -0.25,-0.4 -0.56,-0.8 -0.68,-0.89 -0.28,-0.2 -3.88,-4.2 -4.71,-5.24 -0.35,-0.43 -0.87,-1.03 -1.19,-1.34 -0.31,-0.32 -0.85,-0.91 -1.21,-1.32 -0.34,-0.4 -1.05,-1.18 -1.55,-1.72 -0.5,-0.54 -0.99,-1.12 -1.11,-1.3 -0.26,-0.39 -1.72,-1.99 -3.55,-3.91 -0.74,-0.77 -1.58,-1.67 -1.84,-1.99 -0.57,-0.66 -7.32,-7.62 -7.7,-7.93 -0.26,-0.21 -0.93,-0.88 -2.09,-2.11 -0.55,-0.59 -3.93,-3.02 -4.19,-3.02 -0.13,0 -1.65,-1.05 -1.86,-1.28 -0.1,-0.12 -0.56,-0.47 -1.01,-0.77 -0.45,-0.3 -0.91,-0.63 -1.03,-0.72 -0.61,-0.5 -1.79,-1.33 -1.88,-1.33 -0.06,0 -0.32,-0.18 -0.56,-0.39 -0.25,-0.2 -0.53,-0.38 -0.6,-0.38 -0.09,0 -0.17,-0.07 -0.17,-0.13 0,-0.08 -0.1,-0.13 -0.22,-0.13 -0.11,0 -0.49,-0.23 -0.82,-0.51 -0.33,-0.28 -0.65,-0.51 -0.72,-0.51 -0.05,0 -0.41,-0.23 -0.78,-0.52 -0.37,-0.28 -0.73,-0.51 -0.79,-0.51 -0.15,0 -0.74,-0.33 -1.78,-1.01 -0.45,-0.28 -0.92,-0.53 -1.07,-0.53 -0.12,0 -0.23,-0.05 -0.23,-0.11 0,-0.1 -1.53,-0.91 -1.73,-0.91 -0.05,0 -0.24,-0.1 -0.42,-0.23 -0.19,-0.13 -0.55,-0.31 -0.79,-0.4 -0.25,-0.1 -0.63,-0.25 -0.86,-0.34 -0.22,-0.11 -0.58,-0.22 -0.8,-0.26 -0.2,-0.05 -0.49,-0.19 -0.64,-0.32 -0.14,-0.14 -0.34,-0.24 -0.46,-0.24 -0.1,0 -0.19,-0.07 -0.19,-0.13 0,-0.08 -0.09,-0.13 -0.19,-0.13 -0.18,0 -0.68,-0.23 -0.83,-0.38 -0.09,-0.09 -1.45,-0.73 -2.82,-1.32 -0.18,-0.08 -0.48,-0.25 -0.67,-0.37 -0.18,-0.13 -0.41,-0.24 -0.51,-0.24 -0.09,0 -0.64,-0.23 -1.22,-0.51 -0.59,-0.28 -1.33,-0.57 -1.66,-0.64 -0.35,-0.08 -0.98,-0.31 -1.41,-0.51 -0.44,-0.22 -0.89,-0.39 -0.99,-0.39 -0.25,0 -0.84,-0.25 -1.22,-0.53 -0.2,-0.17 -0.53,-0.23 -1.05,-0.23 -0.42,0 -0.75,-0.06 -0.75,-0.13 0,-0.08 -0.39,-0.13 -0.9,-0.13 -0.51,0 -0.9,-0.05 -0.9,-0.13 0,-0.08 -0.11,-0.13 -0.25,-0.13 -0.14,0 -0.26,-0.06 -0.26,-0.12 0,-0.17 -3.03,-0.18 -3.14,-0.02 -0.04,0.08 -0.23,0.08 -0.48,0 -0.46,-0.13 -0.54,-0.13 -1.44,0.03 z m 104.35,93.36 c 0,0.29 0.06,0.53 0.16,0.57 0.08,0.02 0.12,0.1 0.07,0.15 -0.06,0.05 -0.18,0.03 -0.3,-0.06 -0.22,-0.18 -0.27,-1.16 -0.06,-1.16 0.07,0 0.13,0.23 0.13,0.5 z m 1.21,1.18 c 0.05,0.08 -0.02,0.27 -0.18,0.43 -0.15,0.15 -0.27,0.38 -0.27,0.5 0,0.11 -0.05,0.21 -0.12,0.21 -0.07,0 -0.13,-0.18 -0.13,-0.38 0,-0.31 0.05,-0.39 0.28,-0.39 0.22,0 0.24,-0.03 0.13,-0.15 -0.09,-0.09 -0.16,-0.2 -0.16,-0.26 0,-0.15 0.36,-0.12 0.45,0.04 z m 4.33,1.3 c 0.03,0.09 -0.06,0.36 -0.19,0.59 -0.13,0.23 -0.23,0.5 -0.23,0.6 0,0.1 -0.05,0.19 -0.13,0.19 -0.06,0 -0.13,-0.17 -0.13,-0.37 0,-0.22 0.07,-0.42 0.13,-0.46 0.08,-0.04 0.13,-0.22 0.13,-0.4 0,-0.32 0.32,-0.44 0.42,-0.15 z m -7.85,4.84 c 0,0.06 -0.05,0.13 -0.13,0.13 -0.06,0 -0.13,-0.07 -0.13,-0.13 0,-0.08 0.07,-0.13 0.13,-0.13 0.08,0 0.13,0.05 0.13,0.13 z m 4.07,0.02 c 0.12,0.12 0.22,0.12 0.46,-0.01 0.31,-0.17 0.59,-0.11 0.59,0.12 0,0.06 -0.21,0.21 -0.47,0.34 -0.27,0.12 -0.51,0.26 -0.55,0.31 -0.04,0.04 -0.26,0.18 -0.49,0.29 -0.43,0.22 -1.82,1.57 -1.82,1.76 0,0.06 -0.05,0.12 -0.12,0.12 -0.2,0 -0.16,-0.81 0.06,-1.23 0.1,-0.21 0.36,-0.56 0.58,-0.76 0.32,-0.31 0.42,-0.35 0.51,-0.19 0.06,0.1 0.15,0.14 0.22,0.09 0.05,-0.07 0.01,-0.16 -0.09,-0.22 -0.22,-0.13 -0.11,-0.31 0.41,-0.58 0.38,-0.22 0.52,-0.23 0.71,-0.04 z m -52.5,3.3 c -0.07,0.15 -0.2,0.24 -0.26,0.19 -0.08,-0.05 -0.06,-0.17 0.09,-0.32 0.26,-0.31 0.37,-0.23 0.17,0.13 z m 48.17,2.57 c 0,0.07 -0.05,0.13 -0.12,0.13 -0.07,0 -0.13,0.14 -0.13,0.31 0,0.18 -0.05,0.36 -0.13,0.39 -0.06,0.04 -0.13,0.25 -0.13,0.47 0,0.46 -0.14,0.47 -0.34,0.02 -0.23,-0.49 -0.22,-0.55 0.24,-1.02 0.41,-0.44 0.61,-0.53 0.61,-0.3 z m -1.02,2.74 c 0,0.04 -0.05,0.11 -0.13,0.14 -0.06,0.04 -0.13,0.02 -0.13,-0.05 0,-0.07 0.07,-0.14 0.13,-0.14 0.08,0 0.13,0.03 0.13,0.05 z m -0.64,0.32 c 0,0.07 -0.16,0.3 -0.33,0.52 -0.27,0.32 -0.43,0.39 -0.84,0.39 -0.27,0 -0.5,-0.04 -0.5,-0.1 0,-0.1 1.16,-0.67 1.39,-0.67 0.09,0 0.15,-0.06 0.15,-0.12 0,-0.08 0.03,-0.13 0.06,-0.13 0.04,0 0.07,0.05 0.07,0.11 z m -6.02,2.07 c 0,0.06 -0.11,0.12 -0.22,0.12 -0.12,0 -0.41,0.18 -0.64,0.41 -0.23,0.23 -0.42,0.35 -0.42,0.26 0,-0.09 0.06,-0.15 0.12,-0.15 0.08,0 0.13,-0.11 0.13,-0.23 0,-0.13 0.07,-0.3 0.16,-0.39 0.18,-0.18 0.87,-0.2 0.87,-0.02 z m -15.25,13.64 c -0.16,0.18 -0.33,0.29 -0.36,0.26 -0.03,-0.04 0.07,-0.21 0.23,-0.39 0.17,-0.18 0.34,-0.29 0.36,-0.25 0.04,0.03 -0.06,0.2 -0.23,0.38 z" id="path175" style="stroke:#F08143;stroke-width:1.42;stroke-miterlimit:22.9256;stroke-opacity:0.501961;fill:none;fill-rule:nonzero"/>
                <path d="m 2282.43,660.16 c 0,0.07 0.06,0.13 0.12,0.13 0.08,0 0.13,-0.06 0.13,-0.13 0,-0.08 -0.05,-0.13 -0.13,-0.13 -0.06,0 -0.12,0.05 -0.12,0.13 z" id="path176" style="stroke:#F08143;stroke-width:1.42;stroke-miterlimit:22.9256;stroke-opacity:0.501961;fill:none;fill-rule:nonzero"/>
                <path d="m 2330.85,588.04 c 0,0.28 0.07,0.51 0.13,0.51 0.08,0 0.13,-0.23 0.13,-0.51 0,-0.29 -0.05,-0.52 -0.13,-0.52 -0.06,0 -0.13,0.23 -0.13,0.52 z" id="path177" style="stroke:#F08143;stroke-width:1.42;stroke-miterlimit:22.9256;stroke-opacity:0.501961;fill:none;fill-rule:nonzero"/>
                <path d="m 2230.65,663.95 c -0.07,0.05 -0.11,0.22 -0.11,0.36 0,0.16 -0.09,0.44 -0.19,0.64 -0.26,0.48 -0.26,0.86 0,0.77 0.1,-0.05 0.19,-0.23 0.19,-0.42 0,-0.19 0.07,-0.41 0.14,-0.49 0.08,-0.07 0.12,-0.32 0.09,-0.55 -0.02,-0.22 -0.07,-0.36 -0.12,-0.31 z" id="path178" style="stroke:#F08143;stroke-width:1.42;stroke-miterlimit:22.9256;stroke-opacity:0.501961;fill:none;fill-rule:nonzero"/>
                <path d="m 2266.54,679.38 c 0,0.06 0.07,0.13 0.13,0.13 0.08,0 0.13,-0.07 0.13,-0.13 0,-0.08 -0.05,-0.13 -0.13,-0.13 -0.06,0 -0.13,0.05 -0.13,0.13 z" id="path179" style="stroke:#F08143;stroke-width:1.42;stroke-miterlimit:22.9256;stroke-opacity:0.501961;fill:none;fill-rule:nonzero"/>
            </g>
        </g>
    </g>
</svg>
