<?xml version="1.0" encoding="UTF-8" standalone="no"?>
<!--Creator: CorelDRAW 2021.5-->
<svg xml:space="preserve" width="318.05545" height="318.05542" version="1.1" style="clip-rule:evenodd;fill-rule:evenodd;image-rendering:optimizeQuality;shape-rendering:geometricPrecision;text-rendering:geometricPrecision" viewBox="0 0 57.313982 57.369996" id="svg13" sodipodi:docname="map_layer_icon_legal_set.svg" xmlns:inkscape="http://www.inkscape.org/namespaces/inkscape" xmlns:sodipodi="http://sodipodi.sourceforge.net/DTD/sodipodi-0.dtd" xmlns="http://www.w3.org/2000/svg" xmlns:svg="http://www.w3.org/2000/svg">
    <sodipodi:namedview id="namedview13" pagecolor="#ffffff" bordercolor="#000000" borderopacity="0.25" inkscape:showpageshadow="2" inkscape:pageopacity="0.0" inkscape:pagecheckerboard="0" inkscape:deskcolor="#d1d1d1">
        <inkscape:page x="0" y="0" width="57.31398" height="57.369995" id="page2" margin="0" bleed="0"/>
    </sodipodi:namedview>
    <defs id="defs1">
        <style type="text/css" id="style1">
            <![CDATA[.str4{stroke:#BBC274;stroke-width:0.43;stroke-miterlimit:22.9256;stroke-dasharray:0.850000 1.280000}.str3{stroke:#7E71B1;stroke-width:0.43;stroke-miterlimit:22.9256;stroke-dasharray:0.850000 1.280000}.fil4{fill:none}.fil8{fill:#FEFEFE}.fil7{fill:#EDC9CB}.fil9{fill:#C5C6C6;fill-rule:nonzero}.fil6{fill:#B9C599;fill-opacity:0.501961}.fil5{fill:#98A27F;fill-opacity:0.501961}]]>
        </style>
    </defs>
    <g id="Ebene_x0020_1" inkscape:label="Ebene 1" inkscape:groupmode="layer" transform="translate(-0.09566137,0.00499901)">
        <metadata id="CorelCorpID_0Corel-Layer"/>
        <circle cx="28.68" cy="28.68" r="28.469999" id="circle1" style="stroke:#EBECEC;stroke-width:0.43;stroke-miterlimit:22.9256;fill:#EBECEC"/>
        <path d="m 49.22,8.98 c -1.55,1.11 -2.56,2.93 -2.56,4.99 0,0.2 0.01,0.39 0.03,0.59 -1.16,-0.55 -2.3,-0.86 -3.58,-0.86 -4.79,0 -8.68,3.88 -8.68,8.68 0,3.54 2.16,6.73 5.45,8.05 -1.1,1.55 -1.78,3.37 -1.95,5.26 -2.31,2.4 -3.59,5.31 -3.59,8.63 0,0.75 0.07,1.49 0.19,2.22 -0.06,0.55 -0.14,0.86 -0.14,1.41 0,2.87 0.93,5.65 2.64,7.95 M 23.21,22.12 c 0.01,0.08 0.05,-0.02 0.05,0.06 0,2.8 -2.27,5.07 -5.06,5.07 -2.8,0 -5.06,-2.27 -5.06,-5.07 0,-1.86 1.01,-3.57 2.65,-4.45 0.4,-2.19 2.3,-3.78 4.53,-3.78 2.54,0 4.6,2.05 4.6,4.6 0,1.38 -0.63,2.7 -1.71,3.57 z" id="path1" style="stroke:#008DD2;stroke-width:0.43;stroke-miterlimit:22.9256;stroke-dasharray:0.850000 1.280000;stroke-opacity:0.600000;fill:none"/>
        <path d="m 24.39,32.28 c -0.12,-0.22 -0.36,-0.44 -0.72,-0.65 -0.37,-0.21 -0.7,-0.31 -1,-0.31 -0.42,0 -0.91,0.15 -1.48,0.44 -0.57,0.3 -0.86,0.64 -0.86,1.05 0,0.88 0.15,1.51 0.46,1.89 0.3,0.39 1.12,0.95 2.47,1.7 0.75,0.37 1.49,1.03 2.22,1.96 0.73,0.94 1.1,1.91 1.1,2.9 0,0.7 -0.36,1.47 -1.08,2.32 -0.72,0.84 -1.46,1.31 -2.24,1.43 1.45,0.93 2.29,1.69 2.51,2.3 0.22,0.6 0.34,1.17 0.34,1.73 0,1.32 -0.49,2.37 -1.46,3.14 -0.97,0.76 -2.26,1.15 -3.88,1.15 -1.35,0 -2.4,-0.37 -3.14,-1.1 -0.75,-0.72 -1.12,-1.43 -1.12,-2.13 0,-1 0.16,-1.5 0.47,-1.5 0.57,0 0.95,0.09 1.16,0.27 0.2,0.18 0.36,0.48 0.5,0.88 0.15,0.46 0.34,0.79 0.59,1 0.24,0.21 0.44,0.39 0.6,0.55 0.15,0.15 0.46,0.23 0.93,0.23 0.96,0 1.77,-0.23 2.44,-0.69 0.68,-0.45 1.01,-0.9 1.01,-1.33 0,-0.67 -0.17,-1.19 -0.52,-1.56 -0.35,-0.38 -0.9,-0.74 -1.66,-1.09 -1.04,-0.48 -2.04,-1.05 -2.99,-1.74 -0.96,-0.68 -1.59,-1.26 -1.9,-1.74 -0.32,-0.48 -0.47,-1.18 -0.47,-2.1 0,-1.33 0.73,-2.45 2.19,-3.38 l 0.4,-0.27 C 19.81,37.24 20.32,37 20.77,36.9 20.59,36.71 20.23,36.39 19.7,35.95 19.16,35.5 18.79,35.09 18.59,34.7 c -0.2,-0.38 -0.3,-0.88 -0.3,-1.5 0,-0.33 0.21,-0.95 0.65,-1.85 l 0.21,-0.44 c 0.2,-0.36 0.73,-0.64 1.59,-0.85 0.86,-0.2 1.63,-0.3 2.3,-0.3 0.81,0 1.61,0.2 2.39,0.59 0.79,0.4 1.18,0.87 1.18,1.43 0,0.4 -0.16,0.8 -0.48,1.2 -0.32,0.4 -0.65,0.6 -1.01,0.6 -0.12,0 -0.27,-0.21 -0.45,-0.63 -0.18,-0.44 -0.26,-0.66 -0.28,-0.67 z m -2.37,12.14 c 0.01,-0.17 0.18,-0.35 0.52,-0.55 1.28,-0.84 1.92,-1.68 1.92,-2.53 0,-0.47 -0.12,-0.97 -0.35,-1.48 -0.24,-0.51 -0.61,-0.87 -1.13,-1.09 -0.51,-0.23 -0.84,-0.34 -0.96,-0.34 -0.79,0 -1.49,0.25 -2.1,0.74 C 19.3,39.67 19,40.28 19,41 c 0,1.28 0.47,2.12 1.39,2.51 0.22,0.09 0.52,0.25 0.9,0.48 0.36,0.23 0.6,0.37 0.73,0.43 z" id="path2" style="fill:#AE4A84;fill-rule:nonzero;fill-opacity:0.729412"/>
        <rect transform="rotate(-89.767826,43.133039,2.4108752)" width="2.29" height="1.7" id="rect2" x="0" y="0" style="stroke:#C5C6C6;stroke-width:0.43;stroke-miterlimit:22.9256;fill:#C5C6C6"/>
        <rect transform="rotate(30.225802,-19.670551,45.395197)" width="2.29" height="1.7" id="rect3" x="0" y="0" style="stroke:#C5C6C6;stroke-width:0.43;stroke-miterlimit:22.9256;fill:#C5C6C6"/>
        <rect transform="matrix(1.03305,-1.44987,1.44987,1.03305,40.1448,23.2616)" width="2.29" height="1.7" id="rect4" x="0" y="0" style="stroke:#C5C6C6;stroke-width:0.43;stroke-miterlimit:22.9256;fill:#C5C6C6"/>
        <rect x="41.73" y="33.880001" width="2.29" height="1.7" id="rect5" style="stroke:#C5C6C6;stroke-width:0.43;stroke-miterlimit:22.9256;fill:#C5C6C6"/>
        <rect x="16.629999" y="22.139999" width="2.29" height="1.7" id="rect6" style="stroke:#C5C6C6;stroke-width:0.43;stroke-miterlimit:22.9256;fill:#C5C6C6"/>
    </g>
</svg>
