<?xml version="1.0" encoding="UTF-8" standalone="no"?>
<!--Creator: CorelDRAW 2021.5-->
<svg xml:space="preserve" width="318.2926" height="318.29263" version="1.1" style="clip-rule:evenodd;fill-rule:evenodd;image-rendering:optimizeQuality;shape-rendering:geometricPrecision;text-rendering:geometricPrecision" viewBox="0 0 272.06001 272.01288" id="svg182" sodipodi:docname="icons_map_layer(1).svg" xmlns:inkscape="http://www.inkscape.org/namespaces/inkscape" xmlns:sodipodi="http://sodipodi.sourceforge.net/DTD/sodipodi-0.dtd" xmlns="http://www.w3.org/2000/svg" xmlns:svg="http://www.w3.org/2000/svg">
    <sodipodi:namedview id="namedview182" pagecolor="#ffffff" bordercolor="#000000" borderopacity="0.25" inkscape:showpageshadow="2" inkscape:pageopacity="0.0" inkscape:pagecheckerboard="0" inkscape:deskcolor="#d1d1d1">
        <inkscape:page x="0" y="0" width="272.06" height="272.01288" id="page2" margin="0" bleed="0"/>
    </sodipodi:namedview>
    <defs id="defs1">
        <style type="text/css" id="style1">
            <![CDATA[.str1{stroke:#B0CB1F;stroke-width:2.02;stroke-miterlimit:22.9256}.fil14{fill:#D9DADA}.fil15{fill:#C5C6C6}.fil19{fill:#B2B3B3}.fil12{fill:#9D9E9E}.fil20{fill:#FCD5A6}.fil11{fill:#D19563}.fil17{fill:#E31E24}.fil21{fill:#DBE285}.fil22{fill:#BBC274}.fil36{fill:#B0CB1F}.fil18{fill:#539433}.fil23{fill:#00A0E3}.fil8{fill:#008DD2}.fil9{fill:#8FA883}.fil7{fill:#ACD4DE}.fil6{fill:#ACDDA1}.fil16{fill:#BDBDBD}.fil10{fill:#CFCBC4}.fil4{fill:#EAEBD5}.fil3{fill:#ECEDD3}.fil5{fill:#EDEED6}.fil2{fill:#EDEFD4}.fil0{fill:#F0EBE2}.fil1{fill:#F1EEE9}.fil38{fill:#2B2A29;fill-rule:nonzero}.fil37{fill:#B0CB1F;fill-rule:nonzero}.fil35{fill:black;fill-rule:nonzero}.fil24{fill:#00A0E3;fill-rule:nonzero;fill-opacity:0.400000}.fil26{fill:#FECC00;fill-opacity:0.501961}.fil39{fill:#F08143;fill-rule:nonzero;fill-opacity:0.501961}.fil29{fill:#748187;fill-rule:nonzero;fill-opacity:0.580392}.fil31{fill:#86755D;fill-rule:nonzero;fill-opacity:0.600000}.fil30{fill:black;fill-rule:nonzero;fill-opacity:0.600000}.fil32{fill:#86755D;fill-rule:nonzero;fill-opacity:0.611765}.fil25{fill:#00A0E3;fill-rule:nonzero;fill-opacity:0.701961}.fil33{fill:#61A375;fill-rule:nonzero;fill-opacity:0.760784}.fil34{fill:#AF9778;fill-rule:nonzero;fill-opacity:0.780392}]]>
        </style>
    </defs>
    <g id="Ebene_x0020_1" inkscape:label="Ebene 1" inkscape:groupmode="layer" transform="translate(5.4836272e-6,-72.42998)">
        <metadata id="CorelCorpID_0Corel-Layer"/>
        <circle cx="136.03" cy="208.36" r="135.02" id="circle97" style="stroke:#EBECEC;stroke-width:2.02;stroke-miterlimit:22.9256;fill:#EBECEC"/>
        <path d="m 233.49,114.91 c -7.36,5.29 -12.16,13.92 -12.16,23.68 0,0.93 0.04,1.86 0.13,2.79 -5.5,-2.6 -10.88,-4.08 -16.97,-4.08 -22.73,0 -41.16,18.43 -41.16,41.16 0,16.82 10.23,31.95 25.84,38.22 -5.23,7.35 -8.43,15.96 -9.28,24.95 -10.94,11.35 -17,25.16 -17,40.92 0,3.54 0.31,7.07 0.92,10.55 -0.32,2.6 -0.67,4.07 -0.67,6.69 0,13.58 4.39,26.8 12.51,37.68 55.24,-16.93 95.41,-68.33 95.41,-129.11 0,-36.27 -14.3,-69.19 -37.57,-93.45 z M 110.1,177.25 c 0.02,0.39 0.24,-0.1 0.24,0.29 0,13.27 -10.75,24.02 -24.02,24.02 -13.26,0 -24.01,-10.75 -24.01,-24.02 0,-8.82 4.83,-16.93 12.59,-21.13 1.88,-10.38 10.92,-17.94 21.47,-17.94 12.05,0 21.82,9.77 21.82,21.82 0,6.58 -2.97,12.82 -8.09,16.96 z" id="path98" style="fill:#B1709C;fill-opacity:0.600000"/>
        <path d="m 115.71,225.43 c -0.58,-1.05 -1.71,-2.08 -3.46,-3.06 -1.71,-0.98 -3.31,-1.48 -4.73,-1.48 -1.96,0 -4.3,0.72 -7.02,2.09 -2.7,1.4 -4.05,3.04 -4.05,4.96 0,4.17 0.71,7.16 2.16,9 1.43,1.82 5.33,4.49 11.71,8.05 3.55,1.77 7.06,4.86 10.52,9.3 3.49,4.44 5.23,9.03 5.23,13.76 0,3.32 -1.72,6.97 -5.1,10.97 -3.42,4 -6.95,6.26 -10.65,6.8 6.89,4.41 10.87,8.02 11.92,10.89 1.06,2.85 1.6,5.6 1.6,8.22 0,6.28 -2.31,11.24 -6.9,14.9 -4.61,3.63 -10.75,5.44 -18.4,5.44 -6.43,0 -11.41,-1.71 -14.92,-5.17 -3.53,-3.44 -5.3,-6.82 -5.3,-10.14 0,-4.73 0.76,-7.11 2.23,-7.11 2.7,0 4.52,0.44 5.47,1.3 0.96,0.86 1.75,2.26 2.38,4.17 0.72,2.16 1.65,3.73 2.8,4.73 1.16,1.01 2.09,1.87 2.85,2.6 0.73,0.72 2.21,1.08 4.42,1.08 4.53,0 8.41,-1.08 11.6,-3.23 3.19,-2.16 4.79,-4.27 4.79,-6.33 0,-3.17 -0.84,-5.65 -2.48,-7.41 -1.67,-1.77 -4.3,-3.49 -7.88,-5.18 -4.93,-2.26 -9.67,-4.98 -14.21,-8.22 -4.51,-3.24 -7.53,-5.99 -9,-8.27 -1.5,-2.28 -2.23,-5.59 -2.23,-9.96 0,-6.28 3.46,-11.61 10.4,-16.03 l 1.89,-1.3 c 2.62,-1.81 5.03,-2.96 7.19,-3.46 -0.88,-0.9 -2.58,-2.4 -5.11,-4.51 -2.55,-2.11 -4.29,-4.07 -5.25,-5.89 -0.95,-1.84 -1.44,-4.19 -1.44,-7.11 0,-1.6 1.03,-4.52 3.09,-8.79 l 1,-2.08 c 0.96,-1.72 3.49,-3.07 7.56,-4.03 4.07,-0.96 7.71,-1.42 10.92,-1.42 3.83,0 7.61,0.93 11.34,2.8 3.7,1.86 5.57,4.12 5.57,6.74 0,1.92 -0.76,3.83 -2.29,5.72 -1.49,1.89 -3.09,2.85 -4.76,2.85 -0.58,0 -1.3,-1.01 -2.16,-3.02 -0.83,-2.06 -1.25,-3.12 -1.3,-3.17 z m -11.28,57.59 c 0.05,-0.78 0.88,-1.64 2.5,-2.6 6.06,-3.97 9.08,-7.97 9.08,-12 0,-2.26 -0.57,-4.59 -1.67,-7.02 -1.1,-2.4 -2.87,-4.14 -5.32,-5.2 -2.43,-1.05 -3.98,-1.59 -4.59,-1.59 -3.73,0 -7.07,1.18 -9.96,3.53 -2.9,2.36 -4.35,5.25 -4.35,8.69 0,6.03 2.21,10.01 6.6,11.87 1.06,0.42 2.48,1.2 4.25,2.31 1.74,1.05 2.87,1.72 3.46,2.01 z" id="path99" style="fill:#AE4A84;fill-rule:nonzero;fill-opacity:0.729412"/>
    </g>
</svg>
