<?xml version="1.0" encoding="UTF-8" standalone="no"?>
<!--Creator: CorelDRAW 2021.5-->
<svg xml:space="preserve" width="318.00003" height="318.00003" version="1.1" style="clip-rule:evenodd;fill-rule:evenodd;image-rendering:optimizeQuality;shape-rendering:geometricPrecision;text-rendering:geometricPrecision" viewBox="0 0 30.910003 30.910003" id="svg2" sodipodi:docname="map_layer_icon_legal.svg" xmlns:inkscape="http://www.inkscape.org/namespaces/inkscape" xmlns:sodipodi="http://sodipodi.sourceforge.net/DTD/sodipodi-0.dtd" xmlns="http://www.w3.org/2000/svg" xmlns:svg="http://www.w3.org/2000/svg">
    <sodipodi:namedview id="namedview2" pagecolor="#ffffff" bordercolor="#000000" borderopacity="0.25" inkscape:showpageshadow="2" inkscape:pageopacity="0.0" inkscape:pagecheckerboard="0" inkscape:deskcolor="#d1d1d1">
        <inkscape:page x="0" y="0" width="30.910004" height="30.910004" id="page2" margin="0" bleed="0"/>
    </sodipodi:namedview>
    <defs id="defs1"/>
    <g id="Ebene_x0020_1" inkscape:label="Ebene 1" inkscape:groupmode="layer" transform="translate(-0.00499988,-0.00499988)">
        <metadata id="CorelCorpID_0Corel-Layer"/>
        <circle cx="15.46" cy="15.46" r="15.34" id="circle1" style="stroke:#EBECEC;stroke-width:0.23;stroke-miterlimit:22.9256;fill:#EBECEC"/>
        <path d="m 26.53,4.84 c -0.84,0.6 -1.38,1.58 -1.38,2.69 0,0.1 0,0.21 0.01,0.32 -0.62,-0.3 -1.24,-0.47 -1.93,-0.47 -2.58,0 -4.67,2.1 -4.67,4.68 0,1.91 1.16,3.63 2.93,4.34 -0.59,0.84 -0.96,1.81 -1.05,2.84 -1.25,1.28 -1.93,2.85 -1.93,4.64 0,0.41 0.03,0.81 0.1,1.2 -0.04,0.3 -0.08,0.47 -0.08,0.76 0,1.55 0.5,3.05 1.43,4.28 m -7.45,-18.2 c 0,0.05 0.03,-0.01 0.03,0.03 0,1.51 -1.23,2.73 -2.73,2.73 -1.51,0 -2.73,-1.22 -2.73,-2.73 0,-1 0.55,-1.92 1.43,-2.4 0.21,-1.18 1.24,-2.03 2.44,-2.03 1.37,0 2.48,1.11 2.48,2.47 0,0.75 -0.34,1.46 -0.92,1.93 z" id="path1" style="stroke:#BD77A1;stroke-width:0.23;stroke-miterlimit:22.9256;stroke-dasharray:0.460000 0.690000;stroke-opacity:0.600000;fill:none"/>
        <path d="m 13.15,17.4 c -0.07,-0.12 -0.2,-0.24 -0.4,-0.35 -0.19,-0.11 -0.37,-0.17 -0.53,-0.17 -0.23,0 -0.49,0.08 -0.8,0.24 -0.31,0.16 -0.46,0.34 -0.46,0.56 0,0.47 0.08,0.81 0.24,1.02 0.17,0.21 0.61,0.51 1.33,0.92 0.41,0.2 0.81,0.55 1.2,1.05 0.39,0.51 0.59,1.03 0.59,1.57 0,0.37 -0.19,0.79 -0.58,1.24 -0.38,0.46 -0.79,0.71 -1.21,0.78 0.79,0.5 1.24,0.91 1.36,1.23 0.12,0.33 0.18,0.64 0.18,0.94 0,0.71 -0.26,1.27 -0.78,1.69 -0.53,0.41 -1.23,0.62 -2.09,0.62 -0.74,0 -1.3,-0.2 -1.7,-0.59 C 9.1,27.76 8.9,27.37 8.9,27 c 0,-0.54 0.08,-0.81 0.25,-0.81 0.31,0 0.51,0.05 0.62,0.15 0.11,0.1 0.2,0.25 0.27,0.47 0.08,0.25 0.19,0.43 0.32,0.54 0.13,0.11 0.24,0.21 0.33,0.3 0.08,0.08 0.25,0.12 0.5,0.12 0.51,0 0.95,-0.12 1.32,-0.37 0.36,-0.25 0.54,-0.49 0.54,-0.72 0,-0.36 -0.1,-0.64 -0.28,-0.84 -0.19,-0.2 -0.49,-0.4 -0.9,-0.59 -0.56,-0.26 -1.1,-0.57 -1.61,-0.93 C 9.75,23.95 9.4,23.64 9.24,23.38 9.07,23.12 8.98,22.74 8.98,22.25 c 0,-0.72 0.39,-1.32 1.18,-1.82 l 0.22,-0.15 c 0.3,-0.21 0.57,-0.34 0.82,-0.4 -0.11,-0.1 -0.3,-0.27 -0.58,-0.51 -0.29,-0.24 -0.49,-0.46 -0.6,-0.67 -0.11,-0.21 -0.17,-0.47 -0.17,-0.81 0,-0.18 0.12,-0.51 0.36,-0.99 l 0.11,-0.24 c 0.11,-0.2 0.4,-0.35 0.86,-0.46 0.46,-0.11 0.87,-0.16 1.24,-0.16 0.43,0 0.86,0.11 1.29,0.32 0.42,0.21 0.63,0.47 0.63,0.76 0,0.22 -0.09,0.44 -0.26,0.65 -0.17,0.22 -0.35,0.33 -0.54,0.33 -0.07,0 -0.15,-0.12 -0.25,-0.35 C 13.2,17.52 13.15,17.4 13.15,17.4 Z m -1.29,6.54 c 0.01,-0.09 0.1,-0.19 0.29,-0.3 0.69,-0.45 1.03,-0.9 1.03,-1.36 0,-0.26 -0.06,-0.52 -0.19,-0.8 -0.13,-0.27 -0.33,-0.47 -0.6,-0.59 -0.28,-0.12 -0.46,-0.18 -0.53,-0.18 -0.42,0 -0.8,0.13 -1.13,0.4 -0.33,0.27 -0.49,0.6 -0.49,0.99 0,0.68 0.25,1.14 0.75,1.35 0.12,0.04 0.28,0.13 0.48,0.26 0.2,0.12 0.33,0.19 0.39,0.23 z" id="path2" style="fill:#AE4A84;fill-rule:nonzero;fill-opacity:0.729412"/>
    </g>
</svg>
