<?xml version="1.0" encoding="UTF-8" standalone="no"?>
<!--Creator: CorelDRAW 2021.5-->
<svg xml:space="preserve" width="318.29272" height="318.30429" version="1.1" style="clip-rule:evenodd;fill-rule:evenodd;image-rendering:optimizeQuality;shape-rendering:geometricPrecision;text-rendering:geometricPrecision" viewBox="0 0 272.06011 272.02285" id="svg182" sodipodi:docname="icons_map_layer(1).svg" xmlns:inkscape="http://www.inkscape.org/namespaces/inkscape" xmlns:sodipodi="http://sodipodi.sourceforge.net/DTD/sodipodi-0.dtd" xmlns="http://www.w3.org/2000/svg" xmlns:svg="http://www.w3.org/2000/svg">
    <sodipodi:namedview id="namedview182" pagecolor="#ffffff" bordercolor="#000000" borderopacity="0.25" inkscape:showpageshadow="2" inkscape:pageopacity="0.0" inkscape:pagecheckerboard="0" inkscape:deskcolor="#d1d1d1">
        <inkscape:page x="0" y="0" width="272.06012" height="272.02286" id="page2" margin="0" bleed="0"/>
    </sodipodi:namedview>
    <defs id="defs1">
        <style type="text/css" id="style1">
            <![CDATA[.str1{stroke:#B0CB1F;stroke-width:2.02;stroke-miterlimit:22.9256}.fil14{fill:#D9DADA}.fil15{fill:#C5C6C6}.fil19{fill:#B2B3B3}.fil12{fill:#9D9E9E}.fil11{fill:#D19563}.fil17{fill:#E31E24}.fil21{fill:#DBE285}.fil22{fill:#BBC274}.fil36{fill:#B0CB1F}.fil18{fill:#539433}.fil23{fill:#00A0E3}.fil8{fill:#008DD2}.fil9{fill:#8FA883}.fil7{fill:#ACD4DE}.fil6{fill:#ACDDA1}.fil16{fill:#BDBDBD}.fil10{fill:#CFCBC4}.fil4{fill:#EAEBD5}.fil3{fill:#ECEDD3}.fil5{fill:#EDEED6}.fil2{fill:#EDEFD4}.fil0{fill:#F0EBE2}.fil1{fill:#F1EEE9}.fil38{fill:#2B2A29;fill-rule:nonzero}.fil37{fill:#B0CB1F;fill-rule:nonzero}.fil24{fill:#00A0E3;fill-rule:nonzero;fill-opacity:0.400000}.fil26{fill:#FECC00;fill-opacity:0.501961}.fil39{fill:#F08143;fill-rule:nonzero;fill-opacity:0.501961}.fil29{fill:#748187;fill-rule:nonzero;fill-opacity:0.580392}.fil27{fill:#B1709C;fill-opacity:0.600000}.fil31{fill:#86755D;fill-rule:nonzero;fill-opacity:0.600000}.fil30{fill:black;fill-rule:nonzero;fill-opacity:0.600000}.fil32{fill:#86755D;fill-rule:nonzero;fill-opacity:0.611765}.fil25{fill:#00A0E3;fill-rule:nonzero;fill-opacity:0.701961}.fil28{fill:#AE4A84;fill-rule:nonzero;fill-opacity:0.729412}.fil33{fill:#61A375;fill-rule:nonzero;fill-opacity:0.760784}.fil34{fill:#AF9778;fill-rule:nonzero;fill-opacity:0.780392}]]>
        </style>
    </defs>
    <g id="Ebene_x0020_1" inkscape:label="Ebene 1" inkscape:groupmode="layer" transform="translate(-1817.47,-483.89995)">
        <metadata id="CorelCorpID_0Corel-Layer"/>
        <circle cx="1953.5" cy="619.84003" r="135.02" id="circle166" style="stroke:#EBECEC;stroke-width:2.02;stroke-miterlimit:22.9256;fill:#EBECEC"/>
        <g id="_2095025809408">
            <path d="m 1885.95,502.9 v 233.87 c -40.34,-23.35 -67.48,-66.97 -67.48,-116.93 0,-49.97 27.14,-93.59 67.48,-116.94 z" id="path167" style="fill:#EBECEC"/>
            <path d="m 1953.42,484.81 v 270.05 c -24.58,-0.01 -47.62,-6.6 -67.47,-18.09 V 502.9 c 19.85,-11.49 42.89,-18.07 67.47,-18.09 z" id="path168" style="fill:#EBECEC"/>
            <path d="m 2020.9,502.81 v 234.05 c -19.84,11.45 -42.85,18 -67.4,18 h -0.08 V 484.81 h 0.08 c 24.55,0 47.56,6.55 67.4,18 z" id="path169" style="stroke:#EBECEC;stroke-width:2.02;stroke-miterlimit:22.9256;fill:#FCD5A6"/>
            <path d="m 2088.37,613.63 v 12.41 c -2.14,47.41 -28.74,88.46 -67.47,110.82 V 502.81 c 38.73,22.37 65.33,63.41 67.47,110.82 z" id="path170" style="fill:#EBECEC"/>
        </g>
        <g id="_2095025809888">
            <path d="m 1979.8,554.96 c -0.16,0.26 0.87,1.71 1.41,2 0.48,0.28 2.3,0.08 2.76,-0.29 0.24,-0.17 0.39,-0.11 0.7,0.29 l 0.37,0.5 0.3,-0.63 c 0.22,-0.44 0.5,-0.66 0.91,-0.7 0.72,-0.09 0.77,0.17 0.11,0.76 -1.28,1.15 -2.89,1.48 -5.41,1.04 -0.89,-0.13 -1.13,-0.08 -2.18,0.53 l -1.17,0.67 1.09,-0.02 c 0.61,0 2.8,-0.09 4.89,-0.2 2.37,-0.1 4.2,-0.08 4.85,0.05 1.02,0.21 1.02,0.21 1.02,1.11 0,0.5 0.15,1.11 0.33,1.32 0.17,0.24 0.48,0.94 0.65,1.59 0.28,0.96 0.48,1.24 1.04,1.5 0.39,0.17 1.09,0.57 1.57,0.85 2.35,1.39 2.78,1.46 2.3,0.39 l -0.28,-0.61 0.57,0.52 c 0.67,0.66 0.95,0.46 0.56,-0.34 -0.3,-0.64 -0.32,-2.29 -0.08,-5.57 l 0.13,-1.72 3.34,0.15 c 2.31,0.11 3.35,0.09 3.35,-0.06 0,-0.39 -0.8,-0.52 -2.37,-0.35 -1.74,0.15 -2.67,0 -2.5,-0.44 0.15,-0.36 -0.78,-0.71 -2.35,-0.84 -0.82,-0.09 -1.5,-0.29 -1.95,-0.63 -0.61,-0.42 -1.05,-0.5 -2.94,-0.57 -2.59,-0.11 -5.15,0.22 -6.78,0.85 -1.37,0.5 -2.22,0.32 -3.4,-0.7 -0.39,-0.35 -0.78,-0.56 -0.84,-0.45 z" id="path171" style="fill:black;fill-rule:nonzero"/>
            <path d="m 1950.07,570.9 c -0.11,0.06 -0.33,0.58 -0.48,1.17 -0.37,1.48 -1.02,1.91 -2.98,1.96 -1.22,0.02 -1.72,0.13 -2.39,0.56 -0.48,0.29 -0.87,0.61 -0.87,0.7 0,0.24 2,-0.04 3.8,-0.52 0.83,-0.24 1.59,-0.42 1.68,-0.42 0.11,0 0.17,0.4 0.17,0.85 0,0.48 0.11,0.94 0.22,1 0.13,0.07 0.22,0.35 0.22,0.63 0,0.65 0.22,0.85 0.58,0.52 0.24,-0.19 0.33,-0.15 0.44,0.22 0.15,0.61 0.41,0.61 0.59,-0.02 l 0.13,-0.48 0.28,0.5 c 0.3,0.52 0.59,0.44 0.59,-0.22 0,-0.21 0.11,-0.39 0.21,-0.39 0.14,0 0.22,0.09 0.22,0.22 0,0.11 0.11,0.22 0.22,0.22 0.13,0 0.22,-0.22 0.22,-0.48 0,-0.65 1.04,-2.78 1.37,-2.78 0.58,0 0.98,0.58 1.41,2.06 0.48,1.59 2.57,5.48 3.13,5.79 0.48,0.26 1.26,-0.03 1.26,-0.48 0,-0.24 0.11,-0.35 0.29,-0.28 0.21,0.06 0.26,-0.5 0.19,-2.81 -0.08,-2.48 -0.04,-3 0.33,-3.74 l 0.39,-0.87 2.94,0.07 c 2.67,0.06 2.89,0.02 2.52,-0.29 -0.37,-0.28 -0.39,-0.32 -0.07,-0.32 0.2,0 0.37,-0.11 0.37,-0.24 0,-0.18 -0.63,-0.2 -2.17,-0.09 -1.94,0.13 -2.24,0.11 -2.87,-0.28 -0.39,-0.24 -1,-0.5 -1.37,-0.57 -0.35,-0.08 -1,-0.41 -1.44,-0.69 -0.78,-0.55 -0.93,-0.55 -4.85,-0.59 -2.24,-0.04 -4.15,0 -4.28,0.09 z" id="path172" style="fill:black;fill-rule:nonzero"/>
            <path d="m 1892.05,588.79 c -0.22,0.24 -0.13,0.48 0.43,1.09 0.79,0.89 1.2,0.96 2.2,0.35 0.8,-0.48 1.91,-0.59 1.91,-0.18 0,0.44 -1.63,1.68 -2.63,2.03 -0.54,0.19 -1.69,0.32 -2.93,0.32 -2,0 -2.05,0.03 -3.11,0.81 -0.61,0.45 -1.07,0.82 -1.05,0.85 0.05,0.04 5.5,-0.85 8.33,-1.35 2.7,-0.5 4.87,-0.24 4.87,0.56 0,0.22 0.29,1.03 0.65,1.79 0.7,1.45 0.59,1.41 2.72,1.54 0.48,0.04 1.09,0.2 1.37,0.35 0.29,0.15 0.66,0.22 0.81,0.15 0.17,-0.06 0.37,-0.02 0.43,0.09 0.31,0.48 0.48,0.15 0.48,-0.94 0.02,-2.72 0.2,-4.37 0.46,-4.46 0.24,-0.06 2.67,0.22 5.91,0.74 l 0.76,0.13 -0.52,-0.5 c -0.48,-0.43 -0.72,-0.47 -2.35,-0.43 -1.69,0.04 -1.85,0 -1.95,-0.41 -0.07,-0.24 -0.33,-0.48 -0.59,-0.55 -0.24,-0.06 -1.26,-0.28 -2.26,-0.52 -1.09,-0.24 -2,-0.59 -2.31,-0.87 -0.43,-0.39 -0.74,-0.46 -2.65,-0.46 -1.17,0 -3.02,0.11 -4.11,0.22 -1.17,0.15 -2.13,0.15 -2.39,0.05 -0.5,-0.22 -1.94,-0.7 -2.11,-0.7 -0.07,0 -0.24,0.13 -0.37,0.3 z" id="path173" style="fill:black;fill-rule:nonzero"/>
            <path d="m 1834.33,615.26 c -0.15,0.15 -0.97,0.24 -2.17,0.22 -1.07,-0.03 -2.11,0.02 -2.3,0.1 -0.22,0.07 -0.59,0.53 -0.81,0.96 -0.43,0.85 -0.48,0.87 -2.44,1.2 -0.65,0.11 -0.82,0.22 -0.82,0.59 0,0.34 0.08,0.41 0.5,0.3 1.35,-0.39 1.89,-0.41 1.89,-0.04 0,0.21 -0.11,0.58 -0.24,0.84 -0.2,0.35 -0.2,0.48 0,0.55 0.13,0.04 0.24,0.26 0.24,0.48 0,0.28 0.11,0.37 0.44,0.28 0.34,-0.09 0.43,0 0.43,0.37 0,0.41 0.09,0.46 0.54,0.35 0.4,-0.11 0.55,-0.05 0.55,0.17 0,0.59 0.41,0.59 0.71,-0.02 0.31,-0.57 0.33,-0.57 0.46,-0.11 0.26,0.8 0.76,0.43 0.78,-0.57 0.03,-0.19 0.35,-0.76 0.77,-1.23 l 0.76,-0.88 v 0.7 c 0,0.37 0.11,0.96 0.21,1.28 0.13,0.31 0.33,1.27 0.44,2.09 0.13,0.83 0.43,1.89 0.67,2.39 0.66,1.29 2.57,3.14 3.24,3.14 0.79,0 1.33,-0.66 1.31,-1.61 -0.02,-1.13 0.76,-5.29 1.33,-6.98 0.26,-0.79 0.52,-1.57 0.56,-1.74 0.07,-0.24 0.57,-0.29 2.63,-0.2 2.7,0.11 3.39,0.04 3.2,-0.28 -0.09,-0.11 -1.07,-0.2 -2.22,-0.2 -1.98,0 -2.17,-0.04 -4.37,-1 -1.91,-0.83 -2.57,-1.02 -3.92,-1.09 -0.89,-0.04 -1.67,-0.13 -1.73,-0.19 -0.18,-0.18 -0.37,-0.13 -0.64,0.13 z" id="path174" style="fill:black;fill-rule:nonzero"/>
            <path d="m 1858.46,624.11 c -0.05,0.09 -0.24,0.89 -0.44,1.78 -0.45,2.31 -0.34,5.27 0.26,6.46 0.26,0.5 0.59,1.59 0.72,2.42 l 0.26,1.54 -1.37,1.52 c -1.56,1.78 -1.82,1.87 -4.85,1.72 -1.91,-0.09 -2.04,-0.07 -2.98,0.54 -0.89,0.57 -0.91,0.63 -0.32,0.5 0.37,-0.08 1.98,-0.19 3.59,-0.26 1.69,-0.06 3.39,-0.26 4,-0.45 0.74,-0.24 1.37,-0.29 2.17,-0.18 0.61,0.09 1.89,0.15 2.85,0.15 0.96,-0.02 4.02,-0.04 6.81,-0.06 4.59,-0.04 5.74,-0.18 4.67,-0.5 -0.21,-0.07 -1.19,-0.11 -2.19,-0.09 -1.59,0.02 -1.85,-0.02 -2.33,-0.48 -0.33,-0.3 -0.89,-0.52 -1.5,-0.58 -1.09,-0.13 -1.18,-0.27 -0.68,-1 0.18,-0.26 0.57,-1.33 0.87,-2.33 0.31,-1.02 0.61,-2.02 0.7,-2.24 0.09,-0.24 0,-0.37 -0.24,-0.37 -0.22,0 -0.3,-0.11 -0.24,-0.22 0.09,-0.15 -0.06,-0.19 -0.48,-0.08 l -0.61,0.13 0.77,-0.66 c 0.91,-0.82 0.71,-0.89 -0.4,-0.15 -1.13,0.76 -1.26,0.68 -0.45,-0.33 0.98,-1.21 0.59,-1.39 -0.48,-0.21 -0.48,0.54 -0.76,0.76 -0.63,0.5 0.91,-1.92 0.59,-2.18 -0.48,-0.37 -0.39,0.67 -0.8,1.24 -0.89,1.26 -0.11,0.02 -0.52,-0.76 -0.94,-1.72 -0.39,-0.96 -0.93,-2.11 -1.17,-2.54 -0.24,-0.46 -0.37,-0.96 -0.28,-1.18 0.1,-0.3 0.04,-0.35 -0.44,-0.22 -0.54,0.14 -0.56,0.11 -0.45,-0.52 0.15,-0.67 -0.07,-0.85 -0.53,-0.39 -0.19,0.2 -0.26,0.13 -0.26,-0.33 0,-0.63 -0.19,-0.73 -0.61,-0.32 -0.19,0.19 -0.26,0.13 -0.26,-0.33 0,-0.48 -0.11,-0.58 -0.52,-0.58 -0.3,0 -0.59,0.06 -0.65,0.17 z m 7.7,11.13 c 0,0.31 -0.16,0.77 -0.33,1 -0.3,0.4 -0.3,0.4 -0.33,-0.17 0,-0.33 -0.11,-0.85 -0.21,-1.15 -0.13,-0.33 -0.16,-0.68 -0.09,-0.78 0.22,-0.37 0.96,0.47 0.96,1.1 z" id="path175" style="fill:black;fill-rule:nonzero"/>
            <path d="m 1957.2,627.46 c -0.65,1.74 -0.8,2.67 -0.8,4.65 0,1.7 0.08,2.18 0.58,3.26 0.4,0.87 0.61,1.77 0.68,2.88 l 0.11,1.58 -1.18,1.11 c -0.65,0.61 -1.69,1.35 -2.35,1.63 -1,0.48 -1.37,0.55 -2.78,0.46 -1.5,-0.11 -1.67,-0.07 -2.59,0.52 -1.09,0.74 -1.24,1.13 -0.35,0.96 0.33,-0.07 2.16,-0.42 4.05,-0.78 2.37,-0.48 3.78,-0.66 4.46,-0.57 3.52,0.46 4.65,0.41 6.87,-0.22 1.8,-0.5 2.65,-0.61 4.96,-0.63 1.52,-0.02 2.82,-0.11 2.91,-0.19 0.33,-0.33 -0.3,-0.46 -2.2,-0.46 -1.15,0 -2.15,-0.11 -2.32,-0.24 -0.18,-0.13 -0.57,-0.3 -0.92,-0.39 l -0.6,-0.15 0.54,-0.92 c 0.28,-0.5 0.61,-1.41 0.67,-2 0.18,-1.22 0.46,-1.82 0.96,-2.22 0.3,-0.21 0.3,-0.26 -0.07,-0.41 -0.34,-0.13 -0.32,-0.19 0.22,-0.43 l 0.63,-0.31 -0.76,0.13 c -0.41,0.07 -0.95,0.18 -1.19,0.22 -0.37,0.11 -0.35,0.04 0.1,-0.33 0.31,-0.24 0.72,-0.5 0.94,-0.58 0.2,-0.07 0.37,-0.22 0.37,-0.33 0,-0.28 -0.11,-0.26 -1.31,0.35 -0.6,0.3 -1.08,0.48 -1.08,0.41 0,-0.09 0.37,-0.48 0.82,-0.85 1.07,-0.95 0.74,-1.21 -0.39,-0.32 -0.87,0.69 -1.24,0.61 -0.43,-0.11 0.24,-0.22 0.43,-0.55 0.43,-0.74 0,-0.2 -0.52,0.19 -1.32,0.96 l -1.31,1.3 -0.52,-0.63 c -0.81,-1 -1.87,-3.74 -1.72,-4.37 0.15,-0.61 -0.06,-0.7 -0.69,-0.22 -0.64,0.48 -0.79,0.39 -0.4,-0.22 0.2,-0.3 0.29,-0.69 0.2,-0.91 -0.13,-0.35 -0.2,-0.33 -0.63,0.2 -0.57,0.71 -0.91,0.8 -0.57,0.17 0.13,-0.26 0.22,-0.72 0.18,-1.04 l -0.07,-0.59 -0.52,0.76 -0.5,0.76 0.13,-0.8 c 0.13,-0.66 0.07,-0.85 -0.28,-1.03 -0.59,-0.32 -0.59,-0.34 -0.96,0.68 z" id="path176" style="fill:black;fill-rule:nonzero"/>
            <path d="m 1905.07,632.03 c -0.13,0.63 -0.3,1.89 -0.36,2.78 -0.14,1.63 -0.14,1.63 0.65,2.57 0.8,0.95 1.3,2.21 1.11,2.76 -0.07,0.17 -0.68,0.67 -1.33,1.13 l -1.22,0.82 h -2.41 c -2.26,0 -2.48,0.05 -3.46,0.63 -0.57,0.35 -1,0.66 -0.96,0.72 0.07,0.05 0.87,-0.02 1.81,-0.15 3.35,-0.48 7.11,-0.52 8.76,-0.11 1.42,0.37 1.59,0.37 3.96,0.02 1.37,-0.21 4.07,-0.39 6.02,-0.43 2.27,-0.02 3.61,-0.13 3.79,-0.31 0.39,-0.39 -0.85,-0.58 -2,-0.28 -0.74,0.2 -1.29,0.2 -2.09,0.02 -1.5,-0.32 -3.13,-0.91 -3.13,-1.15 0,-0.09 0.24,-0.5 0.52,-0.87 0.3,-0.39 0.78,-1.39 1.11,-2.22 0.8,-2.15 0.85,-2.28 0.56,-2.28 -0.15,0 -0.19,-0.11 -0.13,-0.22 0.18,-0.28 -0.15,-0.28 -0.91,0.02 l -0.61,0.22 0.76,-0.8 c 0.76,-0.81 0.63,-0.81 -0.48,-0.05 -0.71,0.5 -0.78,0.35 -0.17,-0.41 0.24,-0.3 0.43,-0.7 0.43,-0.89 0,-0.2 -0.17,-0.11 -0.45,0.26 -0.52,0.67 -0.78,0.61 -0.41,-0.07 0.13,-0.26 0.15,-0.45 0.04,-0.45 -0.11,0 -0.65,0.69 -1.22,1.52 -0.56,0.85 -1.26,1.65 -1.56,1.8 -0.53,0.22 -0.64,0.18 -1.05,-0.32 -0.69,-0.87 -1.65,-2.48 -1.65,-2.79 0,-0.17 -0.2,-0.21 -0.54,-0.13 -0.5,0.13 -0.55,0.09 -0.42,-0.41 0.15,-0.59 -0.08,-0.72 -0.52,-0.28 -0.2,0.19 -0.26,0.11 -0.26,-0.44 0,-0.74 -0.18,-0.87 -0.63,-0.43 -0.22,0.24 -0.26,0.22 -0.24,-0.05 0.11,-0.67 -0.02,-0.87 -0.52,-0.87 -0.46,0 -0.57,0.16 -0.79,1.14 z m 8.01,5.87 c 0.3,0.3 0.35,1.17 0.06,1.37 -0.17,0.08 -0.67,-0.48 -1.19,-1.37 -0.22,-0.35 0.78,-0.35 1.13,0 z" id="path177" style="fill:black;fill-rule:nonzero"/>
            <path d="m 1991.32,648.68 c -0.15,0.26 0.39,1.4 1.07,2.18 0.58,0.69 0.65,0.72 2.15,0.69 2.2,-0.04 2.3,-0.02 2.3,0.29 0,0.43 -1.08,1.39 -2.04,1.78 -0.61,0.26 -1.37,0.35 -2.72,0.3 -1.63,-0.04 -2,0 -2.85,0.48 l -0.97,0.52 1.19,0.07 c 0.65,0.04 1.59,-0.02 2.07,-0.15 0.47,-0.11 2.06,-0.33 3.52,-0.48 2.15,-0.22 2.94,-0.22 4.24,0.02 0.87,0.15 1.7,0.37 1.83,0.46 0.13,0.11 0.56,0.08 0.98,-0.02 0.52,-0.18 1.19,-0.16 2.26,0.04 0.85,0.15 1.61,0.26 1.74,0.28 0.11,0 0.17,-0.39 0.15,-0.89 -0.11,-1.33 0.22,-1.48 3.13,-1.5 1.63,0 2.55,-0.09 2.72,-0.26 0.43,-0.44 -0.39,-0.61 -1.48,-0.33 -1.17,0.33 -2.24,0.33 -3.04,0.02 -0.33,-0.13 -1.22,-0.32 -1.98,-0.43 -0.74,-0.11 -2.05,-0.43 -2.92,-0.74 -0.85,-0.3 -1.93,-0.54 -2.39,-0.54 -0.48,0 -1.15,-0.16 -1.52,-0.35 -0.57,-0.31 -0.87,-0.31 -2.05,-0.09 -0.73,0.15 -1.5,0.18 -1.65,0.09 -0.15,-0.11 -0.43,-0.15 -0.63,-0.13 -0.17,0.02 -0.52,-0.15 -0.74,-0.39 -0.22,-0.24 -0.54,-0.44 -0.74,-0.44 -0.19,0 -0.54,-0.15 -0.76,-0.32 -0.48,-0.37 -0.72,-0.42 -0.87,-0.16 z" id="path178" style="fill:black;fill-rule:nonzero"/>
            <path d="m 2017.59,652.69 c 0.22,1.54 0.85,2.93 1.78,3.89 0.72,0.74 1.29,1.04 3.07,1.72 0.37,0.13 0.91,0.5 1.17,0.78 l 0.53,0.54 -1.26,1.22 c -1.24,1.2 -1.24,1.2 -2.4,1.09 -0.61,-0.07 -1.54,-0.24 -2.04,-0.39 -0.87,-0.27 -0.94,-0.27 -1.98,0.47 -0.61,0.42 -1.04,0.81 -0.98,0.92 0.05,0.08 0.2,0.08 0.33,0.02 0.13,-0.09 1.65,-0.22 3.41,-0.31 1.74,-0.1 3.59,-0.3 4.11,-0.45 0.81,-0.26 1.07,-0.24 2.18,0.13 1.48,0.52 3.15,0.5 5.02,-0.02 1.37,-0.37 2.04,-0.37 6.89,0.04 0.96,0.09 1.72,0.04 1.96,-0.09 0.37,-0.21 0.33,-0.26 -0.41,-0.58 -0.7,-0.29 -0.96,-0.31 -1.57,-0.09 -0.65,0.24 -0.98,0.22 -2.43,-0.22 -0.94,-0.28 -1.83,-0.54 -1.96,-0.58 -0.46,-0.11 -0.3,-0.4 0.43,-0.85 0.81,-0.5 1.68,-1.72 1.68,-2.35 0,-0.37 -0.11,-0.42 -0.98,-0.28 -0.54,0.08 -0.98,0.08 -0.98,0.02 0,-0.09 0.24,-0.44 0.55,-0.81 0.52,-0.63 0.69,-1.04 0.39,-1.04 -0.07,0 -0.46,0.39 -0.87,0.87 -0.96,1.11 -1.29,1.11 -0.72,-0.02 0.46,-0.87 0.5,-1.7 0.13,-1.79 -0.11,-0.02 -0.35,0.42 -0.54,0.98 -0.5,1.46 -0.66,1.48 -0.61,0.07 0.06,-1.76 -0.39,-1.83 -0.59,-0.07 -0.09,0.74 -0.3,1.7 -0.48,2.11 -0.17,0.41 -0.28,0.78 -0.24,0.81 0.05,0.04 0.39,0.1 0.76,0.15 0.98,0.11 1.07,0.3 0.2,0.46 -0.89,0.17 -3.46,-0.72 -4.29,-1.51 -0.86,-0.78 -4.87,-3.37 -5.26,-3.37 -0.24,0 -1.11,-0.63 -2.43,-1.8 -0.53,-0.44 -1.11,-0.81 -1.33,-0.81 -0.33,0 -0.37,0.13 -0.24,1.13 z" id="path179" style="fill:black;fill-rule:nonzero"/>
            <path d="m 2055.41,658.25 c -1.11,1.09 -2.11,2.53 -1.85,2.59 0.52,0.2 0,0.5 -0.8,0.5 -0.57,0 -0.96,0.15 -1.29,0.5 -0.26,0.28 -0.48,0.57 -0.48,0.65 0,0.26 1.37,0.15 2.29,-0.17 0.61,-0.22 0.93,-0.24 1.13,-0.07 0.19,0.16 0.37,0.16 0.63,-0.04 0.28,-0.24 0.35,-0.22 0.46,0.17 0.15,0.61 0.43,0.61 0.63,0 0.13,-0.41 0.15,-0.41 0.34,-0.1 0.29,0.54 0.55,0.45 0.79,-0.27 0.3,-0.89 0.91,-1 2.43,-0.47 0.72,0.26 1.46,0.45 1.66,0.45 0.45,0 0.95,1.33 1.21,3.16 0.39,2.84 2.24,6.41 3.33,6.41 0.65,0 1.28,-0.87 1.09,-1.5 -0.07,-0.24 0.02,-0.96 0.19,-1.57 0.2,-0.63 0.35,-1.74 0.35,-2.5 0,-0.74 0.15,-1.76 0.33,-2.26 0.17,-0.5 0.32,-1.24 0.32,-1.65 0,-0.91 0.35,-1.02 2.98,-1.04 1.09,-0.03 2.07,-0.11 2.18,-0.2 0.39,-0.41 -0.57,-0.61 -2.29,-0.48 -1.52,0.11 -1.91,0.07 -2.61,-0.3 -0.43,-0.24 -1.17,-0.48 -1.61,-0.55 -0.45,-0.04 -1.12,-0.34 -1.52,-0.63 -1.08,-0.8 -2.43,-1.02 -6.13,-1.02 -2.96,0 -3.44,0.04 -3.76,0.39 z" id="path180" style="fill:black;fill-rule:nonzero"/>
            <path d="m 2040.12,672.56 c -0.22,0.22 -0.28,0.83 -0.26,1.78 0.06,1.59 0.13,1.79 0.52,1.4 0.22,-0.22 0.33,-0.16 0.52,0.21 l 0.26,0.5 0.29,-0.65 c 0.26,-0.61 0.28,-0.63 0.35,-0.17 0.1,0.56 0.71,0.69 0.71,0.15 0,-0.17 0.11,-0.26 0.22,-0.2 0.35,0.22 0.24,1.48 -0.17,2.18 -0.68,1.11 -1.9,2.24 -2.55,2.41 -0.39,0.09 -1.22,0 -2.22,-0.24 l -1.56,-0.39 -0.92,0.63 -0.91,0.63 3.05,0.07 c 1.69,0.02 3.63,-0.02 4.3,-0.13 0.89,-0.15 1.44,-0.13 2.02,0.08 1.03,0.37 2.03,0.37 3.92,0.05 2.17,-0.37 2.5,-0.22 3.3,1.46 0.37,0.78 0.77,1.41 0.87,1.41 0.11,0 0.33,-0.2 0.53,-0.46 0.23,-0.35 0.26,-0.61 0.08,-1.11 -0.13,-0.34 -0.17,-0.69 -0.08,-0.76 0.06,-0.08 0.76,-0.02 1.52,0.11 1.69,0.33 2.52,0.33 2.52,0.04 0,-0.34 -1,-0.65 -2.15,-0.65 -1.39,0 -2.48,-0.39 -2.31,-0.82 0.07,-0.2 -0.06,-0.46 -0.32,-0.64 -0.31,-0.21 -0.4,-0.45 -0.31,-0.82 0.13,-0.54 -0.32,-0.83 -1.43,-0.85 -0.42,-0.02 -0.7,-0.3 -1.31,-1.41 -1.09,-1.9 -1.93,-2.46 -5.04,-3.29 -1.39,-0.35 -2.68,-0.71 -2.85,-0.78 -0.15,-0.04 -0.44,0.04 -0.59,0.26 z" id="path181" style="fill:black;fill-rule:nonzero"/>
        </g>
    </g>
</svg>
