<?xml version="1.0" encoding="UTF-8" standalone="no"?>
<!--Creator: CorelDRAW 2021.5-->
<svg xml:space="preserve" width="318.05542" height="318.05542" version="1.1" style="clip-rule:evenodd;fill-rule:evenodd;image-rendering:optimizeQuality;shape-rendering:geometricPrecision;text-rendering:geometricPrecision" viewBox="0 0 57.313976 57.369996" id="svg13" sodipodi:docname="map_layer_icon_legal_set.svg" xmlns:inkscape="http://www.inkscape.org/namespaces/inkscape" xmlns:sodipodi="http://sodipodi.sourceforge.net/DTD/sodipodi-0.dtd" xmlns="http://www.w3.org/2000/svg" xmlns:svg="http://www.w3.org/2000/svg">
    <sodipodi:namedview id="namedview13" pagecolor="#ffffff" bordercolor="#000000" borderopacity="0.25" inkscape:showpageshadow="2" inkscape:pageopacity="0.0" inkscape:pagecheckerboard="0" inkscape:deskcolor="#d1d1d1">
        <inkscape:page x="0" y="0" width="57.313976" height="57.369995" id="page2" margin="0" bleed="0"/>
    </sodipodi:namedview>
    <defs id="defs1">
        <style type="text/css" id="style1">
            <![CDATA[.str1{stroke:#008DD2;stroke-width:0.43;stroke-miterlimit:22.9256;stroke-dasharray:0.850000 1.280000;stroke-opacity:0.600000}.str2{stroke:#C5C6C6;stroke-width:0.43;stroke-miterlimit:22.9256}.str3{stroke:#7E71B1;stroke-width:0.43;stroke-miterlimit:22.9256;stroke-dasharray:0.850000 1.280000}.fil1{fill:none}.fil8{fill:#FEFEFE}.fil3{fill:#C5C6C6}.fil7{fill:#EDC9CB}.fil9{fill:#C5C6C6;fill-rule:nonzero}.fil2{fill:#AE4A84;fill-rule:nonzero;fill-opacity:0.729412}]]>
        </style>
    </defs>
    <g id="Ebene_x0020_1" inkscape:label="Ebene 1" inkscape:groupmode="layer" transform="translate(-69.475655,0.00499901)">
        <metadata id="CorelCorpID_0Corel-Layer"/>
        <circle cx="98.059998" cy="28.68" r="28.469999" id="circle7" style="stroke:#EBECEC;stroke-width:0.43;stroke-miterlimit:22.9256;fill:#EBECEC"/>
        <polyline points="90.03,1.36 78.47,22.85 75.95,37.68 80.99,37.54 88.55,24.32 103.05,32.31 113.66,52.5 " id="polyline9" style="stroke:#BBC274;stroke-width:0.43;stroke-miterlimit:22.9256;stroke-dasharray:0.850000 1.280000;fill:none"/>
        <g id="_2494592318144">
            <path d="m 114.22,22.72 c -0.2,-0.36 -0.11,-0.9 0.07,-1.24 0.43,-0.85 1.31,-0.87 1.95,-1.17 0.41,-0.19 0.6,-0.44 0.89,-0.6 0.09,1.01 0,1.91 -0.47,2.64 -0.28,0.43 -1.14,1.28 -2.01,0.8 0.08,-0.14 0.1,-0.15 0.23,-0.27 0.09,-0.09 0.13,-0.13 0.22,-0.22 0.44,-0.45 1.32,-1.11 1.02,-1.41 -0.39,-0.39 -1.36,1.16 -1.9,1.47 z m -3.3,-1.06 c -0.88,0.48 -1.75,-0.39 -2.03,-0.84 -0.49,-0.79 -0.55,-1.55 -0.46,-2.61 0.32,0.18 0.5,0.43 0.94,0.63 0.37,0.16 0.8,0.24 1.14,0.41 0.51,0.26 1.31,1.11 0.84,1.97 l -0.49,-0.44 c -0.45,-0.45 -1.11,-1.33 -1.41,-1.03 -0.39,0.39 1.17,1.37 1.47,1.91 z m 1.58,-3.15 c -0.33,-0.03 -0.64,-0.44 -0.79,-0.77 -0.5,-1.15 0.72,-3.15 1.07,-3.47 0.37,0.32 1.59,2.35 1.06,3.52 -0.14,0.3 -0.45,0.69 -0.77,0.72 -0.01,-0.51 -0.01,-1.02 -0.01,-1.53 0,-0.34 0.16,-1.26 -0.28,-1.26 -0.44,0 -0.28,0.98 -0.28,1.33 0,0.48 0.01,0.97 0,1.46 z m 0.57,0.64 c 0.51,-0.12 1.01,-0.63 1.22,-1.04 0.32,-0.61 0.33,-1.15 0.14,-1.84 -0.17,-0.66 -1.2,-2.78 -1.65,-2.78 -0.44,0 -1.47,2.12 -1.65,2.78 -0.17,0.66 -0.13,1.34 0.17,1.89 0.21,0.39 0.7,0.88 1.2,0.99 v 3.21 c -0.2,-0.11 -0.55,-0.48 -0.69,-0.65 0.47,-1.33 -0.02,-2.41 -0.96,-2.92 -0.49,-0.26 -1.03,-0.3 -1.51,-0.61 -0.6,-0.37 -0.84,-1.03 -1.17,-0.89 -0.79,0.35 -0.56,6.14 3.24,4.82 0.27,0.23 1.08,0.93 1.1,1.29 0.04,0.77 -0.02,1.65 -0.01,2.43 0,0.71 0.48,0.64 0.56,0.25 0.05,-0.25 -0.02,-0.88 0,-1.18 0.02,-0.36 0.31,-0.51 0.51,-0.71 0.21,-0.21 0.38,-0.4 0.59,-0.58 2.19,0.75 3.47,-1.04 3.57,-2.89 0.04,-0.59 0.03,-1.61 -0.34,-1.94 -0.38,-0.04 -0.42,0.24 -0.65,0.48 -0.19,0.19 -0.34,0.32 -0.59,0.47 -0.48,0.27 -1.01,0.31 -1.51,0.6 -0.92,0.52 -1.33,1.61 -0.88,2.87 -0.11,0.14 -0.2,0.22 -0.33,0.35 l -0.27,0.25 z" id="path9" style="fill:#98A27F;fill-opacity:0.501961"/>
            <path d="m 110.92,21.66 c -0.3,-0.54 -1.86,-1.52 -1.47,-1.91 0.3,-0.3 0.96,0.58 1.41,1.03 l 0.49,0.44 c 0.47,-0.86 -0.33,-1.71 -0.84,-1.97 -0.34,-0.17 -0.77,-0.25 -1.14,-0.41 -0.44,-0.2 -0.62,-0.45 -0.94,-0.63 -0.09,1.06 -0.03,1.82 0.46,2.61 0.28,0.45 1.15,1.32 2.03,0.84 z" id="path10" style="fill:#B9C599;fill-opacity:0.501961"/>
            <path d="m 112.5,18.51 c 0.01,-0.49 0,-0.98 0,-1.46 0,-0.35 -0.16,-1.33 0.28,-1.33 0.44,0 0.28,0.92 0.28,1.26 0,0.51 0,1.02 0.01,1.53 0.32,-0.03 0.63,-0.42 0.77,-0.72 0.53,-1.17 -0.69,-3.2 -1.06,-3.52 -0.35,0.32 -1.57,2.32 -1.07,3.47 0.15,0.33 0.46,0.74 0.79,0.77 z" id="path11" style="fill:#B9C599;fill-opacity:0.501961"/>
            <path d="m 114.22,22.72 c 0.54,-0.31 1.51,-1.86 1.9,-1.47 0.3,0.3 -0.58,0.96 -1.02,1.41 -0.09,0.09 -0.13,0.13 -0.22,0.22 -0.13,0.12 -0.15,0.13 -0.23,0.27 0.87,0.48 1.73,-0.37 2.01,-0.8 0.47,-0.73 0.56,-1.63 0.47,-2.64 -0.29,0.16 -0.48,0.41 -0.89,0.6 -0.64,0.3 -1.52,0.32 -1.95,1.17 -0.18,0.34 -0.27,0.88 -0.07,1.24 z" id="path12" style="fill:#B9C599;fill-opacity:0.501961"/>
        </g>
    </g>
</svg>
