<?xml version="1.0" encoding="UTF-8" standalone="no"?>
<!--Creator: CorelDRAW 2021.5-->
<svg xml:space="preserve" width="318.2926" height="318.29263" version="1.1" style="clip-rule:evenodd;fill-rule:evenodd;image-rendering:optimizeQuality;shape-rendering:geometricPrecision;text-rendering:geometricPrecision" viewBox="0 0 272.06001 272.01288" id="svg196" sodipodi:docname="map_layer_icons.svg" xmlns:inkscape="http://www.inkscape.org/namespaces/inkscape" xmlns:sodipodi="http://sodipodi.sourceforge.net/DTD/sodipodi-0.dtd" xmlns="http://www.w3.org/2000/svg" xmlns:svg="http://www.w3.org/2000/svg">
    <sodipodi:namedview id="namedview196" pagecolor="#ffffff" bordercolor="#000000" borderopacity="0.25" inkscape:showpageshadow="2" inkscape:pageopacity="0.0" inkscape:pagecheckerboard="0" inkscape:deskcolor="#d1d1d1">
        <inkscape:page x="0" y="0" width="272.06" height="272.01288" id="page2" margin="0" bleed="0"/>
    </sodipodi:namedview>
    <defs id="defs1">
        <style type="text/css" id="style1">
            <![CDATA[.str5{stroke:#AF9778;stroke-width:1.42;stroke-miterlimit:22.9256;stroke-opacity:0.250980}.str6{stroke:#5B5A50;stroke-width:1.66;stroke-miterlimit:22.9256;stroke-opacity:0.349020}.str9{stroke:#B0CB1F;stroke-width:2.02;stroke-miterlimit:22.9256;stroke-opacity:0.439216}.str10{stroke:#F08143;stroke-width:1.42;stroke-miterlimit:22.9256;stroke-opacity:0.501961}.str11{stroke:#EBECEC;stroke-width:2.02;stroke-miterlimit:22.9256;stroke-opacity:0.501961}.str3{stroke:#008DD2;stroke-width:1.42;stroke-miterlimit:22.9256;stroke-opacity:0.580392}.str4{stroke:#434242;stroke-width:1.42;stroke-miterlimit:22.9256;stroke-opacity:0.600000}.str2{stroke:#BD77A1;stroke-width:2.02;stroke-miterlimit:22.9256;stroke-opacity:0.600000}.str7{stroke:#5CA595;stroke-width:2.02;stroke-miterlimit:22.9256;stroke-opacity:0.639216}.str8{stroke:#AF9778;stroke-width:1.42;stroke-miterlimit:22.9256;stroke-opacity:0.780392}.fil35{fill:none;fill-rule:nonzero}.fil37{fill:none;fill-rule:nonzero}.fil47{fill:none;fill-rule:nonzero}.fil31{fill:none;fill-rule:nonzero}.fil28{fill:none}.fil33{fill:none;fill-rule:nonzero}.fil38{fill:none;fill-rule:nonzero}.fil40{fill:none;fill-rule:nonzero}.fil14{fill:#D9DADA}.fil15{fill:#C5C6C6}.fil19{fill:#B2B3B3}.fil12{fill:#9D9E9E}.fil11{fill:#D19563}.fil17{fill:#E31E24}.fil18{fill:#539433}.fil23{fill:#00A0E3}.fil8{fill:#008DD2}.fil9{fill:#8FA883}.fil7{fill:#ACD4DE}.fil6{fill:#ACDDA1}.fil16{fill:#BDBDBD}.fil10{fill:#CFCBC4}.fil4{fill:#EAEBD5}.fil3{fill:#ECEDD3}.fil5{fill:#EDEED6}.fil2{fill:#EDEFD4}.fil0{fill:#F0EBE2}.fil1{fill:#F1EEE9}.fil45{fill:#2B2A29;fill-rule:nonzero}.fil42{fill:black;fill-rule:nonzero}.fil46{fill:#F08143;fill-rule:nonzero;fill-opacity:0.090196}.fil34{fill:#86755D;fill-rule:nonzero;fill-opacity:0.101961}.fil36{fill:#FECC00;fill-rule:nonzero;fill-opacity:0.149020}.fil32{fill:black;fill-rule:nonzero;fill-opacity:0.149020}.fil30{fill:#748187;fill-rule:nonzero;fill-opacity:0.168627}.fil39{fill:#AF9778;fill-rule:nonzero;fill-opacity:0.211765}.fil20{fill:#BBC274;fill-opacity:0.258824}.fil22{fill:#BBC274;fill-opacity:0.360784}.fil24{fill:#00A0E3;fill-rule:nonzero;fill-opacity:0.400000}.fil43{fill:#B0CB1F;fill-opacity:0.439216}.fil44{fill:#B0CB1F;fill-rule:nonzero;fill-opacity:0.439216}.fil48{fill:#FCD5A6;fill-opacity:0.501961}.fil41{fill:#DBE285;fill-opacity:0.501961}.fil21{fill:#DBE285;fill-opacity:0.701961}.fil25{fill:#00A0E3;fill-rule:nonzero;fill-opacity:0.701961}.fil29{fill:#AE4A84;fill-rule:nonzero;fill-opacity:0.729412}]]>
        </style>
    </defs>
    <g id="Ebene_x0020_1" inkscape:label="Ebene 1" inkscape:groupmode="layer" transform="translate(-605.82995,-72.42998)">
        <metadata id="CorelCorpID_0Corel-Layer"/>
        <g id="_2494326203744" inkscape:export-filename="solar_map.svg" inkscape:export-xdpi="96" inkscape:export-ydpi="96">
            <circle cx="741.85999" cy="208.36" r="135.02" id="circle91" style="stroke:#EBECEC;stroke-width:2.02;stroke-miterlimit:22.9256;fill:#EBECEC"/>
            <path d="m 609.26,182.81 c 10.35,-54.06 52.94,-96.67 107,-107.04 -1.25,58.54 -48.46,105.77 -107,107.04 z" id="path92" style="stroke:#FFED00;stroke-width:2.02;stroke-miterlimit:22.9256;stroke-opacity:0.501961;fill:none"/>
            <path d="m 856.66,137.26 c 1.46,2.36 2.86,4.77 4.18,7.23 L 670.76,93.56 c 2.36,-1.47 4.76,-2.86 7.21,-4.18 z" id="path93" style="fill:#FECC00;fill-opacity:0.501961"/>
            <path d="m 875.83,225.27 c -0.27,2.11 -0.58,4.2 -0.94,6.27 L 655.28,104.75 c 1.62,-1.35 3.27,-2.67 4.95,-3.95 z" id="path94" style="fill:#FECC00;fill-opacity:0.501961"/>
            <path d="m 839.37,301.74 c -1.36,1.42 -2.75,2.82 -4.17,4.18 L 644.3,115.01 c 1.36,-1.42 2.75,-2.81 4.17,-4.17 z" id="path95" style="fill:#FECC00;fill-opacity:0.501961"/>
            <path d="m 764.98,341.4 c -2.07,0.36 -4.16,0.67 -6.27,0.94 L 634.26,126.78 c 1.28,-1.68 2.59,-3.33 3.95,-4.96 z" id="path96" style="fill:#FECC00;fill-opacity:0.501961"/>
            <path d="m 678.55,327.64 c -2.45,-1.3 -4.85,-2.67 -7.21,-4.12 L 623.2,143.87 c 1.32,-2.43 2.73,-4.81 4.19,-7.15 z" id="path97" style="fill:#FECC00;fill-opacity:0.501961"/>
        </g>
        <g id="_2494746409840">
            <circle cx="741.85999" cy="208.36" r="135.02" id="circle195" style="stroke:#EBECEC;stroke-width:2.02;stroke-miterlimit:22.9256;fill:#EBECEC"/>
            <path d="m 678.55,327.64 c -2.45,-1.3 -4.85,-2.67 -7.21,-4.12 L 632.81,179.73 c 1.92,-0.47 3.82,-0.99 5.69,-1.55 z m 86.43,13.76 c -2.07,0.36 -4.16,0.67 -6.27,0.94 L 658.99,169.62 c 1.73,-0.94 3.44,-1.92 5.11,-2.95 z m 74.39,-39.66 c -1.36,1.42 -2.75,2.82 -4.17,4.18 L 682.11,152.83 c 1.43,-1.35 2.82,-2.74 4.18,-4.17 z m 36.46,-76.47 c -0.27,2.11 -0.58,4.2 -0.94,6.27 L 700.13,130.65 c 1.03,-1.68 2.01,-3.38 2.95,-5.11 z m -19.17,-88.01 c 1.46,2.36 2.86,4.77 4.18,7.23 L 711.78,104.55 c 0.56,-1.88 1.06,-3.78 1.52,-5.7 z" id="path196" style="fill:#FECC00;fill-opacity:0.501961"/>
        </g>
    </g>
</svg>
