<?xml version="1.0" encoding="UTF-8" standalone="no"?>
<!--Creator: CorelDRAW 2021.5-->
<svg xml:space="preserve" width="318.20886" height="318.20883" version="1.1" style="clip-rule:evenodd;fill-rule:evenodd;image-rendering:optimizeQuality;shape-rendering:geometricPrecision;text-rendering:geometricPrecision" viewBox="0 0 272.26 272.13691" id="svg196" sodipodi:docname="icons_table_ui.svg" xmlns:inkscape="http://www.inkscape.org/namespaces/inkscape" xmlns:sodipodi="http://sodipodi.sourceforge.net/DTD/sodipodi-0.dtd" xmlns="http://www.w3.org/2000/svg" xmlns:svg="http://www.w3.org/2000/svg">
    <sodipodi:namedview id="namedview196" pagecolor="#ffffff" bordercolor="#000000" borderopacity="0.25" inkscape:showpageshadow="2" inkscape:pageopacity="0.0" inkscape:pagecheckerboard="0" inkscape:deskcolor="#d1d1d1">
        <inkscape:page x="0" y="0" width="272.26001" height="272.1369" id="page2" margin="0" bleed="0"/>
    </sodipodi:namedview>
    <defs id="defs1">
        <style type="text/css" id="style1">
            <![CDATA[.str5{stroke:#AF9778;stroke-width:1.43;stroke-miterlimit:22.9256;stroke-opacity:0.250980}.str6{stroke:#5B5A50;stroke-width:1.66;stroke-miterlimit:22.9256;stroke-opacity:0.349020}.str9{stroke:#F08143;stroke-width:1.43;stroke-miterlimit:22.9256;stroke-opacity:0.501961}.str10{stroke:#EBECEC;stroke-width:2.02;stroke-miterlimit:22.9256;stroke-opacity:0.501961}.str3{stroke:#008DD2;stroke-width:1.43;stroke-miterlimit:22.9256;stroke-opacity:0.580392}.str4{stroke:#C5C6C6;stroke-width:1.43;stroke-miterlimit:22.9256;stroke-opacity:0.600000}.str2{stroke:#BD77A1;stroke-width:2.02;stroke-miterlimit:22.9256;stroke-dasharray:4.040000 6.060000;stroke-opacity:0.600000}.str7{stroke:#5CA595;stroke-width:2.02;stroke-miterlimit:22.9256;stroke-opacity:0.639216}.str8{stroke:#AF9778;stroke-width:1.43;stroke-miterlimit:22.9256;stroke-opacity:0.780392}.fil35{fill:none;fill-rule:nonzero}.fil37{fill:none;fill-rule:nonzero}.fil48{fill:none;fill-rule:nonzero}.fil28{fill:none}.fil38{fill:none;fill-rule:nonzero}.fil40{fill:none;fill-rule:nonzero}.fil14{fill:#D9DADA}.fil15{fill:#C5C6C6}.fil19{fill:#B2B3B3}.fil12{fill:#9D9E9E}.fil11{fill:#D19563}.fil17{fill:#E31E24}.fil18{fill:#539433}.fil46{fill:#00A0E3}.fil8{fill:#008DD2}.fil9{fill:#8FA883}.fil7{fill:#ACD4DE}.fil6{fill:#ACDDA1}.fil16{fill:#BDBDBD}.fil10{fill:#CFCBC4}.fil4{fill:#EAEBD5}.fil3{fill:#ECEDD3}.fil5{fill:#EDEED6}.fil2{fill:#EDEFD4}.fil0{fill:#F0EBE2}.fil1{fill:#F1EEE9}.fil23{fill:#A8DAF0}.fil45{fill:#2B2A29;fill-rule:nonzero}.fil42{fill:black;fill-rule:nonzero}.fil47{fill:#F08143;fill-rule:nonzero;fill-opacity:0.090196}.fil34{fill:#86755D;fill-rule:nonzero;fill-opacity:0.101961}.fil36{fill:#FECC00;fill-rule:nonzero;fill-opacity:0.149020}.fil32{fill:black;fill-rule:nonzero;fill-opacity:0.149020}.fil30{fill:#748187;fill-rule:nonzero;fill-opacity:0.168627}.fil39{fill:#AF9778;fill-rule:nonzero;fill-opacity:0.211765}.fil20{fill:#BBC274;fill-opacity:0.258824}.fil22{fill:#BBC274;fill-opacity:0.360784}.fil24{fill:#A7D5E8;fill-rule:nonzero;fill-opacity:0.400000}.fil43{fill:#CDD957;fill-opacity:0.439216}.fil44{fill:#E7EAA2;fill-rule:nonzero;fill-opacity:0.439216}.fil49{fill:#FCD5A6;fill-opacity:0.501961}.fil41{fill:#DBE285;fill-opacity:0.501961}.fil31{fill:#D9DADA;fill-rule:nonzero;fill-opacity:0.580392}.fil33{fill:#EBECEC;fill-rule:nonzero;fill-opacity:0.600000}.fil21{fill:#DBE285;fill-opacity:0.701961}.fil25{fill:#8BC9E3;fill-rule:nonzero;fill-opacity:0.701961}.fil29{fill:#ECC0DB;fill-rule:nonzero;fill-opacity:0.729412}]]>
        </style>
    </defs>
    <g id="Ebene_x0020_1" inkscape:label="Ebene 1" inkscape:groupmode="layer" transform="translate(-606.26002,-72.641058)">
        <metadata id="CorelCorpID_0Corel-Layer"/>
        <g id="_2615017426704">
            <circle cx="742.39001" cy="208.50999" r="135.12" id="circle91" style="stroke:#EBECEC;stroke-width:2.02;stroke-miterlimit:22.9256;fill:#EBECEC"/>
            <path d="M 609.69,182.94 C 620.06,128.84 662.68,86.2 716.78,75.82 715.52,134.4 668.27,181.66 609.69,182.94 Z" id="path92" style="stroke:#FFED00;stroke-width:2.02;stroke-miterlimit:22.9256;stroke-opacity:0.501961;fill:none"/>
            <path d="m 857.27,137.36 c 1.47,2.36 2.86,4.77 4.19,7.23 L 671.24,93.62 c 2.36,-1.46 4.76,-2.86 7.21,-4.18 z" id="path93" style="fill:#FECC00;fill-opacity:0.501961"/>
            <path d="m 876.45,225.43 c -0.26,2.11 -0.58,4.2 -0.94,6.28 L 655.74,104.83 c 1.63,-1.36 3.28,-2.68 4.96,-3.96 z" id="path94" style="fill:#FECC00;fill-opacity:0.501961"/>
            <path d="m 839.97,301.96 c -1.36,1.42 -2.75,2.81 -4.17,4.17 L 644.76,115.09 c 1.36,-1.42 2.75,-2.81 4.17,-4.17 z" id="path95" style="fill:#FECC00;fill-opacity:0.501961"/>
            <path d="m 765.53,341.65 c -2.08,0.35 -4.17,0.67 -6.28,0.93 L 634.71,126.87 c 1.28,-1.68 2.6,-3.34 3.96,-4.96 z" id="path96" style="fill:#FECC00;fill-opacity:0.501961"/>
            <path d="m 679.04,327.88 c -2.46,-1.31 -4.86,-2.68 -7.22,-4.13 L 623.65,143.97 c 1.32,-2.43 2.72,-4.81 4.19,-7.15 z" id="path97" style="fill:#FECC00;fill-opacity:0.501961"/>
        </g>
        <g id="_2615018908640">
            <circle cx="742.39001" cy="208.50999" r="135.12" id="circle195" style="stroke:#EBECEC;stroke-width:2.02;stroke-miterlimit:22.9256;fill:#EBECEC"/>
            <path d="m 679.04,327.88 c -2.46,-1.31 -4.86,-2.68 -7.22,-4.13 L 633.26,179.86 c 1.92,-0.47 3.82,-0.99 5.7,-1.55 z m 86.49,13.77 c -2.08,0.35 -4.17,0.67 -6.28,0.93 L 659.46,169.74 c 1.74,-0.94 3.44,-1.92 5.12,-2.95 z m 74.44,-39.69 c -1.36,1.42 -2.75,2.81 -4.17,4.17 L 682.6,152.94 c 1.43,-1.36 2.82,-2.75 4.18,-4.18 z m 36.48,-76.53 c -0.26,2.11 -0.58,4.2 -0.94,6.28 L 700.63,130.74 c 1.03,-1.67 2.01,-3.38 2.95,-5.11 z m -19.18,-88.07 c 1.47,2.36 2.86,4.77 4.19,7.23 L 712.29,104.62 c 0.56,-1.88 1.06,-3.78 1.52,-5.7 z" id="path196" style="fill:#FEDF5F;fill-opacity:0.501961"/>
        </g>
    </g>
</svg>
