<?xml version="1.0" encoding="UTF-8" standalone="no"?>
<!--Creator: CorelDRAW 2021.5-->
<svg xml:space="preserve" width="315.92929" height="315.92935" version="1.1" style="clip-rule:evenodd;fill-rule:evenodd;image-rendering:optimizeQuality;shape-rendering:geometricPrecision;text-rendering:geometricPrecision" viewBox="0 0 270.03997 269.99322" id="svg182" xmlns="http://www.w3.org/2000/svg" xmlns:svg="http://www.w3.org/2000/svg">
    <defs id="defs1">
        <style type="text/css" id="style1">
            <![CDATA[.str1{stroke:#B0CB1F;stroke-width:2.02;stroke-miterlimit:22.9256}.fil14{fill:#D9DADA}.fil15{fill:#C5C6C6}.fil19{fill:#B2B3B3}.fil12{fill:#9D9E9E}.fil20{fill:#FCD5A6}.fil11{fill:#D19563}.fil17{fill:#E31E24}.fil21{fill:#DBE285}.fil22{fill:#BBC274}.fil36{fill:#B0CB1F}.fil18{fill:#539433}.fil23{fill:#00A0E3}.fil8{fill:#008DD2}.fil9{fill:#8FA883}.fil7{fill:#ACD4DE}.fil6{fill:#ACDDA1}.fil16{fill:#BDBDBD}.fil10{fill:#CFCBC4}.fil4{fill:#EAEBD5}.fil3{fill:#ECEDD3}.fil5{fill:#EDEED6}.fil2{fill:#EDEFD4}.fil0{fill:#F0EBE2}.fil1{fill:#F1EEE9}.fil38{fill:#2B2A29;fill-rule:nonzero}.fil37{fill:#B0CB1F;fill-rule:nonzero}.fil35{fill:black;fill-rule:nonzero}.fil24{fill:#00A0E3;fill-rule:nonzero;fill-opacity:0.400000}.fil39{fill:#F08143;fill-rule:nonzero;fill-opacity:0.501961}.fil29{fill:#748187;fill-rule:nonzero;fill-opacity:0.580392}.fil27{fill:#B1709C;fill-opacity:0.600000}.fil31{fill:#86755D;fill-rule:nonzero;fill-opacity:0.600000}.fil30{fill:black;fill-rule:nonzero;fill-opacity:0.600000}.fil32{fill:#86755D;fill-rule:nonzero;fill-opacity:0.611765}.fil25{fill:#00A0E3;fill-rule:nonzero;fill-opacity:0.701961}.fil28{fill:#AE4A84;fill-rule:nonzero;fill-opacity:0.729412}.fil33{fill:#61A375;fill-rule:nonzero;fill-opacity:0.760784}.fil34{fill:#AF9778;fill-rule:nonzero;fill-opacity:0.780392}]]>
        </style>
    </defs>
    <g id="Ebene_x0020_1" transform="translate(-606.83997,-73.439982)">
        <metadata id="CorelCorpID_0Corel-Layer"/>
        <g id="_2130172993776" style="stroke:none">
            <circle cx="741.85999" cy="208.36" r="135.02" id="circle91" style="stroke-miterlimit:22.9256;fill:#EBECEC;stroke:none;stroke-width:0;stroke-dasharray:none"/>
            <path d="m 609.26,182.81 c 10.35,-54.06 52.94,-96.67 107,-107.04 -1.25,58.54 -48.46,105.77 -107,107.04 z" id="path92" style="fill:#FECC00;fill-opacity:0.501961;stroke:none"/>
            <path d="m 856.66,137.26 c 1.46,2.36 2.86,4.77 4.18,7.23 L 670.76,93.56 c 2.36,-1.47 4.76,-2.86 7.21,-4.18 z" id="path93" style="fill:#FECC00;fill-opacity:0.501961;stroke:none"/>
            <path d="m 875.83,225.27 c -0.27,2.11 -0.58,4.2 -0.94,6.27 L 655.28,104.75 c 1.62,-1.35 3.27,-2.67 4.95,-3.95 z" id="path94" style="fill:#FECC00;fill-opacity:0.501961;stroke:none"/>
            <path d="m 839.37,301.74 c -1.36,1.42 -2.75,2.82 -4.17,4.18 L 644.3,115.01 c 1.36,-1.42 2.75,-2.81 4.17,-4.17 z" id="path95" style="fill:#FECC00;fill-opacity:0.501961;stroke:none"/>
            <path d="m 764.98,341.4 c -2.07,0.36 -4.16,0.67 -6.27,0.94 L 634.26,126.78 c 1.28,-1.68 2.59,-3.33 3.95,-4.96 z" id="path96" style="fill:#FECC00;fill-opacity:0.501961;stroke:none"/>
            <path d="m 678.55,327.64 c -2.45,-1.3 -4.85,-2.67 -7.21,-4.12 L 623.2,143.87 c 1.32,-2.43 2.73,-4.81 4.19,-7.15 z" id="path97" style="fill:#FECC00;fill-opacity:0.501961;stroke:none"/>
        </g>
    </g>
</svg>
