<?xml version="1.0" encoding="UTF-8" standalone="no"?>
<!--Creator: CorelDRAW-->

<svg
   xml:space="preserve"
   width="5mm"
   height="5mm"
   version="1.1"
   style="shape-rendering:geometricPrecision;text-rendering:geometricPrecision;image-rendering:optimizeQuality;fill-rule:evenodd;clip-rule:evenodd"
   viewBox="0 0 51.76 51.76"
   id="svg1"
   sodipodi:docname="table_hydrodiv.svg"
   inkscape:version="1.4.2 (ebf0e940d0, 2025-05-08)"
   inkscape:export-filename="table_map.png"
   inkscape:export-xdpi="96"
   inkscape:export-ydpi="96"
   xmlns:inkscape="http://www.inkscape.org/namespaces/inkscape"
   xmlns:sodipodi="http://sodipodi.sourceforge.net/DTD/sodipodi-0.dtd"
   xmlns="http://www.w3.org/2000/svg"
   xmlns:svg="http://www.w3.org/2000/svg"><defs
   id="defs1"><style
     type="text/css"
     id="style1-7">
   <![CDATA[
    .str0 {stroke:black;stroke-width:0.49;stroke-miterlimit:22.9256}
    .fil16 {fill:black}
    .fil26 {fill:#695B4E}
    .fil15 {fill:white}
    .fil9 {fill:#EBECEC;fill-rule:nonzero}
    .fil12 {fill:#D9DADA;fill-rule:nonzero}
    .fil18 {fill:#92AAAC;fill-rule:nonzero}
    .fil17 {fill:#717780;fill-rule:nonzero}
    .fil25 {fill:black;fill-rule:nonzero}
    .fil11 {fill:black;fill-rule:nonzero}
    .fil20 {fill:#020202;fill-rule:nonzero}
    .fil21 {fill:#1D1E1F;fill-rule:nonzero}
    .fil13 {fill:#333333;fill-rule:nonzero}
    .fil2 {fill:#3B3A3C;fill-rule:nonzero}
    .fil7 {fill:#434A54;fill-rule:nonzero}
    .fil0 {fill:#57555C;fill-rule:nonzero}
    .fil8 {fill:#656D78;fill-rule:nonzero}
    .fil1 {fill:#787780;fill-rule:nonzero}
    .fil19 {fill:#857C76;fill-rule:nonzero}
    .fil23 {fill:#8D817E;fill-rule:nonzero}
    .fil10 {fill:#990000;fill-rule:nonzero}
    .fil3 {fill:#AAB2BC;fill-rule:nonzero}
    .fil22 {fill:#C4150F;fill-rule:nonzero}
    .fil6 {fill:#CCD1D9;fill-rule:nonzero}
    .fil24 {fill:#CECFCF;fill-rule:nonzero}
    .fil4 {fill:#F6BB42;fill-rule:nonzero}
    .fil5 {fill:#FFCE54;fill-rule:nonzero}
    .fil14 {fill:white;fill-rule:nonzero}
   ]]>
  </style></defs><sodipodi:namedview
   id="namedview1"
   pagecolor="#ffffff"
   bordercolor="#000000"
   borderopacity="0.25"
   inkscape:showpageshadow="2"
   inkscape:pageopacity="0.0"
   inkscape:pagecheckerboard="0"
   inkscape:deskcolor="#d1d1d1"
   inkscape:document-units="mm"
   inkscape:zoom="16"
   inkscape:cx="-20.375"
   inkscape:cy="25.65625"
   inkscape:window-width="2560"
   inkscape:window-height="1369"
   inkscape:window-x="0"
   inkscape:window-y="0"
   inkscape:window-maximized="1"
   inkscape:current-layer="Ebene_x0020_1-4"
   showgrid="true"><inkscape:grid
     id="grid4"
     units="mm"
     originx="0"
     originy="0"
     spacingx="10.352"
     spacingy="10.352"
     empcolor="#0099e5"
     empopacity="0.30196078"
     color="#0099e5"
     opacity="0.14902"
     empspacing="5"
     enabled="true"
     visible="true" /></sodipodi:namedview>
    <g
   id="Ebene_x0020_1"
   inkscape:label="Ebene 1">
        <metadata
   id="CorelCorpID_0Corel-Layer" />
        <circle
   cx="25.88"
   cy="25.88"
   r="25.88"
   style="fill:#E6E6E6"
   id="circle1" />
    <g
   style="clip-rule:evenodd;fill:#e6e6e6;fill-opacity:1;fill-rule:evenodd;stroke:#000000;stroke-width:7.69027;stroke-dasharray:none;stroke-opacity:0.17;image-rendering:optimizeQuality;shape-rendering:geometricPrecision;text-rendering:geometricPrecision"
   id="g1"
   transform="matrix(0.12489046,0,-0.08148477,0.12489046,27.428773,27.054229)"><g
     id="Ebene_x0020_1-3"
     style="fill:#e6e6e6;fill-opacity:1;stroke:#000000;stroke-width:7.69027;stroke-dasharray:none;stroke-opacity:0.17">
        <metadata
   id="CorelCorpID_0Corel-Layer-6" />
        
    <g
   style="clip-rule:evenodd;fill-rule:evenodd;image-rendering:optimizeQuality;shape-rendering:geometricPrecision;text-rendering:geometricPrecision"
   id="g2"
   transform="matrix(0.0136832,0,0,0.0136832,9.6448887,-6.4888333)"><g
     id="Ebene_x0020_1-7">
        <metadata
   id="CorelCorpID_0Corel-Layer-5" />
        <g
   id="_105553249722496">
            
            <polygon
   points="11151.69,445.82 11139.11,1161.24 7766.12,5286.24 403.61,3191.66 295.17,270.32 "
   style="fill:#b5d094;fill-opacity:0.5;stroke:none;stroke-width:412.15;stroke-linejoin:round;stroke-dasharray:none;stroke-opacity:1"
   id="polygon2"
   transform="matrix(0.9175247,0,0,0.9175247,472.04162,469.34055)" />
            <polygon
   points="340.92,11111.04 311.7,3885.56 4720.95,5140.89 3161.3,11110 "
   style="fill:#b3b3b3;fill-opacity:0.5;stroke:none;stroke-width:412.15;stroke-linejoin:round;stroke-dasharray:none;stroke-opacity:1"
   id="polygon3"
   transform="matrix(0.9175247,0,0,0.9175247,472.04162,469.34055)" />
            <polygon
   points="3819.22,11019.86 5278.65,5361.41 8759.35,6454.03 8109.95,11089.62 "
   style="fill:#e6d1be;fill-opacity:0.5;stroke:none;stroke-width:412.15;stroke-linejoin:round;stroke-dasharray:none;stroke-opacity:1"
   id="polygon4"
   transform="matrix(0.9175247,0,0,0.9175247,472.04162,469.34055)" />
            <polygon
   points="11097.42,7041.77 11115.2,11092.33 8709.13,11083.18 9465.72,6548.74 "
   style="fill:#93d0e4;fill-opacity:0.5;stroke:none;stroke-width:382.176;stroke-linejoin:round;stroke-dasharray:none;stroke-opacity:1"
   id="polygon5"
   transform="matrix(0.9175247,0,0,0.9175247,472.04162,469.34054)" />
            <polygon
   points="11099.81,6258.46 8601.73,5687.35 11062.17,2438.4 "
   style="fill:#808080;fill-opacity:0.5;stroke:none;stroke-width:412.15;stroke-linejoin:round;stroke-dasharray:none;stroke-opacity:1"
   id="polygon6"
   transform="matrix(0.9175247,0,0,0.9175247,472.04162,469.34055)" />
        <g
   style="clip-rule:evenodd;fill-rule:evenodd;image-rendering:optimizeQuality;shape-rendering:geometricPrecision;text-rendering:geometricPrecision"
   id="g6"
   transform="matrix(585.17136,0,381.795,585.17136,12452.437,-10177.256)"><g
     id="Ebene_x0020_1-68"
     inkscape:label="Ebene 1">
        <metadata
   id="CorelCorpID_0Corel-Layer-84" />
        
    <g
   style="clip-rule:evenodd;fill-rule:evenodd;image-rendering:optimizeQuality;shape-rendering:geometricPrecision;text-rendering:geometricPrecision"
   id="g7"
   transform="matrix(0.82996182,0,0,0.82996182,-23.227746,-34.674125)"><g
     id="Ebene_x0020_1-4"
     inkscape:label="Ebene 1">
        <metadata
   id="CorelCorpID_0Corel-Layer-7" />
        
    <path
   style="baseline-shift:baseline;clip-rule:nonzero;display:inline;overflow:visible;opacity:1;fill:#bcdbe5;fill-rule:nonzero;stroke:#a1a1a1;stroke-width:0.498914;stroke-linecap:round;stroke-linejoin:round;stroke-dasharray:none;stroke-opacity:1;image-rendering:auto;shape-rendering:auto;text-rendering:auto;enable-background:accumulate;stop-color:#000000;stop-opacity:1"
   d="m -13.148071,37.596457 c -6.631586,2.517547 -9.467796,10.61447 -11.039066,13.904297 -0.53587,1.121984 -0.67165,2.311387 -0.38671,3.28711 0.28493,0.975722 0.82366,1.613776 1.24218,2.152343 0.83706,1.077136 1.45654,1.689131 1.35157,3.767579 -0.0409,0.80884 -0.55152,2.389025 -1.38672,4.09375 -0.8352,1.704724 -1.95759,3.580078 -3.07813,5.306648 -2.24107,3.45314 -4.45703,6.29297 -4.45703,6.29297 a 1.7025458,1.7025458 0 0 0 0.29297,2.39062 1.7025458,1.7025458 0 0 0 2.39062,-0.29492 c 0,0 2.29561,-2.93493 4.63086,-6.5332 1.16763,-1.79914 2.35004,-3.76735 3.2793,-5.664074 0.92927,-1.896714 1.64241,-3.67633 1.73047,-5.419919 0.15285,-3.026413 -1.23856,-4.966517 -2.06445,-6.029297 -0.41295,-0.53139 -0.61867,-0.860157 -0.66407,-1.015625 -0.0454,-0.155468 -0.0977,-0.261769 0.19141,-0.867188 1.72886,-3.619781 4.66949,-10.476779 9.17578,-12.1875 a 1.7025458,1.7025458 0 0 0 0.986328,-2.195312 1.7025458,1.7025458 0 0 0 -2.195312,-0.988282 z"
   id="path6" /><circle
   style="clip-rule:evenodd;fill:none;fill-opacity:1;fill-rule:evenodd;stroke:#a1a1a1;stroke-width:0.755697;stroke-linecap:round;stroke-dasharray:2.26708, 2.26708;stroke-dashoffset:0;stroke-opacity:1;image-rendering:optimizeQuality;shape-rendering:geometricPrecision;text-rendering:geometricPrecision"
   id="path4"
   cx="-20.293547"
   cy="59.135864"
   r="13.823222" /><path
   id="path7-4"
   style="clip-rule:evenodd;fill:#cddbbd;fill-opacity:1;fill-rule:evenodd;stroke:#a1a1a1;stroke-width:0.755697;stroke-linecap:round;stroke-linejoin:round;stroke-dasharray:none;stroke-dashoffset:0;stroke-opacity:1;image-rendering:optimizeQuality;shape-rendering:geometricPrecision;text-rendering:geometricPrecision"
   d="m -13.950823,64.302289 h 4.6862009 l -2.3970749,-4.151857 h 0.813612 l -1.86035,-3.222217 h 0.405273 L -13.961321,54.0562 m 0.01048,10.246089 h -4.686196 l 2.39707,-4.151857 h -0.81361 l 1.860348,-3.222217 h -0.405272 l 1.637159,-2.872015"
   sodipodi:nodetypes="cccccccccccccc" /><g
   style="clip-rule:evenodd;fill:#a5a5a5;fill-opacity:1;fill-rule:evenodd;stroke:none;stroke-width:7.69027;stroke-dasharray:none;stroke-opacity:1;image-rendering:optimizeQuality;shape-rendering:geometricPrecision;text-rendering:geometricPrecision"
   id="g8"
   transform="translate(-38.795737,22.842708)"><g
     id="Ebene_x0020_1-7-1"
     inkscape:label="Ebene 1"
     style="fill:#a5a5a5;fill-opacity:1;stroke:none;stroke-opacity:1">
        <metadata
   id="CorelCorpID_0Corel-Layer-8" />
        
    <path
   d="m 23.296987,27.024528 c 0.138078,0.01717 0.235626,0.143574 0.218452,0.281652 -0.01717,0.138079 -0.143574,0.235627 -0.281653,0.218453 -0.183417,-0.02336 -0.349661,-0.06664 -0.500792,-0.129148 -0.155939,-0.06457 -0.294018,-0.147696 -0.41561,-0.249366 -0.115409,-0.09617 -0.216391,-0.205401 -0.302261,-0.324244 -0.229444,-0.316001 -0.353097,-0.702071 -0.355844,-1.086768 -0.0027,-0.388818 0.118156,-0.775575 0.379201,-1.088828 0.0845,-0.10167 0.184104,-0.195096 0.298139,-0.277531 0.132583,-0.09617 0.284401,-0.177235 0.45614,-0.24387 0.118157,-0.04603 0.244558,-0.0845 0.377827,-0.115409 0.151131,-0.600401 0.473314,-1.062724 0.88755,-1.383534 0.387444,-0.3002 0.853889,-0.475375 1.334072,-0.521401 0.478123,-0.04603 0.969985,0.03504 1.411699,0.247305 0.482244,0.231505 0.902663,0.616889 1.175385,1.158898 0.109913,-0.01717 0.219827,-0.0261 0.329053,-0.02473 0.461636,0.0027 0.906785,0.168305 1.257133,0.546132 0.07351,0.079 0.142887,0.168304 0.207461,0.267913 0.219827,0.337983 0.332488,0.789315 0.327679,1.231029 -0.0048,0.43347 -0.121591,0.86488 -0.360653,1.182941 -0.155939,0.206775 -0.355844,0.375767 -0.595592,0.509723 -0.230818,0.129148 -0.500106,0.227383 -0.802367,0.297453 -0.136018,0.03091 -0.271349,-0.05358 -0.302262,-0.189601 -0.03091,-0.136017 0.05358,-0.271348 0.189601,-0.302261 0.254861,-0.05908 0.478809,-0.140139 0.667723,-0.245931 0.18067,-0.100983 0.328366,-0.223948 0.438966,-0.371644 0.17174,-0.228757 0.256235,-0.552314 0.25967,-0.884115 0.0041,-0.348288 -0.08106,-0.697949 -0.246618,-0.952124 -0.0474,-0.07282 -0.09961,-0.139452 -0.154565,-0.198531 -0.247992,-0.267226 -0.562619,-0.384009 -0.889611,-0.38607 -0.237687,-0.0014 -0.482244,0.05564 -0.715123,0.158687 -0.05152,0.02542 -0.103044,0.0529 -0.154566,0.08312 -0.154565,0.09068 -0.30707,0.201279 -0.463009,0.328366 L 26.639724,24.18052 c 0.114722,-0.106479 0.239061,-0.20334 0.370958,-0.28921 0.105104,-0.0687 0.215017,-0.129148 0.327678,-0.182044 0.04534,-0.02267 0.09137,-0.04397 0.137392,-0.06389 -0.21914,-0.388131 -0.534453,-0.666349 -0.891671,-0.838089 -0.357219,-0.171052 -0.757028,-0.237 -1.146533,-0.199217 -0.386758,0.0371 -0.762524,0.177922 -1.073029,0.419044 -0.359279,0.278905 -0.632001,0.694515 -0.737106,1.246142 l -0.03297,0.172426 -0.171739,0.03023 c -0.168305,0.02954 -0.318749,0.07007 -0.450645,0.121592 -0.127774,0.04946 -0.241809,0.1106 -0.341418,0.182731 -0.07969,0.0577 -0.148383,0.122278 -0.206774,0.192348 -0.18067,0.216392 -0.264479,0.48774 -0.262418,0.762523 0.0021,0.278905 0.09274,0.560558 0.260357,0.792063 0.06251,0.08587 0.134644,0.16487 0.217079,0.233566 0.08381,0.06938 0.177922,0.127087 0.283713,0.170365 0.112662,0.04397 0.237001,0.07625 0.374393,0.09343 z"
   id="path1-8"
   style="fill:#a5a5a5;fill-opacity:1;stroke:none;stroke-width:0.068696;stroke-opacity:1"
   sodipodi:nodetypes="ssccccccccccccccccccccscccccccccccccccccccccscccccss" /><path
   d="m 25.353916,28.173647 c 0.150444,0.698636 0.602462,1.047611 0.602462,1.397273 0,0.349661 -0.150444,0.698636 -0.602462,0.698636 -0.452018,0 -0.602462,-0.348975 -0.602462,-0.698636 0,-0.348975 0.451331,-0.698637 0.602462,-1.397273 z m 1.33682,-1.845169 c 0.150444,0.758402 0.602462,1.137602 0.602462,1.516803 0,0.379201 -0.150444,0.758402 -0.602462,0.758402 -0.452018,0 -0.602462,-0.379201 -0.602462,-0.758402 0,-0.379201 0.452018,-0.758401 0.602462,-1.516803 z m -2.016221,-0.07351 c 0.108539,0.502166 0.43347,0.753593 0.43347,1.00502 0,0.251427 -0.10854,0.502166 -0.43347,0.502166 -0.324932,0 -0.433471,-0.251426 -0.433471,-0.502166 0,-0.251427 0.324931,-0.502854 0.433471,-1.00502 z"
   style="fill:#bcdbe5;fill-opacity:1;stroke:none;stroke-width:0.068696;stroke-opacity:1"
   id="path1-89" /></g></g><path
   style="clip-rule:evenodd;fill:none;fill-opacity:1;fill-rule:evenodd;stroke:#a1a1a1;stroke-width:0.755697;stroke-linecap:round;stroke-linejoin:round;stroke-dasharray:none;stroke-dashoffset:0;stroke-opacity:1;image-rendering:optimizeQuality;shape-rendering:geometricPrecision;text-rendering:geometricPrecision"
   d="m -14.088071,61.361287 v 6.922237"
   id="path8" /><g
   style="clip-rule:evenodd;fill:#cddbbd;fill-opacity:1;fill-rule:evenodd;stroke:#a1a1a1;stroke-width:0.627812;stroke-dasharray:none;stroke-opacity:1;image-rendering:optimizeQuality;shape-rendering:geometricPrecision;text-rendering:geometricPrecision"
   id="g10"
   transform="matrix(0.49667993,0,0,0.49667993,-30.752217,58.842213)"><g
     id="Ebene_x0020_1-6"
     inkscape:label="Ebene 1"
     style="fill:#cddbbd;fill-opacity:1;stroke:#a1a1a1;stroke-width:0.627812;stroke-dasharray:none;stroke-opacity:1">
        <metadata
   id="CorelCorpID_0Corel-Layer-4" />
        
    <path
   style="fill:#cddbbd;fill-opacity:1;stroke:#a1a1a1;stroke-width:0.627812;stroke-linecap:butt;stroke-linejoin:miter;stroke-dasharray:none;stroke-opacity:1"
   d="M 0.84667349,6.6247352 C 4.1804467,8.3597867 4.8438841,15.4402 4.8438841,15.4402 l 1.9120819,0.01753 c 0,0 -0.9871359,-7.3257743 -5.90929251,-8.8329908"
   id="path1065"
   sodipodi:nodetypes="cccc" /><path
   style="clip-rule:evenodd;fill:#cddbbd;fill-opacity:1;fill-rule:evenodd;stroke:#a1a1a1;stroke-width:0.627812;stroke-linecap:butt;stroke-linejoin:miter;stroke-dasharray:none;stroke-opacity:1;image-rendering:optimizeQuality;shape-rendering:geometricPrecision;text-rendering:geometricPrecision"
   d="M 3.0041165,0.92886723 C 7.3193331,7.2556712 6.755966,15.45773 6.755966,15.45773 l 1.912082,0.01753 c 0,0 0.5200804,-11.1989701 -5.6639315,-14.54639277"
   id="path1065-0"
   sodipodi:nodetypes="cccc" /><path
   style="clip-rule:evenodd;fill:#cddbbd;fill-opacity:1;fill-rule:evenodd;stroke:#a1a1a1;stroke-width:0.627812;stroke-linecap:butt;stroke-linejoin:miter;stroke-dasharray:none;stroke-opacity:1;image-rendering:optimizeQuality;shape-rendering:geometricPrecision;text-rendering:geometricPrecision"
   d="M 12.439338,3.1007835 C 10.114961,3.9504709 9.1827773,10.378676 9.1827773,10.378676 L 8.5630344,7.7626448 c 0,0 0.3409684,-3.5583598 3.8763036,-4.6618578"
   id="path1065-3"
   sodipodi:nodetypes="cccc" /><path
   style="clip-rule:evenodd;fill:#cddbbd;fill-opacity:1;fill-rule:evenodd;stroke:#a1a1a1;stroke-width:0.627812;stroke-linecap:butt;stroke-linejoin:miter;stroke-dasharray:none;stroke-opacity:1;image-rendering:optimizeQuality;shape-rendering:geometricPrecision;text-rendering:geometricPrecision"
   d="M 14.57734,6.6422652 C 11.243567,8.3773167 10.58013,15.45773 10.58013,15.45773 l -1.912082,0.01753 c 0,0 0.987136,-7.3257743 5.909292,-8.8329908"
   id="path1065-7"
   sodipodi:nodetypes="cccc" /></g></g><path
   d="m -21.224507,45.335329 c -0.13214,-0.129467 -0.13348,-0.341687 -0.004,-0.473823 0.12946,-0.132137 0.34168,-0.133473 0.47382,-0.004 l 0.92229,0.910275 c 0.13213,0.129467 0.13347,0.341687 0.004,0.473823 -0.12947,0.132138 -0.34169,0.133473 -0.47383,0.004 z m -4.77428,-1.554942 c -0.0774,0.03737 -0.15349,0.07875 -0.2309,0.124129 -0.22957,0.134805 -0.45648,0.298976 -0.68738,0.488505 l -0.49384,-0.565919 c 0.17084,-0.158831 0.35503,-0.302981 0.55123,-0.429779 0.15616,-0.101437 0.319,-0.192199 0.48717,-0.269612 0.0667,-0.03337 0.13614,-0.0654 0.20421,-0.09476 -0.32567,-0.576597 -0.79415,-0.990359 -1.32537,-1.245288 -0.53121,-0.254931 -1.12516,-0.352366 -1.70309,-0.296307 -0.57526,0.05606 -1.13318,0.264273 -1.59499,0.621977 -0.53388,0.413761 -0.93964,1.031734 -1.09446,1.851248 l -0.0481,0.256265 -0.25493,0.04538 c -0.2496,0.04404 -0.47383,0.104108 -0.67003,0.180187 -0.18953,0.07341 -0.35904,0.16417 -0.50719,0.270946 -0.11879,0.08542 -0.22023,0.181522 -0.30699,0.28563 -0.26827,0.321666 -0.39374,0.72475 -0.38973,1.133172 0.003,0.413762 0.13747,0.832862 0.38706,1.177218 0.0921,0.128133 0.20021,0.244253 0.32301,0.347026 v 0.0014 c 0.12279,0.102773 0.26293,0.186859 0.42176,0.25226 0.15617,0.06407 0.32834,0.110781 0.52054,0.137476 h 7.405 c 0.36037,-0.08676 0.67937,-0.204211 0.94898,-0.355035 0.26828,-0.150821 0.48717,-0.333677 0.65268,-0.552571 0.25493,-0.339017 0.38039,-0.820849 0.38573,-1.313359 0.005,-0.517869 -0.12013,-1.037073 -0.36571,-1.414797 -0.0707,-0.108112 -0.14816,-0.206881 -0.22957,-0.294972 -0.36839,-0.39641 -0.83687,-0.569923 -1.32137,-0.573927 -0.3537,-0.004 -0.71808,0.08142 -1.06377,0.233576 z m 0.5766,-0.946313 c 0.16283,-0.02536 0.327,-0.03871 0.4885,-0.03738 0.68605,0.004 1.34673,0.249592 1.8686,0.811507 0.10945,0.117456 0.21222,0.249592 0.30832,0.397745 0.0414,0.06407 0.0814,0.130802 0.11746,0.201542 0.0481,-0.08809 0.0908,-0.178852 0.12546,-0.274951 0.0814,-0.218894 0.12546,-0.457808 0.12546,-0.707398 0,-0.560581 -0.2269,-1.069107 -0.59528,-1.436154 -0.36704,-0.367046 -0.87557,-0.595282 -1.43615,-0.595282 -0.35503,0 -0.68738,0.08943 -0.97434,0.246922 -0.24025,0.132136 -0.45247,0.310988 -0.62198,0.527212 0.22824,0.249592 0.42978,0.539225 0.59395,0.866229 z m 3.08185,2.236982 c 0.0494,0.249591 0.0734,0.507191 0.0707,0.763456 -0.007,0.643333 -0.18152,1.28533 -0.53522,1.756484 -0.2309,0.30832 -0.52854,0.557911 -0.88491,0.758118 -0.34302,0.192199 -0.74344,0.337683 -1.1919,0.44179 l -0.0841,0.01067 h -7.45972 l -0.0467,-0.004 c -0.27228,-0.0347 -0.52054,-0.09877 -0.74344,-0.190867 -0.22957,-0.09476 -0.43511,-0.218894 -0.61664,-0.371051 h -0.003 c -0.17083,-0.142828 -0.32165,-0.305663 -0.44845,-0.481845 -0.34035,-0.469817 -0.52454,-1.043745 -0.52854,-1.615003 -0.004,-0.577932 0.17618,-1.153193 0.56325,-1.617674 0.12546,-0.150822 0.27361,-0.289633 0.44312,-0.412427 0.19754,-0.142814 0.42311,-0.264273 0.6767,-0.363042 0.17618,-0.06807 0.36304,-0.125463 0.56192,-0.170843 0.22423,-0.891589 0.70339,-1.578967 1.31869,-2.056795 0.57527,-0.445794 1.26932,-0.706065 1.98205,-0.775469 0.71007,-0.06807 1.4415,0.05205 2.09684,0.367046 0.20688,0.09877 0.40576,0.217558 0.59395,0.355034 0.2269,-0.276286 0.50586,-0.50986 0.82352,-0.683373 0.39774,-0.217559 0.85155,-0.340352 1.33338,-0.340352 0.76879,0 1.46418,0.310988 1.9687,0.81551 0.50319,0.503187 0.81551,1.199908 0.81551,1.968704 0,0.339017 -0.0614,0.663353 -0.17218,0.964998 -0.11612,0.312323 -0.28562,0.599287 -0.49918,0.846208 -0.012,0.01335 -0.0227,0.02403 -0.0347,0.03471 z m -5.61381,-5.512371 c -0.13213,-0.129467 -0.13347,-0.341687 -0.004,-0.473823 0.12947,-0.132137 0.34169,-0.133472 0.47383,-0.004 l 0.92229,0.910275 c 0.13213,0.129468 0.13347,0.341688 0.004,0.473824 -0.12947,0.132137 -0.34169,0.133471 -0.47383,0.004 z m 3.62509,-1.602992 c -0.001,-0.184191 0.14815,-0.335013 0.33368,-0.336348 0.18419,-0.0014 0.33501,0.148154 0.33635,0.333679 l 0.008,1.296008 c 10e-4,0.18419 -0.14816,0.335013 -0.33368,0.336347 -0.18419,0.0014 -0.33502,-0.148154 -0.33635,-0.333678 z m 3.73453,1.270648 c 0.13214,-0.129468 0.34436,-0.128132 0.47382,0.004 0.12947,0.132136 0.12814,0.344356 -0.004,0.473824 l -0.92228,0.910275 c -0.13214,0.129467 -0.34436,0.128133 -0.47382,-0.004 -0.12947,-0.132137 -0.12814,-0.344357 0.004,-0.473824 z m 1.84725,3.55301 c 0.18419,-0.0014 0.33501,0.148153 0.33634,0.333679 0.001,0.184191 -0.14815,0.335013 -0.33368,0.336347 l -1.296,0.008 c -0.18419,0.0014 -0.33501,-0.148153 -0.33635,-0.333678 -0.001,-0.184191 0.14815,-0.335013 0.33368,-0.336348 z"
   id="path1"
   style="clip-rule:evenodd;fill:#a3a3a3;fill-opacity:1;fill-rule:evenodd;stroke:none;stroke-width:0.13336;stroke-dasharray:none;stroke-opacity:1;image-rendering:optimizeQuality;shape-rendering:geometricPrecision;text-rendering:geometricPrecision"
   sodipodi:nodetypes="csccscccccccccscccccccccccccccccccccccccccccscsccsccsccccccccccccccccccccssscccccsccsccccccccccsccsccccccccc" /></g></g></g></g></g>
    </g></g></g></g></g>
<style
   type="text/css"
   id="style1">.st0{fill-rule:evenodd;clip-rule:evenodd;}</style><style
   type="text/css"
   id="style1-4">.st0{fill-rule:evenodd;clip-rule:evenodd;}</style></svg>
