<?xml version="1.0" encoding="UTF-8" standalone="no"?>
<!--Creator: CorelDRAW-->

<svg
   xml:space="preserve"
   width="5mm"
   height="5mm"
   version="1.1"
   style="shape-rendering:geometricPrecision;text-rendering:geometricPrecision;image-rendering:optimizeQuality;fill-rule:evenodd;clip-rule:evenodd"
   viewBox="0 0 51.76 51.76"
   id="svg1"
   sodipodi:docname="table_bird.svg"
   inkscape:version="1.4.2 (ebf0e940d0, 2025-05-08)"
   inkscape:export-filename="table_map.png"
   inkscape:export-xdpi="96"
   inkscape:export-ydpi="96"
   xmlns:inkscape="http://www.inkscape.org/namespaces/inkscape"
   xmlns:sodipodi="http://sodipodi.sourceforge.net/DTD/sodipodi-0.dtd"
   xmlns="http://www.w3.org/2000/svg"
   xmlns:svg="http://www.w3.org/2000/svg"><defs
   id="defs1"><style
     type="text/css"
     id="style1-7">
   <![CDATA[
    .str0 {stroke:black;stroke-width:0.49;stroke-miterlimit:22.9256}
    .fil16 {fill:black}
    .fil26 {fill:#695B4E}
    .fil15 {fill:white}
    .fil9 {fill:#EBECEC;fill-rule:nonzero}
    .fil12 {fill:#D9DADA;fill-rule:nonzero}
    .fil18 {fill:#92AAAC;fill-rule:nonzero}
    .fil17 {fill:#717780;fill-rule:nonzero}
    .fil25 {fill:black;fill-rule:nonzero}
    .fil11 {fill:black;fill-rule:nonzero}
    .fil20 {fill:#020202;fill-rule:nonzero}
    .fil21 {fill:#1D1E1F;fill-rule:nonzero}
    .fil13 {fill:#333333;fill-rule:nonzero}
    .fil2 {fill:#3B3A3C;fill-rule:nonzero}
    .fil7 {fill:#434A54;fill-rule:nonzero}
    .fil0 {fill:#57555C;fill-rule:nonzero}
    .fil8 {fill:#656D78;fill-rule:nonzero}
    .fil1 {fill:#787780;fill-rule:nonzero}
    .fil19 {fill:#857C76;fill-rule:nonzero}
    .fil23 {fill:#8D817E;fill-rule:nonzero}
    .fil10 {fill:#990000;fill-rule:nonzero}
    .fil3 {fill:#AAB2BC;fill-rule:nonzero}
    .fil22 {fill:#C4150F;fill-rule:nonzero}
    .fil6 {fill:#CCD1D9;fill-rule:nonzero}
    .fil24 {fill:#CECFCF;fill-rule:nonzero}
    .fil4 {fill:#F6BB42;fill-rule:nonzero}
    .fil5 {fill:#FFCE54;fill-rule:nonzero}
    .fil14 {fill:white;fill-rule:nonzero}
   ]]>
  </style></defs><sodipodi:namedview
   id="namedview1"
   pagecolor="#ffffff"
   bordercolor="#000000"
   borderopacity="0.25"
   inkscape:showpageshadow="2"
   inkscape:pageopacity="0.0"
   inkscape:pagecheckerboard="0"
   inkscape:deskcolor="#d1d1d1"
   inkscape:document-units="mm"
   inkscape:zoom="32"
   inkscape:cx="15.84375"
   inkscape:cy="16.046875"
   inkscape:window-width="2560"
   inkscape:window-height="1369"
   inkscape:window-x="0"
   inkscape:window-y="0"
   inkscape:window-maximized="1"
   inkscape:current-layer="Ebene_x0020_1"
   showgrid="true"><inkscape:grid
     id="grid4"
     units="mm"
     originx="0"
     originy="0"
     spacingx="10.352"
     spacingy="10.352"
     empcolor="#0099e5"
     empopacity="0.30196078"
     color="#0099e5"
     opacity="0.14902"
     empspacing="5"
     enabled="true"
     visible="true" /></sodipodi:namedview>
    <g
   id="Ebene_x0020_1"
   inkscape:label="Ebene 1">
        <metadata
   id="CorelCorpID_0Corel-Layer" />
        <circle
   cx="25.88"
   cy="25.88"
   r="25.88"
   style="fill:#E6E6E6"
   id="circle1" />
    <g
   style="clip-rule:evenodd;fill:#e6e6e6;fill-opacity:1;fill-rule:evenodd;stroke:#000000;stroke-width:7.69027;stroke-dasharray:none;stroke-opacity:0.17;image-rendering:optimizeQuality;shape-rendering:geometricPrecision;text-rendering:geometricPrecision"
   id="g1"
   transform="matrix(0.12489046,0,-0.08148477,0.12489046,27.428773,27.054229)"><g
     id="Ebene_x0020_1-3"
     style="fill:#e6e6e6;fill-opacity:1;stroke:#000000;stroke-width:7.69027;stroke-dasharray:none;stroke-opacity:0.17">
        <metadata
   id="CorelCorpID_0Corel-Layer-6" />
        
    <g
   style="clip-rule:evenodd;fill-rule:evenodd;image-rendering:optimizeQuality;shape-rendering:geometricPrecision;text-rendering:geometricPrecision"
   id="g2"
   transform="matrix(0.0136832,0,0,0.0136832,9.6448887,-6.4888333)"><g
     id="Ebene_x0020_1-7">
        <metadata
   id="CorelCorpID_0Corel-Layer-5" />
        <g
   id="_105553249722496">
            
            <polygon
   points="11151.69,445.82 11139.11,1161.24 7766.12,5286.24 403.61,3191.66 295.17,270.32 "
   style="fill:#b5d094;fill-opacity:0.5;stroke:none;stroke-width:412.15;stroke-linejoin:round;stroke-dasharray:none;stroke-opacity:1"
   id="polygon2"
   transform="matrix(0.9175247,0,0,0.9175247,472.04162,469.34055)" />
            <polygon
   points="340.92,11111.04 311.7,3885.56 4720.95,5140.89 3161.3,11110 "
   style="fill:#b3b3b3;fill-opacity:0.5;stroke:none;stroke-width:412.15;stroke-linejoin:round;stroke-dasharray:none;stroke-opacity:1"
   id="polygon3"
   transform="matrix(0.9175247,0,0,0.9175247,472.04162,469.34055)" />
            <polygon
   points="3819.22,11019.86 5278.65,5361.41 8759.35,6454.03 8109.95,11089.62 "
   style="fill:#e6d1be;fill-opacity:0.5;stroke:none;stroke-width:412.15;stroke-linejoin:round;stroke-dasharray:none;stroke-opacity:1"
   id="polygon4"
   transform="matrix(0.9175247,0,0,0.9175247,472.04162,469.34055)" />
            <polygon
   points="11097.42,7041.77 11115.2,11092.33 8709.13,11083.18 9465.72,6548.74 "
   style="fill:#93d0e4;fill-opacity:0.5;stroke:none;stroke-width:382.176;stroke-linejoin:round;stroke-dasharray:none;stroke-opacity:1"
   id="polygon5"
   transform="matrix(0.9175247,0,0,0.9175247,472.04162,469.34054)" />
            <polygon
   points="11099.81,6258.46 8601.73,5687.35 11062.17,2438.4 "
   style="fill:#808080;fill-opacity:0.5;stroke:none;stroke-width:412.15;stroke-linejoin:round;stroke-dasharray:none;stroke-opacity:1"
   id="polygon6"
   transform="matrix(0.9175247,0,0,0.9175247,472.04162,469.34055)" />
        </g>
    </g></g></g></g><path
   id="path5-9"
   style="clip-rule:evenodd;fill:#d0baa9;fill-opacity:1;fill-rule:evenodd;stroke-width:0.0565002;stroke-linecap:round;stroke-linejoin:round;image-rendering:optimizeQuality;shape-rendering:geometricPrecision;text-rendering:geometricPrecision"
   d="m 38.943676,30.957418 c 1.372447,1.404223 4.523833,2.923295 4.523833,2.923295 0,0 -0.315634,0.631454 -2.035069,0.631454 -0.767477,-0.210407 -3.917326,-2.580326 -3.917326,-2.580326 0,0 1.22763,1.113144 1.904772,1.805964 0.488007,0.499305 1.85713,1.214794 1.85713,1.214794 0,0 -1.961888,1.451914 -4.047623,-0.682111 -2.335857,-2.389939 -2.47619,-2.825859 -2.47619,-2.825859 l -0.142848,0.04871 c 0,0 1.031845,1.59169 1.857131,2.436082 0.648131,0.66314 1.761922,1.565141 1.761922,1.565141 0,0 -1.534751,1.20081 -3.571438,-0.883029 -1.386207,-1.418302 -2.142876,-2.923295 -2.142876,-2.923295 h -0.162757 c 0,0 0.487561,1.080272 1.115155,2.192466 0.512752,0.908672 1.587306,1.948871 1.587306,1.948871 0,0 -1.56116,0.616988 -2.777785,-0.627804 -0.765461,-0.783184 -2.017204,-3.671069 -2.017204,-3.671069 l -0.195706,-0.0081 c 0,0 0.434831,1.042665 0.498629,1.286272 0.159729,0.60992 0.862013,1.559073 0.862013,1.559073 0,0 -1.229248,0.224523 -2.401063,-0.974424 -0.72514,-0.741927 -1.270479,-3.166912 -1.270479,-3.166912 l -0.285721,-0.243592 0.761908,2.266511 c 0,0 -1.547412,-0.02271 -2.210475,-1.197748 -0.692957,-1.540466 -0.837158,-2.725298 -0.837158,-2.725298 l -0.166153,-0.04874 0.213768,1.023166 0.453498,1.607817 c 0,0 -0.319323,-0.10165 -0.425199,-0.126645 -0.473405,-0.111761 -1.297207,-0.393087 -1.663761,-1.04268 -0.488474,-0.865648 -0.618371,-1.997589 -0.618371,-1.997589 l -1.925034,1.132549 c 0,0 -0.288598,-5.534586 0,-4.553885"
   sodipodi:nodetypes="ccccscsccscsccscsccscsccccccccssccc" /><path
   d="m 22.610661,20.757223 -3.293024,3.543723 c 0,0 -1.116751,-0.131121 -1.970782,-0.624197 -0.640875,-0.370008 -0.918426,-1.201571 -1.028687,-1.679437 -0.02466,-0.106872 -0.124944,-0.429205 -0.124944,-0.429205 l 1.586239,0.457771 1.009435,0.215782 -0.04809,-0.167717 c 0,0 -1.16893,-0.145561 -2.688723,-0.845047 -1.159277,-0.669309 -1.181673,-2.2313 -1.181673,-2.2313 l 2.236095,0.769087 -0.240324,-0.288414 c 0,0 -2.39244,-0.550478 -3.124412,-1.282449 -1.182855,-1.182855 -0.961347,-2.423684 -0.961347,-2.423684 0,0 0.936417,0.708901 1.53815,0.870135 0.240339,0.0644 1.26901,0.503326 1.26901,0.503326 l -0.008,-0.197549 c 0,0 -2.84913,-1.263538 -3.621802,-2.03621 -1.228087,-1.228087 -0.619379,-2.803955 -0.619379,-2.803955 0,0 1.026238,1.084677 1.922717,1.602259 1.097267,0.633508 2.163041,1.125662 2.163041,1.125662 v -0.164278 c 0,0 -1.484794,-0.763797 -2.884063,-2.163066 -2.055897,-2.055905 -0.871201,-3.6051165 -0.871201,-3.6051165 0,0 0.889896,1.1242835 1.544135,1.7785225 0.833061,0.83306 2.403391,1.874628 2.403391,1.874628 l 0.04806,-0.144194 c 0,0 -0.43007,-0.141656 -2.787934,-2.4995204 -2.105385,-2.1053861 -0.672957,-4.0857581 -0.672957,-4.0857581 0,0 0.705887,1.382023 1.198491,1.874627 0.683521,0.683523 1.781726,1.9227171 1.781726,1.9227171 0,0 -2.338114,-3.1795241 -2.545696,-3.9542321 0,-1.735636 0.622979,-2.054243 0.622979,-2.054243 0,0 1.498685,3.181078 2.884064,4.566456 1.491527,1.4915271 2.876356,3.2629575 3.497032,4.0947015 0.974403,1.305758 2.657231,6.809124 2.948548,7.776664 0.0076,0.02527 0.01424,0.305982 0.01992,0.70351"
   style="fill:#7a6045;fill-opacity:1;stroke-width:0.0563835;stroke-linecap:round;stroke-linejoin:round"
   id="path1-3" /><path
   id="path5"
   style="opacity:1;fill:#947353;fill-opacity:1;stroke-width:0.0563835;stroke-linecap:round;stroke-linejoin:round"
   d="m 23.083744,21.279351 2.066514,-0.918448 c 0,0 0.375946,-0.566565 0.861564,-0.593544 0.485619,-0.02697 0.820829,0.112872 0.820829,0.112872 l 1.201695,-0.480698 -0.480698,1.201695 c 0,0 0.13985,0.335209 0.112871,0.820827 -0.02698,0.485618 -0.593544,0.861565 -0.593544,0.861565 l -0.918448,2.066515 c 0.397528,0.0057 0.678246,0.01232 0.703509,0.01992 0.96754,0.291316 6.470907,1.974145 7.776666,2.948547 0.831743,0.620676 2.603173,2.005506 4.094701,3.497033 1.385377,1.385378 4.566455,2.884063 4.566455,2.884063 0,0 -0.318608,0.62298 -2.054243,0.62298 -0.774708,-0.207583 -3.954233,-2.545697 -3.954233,-2.545697 0,0 1.239196,1.098205 1.922718,1.781727 0.492604,0.492604 1.874627,1.198491 1.874627,1.198491 0,0 -1.980372,1.432429 -4.085758,-0.672957 -2.357865,-2.357865 -2.49952,-2.787935 -2.49952,-2.787935 l -0.144194,0.04806 c 0,0 1.041567,1.570329 1.874628,2.40339 0.654238,0.65424 1.778522,1.544136 1.778522,1.544136 0,0 -1.549211,1.184695 -3.605086,-0.871179 -1.399268,-1.399268 -2.163066,-2.884063 -2.163066,-2.884063 h -0.16429 c 0,0 0.492154,1.065774 1.125661,2.163042 0.517583,0.896478 1.602261,1.922717 1.602261,1.922717 0,0 -1.575868,0.608708 -2.803956,-0.619379 -0.772673,-0.772673 -2.036209,-3.621802 -2.036209,-3.621802 l -0.19755,-0.008 c 0,0 0.438928,1.028672 0.503327,1.26901 0.161234,0.601734 0.870134,1.53815 0.870134,1.53815 0,0 -1.240829,0.221509 -2.423684,-0.961347 -0.731972,-0.731971 -1.282449,-3.124412 -1.282449,-3.124412 l -0.288413,-0.240323 0.769086,2.236094 c 0,0 -1.561991,-0.0224 -2.231301,-1.181674 -0.699486,-1.519792 -0.845046,-2.688724 -0.845046,-2.688724 l -0.167718,-0.04809 0.215782,1.009435 0.457771,1.58624 c 0,0 -0.322332,-0.100286 -0.429205,-0.124945 -0.477866,-0.110261 -1.309429,-0.387812 -1.679437,-1.028687 -0.493076,-0.854031 -0.624197,-1.970781 -0.624197,-1.970781 l -0.753189,0.432608 -0.672957,0.336479 c 0,0 -0.240335,0.721028 -0.480674,2.643739 -0.127179,1.551587 0,2.884063 0,2.884063 0,0 -1.200378,-0.43862 -1.442019,-1.201695 -0.480677,-1.201694 -0.372769,-1.922717 -0.372769,-1.922717 l -0.828926,2.163041 c 0,0 -0.480683,-0.413909 -0.721021,-1.310865 -0.206839,-0.872315 0.240323,-1.813522 0.240323,-1.813522 0,0 -0.941207,0.447162 -1.813522,0.240324 -0.896955,-0.240339 -1.310864,-0.721022 -1.310864,-0.721022 l 2.16304,-0.828926 c 0,0 -0.721023,0.107909 -1.922717,-0.372769 -0.763075,-0.24164 -1.201695,-1.442019 -1.201695,-1.442019 0,0 1.332477,0.127179 2.884063,0 1.922711,-0.240338 2.643739,-0.480673 2.643739,-0.480673 l 0.336479,-0.672957 0.432609,-0.75319 c 0,0 -1.11675,-0.131121 -1.970782,-0.624197 -0.640875,-0.370008 -0.918426,-1.201571 -1.028687,-1.679437 -0.02466,-0.106872 -0.124944,-0.429205 -0.124944,-0.429205 l 1.586239,0.457771 1.009435,0.215782 -0.04809,-0.167717 c 0,0 -1.168931,-0.145561 -2.688724,-0.845047 -1.159278,-0.669309 -1.181674,-2.2313 -1.181674,-2.2313 l 2.236095,0.769087 -0.240324,-0.288414 c 0,0 -2.39244,-0.550478 -3.124412,-1.282449 -1.182855,-1.182855 -0.961347,-2.423684 -0.961347,-2.423684 0,0 0.936417,0.708901 1.53815,0.870135 0.240339,0.0644 1.26901,0.503326 1.26901,0.503326 l -0.008,-0.197549 c 0,0 -2.84913,-1.263538 -3.621802,-2.03621 -1.228087,-1.228087 -0.619379,-2.803955 -0.619379,-2.803955 0,0 1.026238,1.084677 1.922717,1.602259 1.097267,0.633508 2.163041,1.125662 2.163041,1.125662 v -0.164278 c 0,0 -1.484794,-0.763797 -2.884063,-2.163066 -2.055897,-2.055905 -0.871201,-3.6051169 -0.871201,-3.6051169 0,0 0.889896,1.1242839 1.544135,1.7785229 0.833061,0.83306 2.403391,1.874628 2.403391,1.874628 l 0.04806,-0.144194 c 0,0 -0.43007,-0.141656 -2.787934,-2.49952 -2.105385,-2.105387 -0.672957,-4.0857591 -0.672957,-4.0857591 0,0 0.705887,1.3820228 1.198491,1.8746273 0.683521,0.6835226 1.781726,1.9227168 1.781726,1.9227168 0,0 -2.338114,-3.1795241 -2.545696,-3.9542319 0,-1.7356357 0.622979,-2.054243 0.622979,-2.054243 0,0 1.498685,3.1810777 2.884064,4.566456 1.491527,1.4915269 2.876356,3.2629579 3.497032,4.0947019 0.974403,1.305758 2.657231,6.809124 2.948548,7.776664 0.0076,0.02527 0.01424,0.305982 0.01992,0.70351"
   sodipodi:nodetypes="ccscccsccssscccscsccscsccscsccscsccccccccsscccccccccccccccccccssccccccccscsccscsccscsccscscccsssc" /></g>
<style
   type="text/css"
   id="style1">.st0{fill-rule:evenodd;clip-rule:evenodd;}</style></svg>
