<?xml version="1.0" encoding="UTF-8" standalone="no"?>
<!--Creator: CorelDRAW-->

<svg
   xml:space="preserve"
   width="5mm"
   height="5mm"
   version="1.1"
   style="shape-rendering:geometricPrecision;text-rendering:geometricPrecision;image-rendering:optimizeQuality;fill-rule:evenodd;clip-rule:evenodd"
   viewBox="0 0 51.76 51.76"
   id="svg1"
   sodipodi:docname="table_bat.svg"
   inkscape:version="1.4.2 (ebf0e940d0, 2025-05-08)"
   inkscape:export-filename="table_map.png"
   inkscape:export-xdpi="96"
   inkscape:export-ydpi="96"
   xmlns:inkscape="http://www.inkscape.org/namespaces/inkscape"
   xmlns:sodipodi="http://sodipodi.sourceforge.net/DTD/sodipodi-0.dtd"
   xmlns="http://www.w3.org/2000/svg"
   xmlns:svg="http://www.w3.org/2000/svg"><defs
   id="defs1"><style
     type="text/css"
     id="style1-7">
   <![CDATA[
    .str0 {stroke:black;stroke-width:0.49;stroke-miterlimit:22.9256}
    .fil16 {fill:black}
    .fil26 {fill:#695B4E}
    .fil15 {fill:white}
    .fil9 {fill:#EBECEC;fill-rule:nonzero}
    .fil12 {fill:#D9DADA;fill-rule:nonzero}
    .fil18 {fill:#92AAAC;fill-rule:nonzero}
    .fil17 {fill:#717780;fill-rule:nonzero}
    .fil25 {fill:black;fill-rule:nonzero}
    .fil11 {fill:black;fill-rule:nonzero}
    .fil20 {fill:#020202;fill-rule:nonzero}
    .fil21 {fill:#1D1E1F;fill-rule:nonzero}
    .fil13 {fill:#333333;fill-rule:nonzero}
    .fil2 {fill:#3B3A3C;fill-rule:nonzero}
    .fil7 {fill:#434A54;fill-rule:nonzero}
    .fil0 {fill:#57555C;fill-rule:nonzero}
    .fil8 {fill:#656D78;fill-rule:nonzero}
    .fil1 {fill:#787780;fill-rule:nonzero}
    .fil19 {fill:#857C76;fill-rule:nonzero}
    .fil23 {fill:#8D817E;fill-rule:nonzero}
    .fil10 {fill:#990000;fill-rule:nonzero}
    .fil3 {fill:#AAB2BC;fill-rule:nonzero}
    .fil22 {fill:#C4150F;fill-rule:nonzero}
    .fil6 {fill:#CCD1D9;fill-rule:nonzero}
    .fil24 {fill:#CECFCF;fill-rule:nonzero}
    .fil4 {fill:#F6BB42;fill-rule:nonzero}
    .fil5 {fill:#FFCE54;fill-rule:nonzero}
    .fil14 {fill:white;fill-rule:nonzero}
   ]]>
  </style></defs><sodipodi:namedview
   id="namedview1"
   pagecolor="#ffffff"
   bordercolor="#000000"
   borderopacity="0.25"
   inkscape:showpageshadow="2"
   inkscape:pageopacity="0.0"
   inkscape:pagecheckerboard="0"
   inkscape:deskcolor="#d1d1d1"
   inkscape:document-units="mm"
   inkscape:zoom="11.313709"
   inkscape:cx="-35.001786"
   inkscape:cy="7.0268736"
   inkscape:window-width="2560"
   inkscape:window-height="1369"
   inkscape:window-x="0"
   inkscape:window-y="0"
   inkscape:window-maximized="1"
   inkscape:current-layer="Ebene_x0020_1"
   showgrid="true"><inkscape:grid
     id="grid4"
     units="mm"
     originx="0"
     originy="0"
     spacingx="10.352"
     spacingy="10.352"
     empcolor="#0099e5"
     empopacity="0.30196078"
     color="#0099e5"
     opacity="0.14902"
     empspacing="5"
     enabled="true"
     visible="true" /></sodipodi:namedview>
    <g
   id="Ebene_x0020_1"
   inkscape:label="Ebene 1">
        <metadata
   id="CorelCorpID_0Corel-Layer" />
        <circle
   cx="25.88"
   cy="25.88"
   r="25.88"
   style="fill:#E6E6E6"
   id="circle1" />
    <g
   style="clip-rule:evenodd;fill:#e6e6e6;fill-opacity:1;fill-rule:evenodd;stroke:#000000;stroke-width:7.69027;stroke-dasharray:none;stroke-opacity:0.17;image-rendering:optimizeQuality;shape-rendering:geometricPrecision;text-rendering:geometricPrecision"
   id="g1"
   transform="matrix(0.12489046,0,-0.08148477,0.12489046,27.428773,27.054229)"><g
     id="Ebene_x0020_1-3"
     style="fill:#e6e6e6;fill-opacity:1;stroke:#000000;stroke-width:7.69027;stroke-dasharray:none;stroke-opacity:0.17">
        <metadata
   id="CorelCorpID_0Corel-Layer-6" />
        
    <g
   style="clip-rule:evenodd;fill-rule:evenodd;image-rendering:optimizeQuality;shape-rendering:geometricPrecision;text-rendering:geometricPrecision"
   id="g2"
   transform="matrix(0.0136832,0,0,0.0136832,9.6448887,-6.4888333)"><g
     id="Ebene_x0020_1-7">
        <metadata
   id="CorelCorpID_0Corel-Layer-5" />
        <g
   id="_105553249722496">
            
            <polygon
   points="11151.69,445.82 11139.11,1161.24 7766.12,5286.24 403.61,3191.66 295.17,270.32 "
   style="fill:#b5d094;fill-opacity:0.5;stroke:none;stroke-width:412.15;stroke-linejoin:round;stroke-dasharray:none;stroke-opacity:1"
   id="polygon2"
   transform="matrix(0.9175247,0,0,0.9175247,472.04162,469.34055)" />
            <polygon
   points="340.92,11111.04 311.7,3885.56 4720.95,5140.89 3161.3,11110 "
   style="fill:#b3b3b3;fill-opacity:0.5;stroke:none;stroke-width:412.15;stroke-linejoin:round;stroke-dasharray:none;stroke-opacity:1"
   id="polygon3"
   transform="matrix(0.9175247,0,0,0.9175247,472.04162,469.34055)" />
            <polygon
   points="3819.22,11019.86 5278.65,5361.41 8759.35,6454.03 8109.95,11089.62 "
   style="fill:#e6d1be;fill-opacity:0.5;stroke:none;stroke-width:412.15;stroke-linejoin:round;stroke-dasharray:none;stroke-opacity:1"
   id="polygon4"
   transform="matrix(0.9175247,0,0,0.9175247,472.04162,469.34055)" />
            <polygon
   points="11097.42,7041.77 11115.2,11092.33 8709.13,11083.18 9465.72,6548.74 "
   style="fill:#93d0e4;fill-opacity:0.5;stroke:none;stroke-width:382.176;stroke-linejoin:round;stroke-dasharray:none;stroke-opacity:1"
   id="polygon5"
   transform="matrix(0.9175247,0,0,0.9175247,472.04162,469.34054)" />
            <polygon
   points="11099.81,6258.46 8601.73,5687.35 11062.17,2438.4 "
   style="fill:#808080;fill-opacity:0.5;stroke:none;stroke-width:412.15;stroke-linejoin:round;stroke-dasharray:none;stroke-opacity:1"
   id="polygon6"
   transform="matrix(0.9175247,0,0,0.9175247,472.04162,469.34055)" />
        </g>
    </g></g></g></g><g
   style="clip-rule:evenodd;fill-rule:evenodd;image-rendering:optimizeQuality;shape-rendering:geometricPrecision;text-rendering:geometricPrecision"
   id="g3"
   transform="matrix(3.0102228,0,0,3.0102228,9.6598893,10.963284)"><g
     id="Ebene_x0020_1-5"
     transform="translate(-0.29165799,0.00512934)">
  <metadata
   id="CorelCorpID_0Corel-Layer-3" />
  <g
   id="_1553019012768">
   <path
   class="fil0"
   d="M 4.09,0.41 C 3.54,1.35 3.62,2.57 4.27,3.55 L 5.12,2.59 c 0,0 0.06,0.64 0.41,0.95 0.4,0.35 0.95,0.25 0.95,0.25 L 5.63,4.75 C 6.69,5.28 7.91,5.21 8.77,4.54 9.5,5.91 9.68,7.3 9.19,8.31 7.97,7.58 6.69,7.35 5.8,7.73 5.72,7.63 5.63,7.54 5.53,7.45 4.64,6.66 3.4,6.53 2.41,7.02 2.77,5.98 2.49,4.77 1.6,3.98 1.5,3.89 1.4,3.82 1.29,3.74 1.55,2.81 1.17,1.57 0.29,0.45 c 0.95,-0.6 2.34,-0.6 3.8,-0.04 z"
   id="path1" />
   <path
   class="fil1"
   d="M 2.41,7.03 C 3.31,6.39 4.67,6.13 5.68,6.77 5.79,6.84 5.9,6.92 5.99,7 6.81,6.49 8.14,6.51 9.46,7.04 9.47,7.4 9.39,7.91 9.19,8.33 7.97,7.6 6.69,7.37 5.8,7.75 5.72,7.65 5.63,7.56 5.53,7.47 4.64,6.68 3.4,6.55 2.41,7.04 v 0 z"
   id="path2" />
   <path
   class="fil2"
   d="M 2.41,7.03 C 2.93,6.06 3.02,4.68 2.27,3.76 2.19,3.66 2.09,3.56 2,3.48 2.41,2.61 2.22,1.29 1.53,0.04 1.11,0.09 0.67,0.22 0.29,0.47 1.17,1.59 1.55,2.83 1.29,3.76 1.4,3.83 1.5,3.91 1.6,4 2.49,4.79 2.77,6 2.41,7.04 v 0 z"
   id="path3" />
  </g>
  
  
  
 </g></g></g>
<style
   type="text/css"
   id="style1">.st0{fill-rule:evenodd;clip-rule:evenodd;}</style></svg>
