<?xml version="1.0" encoding="UTF-8" standalone="no"?>
<!--Creator: CorelDRAW 2021.5-->
<svg xml:space="preserve" width="315.94104" height="315.92932" version="1.1" style="clip-rule:evenodd;fill-rule:evenodd;image-rendering:optimizeQuality;shape-rendering:geometricPrecision;text-rendering:geometricPrecision" viewBox="0 0 270.05001 269.9932" id="svg182" sodipodi:docname="icons_map_layer(1).svg" xmlns:inkscape="http://www.inkscape.org/namespaces/inkscape" xmlns:sodipodi="http://sodipodi.sourceforge.net/DTD/sodipodi-0.dtd" xmlns="http://www.w3.org/2000/svg" xmlns:svg="http://www.w3.org/2000/svg">
    <sodipodi:namedview id="namedview182" pagecolor="#ffffff" bordercolor="#000000" borderopacity="0.25" inkscape:showpageshadow="2" inkscape:pageopacity="0.0" inkscape:pagecheckerboard="0" inkscape:deskcolor="#d1d1d1">
        <inkscape:page x="0" y="0" width="270.05002" height="269.99319" id="page2" margin="0" bleed="0"/>
    </sodipodi:namedview>
    <defs id="defs1">
        <style type="text/css" id="style1">
            <![CDATA[.str0{stroke:#EBECEC;stroke-width:2.02;stroke-miterlimit:22.9256}.str1{stroke:#B0CB1F;stroke-width:2.02;stroke-miterlimit:22.9256}.fil15{fill:#C5C6C6}.fil20{fill:#FCD5A6}.fil11{fill:#D19563}.fil17{fill:#E31E24}.fil21{fill:#DBE285}.fil22{fill:#BBC274}.fil36{fill:#B0CB1F}.fil18{fill:#539433}.fil8{fill:#008DD2}.fil9{fill:#8FA883}.fil7{fill:#ACD4DE}.fil6{fill:#ACDDA1}.fil10{fill:#CFCBC4}.fil4{fill:#EAEBD5}.fil3{fill:#ECEDD3}.fil5{fill:#EDEED6}.fil2{fill:#EDEFD4}.fil0{fill:#F0EBE2}.fil1{fill:#F1EEE9}.fil38{fill:#2B2A29;fill-rule:nonzero}.fil37{fill:#B0CB1F;fill-rule:nonzero}.fil35{fill:black;fill-rule:nonzero}.fil24{fill:#00A0E3;fill-rule:nonzero;fill-opacity:0.400000}.fil26{fill:#FECC00;fill-opacity:0.501961}.fil39{fill:#F08143;fill-rule:nonzero;fill-opacity:0.501961}.fil29{fill:#748187;fill-rule:nonzero;fill-opacity:0.580392}.fil27{fill:#B1709C;fill-opacity:0.600000}.fil31{fill:#86755D;fill-rule:nonzero;fill-opacity:0.600000}.fil30{fill:black;fill-rule:nonzero;fill-opacity:0.600000}.fil32{fill:#86755D;fill-rule:nonzero;fill-opacity:0.611765}.fil25{fill:#00A0E3;fill-rule:nonzero;fill-opacity:0.701961}.fil28{fill:#AE4A84;fill-rule:nonzero;fill-opacity:0.729412}.fil33{fill:#61A375;fill-rule:nonzero;fill-opacity:0.760784}.fil34{fill:#AF9778;fill-rule:nonzero;fill-opacity:0.780392}]]>
        </style>
    </defs>
    <g id="Ebene_x0020_1" inkscape:label="Ebene 1" inkscape:groupmode="layer" transform="translate(-1212.65,-883.77003)">
        <metadata id="CorelCorpID_0Corel-Layer"/>
        <g id="_2094862843328" inkscape:export-filename="../Repos/landscapelab/Resources/Icons/LabTable/buttons/layers/water_map.svg" inkscape:export-xdpi="96" inkscape:export-ydpi="96">
            <g id="g139">
                <path d="m 1452.55,933.65 c -2.95,2.89 -6.82,6.4 -8.06,7.66 1.51,-1.56 6.62,-5.18 8.63,-6.67 l 0.14,-0.11 z m 27.29,57.28 c 1.34,6.41 2.22,13 2.62,19.71 -11.23,-1.34 -22.54,-3.32 -24.3,-3.55 -3.22,0.04 -0.36,-3.7 0.5,-4.88 4.6,-6.31 2.08,-4.1 9.78,-3.57 0.95,0.06 5.81,-0.31 6.44,-0.78 0.67,-0.51 0.11,-1.27 0.49,-2.06 0.43,-0.89 2.64,-2.16 4.47,-4.87 z" id="path138" style="fill:#EBECEC"/>
                <path d="m 1212.99,1009.14 c 13.41,-0.03 26.88,-0.02 40.23,-0.29 8.67,-0.18 17.26,-0.03 25.89,-0.13 3.17,-0.04 6.11,-0.36 9.31,-0.18 4.12,0.24 7.7,0.2 11.82,0.14 16.82,-0.27 34,0.08 50.72,-1.59 l 35.29,-3.6 c 3.94,-0.41 8.08,-0.59 11.97,-1.21 7.39,-1.2 9.23,-7.94 11.72,-14.06 2.46,-6.07 5.11,-12.41 7.83,-18.35 9.37,-20.48 21.05,-28.8 32.06,-39.48 -24.76,-28.62 -61.34,-46.72 -102.15,-46.72 -71.37,0 -129.79,55.36 -134.69,125.47 z" id="path139" style="fill:#EBECEC"/>
            </g>
            <g id="g146">
                <path d="m 1432.52,1019.88 c -2.66,6.83 -15.67,24.8 -6.41,22.96 0.29,1.35 0.74,0.1 2.03,0.2 l 0.15,1.74 c 1.55,0.14 3.54,0.41 5.12,1.5 l -0.55,2.03 c 0.66,0.42 2.05,0.64 2.9,0.84 3.51,0.83 0.57,-1.36 5.39,0.48 1.46,0.55 1.23,0.26 1.61,1.7 0.99,-0.33 0.1,-0.19 0.8,-0.53 1.91,0.83 0.54,1.05 1.93,0.79 l 1.57,-5.92 c -1.56,-1.21 -5.12,-1.18 -5.79,-3.22 -0.4,-1.21 -0.64,-2.35 -0.9,-3.56 -0.3,-1.36 -0.88,-2.29 -0.19,-3.52 2.15,-3.87 2.57,-6.89 6.1,-7.06 0.92,-0.05 27.98,10.17 28.62,10.63 0.02,1.65 -0.59,1.67 -1.68,2.15 -0.87,0.38 -0.99,1.49 -1.3,2.45 -1.4,4.33 -1.25,5.21 -3.81,7.96 -1.24,1.33 -0.82,1.07 -1.11,2.73 -0.19,1.11 -1.1,5.47 -1.53,6.3 l -1.65,-0.13 c -0.21,1.27 0.07,2.63 -0.1,3.91 -0.16,1.19 -0.72,1.55 -0.9,2.96 l 0.09,0.35 11.76,-25.84 c 1.26,-2.77 0.79,-2.09 2.36,-3.76 1.07,-1.13 0.65,-3.75 2.43,-4.1 1.64,0.85 0.57,1.85 -0.11,3.33 -0.54,1.16 -0.97,2.27 -1.48,3.42 l -9.26,20.54 c -1.39,3.16 -11.37,26.57 -11.12,27.96 0.16,0.34 2.3,1.17 4.6,1.23 13.05,-20.78 20.61,-45.36 20.61,-71.71 0,-1.91 -0.05,-3.81 -0.13,-5.7 -3.06,-0.39 -5.75,-0.74 -7.42,-0.94 -3.16,-0.36 -6.28,-0.27 -9.26,-0.68 -2.93,-0.41 -6.74,-0.17 -9.76,-0.14 -1.72,0.02 -8.14,-0.76 -9.11,-0.16 -0.87,1.48 0.24,5.48 -1.46,5.39 -0.97,-0.05 -4.03,-1.77 -5.13,-2.25 -3.46,-1.53 -4.76,-1.16 -10.6,-3.86 -0.68,0.52 -0.8,3.9 -0.94,4.79 -0.29,1.92 2.63,3.53 3.63,4.74 z" id="path140" style="fill:#EBECEC"/>
                <path d="m 1379.46,1145.42 c -0.98,2.04 -1.77,3.7 -2.4,5.08 11.43,-2.54 22.31,-6.52 32.45,-11.75 -4.61,-0.83 -21.95,-2.67 -24.34,-2.31 -4.83,2.28 -5.19,7.23 -5.71,8.98 z" id="path141" style="fill:#EBECEC"/>
                <path d="m 1377.77,1150.34 c 14.91,-49.52 12.79,-53.03 12.44,-66.79 0.25,-8.37 0.02,-14.97 0.3,-23.41 0.13,-3.99 0.68,-7.92 0.78,-11.88 0.03,-1.38 0.53,-4.68 0.77,-6.17 0.24,-1.54 0.19,-4.22 0.22,-5.68 -1.59,-0.75 -3.06,1.26 -3.03,-1.57 0.06,-5.61 -0.48,-4.68 4.06,-4.88 0.75,-1.37 2.18,-6.47 2.84,-8.33 0.89,-2.5 1.87,-3.44 3.47,-7.74 0.88,-2.36 3.32,-6.74 -0.78,-7.13 -3.26,-0.31 -45.74,4.3 -50.73,4.83 -12.49,1.33 -30.79,1.08 -43.62,1.08 -3.69,0 -7.46,0.07 -11.13,-0.02 -1.66,-0.04 -2.49,-0.37 -3.44,1.12 -0.38,0.59 0.03,-0.68 -0.71,-1.03 -0.76,-0.36 -8.21,0.04 -9.72,0.04 -1.89,0.01 -3.77,0.09 -5.66,0.12 -6.39,0.09 -4.46,-1.31 -4.38,10.16 0.02,3.09 0.33,6.06 0.34,9.18 0.02,12.2 0.56,25.8 0.72,38.21 0.12,9.15 0.62,19.4 0.7,28.54 0.02,3.11 0.37,6.13 0.36,9.19 -0.03,6.4 0.31,12.71 0.36,19.12 0.01,1.1 0.05,2.18 0.11,3.25 21.58,14.62 47.61,23.16 75.64,23.16 10.34,0 20.41,-1.16 30.09,-3.37 z" id="path142" style="fill:#EBECEC"/>
                <path d="m 1455.19,1006.99 c 0.88,-1.73 1.4,-5.46 2.66,-7.24 1.57,-2.21 0.08,-0.99 1.09,-2.21 0.68,-0.82 1.27,-1.48 1.87,-2.3 -0.48,-0.74 0,-0.36 -0.85,-0.37 -0.5,1.23 -2.04,0.84 -3.32,0.78 -1.59,-1.95 -3.74,-8.68 -4.72,-11.3 l -3.49,-8.53 c -0.27,-0.78 -0.32,-2.2 -0.5,-3.17 -0.77,-0.57 -3.29,-6.31 -3.93,-7.71 -0.47,-1.03 -1.25,-3.05 -2.31,-3.36 -0.86,-0.26 -3.99,-0.8 -4.87,-0.76 -0.37,0.72 -0.76,1.46 -1.15,2.17 -1.57,2.86 -3.14,-0.87 0.59,9.18 0.97,2.63 1.54,5.04 2.07,7.79 0.42,2.2 2.81,15.81 2.56,16.97 -1.07,1.07 -3.48,0.88 -4.51,1.93 -6.66,2.87 17.42,8.48 18.81,8.13 z" id="path143" style="fill:#EBECEC"/>
                <path d="m 1246.93,1108.58 c 4.08,0.29 8.23,0.58 12.04,0.75 2.1,0.09 6.5,0.3 8.38,0.71 0.07,-8.31 -0.25,-16.64 -0.38,-24.96 -0.18,-11.63 -0.92,-24.78 -1.01,-36.33 -0.06,-7.55 -0.73,-16.74 -0.73,-24.05 0,-3.92 -0.01,-7.83 0,-11.75 -10.75,0.15 -21.45,0.19 -32.21,0.19 -6.77,0 -13.5,0.09 -20.25,0.16 -0.07,1.79 -0.12,3.58 -0.12,5.39 0,34.52 12.97,66.02 34.28,89.89 z" id="path144" style="fill:#EBECEC"/>
                <path d="m 1432.15,957.67 c 0.13,-1.22 1.42,-3.78 -0.16,-5.81 -9.94,11.67 -15.64,27.32 -21.8,41.09 -0.87,1.96 -2.38,7.13 -2.14,9.29 1.36,0.44 10.92,0.26 12.51,-0.41 0.41,-1.42 -1.03,-4.23 0.52,-7.7 1.14,-2.53 7.61,-22.02 8.87,-25.83 0.72,-2.2 1.39,-3.34 0.89,-5.8 -0.67,-3.29 0.18,-2.21 1.31,-4.83 z" id="path145" style="fill:#EBECEC"/>
                <path d="m 1268.22,1127.86 c -0.1,-4.62 -0.24,-9.44 -0.44,-11.28 -0.17,-1.52 0.43,-5.37 -0.99,-6.13 -1.5,1.09 0.19,1.82 -3.03,1.33 l -14.77,-0.94 c 5.85,6.26 12.29,11.96 19.23,17.02 z" id="path146" style="fill:#EBECEC"/>
            </g>
            <path d="m 1383.16,1137.5 c 2.39,-0.36 21.49,0.55 26.32,1.27 21.58,-11.13 39.76,-27.91 52.61,-48.37 -2.3,-0.06 -4.44,-0.89 -4.6,-1.23 -0.25,-1.39 9.73,-24.8 11.12,-27.96 l 9.26,-20.54 c 0.51,-1.15 0.94,-2.26 1.48,-3.42 0.68,-1.48 1.75,-2.48 0.11,-3.33 -1.78,0.35 -1.36,2.97 -2.43,4.1 -0.64,-0.46 -29.83,-9.76 -30.75,-9.71 -3.53,0.17 -3.95,3.19 -6.1,7.06 -0.69,1.23 -0.11,2.16 0.19,3.52 0.26,1.21 0.5,2.35 0.9,3.56 0.67,2.04 4.23,2.01 5.79,3.22 l -1.57,5.92 c -1.39,0.26 -0.02,0.04 -1.93,-0.79 -0.7,0.34 0.19,0.2 -0.8,0.53 -0.38,-1.44 -0.15,-1.15 -1.61,-1.7 -4.82,-1.84 -1.88,0.35 -5.39,-0.48 -0.85,-0.2 -2.24,-0.42 -2.9,-0.84 l 0.55,-2.03 c -1.58,-1.09 -3.57,-1.36 -5.12,-1.5 l -0.15,-1.74 c -12.16,-0.92 1.29,-3.76 3.81,-20.01 2.48,-4.04 0.32,-5.88 -1.07,-6.45 -1,-1.21 -2.08,-1.25 -1.79,-3.16 0.14,-0.9 0.41,-2.59 1.08,-3.12 5.85,2.71 6.8,2.38 10.26,3.91 1.1,0.48 4.16,2.2 5.13,2.25 1.7,0.09 0.59,-3.91 1.46,-5.39 0.97,-0.6 7.39,0.18 9.11,0.16 3.02,-0.03 6.83,-0.27 9.76,0.14 2.98,0.41 6.1,0.32 9.26,0.68 1.67,0.2 4.36,0.55 7.42,0.94 -0.01,-0.31 -0.02,-0.62 -0.03,-0.92 -9.9,-1.01 -22.5,-2.18 -28.84,-3.35 -5.6,-1.03 -10.15,-3.36 -15.48,-4.81 -6.58,-1.8 -12.16,-0.57 -18.74,-0.08 -2.28,0.17 -6.64,0.66 -8.72,1.38 -3.16,1.11 -3.39,3.03 -4.39,5.79 -0.97,2.7 -2.37,4.17 -3.95,6.43 -1.6,2.29 -2.35,4.24 -3.45,6.75 -3.21,7.35 3.15,7.11 -1.97,14.72 -1.78,2.65 -1.94,3.17 -2.17,0.04 -0.2,-2.67 -1.52,4.24 -1.53,4.31 -1.58,9.28 -3.51,42.75 -3.43,52.83 0.04,6.65 -3.9,30.16 -6.71,41.42 z" id="path147" style="fill:#D9DADA"/>
            <g id="g149">
                <path d="m 1397.93,1070.97 c 0.94,0.98 -0.33,3.53 4.2,3.72 2.13,0.09 4.1,-0.7 5.62,-1.95 0.35,-1.04 0.82,-1.77 1.29,-2.74 0.81,-1.67 1.27,-6.54 0.04,-8.88 -1.08,-2.04 -2.98,-2.06 -5.29,-1.78 l -5.2,1.91 c -0.49,1.37 0.56,9.46 -0.66,9.72 z" id="path148" style="fill:#00A0E3"/>
                <path d="m 1363.45,884.59 c -0.49,7.25 -1.55,14.42 -3.64,21.42 -7.1,23.73 -28.42,41.33 -36.43,64.77 -8.36,24.47 -13.96,50.04 -9.93,75.59 4.51,28.58 30.21,51.26 34.45,79.89 1.39,9.38 -1.6,18.4 -5.61,27.34 -1.32,-0.05 -2.64,-0.12 -3.95,-0.21 3.97,-8.87 6.9,-17.83 5.52,-27.13 -4.24,-28.63 -30.2,-50.23 -34.7,-78.81 -4.03,-25.55 0.15,-55.54 8.51,-80.01 8.01,-23.43 32.3,-37.11 39.4,-60.84 2.17,-7.23 3.08,-14.72 3.38,-22.33 1,0.09 2,0.2 3,0.32 z" id="path149" style="fill:#00A0E3"/>
            </g>
            <g id="g154">
                <path d="m 1388.45,1085.81 c -4.91,-0.23 -9.94,-0.34 -14.86,-0.48 -2.41,-0.22 -3.65,0.22 -4.26,2.03 0.06,1.18 -14.15,34.47 -15.89,38.86 -1.51,3.84 -7.21,17.2 -11.41,27.37 1.87,0.07 3.75,0.12 5.65,0.12 9.56,0 18.89,-1 27.9,-2.89 1.15,-2.61 2.26,-5.39 2.91,-7.33 l 2.78,-7.18 c 3.74,-11.33 5.05,-17.17 7.32,-35.99 2.05,-12.41 2.35,-15.64 -0.14,-14.51 z" id="path150" style="fill:#9D9E9E"/>
                <path d="m 1436.38,998.86 c 1.03,-1.05 3.44,-0.86 4.51,-1.93 0.25,-1.16 -2.14,-14.77 -2.56,-16.97 -0.53,-2.75 -1.1,-5.16 -2.07,-7.79 -3.73,-10.05 -2.16,-6.32 -0.59,-9.18 0.39,-0.71 0.78,-1.45 1.15,-2.17 -0.21,-0.85 -1.22,-1.26 -2.03,-1.8 -0.95,-0.63 -1.54,-1.2 -2.64,-1.35 -1.13,2.62 -1.98,1.54 -1.31,4.83 0.5,2.46 -0.17,3.6 -0.89,5.8 -1.26,3.81 -7.73,23.3 -8.87,25.83 -1.55,3.47 -0.65,4.34 -1.06,5.76 -0.27,1.14 -0.54,3.94 0.81,1 1.95,-0.26 10.38,-0.82 12.11,-0.65 1.32,0.14 4.63,3.93 3.44,-1.38 z" id="path151" style="fill:#9D9E9E"/>
                <path d="m 1447.93,972.65 c 0.18,0.97 0.23,2.39 0.5,3.17 l 3.49,8.53 c 0.98,2.62 3.13,9.35 4.72,11.3 1.28,0.06 2.82,0.45 3.32,-0.78 0.8,-0.63 2.25,-2.39 2.71,-3.3 1.31,-2.58 0.77,-1.88 0.97,-4.62 0.12,-1.69 1.2,-3.04 1.42,-4.28 0.21,-1.15 0.11,-4.1 -0.75,-4.92 -1.5,0.21 -0.82,0.87 -1.88,1.85 -1.07,0.22 -1.55,0.15 -2.35,-0.6 -0.43,-1.1 -0.14,-2.42 -0.11,-3.6 0.02,-1.09 -0.36,-2.61 0.5,-3.34 1.85,0.59 -0.23,2.43 2.76,2.86 1.91,0.28 2.83,-0.56 4.51,-1.11 3.03,-1 1.38,-3.54 2.39,-6.12 0.39,-0.98 0.78,-0.44 1.53,-1.32 0.05,-0.22 0.09,-0.56 0.11,-0.96 -0.95,-2.23 -1.97,-4.42 -3.04,-6.58 -0.06,0.15 -0.11,0.3 -0.15,0.43 -0.39,1.23 -1.07,4.92 -2.28,5.21 -1.58,-1.25 1.43,-7.24 0.62,-8.97 -1.53,-0.62 -2.2,2.09 -3.33,2.84 -1.5,0.99 -3.33,-1.35 -4.85,0.32 -0.16,1.28 1.63,1.88 2.38,2.83 0.6,0.76 0.02,3.32 -0.43,3.95 -1.02,0.24 -0.95,-0.58 -2.01,-0.6 -0.88,-0.02 -1.4,0.9 -0.92,1.58 0.88,1.22 4,-0.49 3.64,2.24 -1.1,1.15 -3.23,0.16 -2.83,3.59 0.17,1.49 -0.22,3.62 -1.63,4.47 -1.27,-0.05 -1.87,-1.63 -2.48,-2.72 -1.3,-2.36 -1.41,-0.93 -3.49,-0.89 -1.35,-0.63 -1.32,-2.38 -2.91,-1.76 z" id="path152" style="fill:#9D9E9E"/>
                <path d="m 1289.65,978.81 c 0.17,0.97 0.23,2.39 0.5,3.17 l 3.49,8.53 c 0.97,2.62 3.12,9.35 4.72,11.29 1.28,0.07 2.82,0.46 3.32,-0.77 0.79,-0.63 2.24,-2.39 2.7,-3.3 1.31,-2.59 0.77,-1.89 0.97,-4.62 0.12,-1.69 1.21,-3.04 1.43,-4.28 0.21,-1.15 0.11,-4.1 -0.75,-4.92 -1.51,0.2 -0.82,0.87 -1.89,1.85 -1.06,0.21 -1.54,0.15 -2.35,-0.6 -0.43,-1.1 -0.13,-2.42 -0.11,-3.6 0.02,-1.09 -0.36,-2.62 0.51,-3.34 1.85,0.59 -0.24,2.43 2.76,2.86 1.9,0.28 2.82,-0.56 4.51,-1.12 3.02,-0.99 1.38,-3.53 2.38,-6.11 0.39,-0.99 0.79,-0.44 1.54,-1.33 0.23,-0.99 0.13,-4.35 0.13,-5.6 0.01,-1.88 1.04,-3.12 0.62,-4.25 -2.05,-1.69 -3.34,1.23 -3.83,2.75 -0.4,1.22 -1.08,4.92 -2.29,5.2 -1.57,-1.24 1.43,-7.23 0.63,-8.96 -1.54,-0.62 -2.21,2.09 -3.33,2.84 -1.5,0.98 -3.34,-1.35 -4.85,0.32 -0.16,1.28 1.63,1.88 2.38,2.83 0.59,0.76 0.02,3.32 -0.44,3.94 -1.01,0.25 -0.94,-0.57 -2.01,-0.59 -0.87,-0.02 -1.39,0.9 -0.91,1.58 0.87,1.22 4,-0.49 3.63,2.24 -1.09,1.15 -3.23,0.16 -2.83,3.59 0.18,1.49 -0.22,3.62 -1.63,4.47 -1.26,-0.05 -1.87,-1.63 -2.47,-2.73 -1.3,-2.35 -1.41,-0.92 -3.49,-0.88 -1.36,-0.63 -1.32,-2.38 -2.92,-1.76 z" id="path153" style="fill:#9D9E9E"/>
                <path d="m 1379.11,890.07 c -0.05,-1.2 -5.65,-3.88 -6.93,-2.56 -0.46,0.48 -2.65,6.67 -3.11,7.84 -1.97,5.08 -1.93,7.07 -3.27,4.15 -0.85,-1.84 -2.33,-2.47 -2.12,-0.41 0.29,2.83 0.27,1.08 -0.55,3.47 -0.56,1.64 0.25,1.93 -0.74,3.92 -0.79,1.59 0.29,2.21 -0.27,3.42 -0.26,0.56 -0.74,0.91 -1.04,1.45 -0.33,0.6 -0.44,1.27 -0.76,1.94 -0.73,1.51 -0.55,2.38 -0.96,3.27 -0.44,0.95 -1.83,0.69 -2.44,2.24 -0.44,1.13 0.06,1.73 -1.26,2.49 -1.8,1.04 -2.04,0.8 -2.29,2.97 -0.15,1.34 -1.1,1.14 -2.13,1.77 -0.96,0.59 -2.06,2.67 -0.74,3.1 1.14,0.38 2.27,-1.48 2.9,-2.22 1.76,-2.09 3.57,-4.15 5.3,-6.26 13.88,-16.83 17.6,-12.38 10.5,-16.86 -5.29,-3.34 1.85,-0.13 2.72,0.13 2.46,0.74 2.5,-1.72 4.14,-5.93 0.31,-0.81 3.05,-7.72 3.05,-7.92 z" id="path154" style="fill:#9D9E9E"/>
            </g>
            <g id="g156">
                <path d="m 1443.9,939.66 c -2.1,0.77 -10.79,12.02 -12.1,12.82 0.51,1.06 0.48,3.97 0.35,5.19 1.1,0.15 1.69,0.72 2.64,1.35 0.81,0.54 1.82,0.95 2.03,1.8 0.88,-0.04 4.01,0.5 4.87,0.76 1.06,0.31 1.84,2.33 2.31,3.36 0.64,1.4 3.16,7.14 3.93,7.71 l 0.13,-1.3 c 1.59,-0.62 1.56,1.13 2.91,1.76 2.08,-0.04 2.19,-1.47 3.49,0.89 0.61,1.09 1.21,2.67 2.48,2.72 1.41,-0.85 1.8,-2.98 1.63,-4.47 -0.4,-3.43 1.73,-2.44 2.83,-3.59 0.36,-2.73 -2.76,-1.02 -3.64,-2.24 -0.48,-0.68 0.04,-1.6 0.92,-1.58 1.06,0.02 0.99,0.84 2.01,0.6 0.45,-0.63 1.03,-3.19 0.43,-3.95 -0.75,-0.95 -2.54,-1.55 -2.38,-2.83 1.52,-1.67 3.35,0.67 4.85,-0.32 1.13,-0.75 1.8,-3.46 3.33,-2.84 0.81,1.73 -2.2,7.72 -0.62,8.97 1.21,-0.29 1.89,-3.98 2.28,-5.21 0.04,-0.13 0.09,-0.28 0.15,-0.43 -4.73,-9.54 -10.55,-18.45 -17.31,-26.55 -2.43,2.17 -6.27,6.1 -7.52,7.38 z m 27.87,25.75 c -0.02,0.4 -0.06,0.74 -0.11,0.96 -0.75,0.88 -1.14,0.34 -1.53,1.32 -1.01,2.58 0.64,5.12 -2.39,6.12 -1.68,0.55 -2.6,1.39 -4.51,1.11 -2.99,-0.43 -0.91,-2.27 -2.76,-2.86 -0.86,0.73 -0.48,2.25 -0.5,3.34 -0.03,1.18 -0.32,2.5 0.11,3.6 0.8,0.75 1.28,0.82 2.35,0.6 1.06,-0.98 0.38,-1.64 1.88,-1.85 0.86,0.82 0.96,3.77 0.75,4.92 -0.22,1.24 -1.3,2.59 -1.42,4.28 -0.2,2.74 0.34,2.04 -0.97,4.62 -0.46,0.91 -1.91,2.67 -2.71,3.3 0.85,0.01 0.37,-0.37 0.85,0.37 -0.6,0.82 -1.19,1.48 -1.87,2.3 -1.01,1.22 0.48,0 -1.09,2.21 -1.26,1.78 -1.55,3.94 -2.43,5.67 -0.72,2.23 -1.64,2.62 1.52,1.95 0.16,-2.09 0.86,-3.98 1.72,-5.16 4.6,-6.31 2.08,-4.1 9.78,-3.57 0.95,0.06 5.81,-0.31 6.44,-0.78 0.67,-0.51 0.11,-1.27 0.49,-2.06 0.43,-0.89 2.64,-2.16 4.47,-4.87 -1.86,-8.86 -4.57,-17.4 -8.07,-25.52 z" id="path155" style="fill:#BDBDBD"/>
                <path d="m 1429.52,1126.08 c -1.79,-0.3 -3.09,-0.57 -3.32,-0.75 -0.31,-1.83 2.25,-13.01 3.41,-14.21 1.28,-0.3 11.91,2.04 14.05,2.47 l 0.05,0.01 c 1,-1.01 1.98,-2.04 2.95,-3.09 l -0.23,-2.07 c -1.19,-2.73 -1.31,-1.4 0.37,-4.37 3.02,-5.33 6.36,-11.84 8.72,-17.48 1.31,-3.13 2.61,-6.22 3.78,-9.41 1.06,-2.91 2.91,-6.69 3.61,-9.56 l -0.09,-0.35 c -1.55,1.91 -2.88,7.8 -4.39,9.72 -2.29,0.57 -1.31,-0.59 -3.5,0.94 -1.2,0.05 -2.05,-0.26 -3.26,0.01 -1.15,1.63 -1.63,10.8 -2.76,12.43 -1.84,0.27 -19.07,-1.63 -20.13,-1.33 -0.19,0.76 -0.84,6.67 -0.74,7.43 l 3.42,1.25 c 0.19,2.27 -0.93,2.24 0.05,9.4 l -0.61,0.05 -0.94,0.06 c -2.04,6.03 -4.66,14.99 -6.09,22.94 1.92,-1.31 3.8,-2.68 5.65,-4.09 z" id="path156" style="fill:#BDBDBD"/>
            </g>
            <path d="m 1449.83,930.39 c -11.01,10.68 -22.69,19 -32.06,39.48 -2.72,5.94 -5.37,12.28 -7.83,18.35 -2.49,6.12 -4.33,12.86 -11.72,14.06 -3.89,0.62 -8.03,0.8 -11.97,1.21 l -35.29,3.6 c -16.72,1.67 -33.9,1.32 -50.72,1.59 -4.12,0.06 -7.7,0.1 -11.82,-0.14 -3.2,-0.18 -6.14,0.14 -9.31,0.18 -8.63,0.1 -17.22,-0.05 -25.89,0.13 -13.35,0.27 -26.82,0.26 -40.23,0.29 -0.09,1.38 -0.17,2.77 -0.22,4.16 6.75,-0.07 13.48,-0.16 20.25,-0.16 10.76,0 21.46,-0.04 32.21,-0.19 -0.01,3.92 0,7.83 0,11.75 0,7.31 0.67,16.5 0.73,24.05 0.09,11.55 0.83,24.7 1.01,36.33 0.13,8.32 0.45,16.65 0.38,24.96 -1.88,-0.41 -6.28,-0.62 -8.38,-0.71 -3.81,-0.17 -7.96,-0.46 -12.04,-0.75 0.68,0.76 1.37,1.51 2.06,2.26 l 14.77,0.94 c 1.15,0.06 1.74,0.14 3.07,0.21 1.38,0.05 0.78,3.07 0.95,4.59 0.2,1.84 0.34,6.66 0.44,11.28 1.26,0.92 2.53,1.82 3.82,2.69 -0.06,-1.07 -0.1,-2.15 -0.11,-3.25 -0.05,-6.41 -0.39,-12.72 -0.36,-19.12 0.01,-3.06 -0.34,-6.08 -0.36,-9.19 -0.08,-9.14 -0.58,-19.39 -0.7,-28.54 -0.16,-12.41 -0.7,-26.01 -0.72,-38.21 -0.01,-3.12 -0.32,-6.09 -0.34,-9.18 -0.08,-11.47 -2.01,-10.07 4.38,-10.16 1.89,-0.03 3.77,-0.11 5.66,-0.12 1.51,0 8.96,-0.4 9.72,-0.04 0.74,0.35 0.33,1.62 0.71,1.03 0.95,-1.49 1.78,-1.16 3.44,-1.12 3.67,0.09 7.44,0.02 11.13,0.02 12.83,0 31.13,0.25 43.62,-1.08 4.99,-0.53 47.47,-5.14 50.73,-4.83 4.1,0.39 1.66,4.77 0.78,7.13 -1.6,4.3 -2.58,5.24 -3.47,7.74 -0.66,1.86 -2.09,6.96 -2.84,8.33 -4.54,0.2 -4,-0.73 -4.06,4.88 -0.03,2.83 0.21,1.85 1.8,2.59 0.97,1.32 0.34,2.24 -0.04,3.69 -1.05,4.09 -1.6,11.54 -1.54,15.68 0.06,3.47 -0.32,7.04 -0.37,10.57 -0.04,3.47 0.34,7.45 0.19,10.72 -0.35,7.49 0.21,14.74 -0.7,22.23 -0.83,6.94 -2.13,13.29 -3.41,20.12 -1.61,8.56 -2.63,9.58 -3.91,15.87 l -2.78,7.18 c -0.65,1.94 -1.76,4.72 -2.91,7.33 1.08,-0.23 2.17,-0.47 3.25,-0.72 6.33,-15.08 10.36,-31.47 12.28,-47.73 0.79,-6.61 0.78,-13.03 0.73,-19.67 -0.08,-10.08 -0.12,-30.17 1.46,-39.45 0.01,-0.07 1.33,-6.98 1.53,-4.31 0.23,3.13 0.39,2.61 2.17,-0.04 5.12,-7.61 -1.24,-7.37 1.97,-14.72 1.1,-2.51 1.85,-4.46 3.45,-6.75 1.58,-2.26 2.98,-3.73 3.95,-6.43 1,-2.76 1.23,-4.68 4.39,-5.79 2.08,-0.72 6.44,-1.21 8.72,-1.38 6.58,-0.49 12.16,-1.72 18.74,0.08 5.33,1.45 9.88,3.78 15.48,4.81 6.34,1.17 18.94,2.34 28.84,3.35 -0.05,-0.94 -0.11,-1.87 -0.17,-2.79 -0.56,-0.07 -0.99,-0.12 -1.28,-0.15 -6.68,-0.87 -21.86,-2.09 -27.06,-3.11 -0.22,-0.51 0.14,-0.24 -0.64,-0.31 -4.36,-0.09 -11.06,-4.5 -20.45,-5.47 -1.73,-0.17 -10.16,0.39 -12.11,0.65 -4.03,0.54 -7.64,0.68 -11.69,0.29 0.55,-3.37 0.33,-2.92 1.67,-6.02 9.04,-20.99 12.6,-34.84 29.91,-51.23 1.38,-1.31 7.31,-6.99 11.42,-10.79 -0.76,-0.92 -1.53,-1.84 -2.31,-2.75 z" id="path157" style="fill:#B2B3B3"/>
            <g id="g160">
                <polygon points="1440.55,1095.94 1429.72,1094.72 1430.27,1089.83 1441.1,1091.05 " id="polygon157" style="fill:#9D9E9E"/>
                <polygon points="1440.09,1099.56 1440.09,1104.37 1437.92,1104.37 1437.92,1099.56 " id="polygon158" style="fill:#9D9E9E"/>
                <polygon points="1445.64,1096.51 1442.56,1096.16 1442.88,1093.39 1445.96,1093.73 " id="polygon159" style="fill:#9D9E9E"/>
                <polygon points="1443.68,1112.14 1431.54,1110.24 1431.87,1108.1 1444.01,1110 " id="polygon160" style="fill:#9D9E9E"/>
            </g>
        </g>
    </g>
</svg>
