<?xml version="1.0" encoding="UTF-8" standalone="no"?>
<!--Creator: CorelDRAW 2021.5-->
<svg xml:space="preserve" width="318.29263" height="318.29263" version="1.1" style="clip-rule:evenodd;fill-rule:evenodd;image-rendering:optimizeQuality;shape-rendering:geometricPrecision;text-rendering:geometricPrecision" viewBox="0 0 272.06003 272.01288" id="svg196" sodipodi:docname="map_layer_icons.svg" xmlns:inkscape="http://www.inkscape.org/namespaces/inkscape" xmlns:sodipodi="http://sodipodi.sourceforge.net/DTD/sodipodi-0.dtd" xmlns="http://www.w3.org/2000/svg" xmlns:svg="http://www.w3.org/2000/svg">
    <sodipodi:namedview id="namedview196" pagecolor="#ffffff" bordercolor="#000000" borderopacity="0.25" inkscape:showpageshadow="2" inkscape:pageopacity="0.0" inkscape:pagecheckerboard="0" inkscape:deskcolor="#d1d1d1">
        <inkscape:page x="0" y="0" width="272.06003" height="272.01288" id="page2" margin="0" bleed="0"/>
    </sodipodi:namedview>
    <defs id="defs1">
        <style type="text/css" id="style1">
            <![CDATA[.str5{stroke:#AF9778;stroke-width:1.42;stroke-miterlimit:22.9256;stroke-opacity:0.250980}.str6{stroke:#5B5A50;stroke-width:1.66;stroke-miterlimit:22.9256;stroke-opacity:0.349020}.str9{stroke:#B0CB1F;stroke-width:2.02;stroke-miterlimit:22.9256;stroke-opacity:0.439216}.str10{stroke:#F08143;stroke-width:1.42;stroke-miterlimit:22.9256;stroke-opacity:0.501961}.str11{stroke:#EBECEC;stroke-width:2.02;stroke-miterlimit:22.9256;stroke-opacity:0.501961}.str1{stroke:#FFED00;stroke-width:2.02;stroke-miterlimit:22.9256;stroke-opacity:0.501961}.str3{stroke:#008DD2;stroke-width:1.42;stroke-miterlimit:22.9256;stroke-opacity:0.580392}.str4{stroke:#434242;stroke-width:1.42;stroke-miterlimit:22.9256;stroke-opacity:0.600000}.str2{stroke:#BD77A1;stroke-width:2.02;stroke-miterlimit:22.9256;stroke-opacity:0.600000}.str7{stroke:#5CA595;stroke-width:2.02;stroke-miterlimit:22.9256;stroke-opacity:0.639216}.str8{stroke:#AF9778;stroke-width:1.42;stroke-miterlimit:22.9256;stroke-opacity:0.780392}.fil35{fill:none;fill-rule:nonzero}.fil37{fill:none;fill-rule:nonzero}.fil26{fill:none}.fil47{fill:none;fill-rule:nonzero}.fil31{fill:none;fill-rule:nonzero}.fil28{fill:none}.fil33{fill:none;fill-rule:nonzero}.fil38{fill:none;fill-rule:nonzero}.fil40{fill:none;fill-rule:nonzero}.fil14{fill:#D9DADA}.fil15{fill:#C5C6C6}.fil19{fill:#B2B3B3}.fil12{fill:#9D9E9E}.fil11{fill:#D19563}.fil17{fill:#E31E24}.fil18{fill:#539433}.fil8{fill:#008DD2}.fil9{fill:#8FA883}.fil7{fill:#ACD4DE}.fil6{fill:#ACDDA1}.fil16{fill:#BDBDBD}.fil10{fill:#CFCBC4}.fil4{fill:#EAEBD5}.fil3{fill:#ECEDD3}.fil5{fill:#EDEED6}.fil2{fill:#EDEFD4}.fil0{fill:#F0EBE2}.fil1{fill:#F1EEE9}.fil45{fill:#2B2A29;fill-rule:nonzero}.fil42{fill:black;fill-rule:nonzero}.fil46{fill:#F08143;fill-rule:nonzero;fill-opacity:0.090196}.fil34{fill:#86755D;fill-rule:nonzero;fill-opacity:0.101961}.fil36{fill:#FECC00;fill-rule:nonzero;fill-opacity:0.149020}.fil32{fill:black;fill-rule:nonzero;fill-opacity:0.149020}.fil30{fill:#748187;fill-rule:nonzero;fill-opacity:0.168627}.fil39{fill:#AF9778;fill-rule:nonzero;fill-opacity:0.211765}.fil20{fill:#BBC274;fill-opacity:0.258824}.fil22{fill:#BBC274;fill-opacity:0.360784}.fil43{fill:#B0CB1F;fill-opacity:0.439216}.fil44{fill:#B0CB1F;fill-rule:nonzero;fill-opacity:0.439216}.fil48{fill:#FCD5A6;fill-opacity:0.501961}.fil27{fill:#FECC00;fill-opacity:0.501961}.fil41{fill:#DBE285;fill-opacity:0.501961}.fil21{fill:#DBE285;fill-opacity:0.701961}.fil29{fill:#AE4A84;fill-rule:nonzero;fill-opacity:0.729412}]]>
        </style>
    </defs>
    <g id="Ebene_x0020_1" inkscape:label="Ebene 1" inkscape:groupmode="layer" transform="translate(-302.91,-72.42998)">
        <metadata id="CorelCorpID_0Corel-Layer"/>
        <g id="_2494326262640">
            <circle cx="438.94" cy="208.36" r="135.02" id="circle89" style="stroke:#EBECEC;stroke-width:2.02;stroke-miterlimit:22.9256;fill:#EBECEC"/>
            <path d="m 365.26,144.15 c 0,-18.41 14.92,-33.34 33.34,-33.34 18.41,0 33.34,14.93 33.34,33.34 0,18.41 -14.93,33.34 -33.34,33.34 h -66.69 c -4.25,0 -7.69,-3.44 -7.69,-7.69 0,-4.25 3.44,-7.7 7.69,-7.7 h 66.69 c 9.91,0 17.95,-8.03 17.95,-17.95 0,-9.92 -8.04,-17.95 -17.95,-17.95 -9.92,0 -17.96,8.03 -17.96,17.95 v 3.66 c 0,4.25 -3.44,7.7 -7.69,7.7 -4.25,0 -7.69,-3.45 -7.69,-7.7 z" id="path89" style="fill:#00A0E3"/>
            <path d="m 334.48,231.35 c 0,-4.25 3.44,-7.69 7.69,-7.69 h 148.76 c 24.08,0 43.6,19.52 43.6,43.6 0,24.08 -19.52,43.6 -43.6,43.6 -24.08,0 -43.6,-19.52 -43.6,-43.6 v -5.13 c 0,-4.25 3.45,-7.69 7.69,-7.69 4.25,0 7.7,3.44 7.7,7.69 v 5.13 c 0,15.58 12.63,28.21 28.21,28.21 15.58,0 28.21,-12.63 28.21,-28.21 0,-15.58 -12.63,-28.21 -28.21,-28.21 H 342.17 c -4.25,0 -7.69,-3.45 -7.69,-7.7 z" id="path90" style="fill:#00A0E3;fill-rule:nonzero;fill-opacity:0.400000"/>
            <path d="m 447.33,164.67 c 0,-24.08 19.52,-43.6 43.6,-43.6 24.08,0 43.6,19.52 43.6,43.6 0,24.08 -19.52,43.6 -43.6,43.6 H 321.65 c -4.25,0 -7.69,-3.44 -7.69,-7.69 0,-4.25 3.44,-7.7 7.69,-7.7 h 169.28 c 15.58,0 28.21,-12.63 28.21,-28.21 0,-15.58 -12.63,-28.21 -28.21,-28.21 -15.58,0 -28.21,12.63 -28.21,28.21 v 5.13 c 0,4.25 -3.45,7.69 -7.7,7.69 -4.24,0 -7.69,-3.44 -7.69,-7.69 z" id="path91" style="fill:#00A0E3;fill-rule:nonzero;fill-opacity:0.701961"/>
        </g>
    </g>
</svg>
