<?xml version="1.0" encoding="UTF-8" standalone="no"?>
<!--Creator: CorelDRAW 2021.5-->
<svg xml:space="preserve" width="318.20886" height="318.20883" version="1.1" style="clip-rule:evenodd;fill-rule:evenodd;image-rendering:optimizeQuality;shape-rendering:geometricPrecision;text-rendering:geometricPrecision" viewBox="0 0 272.26 272.13691" id="svg196" sodipodi:docname="icons_table_ui.svg" xmlns:inkscape="http://www.inkscape.org/namespaces/inkscape" xmlns:sodipodi="http://sodipodi.sourceforge.net/DTD/sodipodi-0.dtd" xmlns="http://www.w3.org/2000/svg" xmlns:svg="http://www.w3.org/2000/svg">
    <sodipodi:namedview id="namedview196" pagecolor="#ffffff" bordercolor="#000000" borderopacity="0.25" inkscape:showpageshadow="2" inkscape:pageopacity="0.0" inkscape:pagecheckerboard="0" inkscape:deskcolor="#d1d1d1">
        <inkscape:page x="0" y="0" width="272.26001" height="272.1369" id="page2" margin="0" bleed="0"/>
    </sodipodi:namedview>
    <defs id="defs1">
        <style type="text/css" id="style1">
            <![CDATA[.str5{stroke:#AF9778;stroke-width:1.43;stroke-miterlimit:22.9256;stroke-opacity:0.250980}.str6{stroke:#5B5A50;stroke-width:1.66;stroke-miterlimit:22.9256;stroke-opacity:0.349020}.str9{stroke:#F08143;stroke-width:1.43;stroke-miterlimit:22.9256;stroke-opacity:0.501961}.str10{stroke:#EBECEC;stroke-width:2.02;stroke-miterlimit:22.9256;stroke-opacity:0.501961}.str1{stroke:#FFED00;stroke-width:2.02;stroke-miterlimit:22.9256;stroke-opacity:0.501961}.str3{stroke:#008DD2;stroke-width:1.43;stroke-miterlimit:22.9256;stroke-opacity:0.580392}.str4{stroke:#C5C6C6;stroke-width:1.43;stroke-miterlimit:22.9256;stroke-opacity:0.600000}.str2{stroke:#BD77A1;stroke-width:2.02;stroke-miterlimit:22.9256;stroke-dasharray:4.040000 6.060000;stroke-opacity:0.600000}.str7{stroke:#5CA595;stroke-width:2.02;stroke-miterlimit:22.9256;stroke-opacity:0.639216}.str8{stroke:#AF9778;stroke-width:1.43;stroke-miterlimit:22.9256;stroke-opacity:0.780392}.fil35{fill:none;fill-rule:nonzero}.fil37{fill:none;fill-rule:nonzero}.fil26{fill:none}.fil48{fill:none;fill-rule:nonzero}.fil28{fill:none}.fil38{fill:none;fill-rule:nonzero}.fil40{fill:none;fill-rule:nonzero}.fil14{fill:#D9DADA}.fil15{fill:#C5C6C6}.fil19{fill:#B2B3B3}.fil12{fill:#9D9E9E}.fil11{fill:#D19563}.fil17{fill:#E31E24}.fil18{fill:#539433}.fil46{fill:#00A0E3}.fil8{fill:#008DD2}.fil9{fill:#8FA883}.fil7{fill:#ACD4DE}.fil6{fill:#ACDDA1}.fil16{fill:#BDBDBD}.fil10{fill:#CFCBC4}.fil4{fill:#EAEBD5}.fil3{fill:#ECEDD3}.fil5{fill:#EDEED6}.fil2{fill:#EDEFD4}.fil0{fill:#F0EBE2}.fil1{fill:#F1EEE9}.fil45{fill:#2B2A29;fill-rule:nonzero}.fil42{fill:black;fill-rule:nonzero}.fil47{fill:#F08143;fill-rule:nonzero;fill-opacity:0.090196}.fil34{fill:#86755D;fill-rule:nonzero;fill-opacity:0.101961}.fil36{fill:#FECC00;fill-rule:nonzero;fill-opacity:0.149020}.fil32{fill:black;fill-rule:nonzero;fill-opacity:0.149020}.fil30{fill:#748187;fill-rule:nonzero;fill-opacity:0.168627}.fil39{fill:#AF9778;fill-rule:nonzero;fill-opacity:0.211765}.fil20{fill:#BBC274;fill-opacity:0.258824}.fil22{fill:#BBC274;fill-opacity:0.360784}.fil43{fill:#CDD957;fill-opacity:0.439216}.fil44{fill:#E7EAA2;fill-rule:nonzero;fill-opacity:0.439216}.fil49{fill:#FCD5A6;fill-opacity:0.501961}.fil27{fill:#FECC00;fill-opacity:0.501961}.fil50{fill:#FEDF5F;fill-opacity:0.501961}.fil41{fill:#DBE285;fill-opacity:0.501961}.fil31{fill:#D9DADA;fill-rule:nonzero;fill-opacity:0.580392}.fil33{fill:#EBECEC;fill-rule:nonzero;fill-opacity:0.600000}.fil21{fill:#DBE285;fill-opacity:0.701961}.fil29{fill:#ECC0DB;fill-rule:nonzero;fill-opacity:0.729412}]]>
        </style>
    </defs>
    <g id="Ebene_x0020_1" inkscape:label="Ebene 1" inkscape:groupmode="layer" transform="translate(-303.13,-72.641058)">
        <metadata id="CorelCorpID_0Corel-Layer"/>
        <g id="_2615017424304">
            <circle cx="439.26001" cy="208.50999" r="135.12" id="circle89" style="stroke:#EBECEC;stroke-width:2.02;stroke-miterlimit:22.9256;fill:#EBECEC"/>
            <path d="m 365.52,144.25 c 0,-18.43 14.94,-33.36 33.36,-33.36 18.43,0 33.37,14.93 33.37,33.36 0,18.43 -14.94,33.37 -33.37,33.37 h -66.73 c -4.25,0 -7.7,-3.45 -7.7,-7.7 0,-4.25 3.45,-7.7 7.7,-7.7 h 66.73 c 9.93,0 17.97,-8.04 17.97,-17.97 0,-9.92 -8.04,-17.96 -17.97,-17.96 -9.92,0 -17.96,8.04 -17.96,17.96 v 3.67 c 0,4.25 -3.45,7.7 -7.7,7.7 -4.26,0 -7.7,-3.45 -7.7,-7.7 z" id="path89" style="fill:#A8DAF0"/>
            <path d="m 334.72,231.52 c 0,-4.25 3.44,-7.7 7.7,-7.7 h 148.86 c 24.1,0 43.63,19.53 43.63,43.63 0,24.1 -19.53,43.64 -43.63,43.64 -24.1,0 -43.63,-19.54 -43.63,-43.64 v -5.13 c 0,-4.25 3.45,-7.7 7.7,-7.7 4.25,0 7.7,3.45 7.7,7.7 v 5.13 c 0,15.59 12.64,28.24 28.23,28.24 15.6,0 28.24,-12.65 28.24,-28.24 0,-15.59 -12.64,-28.23 -28.24,-28.23 H 342.42 c -4.26,0 -7.7,-3.45 -7.7,-7.7 z" id="path90" style="fill:#A7D5E8;fill-rule:nonzero;fill-opacity:0.400000"/>
            <path d="m 447.65,164.79 c 0,-24.1 19.53,-43.64 43.63,-43.64 24.1,0 43.63,19.54 43.63,43.64 0,24.09 -19.53,43.63 -43.63,43.63 h -169.4 c -4.25,0 -7.7,-3.45 -7.7,-7.7 0,-4.25 3.45,-7.7 7.7,-7.7 h 169.4 c 15.6,0 28.24,-12.64 28.24,-28.23 0,-15.6 -12.64,-28.24 -28.24,-28.24 -15.59,0 -28.23,12.64 -28.23,28.24 v 5.13 c 0,4.25 -3.45,7.7 -7.7,7.7 -4.25,0 -7.7,-3.45 -7.7,-7.7 z" id="path91" style="fill:#8BC9E3;fill-rule:nonzero;fill-opacity:0.701961"/>
        </g>
    </g>
</svg>
