<?xml version="1.0" encoding="UTF-8" standalone="no"?>
<!--Creator: CorelDRAW 2021.5-->
<svg xml:space="preserve" width="315.92935" height="315.92935" version="1.1" style="clip-rule:evenodd;fill-rule:evenodd;image-rendering:optimizeQuality;shape-rendering:geometricPrecision;text-rendering:geometricPrecision" viewBox="0 0 270.04002 269.99322" id="svg182" xmlns="http://www.w3.org/2000/svg" xmlns:svg="http://www.w3.org/2000/svg">
    <defs id="defs1">
        <style type="text/css" id="style1">
            <![CDATA[.str1{stroke:#B0CB1F;stroke-width:2.02;stroke-miterlimit:22.9256}.fil14{fill:#D9DADA}.fil15{fill:#C5C6C6}.fil19{fill:#B2B3B3}.fil12{fill:#9D9E9E}.fil20{fill:#FCD5A6}.fil11{fill:#D19563}.fil17{fill:#E31E24}.fil21{fill:#DBE285}.fil22{fill:#BBC274}.fil36{fill:#B0CB1F}.fil18{fill:#539433}.fil8{fill:#008DD2}.fil9{fill:#8FA883}.fil7{fill:#ACD4DE}.fil6{fill:#ACDDA1}.fil16{fill:#BDBDBD}.fil10{fill:#CFCBC4}.fil4{fill:#EAEBD5}.fil3{fill:#ECEDD3}.fil5{fill:#EDEED6}.fil2{fill:#EDEFD4}.fil0{fill:#F0EBE2}.fil1{fill:#F1EEE9}.fil38{fill:#2B2A29;fill-rule:nonzero}.fil37{fill:#B0CB1F;fill-rule:nonzero}.fil35{fill:black;fill-rule:nonzero}.fil26{fill:#FECC00;fill-opacity:0.501961}.fil39{fill:#F08143;fill-rule:nonzero;fill-opacity:0.501961}.fil29{fill:#748187;fill-rule:nonzero;fill-opacity:0.580392}.fil27{fill:#B1709C;fill-opacity:0.600000}.fil31{fill:#86755D;fill-rule:nonzero;fill-opacity:0.600000}.fil30{fill:black;fill-rule:nonzero;fill-opacity:0.600000}.fil32{fill:#86755D;fill-rule:nonzero;fill-opacity:0.611765}.fil28{fill:#AE4A84;fill-rule:nonzero;fill-opacity:0.729412}.fil33{fill:#61A375;fill-rule:nonzero;fill-opacity:0.760784}.fil34{fill:#AF9778;fill-rule:nonzero;fill-opacity:0.780392}]]>
        </style>
    </defs>
    <g id="Ebene_x0020_1" transform="translate(-303.92001,-73.439982)">
        <metadata id="CorelCorpID_0Corel-Layer"/>
        <g id="_2094513010384" style="stroke:none">
            <circle cx="438.94" cy="208.36" id="circle89" style="stroke-miterlimit:22.9256;fill:#ebecec;fill-opacity:1;stroke:none;stroke-width:0;stroke-dasharray:none" r="135.02"/>
            <path d="m 365.26,144.15 c 0,-18.41 14.92,-33.34 33.34,-33.34 18.41,0 33.34,14.93 33.34,33.34 0,18.41 -14.93,33.34 -33.34,33.34 h -66.69 c -4.25,0 -7.69,-3.44 -7.69,-7.69 0,-4.25 3.44,-7.7 7.69,-7.7 h 66.69 c 9.91,0 17.95,-8.03 17.95,-17.95 0,-9.92 -8.04,-17.95 -17.95,-17.95 -9.92,0 -17.96,8.03 -17.96,17.95 v 3.66 c 0,4.25 -3.44,7.7 -7.69,7.7 -4.25,0 -7.69,-3.45 -7.69,-7.7 z" id="path89" style="fill:#00A0E3;stroke:none"/>
            <path d="m 334.48,231.35 c 0,-4.25 3.44,-7.69 7.69,-7.69 h 148.76 c 24.08,0 43.6,19.52 43.6,43.6 0,24.08 -19.52,43.6 -43.6,43.6 -24.08,0 -43.6,-19.52 -43.6,-43.6 v -5.13 c 0,-4.25 3.45,-7.69 7.69,-7.69 4.25,0 7.7,3.44 7.7,7.69 v 5.13 c 0,15.58 12.63,28.21 28.21,28.21 15.58,0 28.21,-12.63 28.21,-28.21 0,-15.58 -12.63,-28.21 -28.21,-28.21 H 342.17 c -4.25,0 -7.69,-3.45 -7.69,-7.7 z" id="path90" style="fill:#00A0E3;fill-rule:nonzero;fill-opacity:0.400000;stroke:none"/>
            <path d="m 447.33,164.67 c 0,-24.08 19.52,-43.6 43.6,-43.6 24.08,0 43.6,19.52 43.6,43.6 0,24.08 -19.52,43.6 -43.6,43.6 H 321.65 c -4.25,0 -7.69,-3.44 -7.69,-7.69 0,-4.25 3.44,-7.7 7.69,-7.7 h 169.28 c 15.58,0 28.21,-12.63 28.21,-28.21 0,-15.58 -12.63,-28.21 -28.21,-28.21 -15.58,0 -28.21,12.63 -28.21,28.21 v 5.13 c 0,4.25 -3.45,7.69 -7.7,7.69 -4.24,0 -7.69,-3.44 -7.69,-7.69 z" id="path91" style="fill:#00A0E3;fill-rule:nonzero;fill-opacity:0.701961;stroke:none"/>
        </g>
    </g>
</svg>
