# Blender 5.1.1
# www.blender.org
mtllib Historic_Default_Window01_2.0x4.0.mtl
o Historic_Default_Window01_2.0x4.0
v 1.000000 4.000001 0.000000
v 0.748023 3.104151 0.000000
v 0.574779 1.200830 0.077059
v 0.574779 2.937961 -0.205583
v 0.574779 2.937961 0.077060
v 0.748023 1.200830 0.000000
v 0.574779 1.200830 -0.205583
v 0.670516 1.200830 0.077059
v 0.670516 3.029800 0.077060
v 0.748023 3.104151 0.113567
v 0.748023 1.200830 0.113567
v 0.670516 1.200830 0.113567
v 0.670516 3.029800 0.113567
v 0.748023 0.878612 0.000000
v 0.748023 0.000000 0.000000
v 1.000000 0.000000 0.000000
v 0.748023 1.018614 0.000000
v 1.000000 1.018614 0.000000
v 0.748023 1.018614 0.113567
v 0.748023 0.878612 0.113567
v 0.823742 1.200830 0.000000
v 0.823742 1.094384 0.000000
v 0.823742 1.094384 0.198566
v 0.823742 1.200830 0.198566
v 1.000000 3.104151 0.000000
v 1.000000 1.200830 0.000000
v -1.000000 4.000001 0.000000
v -0.748023 3.104151 0.000000
v -0.574779 1.200830 0.077059
v -0.574779 2.937961 -0.205583
v -0.574779 2.937961 0.077060
v -0.748023 1.200830 0.000000
v -0.574779 1.200830 -0.205583
v -0.670516 1.200830 0.077059
v -0.670516 3.029800 0.077060
v -0.748023 3.104151 0.113567
v -0.748023 1.200830 0.113567
v -0.670516 1.200830 0.113567
v -0.670516 3.029800 0.113567
v -0.748023 0.878612 0.000000
v -0.748023 0.000000 0.000000
v -1.000000 0.000000 0.000000
v -0.748023 1.018614 0.000000
v -1.000000 1.018614 0.000000
v -0.748023 1.018614 0.113567
v -0.748023 0.878612 0.113567
v -0.823742 1.200830 0.000000
v -0.823742 1.094384 0.000000
v -0.823742 1.094384 0.198566
v -0.823742 1.200830 0.198566
v -1.000000 3.104151 0.000000
v -1.000000 1.200830 0.000000
v 0.574908 2.937961 -0.178777
v 0.574908 1.213915 -0.178777
v 0.574908 2.304436 -0.178777
v 0.574908 2.367378 -0.178777
v 0.541182 2.937961 -0.178777
v 0.541182 1.213915 -0.178777
v 0.574908 2.901919 -0.178777
v 0.574908 1.246493 -0.178777
v 0.574908 2.367378 -0.154556
v 0.025079 1.213915 -0.178777
v 0.574908 2.304436 -0.149504
v 0.000000 2.304436 -0.149504
v 0.574908 2.358969 -0.149504
v 0.574908 2.316751 -0.149504
v 0.574908 2.321623 -0.142803
v 0.574908 2.341145 -0.142803
v 0.574908 2.353322 -0.126766
v 0.574908 2.341145 -0.133125
v 0.025079 1.213915 -0.173361
v 0.018079 1.213915 -0.166361
v 0.018079 2.304436 -0.166361
v 0.025079 2.304436 -0.173361
v 0.025079 1.246493 -0.173361
v 0.018079 1.246493 -0.166361
v 0.042661 2.286854 -0.195670
v 0.523599 2.286854 -0.195670
v 0.523599 2.384960 -0.195670
v 0.523599 2.884336 -0.195670
v 0.523599 1.264076 -0.195670
v 0.042661 1.264076 -0.195670
v 0.025079 2.304436 -0.195670
v 0.541182 2.304436 -0.195670
v 0.541182 2.367378 -0.195670
v 0.541182 2.901919 -0.195670
v 0.541182 1.246493 -0.195670
v 0.025079 1.246493 -0.195670
v 0.048474 2.281040 -0.202089
v 0.517786 2.281040 -0.202089
v 0.517677 2.390882 -0.202089
v 0.517677 2.878414 -0.202089
v 0.517786 1.269889 -0.202089
v 0.048474 1.269889 -0.202089
v 0.541182 2.304436 -0.184777
v 0.547182 2.304436 -0.178777
v 0.541182 1.246493 -0.184777
v 0.547182 1.240493 -0.178777
v 0.025079 1.240493 -0.178777
v 0.025079 1.246493 -0.184777
v 0.547182 2.367378 -0.178777
v 0.541182 2.367378 -0.184777
v 0.541182 2.367378 -0.178777
v 0.547182 2.907919 -0.178777
v 0.541182 2.901919 -0.184777
v 0.836342 1.202108 0.201729
v 0.836342 1.210000 -0.150851
v 0.836342 1.197884 0.205276
v 0.836342 1.179606 0.205276
v 0.836342 1.194059 0.196364
v 0.836342 1.199042 -0.150851
v 0.836342 1.191490 0.198245
v 0.836342 1.179606 0.198245
v 0.836342 1.219650 -0.154166
v 0.836342 1.219650 -0.182285
v -0.574908 2.937961 -0.178777
v -0.574908 1.213915 -0.178777
v -0.574908 2.304436 -0.178777
v -0.574908 2.367378 -0.178777
v -0.541182 2.937961 -0.178777
v -0.541182 1.213915 -0.178777
v -0.574908 2.901919 -0.178777
v -0.574908 1.246493 -0.178777
v -0.574908 2.367378 -0.154556
v -0.025079 1.213915 -0.178777
v -0.574908 2.304436 -0.149504
v -0.574908 2.358969 -0.149504
v -0.574908 2.316751 -0.149504
v -0.574908 2.321623 -0.142803
v -0.574908 2.341145 -0.142803
v -0.574908 2.353322 -0.126766
v -0.574908 2.341145 -0.133125
v -0.025079 1.213915 -0.173361
v -0.018079 1.213915 -0.166361
v -0.018079 2.304436 -0.166361
v -0.025079 2.304436 -0.173361
v -0.025079 1.246493 -0.173361
v -0.018079 1.246493 -0.166361
v -0.042661 2.286854 -0.195670
v -0.523599 2.286854 -0.195670
v -0.523599 2.384960 -0.195670
v -0.523599 2.884336 -0.195670
v -0.523599 1.264076 -0.195670
v -0.042661 1.264076 -0.195670
v -0.025079 2.304436 -0.195670
v -0.541182 2.304436 -0.195670
v -0.541182 2.367378 -0.195670
v -0.541182 2.901919 -0.195670
v -0.541182 1.246493 -0.195670
v -0.025079 1.246493 -0.195670
v -0.048474 2.281040 -0.202089
v -0.517786 2.281040 -0.202089
v -0.517677 2.390882 -0.202089
v -0.517677 2.878414 -0.202089
v -0.517786 1.269889 -0.202089
v -0.048474 1.269889 -0.202089
v -0.541182 2.304436 -0.184777
v -0.547182 2.304436 -0.178777
v -0.541182 1.246493 -0.184777
v -0.547182 1.240493 -0.178777
v -0.025079 1.240493 -0.178777
v -0.025079 1.246493 -0.184777
v -0.547182 2.367378 -0.178777
v -0.541182 2.367378 -0.184777
v -0.541182 2.367378 -0.178777
v -0.547182 2.907919 -0.178777
v -0.541182 2.901919 -0.184777
v -0.836342 1.202108 0.201729
v -0.836342 1.210000 -0.150851
v -0.836342 1.197884 0.205276
v -0.836342 1.179606 0.205276
v -0.836342 1.194059 0.196364
v -0.836342 1.199042 -0.150851
v -0.836342 1.191490 0.198245
v -0.836342 1.179606 0.198245
v -0.836342 1.219650 -0.154166
v -0.836342 1.219650 -0.182285
vn -1.0000 -0.0000 -0.0000
vn -0.0000 -1.0000 -0.0000
vn 1.0000 -0.0000 -0.0000
vn -0.0000 -0.0000 1.0000
vn -0.0000 1.0000 -0.0000
vn 0.7073 -0.7069 -0.0000
vn -0.0000 -0.7465 0.6654
vn -0.7073 -0.7069 -0.0000
vn -0.0000 -0.8088 0.5881
vn -0.0000 -0.4629 0.8864
vn -0.0000 0.9705 0.2410
vn -0.1601 -0.0000 0.9871
vn 0.1601 0.0001 0.9871
vn 0.8623 -0.0000 0.5065
vn 0.9596 -0.0001 0.2815
vn 0.9596 -0.0000 0.2815
vn -0.0000 0.0001 1.0000
vn -0.7412 -0.0000 0.6713
vn -0.1942 -0.0000 0.9810
vn 0.1942 -0.0000 0.9810
vn -0.0000 0.7350 0.6781
vn -0.0000 0.1930 0.9812
vn -0.0000 -0.1930 0.9812
vn -0.0000 0.7412 0.6713
vn -0.0000 -0.7350 0.6781
vn 0.7412 -0.0000 0.6713
vn -0.0001 -0.0000 1.0000
vn -0.0000 -0.0001 1.0000
vn -0.0000 -0.9419 0.3358
vn -0.0000 -0.7412 0.6713
vn -0.7350 -0.0000 0.6781
vn -0.9421 -0.0000 0.3352
vn -0.9421 -0.0000 0.3353
vn -0.0000 0.1812 0.9835
vn -0.0000 0.9419 0.3358
vn -0.9419 -0.0000 0.3358
vn -0.0000 0.5150 0.8572
vn -0.0000 0.3248 0.9458
vn -0.0000 0.9997 0.0224
vn -0.0000 -0.9999 -0.0144
vn -0.0000 -0.0000 -1.0000
vn -0.9596 -0.0000 0.2815
vn -0.8623 -0.0000 0.5065
vn 0.7350 -0.0000 0.6781
vn 0.9421 -0.0000 0.3352
vn 0.9421 -0.0000 0.3353
vn 0.9419 -0.0000 0.3358
vt 0.711237 0.553784
vt 0.714313 0.549512
vt 0.716206 0.596417
vt 0.711958 0.592457
vt 0.686191 0.590006
vt 0.713302 0.591345
vt 0.682978 0.594156
vt 0.725841 0.608917
vt 0.723612 0.605888
vt 0.719675 0.544920
vt 0.721399 0.542019
vt 0.675454 0.599025
vt 0.678472 0.597091
vt 0.720649 0.602191
vt 0.735288 0.609432
vt 0.730234 0.644892
vt 0.716890 0.548050
vt 0.719573 0.600448
vt 0.657999 0.631314
vt 0.673100 0.600841
vt 0.717416 0.546350
vt 0.679558 0.596514
vt 0.674149 0.536852
vt 0.665987 0.508865
vt 0.714012 0.494796
vt 0.721251 0.525803
vt 0.731936 0.530330
vt 0.722639 0.531083
vt 0.676826 0.543290
vt 0.720713 0.535080
vt 0.720926 0.537027
vt 0.677129 0.544569
vt 0.723168 0.490058
vt 0.724502 0.534447
vt 0.719990 0.532403
vt 0.678272 0.548490
vt 0.676187 0.538193
vt 0.719507 0.528490
vt 0.676945 0.541200
vt 0.724364 0.539531
vt 0.731872 0.538893
vt 0.687762 0.554914
vt 0.687249 0.591511
vt 0.684649 0.551809
vt 0.680087 0.550289
vt 0.665093 0.599712
vt 0.682723 0.550990
vt 0.682152 0.550411
vt 0.668206 0.543316
vt 0.674623 0.540966
vt 0.657999 0.511418
vt 0.674092 0.543859
vt 0.675484 0.547378
vt 0.670209 0.547948
vt 0.110687 0.491174
vt 0.110687 0.508824
vt 0.102458 0.499999
vt 0.092402 0.780643
vt 0.092402 0.219357
vt 0.096446 0.219357
vt 0.096446 0.780643
vt 0.102458 0.219357
vt 0.102458 0.780643
vt 0.071442 0.219357
vt 0.078148 0.219357
vt 0.078148 0.780643
vt 0.071442 0.780643
vt 0.082873 0.219357
vt 0.082872 0.780643
vt 0.060006 0.219357
vt 0.060005 0.780643
vt 0.167588 0.458583
vt 0.151709 0.458583
vt 0.151709 0.440960
vt 0.167588 0.440960
vt 0.151709 0.436134
vt 0.167588 0.436134
vt 0.683249 0.440959
vt 0.683249 0.436134
vt 0.683249 0.458583
vt 0.456748 0.899795
vt 0.447839 0.899796
vt 0.447839 0.084500
vt 0.456747 0.084499
vt 0.816152 0.196146
vt 0.322041 0.195999
vt 0.318590 0.192346
vt 0.819614 0.192565
vt 0.819665 0.428855
vt 0.828240 0.183941
vt 0.828294 0.437478
vt 0.158571 0.721058
vt 0.154879 0.724566
vt 0.154648 0.211704
vt 0.158397 0.215212
vt 0.400268 0.211697
vt 0.146017 0.203077
vt 0.408897 0.203068
vt 0.309958 0.183711
vt 0.318598 0.429065
vt 0.309958 0.437700
vt 0.347163 0.416857
vt 0.851813 0.416857
vt 0.851813 0.654489
vt 0.347163 0.654489
vt 0.408897 0.733208
vt 0.400272 0.724582
vt 0.790409 0.484827
vt 0.790409 0.713577
vt 0.297557 0.713577
vt 0.297557 0.484827
vt 0.322228 0.195782
vt 0.322243 0.425682
vt 0.396623 0.721025
vt 0.396575 0.215196
vt 0.322060 0.425359
vt 0.816264 0.425301
vt 0.264436 0.136347
vt 0.797848 0.136346
vt 0.794923 0.140483
vt 0.267361 0.140483
vt 0.815966 0.425324
vt 0.815992 0.196069
vt 0.396787 0.215376
vt 0.158075 0.215388
vt 0.164663 0.433495
vt 0.167588 0.430570
vt 0.683245 0.174053
vt 0.167588 0.174055
vt 0.164664 0.169919
vt 0.683245 0.169917
vt 0.164664 0.424401
vt 0.168799 0.172843
vt 0.168799 0.424401
vt 0.683245 0.156403
vt 0.167588 0.156404
vt 0.114104 0.512241
vt 0.116747 0.767108
vt 0.124994 0.764179
vt 0.119676 0.764179
vt 0.124994 0.512241
vt 0.683245 0.179362
vt 0.167588 0.179364
vt 0.116747 0.780643
vt 0.151709 0.424401
vt 0.151709 0.172843
vt 0.174109 0.172843
vt 0.174109 0.424401
vt 0.151709 0.156404
vt 0.151709 0.433495
vt 0.167588 0.425261
vt 0.683249 0.425260
vt 0.043393 0.767108
vt 0.040464 0.764179
vt 0.043393 0.764179
vt 0.264435 0.399817
vt 0.268572 0.139271
vt 0.268571 0.399817
vt 0.267361 0.121704
vt 0.794923 0.121704
vt 0.043393 0.780643
vt 0.055217 0.780643
vt 0.040464 0.235821
vt 0.043393 0.235821
vt 0.250920 0.399816
vt 0.250921 0.139271
vt 0.273881 0.139271
vt 0.273880 0.399817
vt 0.794923 0.145792
vt 0.267361 0.145792
vt 0.055217 0.219357
vt 0.250921 0.121704
vt 0.444411 0.899795
vt 0.444412 0.084500
vt 0.636307 0.084500
vt 0.636307 0.899796
vt 0.631334 0.899796
vt 0.631333 0.084499
vt 0.578888 0.603018
vt 0.578888 0.774915
vt 0.574907 0.772388
vt 0.573548 0.603138
vt 0.576868 0.776689
vt 0.573675 0.773333
vt 0.567961 0.776889
vt 0.567884 0.773463
vt 0.459435 0.899795
vt 0.459436 0.084499
vt 0.650012 0.084499
vt 0.650012 0.899796
vt 0.267811 0.899795
vt 0.267811 0.084499
vt 0.437067 0.084499
vt 0.437067 0.899794
vt 0.438620 0.899796
vt 0.438620 0.084500
vt 0.167588 0.463408
vt 0.151709 0.463408
vt 0.683249 0.463408
vt 0.332054 0.687915
vt 0.328471 0.691268
vt 0.328475 0.190010
vt 0.332181 0.193473
vt 0.564745 0.691184
vt 0.573367 0.699811
vt 0.319845 0.699897
vt 0.146256 0.733194
vt 0.319845 0.181365
vt 0.573764 0.181562
vt 0.565127 0.190187
vt 0.585784 0.856376
vt 0.092931 0.856376
vt 0.092931 0.627626
vt 0.585784 0.627626
vt 0.331856 0.193656
vt 0.561689 0.193823
vt 0.561472 0.193636
vt 0.561138 0.687675
vt 0.561269 0.687608
vt 0.331976 0.687522
vt 0.396749 0.720967
vt 0.158359 0.720884
vt 0.164664 0.466048
vt 0.167588 0.468973
vt 0.229656 0.697400
vt 0.225520 0.697400
vt 0.225518 0.178818
vt 0.229654 0.181742
vt 0.480000 0.178818
vt 0.480000 0.182954
vt 0.228443 0.182954
vt 0.212006 0.697400
vt 0.212004 0.181742
vt 0.116747 0.232892
vt 0.114104 0.487757
vt 0.124994 0.235821
vt 0.124994 0.487757
vt 0.119676 0.235821
vt 0.234963 0.181742
vt 0.234966 0.697400
vt 0.116747 0.219357
vt 0.228443 0.165863
vt 0.480000 0.165863
vt 0.480000 0.188263
vt 0.228443 0.188263
vt 0.212004 0.165863
vt 0.151709 0.466048
vt 0.683249 0.474282
vt 0.167588 0.474282
vt 0.043393 0.232892
vt 0.797847 0.399816
vt 0.793711 0.399816
vt 0.793712 0.139271
vt 0.043393 0.219357
vt 0.035147 0.764179
vt 0.035147 0.235821
vt 0.811362 0.139271
vt 0.811362 0.399817
vt 0.788402 0.399816
vt 0.788402 0.139271
vt 0.811362 0.121704
vt 0.567025 0.776889
vt 0.561685 0.776769
vt 0.563044 0.607519
vt 0.567025 0.604992
vt 0.561812 0.606574
vt 0.565005 0.603218
vt 0.556022 0.606444
vt 0.556098 0.603018
s 0
g Historic_Default_Window01_2.0x4.0_Wall_Primary
usemtl Wall_Primary
f 2/8/4 25/15/4 1/16/4
f 1/16/4 27/19/4 28/20/4 2/8/4
f 40/23/4 41/24/4 15/25/4 14/26/4
f 18/27/4 17/28/4 14/26/4
f 18/27/4 14/26/4 15/25/4 16/33/4
f 18/27/4 22/34/4 17/28/4
f 21/40/4 26/41/4 25/15/4 2/8/4
f 6/11/4 21/40/4 2/8/4
f 26/41/4 21/40/4 22/34/4 18/27/4
f 28/20/4 27/19/4 51/46/4
f 44/49/4 40/23/4 43/50/4
f 44/49/4 42/51/4 41/24/4 40/23/4
f 44/49/4 43/50/4 48/52/4
f 47/53/4 28/20/4 51/46/4 52/54/4
f 32/36/4 28/20/4 47/53/4
f 52/54/4 44/49/4 48/52/4 47/53/4
g Historic_Default_Window01_2.0x4.0_Wall_Secondary
usemtl Wall_Secondary
f 7/1/1 3/2/1 5/3/1 4/4/1
f 30/5/2 4/6/2 5/3/2 31/7/2
f 2/8/3 10/9/3 11/10/3 6/11/3
f 36/12/4 39/13/4 13/14/4 10/9/4
f 3/2/4 8/17/4 9/18/4 5/3/4
f 12/21/4 11/10/4 10/9/4 13/14/4
f 13/14/2 39/13/2 35/22/2 9/18/2
f 9/18/1 8/17/1 12/21/1 13/14/1
f 2/8/5 28/20/5 36/12/5 10/9/5
f 49/29/4 23/30/4 24/31/4 50/32/4
f 17/28/6 22/34/6 23/30/6 19/35/6
f 32/36/5 50/32/5 24/31/5 6/11/5
f 46/37/4 20/38/4 19/35/4 45/39/4
f 45/39/7 19/35/7 23/30/7 49/29/7
f 6/11/5 24/31/5 21/40/5
f 20/38/2 46/37/2 40/23/2 14/26/2
f 14/26/3 17/28/3 19/35/3 20/38/3
f 22/34/3 21/40/3 24/31/3 23/30/3
f 33/42/3 30/43/3 31/7/3 29/44/3
f 28/20/1 32/36/1 37/45/1 36/12/1
f 29/44/4 31/7/4 35/22/4 34/47/4
f 38/48/4 39/13/4 36/12/4 37/45/4
f 35/22/3 39/13/3 38/48/3 34/47/3
f 43/50/8 45/39/8 49/29/8 48/52/8
f 32/36/5 47/53/5 50/32/5
f 40/23/1 46/37/1 45/39/1 43/50/1
f 48/52/1 49/29/1 50/32/1 47/53/1
f 35/22/4 31/7/4 5/3/4 9/18/4
s 1
g Historic_Default_Window01_2.0x4.0_Window_Sill
usemtl Window_Sill
f 170/81/17 171/82/4 109/83/4 108/84/17
f 171/82/2 175/173/2 113/174/2 109/83/2
f 114/175/38 176/176/38 169/177/38 107/178/38
f 107/179/3 106/180/3 110/181/3 111/182/3
f 106/180/3 108/183/3 112/184/3 110/181/3
f 108/183/3 109/185/3 113/186/3 112/184/3
f 107/178/39 169/177/39 168/187/39 106/188/39
f 115/189/5 177/190/5 176/176/5 114/175/5
f 168/187/39 170/81/17 108/84/17 106/188/39
f 173/191/40 111/192/40 110/193/40 172/194/40
f 174/195/41 112/196/41 113/174/41 175/173/41
f 172/194/40 110/193/40 112/196/41 174/195/41
f 169/262/1 173/263/1 172/264/1 168/265/1
f 168/265/1 172/264/1 174/266/1 170/267/1
f 170/267/1 174/266/1 175/268/1 171/269/1
g Historic_Default_Window01_2.0x4.0_Window_Frame
usemtl Window_Frame
f 135/55/2 73/56/2 64/57/2
f 67/58/9 129/59/9 128/60/9 66/61/9
f 128/60/4 126/62/4 64/57/4 63/63/4 66/61/4
f 131/64/10 132/65/10 70/66/10 69/67/10
f 130/68/4 129/59/4 67/58/4 68/69/4
f 70/66/2 132/65/2 130/68/2 68/69/2
f 127/70/11 131/64/11 69/67/11 65/71/11
f 138/72/4 134/73/12 72/74/13 76/75/4
f 76/75/4 72/74/13 71/76/14 75/77/15
f 73/78/4 76/75/4 75/77/15 74/79/16
f 135/80/4 138/72/4 76/75/4 73/78/4
f 64/57/2 73/56/2 63/63/2
f 90/85/18 93/86/18 81/87/19 78/88/19
f 77/89/20 78/88/19 84/90/4 83/91/4
f 153/92/21 141/93/22 79/94/22 91/95/21
f 80/96/23 79/94/22 85/97/4 86/98/4
f 78/88/19 81/87/19 87/99/4 84/90/4
f 81/87/19 82/100/20 88/101/4 87/99/4
f 82/100/20 77/89/20 83/91/4 88/101/4
f 86/98/4 148/106/4 142/107/23 80/96/23
f 93/112/24 94/113/24 82/100/20 81/87/19
f 80/96/23 142/107/23 154/114/25 92/115/25
f 94/116/26 89/117/26 77/89/20 82/100/20
f 104/118/27 166/119/28 167/120/29 105/121/29
f 89/122/30 90/123/30 78/88/19 77/89/20
f 92/124/31 91/125/31 79/94/22 80/96/23
f 99/126/3 100/127/3 75/77/15
f 95/128/32 97/129/33 98/130/4 96/131/4
f 99/132/34 98/130/4 97/133/35 100/134/35
f 55/135/4 96/131/4 98/130/4 60/136/4
f 63/63/2 73/56/2 74/137/2 96/138/2
f 84/139/2 95/140/2 74/137/2 83/141/2
f 97/129/33 95/128/32 84/142/1 87/143/1
f 96/138/2 55/144/2 63/63/2
f 95/140/2 96/138/2 74/137/2
f 98/130/4 99/132/34 62/145/4 58/146/4
f 100/134/35 97/133/35 87/147/5 88/148/5
f 60/136/4 98/130/4 58/146/4 54/149/4
f 62/150/3 99/126/3 75/77/15 71/76/14
f 100/127/3 88/151/3 83/152/3
f 100/127/3 83/152/3 74/79/16 75/77/15
f 101/153/5 102/154/5 103/155/5
f 101/156/4 104/118/27 105/157/36 102/158/36
f 57/159/4 120/160/4 166/119/28 104/118/27
f 56/161/5 101/153/5 103/155/5 61/162/5
f 102/154/5 164/163/5 165/164/5 103/155/5
f 104/118/27 101/156/4 56/165/4 59/166/4
f 102/158/36 105/157/36 86/167/1 85/168/1
f 167/120/29 148/169/2 86/170/2 105/121/29
f 124/171/37 127/70/37 65/71/37 61/162/37
f 57/159/4 104/118/27 59/166/4 53/172/4
f 138/72/4 137/197/42 133/198/43 134/73/12
f 135/80/4 136/199/42 137/197/42 138/72/4
f 64/57/2 126/62/2 135/55/2
f 152/200/26 140/201/20 143/202/20 155/203/26
f 139/204/19 145/205/4 146/206/4 140/201/20
f 142/107/23 148/106/4 147/207/4 141/93/22
f 140/201/20 146/206/4 149/208/4 143/202/20
f 143/202/20 149/208/4 150/209/4 144/210/19
f 144/210/19 150/209/4 145/205/4 139/204/19
f 155/215/24 143/202/20 144/210/19 156/216/24
f 156/217/18 144/210/19 139/204/19 151/218/18
f 151/219/30 139/204/19 140/201/20 152/220/30
f 154/221/44 142/107/23 141/93/22 153/222/44
f 161/223/1 137/197/42 162/224/1
f 157/225/45 158/226/4 160/227/4 159/228/46
f 161/229/34 162/230/35 159/231/35 160/227/4
f 118/232/4 123/233/4 160/227/4 158/226/4
f 126/62/2 158/234/2 136/235/2 135/55/2
f 146/236/2 145/237/2 136/235/2 157/238/2
f 159/228/46 149/239/3 146/240/3 157/225/45
f 158/234/2 126/62/2 118/241/2
f 157/238/2 136/235/2 158/234/2
f 160/227/4 121/242/4 125/243/4 161/229/34
f 162/230/35 150/244/5 149/245/5 159/231/35
f 123/233/4 117/246/4 121/242/4 160/227/4
f 125/247/1 133/198/43 137/197/42 161/223/1
f 162/224/1 145/248/1 150/249/1
f 162/224/1 137/197/42 136/199/42 145/248/1
f 163/250/5 165/164/5 164/163/5
f 163/251/4 164/252/47 167/253/47 166/119/28
f 119/254/5 124/171/5 165/164/5 163/250/5
f 103/155/5 165/164/5 124/171/5 61/162/5
f 102/154/5 85/255/5 147/256/5 164/163/5
f 166/119/28 122/257/4 119/258/4 163/251/4
f 164/252/47 147/259/3 148/260/3 167/253/47
f 120/160/4 116/261/4 122/257/4 166/119/28
f 141/93/22 147/207/4 85/97/4 79/94/22
g Historic_Default_Window01_2.0x4.0_Window_Glass
usemtl Window_Glass
f 92/102/4 154/103/4 153/104/4 91/105/4
f 90/108/4 89/109/4 94/110/4 93/111/4
f 152/211/4 155/212/4 156/213/4 151/214/4
