# Blender 5.1.1
# www.blender.org
mtllib Modern_Default_Door01Mirror_2.0x3.0.mtl
o Modern_Default_Door01Mirror_2.0x3.0
v -1.000000 3.002544 0.000000
v -1.000000 0.000000 0.000000
v -0.650000 2.150000 0.000000
v -0.550000 2.050000 -0.200000
v -0.650000 0.000000 0.000000
v -0.560000 0.000000 0.000000
v -0.550000 0.000000 -0.010000
v -0.550000 2.050000 -0.010000
v -0.560000 2.060000 0.000000
v 1.000000 3.002544 0.000000
v 1.000000 0.000000 0.000000
v 0.650000 2.150000 0.000000
v 0.550000 2.050000 -0.200000
v 0.550000 0.000000 -0.200000
v 0.650000 0.000000 0.000000
v 0.560000 0.000000 0.000000
v 0.550000 0.000000 -0.010000
v 0.550000 2.050000 -0.010000
v 0.560000 2.060000 0.000000
v -0.560000 0.000000 -0.200000
v 0.560000 0.000000 -0.200000
v -0.560000 0.000000 0.000000
v 0.560000 0.000000 0.000000
v -0.560000 0.020000 -0.200000
v 0.560000 0.020000 -0.200000
v -0.560000 0.020000 0.000000
v 0.560000 0.020000 0.000000
v -0.550000 0.000000 -0.200000
v 0.478875 1.073007 -0.120000
v 0.478875 0.913832 -0.120000
v 0.412188 0.913832 -0.120000
v 0.412188 1.073007 -0.120000
v 0.478875 1.073007 -0.109962
v 0.412188 1.073007 -0.109962
v 0.412188 0.913832 -0.109962
v 0.478875 0.913832 -0.109962
v 0.434894 1.047706 -0.109962
v 0.424921 1.030433 -0.109962
v 0.434894 1.013159 -0.109962
v 0.454840 1.013159 -0.109962
v 0.464813 1.030433 -0.109962
v 0.454840 1.047706 -0.109962
v 0.424921 1.030433 -0.080053
v 0.434894 1.047706 -0.080053
v 0.434894 1.013159 -0.080053
v 0.454840 1.013159 -0.080053
v 0.464813 1.030433 -0.080053
v 0.454840 1.047706 -0.080053
v 0.454840 1.013159 -0.060942
v 0.464813 1.030433 -0.060942
v 0.454840 1.047706 -0.060942
v 0.423184 1.008019 -0.080053
v 0.423184 1.052846 -0.080053
v 0.423184 1.008019 -0.060942
v 0.423184 1.052846 -0.060942
v 0.402998 1.014121 -0.080053
v 0.402998 1.046744 -0.060942
v 0.402998 1.046744 -0.080053
v 0.402998 1.014121 -0.060942
v 0.397417 1.030433 -0.060942
v 0.397417 1.030433 -0.080053
v 0.470453 1.088159 -0.120000
v 0.420610 1.088159 -0.120000
v 0.420610 0.898680 -0.120000
v 0.470453 0.898680 -0.120000
v 0.470453 1.088159 -0.109962
v 0.420610 1.088159 -0.109962
v 0.420610 0.898680 -0.109962
v 0.470453 0.898680 -0.109962
v 0.456418 1.094904 -0.120000
v 0.434645 1.094904 -0.120000
v 0.434645 0.891935 -0.120000
v 0.456418 0.891935 -0.120000
v 0.456418 1.094904 -0.109962
v 0.434645 1.094904 -0.109962
v 0.434645 0.891935 -0.109962
v 0.456418 0.891935 -0.109962
v -0.550000 2.050000 -0.100000
v -0.550000 0.020000 -0.100000
v -0.517533 2.015829 -0.105573
v -0.523106 2.021402 -0.100000
v -0.523106 0.020000 -0.100000
v -0.517533 0.020000 -0.105573
v -0.517533 2.015829 -0.120000
v -0.517533 0.020000 -0.120000
v -0.517533 1.395082 -0.120000
v -0.378695 1.332219 -0.129510
v -0.378695 0.134014 -0.129510
v -0.378695 1.855986 -0.141290
v -0.378695 1.461832 -0.141290
v -0.378695 0.134014 -0.123131
v -0.387692 0.121413 -0.120000
v -0.378695 1.855986 -0.130000
v -0.387699 1.868595 -0.120000
v -0.378695 1.461832 -0.130000
v -0.387737 1.451832 -0.120000
v -0.387731 1.342219 -0.120000
v -0.378695 1.332219 -0.123131
v 0.550000 2.050000 -0.100000
v 0.550000 0.020000 -0.100000
v 0.517533 2.015829 -0.105573
v 0.523106 2.021402 -0.100000
v 0.523106 0.020000 -0.100000
v 0.517533 0.020000 -0.105573
v 0.517533 2.015829 -0.120000
v 0.517533 0.020000 -0.120000
v 0.517533 1.395082 -0.120000
v 0.378695 1.332219 -0.129510
v 0.378695 0.134014 -0.129510
v 0.378695 1.855986 -0.141290
v 0.378695 1.461832 -0.141290
v 0.378695 0.134014 -0.123131
v 0.387692 0.121413 -0.120000
v 0.378695 1.855986 -0.130000
v 0.387699 1.868595 -0.120000
v 0.378695 1.461832 -0.130000
v 0.387737 1.451832 -0.120000
v 0.387731 1.342219 -0.120000
v 0.378695 1.332219 -0.123131
vn -0.0000 -0.0000 1.0000
vn -0.5774 -0.7886 0.2113
vn -0.5774 -0.7887 0.2113
vn 0.5774 -0.7887 0.2113
vn 0.5773 -0.7887 0.2113
vn -0.0000 -1.0000 -0.0000
vn 0.7887 0.5774 0.2113
vn 0.7887 0.5773 0.2113
vn 0.5000 -0.7071 0.5000
vn -0.7887 0.5774 0.2113
vn -0.5000 -0.7071 0.5000
vn -0.7886 0.5774 0.2113
vn -1.0000 -0.0000 -0.0000
vn -0.0000 1.0000 -0.0000
vn 1.0000 -0.0000 -0.0000
vn -0.0000 -0.0000 -1.0000
vn -0.9680 -0.2509 -0.0000
vn -0.6858 -0.7278 -0.0000
vn 0.9680 0.2509 -0.0000
vn 0.6858 0.7278 -0.0000
vn 0.9680 -0.2509 -0.0000
vn -0.9680 0.2509 -0.0000
vn 0.5000 -0.8660 -0.0000
vn 0.5352 -0.8448 -0.0000
vn -0.5000 -0.8660 -0.0000
vn -0.5000 0.8660 -0.0000
vn 0.5352 0.8448 -0.0000
vn 0.5000 0.8660 -0.0000
vn 0.5680 -0.8230 -0.0000
vn 0.5680 0.8230 -0.0000
vn -0.0662 0.9978 -0.0000
vn -0.0662 -0.9978 -0.0000
vn -0.6942 -0.7198 -0.0000
vn -0.6942 0.7198 -0.0000
vn -0.6858 0.7278 -0.0000
vn 0.6858 -0.7278 -0.0000
vn 0.2221 -0.9750 -0.0000
vn -0.2221 -0.9750 -0.0000
vn -0.2221 0.9750 -0.0000
vn 0.2221 0.9750 -0.0000
vn 0.7886 0.5775 0.2112
vn 0.7887 0.5774 0.2112
vn 0.4999 -0.7072 0.4999
vn -0.0007 -0.6217 0.7832
vn 0.0007 -0.6210 0.7838
vn -0.0007 -0.6210 0.7838
vn 0.0007 -0.6217 0.7832
vn 0.3281 -0.0000 0.9447
vn -0.0000 0.2412 0.9705
vn -0.0000 -0.2988 0.9543
vn 0.7424 -0.0000 0.6699
vn -0.0000 0.7071 0.7071
vn -0.7886 0.5775 0.2112
vn -0.4999 -0.7073 0.4999
vn -0.7887 0.5774 0.2111
vn -0.3281 -0.0000 0.9447
vn -0.7424 -0.0000 0.6699
vn -0.5775 -0.7886 0.2112
vn 0.5775 -0.7886 0.2111
vn 0.5775 -0.7886 0.2112
vt 0.661037 0.000081
vt 0.544454 0.000594
vt 0.543309 0.719264
vt 0.659400 0.999919
vt 0.512250 0.689433
vt 0.506870 0.685182
vt 0.156826 0.689232
vt 0.151618 0.693452
vt 0.491168 0.671424
vt 0.171593 0.675298
vt 0.514949 0.001124
vt 0.510825 0.001728
vt 0.121641 0.723115
vt 0.000081 0.033852
vt 0.009779 0.999919
vt 0.112018 0.032924
vt 0.144252 0.033596
vt 0.140311 0.033064
vt 0.172423 0.033632
vt 0.157267 0.154585
vt 0.481442 0.002155
vt 0.217523 0.536406
vt 0.392380 0.537009
vt 0.392545 0.112680
vt 0.218045 0.112923
vt 0.418152 0.104420
vt 0.387776 0.054706
vt 0.369120 0.074809
vt 0.192016 0.544390
vt 0.221546 0.593633
vt 0.240255 0.573937
vt 0.192618 0.104796
vt 0.418152 0.545244
vt 0.418569 0.135182
vt 0.497755 0.135182
vt 0.497755 0.082374
vt 0.418569 0.082374
vt 0.418569 0.346414
vt 0.497755 0.346414
vt 0.497755 0.293606
vt 0.418569 0.293606
vt 0.497755 0.240798
vt 0.418569 0.240798
vt 0.418569 0.187990
vt 0.497755 0.187990
vt 0.497755 0.029567
vt 0.418569 0.029567
vt 0.589679 0.590763
vt 0.548769 0.624154
vt 0.639053 0.609496
vt 0.548352 0.187990
vt 0.548352 0.135182
vt 0.548352 0.240798
vt 0.548769 0.709061
vt 0.573280 0.759225
vt 0.658534 0.745384
vt 0.665915 0.690041
vt 0.434724 0.751230
vt 0.521093 0.751231
vt 0.477909 0.693189
vt 0.432176 0.666785
vt 0.418569 0.697786
vt 0.523642 0.666785
vt 0.537249 0.697786
vt 0.497755 0.325704
vt 0.548352 0.325704
vt 0.497755 0.613561
vt 0.548352 0.613561
vt 0.548352 0.528654
vt 0.497755 0.528654
vt 0.548352 0.472822
vt 0.497755 0.472822
vt 0.497755 0.381537
vt 0.548352 0.381537
vt 0.497755 0.427179
vt 0.548352 0.427179
vt 0.523642 0.613977
vt 0.432176 0.613977
vt 0.477908 0.766005
vt 0.618275 0.766888
vt 0.275504 0.591754
vt 0.333178 0.593117
vt 0.369011 0.575094
vt 0.241083 0.075561
vt 0.388044 0.595488
vt 0.222594 0.055751
vt 0.269200 0.030795
vt 0.276379 0.058034
vt 0.333574 0.056711
vt 0.340358 0.029567
vt 0.339946 0.621898
vt 0.267929 0.619208
vt 0.024518 0.677488
vt 0.372028 0.677417
vt 0.372027 0.672573
vt 0.024517 0.672645
vt 0.374285 0.679712
vt 0.387377 0.000296
vt 0.384703 0.000244
vt 0.383281 0.689464
vt 0.022278 0.679772
vt 0.013340 0.689464
vt 0.745807 0.402051
vt 0.999849 0.402051
vt 0.999849 0.000151
vt 0.745807 0.000151
vt 0.396504 0.000473
vt 0.379808 0.000151
vt 0.371075 0.466710
vt 0.367133 0.677325
vt 0.701108 0.622886
vt 0.697358 0.618063
vt 0.444259 0.617693
vt 0.440498 0.622504
vt 0.878013 0.402353
vt 0.745807 0.402353
vt 0.745807 0.656396
vt 0.878013 0.656396
vt 0.698242 0.442395
vt 0.701369 0.445845
vt 0.701736 0.034312
vt 0.698614 0.038620
vt 0.443670 0.038665
vt 0.440550 0.034358
vt 0.443768 0.442121
vt 0.440637 0.445565
vt 0.701342 0.482726
vt 0.697566 0.486774
vt 0.745505 0.000151
vt 0.396806 0.000208
vt 0.440597 0.482442
vt 0.444361 0.486497
vt 0.696464 0.038618
vt 0.696093 0.442393
vt 0.745060 0.463697
vt 0.698614 0.040767
vt 0.443671 0.040812
vt 0.744681 0.672462
vt 0.396806 0.671941
vt 0.697364 0.614290
vt 0.444264 0.613920
vt 0.693806 0.486768
vt 0.693598 0.618057
vt 0.698244 0.440252
vt 0.443770 0.439978
vt 0.697562 0.490548
vt 0.444357 0.490272
vt 0.011806 0.008734
vt 0.009165 0.008784
vt 0.000151 0.008960
vt 0.025399 0.469399
vt 0.016640 0.008642
vt 0.029352 0.677396
vt 0.445916 0.442120
vt 0.445818 0.038664
vt 0.396954 0.463344
vt 0.448017 0.617696
vt 0.448119 0.486500
s 0
g Modern_Default_Door01Mirror_2.0x3.0_Wall_Primary
usemtl Wall_Primary
f 2/1/1 5/2/1 3/3/1 1/4/1
f 11/14/1 10/15/1 12/13/1 15/16/1
f 1/4/1 3/3/1 12/13/1 10/15/1
g Modern_Default_Door01Mirror_2.0x3.0_Wall_Secondary
usemtl Wall_Secondary
f 9/5/2 8/6/3 18/7/4 19/8/5
f 8/6/6 4/9/6 13/10/6 18/7/6
f 8/6/7 9/5/8 6/11/9 7/12/9
f 3/3/1 9/5/1 19/8/1 12/13/1
f 5/2/1 6/11/1 9/5/1 3/3/1
f 18/7/10 17/17/11 16/18/11 19/8/12
f 15/16/1 12/13/1 19/8/1 16/18/1
f 17/17/13 18/7/13 13/10/13 14/19/13
f 7/12/15 28/21/15 4/9/15 8/6/15
g Modern_Default_Door01Mirror_2.0x3.0_Door_Step
usemtl Door_Step
f 24/20/14 26/20/14 27/20/14 25/20/14
f 20/20/6 21/20/6 23/20/6 22/20/6
f 21/20/15 25/20/15 27/20/15 23/20/15
f 23/20/1 27/20/1 26/20/1 22/20/1
f 22/20/13 26/20/13 24/20/13 20/20/13
f 20/20/16 24/20/16 25/20/16 21/20/16
s 1
g Modern_Default_Door01Mirror_2.0x3.0_Door_Handle
usemtl Door_Handle
f 33/22/1 34/23/1 35/24/1 36/25/1
f 31/26/17 64/27/18 68/28/18 35/24/17
f 29/29/19 62/30/20 66/31/20 33/22/19
f 29/29/19 33/22/19 36/25/21 30/32/21
f 31/26/17 35/24/17 34/23/22 32/33/22
f 40/34/23 46/35/24 45/36/25 39/37/25
f 38/38/13 43/39/13 44/40/26 37/41/26
f 37/41/26 44/40/26 48/42/27 42/43/28
f 41/44/15 47/45/15 46/35/24 40/34/23
f 39/37/25 45/36/25 43/46/13 38/47/13
f 42/43/28 48/42/27 47/45/15 41/44/15
f 50/48/1 51/49/1 49/50/1
f 47/45/15 50/51/15 49/52/29 46/35/24
f 48/42/27 51/53/30 50/51/15 47/45/15
f 55/54/1 57/55/1 59/56/1 54/57/1
f 56/58/16 58/59/16 43/60/16 45/61/16 52/62/16
f 49/50/1 51/49/1 55/54/1 54/57/1
f 44/63/16 43/60/16 58/59/16 53/64/16
f 53/65/31 55/66/31 51/53/30 48/42/27
f 46/67/24 49/68/29 54/69/32 52/70/32
f 54/69/32 59/71/33 56/72/33 52/70/32
f 53/65/31 58/73/34 57/74/34 55/66/31
f 58/73/34 61/75/13 60/76/13 57/74/34
f 44/63/16 53/64/16 48/77/16
f 46/78/16 52/62/16 45/61/16
f 56/58/16 61/79/16 58/59/16
f 59/71/33 60/76/13 61/75/13 56/72/33
f 57/55/1 60/80/1 59/56/1
f 66/31/1 74/81/1 75/82/1 67/83/1
f 35/24/1 68/28/1 69/84/1 36/25/1
f 33/22/1 66/31/1 67/83/1 34/23/1
f 34/23/22 67/83/35 63/85/35 32/33/22
f 36/25/21 69/84/36 65/86/36 30/32/21
f 73/87/37 77/88/37 76/89/38 72/90/38
f 71/91/39 75/82/39 74/81/40 70/92/40
f 67/83/35 75/82/39 71/91/39 63/85/35
f 69/84/36 77/88/37 73/87/37 65/86/36
f 68/28/1 76/89/1 77/88/1 69/84/1
f 62/30/20 70/92/40 74/81/40 66/31/20
f 64/27/18 72/90/38 76/89/38 68/28/18
s 0
g Modern_Default_Door01Mirror_2.0x3.0_Door_Frame
usemtl Door_Frame
f 101/93/6 80/94/6 84/95/6 105/96/6
f 80/94/41 81/97/42 82/98/43 83/99/43
f 78/100/1 81/97/1 102/101/1 99/102/1
f 108/103/1 87/104/1 88/105/1 109/106/1
f 81/97/1 78/100/1 79/107/1 82/98/1
f 83/99/15 85/108/15 86/109/15
f 86/109/15 84/110/15 80/94/15
f 86/109/15 80/94/15 83/99/15
f 94/111/44 93/112/45 114/113/46 115/114/47
f 98/119/48 97/120/48 92/121/48 91/122/48
f 112/123/49 91/122/49 92/121/49 113/124/49
f 97/120/50 98/119/50 119/125/50 118/126/50
f 93/112/51 94/111/51 96/127/51 95/128/51
f 113/124/1 92/121/1 85/129/1 106/130/1
f 95/128/52 96/127/52 117/131/52 116/132/52
f 91/122/15 88/133/15 87/134/15 98/119/15
f 86/135/1 85/129/1 92/121/1 97/120/1
f 88/136/14 91/122/14 112/123/14 109/137/14
f 84/138/1 94/111/1 115/114/1 105/139/1
f 114/113/6 93/112/6 89/140/6 110/141/6
f 94/111/1 84/138/1 86/135/1 96/127/1
f 95/128/15 90/142/15 89/143/15 93/112/15
f 119/125/6 98/119/6 87/144/6 108/145/6
f 117/131/1 96/127/1 97/120/1 118/126/1
f 86/135/1 97/120/1 96/127/1
f 90/146/14 95/128/14 116/132/14 111/147/14
f 101/93/53 104/148/54 103/149/54 102/101/55
f 102/101/1 103/149/1 100/150/1 99/102/1
f 104/148/13 107/151/13 106/152/13
f 107/151/13 101/93/13 105/153/13
f 107/151/13 104/148/13 101/93/13
f 119/125/56 112/123/56 113/124/56 118/126/56
f 114/113/57 116/132/57 117/131/57 115/114/57
f 112/123/13 119/125/13 108/154/13 109/155/13
f 107/156/1 118/126/1 113/124/1 106/130/1
f 115/114/1 117/131/1 107/156/1 105/139/1
f 116/132/13 114/113/13 110/157/13 111/158/13
f 107/156/1 117/131/1 118/126/1
f 81/97/58 80/94/58 101/93/59 102/101/60
g Modern_Default_Door01Mirror_2.0x3.0_Door_Glass
usemtl Door_Glass
f 89/115/1 90/116/1 111/117/1 110/118/1
l 43 56
