# Blender 5.1.1
# www.blender.org
mtllib Multi_SocketIn_CornerOut_0.25x1.0.mtl
o Multi_SocketIn_CornerOut_0.25x1.0
v -0.000000 1.000000 -0.010000
v 0.010000 1.000000 0.000000
v 0.250000 1.000000 0.000000
v -0.000000 1.000000 -0.250000
v 0.010000 0.990000 -0.020000
v 0.250000 0.990000 -0.010000
v 0.020000 0.990000 -0.010000
v 0.010000 0.990000 -0.250000
v 0.100000 0.980000 -0.110000
v 0.090000 0.990000 -0.100000
v 0.250000 0.980000 -0.100000
v 0.250000 0.990000 -0.090000
v 0.100000 0.990000 -0.090000
v 0.110000 0.980000 -0.100000
v 0.100000 0.980000 -0.250000
v 0.090000 0.990000 -0.250000
v 0.100000 -0.000000 -0.110000
v 0.250000 -0.000000 -0.100000
v 0.110000 -0.000000 -0.100000
v 0.100000 -0.000000 -0.250000
vn -0.0000 -0.0000 1.0000
vn -0.0000 -1.0000 -0.0000
vn 0.0002 -1.0000 0.0001
vn -1.0000 0.0001 -0.0000
vn -0.0001 -1.0000 -0.0000
vn -1.0000 -0.0000 -0.0000
vn -0.0000 -0.0001 1.0000
vn -0.0000 -1.0000 0.0001
vn -1.0000 -0.0001 -0.0000
vn -1.0000 0.0002 0.0001
vn -0.0001 -0.0000 1.0000
vt 0.000000 0.000000
s 1
g Multi_SocketIn_CornerOut_0.25x1.0_Wall_Primary_Corner
usemtl Wall_Primary_Corner
f 3/1/1 2/1/1 7/1/2 6/1/3
f 2/1/1 1/1/4 5/1/2 7/1/2
f 8/1/5 5/1/2 1/1/4 4/1/6
g Multi_SocketIn_CornerOut_0.25x1.0_Wall_Quarternary_Corner
usemtl Wall_Quarternary_Corner
f 14/1/1 11/1/7 12/1/8 13/1/8
f 15/1/9 9/1/6 10/1/5 16/1/5
f 9/1/6 14/1/1 13/1/8 10/1/5
f 17/1/10 9/1/6 15/1/9 20/1/6
f 7/1/2 5/1/2 10/1/5 13/1/8
f 5/1/2 8/1/5 16/1/5 10/1/5
f 14/1/1 9/1/6 17/1/10 19/1/11
f 6/1/3 7/1/2 13/1/8 12/1/8
f 18/1/1 11/1/7 14/1/1 19/1/11
