# Blender 5.1.1
# www.blender.org
mtllib Multi_Default_Window01_2.0x3.0.mtl
o Multi_Default_Window01_2.0x3.0
v 0.500000 2.400000 -0.093724
v -0.500000 1.220000 -0.093724
v -0.500000 2.400000 -0.093724
v 0.500000 1.220000 -0.093724
v 0.456986 1.266413 -0.098887
v 0.456986 2.355947 -0.098887
v -0.456986 2.355947 -0.098887
v -0.456986 1.266413 -0.098887
v 0.462699 1.260711 -0.093724
v 0.462699 2.361649 -0.093724
v -0.462699 2.361649 -0.093724
v -0.462699 1.260711 -0.093724
v 0.500000 1.220000 -0.100000
v -0.500000 1.220000 -0.100000
v 0.416940 1.306460 -0.111980
v 0.416940 2.315900 -0.111980
v -0.416940 2.315900 -0.111980
v -0.416940 1.306460 -0.111980
v 0.456986 1.266413 -0.111980
v 0.456986 2.355947 -0.111980
v -0.456986 2.355947 -0.111980
v -0.456986 1.266413 -0.111980
v 0.413845 1.310205 -0.122390
v 0.413845 2.312155 -0.122390
v -0.413845 2.312155 -0.122390
v -0.413845 1.310205 -0.122390
v -1.000000 3.000000 0.000000
v 1.000000 3.000000 0.000000
v -1.000000 0.000000 0.000000
v 1.000000 0.000000 0.000000
v -0.681066 2.600000 0.000000
v -0.681066 1.000000 0.000000
v 0.681066 2.600000 0.000000
v 0.500000 2.395000 -0.100000
v 0.495000 2.400000 -0.100000
v -0.500000 1.205000 -0.100000
v -0.495000 1.200000 -0.100000
v 0.495000 1.200000 -0.005000
v 0.500000 1.205000 -0.005000
v -0.500000 1.205000 -0.005000
v -0.495000 1.200000 -0.005000
v 0.500000 2.395000 -0.005000
v 0.495000 2.400000 -0.005000
v -0.495000 2.400000 -0.005000
v -0.500000 2.395000 -0.005000
v 0.510000 1.200000 0.000000
v 0.500000 1.190000 0.000000
v -0.500000 2.395000 -0.100000
v -0.500000 1.190000 0.000000
v -0.510000 1.200000 0.000000
v -0.495000 2.400000 -0.100000
v -0.510000 2.400000 0.000000
v -0.500000 2.410000 0.000000
v 0.500000 1.205000 -0.100000
v 0.500000 2.410000 0.000000
v 0.510000 2.400000 0.000000
v 0.495000 1.200000 -0.100000
v 0.681066 1.000000 0.000000
v -0.522093 1.210000 -0.099496
v 0.522094 1.205083 0.036453
v -0.522093 1.205083 0.036453
v 0.522094 1.210000 -0.099496
v 0.522094 1.200858 0.040000
v -0.522093 1.200858 0.040000
v 0.522094 1.182580 0.040000
v -0.522093 1.182580 0.040000
v -0.522093 1.199042 -0.051295
v 0.522094 1.197034 0.031088
v -0.522093 1.197034 0.031088
v 0.522094 1.199042 -0.051295
v 0.522094 1.194464 0.032969
v -0.522093 1.194464 0.032969
v 0.522094 1.182580 0.032969
v -0.522093 1.182580 0.032969
v -0.522093 1.240000 -0.099496
v 0.522094 1.240000 -0.099496
vn -0.0000 1.0000 -0.0000
vn -0.0000 -0.0000 1.0000
vn -0.6705 -0.0000 0.7419
vn 0.6705 -0.0000 0.7419
vn -0.0000 0.6712 0.7413
vn -0.0000 -0.6712 0.7413
vn -0.0000 -1.0000 -0.0000
vn -0.0000 -0.9409 0.3386
vn -1.0000 -0.0000 -0.0000
vn 1.0000 -0.0000 -0.0000
vn 0.9586 -0.0000 0.2849
vn -0.0000 0.9409 0.3386
vn -0.9586 -0.0000 0.2849
vn -1.0000 -0.0001 -0.0000
vn 1.0000 -0.0001 -0.0000
vn -0.0001 -1.0000 -0.0000
vn -1.0000 0.0001 -0.0000
vn 0.0035 0.0016 1.0000
vn -0.0000 0.0001 1.0000
vn -0.0015 0.0037 1.0000
vn -0.0035 -0.0016 1.0000
vn -0.0000 -0.0001 1.0000
vn 0.0015 -0.0037 1.0000
vn -0.0000 0.8986 0.4388
vn -0.0000 0.9993 0.0361
vn -0.0000 0.3422 0.9396
vn -0.0000 -0.8863 -0.4632
vn -0.0000 -0.9997 -0.0244
vn -0.0000 -0.3108 -0.9505
vn -0.0000 -0.0000 -1.0000
vt 0.103339 0.062480
vt 0.830320 0.062517
vt 0.830319 0.072930
vt 0.103338 0.072894
vt 0.836740 0.934977
vt 0.835660 0.057179
vt 0.865378 0.024705
vt 0.866497 0.965536
vt 0.097993 0.057150
vt 0.099089 0.934908
vt 0.069370 0.965500
vt 0.068235 0.024711
vt 0.831395 0.929646
vt 0.104429 0.929570
vt 0.068230 0.019702
vt 0.865378 0.019702
vt 0.833175 0.858959
vt 0.174048 0.858959
vt 0.176493 0.850214
vt 0.830729 0.850213
vt 0.820975 0.929659
vt 0.819899 0.062530
vt 0.104430 0.919157
vt 0.831396 0.919233
vt 0.113758 0.062467
vt 0.114848 0.929557
vt 0.833175 0.061062
vt 0.864829 0.029407
vt 0.864829 0.890613
vt 0.174049 0.061062
vt 0.142393 0.890613
vt 0.142395 0.029407
vt 0.819275 0.072689
vt 0.819275 0.864664
vt 0.165040 0.864664
vt 0.165040 0.072689
vt 0.182634 0.064022
vt 0.182632 0.855998
vt 0.830729 0.069807
vt 0.176495 0.069807
vt 0.824591 0.855998
vt 0.824591 0.064022
vt 0.506253 0.393173
vt 0.527805 0.408220
vt 0.500727 0.419091
vt 0.495988 0.417630
vt 0.178520 0.392821
vt 0.507033 0.414337
vt 0.181785 0.410211
vt 0.160127 0.797294
vt 0.158010 0.404968
vt 0.181146 0.411924
vt 0.184668 0.783239
vt 0.515263 0.807826
vt 0.181232 0.807141
vt 0.180184 0.788013
vt 0.515052 0.788371
vt 0.188905 0.788527
vt 0.529145 0.799889
vt 0.507544 0.786707
vt 0.189928 0.421229
vt 0.533725 0.399487
vt 0.512259 0.387989
vt 0.578913 0.330392
vt 0.170921 0.384795
vt 0.151881 0.396333
vt 0.105877 0.327832
vt 0.154112 0.800252
vt 0.174107 0.814040
vt 0.106514 0.870156
vt 0.520525 0.814336
vt 0.535202 0.801269
vt 0.584388 0.871205
vt 0.501410 0.786580
vt 0.691677 0.999917
vt 0.679298 0.000083
vt 0.002601 0.000178
vt 0.000083 0.999917
vt 0.908877 0.306172
vt 0.083516 0.306172
vt 0.083516 0.198643
vt 0.908877 0.198643
vt 0.908877 0.310532
vt 0.083516 0.310532
vt 0.908877 0.324980
vt 0.083516 0.324980
vt 0.908877 0.342448
vt 0.908877 0.407585
vt 0.083516 0.407585
vt 0.083516 0.342448
vt 0.083516 0.339931
vt 0.908877 0.339931
vt 0.083516 0.330537
vt 0.908877 0.330537
vt 0.251099 0.519869
vt 0.251099 0.627399
vt 0.243821 0.589010
vt 0.244588 0.523878
vt 0.269555 0.516424
vt 0.269555 0.623953
vt 0.263043 0.619945
vt 0.262276 0.554812
vt 0.083516 0.174930
vt 0.908877 0.174930
vt 0.266319 0.626876
vt 0.261068 0.621504
vt 0.247864 0.516947
vt 0.242612 0.522318
vt 0.251881 0.627398
vt 0.251680 0.621844
vt 0.233426 0.516424
vt 0.233225 0.521978
s 1
g Multi_Default_Window01_2.0x3.0_Wall_Primary
usemtl Wall_Primary
f 28/75/2 33/73/2 58/64/2 30/76/2
f 30/76/2 58/64/2 32/67/2 29/77/2
f 29/77/2 32/67/2 31/70/2 27/78/2
f 27/78/2 31/70/2 33/73/2 28/75/2
g Multi_Default_Window01_2.0x3.0_Wall_Secondary
usemtl Wall_Secondary
f 38/43/1 39/44/14 54/45/9 57/46/1
f 41/47/1 38/43/1 57/48/1 37/49/1
f 45/50/10 40/51/15 36/52/10 48/53/10
f 43/54/7 44/55/16 51/56/7 35/57/7
f 44/55/16 45/50/10 48/53/10 51/58/7
f 39/44/14 42/59/17 34/60/9 54/45/9
f 40/51/15 41/47/1 37/61/1 36/52/10
f 46/62/2 47/63/18 58/64/2
f 49/65/19 50/66/20 32/67/2
f 52/68/2 53/69/21 31/70/2
f 55/71/22 56/72/23 33/73/2
f 46/62/2 39/44/14 38/43/1 47/63/18
f 52/68/2 45/50/10 44/55/16 53/69/21
f 40/51/15 50/66/20 49/65/19 41/47/1
f 42/59/17 56/72/23 55/71/22 43/54/7
f 38/43/1 41/47/1 49/65/19 47/63/18
f 42/59/17 43/54/7 35/74/7 34/60/9
f 42/59/17 39/44/14 46/62/2 56/72/23
f 40/51/15 45/50/10 52/68/2 50/66/20
f 44/55/16 43/54/7 55/71/22 53/69/21
f 32/67/2 58/64/2 47/63/18 49/65/19
f 31/70/2 32/67/2 50/66/20 52/68/2
f 33/73/2 31/70/2 53/69/21 55/71/22
f 58/64/2 33/73/2 56/72/23 46/62/2
g Multi_Default_Window01_2.0x3.0_Window_Sill
usemtl Window_Sill
f 61/79/24 60/80/24 62/81/25 59/82/25
f 60/80/24 61/79/24 64/83/26 63/84/26
f 63/84/26 64/83/26 66/85/2 65/86/2
f 69/87/27 67/88/28 70/89/28 68/90/27
f 68/90/27 71/91/29 72/92/29 69/87/27
f 71/91/29 73/93/30 74/94/30 72/92/29
s 0
f 61/95/9 59/96/9 67/97/9 69/98/9
s 1
f 62/99/10 60/100/10 68/101/10 70/102/10
f 59/82/2 62/81/2 76/103/2 75/104/2
f 60/100/10 63/105/10 71/106/10 68/101/10
s 0
f 64/107/9 61/95/9 69/98/9 72/108/9
s 1
f 65/86/7 66/85/7 74/94/7 73/93/7
f 63/105/10 65/109/10 73/110/10 71/106/10
s 0
f 66/111/9 64/107/9 72/108/9 74/112/9
g Multi_Default_Window01_2.0x3.0_Window_Frame
usemtl Window_Frame
f 8/1/1 5/2/1 19/3/1 22/4/1
f 10/5/2 9/6/2 4/7/2 1/8/2
f 12/9/2 11/10/2 3/11/2 2/12/2
f 9/6/2 12/9/2 2/12/2 4/7/2
f 11/10/2 10/5/2 1/8/2 3/11/2
f 6/13/3 5/2/3 9/6/3 10/5/3
f 8/1/4 7/14/4 11/10/4 12/9/4
f 5/2/5 8/1/5 12/9/5 9/6/5
f 7/14/6 6/13/6 10/5/6 11/10/6
f 4/7/7 2/12/7 14/15/7 13/16/7
f 16/17/8 17/18/8 25/19/8 24/20/8
f 5/2/9 6/13/9 20/21/9 19/22/9
f 6/13/7 7/14/7 21/23/7 20/24/7
f 7/14/10 8/1/10 22/25/10 21/26/10
f 16/17/2 15/27/2 19/28/2 20/29/2
f 18/30/2 17/18/2 21/31/2 22/32/2
f 15/27/2 18/30/2 22/32/2 19/28/2
f 17/18/2 16/17/2 20/29/2 21/31/2
f 17/18/11 18/30/11 26/37/11 25/38/11
f 18/30/12 15/27/12 23/39/12 26/40/12
f 15/27/13 16/17/13 24/41/13 23/42/13
g Multi_Default_Window01_2.0x3.0_Window_Glass
usemtl Window_Glass
f 23/33/2 24/34/2 25/35/2 26/36/2
