# Blender 5.1.1
# www.blender.org
mtllib Multi_SocketIn_Spacer_2.0x1.0.mtl
o Multi_SocketIn_Spacer_2.0x1.0
v -1.000000 1.000000 0.000000
v 1.000000 1.000000 0.000000
v 1.000000 0.990000 -0.010000
v -1.000000 0.990000 -0.010000
v 1.000000 0.980000 -0.100000
v 1.000000 0.990000 -0.090000
v -1.000000 0.990000 -0.090000
v -1.000000 0.980000 -0.100000
v 1.000000 0.000000 -0.100000
v -1.000000 0.000000 -0.100000
vn -0.0000 0.0001 1.0000
vn -0.0000 -1.0000 -0.0001
vn -0.0000 -0.0000 1.0000
vn -0.0000 -1.0000 -0.0000
vt 0.000000 0.000000
s 0
g Multi_SocketIn_Spacer_2.0x1.0_Wall_Primary_Spacer
usemtl Wall_Primary_Spacer
f 2/1/1 1/1/1 4/1/2 3/1/2
g Multi_SocketIn_Spacer_2.0x1.0_Wall_Quarternary_Spacer
usemtl Wall_Quarternary_Spacer
f 8/1/1 5/1/1 6/1/2 7/1/2
f 9/1/3 5/1/3 8/1/3 10/1/3
f 3/1/4 4/1/4 7/1/4 6/1/4
