# Blender 5.1.1
# www.blender.org
mtllib Multi_Outer_CornerOut_0.25x1.0.mtl
o Multi_Outer_CornerOut_0.25x1.0
v -0.100000 1.000000 0.090000
v 0.250000 1.000000 0.100000
v -0.090000 1.000000 0.100000
v -0.100000 1.000000 -0.250000
v -0.100000 0.000000 0.090000
v 0.250000 0.000000 0.100000
v -0.090000 0.000000 0.100000
v -0.100000 0.000000 -0.250000
vn 0.0002 -0.0000 1.0000
vn -1.0000 -0.0000 -0.0002
vn -0.0000 -0.0000 1.0000
vn -1.0000 -0.0000 -0.0000
vt 0.000000 0.000000
s 0
g Multi_Outer_CornerOut_0.25x1.0_Wall_Tertiary_Corner
usemtl Wall_Tertiary_Corner
f 7/1/1 3/1/1 1/1/2 5/1/2
f 6/1/3 2/1/3 3/1/3 7/1/3
f 5/1/4 1/1/4 4/1/4 8/1/4
