# Blender 5.1.1
# www.blender.org
mtllib Multi_Default_Window02_2.0x3.0.mtl
o Multi_Default_Window02_2.0x3.0
v 0.700000 2.500000 -0.143724
v -0.700000 1.220000 -0.143724
v -0.700000 2.500000 -0.143724
v 0.700000 1.220000 -0.143724
v 0.656986 1.266413 -0.148887
v 0.656986 2.455947 -0.148887
v -0.656986 2.455947 -0.148887
v -0.656986 1.266413 -0.148887
v 0.662699 1.260711 -0.143724
v 0.662699 2.461649 -0.143724
v -0.662699 2.461649 -0.143724
v -0.662699 1.260711 -0.143724
v 0.700000 1.220000 -0.149999
v -0.700000 1.220000 -0.149999
v -0.656986 2.455947 -0.161979
v -0.656986 1.266413 -0.161979
v -1.000000 3.000000 0.000000
v 1.000000 3.000000 0.000000
v -1.000000 0.000000 0.000000
v 1.000000 0.000000 0.000000
v -0.881066 2.700000 0.000000
v -0.881066 1.000000 0.000000
v 0.881066 2.700000 0.000000
v 0.700000 2.495000 -0.150000
v 0.695000 2.500000 -0.150000
v -0.700000 1.205000 -0.150000
v -0.695000 1.200000 -0.150000
v 0.695000 1.200000 -0.005000
v 0.700000 1.205000 -0.005000
v -0.700000 1.205000 -0.005000
v -0.695000 1.200000 -0.005000
v 0.700000 2.495000 -0.005000
v 0.695000 2.500000 -0.005000
v -0.695000 2.500000 -0.005000
v -0.700000 2.495000 -0.005000
v 0.710000 1.200000 0.000000
v 0.700000 1.190000 0.000000
v -0.700000 2.495000 -0.150000
v -0.700000 1.190000 0.000000
v -0.710000 1.200000 0.000000
v -0.695000 2.500000 -0.150000
v -0.710000 2.500000 0.000000
v -0.700000 2.510000 0.000000
v 0.700000 1.205000 -0.150000
v 0.700000 2.510000 0.000000
v 0.710000 2.500000 0.000000
v 0.695000 1.200000 -0.150000
v 0.881066 1.000000 0.000000
v -0.722093 1.210000 -0.145909
v 0.722094 1.205083 0.036453
v -0.722093 1.205083 0.036453
v 0.722094 1.210000 -0.145909
v 0.722094 1.200858 0.040000
v -0.722093 1.200858 0.040000
v 0.722094 1.182580 0.040000
v -0.722093 1.182580 0.040000
v -0.722093 1.199042 -0.097707
v 0.722094 1.197034 0.031088
v -0.722093 1.197034 0.031088
v 0.722094 1.199042 -0.097707
v 0.722094 1.194464 0.032969
v -0.722093 1.194464 0.032969
v 0.722094 1.182580 0.032969
v -0.722093 1.182580 0.032969
v -0.722093 1.240000 -0.145909
v 0.722094 1.240000 -0.145909
v 0.025530 2.455947 -0.148887
v -0.025530 2.455947 -0.148887
v 0.025530 1.266413 -0.148887
v -0.025530 1.266413 -0.148887
v 0.000000 1.220000 -0.143724
v 0.016321 1.260711 -0.143724
v -0.016321 1.260711 -0.143724
v 0.000000 2.500000 -0.143724
v 0.018548 2.461649 -0.143724
v -0.018548 2.461649 -0.143724
v -0.065577 1.306460 -0.161979
v -0.065577 2.415900 -0.161979
v -0.616940 2.415900 -0.161979
v -0.616940 1.306460 -0.161979
v -0.025530 1.266413 -0.161979
v -0.025530 2.455947 -0.161979
v -0.068671 1.310205 -0.172390
v -0.068671 2.412154 -0.172390
v -0.613845 2.412154 -0.172390
v -0.613845 1.310205 -0.172390
v 0.616940 1.306460 -0.161979
v 0.616940 2.415900 -0.161979
v 0.065577 2.415900 -0.161979
v 0.065577 1.306460 -0.161979
v 0.656986 1.266413 -0.161979
v 0.656986 2.455947 -0.161979
v 0.025530 2.455947 -0.161979
v 0.025530 1.266413 -0.161979
v 0.613845 1.310205 -0.172390
v 0.613845 2.412154 -0.172390
v 0.068671 2.412154 -0.172390
v 0.068671 1.310205 -0.172390
vn -0.0000 1.0000 -0.0000
vn -0.0000 -0.0000 1.0000
vn -0.6705 -0.0000 0.7419
vn 0.6705 -0.0000 0.7419
vn -0.0000 0.6712 0.7413
vn -0.0000 -0.6712 0.7413
vn -0.0000 -1.0000 -0.0000
vn -1.0000 -0.0000 -0.0000
vn 1.0000 -0.0000 -0.0000
vn 0.0002 1.0000 -0.0005
vn -1.0000 -0.0003 -0.0004
vn -1.0000 0.0004 -0.0000
vn -0.0004 1.0000 -0.0003
vn -0.0002 1.0000 -0.0005
vn 0.0004 1.0000 -0.0000
vn 1.0000 0.0002 -0.0005
vn 1.0000 -0.0003 -0.0004
vn 1.0000 0.0004 0.0002
vn 1.0000 -0.0004 -0.0000
vn 0.0002 -1.0000 -0.0005
vn -0.0003 -1.0000 -0.0004
vn 0.0004 -1.0000 -0.0003
vn -0.0004 -1.0000 -0.0000
vn -1.0000 0.0003 -0.0004
vn -1.0000 -0.0004 -0.0000
vn -0.0004 0.0002 1.0000
vn 0.0033 0.0020 1.0000
vn 0.0002 0.0005 1.0000
vn -0.0011 0.0038 1.0000
vn 0.0004 -0.0002 1.0000
vn -0.0033 -0.0020 1.0000
vn -0.0002 -0.0005 1.0000
vn 0.0011 -0.0038 1.0000
vn -0.0000 0.9006 0.4347
vn -0.0000 0.9996 0.0270
vn -0.0000 0.3422 0.9396
vn -0.0000 -0.8883 -0.4593
vn -0.0000 -0.9999 -0.0156
vn -0.0000 -0.3108 -0.9505
vn -0.0000 -0.0000 -1.0000
vn -0.9954 -0.0023 -0.0960
vn -0.9959 -0.0022 -0.0904
vn -0.9952 -0.0024 0.0981
vn -0.9957 -0.0022 0.0924
vn -0.5377 -0.0005 0.8431
vn 0.9911 -0.0031 0.1328
vn 0.9925 -0.0029 0.1223
vn 0.9896 -0.0033 -0.1436
vn 0.9913 -0.0029 -0.1314
vn 0.5377 -0.0005 0.8431
vn -0.0000 -0.9409 0.3386
vn 0.9586 -0.0000 0.2849
vn -0.0000 0.9409 0.3386
vn -0.9586 -0.0000 0.2849
vt 0.022047 0.553195
vt 0.022039 0.296916
vt 0.027352 0.296915
vt 0.027361 0.553195
vt 0.508033 0.015429
vt 0.019322 0.016582
vt 0.002738 0.001422
vt 0.523646 0.000187
vt 0.019322 0.555920
vt 0.508034 0.557071
vt 0.523648 0.572313
vt 0.002738 0.571080
vt 0.019317 0.279606
vt 0.002748 0.286250
vt 0.508308 0.293815
vt 0.523979 0.286250
vt 0.505309 0.018166
vt 0.022047 0.019307
vt 0.505310 0.554334
vt 0.022038 0.275585
vt 0.505578 0.297005
vt 0.000187 0.571080
vt 0.000187 0.001422
vt 0.505322 0.023485
vt 0.022060 0.024626
vt 0.505578 0.275494
vt 0.500242 0.275500
vt 0.499974 0.018172
vt 0.022060 0.547876
vt 0.505323 0.549015
vt 0.506253 0.393173
vt 0.527805 0.408220
vt 0.500727 0.419091
vt 0.495988 0.417630
vt 0.178520 0.392821
vt 0.507033 0.414337
vt 0.181785 0.410211
vt 0.160127 0.797294
vt 0.158010 0.404968
vt 0.181146 0.411924
vt 0.184668 0.783239
vt 0.515263 0.807826
vt 0.181232 0.807141
vt 0.180184 0.788013
vt 0.515052 0.788371
vt 0.188905 0.788527
vt 0.529145 0.799889
vt 0.507544 0.786707
vt 0.189928 0.421229
vt 0.533725 0.399487
vt 0.512259 0.387989
vt 0.578913 0.330392
vt 0.170921 0.384795
vt 0.151881 0.396333
vt 0.105877 0.327832
vt 0.154112 0.800252
vt 0.174107 0.814040
vt 0.106514 0.870156
vt 0.520525 0.814336
vt 0.535202 0.801269
vt 0.584388 0.871205
vt 0.501410 0.786580
vt 0.691677 0.999917
vt 0.679298 0.000083
vt 0.002601 0.000178
vt 0.000083 0.999917
vt 0.908877 0.306172
vt 0.083516 0.306172
vt 0.083516 0.198643
vt 0.908877 0.198643
vt 0.908877 0.310532
vt 0.083516 0.310532
vt 0.908877 0.324980
vt 0.083516 0.324980
vt 0.908877 0.342448
vt 0.908877 0.407585
vt 0.083516 0.407585
vt 0.083516 0.342448
vt 0.083516 0.339931
vt 0.908877 0.339931
vt 0.083516 0.330537
vt 0.908877 0.330537
vt 0.251099 0.519869
vt 0.251099 0.627399
vt 0.243821 0.589010
vt 0.244588 0.523878
vt 0.269555 0.516424
vt 0.269555 0.623953
vt 0.263043 0.619945
vt 0.262276 0.554812
vt 0.083516 0.174930
vt 0.908877 0.174930
vt 0.266319 0.626876
vt 0.261068 0.621504
vt 0.247864 0.516947
vt 0.242612 0.522318
vt 0.251881 0.627398
vt 0.251680 0.621844
vt 0.233426 0.516424
vt 0.233225 0.521978
vt 0.027352 0.275585
vt 0.027361 0.019307
vt 0.500242 0.297000
vt 0.499975 0.554329
vt 0.022038 0.302238
vt 0.505576 0.302327
vt 0.019317 0.292894
vt 0.022038 0.270263
vt 0.505576 0.270172
vt 0.508308 0.278685
vt 0.763145 0.464312
vt 0.540523 0.464312
vt 0.541773 0.459844
vt 0.761896 0.459845
vt 0.763145 0.016357
vt 0.779315 0.000187
vt 0.779315 0.480481
vt 0.540524 0.016357
vt 0.524354 0.480481
vt 0.524355 0.000187
vt 0.999813 0.445492
vt 0.999813 0.890422
vt 0.779690 0.890422
vt 0.779690 0.445492
vt 0.544909 0.017869
vt 0.544908 0.462799
vt 0.761896 0.020824
vt 0.541773 0.020824
vt 0.758760 0.462799
vt 0.758760 0.017869
vt 0.763145 0.944980
vt 0.540523 0.944980
vt 0.541773 0.940513
vt 0.761896 0.940513
vt 0.763145 0.497026
vt 0.779315 0.480856
vt 0.779315 0.961150
vt 0.540524 0.497025
vt 0.524354 0.961149
vt 0.524354 0.480856
vt 0.999813 0.000187
vt 0.999813 0.445117
vt 0.779690 0.445117
vt 0.779690 0.000187
vt 0.544909 0.498538
vt 0.544908 0.943467
vt 0.761896 0.501493
vt 0.541773 0.501493
vt 0.758760 0.943468
vt 0.758760 0.498538
s 1
g Multi_Default_Window02_2.0x3.0_Wall_Primary
usemtl Wall_Primary
f 18/63/2 23/61/2 48/52/2 20/64/2
f 20/64/2 48/52/2 22/55/2 19/65/2
f 19/65/2 22/55/2 21/58/2 17/66/2
f 17/66/2 21/58/2 23/61/2 18/63/2
g Multi_Default_Window02_2.0x3.0_Wall_Secondary
usemtl Wall_Secondary
f 28/31/10 29/32/11 44/33/12 47/34/13
f 31/35/14 28/31/10 47/36/13 27/37/15
f 35/38/16 30/39/17 26/40/18 38/41/19
f 33/42/20 34/43/21 41/44/22 25/45/23
f 34/43/21 35/38/16 38/41/19 41/46/22
f 29/32/11 32/47/24 24/48/25 44/33/12
f 30/39/17 31/35/14 27/49/15 26/40/18
f 36/50/26 37/51/27 48/52/2
f 39/53/28 40/54/29 22/55/2
f 42/56/30 43/57/31 21/58/2
f 45/59/32 46/60/33 23/61/2
f 36/50/26 29/32/11 28/31/10 37/51/27
f 42/56/30 35/38/16 34/43/21 43/57/31
f 30/39/17 40/54/29 39/53/28 31/35/14
f 32/47/24 46/60/33 45/59/32 33/42/20
f 28/31/10 31/35/14 39/53/28 37/51/27
f 32/47/24 33/42/20 25/62/23 24/48/25
f 32/47/24 29/32/11 36/50/26 46/60/33
f 30/39/17 35/38/16 42/56/30 40/54/29
f 34/43/21 33/42/20 45/59/32 43/57/31
f 22/55/2 48/52/2 37/51/27 39/53/28
f 21/58/2 22/55/2 40/54/29 42/56/30
f 23/61/2 21/58/2 43/57/31 45/59/32
f 48/52/2 23/61/2 46/60/33 36/50/26
g Multi_Default_Window02_2.0x3.0_Window_Sill
usemtl Window_Sill
f 51/67/34 50/68/34 52/69/35 49/70/35
f 50/68/34 51/67/34 54/71/36 53/72/36
f 53/72/36 54/71/36 56/73/2 55/74/2
f 59/75/37 57/76/38 60/77/38 58/78/37
f 58/78/37 61/79/39 62/80/39 59/75/37
f 61/79/39 63/81/40 64/82/40 62/80/39
s 0
f 51/83/8 49/84/8 57/85/8 59/86/8
s 1
f 52/87/9 50/88/9 58/89/9 60/90/9
f 49/70/2 52/69/2 66/91/2 65/92/2
f 50/88/9 53/93/9 61/94/9 58/89/9
s 0
f 54/95/8 51/83/8 59/86/8 62/96/8
s 1
f 55/74/7 56/73/7 64/82/7 63/81/7
f 53/93/9 55/97/9 63/98/9 61/94/9
s 0
f 56/99/8 54/95/8 62/96/8 64/100/8
g Multi_Default_Window02_2.0x3.0_Window_Frame
usemtl Window_Frame
f 8/1/1 70/2/1 81/3/1 16/4/1
f 10/5/2 9/6/2 4/7/2 1/8/2
f 12/9/2 11/10/2 3/11/2 2/12/2
f 9/6/2 72/13/2 71/14/2 4/7/2
f 11/10/2 76/15/2 74/16/2 3/11/2
f 6/17/3 5/18/3 9/6/3 10/5/3
f 8/1/4 7/19/4 11/10/4 12/9/4
f 5/18/5 69/20/5 72/13/5 9/6/5
f 7/19/6 68/21/6 76/15/6 11/10/6
f 4/7/7 71/14/7 2/12/7 14/22/7 13/23/7
f 5/18/8 6/17/8 92/24/8 91/25/8
f 6/17/7 67/26/7 93/27/7 92/28/7
f 7/19/9 8/1/9 16/29/9 15/30/9
f 94/101/1 69/20/1 5/18/1 91/102/1
f 82/103/7 68/21/7 7/19/7 15/104/7
f 81/105/41 70/2/42 68/21/43 82/106/44
f 70/2/45 73/107/45 76/15/45 68/21/45
f 69/20/46 94/108/47 93/109/48 67/26/49
f 73/107/5 70/2/5 8/1/5 12/9/5
f 71/14/2 73/107/2 12/9/2 2/12/2
f 73/107/2 71/14/2 72/13/2
f 75/110/6 67/26/6 6/17/6 10/5/6
f 76/15/2 73/107/2 72/13/2 75/110/2
f 75/110/50 72/13/50 69/20/50 67/26/50
f 74/16/2 76/15/2 75/110/2
f 75/110/2 10/5/2 1/8/2 74/16/2
f 78/111/51 79/112/51 85/113/51 84/114/51
f 78/111/2 77/115/2 81/116/2 82/117/2
f 80/118/2 79/112/2 15/119/2 16/120/2
f 77/115/2 80/118/2 16/120/2 81/116/2
f 79/112/2 78/111/2 82/117/2 15/119/2
f 79/112/52 80/118/52 86/125/52 85/126/52
f 80/118/53 77/115/53 83/127/53 86/128/53
f 77/115/54 78/111/54 84/129/54 83/130/54
f 88/131/51 89/132/51 97/133/51 96/134/51
f 88/131/2 87/135/2 91/136/2 92/137/2
f 90/138/2 89/132/2 93/139/2 94/140/2
f 87/135/2 90/138/2 94/140/2 91/136/2
f 89/132/2 88/131/2 92/137/2 93/139/2
f 89/132/52 90/138/52 98/145/52 97/146/52
f 90/138/53 87/135/53 95/147/53 98/148/53
f 87/135/54 88/131/54 96/149/54 95/150/54
g Multi_Default_Window02_2.0x3.0_Window_Glass
usemtl Window_Glass
f 83/121/2 84/122/2 85/123/2 86/124/2
f 95/141/2 96/142/2 97/143/2 98/144/2
