# Blender 5.1.1
# www.blender.org
mtllib Multi_SocketOut_CornerIn_0.25x1.0.mtl
o Multi_SocketOut_CornerIn_0.25x1.0
v -0.250000 1.000000 0.000000
v -0.000000 1.000000 0.010000
v -0.010000 1.000000 0.000000
v -0.000000 1.000000 0.250000
v -0.010000 0.990000 0.250000
v -0.010000 0.990000 0.020000
v -0.020000 0.990000 0.010000
v -0.250000 0.990000 0.010001
v -0.090000 0.990000 0.250000
v -0.100000 0.980000 0.250000
v -0.100000 0.980000 0.110001
v -0.090000 0.990000 0.099998
v -0.110000 0.980000 0.099998
v -0.100000 0.990000 0.089998
v -0.250000 0.990000 0.090001
v -0.250000 0.980000 0.100001
v -0.100000 0.000000 0.249999
v -0.100000 0.000000 0.110000
v -0.110000 0.000000 0.100000
v -0.250000 0.000000 0.100000
vn -0.0000 -0.0000 1.0000
vn -0.0000 1.0000 0.0001
vn -1.0000 -0.0000 -0.0000
vn -1.0000 -0.0000 0.0001
vn -0.0000 1.0000 -0.0000
vn -0.0001 1.0000 -0.0000
vn -0.0000 0.0001 1.0000
vn -0.0003 1.0000 0.0001
vn -0.0001 1.0000 0.0001
vn -1.0000 0.0001 -0.0000
vn -1.0000 -0.0001 0.0001
vt 0.000000 0.000000
s 1
g Multi_SocketOut_CornerIn_0.25x1.0_Wall_Primary_Corner
usemtl Wall_Primary_Corner
f 3/1/1 1/1/1 8/1/2 7/1/2
f 4/1/3 2/1/4 6/1/5 5/1/6
f 2/1/4 3/1/1 7/1/2 6/1/5
g Multi_SocketOut_CornerIn_0.25x1.0_Wall_Tertiary_Corner
usemtl Wall_Tertiary_Corner
f 16/1/7 13/1/1 14/1/2 15/1/8
f 13/1/1 11/1/3 12/1/9 14/1/2
f 11/1/3 10/1/10 9/1/6 12/1/9
f 5/1/6 6/1/5 12/1/9 9/1/6
f 19/1/1 13/1/1 16/1/7 20/1/1
f 6/1/5 7/1/2 14/1/2 12/1/9
f 7/1/2 8/1/2 15/1/8 14/1/2
f 17/1/3 10/1/10 11/1/3 18/1/11
f 18/1/11 11/1/3 13/1/1 19/1/1
