# Blender 5.1.1
# www.blender.org
mtllib Multi_Default_CornerIn_0.25x3.0.mtl
o Multi_Default_CornerOut_0.25x3.0
v -0.000000 3.000000 -0.010000
v 0.010000 3.000000 -0.000000
v -0.000000 3.000000 -0.250000
v -0.000000 0.000000 -0.010000
v 0.010000 0.000000 -0.000000
v 0.000000 0.000000 -0.250000
v 0.250000 0.000000 -0.000000
v 0.250000 3.000000 -0.000000
vn 0.0001 -0.0000 1.0000
vn -1.0000 -0.0000 -0.0001
vn -1.0000 -0.0000 -0.0000
vn -0.0000 -0.0000 1.0000
vt 0.000000 0.000000
s 0
g Multi_Default_CornerOut_0.25x3.0_Wall_Primary
usemtl Wall_Primary
f 5/1/1 2/1/1 1/1/2 4/1/2
f 6/1/3 4/1/3 1/1/3 3/1/3
f 5/1/4 7/1/4 8/1/4 2/1/4
