# Blender 5.1.1
# www.blender.org
mtllib Multi_SocketOut_CornerOut_0.25x1.0.mtl
o Multi_SocketOut_CornerOut_0.25x1.0
v 0.000000 1.000000 -0.010000
v 0.010000 1.000000 0.000000
v 0.250000 1.000000 0.000000
v 0.000000 1.000000 -0.250000
v -0.010000 0.990000 0.000000
v 0.250000 0.990000 0.010000
v 0.000000 0.990000 0.010000
v -0.010000 0.990000 -0.250000
v -0.100000 0.980000 0.090000
v -0.090000 0.990000 0.080000
v 0.250000 0.980000 0.100000
v 0.250000 0.990000 0.090000
v -0.080000 0.990000 0.090000
v -0.090000 0.980000 0.100000
v -0.100000 0.980000 -0.250000
v -0.090000 0.990000 -0.250000
v -0.100000 0.000000 0.090000
v 0.250000 0.000000 0.100000
v -0.090000 0.000000 0.100000
v -0.100000 0.000000 -0.250000
vn -0.0000 -0.0001 1.0000
vn -0.0000 1.0000 -0.0001
vn -0.0001 0.0001 1.0000
vn -1.0000 0.0001 0.0001
vn -0.0000 1.0000 -0.0000
vn 0.0001 1.0000 -0.0000
vn -1.0000 -0.0001 -0.0000
vn -1.0000 -0.0001 -0.0001
vn -1.0000 -0.0000 0.0001
vn -0.0000 0.0001 1.0000
vn 0.0001 1.0000 -0.0001
vn 0.0001 -0.0000 1.0000
vn -1.0000 -0.0000 -0.0001
vn -0.0000 -0.0000 1.0000
vn -1.0000 -0.0000 -0.0000
vt 0.000000 0.000000
s 0
g Multi_SocketOut_CornerOut_0.25x1.0_Wall_Primary
usemtl Wall_Primary
f 3/1/1 2/1/1 7/1/2 6/1/2
f 2/1/3 1/1/4 5/1/5 7/1/5
f 8/1/6 5/1/6 1/1/7 4/1/7
g Multi_SocketOut_CornerOut_0.25x1.0_Wall_Tertiary
usemtl Wall_Tertiary
f 14/1/1 11/1/1 12/1/2 13/1/2
f 15/1/7 9/1/8 10/1/6 16/1/6
f 9/1/9 14/1/10 13/1/11 10/1/6
f 19/1/12 14/1/12 9/1/13 17/1/13
f 7/1/5 5/1/5 10/1/5 13/1/5
f 5/1/5 8/1/5 16/1/5 10/1/5
f 18/1/14 11/1/14 14/1/14 19/1/14
f 17/1/15 9/1/15 15/1/15 20/1/15
f 6/1/5 7/1/5 13/1/5 12/1/5
