# Blender 5.1.1
# www.blender.org
mtllib Rural_Default_Door01_2.0x3.0.mtl
o Rural_Default_Door01_2.0x3.0
v 1.000000 3.002544 0.000000
v 1.000000 0.000000 0.000000
v 0.650000 2.150000 0.000000
v 0.550000 2.050000 -0.200000
v 0.650000 0.000000 0.000000
v 0.560000 0.000000 0.000000
v 0.550000 0.000000 -0.010000
v 0.550000 2.050000 -0.010000
v 0.560000 2.060000 0.000000
v -1.000000 3.002544 0.000000
v -1.000000 0.000000 0.000000
v -0.650000 2.150000 0.000000
v -0.550000 2.050000 -0.200000
v -0.550000 0.000000 -0.200000
v -0.650000 0.000000 0.000000
v -0.560000 0.000000 0.000000
v -0.550000 0.000000 -0.010000
v -0.550000 2.050000 -0.010000
v -0.560000 2.060000 0.000000
v 0.560000 0.000000 -0.200000
v -0.560000 0.000000 -0.200000
v 0.560000 0.000000 0.000000
v -0.560000 0.000000 0.000000
v 0.560000 0.020000 -0.200000
v -0.560000 0.020000 -0.200000
v 0.560000 0.020000 0.000000
v -0.560000 0.020000 0.000000
v 0.550000 0.000000 -0.200000
v -0.490011 1.077479 -0.120000
v -0.490011 0.909360 -0.120000
v -0.423324 0.909360 -0.120000
v -0.423324 1.077479 -0.120000
v -0.490011 1.077479 -0.109962
v -0.423324 1.077479 -0.109962
v -0.423324 0.909360 -0.109962
v -0.490011 0.909360 -0.109962
v -0.446030 1.047706 -0.109962
v -0.436057 1.030433 -0.109962
v -0.446030 1.013159 -0.109962
v -0.465976 1.013159 -0.109962
v -0.475949 1.030433 -0.109962
v -0.465976 1.047706 -0.109962
v -0.436057 1.030433 -0.080053
v -0.446030 1.047706 -0.080053
v -0.446030 1.013159 -0.080053
v -0.465976 1.013159 -0.080053
v -0.475949 1.030433 -0.080053
v -0.465976 1.047706 -0.080053
v -0.446030 1.047706 -0.054978
v -0.446030 1.013159 -0.054978
v -0.465976 1.013159 -0.054978
v -0.475949 1.030433 -0.054978
v -0.465976 1.047706 -0.054978
v -0.335530 1.036585 -0.054978
v -0.428182 1.040974 -0.080053
v -0.428182 1.019891 -0.080053
v -0.335530 1.036585 -0.080053
v -0.428182 1.040974 -0.054978
v -0.428182 1.019891 -0.054978
v -0.335530 1.024280 -0.054978
v -0.335530 1.024280 -0.080053
v 0.000000 2.050000 -0.100000
v 0.550000 2.050000 -0.100000
v 0.550000 0.020000 -0.100000
v 0.000000 1.995573 -0.100000
v 0.000000 1.990000 -0.105573
v 0.500000 1.990000 -0.105573
v 0.505573 1.995573 -0.100000
v 0.505573 0.020000 -0.100000
v 0.500000 0.020000 -0.105573
v 0.500000 1.990000 -0.120000
v 0.500000 0.020000 -0.120000
v 0.000000 1.990000 -0.120000
v 0.000000 0.020000 -0.120000
v 0.500000 1.079751 -0.120000
v 0.500000 0.976264 -0.120000
v 0.404307 0.976264 -0.141290
v 0.404307 0.134014 -0.141290
v 0.054024 1.855986 -0.141290
v 0.404307 1.855986 -0.141290
v 0.057478 0.134014 -0.141290
v 0.055986 0.976264 -0.141290
v 0.055621 1.079751 -0.141290
v 0.404307 1.079751 -0.141290
v 0.404307 0.134014 -0.130000
v 0.413304 0.121413 -0.120000
v 0.404307 1.855986 -0.130000
v 0.413311 1.868595 -0.120000
v 0.057478 0.134014 -0.130000
v 0.052053 0.121366 -0.120000
v 0.048921 1.868644 -0.120000
v 0.054024 1.855986 -0.130000
v 0.050376 1.069751 -0.120000
v 0.055621 1.079751 -0.130000
v 0.404307 1.079751 -0.130000
v 0.413349 1.069751 -0.120000
v 0.055986 0.976264 -0.130000
v 0.050346 0.986264 -0.120000
v 0.413343 0.986264 -0.120000
v 0.404307 0.976264 -0.130000
v -0.550000 2.050000 -0.100000
v -0.550000 0.020000 -0.100000
v -0.500000 1.990000 -0.105573
v -0.505573 1.995573 -0.100000
v -0.505573 0.020000 -0.100000
v -0.500000 0.020000 -0.105573
v -0.500000 1.990000 -0.120000
v -0.500000 0.020000 -0.120000
v -0.500000 1.079751 -0.120000
v -0.500000 0.976264 -0.120000
v -0.404307 0.976264 -0.141290
v -0.404307 0.134014 -0.141290
v -0.054024 1.855986 -0.141290
v -0.404307 1.855986 -0.141290
v -0.057478 0.134014 -0.141290
v -0.055986 0.976264 -0.141290
v -0.055621 1.079751 -0.141290
v -0.404307 1.079751 -0.141290
v -0.404307 0.134014 -0.130000
v -0.413304 0.121413 -0.120000
v -0.404307 1.855986 -0.130000
v -0.413311 1.868595 -0.120000
v -0.057478 0.134014 -0.130000
v -0.052053 0.121366 -0.120000
v -0.048921 1.868644 -0.120000
v -0.054024 1.855986 -0.130000
v -0.050376 1.069751 -0.120000
v -0.055621 1.079751 -0.130000
v -0.404307 1.079751 -0.130000
v -0.413349 1.069751 -0.120000
v -0.055986 0.976264 -0.130000
v -0.050346 0.986264 -0.120000
v -0.413343 0.986264 -0.120000
v -0.404307 0.976264 -0.130000
vn -0.0000 -0.0000 1.0000
vn 0.0001 -0.0000 1.0000
vn -0.0000 -1.0000 -0.0000
vn -1.0000 -0.0000 -0.0000
vn -0.0000 -0.0001 1.0000
vn 1.0000 -0.0000 -0.0000
vn -0.0000 1.0000 -0.0000
vn -0.0000 -0.0000 -1.0000
vn 0.3487 0.9373 -0.0000
vn -0.5000 0.8660 -0.0000
vn 0.1754 0.9845 -0.0000
vn -0.5000 -0.8660 -0.0000
vn 0.5000 -0.8660 -0.0000
vn 0.3487 -0.9373 -0.0000
vn 0.5000 0.8660 -0.0000
vn 0.1754 -0.9845 -0.0000
vn 0.1002 -0.9950 -0.0000
vn 0.1773 -0.9842 0.0002
vn 0.1773 0.9842 -0.0000
vn 0.1773 -0.9842 -0.0000
vn 0.1002 0.9950 -0.0000
vn -0.0000 -1.0000 -0.0004
vn -1.0000 -0.0000 -0.0003
vn 0.0003 -0.0000 1.0000
vn 0.0003 -0.0001 1.0000
vn -0.7427 -0.0000 0.6697
vn -0.0000 -0.6206 0.7841
vn -0.0000 0.6209 0.7839
vn 0.8749 0.0016 0.4843
vn 0.8882 0.0017 0.4594
vn -0.7424 -0.0000 0.6699
vn -0.0000 0.7071 0.7071
vn -0.0000 -0.7071 0.7071
vn 1.0000 0.0018 -0.0000
vn 1.0000 0.0021 -0.0000
vn 1.0000 -0.0000 -0.0004
vn -0.0004 -0.0001 1.0000
vn -0.0004 -0.0000 1.0000
vn 0.7427 -0.0000 0.6697
vn -0.8749 0.0016 0.4843
vn -0.8882 0.0017 0.4594
vn 0.7424 -0.0000 0.6699
vn -1.0000 0.0018 -0.0000
vn -1.0000 0.0021 -0.0000
vt 0.661037 0.000081
vt 0.659400 0.999919
vt 0.543309 0.719264
vt 0.544454 0.000594
vt 0.512250 0.689433
vt 0.151618 0.693452
vt 0.156826 0.689232
vt 0.506870 0.685182
vt 0.171593 0.675298
vt 0.491168 0.671424
vt 0.510825 0.001728
vt 0.514949 0.001124
vt 0.121641 0.723115
vt 0.000081 0.033852
vt 0.112018 0.032924
vt 0.009779 0.999919
vt 0.140311 0.033064
vt 0.144252 0.033596
vt 0.172423 0.033632
vt 0.157267 0.154585
vt 0.481442 0.002155
vt 0.578679 0.560436
vt 0.578679 0.059477
vt 0.777393 0.059477
vt 0.777393 0.560436
vt 0.578679 0.029567
vt 0.777393 0.029567
vt 0.777393 0.590346
vt 0.578679 0.590346
vt 0.548769 0.560436
vt 0.548769 0.059477
vt 0.807303 0.059477
vt 0.807303 0.560436
vt 0.102475 0.399462
vt 0.102475 0.458897
vt 0.027759 0.458897
vt 0.027759 0.399462
vt 0.191599 0.577767
vt 0.191599 0.637202
vt 0.102475 0.637202
vt 0.102475 0.577767
vt 0.191599 0.340027
vt 0.191599 0.399462
vt 0.102475 0.340027
vt 0.191599 0.458897
vt 0.191599 0.518332
vt 0.102475 0.518332
vt 0.191599 0.696637
vt 0.102475 0.696637
vt 0.859192 0.029567
vt 0.910664 0.059284
vt 0.807720 0.059284
vt 0.027759 0.577767
vt 0.027759 0.518332
vt 0.807720 0.448400
vt 0.859192 0.478118
vt 0.890604 0.501582
vt 0.827780 0.501582
vt 0.027759 0.637202
vt 0.102475 0.694042
vt 0.027759 0.694042
vt 0.827780 0.171901
vt 0.890604 0.171901
vt 0.877524 0.447983
vt 0.840860 0.447983
vt 0.102475 0.029567
vt 0.102475 0.066230
vt 0.027759 0.066231
vt 0.027759 0.029567
vt 0.027759 0.342622
vt 0.102475 0.342622
vt 0.807720 0.118719
vt 0.910664 0.118719
vt 0.910664 0.448400
vt 0.102475 0.970433
vt 0.027759 0.970433
vt 0.877524 0.777664
vt 0.840860 0.777664
vt 0.203737 0.714340
vt 0.383554 0.714739
vt 0.385971 0.717173
vt 0.203736 0.717178
vt 0.387925 0.005875
vt 0.390761 0.005892
vt 0.203739 0.709143
vt 0.383566 0.709551
vt 0.401907 0.736835
vt 0.203734 0.736818
vt 0.406754 0.006000
vt 0.380612 0.349935
vt 0.382734 0.005843
vt 0.380329 0.387173
vt 0.378363 0.714708
vt 0.407119 0.999817
vt 0.407694 0.720321
vt 0.533244 0.720321
vt 0.533244 0.999817
vt 0.897616 0.303449
vt 0.772197 0.303449
vt 0.772734 0.000183
vt 0.897616 0.000183
vt 0.735637 0.348980
vt 0.736098 0.042484
vt 0.740185 0.037271
vt 0.739736 0.353357
vt 0.610252 0.669935
vt 0.735863 0.669725
vt 0.739954 0.674920
vt 0.607283 0.675160
vt 0.611424 0.042948
vt 0.608353 0.037720
vt 0.607744 0.353409
vt 0.610863 0.349034
vt 0.607758 0.383812
vt 0.610767 0.388190
vt 0.735651 0.388141
vt 0.739745 0.383769
vt 0.731529 0.348973
vt 0.731989 0.042478
vt 0.771378 0.349727
vt 0.771832 0.000182
vt 0.589263 0.000770
vt 0.736113 0.046543
vt 0.611439 0.047006
vt 0.589541 0.719414
vt 0.771592 0.719103
vt 0.771327 0.387423
vt 0.731768 0.669728
vt 0.731556 0.388144
vt 0.610245 0.665887
vt 0.735856 0.665676
vt 0.615527 0.042955
vt 0.614966 0.349041
vt 0.614865 0.388197
vt 0.614350 0.669942
vt 0.735653 0.392184
vt 0.610769 0.392233
vt 0.610861 0.344990
vt 0.735635 0.344935
vt 0.020912 0.717065
vt 0.023344 0.714620
vt 0.016300 0.000230
vt 0.019158 0.000213
vt 0.023337 0.709415
vt 0.004881 0.736835
vt 0.000183 0.000333
vt 0.024390 0.000182
vt 0.026422 0.346965
vt 0.026696 0.384492
vt 0.028576 0.714590
vt 0.898322 0.886942
vt 0.772197 0.886942
vt 0.772197 0.607446
vt 0.897747 0.607446
vt 0.772197 0.607081
vt 0.772197 0.303814
vt 0.897079 0.303814
vt 0.897616 0.607081
vt 0.443099 0.349088
vt 0.439005 0.353461
vt 0.438772 0.038024
vt 0.442865 0.043220
vt 0.568610 0.669976
vt 0.571596 0.675199
vt 0.438725 0.675598
vt 0.442810 0.670386
vt 0.570356 0.037764
vt 0.567303 0.042992
vt 0.571017 0.353415
vt 0.567896 0.349040
vt 0.568011 0.388200
vt 0.571018 0.383820
vt 0.439007 0.383877
vt 0.443107 0.388252
vt 0.446965 0.043216
vt 0.447199 0.349085
vt 0.407406 0.349812
vt 0.407119 0.001102
vt 0.567310 0.047043
vt 0.442872 0.047270
vt 0.407119 0.719956
vt 0.407383 0.387518
vt 0.447210 0.388257
vt 0.446913 0.670390
vt 0.442797 0.666331
vt 0.568597 0.665921
vt 0.563793 0.349048
vt 0.563201 0.043000
vt 0.564512 0.669985
vt 0.563913 0.388209
vt 0.568013 0.392244
vt 0.443108 0.392296
vt 0.443097 0.345043
vt 0.567894 0.344995
s 0
g Rural_Default_Door01_2.0x3.0_Wall_Primary
usemtl Wall_Primary
f 2/1/1 1/2/1 3/3/1 5/4/1
f 11/14/1 15/15/1 12/13/1 10/16/1
f 1/2/1 10/16/1 12/13/1 3/3/1
g Rural_Default_Door01_2.0x3.0_Wall_Secondary
usemtl Wall_Secondary
f 9/5/1 19/6/2 18/7/3 8/8/3
f 8/8/3 18/7/3 13/9/3 4/10/3
f 8/8/4 7/11/4 6/12/1 9/5/5
f 3/3/1 12/13/1 19/6/1 9/5/1
f 5/4/1 3/3/1 9/5/1 6/12/1
f 18/7/6 19/6/1 16/17/1 17/18/6
f 15/15/1 16/17/1 19/6/1 12/13/1
f 17/18/6 14/19/6 13/9/6 18/7/6
f 7/11/4 8/8/4 4/10/4 28/21/4
g Rural_Default_Door01_2.0x3.0_Door_Step
usemtl Door_Step
f 24/20/7 25/20/7 27/20/7 26/20/7
f 20/20/3 22/20/3 23/20/3 21/20/3
f 21/20/4 23/20/4 27/20/4 25/20/4
f 23/20/1 22/20/1 26/20/1 27/20/1
f 22/20/6 20/20/6 24/20/6 26/20/6
f 20/20/8 21/20/8 25/20/8 24/20/8
g Rural_Default_Door01_2.0x3.0_Door_Handle
usemtl Door_Handle
f 33/22/1 36/23/1 35/24/1 34/25/1
f 30/26/3 31/27/3 35/24/3 36/23/3
f 32/28/7 29/29/7 33/22/7 34/25/7
f 29/30/4 30/31/4 36/23/4 33/22/4
f 31/32/6 32/33/6 34/25/6 35/24/6
s 1
f 44/34/9 48/35/10 53/36/10 49/37/11
f 40/38/12 39/39/13 45/40/14 46/41/12
f 38/42/6 37/43/15 44/34/9 43/44/6
f 37/43/15 42/45/10 48/35/10 44/34/9
f 41/46/4 40/38/12 46/41/12 47/47/4
f 39/39/13 38/48/6 43/49/6 45/40/14
f 42/45/10 41/46/4 47/47/4 48/35/10
f 52/50/1 51/51/1 53/52/1
f 47/47/4 46/41/12 51/53/12 52/54/4
f 45/55/8 43/56/8 55/57/8 56/58/8
f 48/35/10 47/47/4 52/54/4 53/36/10
f 46/41/12 45/40/14 50/59/16 51/53/12
f 50/59/16 45/40/14 56/60/17 59/61/17
f 58/62/1 59/63/1 60/64/1 54/65/1
f 61/66/18 57/67/19 54/68/19 60/69/20
f 44/34/9 49/37/11 58/70/21 55/71/21
f 49/72/1 50/73/1 59/63/1 58/62/1
f 43/56/8 44/74/8 55/57/8
f 59/61/17 56/60/17 61/75/18 60/76/20
f 55/71/21 58/70/21 54/68/19 57/67/19
f 56/58/8 55/57/8 57/77/8 61/78/8
f 51/51/1 50/73/1 49/72/1 53/52/1
s 0
g Rural_Default_Door01_2.0x3.0_Door_Frame
usemtl Door_Frame
f 66/79/22 67/80/22 68/81/1 65/82/1
f 67/80/23 70/83/23 69/84/24 68/81/25
f 67/80/3 66/79/3 73/85/3 71/86/3
f 65/82/1 68/81/1 63/87/1 62/88/1
f 68/81/1 69/84/1 64/89/1 63/87/1
f 70/83/4 76/90/4 72/91/4
f 75/92/4 67/80/4 71/93/4
f 76/90/4 70/83/4 67/80/4 75/92/4
f 100/102/26 85/103/26 86/104/26 99/105/26
f 92/106/27 87/107/27 88/108/27 91/109/27
f 85/103/28 89/110/28 90/111/28 86/104/28
f 98/112/29 90/111/29 89/110/29 97/113/29
f 91/109/30 93/114/30 94/115/30 92/106/30
f 87/107/31 95/116/31 96/117/31 88/108/31
f 93/114/32 96/117/32 95/116/32 94/115/32
f 97/113/33 100/102/33 99/105/33 98/112/33
f 85/103/4 100/102/4 77/118/4 78/119/4
f 76/120/1 99/105/1 86/104/1 72/121/1
f 86/104/1 90/111/1 74/122/1 72/121/1
f 89/110/7 85/103/7 78/123/7 81/124/7
f 73/125/1 91/109/1 88/108/1 71/126/1
f 88/108/1 96/117/1 75/127/1 71/126/1
f 95/116/4 87/107/4 80/128/4 84/129/4
f 87/107/3 92/106/3 79/130/3 80/131/3
f 97/113/34 89/110/34 81/132/34 82/133/34
f 92/106/35 94/115/35 83/134/35 79/135/35
f 94/115/7 95/116/7 84/136/7 83/137/7
f 96/117/1 93/114/1 98/112/1 99/105/1
f 75/127/1 96/117/1 99/105/1 76/120/1
f 100/102/3 97/113/3 82/138/3 77/139/3
f 66/79/22 65/82/1 104/140/2 103/141/22
f 103/141/36 104/140/37 105/142/38 106/143/36
f 103/141/3 107/144/3 73/85/3 66/79/3
f 65/82/1 62/88/1 101/145/1 104/140/1
f 104/140/1 101/145/1 102/146/1 105/142/1
f 106/143/6 108/147/6 110/148/6
f 109/149/6 107/150/6 103/141/6
f 110/148/6 109/149/6 103/141/6 106/143/6
f 134/159/39 133/160/39 120/161/39 119/162/39
f 126/163/27 125/164/27 122/165/27 121/166/27
f 119/162/28 120/161/28 124/167/28 123/168/28
f 132/169/40 131/170/40 123/168/40 124/167/40
f 125/164/41 126/163/41 128/171/41 127/172/41
f 121/166/42 122/165/42 130/173/42 129/174/42
f 127/172/32 128/171/32 129/174/32 130/173/32
f 131/170/33 132/169/33 133/160/33 134/159/33
f 119/162/6 112/175/6 111/176/6 134/159/6
f 110/177/1 108/178/1 120/161/1 133/160/1
f 120/161/1 108/178/1 74/122/1 124/167/1
f 123/168/7 115/179/7 112/180/7 119/162/7
f 73/125/1 107/181/1 122/165/1 125/164/1
f 122/165/1 107/181/1 109/182/1 130/173/1
f 129/174/6 118/183/6 114/184/6 121/166/6
f 121/166/3 114/185/3 113/186/3 126/163/3
f 131/170/43 116/187/43 115/188/43 123/168/43
f 90/111/1 98/112/1 132/169/1 124/167/1
f 126/163/44 113/189/44 117/190/44 128/171/44
f 98/112/1 93/114/1 127/172/1 132/169/1
f 128/171/7 117/191/7 118/192/7 129/174/7
f 130/173/1 133/160/1 132/169/1 127/172/1
f 109/182/1 110/177/1 133/160/1 130/173/1
f 134/159/3 111/193/3 116/194/3 131/170/3
f 91/109/1 73/125/1 125/164/1
f 74/122/1 90/111/1 124/167/1
f 93/114/1 91/109/1 125/164/1 127/172/1
g Rural_Default_Door01_2.0x3.0_Door_Glass
usemtl Door_Glass
f 79/94/1 83/95/1 84/96/1 80/97/1
f 77/98/1 82/99/1 81/100/1 78/101/1
f 113/151/1 114/152/1 118/153/1 117/154/1
f 111/155/1 112/156/1 115/157/1 116/158/1
l 43 56
