# Blender 4.4.3
# www.blender.org
mtllib passer domesticus.mtl
o passer_domesticus
v -0.000000 0.011128 -0.042812
v -0.000000 0.014563 -0.034615
v -0.000000 0.019460 -0.028861
v -0.000000 0.022280 -0.020061
v -0.000000 0.021373 -0.009998
v -0.000000 0.022152 -0.005223
v 0.000000 0.022027 0.015455
v 0.000000 0.019666 0.036133
v 0.000000 0.016808 0.051472
v 0.000000 0.017193 0.098363
v 0.000000 0.014337 0.100058
v 0.000000 0.011467 0.072150
v 0.000000 0.000599 0.051472
v 0.000000 -0.006270 0.036133
v 0.000000 -0.010418 0.015455
v -0.000000 -0.009092 -0.003201
v -0.000000 -0.006460 -0.011934
v -0.000000 -0.003022 -0.019348
v -0.000000 0.001835 -0.027505
v -0.000000 0.007330 -0.034744
v -0.005337 0.011380 -0.031624
v -0.001162 0.011083 -0.041843
v -0.006782 0.013294 -0.026555
v -0.006274 0.018227 -0.028861
v -0.008523 0.015409 -0.020640
v -0.006274 0.021046 -0.020061
v -0.010537 0.015877 -0.013243
v -0.003692 0.020590 -0.009998
v -0.012970 0.017941 -0.007761
v -0.003692 0.021881 -0.005223
v -0.005267 0.021300 0.015455
v -0.015423 0.014635 0.014980
v -0.003692 0.019666 0.036133
v -0.010734 0.015409 0.039363
v -0.003692 0.016808 0.051472
v -0.012970 0.010285 0.049758
v -0.003692 0.011467 0.072150
v -0.012970 0.008398 0.057065
v -0.004306 0.002739 0.051472
v -0.008674 0.007210 0.046911
v -0.004845 -0.004449 0.036133
v -0.009633 -0.000608 0.035008
v -0.004845 -0.008596 0.015455
v -0.013124 -0.002718 0.015039
v -0.004845 -0.007270 -0.003201
v -0.011855 -0.001401 -0.003341
v -0.004845 -0.004639 -0.011934
v -0.010176 0.000561 -0.012011
v -0.008563 0.003367 -0.019521
v -0.004845 -0.001201 -0.019348
v -0.003875 0.003656 -0.027505
v -0.007564 0.006646 -0.026428
v -0.016719 0.020153 -0.001934
v -0.016005 0.024433 0.000603
v -0.016719 0.019732 0.015426
v -0.016005 0.024049 0.015901
v -0.016719 0.018690 0.035447
v -0.016005 0.022983 0.029437
v -0.042221 0.026452 0.001221
v -0.041507 0.030732 0.003758
v -0.042222 0.026023 0.020060
v -0.041508 0.030340 0.020535
v -0.042223 0.024973 0.045126
v -0.041508 0.029266 0.039117
v -0.104864 0.023991 0.006271
v -0.100903 0.028383 0.008809
v -0.099529 0.025473 0.026979
v -0.095851 0.029902 0.025434
v -0.084362 0.027663 0.045020
v -0.083647 0.031956 0.039011
v -0.061904 0.029878 0.001248
v -0.061190 0.034157 0.003785
v -0.061191 0.033763 0.020596
v -0.056295 0.032687 0.042949
v -0.057009 0.028394 0.048958
v -0.061905 0.029446 0.020121
v -0.034224 0.010285 0.083171
v -0.020347 0.014323 0.093480
v -0.034224 0.008398 0.084973
v -0.020347 0.011467 0.095175
v -0.002165 0.013218 -0.034313
v -0.002181 0.008003 -0.033806
v -0.011268 0.006441 0.037612
v -0.015909 0.005958 0.015047
v -0.014253 0.007196 -0.005787
v -0.011755 0.007978 -0.012815
v -0.009866 0.009032 -0.020321
v -0.007891 0.010075 -0.026491
v 0.005337 0.011380 -0.031624
v 0.001162 0.011083 -0.041843
v 0.006782 0.013294 -0.026555
v 0.006274 0.018227 -0.028861
v 0.008523 0.015409 -0.020640
v 0.006274 0.021046 -0.020061
v 0.010537 0.015877 -0.013243
v 0.003692 0.020590 -0.009998
v 0.012970 0.017941 -0.007761
v 0.003692 0.021881 -0.005223
v 0.005267 0.021300 0.015455
v 0.015423 0.014635 0.014980
v 0.003692 0.019666 0.036133
v 0.010734 0.015409 0.039363
v 0.003692 0.016808 0.051472
v 0.012970 0.010285 0.049758
v 0.003692 0.011467 0.072150
v 0.012970 0.008398 0.057065
v 0.004306 0.002739 0.051472
v 0.008674 0.007210 0.046911
v 0.004845 -0.004449 0.036133
v 0.009633 -0.000608 0.035008
v 0.004845 -0.008596 0.015455
v 0.013124 -0.002718 0.015039
v 0.004845 -0.007270 -0.003201
v 0.011855 -0.001401 -0.003341
v 0.004845 -0.004639 -0.011934
v 0.010176 0.000561 -0.012011
v 0.008563 0.003367 -0.019521
v 0.004845 -0.001201 -0.019348
v 0.003875 0.003656 -0.027505
v 0.007564 0.006646 -0.026428
v 0.016719 0.020153 -0.001934
v 0.016005 0.024433 0.000603
v 0.016719 0.019732 0.015426
v 0.016005 0.024049 0.015901
v 0.016719 0.018690 0.035447
v 0.016005 0.022983 0.029437
v 0.042221 0.026452 0.001221
v 0.041507 0.030732 0.003758
v 0.042222 0.026023 0.020060
v 0.041508 0.030340 0.020535
v 0.042223 0.024973 0.045126
v 0.041508 0.029266 0.039117
v 0.104864 0.023991 0.006271
v 0.100903 0.028383 0.008809
v 0.099529 0.025473 0.026979
v 0.095851 0.029902 0.025434
v 0.084362 0.027663 0.045020
v 0.083647 0.031956 0.039011
v 0.061904 0.029878 0.001248
v 0.061190 0.034157 0.003785
v 0.061191 0.033763 0.020596
v 0.056295 0.032687 0.042949
v 0.057009 0.028394 0.048958
v 0.061905 0.029446 0.020121
v 0.034224 0.010285 0.083171
v 0.020347 0.014323 0.093480
v 0.034224 0.008398 0.084973
v 0.020347 0.011467 0.095175
v 0.002165 0.013218 -0.034313
v 0.002181 0.008003 -0.033806
v 0.011268 0.006441 0.037612
v 0.015909 0.005958 0.015047
v 0.014253 0.007196 -0.005787
v 0.011755 0.007978 -0.012815
v 0.009866 0.009032 -0.020321
v 0.007891 0.010075 -0.026491
vn -0.8342 -0.1473 -0.5314
vn -0.5979 -0.6195 -0.5087
vn -0.5460 -0.6564 -0.5206
vn -0.7924 -0.4238 -0.4387
vn -0.8116 -0.0398 -0.5829
vn -0.5463 0.6308 -0.5511
vn -0.6131 0.6524 -0.4454
vn -0.9281 0.1961 -0.3166
vn -0.9236 0.3478 -0.1613
vn -0.5534 0.8264 -0.1041
vn -0.8572 0.4471 -0.2556
vn -0.3815 0.9155 -0.1275
vn -0.8930 0.3023 -0.3335
vn -0.0117 0.9929 -0.1184
vn -0.2722 0.9289 -0.2510
vn 0.0346 -0.9928 -0.1144
vn -0.6859 0.6635 0.2987
vn -0.2321 0.9708 0.0606
vn -0.2571 0.7979 0.5452
vn -0.1577 0.9735 0.1654
vn -0.0735 0.9749 0.2103
vn -0.8705 0.3865 0.3048
vn -0.4986 0.8567 -0.1318
vn -0.2398 0.9704 -0.0278
vn -0.2681 0.9632 0.0198
vn -0.5613 0.8019 -0.2047
vn -0.5984 0.4755 0.6449
vn -0.4064 0.4937 0.7689
vn 0.0793 -0.9883 0.1304
vn -0.1577 -0.9869 0.0351
vn -0.7333 -0.6453 0.2143
vn -0.4409 -0.8321 0.3364
vn -0.8043 -0.5470 0.2321
vn -0.5404 -0.7986 0.2651
vn -0.8195 -0.5711 0.0482
vn -0.5129 -0.8567 0.0543
vn -0.8205 -0.5555 -0.1349
vn -0.5249 -0.8412 -0.1299
vn -0.8086 -0.5064 -0.2996
vn -0.5324 -0.7873 -0.3110
vn -0.8202 -0.4564 -0.3449
vn -0.5309 -0.7379 -0.4168
vn -0.9753 -0.1308 0.1780
vn -0.9926 -0.1084 0.0550
vn -0.9854 -0.0813 -0.1498
vn -0.9477 -0.0772 -0.3097
vn -0.9613 -0.0086 -0.2752
vn -0.9428 0.0484 -0.3297
vn -0.5213 -0.7579 -0.3921
vn 0.1859 0.9657 -0.1815
vn -0.9880 -0.1500 0.0356
vn -0.3520 -0.9356 -0.0286
vn 0.1405 0.9887 0.0526
vn 0.2444 0.9686 0.0448
vn -0.3566 -0.9340 -0.0231
vn 0.2629 0.9461 0.1891
vn 0.2408 0.7598 0.6039
vn -0.2221 -0.9319 -0.2868
vn 0.1948 0.9624 -0.1892
vn -0.2204 -0.9749 -0.0296
vn 0.2208 0.9746 0.0368
vn -0.2218 -0.9746 -0.0316
vn 0.2801 0.9358 0.2140
vn 0.3635 0.7371 0.5697
vn -0.0041 -0.9600 -0.2801
vn -0.0390 0.9764 -0.2122
vn 0.0077 -1.0000 -0.0054
vn -0.0075 1.0000 0.0061
vn -0.0419 -0.9990 -0.0125
vn 0.0546 0.9802 0.1904
vn 0.0397 0.8108 0.5839
vn 0.0719 -0.9974 -0.0066
vn 0.1037 -0.9946 0.0036
vn 0.0690 -0.9961 0.0545
vn 0.1302 -0.9863 0.1013
vn -0.0000 0.7736 -0.6337
vn -0.0000 0.9316 -0.3636
vn -0.0000 0.8915 -0.4531
vn -0.0000 0.9928 -0.1197
vn -0.0000 0.9999 0.0124
vn -0.0000 0.9997 -0.0237
vn -0.0000 0.9984 0.0559
vn -0.0000 0.9913 0.1314
vn -0.0000 0.9998 0.0184
vn -0.0000 0.9933 0.1152
vn -0.0000 0.5104 0.8600
vn -0.0000 -0.9862 0.1657
vn -0.0000 -0.9960 0.0891
vn -0.0000 -0.9044 0.4267
vn -0.0000 -0.9576 0.2883
vn -0.0000 -0.9976 0.0695
vn -0.0000 -0.9903 -0.1391
vn -0.0000 -0.9380 -0.3465
vn -0.0000 -0.8824 -0.4706
vn -0.0000 -0.8304 -0.5572
vn -0.0000 -0.8414 -0.5404
vn -0.0000 -0.9101 -0.4144
vn 0.8342 -0.1473 -0.5314
vn 0.7924 -0.4238 -0.4387
vn 0.5460 -0.6564 -0.5206
vn 0.5979 -0.6195 -0.5087
vn 0.8116 -0.0398 -0.5829
vn 0.5463 0.6308 -0.5511
vn 0.6131 0.6524 -0.4454
vn 0.5533 0.8264 -0.1041
vn 0.9236 0.3478 -0.1613
vn 0.9281 0.1961 -0.3166
vn 0.3815 0.9155 -0.1275
vn 0.8572 0.4471 -0.2556
vn 0.0117 0.9929 -0.1184
vn 0.8930 0.3023 -0.3335
vn 0.2722 0.9289 -0.2510
vn 0.2321 0.9708 0.0606
vn 0.6859 0.6635 0.2987
vn -0.0346 -0.9928 -0.1144
vn 0.1577 0.9735 0.1654
vn 0.2571 0.7979 0.5452
vn 0.0735 0.9749 0.2103
vn 0.2397 0.9705 -0.0278
vn 0.4986 0.8567 -0.1319
vn 0.8705 0.3865 0.3048
vn 0.2681 0.9632 0.0198
vn 0.4064 0.4937 0.7689
vn 0.5984 0.4755 0.6449
vn 0.5613 0.8019 -0.2047
vn -0.0793 -0.9883 0.1304
vn 0.4409 -0.8321 0.3364
vn 0.7330 -0.6459 0.2134
vn 0.1576 -0.9869 0.0351
vn 0.5404 -0.7986 0.2651
vn 0.8043 -0.5470 0.2321
vn 0.5129 -0.8568 0.0541
vn 0.8195 -0.5711 0.0482
vn 0.5249 -0.8412 -0.1299
vn 0.8205 -0.5555 -0.1349
vn 0.5324 -0.7873 -0.3110
vn 0.8086 -0.5064 -0.2996
vn 0.5309 -0.7379 -0.4168
vn 0.8202 -0.4564 -0.3449
vn 0.9753 -0.1308 0.1780
vn 0.9926 -0.1084 0.0550
vn 0.9854 -0.0813 -0.1498
vn 0.9613 -0.0086 -0.2752
vn 0.9477 -0.0772 -0.3097
vn 0.9428 0.0484 -0.3297
vn -0.1859 0.9656 -0.1815
vn 0.5213 -0.7580 -0.3922
vn 0.3520 -0.9356 -0.0287
vn 0.9880 -0.1500 0.0356
vn -0.1405 0.9887 0.0526
vn -0.2444 0.9686 0.0448
vn 0.3566 -0.9340 -0.0231
vn -0.2408 0.7598 0.6039
vn -0.2630 0.9461 0.1891
vn -0.1948 0.9624 -0.1892
vn 0.2220 -0.9319 -0.2868
vn 0.2204 -0.9749 -0.0296
vn -0.2208 0.9746 0.0368
vn 0.2218 -0.9746 -0.0316
vn -0.3635 0.7371 0.5697
vn -0.2801 0.9358 0.2140
vn 0.0390 0.9764 -0.2122
vn 0.0041 -0.9600 -0.2801
vn -0.0077 -1.0000 -0.0054
vn 0.0075 1.0000 0.0061
vn 0.0419 -0.9990 -0.0125
vn -0.0397 0.8110 0.5837
vn -0.0546 0.9802 0.1904
vn -0.1037 -0.9946 0.0036
vn -0.0719 -0.9974 -0.0066
vn -0.0690 -0.9961 0.0545
vn -0.1302 -0.9863 0.1013
vt 0.864908 0.257106
vt 0.899220 0.244320
vt 0.912023 0.296963
vt 0.880172 0.305730
vt 0.890220 0.187688
vt 0.855360 0.225319
vt 0.817573 0.265329
vt 0.840431 0.289214
vt 0.810500 0.324406
vt 0.774706 0.306191
vt 0.783182 0.374267
vt 0.722886 0.350505
vt 0.757447 0.414787
vt 0.697094 0.371289
vt 0.317899 0.588463
vt 0.348237 0.622162
vt 0.192481 0.611057
vt 0.202397 0.570262
vt 0.055751 0.511795
vt 0.103733 0.495432
vt 0.699957 0.806940
vt 0.760610 0.775656
vt 0.819545 0.842972
vt 0.769393 0.878931
vt 0.170304 0.766298
vt 0.185820 0.867809
vt 0.171254 0.867650
vt 0.144875 0.775555
vt 0.905974 0.992453
vt 0.837497 0.890896
vt 0.844182 0.814025
vt 0.896011 0.838123
vt 0.875597 0.725967
vt 0.918089 0.733480
vt 0.883130 0.590781
vt 0.951054 0.597068
vt 0.888180 0.468808
vt 0.951191 0.471363
vt 0.888873 0.409616
vt 0.940963 0.411527
vt 0.886592 0.356129
vt 0.927094 0.359322
vt 0.826165 0.750935
vt 0.822181 0.589276
vt 0.829216 0.444797
vt 0.837252 0.394481
vt 0.849101 0.342974
vt 0.859303 0.298950
vt 0.730079 0.461072
vt 0.696726 0.465269
vt 0.764366 0.587227
vt 0.728084 0.586718
vt 0.567351 0.740915
vt 0.431560 0.692955
vt 0.502757 0.629248
vt 0.599125 0.671408
vt 0.726674 0.725329
vt 0.682410 0.709622
vt 0.329977 0.011796
vt 0.364261 0.008997
vt 0.358323 0.190187
vt 0.322857 0.190867
vt 0.481387 0.025913
vt 0.489637 0.206055
vt 0.224088 0.018448
vt 0.205840 0.197595
vt 0.617098 0.042230
vt 0.660305 0.226614
vt 0.078659 0.024019
vt 0.129717 0.024531
vt 0.078079 0.208986
vt 0.027052 0.210122
vt 0.354572 0.327612
vt 0.321911 0.323404
vt 0.478717 0.340873
vt 0.212295 0.331455
vt 0.674920 0.332729
vt 0.061531 0.313250
vt 0.012646 0.321141
vt 0.625937 0.515079
vt 0.491384 0.603075
vt 0.484776 0.898088
vt 0.382683 0.982713
vt 0.310232 0.995423
vt 0.085987 0.993186
vt 0.843759 0.210959
vt 0.893641 0.177064
vt 0.792847 0.230732
vt 0.744212 0.275832
vt 0.703899 0.331530
vt 0.679591 0.352360
vt 0.552149 0.773927
vt 0.421112 0.716321
vt 0.685399 0.828400
vt 0.752935 0.898029
vt 0.118257 0.623252
vt 0.507303 0.867097
vt 0.078616 0.652908
vt 0.052819 0.990634
vt 0.929226 0.835563
vt 0.931127 0.992211
vt 0.954213 0.736512
vt 0.986527 0.599131
vt 0.986953 0.470675
vt 0.976771 0.408422
vt 0.962577 0.354138
vt 0.941158 0.292152
vt 0.914072 0.234836
s 1
f 21/1/1 82/2/2 51/3/3 52/4/4
f 22/5/5 21/1/1 81/6/6
f 24/7/7 23/8/8 25/9/9 26/10/10
f 26/10/10 25/9/9 27/11/11 28/12/12
f 28/12/12 27/11/11 29/13/13 30/14/14
f 66/15/15 65/16/16 67/17/17 68/18/18
f 68/18/18 67/17/17 69/19/19 70/20/20
f 33/21/21 34/22/22 36/23/23 35/24/24
f 78/25/25 77/26/26 79/27/27 80/28/28
f 37/29/29 38/30/30 40/31/31 39/32/32
f 39/32/32 40/31/31 42/33/33 41/34/34
f 41/34/34 42/33/33 44/35/35 43/36/36
f 43/36/36 44/35/35 46/37/37 45/38/38
f 45/38/38 46/37/37 48/39/39 47/40/40
f 47/40/40 48/39/39 49/41/41 50/42/42
f 50/42/42 49/41/41 52/4/4 51/3/3
f 40/31/31 38/30/30 36/23/23
f 42/33/33 40/31/31 83/43/43
f 44/35/35 42/33/33 83/43/43 84/44/44
f 46/37/37 44/35/35 84/44/44 85/45/45
f 49/41/41 48/39/39 86/46/46 87/47/47
f 21/1/1 52/4/4 88/48/48
f 87/47/47 88/48/48 52/4/4 49/41/41
f 85/45/45 86/46/46 48/39/39 46/37/37
f 30/14/14 29/13/13 53/49/49 54/50/50
f 29/13/13 32/51/51 55/52/52 53/49/49
f 31/53/53 30/54/14 54/55/50 56/56/54
f 32/51/51 34/22/22 57/57/55 55/52/52
f 34/22/22 33/21/21 58/58/56 57/57/57
f 33/21/21 31/53/53 56/56/54 58/58/56
f 54/59/50 53/60/49 59/61/58 60/62/59
f 53/60/49 55/63/52 61/64/60 59/61/58
f 56/65/54 54/59/50 60/62/59 62/66/61
f 55/63/52 57/67/55 63/68/62 61/64/60
f 57/69/57 58/70/56 64/71/63 63/72/64
f 58/70/56 56/65/54 62/66/61 64/71/63
f 60/62/59 59/61/58 71/73/65 72/74/66
f 59/61/58 61/64/60 76/75/67 71/73/65
f 62/66/61 60/62/59 72/74/66 73/76/68
f 61/64/60 63/68/62 75/77/69 76/75/67
f 63/72/64 64/71/63 74/78/70 75/79/71
f 64/71/63 62/66/61 73/76/68 74/78/70
f 72/74/66 71/73/65 65/16/16 66/15/15
f 73/76/68 72/74/66 66/15/15 68/18/18
f 74/78/70 73/76/68 68/18/18 70/20/20
f 75/79/71 74/78/70 70/20/20 69/19/19
f 76/75/67 75/77/69 69/80/72 67/81/73
f 71/73/65 76/75/67 67/81/73 65/16/16
f 35/82/24 36/83/23 77/26/26 78/25/25
f 36/83/23 38/84/30 79/27/74 77/26/26
f 38/84/30 37/85/29 80/28/75 79/27/74
f 81/6/6 21/1/1 23/8/8 24/7/7
f 21/1/1 22/5/5 82/2/2
f 2/86/76 1/87/77 22/5/5 81/6/6
f 3/88/78 2/86/76 81/6/6 24/7/7
f 4/89/79 3/88/78 24/7/7 26/10/10
f 5/90/80 4/89/79 26/10/10 28/12/12
f 6/91/81 5/90/80 28/12/12 30/14/14
f 7/92/82 6/93/81 30/54/14 31/53/53
f 8/94/83 7/92/82 31/53/53 33/21/21
f 9/95/84 8/94/83 33/21/21 35/24/24
f 10/96/85 9/97/84 35/82/24 78/25/25
f 11/98/86 10/96/85 78/25/25 80/28/28
f 37/85/29 12/99/87 11/98/88 80/28/75
f 13/100/89 12/101/87 37/29/29 39/32/32
f 14/102/90 13/100/89 39/32/32 41/34/34
f 15/103/91 14/102/90 41/34/34 43/36/36
f 16/104/92 15/103/91 43/36/36 45/38/38
f 17/105/93 16/104/92 45/38/38 47/40/40
f 18/106/94 17/105/93 47/40/40 50/42/42
f 19/107/95 18/106/94 50/42/42 51/3/3
f 20/108/96 19/107/95 51/3/3 82/2/2
f 1/87/97 20/108/96 82/2/2 22/5/5
f 83/43/43 40/31/31 36/23/23 34/22/22
f 84/44/44 83/43/43 34/22/22 32/51/51
f 85/45/45 84/44/44 32/51/51 29/13/13
f 27/11/11 86/46/46 85/45/45 29/13/13
f 87/47/47 86/46/46 27/11/11 25/9/9
f 23/8/8 88/48/48 87/47/47 25/9/9
f 21/1/1 88/48/48 23/8/8
f 89/1/98 120/4/99 119/3/100 150/2/101
f 90/5/102 149/6/103 89/1/98
f 92/7/104 94/10/105 93/9/106 91/8/107
f 94/10/105 96/12/108 95/11/109 93/9/106
f 96/12/108 98/14/110 97/13/111 95/11/109
f 134/15/112 136/18/113 135/17/114 133/16/115
f 136/18/113 138/20/116 137/19/117 135/17/114
f 101/21/118 103/24/119 104/23/120 102/22/121
f 146/25/122 148/28/123 147/27/124 145/26/125
f 105/29/126 107/32/127 108/31/128 106/30/129
f 107/32/127 109/34/130 110/33/131 108/31/128
f 109/34/130 111/36/132 112/35/133 110/33/131
f 111/36/132 113/38/134 114/37/135 112/35/133
f 113/38/134 115/40/136 116/39/137 114/37/135
f 115/40/136 118/42/138 117/41/139 116/39/137
f 118/42/138 119/3/100 120/4/99 117/41/139
f 108/31/128 104/23/120 106/30/129
f 110/33/131 151/43/140 108/31/128
f 112/35/133 152/44/141 151/43/140 110/33/131
f 114/37/135 153/45/142 152/44/141 112/35/133
f 117/41/139 155/47/143 154/46/144 116/39/137
f 89/1/98 156/48/145 120/4/99
f 155/47/143 117/41/139 120/4/99 156/48/145
f 153/45/142 114/37/135 116/39/137 154/46/144
f 98/14/110 122/50/146 121/49/147 97/13/111
f 97/13/111 121/49/147 123/52/148 100/51/149
f 99/53/150 124/56/151 122/55/146 98/54/110
f 100/51/149 123/52/148 125/57/152 102/22/121
f 102/22/121 125/57/153 126/58/154 101/21/118
f 101/21/118 126/58/154 124/56/151 99/53/150
f 122/59/146 128/62/155 127/61/156 121/60/147
f 121/60/147 127/61/156 129/64/157 123/63/148
f 124/65/151 130/66/158 128/62/155 122/59/146
f 123/63/148 129/64/157 131/68/159 125/67/152
f 125/69/153 131/72/160 132/71/161 126/70/154
f 126/70/154 132/71/161 130/66/158 124/65/151
f 128/62/155 140/74/162 139/73/163 127/61/156
f 127/61/156 139/73/163 144/75/164 129/64/157
f 130/66/158 141/76/165 140/74/162 128/62/155
f 129/64/157 144/75/164 143/77/166 131/68/159
f 131/72/160 143/79/167 142/78/168 132/71/161
f 132/71/161 142/78/168 141/76/165 130/66/158
f 140/74/162 134/15/112 133/16/115 139/73/163
f 141/76/165 136/18/113 134/15/112 140/74/162
f 142/78/168 138/20/116 136/18/113 141/76/165
f 143/79/167 137/19/117 138/20/116 142/78/168
f 144/75/164 135/81/169 137/80/170 143/77/166
f 139/73/163 133/16/115 135/81/169 144/75/164
f 103/82/119 146/25/122 145/26/125 104/83/120
f 104/83/120 145/26/125 147/27/171 106/84/129
f 106/84/129 147/27/171 148/28/172 105/85/126
f 149/6/103 92/7/104 91/8/107 89/1/98
f 89/1/98 150/2/101 90/5/102
f 2/86/76 149/6/103 90/5/102 1/87/77
f 3/88/78 92/7/104 149/6/103 2/86/76
f 4/89/79 94/10/105 92/7/104 3/88/78
f 5/90/80 96/12/108 94/10/105 4/89/79
f 6/91/81 98/14/110 96/12/108 5/90/80
f 7/92/82 99/53/150 98/54/110 6/93/81
f 8/94/83 101/21/118 99/53/150 7/92/82
f 9/95/84 103/24/119 101/21/118 8/94/83
f 10/96/85 146/25/122 103/82/119 9/97/84
f 11/98/86 148/28/123 146/25/122 10/96/85
f 105/85/126 148/28/172 11/98/88 12/99/87
f 13/100/89 107/32/127 105/29/126 12/101/87
f 14/102/90 109/34/130 107/32/127 13/100/89
f 15/103/91 111/36/132 109/34/130 14/102/90
f 16/104/92 113/38/134 111/36/132 15/103/91
f 17/105/93 115/40/136 113/38/134 16/104/92
f 18/106/94 118/42/138 115/40/136 17/105/93
f 19/107/95 119/3/100 118/42/138 18/106/94
f 20/108/96 150/2/101 119/3/100 19/107/95
f 1/87/97 90/5/102 150/2/101 20/108/96
f 151/43/140 102/22/121 104/23/120 108/31/128
f 152/44/141 100/51/149 102/22/121 151/43/140
f 153/45/142 97/13/111 100/51/149 152/44/141
f 95/11/109 97/13/111 153/45/142 154/46/144
f 155/47/143 93/9/106 95/11/109 154/46/144
f 91/8/107 93/9/106 155/47/143 156/48/145
f 89/1/98 91/8/107 156/48/145
