# Blender 5.1.1
# www.blender.org
o RidgeCap_Round_Large_Overhang
v -0.044430 -0.026786 0.200000
v -0.044430 -0.026786 -0.200001
v 0.035216 0.072093 -0.200001
v 0.044429 -0.026786 0.200000
v 0.044431 -0.026786 -0.200001
v -0.035216 0.072093 0.200000
v -0.035216 0.072093 -0.200001
v 0.035216 0.072093 0.200000
v -0.059229 0.047794 -0.200001
v -0.059229 0.047794 0.200000
v 0.000000 0.083283 -0.200001
v 0.000000 0.083283 0.200000
v 0.059229 0.047794 0.200000
v 0.059230 0.047794 -0.200001
v -0.070430 0.019933 0.200000
v 0.070429 0.019933 0.200000
v -0.070430 0.019933 -0.200001
v 0.070431 0.019933 -0.200001
v -0.044430 0.019933 -0.200001
v 0.044431 0.019933 -0.200001
v -0.044430 0.019933 0.200000
v 0.044429 0.019933 0.200000
vn -0.0000 -0.0000 1.0000
vn -0.8360 0.5487 -0.0000
vn -0.5223 0.8528 -0.0000
vn -0.0000 -0.0000 -1.0000
vn 0.5223 0.8528 -0.0000
vn 0.8360 0.5488 -0.0000
vn 0.8360 0.5487 -0.0000
vn -0.9535 0.3013 -0.0000
vn 0.9535 0.3013 -0.0000
vn -0.0000 1.0000 -0.0000
vn -0.0000 -1.0000 -0.0000
vn 0.0761 -0.9971 -0.0000
vn -0.0000 -0.9971 0.0761
vn -0.0761 -0.9971 -0.0000
vn -0.0000 -0.9971 -0.0761
vn -0.9971 -0.0000 0.0761
vn -1.0000 -0.0000 -0.0000
vn -0.9971 -0.0761 -0.0000
vn 0.9971 -0.0000 -0.0761
vn 0.9971 -0.0000 0.0761
vn 0.9971 -0.0761 -0.0000
vt 0.010575 0.824109
vt 0.016246 0.843259
vt 0.010575 0.843259
vt 0.040070 0.785702
vt 0.040070 0.879149
vt 0.030625 0.879149
vt 0.030625 0.785702
vt 0.041291 0.820920
vt 0.009430 0.820920
vt 0.017395 0.806653
vt 0.033326 0.806653
vt 0.020554 0.785702
vt 0.020554 0.879149
vt 0.011109 0.879149
vt 0.011109 0.785702
vt 0.050752 0.785702
vt 0.050752 0.879149
vt 0.000427 0.879149
vt 0.000427 0.785702
vt 0.018830 0.809323
vt 0.027070 0.805631
vt 0.035309 0.809323
vt 0.043565 0.824109
vt 0.025360 0.803082
vt 0.025589 0.785702
vt 0.025589 0.879149
vt 0.041291 0.839414
vt 0.035055 0.839414
vt 0.038966 0.843259
vt 0.011712 0.839414
vt 0.009623 0.833163
vt 0.039608 0.875486
vt 0.009430 0.839414
vt 0.008885 0.874155
vt 0.002920 0.800610
vt 0.043565 0.843259
s 1
f 13/1/1 22/2/1 16/3/1
f 9/4/2 10/5/2 6/6/3 7/7/3
f 14/8/4 9/9/4 7/10/4 3/11/4
f 3/12/5 8/13/5 13/14/6 14/15/7
f 17/16/8 15/17/8 10/5/2 9/4/2
f 16/18/9 18/19/9 14/15/7 13/14/6
f 8/20/1 12/21/1 6/22/1
f 6/22/1 10/23/1 13/1/1 8/20/1
f 7/10/4 11/24/4 3/11/4
f 11/25/10 12/26/10 8/13/5 3/12/5
f 7/7/3 6/6/3 12/26/10 11/25/10
f 18/27/4 20/28/4 14/8/4
f 22/2/1 21/29/1 1/29/1 4/2/1
f 19/30/4 20/28/4 5/28/4 2/30/4
f 19/31/11 21/32/12 15/17/13 17/33/11
f 22/34/14 20/35/14 18/19/15 16/18/13
f 21/32/16 19/31/17 2/31/17 1/32/18
f 14/8/4 20/28/4 19/30/4 9/9/4
f 9/9/4 19/30/4 17/33/4
f 22/2/1 13/1/1 10/23/1 21/29/1
f 21/29/1 10/23/1 15/36/1
f 20/35/19 22/34/20 4/34/21 5/35/21
f 5/28/11 4/2/11 1/32/13 2/30/11
