{
  "asset": {
    "version": "2.0",
    "minVersion": "2.0",
    "generator": "Sketchup glTF Exporter v2.2.1 by Yulio Technogies Inc."
  },
  "scene": 0,
  "scenes": [
    {
      "nodes": [
        0
      ]
    }
  ],
  "nodes": [
    {
      "name": "root",
      "children": [
        1,
        2,
        3
      ]
    },
    {
      "name": "Lamp",
      "mesh": 0
    },
    {
      "mesh": 1
    },
    {
      "children": [
        4,
        11
      ]
    },
    {
      "children": [
        5,
        6,
        7,
        8,
        9,
        10
      ]
    },
    {
      "mesh": 2
    },
    {
      "mesh": 3
    },
    {
      "mesh": 4
    },
    {
      "mesh": 5
    },
    {
      "mesh": 6
    },
    {
      "mesh": 7
    },
    {
      "mesh": 8
    }
  ],
  "materials": [
    {
      "pbrMetallicRoughness": {
        "baseColorFactor": [
          1.0,
          1.0,
          1.0,
          1.0
        ],
        "metallicFactor": 0.1,
        "roughnessFactor": 0.5
      },
      "name": "default material",
      "doubleSided": true
    }
  ],
  "meshes": [
    {
      "primitives": [
        {
          "attributes": {
            "POSITION": 0,
            "NORMAL": 1
          },
          "indices": 2,
          "mode": 4,
          "material": 0
        }
      ]
    },
    {
      "primitives": [
        {
          "attributes": {
            "POSITION": 3,
            "NORMAL": 4
          },
          "indices": 5,
          "mode": 4,
          "material": 0
        }
      ]
    },
    {
      "primitives": [
        {
          "attributes": {
            "POSITION": 6,
            "NORMAL": 7
          },
          "indices": 8,
          "mode": 4,
          "material": 0
        }
      ]
    },
    {
      "primitives": [
        {
          "attributes": {
            "POSITION": 9,
            "NORMAL": 10
          },
          "indices": 11,
          "mode": 4,
          "material": 0
        }
      ]
    },
    {
      "primitives": [
        {
          "attributes": {
            "POSITION": 12,
            "NORMAL": 13
          },
          "indices": 14,
          "mode": 4,
          "material": 0
        }
      ]
    },
    {
      "primitives": [
        {
          "attributes": {
            "POSITION": 15,
            "NORMAL": 16
          },
          "indices": 17,
          "mode": 4,
          "material": 0
        }
      ]
    },
    {
      "primitives": [
        {
          "attributes": {
            "POSITION": 18,
            "NORMAL": 19
          },
          "indices": 20,
          "mode": 4,
          "material": 0
        }
      ]
    },
    {
      "primitives": [
        {
          "attributes": {
            "POSITION": 21,
            "NORMAL": 22
          },
          "indices": 23,
          "mode": 4,
          "material": 0
        }
      ]
    },
    {
      "primitives": [
        {
          "attributes": {
            "POSITION": 24,
            "NORMAL": 25
          },
          "indices": 26,
          "mode": 4,
          "material": 0
        }
      ]
    }
  ],
  "accessors": [
    {
      "bufferView": 0,
      "componentType": 5126,
      "count": 2490,
      "type": "VEC3",
      "min": [
        -0.1707450185655592,
        5.958320774833352,
        -1.1536275225228922
      ],
      "max": [
        0.1654181200555461,
        6.1783207748333515,
        1.1503254097465447
      ]
    },
    {
      "bufferView": 1,
      "componentType": 5126,
      "count": 2490,
      "type": "VEC3"
    },
    {
      "bufferView": 2,
      "componentType": 5123,
      "count": 2490,
      "type": "SCALAR"
    },
    {
      "bufferView": 3,
      "componentType": 5126,
      "count": 11448,
      "type": "VEC3",
      "min": [
        -0.3091651344683681,
        6.1783207748333515,
        -1.293895507020045
      ],
      "max": [
        0.3038382359583551,
        6.563943833820843,
        1.2905933942436976
      ]
    },
    {
      "bufferView": 4,
      "componentType": 5126,
      "count": 11448,
      "type": "VEC3"
    },
    {
      "bufferView": 5,
      "componentType": 5123,
      "count": 11448,
      "type": "SCALAR"
    },
    {
      "bufferView": 6,
      "componentType": 5126,
      "count": 2904,
      "type": "VEC3",
      "min": [
        -0.042055759375494495,
        5.845326936268805,
        -0.16330211277634654
      ],
      "max": [
        0.036728860865481314,
        6.6139438338208425,
        -0.08330211277634736
      ]
    },
    {
      "bufferView": 7,
      "componentType": 5126,
      "count": 2904,
      "type": "VEC3"
    },
    {
      "bufferView": 8,
      "componentType": 5123,
      "count": 2904,
      "type": "SCALAR"
    },
    {
      "bufferView": 9,
      "componentType": 5126,
      "count": 2904,
      "type": "VEC3",
      "min": [
        -0.02235960431525045,
        6.563943833820842,
        -1.0033021127763448
      ],
      "max": [
        0.017032705805237622,
        7.043984180985035,
        -0.10330211277634738
      ]
    },
    {
      "bufferView": 10,
      "componentType": 5126,
      "count": 2904,
      "type": "VEC3"
    },
    {
      "bufferView": 11,
      "componentType": 5123,
      "count": 2904,
      "type": "SCALAR"
    },
    {
      "bufferView": 12,
      "componentType": 5126,
      "count": 336,
      "type": "VEC3",
      "min": [
        -0.022971981492721456,
        5.994324889734068,
        -0.19999999999999912
      ],
      "max": [
        0.01764508298270833,
        6.034324889734068,
        0.20000000000000018
      ]
    },
    {
      "bufferView": 13,
      "componentType": 5126,
      "count": 336,
      "type": "VEC3"
    },
    {
      "bufferView": 14,
      "componentType": 5123,
      "count": 336,
      "type": "SCALAR"
    },
    {
      "bufferView": 15,
      "componentType": 5126,
      "count": 2904,
      "type": "VEC3",
      "min": [
        -0.04205575937549416,
        5.845326936268805,
        0.08000000000000004
      ],
      "max": [
        0.03672886086548163,
        6.6139438338208425,
        0.15999999999999925
      ]
    },
    {
      "bufferView": 16,
      "componentType": 5126,
      "count": 2904,
      "type": "VEC3"
    },
    {
      "bufferView": 17,
      "componentType": 5123,
      "count": 2904,
      "type": "SCALAR"
    },
    {
      "bufferView": 18,
      "componentType": 5126,
      "count": 336,
      "type": "VEC3",
      "min": [
        -0.022971981492721456,
        6.553385335712491,
        -0.19999999999999912
      ],
      "max": [
        0.01764508298270833,
        6.593385335712491,
        0.20000000000000018
      ]
    },
    {
      "bufferView": 19,
      "componentType": 5126,
      "count": 336,
      "type": "VEC3"
    },
    {
      "bufferView": 20,
      "componentType": 5123,
      "count": 336,
      "type": "SCALAR"
    },
    {
      "bufferView": 21,
      "componentType": 5126,
      "count": 2904,
      "type": "VEC3",
      "min": [
        -0.022359604315250643,
        6.563943833820842,
        0.09999999999999987
      ],
      "max": [
        0.017032705805237556,
        7.043984180985035,
        0.9999999999999973
      ]
    },
    {
      "bufferView": 22,
      "componentType": 5126,
      "count": 2904,
      "type": "VEC3"
    },
    {
      "bufferView": 23,
      "componentType": 5123,
      "count": 2904,
      "type": "SCALAR"
    },
    {
      "bufferView": 24,
      "componentType": 5126,
      "count": 16974,
      "type": "VEC3",
      "min": [
        -0.15497744103786815,
        -9.184850993605021e-18,
        -0.14999999999999786
      ],
      "max": [
        0.14965054252785506,
        7.161895991751014,
        0.15000000000000038
      ]
    },
    {
      "bufferView": 25,
      "componentType": 5126,
      "count": 16974,
      "type": "VEC3"
    },
    {
      "bufferView": 26,
      "componentType": 5123,
      "count": 16974,
      "type": "SCALAR"
    }
  ],
  "bufferViews": [
    {
      "buffer": 0,
      "byteLength": 29880,
      "target": 34962,
      "byteStride": 12
    },
    {
      "buffer": 0,
      "byteOffset": 29880,
      "byteLength": 29880,
      "target": 34962,
      "byteStride": 12
    },
    {
      "buffer": 0,
      "byteOffset": 59760,
      "byteLength": 4980,
      "target": 34963
    },
    {
      "buffer": 0,
      "byteOffset": 64740,
      "byteLength": 137376,
      "target": 34962,
      "byteStride": 12
    },
    {
      "buffer": 0,
      "byteOffset": 202116,
      "byteLength": 137376,
      "target": 34962,
      "byteStride": 12
    },
    {
      "buffer": 0,
      "byteOffset": 339492,
      "byteLength": 22896,
      "target": 34963
    },
    {
      "buffer": 0,
      "byteOffset": 362388,
      "byteLength": 34848,
      "target": 34962,
      "byteStride": 12
    },
    {
      "buffer": 0,
      "byteOffset": 397236,
      "byteLength": 34848,
      "target": 34962,
      "byteStride": 12
    },
    {
      "buffer": 0,
      "byteOffset": 432084,
      "byteLength": 5808,
      "target": 34963
    },
    {
      "buffer": 0,
      "byteOffset": 437892,
      "byteLength": 34848,
      "target": 34962,
      "byteStride": 12
    },
    {
      "buffer": 0,
      "byteOffset": 472740,
      "byteLength": 34848,
      "target": 34962,
      "byteStride": 12
    },
    {
      "buffer": 0,
      "byteOffset": 507588,
      "byteLength": 5808,
      "target": 34963
    },
    {
      "buffer": 0,
      "byteOffset": 513396,
      "byteLength": 4032,
      "target": 34962,
      "byteStride": 12
    },
    {
      "buffer": 0,
      "byteOffset": 517428,
      "byteLength": 4032,
      "target": 34962,
      "byteStride": 12
    },
    {
      "buffer": 0,
      "byteOffset": 521460,
      "byteLength": 672,
      "target": 34963
    },
    {
      "buffer": 0,
      "byteOffset": 522132,
      "byteLength": 34848,
      "target": 34962,
      "byteStride": 12
    },
    {
      "buffer": 0,
      "byteOffset": 556980,
      "byteLength": 34848,
      "target": 34962,
      "byteStride": 12
    },
    {
      "buffer": 0,
      "byteOffset": 591828,
      "byteLength": 5808,
      "target": 34963
    },
    {
      "buffer": 0,
      "byteOffset": 597636,
      "byteLength": 4032,
      "target": 34962,
      "byteStride": 12
    },
    {
      "buffer": 0,
      "byteOffset": 601668,
      "byteLength": 4032,
      "target": 34962,
      "byteStride": 12
    },
    {
      "buffer": 0,
      "byteOffset": 605700,
      "byteLength": 672,
      "target": 34963
    },
    {
      "buffer": 0,
      "byteOffset": 606372,
      "byteLength": 34848,
      "target": 34962,
      "byteStride": 12
    },
    {
      "buffer": 0,
      "byteOffset": 641220,
      "byteLength": 34848,
      "target": 34962,
      "byteStride": 12
    },
    {
      "buffer": 0,
      "byteOffset": 676068,
      "byteLength": 5808,
      "target": 34963
    },
    {
      "buffer": 0,
      "byteOffset": 681876,
      "byteLength": 203688,
      "target": 34962,
      "byteStride": 12
    },
    {
      "buffer": 0,
      "byteOffset": 885564,
      "byteLength": 203688,
      "target": 34962,
      "byteStride": 12
    },
    {
      "buffer": 0,
      "byteOffset": 1089252,
      "byteLength": 33948,
      "target": 34963
    }
  ],
  "buffers": [
    {
      "uri": "data:application/octet-stream;base64,",
      "byteLength": 1123200
    }
  ]
}