<?xml version="1.0" encoding="UTF-8" standalone="no"?>
<!--Creator: CorelDRAW-->

<svg
   xml:space="preserve"
   width="5mm"
   height="5mm"
   version="1.1"
   style="shape-rendering:geometricPrecision;text-rendering:geometricPrecision;image-rendering:optimizeQuality;fill-rule:evenodd;clip-rule:evenodd"
   viewBox="0 0 51.76 51.76"
   id="svg1"
   sodipodi:docname="cloudy.svg"
   inkscape:version="1.3.2 (091e20ef0f, 2023-11-25, custom)"
   xmlns:inkscape="http://www.inkscape.org/namespaces/inkscape"
   xmlns:sodipodi="http://sodipodi.sourceforge.net/DTD/sodipodi-0.dtd"
   xmlns="http://www.w3.org/2000/svg"
   xmlns:svg="http://www.w3.org/2000/svg"><defs
   id="defs1" /><sodipodi:namedview
   id="namedview1"
   pagecolor="#ffffff"
   bordercolor="#000000"
   borderopacity="0.25"
   inkscape:showpageshadow="2"
   inkscape:pageopacity="0.0"
   inkscape:pagecheckerboard="0"
   inkscape:deskcolor="#d1d1d1"
   inkscape:document-units="mm"
   inkscape:zoom="7.8390152"
   inkscape:cx="11.608601"
   inkscape:cy="16.201015"
   inkscape:window-width="2560"
   inkscape:window-height="1372"
   inkscape:window-x="1080"
   inkscape:window-y="240"
   inkscape:window-maximized="1"
   inkscape:current-layer="Ebene_x0020_1" />
    <g
   id="Ebene_x0020_1"
   inkscape:label="Ebene 1">
        <metadata
   id="CorelCorpID_0Corel-Layer" />
        <circle
   cx="25.88"
   cy="25.88"
   r="25.88"
   style="fill:#E6E6E6"
   id="circle1" />
    <path
   d="m 39.265029,29.627098 c -0.328324,-0.321691 -0.331639,-0.848998 -0.0099,-1.177319 0.321691,-0.328323 0.848996,-0.331642 1.177319,-0.0099 l 2.291626,2.261778 c 0.328323,0.32169 0.33164,0.848996 0.0099,1.177318 -0.32169,0.328325 -0.848998,0.331642 -1.17732,0.0099 z M 27.402294,25.763501 c -0.19235,0.09285 -0.381384,0.195669 -0.573735,0.308426 -0.570418,0.334954 -1.134205,0.742872 -1.707942,1.213798 l -1.227065,-1.40615 c 0.424497,-0.39465 0.882161,-0.752822 1.36967,-1.06788 0.388019,-0.252043 0.792619,-0.47756 1.210484,-0.66991 0.165819,-0.08292 0.33827,-0.162502 0.507408,-0.235464 -0.809201,-1.43268 -1.973253,-2.460763 -3.293177,-3.094192 -1.319926,-0.633432 -2.79572,-0.875529 -4.231718,-0.73624 -1.429364,0.139289 -2.815615,0.656645 -3.963087,1.545439 -1.326559,1.028081 -2.334741,2.563572 -2.719443,4.599835 L 12.6543,26.85791 12.020869,26.970666 c -0.620164,0.10944 -1.177319,0.258678 -1.664828,0.447714 -0.4709273,0.1824 -0.8921108,0.407916 -1.2602288,0.673225 -0.2951598,0.21225 -0.5472057,0.451032 -0.7627714,0.70971 -0.6665938,0.799251 -0.9783348,1.800801 -0.9683857,2.815616 0.00664,1.028082 0.3415879,2.06943 0.9617533,2.925058 0.2288316,0.318374 0.4974605,0.606901 0.8025673,0.862263 v 0.0034 c 0.305109,0.255362 0.6533285,0.464294 1.0479793,0.626796 0.388018,0.159188 0.815832,0.275261 1.293394,0.341589 H 29.86969 c 0.895428,-0.215565 1.688045,-0.507407 2.357955,-0.882161 0.666595,-0.37475 1.210484,-0.829096 1.621717,-1.372986 0.63343,-0.842363 0.945171,-2.03958 0.958436,-3.263329 0.01326,-1.28676 -0.298474,-2.576836 -0.908693,-3.515374 -0.175767,-0.268628 -0.368117,-0.514043 -0.570417,-0.732924 -0.915325,-0.984969 -2.079379,-1.416098 -3.283227,-1.426048 -0.878846,-0.0099 -1.78422,0.202301 -2.643167,0.580371 z m 1.432683,-2.351323 c 0.4046,-0.06301 0.812515,-0.09618 1.213799,-0.09287 1.704626,0.0099 3.34624,0.620166 4.642947,2.016367 0.271945,0.291844 0.527307,0.620165 0.766087,0.988284 0.102807,0.159188 0.202301,0.325008 0.291843,0.500777 0.119388,-0.218883 0.225514,-0.444398 0.311742,-0.683177 0.202299,-0.543889 0.31174,-1.137524 0.31174,-1.757686 0,-1.392887 -0.563787,-2.656432 -1.479111,-3.56844 -0.912008,-0.912007 -2.175553,-1.479111 -3.568437,-1.479111 -0.88216,0 -1.707941,0.222199 -2.420965,0.613533 -0.596951,0.328322 -1.124256,0.772718 -1.545441,1.309974 0.567104,0.620167 1.067879,1.339824 1.475796,2.152338 z m 7.657548,5.558274 c 0.122707,0.620165 0.182402,1.260228 0.17577,1.896976 -0.01658,1.598501 -0.451031,3.193685 -1.329875,4.364372 -0.573736,0.766087 -1.31329,1.386251 -2.198765,1.883711 -0.852316,0.47756 -1.847233,0.839046 -2.961541,1.097724 l -0.208931,0.02652 H 11.433868 l -0.116073,-0.0099 C 10.641252,38.143627 10.024403,37.984435 9.4705649,37.755603 8.9001461,37.520139 8.3894206,37.211714 7.9383917,36.833646 h -0.00667 C 7.507257,36.478759 7.132505,36.07416 6.8174476,35.636395 5.9717682,34.469031 5.5141054,33.042981 5.504156,31.623565 c -0.00995,-1.435998 0.4377645,-2.865361 1.3995175,-4.019466 0.3117412,-0.374752 0.6798603,-0.719658 1.101042,-1.024766 0.490827,-0.354854 1.0512976,-0.656645 1.6814119,-0.902058 0.4377636,-0.169136 0.9020576,-0.311741 1.3962006,-0.424498 0.557154,-2.21535 1.747738,-3.923292 3.276595,-5.11056 1.429366,-1.107674 3.153889,-1.754373 4.924841,-1.926824 1.764321,-0.169136 3.581703,0.12934 5.210054,0.912008 0.51404,0.245412 1.008183,0.540571 1.475793,0.882159 0.563787,-0.686492 1.256912,-1.26686 2.046214,-1.697991 0.988284,-0.540573 2.115858,-0.84568 3.313076,-0.84568 1.910241,0 3.638081,0.772719 4.891677,2.026315 1.250281,1.25028 2.026316,2.981437 2.026316,4.891679 0,0.842363 -0.152554,1.648246 -0.427816,2.39775 -0.288526,0.776036 -0.709706,1.489061 -1.24033,2.102591 -0.02984,0.03317 -0.05638,0.0597 -0.08624,0.08624 z M 22.543779,15.273754 c -0.32832,-0.32169 -0.331637,-0.848998 -0.0099,-1.177318 0.32169,-0.328324 0.848997,-0.331642 1.17732,-0.0099 l 2.291626,2.261779 c 0.328323,0.321691 0.33164,0.848998 0.0099,1.177319 -0.321689,0.328324 -0.848996,0.33164 -1.177319,0.0099 z m 9.007323,-3.982989 c -0.0034,-0.457661 0.368119,-0.832413 0.829097,-0.83573 0.457663,-0.0034 0.832414,0.368121 0.835731,0.829099 l 0.01991,3.220217 c 0.0034,0.457661 -0.36812,0.832414 -0.829097,0.83573 -0.457662,0.0034 -0.832416,-0.368121 -0.835732,-0.829097 z m 9.279264,3.157206 c 0.328323,-0.321691 0.85563,-0.318372 1.177319,0.0099 0.321689,0.328321 0.318373,0.855628 -0.0099,1.177319 l -2.291622,2.261779 c -0.328322,0.32169 -0.855628,0.318374 -1.177319,-0.0099 -0.321689,-0.328323 -0.318375,-0.85563 0.0099,-1.177319 z m 4.589886,8.828236 c 0.457661,-0.0034 0.832414,0.368119 0.83573,0.829098 0.0034,0.457663 -0.36812,0.832414 -0.829098,0.83573 l -3.220217,0.01991 c -0.45766,0.0034 -0.832412,-0.368119 -0.835729,-0.829098 -0.0034,-0.457662 0.368118,-0.832414 0.829097,-0.83573 z"
   id="path1"
   style="fill:#000000;fill-opacity:0.17;stroke:none;stroke-width:0.331363;stroke-dasharray:none;stroke-opacity:1" /></g>
</svg>
