<?xml version="1.0" encoding="UTF-8" standalone="no"?>
<!--Creator: CorelDRAW-->

<svg
   xml:space="preserve"
   width="5mm"
   height="5mm"
   version="1.1"
   style="shape-rendering:geometricPrecision;text-rendering:geometricPrecision;image-rendering:optimizeQuality;fill-rule:evenodd;clip-rule:evenodd"
   viewBox="0 0 51.76 51.76"
   id="svg1"
   sodipodi:docname="moon.svg"
   inkscape:version="1.3.2 (091e20ef0f, 2023-11-25, custom)"
   xmlns:inkscape="http://www.inkscape.org/namespaces/inkscape"
   xmlns:sodipodi="http://sodipodi.sourceforge.net/DTD/sodipodi-0.dtd"
   xmlns="http://www.w3.org/2000/svg"
   xmlns:svg="http://www.w3.org/2000/svg"><defs
   id="defs1" /><sodipodi:namedview
   id="namedview1"
   pagecolor="#ffffff"
   bordercolor="#000000"
   borderopacity="0.25"
   inkscape:showpageshadow="2"
   inkscape:pageopacity="0.0"
   inkscape:pagecheckerboard="0"
   inkscape:deskcolor="#d1d1d1"
   inkscape:document-units="mm"
   inkscape:zoom="16"
   inkscape:cx="-7.125"
   inkscape:cy="14.4375"
   inkscape:window-width="2560"
   inkscape:window-height="1372"
   inkscape:window-x="1080"
   inkscape:window-y="240"
   inkscape:window-maximized="1"
   inkscape:current-layer="Ebene_x0020_1" />
    <g
   id="Ebene_x0020_1"
   inkscape:label="Ebene 1">
        <metadata
   id="CorelCorpID_0Corel-Layer" />
        <circle
   cx="25.88"
   cy="25.88"
   r="25.88"
   style="fill:#E6E6E6"
   id="circle1" />
    <path
   d="m 22.491193,9.406769 c 0.593995,-0.1231792 1.18799,-0.2107718 1.773773,-0.2682561 0.602208,-0.057484 1.19894,-0.084856 1.787462,-0.079382 0.331214,0.00272 0.596731,0.2737311 0.593993,0.604945 -0.0027,0.2545692 -0.164238,0.4708161 -0.388697,0.5556731 -2.504633,0.985429 -4.508341,2.822162 -5.737392,5.096862 -1.209888,2.236378 -1.669755,4.894303 -1.119556,7.576862 l 0.0027,0.01916 c 0.626843,3.027459 2.41704,5.51567 4.812182,7.092358 2.392406,1.576688 5.384281,2.239116 8.41174,1.620485 l 0.01916,-0.0027 c 2.178896,-0.451656 4.075848,-1.502781 5.556731,-2.950815 1.53289,-1.497306 2.616863,-3.416158 3.101366,-5.518407 0.07391,-0.323004 0.396911,-0.522827 0.717175,-0.448919 0.24362,0.05748 0.418808,0.254569 0.457129,0.487241 0.722649,4.434434 -0.369535,8.778537 -2.753729,12.238491 -2.373246,3.443515 -6.030287,6.013844 -10.451035,6.92263 -4.549409,0.93618 -9.046801,-0.0602 -12.640884,-2.425232 -3.59682,-2.373243 -6.287591,-6.109663 -7.2237485,-10.659066 -0.9142604,-4.442645 0.013683,-8.83602 2.2610135,-12.386306 2.258276,-3.561234 5.844147,-6.279379 10.232047,-7.3441905 0.08486,-0.021897 0.1834,-0.043795 0.290155,-0.068433 h 0.0027 v 0 z m 0.766446,1.075761 c -0.175188,0.03011 -0.350376,0.06296 -0.522826,0.09854 l -0.276468,0.06022 v 0 c -0.07939,0.01916 -0.17245,0.03832 -0.27373,0.06296 -4.07311,0.988168 -7.404412,3.511963 -9.49845,6.821366 -2.088564,3.298453 -2.950815,7.377038 -2.102251,11.499419 0.870464,4.223662 3.369623,7.694565 6.709135,9.895359 3.336777,2.198057 7.513905,3.123265 11.737566,2.252802 4.105958,-0.845828 7.502954,-3.232758 9.706485,-6.429929 1.716291,-2.488212 2.709933,-5.469137 2.761941,-8.597878 -0.621369,1.253687 -1.450772,2.39788 -2.452625,3.377835 -1.642383,1.604062 -3.747371,2.772891 -6.161675,3.27108 h -0.0027 C 29.526112,33.484106 26.2085,32.750504 23.55605,31.004107 20.906338,29.257706 18.921792,26.50124 18.231991,23.14804 v -0.0027 c -0.615893,-2.978179 -0.109491,-5.923518 1.231788,-8.400781 0.908785,-1.680705 2.203531,-3.147901 3.793906,-4.261984 z"
   id="path1"
   style="fill:none;fill-opacity:0.17000002;stroke-width:1.55279995;stroke:#000000;stroke-opacity:0.17;stroke-dasharray:none;stroke-linejoin:miter;stroke-linecap:round;paint-order:normal;stroke-miterlimit:5" /></g>
<style
   type="text/css"
   id="style1">.st0{fill-rule:evenodd;clip-rule:evenodd;}</style></svg>
