<?xml version="1.0" encoding="UTF-8" standalone="no"?>
<!--Creator: CorelDRAW-->

<svg
   xml:space="preserve"
   width="5mm"
   height="5mm"
   version="1.1"
   style="shape-rendering:geometricPrecision;text-rendering:geometricPrecision;image-rendering:optimizeQuality;fill-rule:evenodd;clip-rule:evenodd"
   viewBox="0 0 51.76 51.76"
   id="svg1"
   sodipodi:docname="now.svg"
   inkscape:version="1.3.2 (091e20ef0f, 2023-11-25, custom)"
   xmlns:inkscape="http://www.inkscape.org/namespaces/inkscape"
   xmlns:sodipodi="http://sodipodi.sourceforge.net/DTD/sodipodi-0.dtd"
   xmlns="http://www.w3.org/2000/svg"
   xmlns:svg="http://www.w3.org/2000/svg"><defs
   id="defs1" /><sodipodi:namedview
   id="namedview1"
   pagecolor="#ffffff"
   bordercolor="#000000"
   borderopacity="0.25"
   inkscape:showpageshadow="2"
   inkscape:pageopacity="0.0"
   inkscape:pagecheckerboard="0"
   inkscape:deskcolor="#d1d1d1"
   inkscape:document-units="mm"
   inkscape:zoom="15.67803"
   inkscape:cx="5.6129499"
   inkscape:cy="5.8043005"
   inkscape:window-width="2560"
   inkscape:window-height="1372"
   inkscape:window-x="1080"
   inkscape:window-y="240"
   inkscape:window-maximized="1"
   inkscape:current-layer="Ebene_x0020_1" />
    <g
   id="Ebene_x0020_1"
   inkscape:label="Ebene 1">
        <metadata
   id="CorelCorpID_0Corel-Layer" />
        <circle
   cx="25.88"
   cy="25.88"
   r="25.88"
   style="fill:#E6E6E6"
   id="circle1" />
    <g
   style="clip-rule:evenodd;fill:#000000;fill-opacity:0.17;fill-rule:evenodd;image-rendering:optimizeQuality;shape-rendering:geometricPrecision;text-rendering:geometricPrecision"
   id="g1"
   transform="matrix(0.07043715,0,0,0.07043715,4.8824571,11.560029)"><path
     d="m 334.1,1.64 a 202.504,202.504 0 0 1 135.16,77.02 c 68.84,88.6 52.82,216.19 -35.78,285.03 -0.08,0.05 -0.14,0.11 -0.22,0.18 -88.57,68.82 -216.15,52.81 -284.97,-35.76 -0.04,-0.06 -0.09,-0.12 -0.14,-0.17 A 204.822,204.822 0 0 1 125.31,291 a 168.69,168.69 0 0 0 37.79,-5.42 172.61,172.61 0 0 0 13.55,20.29 c 56.7,72.81 161.67,85.86 234.46,29.15 72.8,-56.69 85.84,-161.66 29.15,-234.46 C 399.98,48.85 333.18,25.47 269.44,40.77 A 171.08,171.08 0 0 0 247.56,9.48 c 2.46,-0.8 4.95,-1.51 7.46,-2.21 25.77,-7.13 52.69,-9.03 79.19,-5.63 z M 0,129.16 v -15.4 C 3.97,50.8 56.26,0.95 120.21,0.92 h 0.05 C 186.84,0.91 240.81,54.85 240.85,121.43 240.88,188.01 186.92,241.99 120.34,242.02 56.33,242.04 3.97,192.17 0,129.16 Z m 87.97,-32.92 21.65,20.51 40.45,-41.1 c 4,-4.07 6.51,-7.32 11.45,-2.26 l 16.05,16.4 c 5.24,5.21 4.97,8.24 0.01,13.12 l -58.83,57.75 c -10.45,10.26 -8.64,10.89 -19.24,0.33 l -38.53,-38.3 c -2.19,-2.4 -1.97,-4.81 0.43,-7.23 l 18.6,-19.25 c 2.81,-2.93 5.05,-2.75 7.96,0.03 z m 209.65,8.27 c 1.24,-9.88 10.24,-16.88 20.09,-15.64 h 0.04 c 9.82,1.32 16.73,10.32 15.46,20.13 l -11.7,94.09 65.06,50.55 c 7.85,6.1 9.3,17.4 3.2,25.28 a 18.011,18.011 0 0 1 -11.95,6.82 c -4.73,0.62 -9.51,-0.68 -13.26,-3.62 l -72.82,-56.61 a 17.818,17.818 0 0 1 -5.79,-7.08 18.336,18.336 0 0 1 -1.46,-9.67 l 13.13,-104.2 z"
     id="path1"
     style="fill:#000000;fill-opacity:0.17" /></g></g>
<style
   type="text/css"
   id="style1">.st0{fill-rule:evenodd;clip-rule:evenodd;}</style></svg>
