<?xml version="1.0" encoding="UTF-8" standalone="no"?>
<!--Creator: CorelDRAW-->

<svg
   xml:space="preserve"
   width="5mm"
   height="5mm"
   version="1.1"
   style="shape-rendering:geometricPrecision;text-rendering:geometricPrecision;image-rendering:optimizeQuality;fill-rule:evenodd;clip-rule:evenodd"
   viewBox="0 0 51.76 51.76"
   id="svg1"
   sodipodi:docname="sunrise.svg"
   inkscape:version="1.3.2 (091e20ef0f, 2023-11-25, custom)"
   xmlns:inkscape="http://www.inkscape.org/namespaces/inkscape"
   xmlns:sodipodi="http://sodipodi.sourceforge.net/DTD/sodipodi-0.dtd"
   xmlns="http://www.w3.org/2000/svg"
   xmlns:svg="http://www.w3.org/2000/svg"><defs
   id="defs1"><clipPath
     clipPathUnits="userSpaceOnUse"
     id="clipPath1"><rect
       style="fill:none;stroke:#000000;stroke-width:5.29134;stroke-linejoin:round;stroke-opacity:1;paint-order:stroke fill markers"
       id="rect2"
       width="133.46001"
       height="63.142086"
       x="-3.0104346"
       y="-10.213047" /></clipPath></defs><sodipodi:namedview
   id="namedview1"
   pagecolor="#ffffff"
   bordercolor="#000000"
   borderopacity="0.25"
   inkscape:showpageshadow="2"
   inkscape:pageopacity="0.0"
   inkscape:pagecheckerboard="0"
   inkscape:deskcolor="#d1d1d1"
   inkscape:document-units="mm"
   inkscape:zoom="11.313709"
   inkscape:cx="9.7227182"
   inkscape:cy="-5.0381358"
   inkscape:window-width="2560"
   inkscape:window-height="1372"
   inkscape:window-x="1080"
   inkscape:window-y="240"
   inkscape:window-maximized="1"
   inkscape:current-layer="Ebene_x0020_1" />
    <g
   id="Ebene_x0020_1"
   inkscape:label="Ebene 1">
        <metadata
   id="CorelCorpID_0Corel-Layer" />
        <circle
   cx="25.88"
   cy="25.88"
   r="25.88"
   style="fill:#E6E6E6"
   id="circle1" />
    <g
   id="g2"
   transform="matrix(0.36392135,0,0,0.36392135,3.5206714,10.475639)"
   style="fill:#000000;fill-opacity:0.17"><g
     id="g1"
     style="fill:#000000;fill-opacity:0.17"><path
       d="m 116.92998,52.929662 c 2.1,0 2.62,1.16 2.62,2.59 0,1.43 -0.52,2.59 -2.62,2.59 H 6.9099807 c -2.1,0 -2.62,-1.16 -2.62,-2.59 0,-1.43 0.52,-2.59 2.62,-2.59 z M 46.753844,72.701725 c -2.1,0 -2.62,-1.16 -2.62,-2.59 0,-1.43 0.52,-2.59 2.62,-2.59 h 56.860006 c 2.1,0 2.62,1.16 2.62,2.59 0,1.43 -0.52,2.59 -2.62,2.59 z M 32.729891,88.474372 c -2.1,0 -2.62,-1.16 -2.62,-2.59 0,-1.43 0.52,-2.59 2.62,-2.59 h 29.51 c 2.1,0 2.62,1.16 2.62,2.59 0,1.43 -0.52,2.59 -2.62,2.59 z"
       id="path1"
       sodipodi:nodetypes="cssssccssssssssssssss"
       style="fill:#000000;fill-opacity:0.17" /></g><path
     d="m 39.163542,9.855778 c -0.768736,-1.324535 -0.313991,-3.024416 1.010544,-3.793151 1.324535,-0.768736 3.024415,-0.3176 3.79315,1.010544 l 3.565778,6.171539 c 0.768736,1.324535 0.313991,3.024415 -1.010544,3.793151 -1.324535,0.768735 -3.024415,0.317599 -3.79315,-1.010545 z m 22.170621,9.152644 c 6.860875,0 13.068504,2.778997 17.565425,7.275918 4.493313,4.49692 7.27592,10.70816 7.27592,17.56543 0,6.86087 -2.778997,13.0685 -7.27592,17.56542 -4.496921,4.49693 -10.70455,7.27592 -17.565425,7.27592 -6.860875,0 -13.068504,-2.77899 -17.565427,-7.27592 -4.493313,-4.49692 -7.275919,-10.70455 -7.275919,-17.56542 0,-6.86088 2.778997,-13.06851 7.275919,-17.56543 4.496923,-4.493312 10.708162,-7.275918 17.565427,-7.275918 z M 75.146139,30.03779 c -3.533296,-3.53329 -8.416391,-5.7204 -13.811976,-5.7204 -5.395585,0 -10.27868,2.18711 -13.811976,5.7204 -3.533296,3.5333 -5.720403,8.41639 -5.720403,13.81198 0,5.39558 2.187107,10.27868 5.720403,13.81197 3.533296,3.5333 8.416391,5.72041 13.811976,5.72041 5.395585,0 10.27868,-2.18711 13.811976,-5.72041 3.533295,-3.53329 5.720401,-8.41639 5.720401,-13.81197 0,-5.39559 -2.187106,-10.27868 -5.720401,-13.81198 z M 59.125402,3.32333 c 0,-1.537471 1.245135,-2.782607 2.782606,-2.782607 1.537471,0 2.782606,1.245136 2.782606,2.782607 v 7.127947 c 0,1.537471 -1.245135,2.782606 -2.782606,2.782606 -1.537471,0 -2.782606,-1.245135 -2.782606,-2.782606 z m 20.568186,4.334514 c 0.761517,-1.324536 2.454179,-1.78289 3.782323,-1.021372 1.324535,0.761517 1.782888,2.454179 1.021371,3.782323 l -3.565778,6.171539 c -0.761517,1.324535 -2.454179,1.782889 -3.782323,1.021371 -1.324533,-0.761517 -1.782888,-2.454178 -1.021371,-3.782322 z m 15.634563,14.021303 c 1.324537,-0.768736 3.024417,-0.313991 3.793151,1.010544 0.768733,1.324535 0.317598,3.024419 -1.010547,3.793149 l -6.171535,3.56578 c -1.324537,0.76873 -3.024416,0.31399 -3.793151,-1.01054 -0.768736,-1.32454 -0.317599,-3.02442 1.010545,-3.79316 z M 101.8606,41.64101 c 1.53747,0 2.7826,1.24513 2.7826,2.7826 0,1.53747 -1.24513,2.78261 -2.7826,2.78261 h -7.127945 c -1.537474,0 -2.782612,-1.24514 -2.782612,-2.78261 0,-1.53747 1.245138,-2.7826 2.782612,-2.7826 z m -81.052875,4.41752 c -1.537471,0 -2.782606,-1.24514 -2.782606,-2.78261 0,-1.53747 1.245135,-2.7826 2.782606,-2.7826 h 7.127947 c 1.537471,0 2.782606,1.24513 2.782606,2.7826 0,1.53747 -1.245135,2.78261 -2.782606,2.78261 z m 4.334513,-20.56819 c -1.324535,-0.76152 -1.782889,-2.454176 -1.021371,-3.78232 0.761517,-1.324536 2.454178,-1.78289 3.782322,-1.021372 l 6.17154,3.565782 c 1.324535,0.76151 1.782888,2.45418 1.021371,3.78232 -0.761517,1.32453 -2.454179,1.78289 -3.782323,1.02137 z"
     id="path1-3"
     style="stroke-width:0.360909;fill:#000000;fill-opacity:0.17"
     sodipodi:nodetypes="csccsccscssscscsssssssssssssssssccccccccsccsccssssssssssssssccccccc"
     clip-path="url(#clipPath1)" /></g></g>
<style
   type="text/css"
   id="style1">.st0{fill-rule:evenodd;clip-rule:evenodd;}</style></svg>
