# This file uses centimeters as units for non-parametric coordinates.

mtllib zaun var2.mtl
v 0.188790 -0.544873 0.188790
v 0.188790 -0.544873 -2.811210
v 0.188790 0.386620 -2.811210
v -0.188790 -0.544873 0.188790
v -0.188790 0.386620 -2.811210
v -0.188790 -0.544873 -2.811210
v 0.188790 0.386620 -0.173391
v -0.188790 0.386620 -0.173391
v 0.188790 1.690747 0.188790
v 0.188790 1.690747 -0.173391
v -0.188790 1.690747 -0.173391
v -0.188790 1.690747 0.188790
v 0.224042 1.690747 0.233193
v 0.224042 1.690747 -0.217793
v -0.224042 1.690747 -0.217793
v -0.224042 1.690747 0.233193
v 0.188790 0.450358 -0.173391
v -0.188790 0.450358 -0.173391
v 0.188790 0.450358 -2.811210
v -0.188790 0.450358 -2.811210
v 0.219845 0.386620 -0.173391
v 0.219845 0.386620 -2.811210
v 0.219845 0.450358 -2.811210
v 0.219845 0.450358 -0.173391
v -0.219845 0.386620 -0.173391
v -0.219845 0.386620 -2.811210
v -0.219845 0.450358 -0.173391
v -0.219845 0.450358 -2.811210
v 0.224042 1.840384 -0.188156
v 0.224042 1.810460 -0.217793
v 0.000000 1.871639 -0.188156
v 0.000000 1.841715 -0.217793
v 0.224042 1.810460 0.233193
v 0.224042 1.840384 0.203555
v -0.000000 1.871639 0.203555
v -0.000000 1.841715 0.233193
v -0.224042 1.840384 0.203555
v -0.224042 1.810460 0.233193
v -0.224042 1.810460 -0.217793
v -0.224042 1.840384 -0.188156
vt 0.619534 0.193879
vt 0.267555 0.772868
vt 0.288303 0.711518
vt 0.004586 0.991694
vt 0.268067 0.909803
vt 0.370083 0.744847
vt 0.035715 0.854219
vt 0.032850 0.906775
vt 0.654152 0.677554
vt 0.651427 0.390190
vt 0.684761 0.390190
vt 0.633658 0.730564
vt 0.554620 0.281575
vt 0.651427 0.280957
vt 0.268072 0.865486
vt 0.282837 0.744726
vt 0.035716 0.856951
vt 0.288452 0.708840
vt 0.268042 0.862759
vt 0.035705 0.862560
vt 0.268107 0.907075
vt 0.035587 0.906801
vt 0.035571 0.901196
vt 0.282998 0.747467
vt 0.690913 0.693716
vt 0.687212 0.733441
vt 0.653067 0.693716
vt 0.649368 0.733441
vt 0.653067 0.713568
vt 0.653067 0.733441
vt 0.690913 0.733441
vt 0.649368 0.693716
vt 0.687212 0.693716
vt 0.687212 0.713568
vt 0.637567 0.733441
vt 0.637567 0.693716
vt 0.649368 0.713568
vt 0.702716 0.693716
vt 0.702716 0.733441
vt 0.690913 0.713568
vt 0.032850 0.901248
vt 0.684761 0.280957
vt 0.706625 0.730380
vt 0.554620 0.390190
vt 0.035712 0.865291
vt 0.554620 0.275975
vt 0.651427 0.275448
vt 0.619534 0.390190
vt 0.586363 0.390190
vt 0.686319 0.677554
vt 0.586363 0.193879
vt 0.004925 0.771979
vt 0.288534 0.747340
vt 0.268187 0.901474
vt 0.288422 0.744628
vt 0.267977 0.857163
vt 0.282854 0.708695
vt 0.267946 0.854436
vt 0.267406 0.991381
vt 0.370383 0.711757
vt 0.690317 0.735766
vt 0.650171 0.736131
vt 0.650101 0.691055
vt 0.690248 0.691319
vt 0.650171 0.746477
vt 0.690317 0.746477
vt 0.690248 0.680658
vt 0.650101 0.680658
vt 0.654230 0.749581
vt 0.686397 0.749581
vt 0.706625 0.696655
vt 0.633658 0.696672
vt 0.035577 0.898467
vt 0.035586 0.909531
vt 0.032982 0.862487
vt 0.032982 0.856950
vt 0.282683 0.711467
vt 0.268226 0.898745
vn 0.000000 0.000000 -1.000000
vn 0.000000 0.000000 -1.000000
vn 0.000000 0.000000 -1.000000
vn 0.000000 0.000000 -1.000000
vn 1.000000 0.000000 0.000000
vn 1.000000 0.000000 0.000000
vn 1.000000 0.000000 0.000000
vn 1.000000 0.000000 0.000000
vn 0.000000 1.000000 0.000000
vn 0.000000 1.000000 0.000000
vn 0.000000 1.000000 0.000000
vn 0.000000 1.000000 0.000000
vn -1.000000 0.000000 -0.000000
vn -1.000000 0.000000 -0.000000
vn -1.000000 0.000000 -0.000000
vn -1.000000 0.000000 -0.000000
vn 1.000000 0.000000 0.000000
vn 1.000000 0.000000 0.000000
vn 1.000000 0.000000 0.000000
vn -1.000000 0.000000 -0.000000
vn -1.000000 0.000000 -0.000000
vn -1.000000 0.000000 -0.000000
vn 0.000001 -1.000000 0.000000
vn 0.000001 -1.000000 0.000000
vn 0.000001 -1.000000 0.000000
vn 0.000001 -1.000000 0.000000
vn -0.000001 -1.000000 -0.000000
vn -0.000001 -1.000000 -0.000000
vn -0.000001 -1.000000 -0.000000
vn -0.000001 -1.000000 -0.000000
vn 1.000000 0.000000 0.000000
vn 1.000000 0.000000 0.000000
vn 1.000000 0.000000 0.000000
vn 1.000000 0.000000 0.000000
vn -1.000000 0.000000 -0.000000
vn -1.000000 0.000000 -0.000000
vn -1.000000 0.000000 -0.000000
vn -1.000000 0.000000 -0.000000
vn 1.000000 0.000000 0.000000
vn 1.000000 0.000000 0.000000
vn 1.000000 0.000000 0.000000
vn 1.000000 0.000000 0.000000
vn 0.000000 0.000000 -1.000000
vn 0.000000 0.000000 -1.000000
vn -1.000000 0.000000 -0.000000
vn -1.000000 0.000000 -0.000000
vn -1.000000 0.000000 -0.000000
vn -1.000000 0.000000 -0.000000
vn 0.000000 -1.000000 0.000000
vn 0.000000 -1.000000 0.000000
vn 0.000000 -1.000000 0.000000
vn 0.000000 -1.000000 0.000000
vn 0.000000 0.000000 -1.000000
vn 0.000000 0.000000 -1.000000
vn 0.000000 1.000000 0.000000
vn 0.000000 1.000000 0.000000
vn 0.000000 1.000000 0.000000
vn 0.000000 1.000000 0.000000
vn -0.000000 0.000000 1.000000
vn -0.000000 0.000000 1.000000
vn -0.000000 0.000000 1.000000
vn -0.000000 0.000000 1.000000
vn 0.000000 -1.000000 0.000000
vn 0.000000 -1.000000 0.000000
vn 0.000000 -1.000000 0.000000
vn 0.000000 -1.000000 0.000000
vn -0.000000 0.000000 1.000000
vn -0.000000 0.000000 1.000000
vn -0.000000 0.000000 1.000000
vn -0.000000 0.000000 1.000000
vn 0.000000 1.000000 0.000000
vn 0.000000 1.000000 0.000000
vn 0.000000 1.000000 0.000000
vn 0.000000 1.000000 0.000000
vn 0.000000 0.000000 -1.000000
vn 0.000000 0.000000 -1.000000
vn 0.000000 0.000000 -1.000000
vn 0.000000 0.000000 -1.000000
vn 0.000000 0.000000 -1.000000
vn 0.000000 0.000000 -1.000000
vn -0.000000 0.000000 1.000000
vn -0.000000 0.000000 1.000000
vn -0.000000 0.000000 1.000000
vn -0.000000 0.000000 1.000000
vn 0.097698 0.700325 -0.707107
vn 0.097698 0.700325 -0.707107
vn 0.000000 0.703691 -0.710506
vn 0.000000 0.703691 -0.710506
vn -0.097698 0.700325 -0.707107
vn -0.097698 0.700325 -0.707107
vn 0.097698 0.700325 0.707107
vn 0.097698 0.700325 0.707107
vn -0.000000 0.703691 0.710506
vn -0.000000 0.703691 0.710506
vn -0.097698 0.700325 0.707107
vn -0.097698 0.700325 0.707107
vn 0.000000 1.000000 0.000000
vn 0.000000 1.000000 0.000000
vn -0.138166 0.990409 -0.000000
vn -0.138166 0.990409 -0.000000
vn 0.000000 0.000000 -1.000000
vn 0.000000 0.000000 -1.000000
vn 0.000000 0.000000 -1.000000
vn -0.000000 0.000000 1.000000
vn -0.000000 0.000000 1.000000
vn -0.000000 0.000000 1.000000
vn 0.138166 0.990409 0.000000
vn 0.138166 0.990409 0.000000
vn -0.000000 0.000000 1.000000
vn -0.000000 0.000000 1.000000
vn 0.000000 0.000000 -1.000000
vn 0.000000 0.000000 -1.000000
vn 1.000000 0.000000 0.000000
vn 1.000000 0.000000 0.000000
vn -1.000000 0.000000 -0.000000
vn -1.000000 0.000000 -0.000000
s 1
usemtl aiStandardSurface4SG
f 2/60/1 6/6/2 5/55/3 3/3/4
s 2
f 7/7/5 1/52/6 2/2/7 3/58/8
s off
f 18/73/9 17/45/10 19/15/11 20/78/12
s 3
f 4/4/13 8/74/14 5/5/15 6/59/16
s 2
f 1/1/6 7/47/5 17/14/17 10/10/18 9/48/19
s 3
f 8/46/14 4/51/13 12/49/20 11/44/21 18/13/22
s 4
f 9/9/23 10/50/24 14/67/25 13/68/26
f 10/71/24 11/43/27 15/39/28 14/38/25
f 11/70/27 12/69/29 16/65/30 15/66/28
f 12/12/29 9/72/23 13/36/26 16/35/30
s 5
f 33/63/31 30/64/32 29/33/33 34/27/34
s 6
f 15/66/35 16/65/36 38/62/37 39/61/38
s off
f 21/17/39 22/56/40 23/19/41 24/20/42
s 1
f 3/3/4 5/55/3 20/16/43 19/77/44
s off
f 26/21/45 25/22/46 27/23/47 28/54/48
f 7/7/49 3/58/50 22/56/51 21/17/52
s 1
f 3/3/4 19/77/44 23/57/53 22/18/54
s off
f 19/15/55 17/45/56 24/20/57 23/19/58
f 17/75/59 7/76/60 21/17/61 24/20/62
f 5/5/63 8/74/64 25/22/65 26/21/66
f 8/8/67 18/41/68 27/23/69 25/22/70
f 18/73/71 20/78/72 28/54/73 27/23/74
s 1
f 20/16/43 5/55/3 26/53/75 28/24/76
s off
f 10/10/77 17/14/78 18/42/79 11/11/80
f 1/1/81 9/48/82 12/49/83 4/51/84
s 7
f 29/33/85 30/25/86 32/40/87 31/34/88
f 31/34/88 32/40/87 39/31/89 40/26/90
s 8
f 33/32/91 34/27/92 35/29/93 36/37/94
f 36/37/94 35/29/93 37/30/95 38/28/96
s 9
f 35/29/97 31/34/98 40/26/99 37/30/100
s 10
f 32/40/101 15/39/102 39/31/103
s 11
f 36/37/104 13/36/105 33/32/106
s 9
f 35/29/97 34/27/107 29/33/108 31/34/98
s 11
f 16/35/109 36/37/104 38/28/110
f 16/35/109 13/36/105 36/37/104
s 10
f 14/38/111 32/40/101 30/25/112
f 14/38/111 15/39/102 32/40/101
s 5
f 13/68/113 14/67/114 30/64/32 33/63/31
s 6
f 39/61/38 38/62/37 37/30/115 40/26/116
v 0.072321 1.537678 -0.209016
v 0.072321 1.537678 -2.778386
v 0.072321 1.673357 -0.209016
v 0.072321 1.673357 -2.778386
v 0.044501 1.673357 -0.209016
v 0.044501 1.673357 -2.778386
v 0.044501 1.537678 -0.209016
v 0.044501 1.537678 -2.778386
v 0.072321 0.919628 -0.209016
v 0.072321 0.919628 -2.778386
v 0.072321 1.055307 -0.209016
v 0.072321 1.055307 -2.778386
v 0.044501 1.055307 -0.209016
v 0.044501 1.055307 -2.778386
v 0.044501 0.919628 -0.209016
v 0.044501 0.919628 -2.778386
v 0.072321 0.464625 -0.209016
v 0.072321 0.464625 -2.778386
v 0.072321 0.600304 -0.209016
v 0.072321 0.600304 -2.778386
v 0.044501 0.600304 -0.209016
v 0.044501 0.600304 -2.778386
v 0.044501 0.464625 -0.209016
v 0.044501 0.464625 -2.778386
v 0.072321 0.617113 -0.209016
v 0.072321 0.617113 -2.778386
v 0.072321 0.752792 -0.209016
v 0.072321 0.752792 -2.778386
v 0.044501 0.752792 -0.209016
v 0.044501 0.752792 -2.778386
v 0.044501 0.617113 -0.209016
v 0.044501 0.617113 -2.778386
v 0.044501 0.450358 -2.670850
v 0.044501 0.450358 -2.778386
v 0.044501 1.639052 -2.670850
v 0.044501 1.639052 -2.778386
v -0.072321 1.639052 -2.670850
v -0.072321 1.639052 -2.778386
v -0.072321 0.450358 -2.670850
v -0.072321 0.450358 -2.778386
v 0.072321 1.075975 -0.209016
v 0.072321 1.075975 -2.778386
v 0.072321 1.211654 -0.209016
v 0.072321 1.211654 -2.778386
v 0.044501 1.211654 -0.209016
v 0.044501 1.211654 -2.778386
v 0.044501 1.075975 -0.209016
v 0.044501 1.075975 -2.778386
v 0.072321 0.769852 -0.209016
v 0.072321 0.769852 -2.778386
v 0.072321 0.905531 -0.209016
v 0.072321 0.905531 -2.778386
v 0.044501 0.905531 -0.209016
v 0.044501 0.905531 -2.778386
v 0.044501 0.769852 -0.209016
v 0.044501 0.769852 -2.778386
v 0.044501 0.450358 -0.209016
v 0.044501 0.450358 -0.316552
v 0.044501 1.639052 -0.209016
v 0.044501 1.639052 -0.316552
v -0.072321 1.639052 -0.209016
v -0.072321 1.639052 -0.316552
v -0.072321 0.450358 -0.209016
v -0.072321 0.450358 -0.316552
v 0.072321 1.233461 -0.209016
v 0.072321 1.233461 -2.778386
v 0.072321 1.369140 -0.209016
v 0.072321 1.369140 -2.778386
v 0.044501 1.369140 -0.209016
v 0.044501 1.369140 -2.778386
v 0.044501 1.233461 -0.209016
v 0.044501 1.233461 -2.778386
v 0.072321 1.387634 -0.209016
v 0.072321 1.387634 -2.778386
v 0.072321 1.523313 -0.209016
v 0.072321 1.523313 -2.778386
v 0.044501 1.523313 -0.209016
v 0.044501 1.523313 -2.778386
v 0.044501 1.387634 -0.209016
v 0.044501 1.387634 -2.778386
vt 0.396817 0.956171
vt 0.622640 0.956171
vt 0.396817 0.968096
vt 0.622640 0.968096
vt 0.396817 0.970541
vt 0.622640 0.970541
vt 0.396817 0.982466
vt 0.622640 0.982466
vt 0.396817 0.984911
vt 0.622640 0.984911
vt 0.625227 0.956171
vt 0.625227 0.968096
vt 0.394514 0.956171
vt 0.394514 0.968096
vt 0.396960 0.818729
vt 0.622783 0.818729
vt 0.622783 0.830654
vt 0.396960 0.830654
vt 0.622783 0.833099
vt 0.396960 0.833099
vt 0.622783 0.845023
vt 0.396960 0.845023
vt 0.622783 0.847469
vt 0.396960 0.847469
vt 0.625228 0.818729
vt 0.625228 0.830654
vt 0.394515 0.818729
vt 0.394515 0.830654
vt 0.396960 0.784784
vt 0.622783 0.784784
vt 0.622783 0.796709
vt 0.396960 0.796709
vt 0.622783 0.799154
vt 0.396960 0.799154
vt 0.622783 0.811079
vt 0.396960 0.811079
vt 0.622783 0.813524
vt 0.396960 0.813524
vt 0.625228 0.784784
vt 0.625228 0.796709
vt 0.394515 0.784784
vt 0.394515 0.796709
vt 0.396960 0.750540
vt 0.622782 0.750540
vt 0.622782 0.762465
vt 0.396960 0.762465
vt 0.622782 0.764910
vt 0.396960 0.764910
vt 0.622782 0.776835
vt 0.396960 0.776835
vt 0.622782 0.779280
vt 0.396960 0.779280
vt 0.625227 0.750540
vt 0.625227 0.762465
vt 0.394514 0.750540
vt 0.394514 0.762465
vt 0.512967 0.702705
vt 0.512939 0.672718
vt 0.408464 0.672815
vt 0.408455 0.663364
vt 0.408473 0.683083
vt 0.408482 0.692534
vt 0.512949 0.682986
vt 0.512957 0.692437
vt 0.396959 0.853496
vt 0.622784 0.853496
vt 0.622784 0.865421
vt 0.396959 0.865421
vt 0.622784 0.867866
vt 0.396959 0.867866
vt 0.622784 0.879791
vt 0.396959 0.879791
vt 0.622784 0.882236
vt 0.396959 0.882236
vt 0.625229 0.853496
vt 0.625229 0.865421
vt 0.394514 0.853496
vt 0.394514 0.865421
vt 0.396959 0.714920
vt 0.622783 0.714920
vt 0.622783 0.726845
vt 0.396959 0.726845
vt 0.622783 0.729290
vt 0.396959 0.729290
vt 0.622783 0.741215
vt 0.396959 0.741215
vt 0.622783 0.743661
vt 0.396959 0.743661
vt 0.625228 0.714920
vt 0.625228 0.726845
vt 0.394514 0.714920
vt 0.394514 0.726845
vt 0.389618 0.703084
vt 0.389618 0.673098
vt 0.285143 0.673098
vt 0.285143 0.663646
vt 0.274875 0.673098
vt 0.285143 0.692817
vt 0.389618 0.683365
vt 0.389618 0.692816
vt 0.285143 0.683365
vt 0.396960 0.887785
vt 0.622783 0.887785
vt 0.622783 0.899711
vt 0.396960 0.899711
vt 0.622783 0.902156
vt 0.396960 0.902156
vt 0.622783 0.914080
vt 0.396960 0.914080
vt 0.622783 0.916526
vt 0.396960 0.916526
vt 0.625228 0.887785
vt 0.625228 0.899711
vt 0.394514 0.887785
vt 0.394514 0.899711
vt 0.396960 0.921704
vt 0.622781 0.921704
vt 0.622781 0.933629
vt 0.396960 0.933629
vt 0.622781 0.936073
vt 0.396960 0.936073
vt 0.622781 0.947998
vt 0.396960 0.947998
vt 0.622781 0.950443
vt 0.396960 0.950443
vt 0.625226 0.921704
vt 0.625226 0.933629
vt 0.394515 0.921704
vt 0.394515 0.933629
vt 0.274875 0.663646
vt 0.389618 0.663646
vt 0.285143 0.703084
vt 0.398196 0.672825
vt 0.408492 0.702802
vt 0.398188 0.663373
vt 0.512930 0.663267
vn 1.000000 0.000000 0.000000
vn 1.000000 0.000000 0.000000
vn 1.000000 0.000000 0.000000
vn 1.000000 0.000000 0.000000
vn 0.000000 1.000000 0.000000
vn 0.000000 1.000000 0.000000
vn 0.000000 1.000000 0.000000
vn 0.000000 1.000000 0.000000
vn -1.000000 0.000000 -0.000000
vn -1.000000 0.000000 -0.000000
vn -1.000000 0.000000 -0.000000
vn -1.000000 0.000000 -0.000000
vn 0.000000 -1.000000 0.000000
vn 0.000000 -1.000000 0.000000
vn 0.000000 -1.000000 0.000000
vn 0.000000 -1.000000 0.000000
vn 0.000000 0.000000 -1.000000
vn 0.000000 0.000000 -1.000000
vn 0.000000 0.000000 -1.000000
vn 0.000000 0.000000 -1.000000
vn -0.000000 0.000000 1.000000
vn -0.000000 0.000000 1.000000
vn -0.000000 0.000000 1.000000
vn -0.000000 0.000000 1.000000
vn 1.000000 0.000000 0.000000
vn 1.000000 0.000000 0.000000
vn 1.000000 0.000000 0.000000
vn 1.000000 0.000000 0.000000
vn 0.000000 1.000000 0.000000
vn 0.000000 1.000000 0.000000
vn 0.000000 1.000000 0.000000
vn 0.000000 1.000000 0.000000
vn -1.000000 0.000000 -0.000000
vn -1.000000 0.000000 -0.000000
vn -1.000000 0.000000 -0.000000
vn -1.000000 0.000000 -0.000000
vn 0.000000 -1.000000 0.000000
vn 0.000000 -1.000000 0.000000
vn 0.000000 -1.000000 0.000000
vn 0.000000 -1.000000 0.000000
vn 0.000000 0.000000 -1.000000
vn 0.000000 0.000000 -1.000000
vn 0.000000 0.000000 -1.000000
vn 0.000000 0.000000 -1.000000
vn -0.000000 0.000000 1.000000
vn -0.000000 0.000000 1.000000
vn -0.000000 0.000000 1.000000
vn -0.000000 0.000000 1.000000
vn 1.000000 0.000000 0.000000
vn 1.000000 0.000000 0.000000
vn 1.000000 0.000000 0.000000
vn 1.000000 0.000000 0.000000
vn 0.000000 1.000000 0.000000
vn 0.000000 1.000000 0.000000
vn 0.000000 1.000000 0.000000
vn 0.000000 1.000000 0.000000
vn -1.000000 0.000000 -0.000000
vn -1.000000 0.000000 -0.000000
vn -1.000000 0.000000 -0.000000
vn -1.000000 0.000000 -0.000000
vn 0.000000 -1.000000 0.000000
vn 0.000000 -1.000000 0.000000
vn 0.000000 -1.000000 0.000000
vn 0.000000 -1.000000 0.000000
vn 0.000000 0.000000 -1.000000
vn 0.000000 0.000000 -1.000000
vn 0.000000 0.000000 -1.000000
vn 0.000000 0.000000 -1.000000
vn -0.000000 0.000000 1.000000
vn -0.000000 0.000000 1.000000
vn -0.000000 0.000000 1.000000
vn -0.000000 0.000000 1.000000
vn 1.000000 0.000000 0.000000
vn 1.000000 0.000000 0.000000
vn 1.000000 0.000000 0.000000
vn 1.000000 0.000000 0.000000
vn 0.000000 1.000000 0.000000
vn 0.000000 1.000000 0.000000
vn 0.000000 1.000000 0.000000
vn 0.000000 1.000000 0.000000
vn -1.000000 0.000000 -0.000000
vn -1.000000 0.000000 -0.000000
vn -1.000000 0.000000 -0.000000
vn -1.000000 0.000000 -0.000000
vn 0.000000 -1.000000 0.000000
vn 0.000000 -1.000000 0.000000
vn 0.000000 -1.000000 0.000000
vn 0.000000 -1.000000 0.000000
vn 0.000000 0.000000 -1.000000
vn 0.000000 0.000000 -1.000000
vn 0.000000 0.000000 -1.000000
vn 0.000000 0.000000 -1.000000
vn -0.000000 0.000000 1.000000
vn -0.000000 0.000000 1.000000
vn -0.000000 0.000000 1.000000
vn -0.000000 0.000000 1.000000
vn 1.000000 0.000000 0.000000
vn 1.000000 0.000000 0.000000
vn 1.000000 0.000000 0.000000
vn 1.000000 0.000000 0.000000
vn 0.000000 1.000000 0.000000
vn 0.000000 1.000000 0.000000
vn 0.000000 1.000000 0.000000
vn 0.000000 1.000000 0.000000
vn -1.000000 0.000000 -0.000000
vn -1.000000 0.000000 -0.000000
vn -1.000000 0.000000 -0.000000
vn -1.000000 0.000000 -0.000000
vn 0.000000 0.000000 -1.000000
vn 0.000000 0.000000 -1.000000
vn 0.000000 0.000000 -1.000000
vn 0.000000 0.000000 -1.000000
vn -0.000000 0.000000 1.000000
vn -0.000000 0.000000 1.000000
vn -0.000000 0.000000 1.000000
vn -0.000000 0.000000 1.000000
vn 1.000000 0.000000 0.000000
vn 1.000000 0.000000 0.000000
vn 1.000000 0.000000 0.000000
vn 1.000000 0.000000 0.000000
vn 0.000000 1.000000 0.000000
vn 0.000000 1.000000 0.000000
vn 0.000000 1.000000 0.000000
vn 0.000000 1.000000 0.000000
vn -1.000000 0.000000 -0.000000
vn -1.000000 0.000000 -0.000000
vn -1.000000 0.000000 -0.000000
vn -1.000000 0.000000 -0.000000
vn 0.000000 -1.000000 0.000000
vn 0.000000 -1.000000 0.000000
vn 0.000000 -1.000000 0.000000
vn 0.000000 -1.000000 0.000000
vn 0.000000 0.000000 -1.000000
vn 0.000000 0.000000 -1.000000
vn 0.000000 0.000000 -1.000000
vn 0.000000 0.000000 -1.000000
vn -0.000000 0.000000 1.000000
vn -0.000000 0.000000 1.000000
vn -0.000000 0.000000 1.000000
vn -0.000000 0.000000 1.000000
vn 1.000000 0.000000 0.000000
vn 1.000000 0.000000 0.000000
vn 1.000000 0.000000 0.000000
vn 1.000000 0.000000 0.000000
vn 0.000000 1.000000 0.000000
vn 0.000000 1.000000 0.000000
vn 0.000000 1.000000 0.000000
vn 0.000000 1.000000 0.000000
vn -1.000000 0.000000 -0.000000
vn -1.000000 0.000000 -0.000000
vn -1.000000 0.000000 -0.000000
vn -1.000000 0.000000 -0.000000
vn 0.000000 -1.000000 0.000000
vn 0.000000 -1.000000 0.000000
vn 0.000000 -1.000000 0.000000
vn 0.000000 -1.000000 0.000000
vn 0.000000 0.000000 -1.000000
vn 0.000000 0.000000 -1.000000
vn 0.000000 0.000000 -1.000000
vn 0.000000 0.000000 -1.000000
vn -0.000000 0.000000 1.000000
vn -0.000000 0.000000 1.000000
vn -0.000000 0.000000 1.000000
vn -0.000000 0.000000 1.000000
vn 1.000000 0.000000 0.000000
vn 1.000000 0.000000 0.000000
vn 1.000000 0.000000 0.000000
vn 1.000000 0.000000 0.000000
vn 0.000000 1.000000 0.000000
vn 0.000000 1.000000 0.000000
vn 0.000000 1.000000 0.000000
vn 0.000000 1.000000 0.000000
vn -1.000000 0.000000 -0.000000
vn -1.000000 0.000000 -0.000000
vn -1.000000 0.000000 -0.000000
vn -1.000000 0.000000 -0.000000
vn 0.000000 0.000000 -1.000000
vn 0.000000 0.000000 -1.000000
vn 0.000000 0.000000 -1.000000
vn 0.000000 0.000000 -1.000000
vn -0.000000 0.000000 1.000000
vn -0.000000 0.000000 1.000000
vn -0.000000 0.000000 1.000000
vn -0.000000 0.000000 1.000000
vn 1.000000 0.000000 0.000000
vn 1.000000 0.000000 0.000000
vn 1.000000 0.000000 0.000000
vn 1.000000 0.000000 0.000000
vn 0.000000 1.000000 0.000000
vn 0.000000 1.000000 0.000000
vn 0.000000 1.000000 0.000000
vn 0.000000 1.000000 0.000000
vn -1.000000 0.000000 -0.000000
vn -1.000000 0.000000 -0.000000
vn -1.000000 0.000000 -0.000000
vn -1.000000 0.000000 -0.000000
vn 0.000000 -1.000000 0.000000
vn 0.000000 -1.000000 0.000000
vn 0.000000 -1.000000 0.000000
vn 0.000000 -1.000000 0.000000
vn 0.000000 0.000000 -1.000000
vn 0.000000 0.000000 -1.000000
vn 0.000000 0.000000 -1.000000
vn 0.000000 0.000000 -1.000000
vn -0.000000 0.000000 1.000000
vn -0.000000 0.000000 1.000000
vn -0.000000 0.000000 1.000000
vn -0.000000 0.000000 1.000000
vn 1.000000 0.000000 0.000000
vn 1.000000 0.000000 0.000000
vn 1.000000 0.000000 0.000000
vn 1.000000 0.000000 0.000000
vn 0.000000 1.000000 0.000000
vn 0.000000 1.000000 0.000000
vn 0.000000 1.000000 0.000000
vn 0.000000 1.000000 0.000000
vn -1.000000 0.000000 -0.000000
vn -1.000000 0.000000 -0.000000
vn -1.000000 0.000000 -0.000000
vn -1.000000 0.000000 -0.000000
vn 0.000000 -1.000000 0.000000
vn 0.000000 -1.000000 0.000000
vn 0.000000 -1.000000 0.000000
vn 0.000000 -1.000000 0.000000
vn 0.000000 0.000000 -1.000000
vn 0.000000 0.000000 -1.000000
vn 0.000000 0.000000 -1.000000
vn 0.000000 0.000000 -1.000000
vn -0.000000 0.000000 1.000000
vn -0.000000 0.000000 1.000000
vn -0.000000 0.000000 1.000000
vn -0.000000 0.000000 1.000000
s off
usemtl aiStandardSurface9SG
f 41/79/117 42/80/118 44/82/119 43/81/120
f 43/81/121 44/82/122 46/84/123 45/83/124
f 45/83/125 46/84/126 48/86/127 47/85/128
f 47/85/129 48/86/130 42/88/131 41/87/132
f 42/80/133 48/89/134 46/90/135 44/82/136
f 47/91/137 41/79/138 43/81/139 45/92/140
f 49/93/141 50/94/142 52/95/143 51/96/144
f 51/96/145 52/95/146 54/97/147 53/98/148
f 53/98/149 54/97/150 56/99/151 55/100/152
f 55/100/153 56/99/154 50/101/155 49/102/156
f 50/94/157 56/103/158 54/104/159 52/95/160
f 55/105/161 49/93/162 51/96/163 53/106/164
f 57/107/165 58/108/166 60/109/167 59/110/168
f 59/110/169 60/109/170 62/111/171 61/112/172
f 61/112/173 62/111/174 64/113/175 63/114/176
f 63/114/177 64/113/178 58/115/179 57/116/180
f 58/108/181 64/117/182 62/118/183 60/109/184
f 63/119/185 57/107/186 59/110/187 61/120/188
f 65/121/189 66/122/190 68/123/191 67/124/192
f 67/124/193 68/123/194 70/125/195 69/126/196
f 69/126/197 70/125/198 72/127/199 71/128/200
f 71/128/201 72/127/202 66/129/203 65/130/204
f 66/122/205 72/131/206 70/132/207 68/123/208
f 71/133/209 65/121/210 67/124/211 69/134/212
f 73/214/213 74/136/214 76/137/215 75/138/216
f 75/138/217 76/137/218 78/211/219 77/213/220
f 77/140/221 78/139/222 80/141/223 79/142/224
f 74/136/225 80/141/226 78/139/227 76/137/228
f 79/142/229 73/135/230 75/212/231 77/140/232
f 81/143/233 82/144/234 84/145/235 83/146/236
f 83/146/237 84/145/238 86/147/239 85/148/240
f 85/148/241 86/147/242 88/149/243 87/150/244
f 87/150/245 88/149/246 82/151/247 81/152/248
f 82/144/249 88/153/250 86/154/251 84/145/252
f 87/155/253 81/143/254 83/146/255 85/156/256
f 89/157/257 90/158/258 92/159/259 91/160/260
f 91/160/261 92/159/262 94/161/263 93/162/264
f 93/162/265 94/161/266 96/163/267 95/164/268
f 95/164/269 96/163/270 90/165/271 89/166/272
f 90/158/273 96/167/274 94/168/275 92/159/276
f 95/169/277 89/157/278 91/160/279 93/170/280
f 97/209/281 98/172/282 100/173/283 99/174/284
f 99/174/285 100/173/286 102/175/287 101/208/288
f 101/176/289 102/179/290 104/177/291 103/178/292
f 98/172/293 104/177/294 102/179/295 100/173/296
f 103/178/297 97/171/298 99/210/299 101/176/300
f 105/180/301 106/181/302 108/182/303 107/183/304
f 107/183/305 108/182/306 110/184/307 109/185/308
f 109/185/309 110/184/310 112/186/311 111/187/312
f 111/187/313 112/186/314 106/188/315 105/189/316
f 106/181/317 112/190/318 110/191/319 108/182/320
f 111/192/321 105/180/322 107/183/323 109/193/324
f 115/197/325 113/194/326 114/195/327 116/196/328
f 117/199/329 115/197/330 116/196/331 118/198/332
f 119/201/333 117/199/334 118/198/335 120/200/336
f 114/202/337 113/203/338 119/201/339 120/200/340
f 114/195/341 120/204/342 118/205/343 116/196/344
f 119/206/345 113/194/346 115/197/347 117/207/348
