<?xml version="1.0" encoding="UTF-8" standalone="no"?>
<!--Creator: CorelDRAW-->

<svg
   xml:space="preserve"
   width="5mm"
   height="5mm"
   version="1.1"
   style="shape-rendering:geometricPrecision;text-rendering:geometricPrecision;image-rendering:optimizeQuality;fill-rule:evenodd;clip-rule:evenodd"
   viewBox="0 0 51.76 51.76"
   id="svg1"
   sodipodi:docname="rainy.svg"
   inkscape:version="1.3.2 (091e20ef0f, 2023-11-25, custom)"
   xmlns:inkscape="http://www.inkscape.org/namespaces/inkscape"
   xmlns:sodipodi="http://sodipodi.sourceforge.net/DTD/sodipodi-0.dtd"
   xmlns="http://www.w3.org/2000/svg"
   xmlns:svg="http://www.w3.org/2000/svg"><defs
   id="defs1" /><sodipodi:namedview
   id="namedview1"
   pagecolor="#ffffff"
   bordercolor="#000000"
   borderopacity="0.25"
   inkscape:showpageshadow="2"
   inkscape:pageopacity="0.0"
   inkscape:pagecheckerboard="0"
   inkscape:deskcolor="#d1d1d1"
   inkscape:document-units="mm"
   inkscape:zoom="7.8390152"
   inkscape:cx="5.3578158"
   inkscape:cy="10.843199"
   inkscape:window-width="2560"
   inkscape:window-height="1372"
   inkscape:window-x="1080"
   inkscape:window-y="240"
   inkscape:window-maximized="1"
   inkscape:current-layer="Ebene_x0020_1" />
    <g
   id="Ebene_x0020_1"
   inkscape:label="Ebene 1">
        <metadata
   id="CorelCorpID_0Corel-Layer" />
        <circle
   cx="25.88"
   cy="25.88"
   r="25.88"
   style="fill:#E6E6E6"
   id="circle1" />
    <path
   d="m 14.259518,31.029013 c 0.621189,0.07726 1.060039,0.645913 0.982777,1.267101 -0.07726,0.621189 -0.645913,1.060039 -1.267103,0.982778 -0.825161,-0.105077 -1.57306,-0.299779 -2.252969,-0.581013 C 11.020682,32.407372 10.399492,32.033422 9.8524738,31.57603 9.3332718,31.143361 8.8789695,30.651972 8.4926579,30.117317 7.4604325,28.69569 6.9041438,26.958834 6.8917822,25.228158 6.8794178,23.478939 7.4233477,21.738992 8.597735,20.329727 c 0.3801302,-0.457394 0.8282518,-0.8777 1.3412728,-1.24856 0.5964662,-0.432669 1.2794652,-0.797347 2.0520882,-1.097124 0.531565,-0.207063 1.100216,-0.380131 1.699771,-0.519203 0.679908,-2.701091 2.12935,-4.780993 3.992917,-6.224253 1.743037,-1.3505459 3.841483,-2.1386217 6.001737,-2.3456836 2.150983,-0.2070639 4.363776,0.1576145 6.350963,1.1125766 2.169525,1.041496 4.060907,2.775263 5.287832,5.213662 0.494479,-0.07726 0.988958,-0.117439 1.480347,-0.111258 2.07681,0.01236 4.079451,0.757171 5.655601,2.456942 0.330683,0.355407 0.642823,0.757171 0.933328,1.205292 0.98896,1.520522 1.495799,3.550977 1.474166,5.538164 -0.02164,1.9501 -0.547017,3.89093 -1.622509,5.321828 -0.701541,0.930238 -1.600876,1.6905 -2.679456,2.293145 -1.038406,0.581013 -2.24988,1.022953 -3.609696,1.338184 -0.611918,0.139072 -1.220745,-0.241059 -1.359817,-0.852977 -0.139072,-0.611916 0.241058,-1.220744 0.852975,-1.359816 1.146573,-0.265782 2.154074,-0.63046 3.003959,-1.106396 0.8128,-0.454303 1.477256,-1.0075 1.974826,-1.671957 0.772623,-1.029135 1.152753,-2.484756 1.168206,-3.977464 0.01855,-1.56688 -0.364678,-3.13994 -1.109487,-4.283423 -0.213244,-0.327593 -0.448122,-0.62737 -0.69536,-0.893153 -1.115668,-1.202202 -2.531114,-1.727585 -4.002188,-1.736856 -1.069312,-0.0062 -2.169527,0.25033 -3.217204,0.713903 -0.231787,0.114348 -0.463573,0.237968 -0.695361,0.37395 -0.69536,0.407945 -1.38145,0.905514 -2.082992,1.477256 l -1.495798,-1.712133 c 0.516112,-0.479027 1.075491,-0.914786 1.668867,-1.301098 0.472845,-0.30905 0.967323,-0.581013 1.474164,-0.818981 0.203973,-0.101986 0.411035,-0.197792 0.618099,-0.287416 -0.985867,-1.746129 -2.404404,-2.997778 -4.01146,-3.770401 -1.607056,-0.769532 -3.405724,-1.06622 -5.158033,-0.896243 -1.739947,0.166886 -3.430447,0.800438 -4.82735,1.885201 -1.616327,1.25474 -2.843252,3.124489 -3.316098,5.606154 l -0.148344,0.775714 -0.772623,0.135981 c -0.75717,0.132892 -1.433989,0.31523 -2.027363,0.547017 -0.574832,0.222516 -1.087853,0.49757 -1.535975,0.822071 -0.358497,0.259601 -0.667547,0.550108 -0.930239,0.865338 -0.8128002,0.973505 -1.1898399,2.194251 -1.1805685,3.430448 0.00932,1.254739 0.4172163,2.521843 1.1712975,3.563338 0.281235,0.386311 0.605737,0.741718 0.976596,1.050767 0.37704,0.312141 0.800437,0.571741 1.276373,0.766443 0.506841,0.197792 1.06622,0.343044 1.684319,0.420307 z m 9.824677,2.463122 c 0.676817,3.143032 2.710362,4.713002 2.710362,6.286063 0,1.573061 -0.676819,3.143031 -2.710362,3.143031 -2.033545,0 -2.710363,-1.56997 -2.710363,-3.143031 0,-1.56997 2.030453,-3.143031 2.710363,-6.286063 z m 6.014098,-8.301064 c 0.676818,3.411905 2.710363,5.117857 2.710363,6.823808 0,1.705953 -0.676819,3.411906 -2.710363,3.411906 -2.033544,0 -2.710362,-1.705953 -2.710362,-3.411906 0,-1.705951 2.033544,-3.411903 2.710362,-6.823808 z m -9.070596,-0.330682 c 0.488298,2.259149 1.950101,3.390271 1.950101,4.521391 0,1.131121 -0.488299,2.259151 -1.950101,2.259151 -1.461803,0 -1.950101,-1.131121 -1.950101,-2.259151 0,-1.13112 1.461803,-2.262242 1.950101,-4.521391 z"
   id="path1"
   style="stroke-width:0.30905;fill:#000000;fill-opacity:0.17" /></g>
</svg>
