<?xml version="1.0" encoding="UTF-8" standalone="no"?>
<!--Creator: CorelDRAW-->

<svg
   xml:space="preserve"
   width="5mm"
   height="5mm"
   version="1.1"
   style="shape-rendering:geometricPrecision;text-rendering:geometricPrecision;image-rendering:optimizeQuality;fill-rule:evenodd;clip-rule:evenodd"
   viewBox="0 0 51.76 51.76"
   id="svg1"
   sodipodi:docname="sun.svg"
   inkscape:version="1.3.2 (091e20ef0f, 2023-11-25, custom)"
   xmlns:inkscape="http://www.inkscape.org/namespaces/inkscape"
   xmlns:sodipodi="http://sodipodi.sourceforge.net/DTD/sodipodi-0.dtd"
   xmlns="http://www.w3.org/2000/svg"
   xmlns:svg="http://www.w3.org/2000/svg"><defs
   id="defs1" /><sodipodi:namedview
   id="namedview1"
   pagecolor="#ffffff"
   bordercolor="#000000"
   borderopacity="0.25"
   inkscape:showpageshadow="2"
   inkscape:pageopacity="0.0"
   inkscape:pagecheckerboard="0"
   inkscape:deskcolor="#d1d1d1"
   inkscape:document-units="mm"
   inkscape:zoom="31.356061"
   inkscape:cx="8.8978013"
   inkscape:cy="8.7064507"
   inkscape:window-width="2560"
   inkscape:window-height="1372"
   inkscape:window-x="1080"
   inkscape:window-y="240"
   inkscape:window-maximized="1"
   inkscape:current-layer="Ebene_x0020_1" />
    <g
   id="Ebene_x0020_1"
   inkscape:label="Ebene 1">
        <metadata
   id="CorelCorpID_0Corel-Layer" />
        <circle
   cx="25.88"
   cy="25.88"
   r="25.88"
   style="fill:#E6E6E6"
   id="circle1" />
    <path
   d="m 16.571687,11.607658 c -0.322753,-0.556104 -0.131828,-1.269796 0.424276,-1.592549 0.556106,-0.3227533 1.269798,-0.1333389 1.592551,0.424275 l 1.497087,2.591115 c 0.322753,0.556104 0.131829,1.269796 -0.424276,1.592549 -0.556104,0.322753 -1.269797,0.133339 -1.59255,-0.424276 z m 9.308312,3.842729 c 2.880531,0 5.486797,1.166759 7.374825,3.054787 1.886513,1.888028 3.054787,4.49581 3.054787,7.374825 0,2.880531 -1.166758,5.486797 -3.054787,7.374825 -1.888028,1.888029 -4.494294,3.054787 -7.374825,3.054787 -2.880531,0 -5.486797,-1.166758 -7.374825,-3.054787 -1.886513,-1.888028 -3.054787,-4.494294 -3.054787,-7.374825 0,-2.880531 1.166759,-5.486797 3.054787,-7.374825 1.888028,-1.886513 4.495809,-3.054787 7.374825,-3.054787 z m 5.798943,4.630669 c -1.483451,-1.483451 -3.533613,-2.401704 -5.798943,-2.401704 -2.26533,0 -4.315494,0.918253 -5.798943,2.401704 -1.483451,1.483451 -2.401704,3.533613 -2.401704,5.798943 0,2.26533 0.918253,4.315494 2.401704,5.798943 1.483449,1.483451 3.533613,2.401706 5.798943,2.401706 2.26533,0 4.315492,-0.918255 5.798943,-2.401706 1.483451,-1.483449 2.401706,-3.533613 2.401706,-5.798943 0,-2.26533 -0.918255,-4.315492 -2.401706,-5.798943 z M 24.952654,8.8650188 c 0,-0.6455059 0.522768,-1.1682755 1.168274,-1.1682755 0.645506,0 1.168274,0.5227696 1.168274,1.1682755 v 2.9926602 c 0,0.645505 -0.522768,1.168274 -1.168274,1.168274 -0.645506,0 -1.168274,-0.522769 -1.168274,-1.168274 z m 8.63553,1.8198402 c 0.319722,-0.556105 1.030385,-0.7485439 1.588004,-0.428822 0.556106,0.319723 0.748545,1.030385 0.428823,1.588005 l -1.497089,2.591112 c -0.319722,0.556105 -1.030384,0.748545 -1.588004,0.428823 -0.556104,-0.319722 -0.748544,-1.030384 -0.428821,-1.588004 z m 6.564156,5.886828 c 0.556104,-0.322753 1.269796,-0.131828 1.592549,0.424276 0.322753,0.556106 0.133339,1.269798 -0.424275,1.592551 l -2.591115,1.497087 c -0.556104,0.322753 -1.269796,0.131829 -1.592549,-0.424276 -0.322753,-0.556104 -0.133339,-1.269797 0.424276,-1.59255 z m 2.742641,8.380967 c 0.645506,0 1.168274,0.522768 1.168274,1.168274 0,0.645506 -0.522768,1.168274 -1.168274,1.168274 H 39.90232 c -0.645506,0 -1.168274,-0.522768 -1.168274,-1.168274 0,-0.645506 0.522768,-1.168274 1.168274,-1.168274 z m -1.819842,8.63553 c 0.556106,0.319722 0.748545,1.030385 0.428823,1.588004 -0.319722,0.556106 -1.030386,0.748545 -1.588004,0.428823 L 37.324844,34.107922 C 36.768739,33.7882 36.5763,33.077538 36.896021,32.519918 c 0.319722,-0.556104 1.030386,-0.748544 1.588004,-0.428821 z m -5.886828,6.564156 c 0.322753,0.556104 0.131828,1.269796 -0.424276,1.592549 -0.556106,0.322753 -1.269798,0.133339 -1.592551,-0.424275 l -1.497087,-2.591115 c -0.322753,-0.556104 -0.131829,-1.269796 0.424276,-1.592549 0.556104,-0.322753 1.269797,-0.133339 1.59255,0.424276 z m -8.380967,2.742641 c 0,0.645506 -0.522768,1.168274 -1.168274,1.168274 -0.645504,0 -1.168274,-0.522768 -1.168274,-1.168274 V 39.90232 c 0,-0.645506 0.52277,-1.168274 1.168274,-1.168274 0.645506,0 1.168274,0.522768 1.168274,1.168274 z m -8.63553,-1.819842 c -0.319722,0.556106 -1.030384,0.748545 -1.588004,0.428823 -0.556106,-0.319722 -0.748543,-1.030386 -0.428821,-1.588004 l 1.497087,-2.591114 c 0.319722,-0.556105 1.030385,-0.748544 1.588004,-0.428823 0.556104,0.319722 0.748544,1.030386 0.428821,1.588004 z m -6.564156,-5.886828 c -0.556104,0.322753 -1.269796,0.131828 -1.592549,-0.424276 -0.3227533,-0.556106 -0.1333389,-1.269798 0.424275,-1.592551 l 2.591115,-1.497087 c 0.556104,-0.322753 1.269796,-0.131829 1.592549,0.424276 0.322753,0.556104 0.133339,1.269797 -0.424276,1.59255 z M 8.8650173,26.807346 c -0.6455059,0 -1.168274,-0.52277 -1.168274,-1.168276 0,-0.645504 0.5227681,-1.168272 1.168274,-1.168272 h 2.9926607 c 0.645506,0 1.168274,0.522768 1.168274,1.168272 0,0.645506 -0.522768,1.168276 -1.168274,1.168276 z M 10.684859,18.171814 C 10.128754,17.852092 9.9363136,17.14143 10.256036,16.58381 c 0.319722,-0.556106 1.030386,-0.748545 1.588004,-0.428821 l 2.591114,1.497087 c 0.556106,0.319722 0.748545,1.030385 0.428823,1.588004 -0.319722,0.556104 -1.030384,0.748545 -1.588004,0.428821 z"
   id="path1"
   style="stroke-width:0;stroke:none;stroke-dasharray:none;fill:#000000;fill-opacity:0.17" /></g>
</svg>
