<?xml version="1.0" encoding="UTF-8" standalone="no"?>
<!--Creator: CorelDRAW-->

<svg
   xml:space="preserve"
   width="5mm"
   height="5mm"
   version="1.1"
   style="shape-rendering:geometricPrecision;text-rendering:geometricPrecision;image-rendering:optimizeQuality;fill-rule:evenodd;clip-rule:evenodd"
   viewBox="0 0 51.76 51.76"
   id="svg1"
   sodipodi:docname="thunderstorm.svg"
   inkscape:version="1.3.2 (091e20ef0f, 2023-11-25, custom)"
   xmlns:inkscape="http://www.inkscape.org/namespaces/inkscape"
   xmlns:sodipodi="http://sodipodi.sourceforge.net/DTD/sodipodi-0.dtd"
   xmlns="http://www.w3.org/2000/svg"
   xmlns:svg="http://www.w3.org/2000/svg"><defs
   id="defs1" /><sodipodi:namedview
   id="namedview1"
   pagecolor="#ffffff"
   bordercolor="#000000"
   borderopacity="0.25"
   inkscape:showpageshadow="2"
   inkscape:pageopacity="0.0"
   inkscape:pagecheckerboard="0"
   inkscape:deskcolor="#d1d1d1"
   inkscape:document-units="mm"
   inkscape:zoom="15.67803"
   inkscape:cx="6.1232181"
   inkscape:cy="8.1005073"
   inkscape:window-width="2560"
   inkscape:window-height="1372"
   inkscape:window-x="1080"
   inkscape:window-y="240"
   inkscape:window-maximized="1"
   inkscape:current-layer="Ebene_x0020_1" />
    <g
   id="Ebene_x0020_1"
   inkscape:label="Ebene 1">
        <metadata
   id="CorelCorpID_0Corel-Layer" />
        <circle
   cx="25.88"
   cy="25.88"
   r="25.88"
   style="fill:#E6E6E6"
   id="circle1" />
    <path
   class="st0"
   d="m 25.336731,26.820789 h 6.774347 l -2.36112,4.572234 4.020205,0.07201 -9.792502,11.940613 1.884097,-7.854404 h -3.171164 z m -4.629239,3.063157 c 0.609032,0 1.104057,0.495026 1.104057,1.104057 0,0.609031 -0.495025,1.104057 -1.104057,1.104057 h -6.24632 l -0.138007,-0.012 C 13.522123,31.978058 12.796086,31.789048 12.136053,31.516034 11.461018,31.237019 10.857988,30.874001 10.32396,30.426978 h -0.003 C 9.8169321,30.006953 9.375909,29.529928 9.00089,29.010902 7.9988395,27.630831 7.4588117,25.944744 7.446811,24.264658 c -0.012,-1.698087 0.5160262,-3.387174 1.6560844,-4.755244 0.369019,-0.444023 0.804041,-0.852043 1.3020676,-1.212062 0.579029,-0.420021 1.242063,-0.77404 1.992102,-1.065055 0.516026,-0.20101 1.068055,-0.369019 1.650084,-0.504026 0.660034,-2.622134 2.067107,-4.641239 3.8762,-6.04231 1.692086,-1.3110666 3.729191,-2.0761064 5.826298,-2.2771169 2.088108,-0.2010095 4.236218,0.1530087 6.165317,1.0800554 2.211113,1.0620545 4.029208,2.8681475 5.133265,5.0612595 0.480023,-0.07501 0.960049,-0.114006 1.437073,-0.108005 2.016103,0.015 3.960204,0.735037 5.490281,2.385123 1.593082,1.716088 2.364122,4.242216 2.33712,6.546336 -0.021,1.893097 -0.531026,3.777193 -1.57508,5.166264 -0.681034,0.906046 -1.554079,1.641085 -2.601133,2.226114 -1.008052,0.564029 -2.184112,0.993051 -3.50418,1.299067 -0.594029,0.135007 -1.185061,-0.234011 -1.320067,-0.828042 -0.135007,-0.59403 0.234011,-1.185061 0.828041,-1.320067 1.113057,-0.258014 2.091108,-0.612032 2.916151,-1.074055 0.78904,-0.441024 1.434074,-0.978051 1.917098,-1.623085 0.750038,-0.999051 1.119057,-2.412123 1.134058,-3.861197 0.018,-1.521079 -0.354018,-3.048156 -1.077055,-4.158214 -0.207011,-0.321017 -0.432022,-0.609032 -0.675034,-0.867045 -1.083055,-1.167059 -2.457127,-1.677086 -3.8852,-1.686086 -1.038054,-0.006 -2.106108,0.243012 -3.12316,0.693035 -0.225012,0.111006 -0.453023,0.234013 -0.675036,0.363019 -0.675033,0.396021 -1.344068,0.879045 -2.022102,1.434074 L 29.197928,17.47531 c 0.501025,-0.465024 1.044054,-0.888046 1.620084,-1.263066 0.459023,-0.300015 0.939047,-0.564029 1.431074,-0.795039 0.19801,-0.09901 0.399019,-0.192011 0.600029,-0.279016 -0.957048,-1.695086 -2.334119,-2.910148 -3.8942,-3.660188 -1.560078,-0.747038 -3.306169,-1.035052 -5.007256,-0.870044 -1.689087,0.162009 -3.330171,0.77704 -4.686242,1.830094 -1.569079,1.218063 -2.76014,3.033156 -3.219164,5.442279 l -0.144007,0.753039 -0.750039,0.132006 c -0.735038,0.129007 -1.392071,0.306016 -1.968101,0.531029 -0.558028,0.21601 -1.056054,0.483024 -1.491075,0.79804 -0.34802,0.252013 -0.648034,0.534027 -0.903047,0.840043 -0.7890415,0.945048 -1.1550605,2.130109 -1.1460597,3.330171 0.009,1.218062 0.4050207,2.448126 1.1370587,3.459177 0.273014,0.375019 0.58803,0.720037 0.948048,1.020053 l -0.003,0.003 c 0.360019,0.300016 0.774041,0.549028 1.239064,0.741038 0.459023,0.18901 0.966049,0.324017 1.527078,0.40202 h 6.21932 z m 3.861198,4.152213 1.977102,-5.628287 h 3.069157 l -1.596081,4.284219 2.409124,0.042 -4.053209,6.066311 1.209063,-4.764245 z"
   id="path1"
   style="fill:#000000;fill-opacity:0.17;stroke-width:0.300016" /></g>
<style
   type="text/css"
   id="style1">.st0{fill-rule:evenodd;clip-rule:evenodd;}</style></svg>
