# Blender 4.4.3
# www.blender.org
mtllib bruecke_BS_mitte.mtl
o bruecke_BS_mitte
v -7.500000 -0.655678 -7.500001
v -7.500000 -0.000002 -7.500001
v -7.028878 -0.000002 -7.500000
v 7.028878 -0.000002 -7.500001
v 7.500000 -0.000002 -7.500001
v 7.500000 -0.655678 -7.500001
v 7.028878 -1.000002 -7.500000
v -7.028878 -1.000002 -7.500001
v 6.596620 -1.000002 -7.500000
v 6.274719 -2.920794 -7.500000
v -6.596620 -1.000002 -7.500001
v -6.274719 -2.920794 -7.500001
v -6.274719 -1.517704 -7.500001
v 6.274719 -1.517703 -7.500000
v 6.274719 -1.517701 0.000000
v 6.596620 -1.000000 0.000000
v 6.274719 -2.920794 0.000001
v 6.274719 -1.517703 -15.000000
v 6.274719 -2.920796 -15.000000
v 6.596620 -1.000002 -15.000000
v 7.028878 -1.000002 -15.000000
v 7.500000 -0.655678 -15.000001
v 7.500000 -0.000002 -15.000001
v 7.028878 -0.000002 -15.000001
v -7.028878 -0.000002 -15.000000
v -7.500000 -0.000002 -15.000001
v -7.500000 -0.655678 -15.000001
v -7.028878 -1.000002 -15.000001
v -6.596620 -1.000002 -15.000001
v -6.274719 -1.517703 -15.000001
v -6.274719 -2.920796 -15.000001
v -6.274719 -1.517701 0.000000
v -6.274719 -2.920794 0.000000
v -6.596620 -1.000000 0.000000
v -7.028878 -1.000000 0.000000
v -7.500000 -0.655676 0.000000
v -7.500000 0.000000 0.000000
v -7.028878 0.000000 0.000000
v 7.028878 0.000000 0.000000
v 7.500000 0.000000 0.000000
v 7.500000 -0.655676 0.000000
v 7.028878 -1.000000 0.000000
v 4.015821 -1.517701 2.000000
v 4.221837 -1.000000 2.000000
v 4.800000 -0.655676 2.000000
v 4.498482 -1.000000 2.000000
v 4.800000 0.000001 2.000000
v 4.498482 0.000001 2.000000
v -4.498482 0.000001 2.000000
v -4.800000 0.000001 2.000000
v -4.800000 -0.655676 2.000000
v -4.498482 -1.000000 2.000000
v -4.015821 -1.517701 2.000000
v -4.221837 -1.000000 2.000000
v 4.015821 -2.920794 2.000002
v -4.015821 -2.920794 2.000000
v -4.800000 -0.000002 -17.000000
v -4.800000 -0.655678 -17.000000
v -4.498482 -0.000002 -17.000000
v 4.498482 -0.000002 -17.000000
v 4.800000 -0.000002 -17.000000
v 4.800000 -0.655678 -17.000000
v 4.498482 -1.000002 -17.000000
v 4.015821 -1.517703 -17.000000
v 4.221837 -1.000002 -17.000000
v -4.221837 -1.000002 -17.000000
v -4.015821 -1.517703 -17.000000
v -4.498482 -1.000002 -17.000000
v 4.015821 -2.920796 -17.000000
v -4.015821 -2.920796 -17.000000
vn 0.8492 -0.5280 -0.0000
vn 0.5901 -0.8074 -0.0000
vn 1.0000 -0.0000 -0.0000
vn -0.0000 1.0000 -0.0000
vn -1.0000 -0.0000 -0.0000
vn -0.5901 -0.8074 -0.0000
vn -0.8492 -0.5280 -0.0000
vn -0.0000 -1.0000 -0.0000
vn -0.0000 -0.0000 1.0000
vn 0.5952 -0.0000 0.8036
vn -0.5020 -0.5632 0.6564
vn -0.6199 -0.3161 0.7182
vn -0.6629 -0.0000 0.7487
vn 0.5020 -0.5632 0.6564
vn -0.5952 -0.0000 0.8036
vn 0.6199 -0.3161 0.7182
vn 0.6629 -0.0000 0.7487
vn -0.6629 -0.0000 -0.7487
vn -0.0000 -0.0000 -1.0000
vn 0.6199 -0.3161 -0.7182
vn -0.5952 -0.0000 -0.8036
vn -0.6199 -0.3161 -0.7182
vn 0.6629 -0.0000 -0.7487
vn 0.5952 -0.0000 -0.8036
vn -0.5020 -0.5632 -0.6564
vn 0.5020 -0.5632 -0.6564
vt 0.171029 0.596502
vt 0.266244 0.596502
vt 0.266244 0.604241
vt 0.171029 0.604241
vt 0.266244 0.609729
vt 0.266244 0.617137
vt 0.171029 0.617137
vt 0.171029 0.609729
vt 0.266244 0.625461
vt 0.171029 0.625461
vt 0.266244 0.631442
vt 0.171029 0.631442
vt 0.266244 0.809910
vt 0.171029 0.809910
vt 0.266244 0.815891
vt 0.171029 0.815891
vt 0.266244 0.824215
vt 0.171029 0.824215
vt 0.266244 0.831623
vt 0.171029 0.831623
vt 0.266244 0.401557
vt 0.171029 0.401557
vt 0.171029 0.393818
vt 0.266244 0.393818
vt 0.361459 0.815891
vt 0.361459 0.824215
vt 0.361459 0.809910
vt 0.361459 0.631442
vt 0.361459 0.625461
vt 0.361459 0.617137
vt 0.361459 0.609729
vt 0.361459 0.596502
vt 0.361459 0.604241
vt 0.361459 0.401557
vt 0.361459 0.393818
vt 0.361459 0.831623
vt 0.266244 0.837111
vt 0.171029 0.837111
vt 0.361459 0.837111
vt 0.361459 0.578689
vt 0.266244 0.578689
vt 0.266244 0.419370
vt 0.361459 0.419370
vt 0.171029 0.578689
vt 0.171029 0.419370
vt 0.351182 0.581822
vt 0.346822 0.578552
vt 0.348644 0.548397
vt 0.352133 0.551013
vt 0.196516 0.502444
vt 0.196516 0.498084
vt 0.200858 0.493332
vt 0.209125 0.493332
vt 0.209125 0.498084
vt 0.209125 0.639884
vt 0.209125 0.644636
vt 0.200858 0.644636
vt 0.196516 0.639884
vt 0.196516 0.635524
vt 0.189989 0.632277
vt 0.172298 0.632277
vt 0.172298 0.505691
vt 0.189989 0.505691
vt 0.200858 0.474419
vt 0.209125 0.474419
vt 0.355934 0.585386
vt 0.355934 0.553864
vt 0.296387 0.632651
vt 0.296387 0.474419
vt 0.321605 0.490242
vt 0.321605 0.616827
vt 0.271170 0.657609
vt 0.271170 0.663549
vt 0.245953 0.644636
vt 0.245953 0.639884
vt 0.271170 0.474419
vt 0.271170 0.480359
vt 0.245953 0.498084
vt 0.245953 0.493332
vt 0.196516 0.652159
vt 0.189989 0.648100
vt 0.172298 0.648100
vt 0.351574 0.544833
vt 0.346822 0.548397
vt 0.346822 0.516875
vt 0.350624 0.514024
vt 0.209125 0.663549
vt 0.200858 0.663549
vt 0.189989 0.489868
vt 0.196516 0.485809
vt 0.355934 0.541563
vt 0.354112 0.511408
vt 0.172298 0.489868
vt 0.209125 0.489868
vt 0.226816 0.489868
vt 0.226816 0.505691
vt 0.209125 0.505691
vt 0.245952 0.639884
vt 0.245952 0.644636
vt 0.237685 0.644636
vt 0.233344 0.639884
vt 0.233344 0.635524
vt 0.226816 0.632277
vt 0.209125 0.632277
vt 0.233344 0.502444
vt 0.233344 0.498084
vt 0.237685 0.493332
vt 0.296387 0.480359
vt 0.296387 0.657609
vt 0.271170 0.639884
vt 0.271170 0.498084
vt 0.233344 0.652159
vt 0.226816 0.648100
vt 0.296387 0.663549
vt 0.271170 0.644636
vt 0.351574 0.477983
vt 0.355934 0.481253
vt 0.350624 0.508792
vt 0.237685 0.474419
vt 0.245953 0.474419
vt 0.233344 0.485809
vt 0.209125 0.648100
vt 0.245952 0.663549
vt 0.237685 0.663549
vt 0.346822 0.592220
vt 0.351182 0.588950
vt 0.352133 0.619759
vt 0.348644 0.622375
vt 0.271170 0.493332
vt 0.355934 0.616908
vt 0.346822 0.474419
vt 0.346822 0.505940
vt 0.346822 0.632651
s 1
usemtl initialShadingGroup
f 15/1/1 14/2/1 9/3/1 16/4/1
f 7/5/2 6/6/2 41/7/2 42/8/2
f 6/6/3 5/9/3 40/10/3 41/7/3
f 5/9/4 4/11/4 39/12/4 40/10/4
f 4/11/4 3/13/4 38/14/4 39/12/4
f 3/13/4 2/15/4 37/16/4 38/14/4
f 2/15/5 1/17/5 36/18/5 37/16/5
f 1/17/6 8/19/6 35/20/6 36/18/6
f 13/21/7 32/22/7 34/23/7 11/24/7
f 26/25/5 27/26/5 1/17/5 2/15/5
f 25/27/4 26/25/4 2/15/4 3/13/4
f 24/28/4 25/27/4 3/13/4 4/11/4
f 23/29/4 24/28/4 4/11/4 5/9/4
f 22/30/3 23/29/3 5/9/3 6/6/3
f 21/31/2 22/30/2 6/6/2 7/5/2
f 14/2/1 18/32/1 20/33/1 9/3/1
f 30/34/7 13/21/7 11/24/7 29/35/7
f 27/26/6 28/36/6 8/19/6 1/17/6
f 7/5/8 42/8/8 16/4/8 9/3/8
f 21/31/8 7/5/8 9/3/8 20/33/8
f 35/20/8 8/19/8 11/37/8 34/38/8
f 8/19/8 28/36/8 29/39/8 11/37/8
f 19/40/8 10/41/8 12/42/8 31/43/8
f 10/41/8 17/44/8 33/45/8 12/42/8
f 12/42/5 13/21/5 30/34/5 31/43/5
f 33/45/5 32/22/5 13/21/5 12/42/5
f 10/41/3 14/2/3 15/1/3 17/44/3
f 19/40/3 18/32/3 14/2/3 10/41/3
f 35/46/8 34/47/8 54/48/8 52/49/8
f 44/50/9 46/51/9 45/52/9 47/53/9 48/54/9 49/55/9 50/56/9 51/57/9 52/58/9 54/59/9 53/60/9 56/61/9 55/62/9 43/63/9
f 41/64/10 40/65/10 47/53/10 45/52/10
f 36/66/11 35/46/11 52/49/11 51/67/11
f 33/68/8 17/69/8 55/70/8 56/71/8
f 38/72/4 37/73/4 50/74/4 49/75/4
f 40/76/4 39/77/4 48/78/4 47/79/4
f 34/80/12 32/81/12 53/60/12 54/59/12
f 32/81/13 33/82/13 56/61/13 53/60/13
f 42/83/14 41/84/14 45/85/14 46/86/14
f 37/87/15 36/88/15 51/57/15 50/56/15
f 15/89/16 16/90/16 44/50/16 43/63/16
f 16/91/8 42/83/8 46/86/8 44/92/8
f 39/77/4 38/72/4 49/75/4 48/78/4
f 17/93/17 15/89/17 43/63/17 55/62/17
f 31/94/18 30/95/18 67/96/18 70/97/18
f 57/79/19 59/78/19 60/98/19 61/99/19 62/100/19 63/101/19 65/102/19 64/103/19 69/104/19 70/97/19 67/96/19 66/105/19 68/106/19 58/107/19
f 25/108/4 24/109/4 60/110/4 59/111/4
f 20/112/20 18/113/20 64/103/20 65/102/20
f 24/109/4 23/114/4 61/115/4 60/110/4
f 21/116/8 20/117/8 65/92/8 63/118/8
f 27/119/21 26/120/21 57/79/21 58/107/21
f 30/95/22 29/121/22 66/105/22 67/96/22
f 18/113/23 19/122/23 69/104/23 64/103/23
f 23/123/24 22/124/24 62/100/24 61/99/24
f 29/125/8 28/126/8 68/127/8 66/128/8
f 26/69/4 25/108/4 59/111/4 57/129/4
f 28/126/25 27/66/25 58/130/25 68/127/25
f 22/131/26 21/116/26 63/118/26 62/132/26
f 19/131/8 31/133/8 70/71/8 69/70/8
