# This file uses centimeters as units for non-parametric coordinates.

mtllib bruecke_BS_seite1.mtl
v -40.000000 -0.655676 -7.500000
v -40.000000 0.000000 -7.500000
v -40.000000 0.000000 7.500000
v -40.000000 -0.655676 7.500000
v -40.000000 0.000000 -7.028878
v -40.000000 -1.000000 -7.028878
v -40.000000 -1.000000 7.028878
v -40.000000 0.000000 7.028878
v -40.000000 -2.956784 -7.028878
v -40.000000 -2.956784 7.028878
v -7.500001 -0.655676 -7.500000
v -7.500001 0.000000 -7.500000
v -7.500000 0.000000 -7.028878
v -7.500001 0.000000 7.028878
v -7.500001 0.000000 7.500000
v -7.500001 -0.655676 7.500000
v -7.500000 -1.000000 7.028878
v -7.500000 -2.956784 7.028878
v -7.500001 -2.956784 -7.028878
v -7.500001 -1.000000 -7.028878
v -7.500000 -15.000000 7.028879
v -7.500000 -15.000000 -7.028879
v -7.500000 -1.000000 6.596620
v -7.500000 -2.920794 6.274719
v -7.500001 -1.000000 -6.596620
v -7.500000 -2.920794 -6.274719
v -40.000000 -1.481711 -7.028879
v -7.500001 -1.481711 -7.028878
v -7.500001 -1.517701 -6.274719
v -7.500000 -1.517701 6.274719
v -7.500000 -1.481711 7.028879
v -40.000000 -1.481711 7.028879
v -9.250001 -0.655676 -7.500000
v -9.250001 0.000000 -7.500000
v -9.250000 0.000000 -7.028878
v -9.250000 0.000000 7.028878
v -9.250001 0.000000 7.500000
v -9.250001 -0.655676 7.500000
v -9.250000 -1.000000 7.028878
v -9.250000 -1.481711 7.028879
v -9.250000 -2.956784 7.028878
v -9.249999 -15.000000 7.028881
v -9.249999 -15.000000 -7.028882
v -9.250000 -2.956784 -7.028878
v -9.250001 -1.481711 -7.028878
v -9.250001 -1.000000 -7.028878
v -40.000000 -2.956784 6.329015
v -9.250000 -2.956784 6.329015
v -9.249999 -15.000000 6.329019
v -40.000000 -15.000000 6.329016
v -9.249999 -15.000000 -6.329019
v -9.250000 -2.956784 -6.329015
v -40.000000 -2.956784 -6.329015
v -40.000000 -15.000000 -6.329016
v -7.500000 -15.000000 6.329018
v -7.500000 -15.000000 -6.329019
vt 0.591943 0.833284
vt 0.569123 0.833284
vt 0.576488 0.833284
vt 0.584749 0.833284
vt 0.783392 0.833284
vt 0.790831 0.833284
vt 0.763381 0.833284
vt 0.775019 0.833284
vt 0.804393 0.039797
vt 0.804849 0.218264
vt 0.584749 0.443230
vt 0.591943 0.443230
vt 0.576488 0.443230
vt 0.569123 0.443230
vt 0.562975 0.443230
vt 0.790831 0.443230
vt 0.797197 0.443230
vt 0.783392 0.443230
vt 0.775019 0.443230
vt 0.763381 0.443230
vt 0.823142 0.048634
vt 0.825459 0.443230
vt 0.978456 0.443230
vt 0.978456 0.833284
vt 0.978456 0.415126
vt 0.825459 0.415126
vt 0.815615 0.410134
vt 0.978456 0.405901
vt 0.382742 0.443230
vt 0.535739 0.443230
vt 0.823553 0.209331
vt 0.976445 0.208941
vt 0.797197 0.410134
vt 0.797197 0.421032
vt 0.790831 0.421032
vt 0.790831 0.417040
vt 0.569123 0.421032
vt 0.562975 0.421032
vt 0.562975 0.409767
vt 0.569123 0.414059
vt 0.544557 0.443230
vt 0.823575 0.218216
vt 0.535739 0.409184
vt 0.825459 0.246026
vt 0.815615 0.833284
vt 0.825459 0.437324
vt 0.576488 0.421032
vt 0.584749 0.421032
vt 0.591943 0.421032
vt 0.763381 0.421032
vt 0.775019 0.421032
vt 0.783392 0.421032
vt 0.978456 0.437324
vt 0.382742 0.409184
vt 0.382742 0.431382
vt 0.382742 0.399965
vt 0.535739 0.833284
vt 0.382742 0.833284
vt 0.544557 0.833284
vt 0.825459 0.833284
vt 0.976034 0.048244
vt 0.823120 0.039749
vt 0.797197 0.833284
vt 0.562975 0.833284
vt 0.798278 0.039813
vt 0.798733 0.218280
vt 0.794377 0.224272
vt 0.793891 0.033843
vt 0.535739 0.399965
vt 0.978456 0.246026
vt 0.544557 0.421032
vt 0.544557 0.409767
vt 0.535739 0.431382
vt 0.815615 0.443230
vt 0.815615 0.421032
vt 0.825459 0.405901
vt 0.786038 0.218312
vt 0.785582 0.039845
vt 0.785567 0.033864
vt 0.786053 0.224293
vn -1.000000 0.000000 0.000000
vn -1.000000 0.000000 0.000000
vn -1.000000 0.000000 0.000000
vn -1.000000 0.000000 0.000000
vn -1.000000 0.000000 0.000000
vn -1.000000 0.000000 0.000000
vn -1.000000 0.000000 0.000000
vn -1.000000 0.000000 0.000000
vn -1.000000 0.000001 0.000000
vn -1.000000 0.000000 0.000000
vn -1.000000 0.000000 0.000000
vn -1.000000 0.000001 0.000000
vn 0.000000 1.000000 0.000000
vn 0.000000 1.000000 0.000000
vn 0.000000 1.000000 0.000000
vn 0.000000 1.000000 0.000000
vn 0.000000 0.000000 -1.000000
vn 0.000000 0.000000 -1.000000
vn 0.000000 0.000000 -1.000000
vn 0.000000 0.000000 -1.000000
vn 0.000000 -0.807356 -0.590064
vn 0.000000 -0.807356 -0.590064
vn 0.000000 -0.807356 -0.590064
vn 0.000000 -0.807356 -0.590064
vn 0.000000 -0.000000 -1.000000
vn 0.000000 0.000000 -1.000000
vn 0.000000 0.000000 -1.000000
vn 0.000000 -0.000000 -1.000000
vn 0.000000 0.000002 1.000000
vn 0.000000 0.000002 1.000000
vn 0.000000 -0.000000 1.000000
vn 0.000000 -0.000000 1.000000
vn 0.000000 -0.807356 0.590064
vn 0.000000 -0.807356 0.590064
vn 0.000000 -0.807356 0.590064
vn 0.000000 -0.807356 0.590064
vn 0.000000 0.000000 1.000000
vn 0.000000 0.000000 1.000000
vn 0.000000 0.000000 1.000000
vn 0.000000 0.000000 1.000000
vn 0.000000 1.000000 0.000000
vn 0.000000 1.000000 0.000000
vn 0.000000 1.000000 0.000000
vn 0.000000 1.000000 0.000000
vn -0.000000 0.000000 1.000000
vn -0.000000 0.000000 1.000000
vn -0.000000 0.000000 1.000000
vn -0.000000 0.000000 1.000000
vn 1.000000 0.000000 0.000000
vn 1.000000 -0.000000 -0.000000
vn 1.000000 -0.000000 -0.000000
vn 1.000000 0.000000 0.000000
vn -0.000000 0.000000 -1.000000
vn -0.000000 0.000000 -1.000000
vn -0.000000 0.000000 -1.000000
vn -0.000000 0.000000 -1.000000
vn 1.000000 0.000000 0.000000
vn 1.000000 0.000000 0.000000
vn 1.000000 0.000000 0.000000
vn 1.000000 0.000000 0.000000
vn 1.000000 -0.000002 0.000000
vn 1.000000 -0.000002 0.000000
vn 1.000000 -0.000000 -0.000000
vn 1.000000 -0.000000 -0.000000
vn 0.000000 -0.000000 -1.000000
vn 0.000000 -0.000000 -1.000000
vn 1.000000 0.000000 -0.000000
vn 1.000000 0.000000 -0.000000
vn 1.000000 0.000000 0.000000
vn 1.000000 0.000000 0.000000
vn 0.000000 -0.000001 1.000000
vn 0.000000 -0.000000 1.000000
vn -1.000000 0.000000 0.000000
vn -1.000000 0.000002 0.000000
vn 0.000000 0.000000 -1.000000
vn 0.000000 0.000000 -1.000000
vn 0.000000 1.000000 0.000000
vn 0.000000 1.000000 0.000000
vn 0.000000 1.000000 0.000000
vn 0.000000 1.000000 0.000000
vn 0.000000 0.000000 1.000000
vn 0.000000 0.000000 1.000000
vn 0.000000 -0.807356 0.590064
vn 0.000000 -0.807356 0.590064
vn 0.000000 0.000000 1.000000
vn 0.000000 0.000002 1.000000
vn 0.000001 0.000000 1.000000
vn 0.000001 0.000000 1.000000
vn 0.000001 0.000000 1.000000
vn 0.000001 0.000000 -1.000000
vn 0.000001 0.000000 -1.000000
vn 0.000001 0.000000 -1.000000
vn 0.000000 0.000000 -1.000000
vn 0.000000 0.000000 -1.000000
vn 0.000000 -0.807356 -0.590065
vn 0.000000 -0.807356 -0.590065
vn 0.000000 -1.000000 0.000000
vn 0.000000 -1.000000 0.000000
vn 0.000000 -1.000000 0.000000
vn 0.000000 -1.000000 0.000000
vn -1.000000 -0.000000 0.000000
vn -1.000000 -0.000000 0.000000
vn -1.000000 -0.000000 0.000000
vn -1.000000 -0.000000 0.000000
vn -1.000000 -0.000000 0.000000
vn -1.000000 -0.000000 0.000000
vn -1.000000 -0.000000 0.000000
vn -1.000000 -0.000000 0.000000
vn 0.000000 -1.000000 0.000000
vn 0.000000 -1.000000 0.000000
vn 0.000000 -1.000000 0.000000
vn 0.000000 -1.000000 0.000000
vn -1.000000 -0.000000 0.000000
vn -1.000000 -0.000000 0.000000
vn -1.000000 -0.000000 0.000000
vn -1.000000 -0.000000 0.000000
vn -1.000000 0.000002 0.000000
vn -1.000000 0.000000 0.000000
vn 1.000000 -0.000000 -0.000000
vn 1.000000 -0.000000 -0.000000
vn 1.000000 0.000000 -0.000000
vn 1.000000 0.000000 -0.000000
s 1
usemtl initialShadingGroup
f 5/77/1 2/80/2 1/67/3 6/66/4
f 4/68/5 3/79/6 8/78/7 7/65/8
f 6/66/4 7/65/8 8/78/7 5/77/1
s 2
f 32/9/9 7/65/10 6/66/11 27/10/12
s 3
f 5/1/13 35/12/14 34/11/15 2/4/16
s 4
f 2/4/17 34/11/18 33/13/19 1/3/20
s 5
f 1/3/21 33/13/22 46/14/23 6/2/24
s 6
f 27/64/25 6/2/26 46/14/27 45/15/28
s 7
f 39/16/29 7/6/30 32/63/31 40/17/32
s 8
f 7/6/33 39/16/34 38/18/35 4/5/36
s 9
f 4/5/37 38/18/38 37/19/39 3/8/40
s 3
f 3/8/41 37/19/42 36/20/43 8/7/44
f 8/7/44 36/20/43 35/12/14 5/1/13
s off
f 47/60/45 50/24/46 49/23/47 48/22/48
s 11
f 21/25/49 55/28/50 24/76/51 18/26/52
s off
f 51/29/53 54/58/54 53/57/55 52/30/56
s 12
f 30/33/57 23/36/58 17/35/59 31/34/60
s 13
f 20/37/61 25/40/62 29/39/63 28/38/64
s 6
f 44/41/65 9/59/66 27/64/25 45/15/28
s 13
f 29/39/63 26/72/67 19/71/68 28/38/64
s 12
f 18/75/69 24/27/70 30/33/57 31/34/60
s 7
f 10/45/71 41/74/72 40/17/32 32/63/31
s 2
f 9/42/73 53/31/74 27/10/12
s 4
f 34/11/18 12/48/75 11/47/76 33/13/19
s 3
f 35/12/14 13/49/77 12/48/78 34/11/15
f 36/20/43 14/50/79 13/49/77 35/12/14
f 37/19/42 15/51/80 14/50/79 36/20/43
s 9
f 38/18/38 16/52/81 15/51/82 37/19/39
s 8
f 39/16/34 17/35/83 16/52/84 38/18/35
s 7
f 31/34/85 17/35/86 39/16/29 40/17/32
f 41/74/72 18/75/87 31/34/85 40/17/32
f 42/53/88 21/25/89 18/26/87 41/46/72
s 6
f 19/43/90 22/54/91 43/55/92 44/73/65
f 19/71/90 44/41/65 45/15/28 28/38/93
f 46/14/27 20/37/94 28/38/93 45/15/28
s 5
f 33/13/22 11/47/95 20/37/96 46/14/23
s off
f 10/45/97 47/60/98 48/22/99 41/74/100
f 41/46/101 48/22/102 49/23/103 42/53/104
f 43/55/105 51/29/106 52/30/107 44/73/108
f 44/41/109 52/30/110 53/57/111 9/59/112
f 47/21/113 53/31/114 54/32/115 50/61/116
s 2
f 47/21/117 10/62/118 32/9/9
f 53/31/74 47/21/117 32/9/9 27/10/12
s 11
f 55/28/50 56/70/119 26/44/120 24/76/51
f 22/54/121 19/43/122 26/69/120 56/56/119
