# This file uses centimeters as units for non-parametric coordinates.

mtllib bruecke_BS_mitte.mtl
v -7.500000 -0.655676 -7.500001
v -7.500000 0.000000 -7.500001
v -7.028878 0.000000 -7.500000
v 7.028878 0.000000 -7.500001
v 7.500000 0.000000 -7.500001
v 7.500000 -0.655676 -7.500001
v 7.028878 -1.000000 -7.500000
v -7.028878 -1.000000 -7.500001
v 6.596620 -1.000000 -7.500000
v 6.274719 -2.920794 -7.500000
v -6.596620 -1.000000 -7.500001
v -6.274719 -2.920794 -7.500001
v -6.274719 -1.517702 -7.500001
v 6.274719 -1.517701 -7.500000
v 6.274719 -1.517701 0.000000
v 6.596620 -1.000000 0.000000
v 6.274719 -2.920794 0.000001
v 6.274719 -1.517701 -15.000000
v 6.274719 -2.920794 -15.000000
v 6.596620 -1.000000 -15.000000
v 7.028878 -1.000000 -15.000000
v 7.500000 -0.655676 -15.000001
v 7.500000 0.000000 -15.000001
v 7.028878 0.000000 -15.000001
v -7.028878 0.000000 -15.000000
v -7.500000 0.000000 -15.000001
v -7.500000 -0.655676 -15.000001
v -7.028878 -1.000000 -15.000001
v -6.596620 -1.000000 -15.000001
v -6.274719 -1.517701 -15.000001
v -6.274719 -2.920794 -15.000001
v -6.274719 -1.517701 -0.000000
v -6.274719 -2.920794 -0.000000
v -6.596620 -1.000000 -0.000000
v -7.028878 -1.000000 -0.000000
v -7.500000 -0.655676 -0.000000
v -7.500000 0.000000 -0.000000
v -7.028878 0.000000 0.000000
v 7.028878 0.000000 -0.000000
v 7.500000 0.000000 -0.000000
v 7.500000 -0.655676 -0.000000
v 7.028878 -1.000000 0.000000
vt 0.171029 0.596502
vt 0.266244 0.596502
vt 0.266244 0.604241
vt 0.171029 0.604241
vt 0.266244 0.609729
vt 0.266244 0.617137
vt 0.171029 0.617137
vt 0.171029 0.609729
vt 0.266244 0.625461
vt 0.171029 0.625461
vt 0.266244 0.631442
vt 0.171029 0.631442
vt 0.266244 0.809910
vt 0.171029 0.809910
vt 0.266244 0.815891
vt 0.171029 0.815891
vt 0.266244 0.824215
vt 0.171029 0.824215
vt 0.266244 0.831623
vt 0.171029 0.831623
vt 0.266244 0.401557
vt 0.171029 0.401557
vt 0.171029 0.393818
vt 0.266244 0.837111
vt 0.361459 0.815891
vt 0.361459 0.824215
vt 0.361459 0.809910
vt 0.361459 0.631442
vt 0.361459 0.625461
vt 0.361459 0.617137
vt 0.361459 0.609729
vt 0.361459 0.596502
vt 0.361459 0.604241
vt 0.361459 0.401557
vt 0.361459 0.837111
vt 0.361459 0.831623
vt 0.361459 0.578689
vt 0.266244 0.578689
vt 0.266244 0.419370
vt 0.361459 0.419370
vt 0.171029 0.578689
vt 0.171029 0.419370
vt 0.361459 0.393818
vt 0.266244 0.393818
vt 0.171029 0.837111
vn 0.849222 -0.528036 0.000000
vn 0.849222 -0.528036 0.000000
vn 0.849222 -0.528036 0.000000
vn 0.849222 -0.528036 0.000000
vn 0.590064 -0.807356 0.000000
vn 0.590064 -0.807356 0.000000
vn 0.590064 -0.807356 0.000000
vn 0.590064 -0.807356 0.000000
vn 1.000000 0.000000 0.000000
vn 1.000000 0.000000 0.000000
vn 1.000000 0.000000 0.000000
vn 1.000000 0.000000 0.000000
vn 0.000000 1.000000 0.000000
vn 0.000000 1.000000 0.000000
vn 0.000000 1.000000 0.000000
vn 0.000000 1.000000 0.000000
vn 0.000000 1.000000 0.000000
vn 0.000000 1.000000 0.000000
vn 0.000000 1.000000 0.000000
vn 0.000000 1.000000 0.000000
vn -1.000000 0.000000 -0.000000
vn -1.000000 0.000000 -0.000000
vn -1.000000 0.000000 -0.000000
vn -1.000000 0.000000 -0.000000
vn -0.590064 -0.807356 -0.000000
vn -0.590064 -0.807356 -0.000000
vn -0.590064 -0.807356 -0.000000
vn -0.590064 -0.807356 -0.000000
vn -0.849222 -0.528036 -0.000000
vn -0.849222 -0.528036 -0.000000
vn -0.849222 -0.528036 -0.000000
vn -0.849222 -0.528036 -0.000000
vn -1.000000 0.000000 -0.000000
vn -1.000000 0.000000 -0.000000
vn 0.000000 1.000000 0.000000
vn 0.000000 1.000000 0.000000
vn 0.000000 1.000000 0.000000
vn 0.000000 1.000000 0.000000
vn 1.000000 0.000000 0.000000
vn 1.000000 0.000000 0.000000
vn 0.590064 -0.807356 0.000000
vn 0.590064 -0.807356 0.000000
vn 0.849222 -0.528036 0.000000
vn 0.849222 -0.528036 0.000000
vn 0.849222 -0.528036 0.000000
vn 0.849222 -0.528036 0.000000
vn -0.849222 -0.528036 -0.000000
vn -0.849222 -0.528036 -0.000000
vn -0.849222 -0.528036 -0.000000
vn -0.849222 -0.528036 -0.000000
vn -0.590064 -0.807356 -0.000000
vn -0.590064 -0.807356 -0.000000
vn 0.000000 -1.000000 0.000000
vn 0.000000 -1.000000 0.000000
vn 0.000000 -1.000000 0.000000
vn 0.000000 -1.000000 0.000000
vn 0.000000 -1.000000 0.000000
vn 0.000000 -1.000000 0.000000
vn 0.000000 -1.000000 0.000000
vn 0.000000 -1.000000 0.000000
vn 0.000000 -1.000000 0.000000
vn 0.000000 -1.000000 0.000000
vn 0.000000 -1.000000 0.000000
vn 0.000000 -1.000000 0.000000
vn -0.000000 -1.000000 -0.000000
vn -0.000000 -1.000000 -0.000000
vn -0.000000 -1.000000 -0.000000
vn -0.000000 -1.000000 -0.000000
vn 0.000000 -1.000000 0.000000
vn 0.000000 -1.000000 0.000000
vn 0.000000 -1.000000 0.000000
vn 0.000000 -1.000000 0.000000
vn -1.000000 0.000000 0.000000
vn -1.000000 0.000000 0.000000
vn -1.000000 0.000000 0.000000
vn -1.000000 0.000000 0.000000
vn -1.000000 0.000000 -0.000000
vn -1.000000 0.000000 -0.000000
vn -1.000000 0.000000 -0.000000
vn -1.000000 0.000000 -0.000000
vn 1.000000 0.000000 0.000000
vn 1.000000 0.000000 0.000000
vn 1.000000 0.000000 0.000000
vn 1.000000 0.000000 0.000000
vn 1.000000 0.000000 0.000000
vn 1.000000 0.000000 0.000000
vn 1.000000 0.000000 0.000000
vn 1.000000 0.000000 0.000000
s off
usemtl initialShadingGroup
f 15/1/1 14/2/2 9/3/3 16/4/4
s 1
f 7/5/5 6/6/6 41/7/7 42/8/8
s 2
f 6/6/9 5/9/10 40/10/11 41/7/12
s 3
f 5/9/13 4/11/14 39/12/15 40/10/16
f 4/11/14 3/13/17 38/14/18 39/12/15
f 3/13/17 2/15/19 37/16/20 38/14/18
s 4
f 2/15/21 1/17/22 36/18/23 37/16/24
s 5
f 1/17/25 8/19/26 35/20/27 36/18/28
s off
f 13/21/29 32/22/30 34/23/31 11/44/32
s 4
f 26/25/33 27/26/34 1/17/22 2/15/21
s 3
f 25/27/35 26/25/36 2/15/19 3/13/17
f 24/28/37 25/27/35 3/13/17 4/11/14
f 23/29/38 24/28/37 4/11/14 5/9/13
s 2
f 22/30/39 23/29/40 5/9/10 6/6/9
s 1
f 21/31/41 22/30/42 6/6/6 7/5/5
s off
f 14/2/43 18/32/44 20/33/45 9/3/46
f 30/34/47 13/21/48 11/44/49 29/43/50
s 5
f 27/26/51 28/36/52 8/19/26 1/17/25
s 6
f 7/5/53 42/8/54 16/4/55 9/3/56
f 21/31/57 7/5/53 9/3/56 20/33/58
s 7
f 35/20/59 8/19/60 11/24/61 34/45/62
f 8/19/60 28/36/63 29/35/64 11/24/61
s off
f 19/37/65 10/38/66 12/39/67 31/40/68
f 10/38/69 17/41/70 33/42/71 12/39/72
f 12/39/73 13/21/74 30/34/75 31/40/76
f 33/42/77 32/22/78 13/21/79 12/39/80
f 10/38/81 14/2/82 15/1/83 17/41/84
f 19/37/85 18/32/86 14/2/87 10/38/88
