<svg height="512" viewBox="0 0 64 64" width="512" xmlns="http://www.w3.org/2000/svg"><g id="Compass-2" data-name="Compass"><path d="m34.12 29.88a2.994 2.994 0 1 1 -2.12-.88 2.993 2.993 0 0 1 2.12.88z" fill="#ffd422"/><g fill="#ff9811"><path d="m28.12 25.58-.68 1.86-1.86.68-2.6-5.14z"/><path d="m27.44 36.56.68 1.85-5.12 2.59 2.59-5.12z"/><path d="m36.56 36.56 1.85-.68 2.59 5.12-5.12-2.59z"/><path d="m41.02 22.98-2.6 5.14-1.86-.68-.68-1.86z"/></g><path d="m29.88 34.12-2.44 2.44-1.85-.68-10.59-3.88h14a2.993 2.993 0 0 0 .88 2.12z" fill="#00b39d"/><path d="m36.56 36.56-.68 1.85-3.88 10.59v-14a2.993 2.993 0 0 0 2.12-.88z" fill="#00b39d"/><path d="m38.42 28.12 10.58 3.88h-14a2.993 2.993 0 0 0 -.88-2.12l2.44-2.44z" fill="#00b39d"/><path d="m28.12 25.58 3.88-10.58v14a2.993 2.993 0 0 0 -2.12.88l-2.44-2.44z" fill="#00b39d"/><path d="m27.44 27.44 2.44 2.44a2.993 2.993 0 0 0 -.88 2.12h-14l10.58-3.88z" fill="#00ccb3"/><path d="m32 35v14l-3.88-10.59-.68-1.85 2.44-2.44a2.993 2.993 0 0 0 2.12.88z" fill="#00ccb3"/><path d="m49 32-10.59 3.88-1.85.68-2.44-2.44a2.993 2.993 0 0 0 .88-2.12z" fill="#00ccb3"/><path d="m36.56 27.44-2.44 2.44a2.993 2.993 0 0 0 -2.12-.88v-14l3.88 10.58z" fill="#00ccb3"/><path d="m30 6 4.2 5.6a1 1 0 0 0 .8.4 1.019 1.019 0 0 0 .316-.051 1 1 0 0 0 .684-.949v-9h-2v6l-4.2-5.6a1 1 0 0 0 -1.8.6v9h2z"/><path d="m31 54h2a1 1 0 0 1 1 1h2a3 3 0 0 0 -3-3h-2a3 3 0 0 0 0 6h2a1 1 0 0 1 0 2h-2a1 1 0 0 1 -1-1h-2a3 3 0 0 0 3 3h2a3 3 0 0 0 0-6h-2a1 1 0 0 1 0-2z"/><path d="m62 29v-2h-6a1 1 0 0 0 -1 1v8a1 1 0 0 0 1 1h6v-2h-5v-2h3v-2h-3v-2z"/><path d="m8.039 36.275a1 1 0 0 0 .961.725h.017a1 1 0 0 0 .953-.757l2-8-1.94-.486-1.094 4.378-.975-3.41a1 1 0 0 0 -1.922 0l-.975 3.41-1.094-4.378-1.94.486 2 8a1 1 0 0 0 1.931.032l1.039-3.635z"/><path d="m50 32a1 1 0 0 0 -.656-.939l-9.525-3.491 2.094-4.139a1 1 0 0 0 -1.344-1.344l-4.139 2.094-3.491-9.525a1 1 0 0 0 -1.878 0l-3.491 9.525-4.139-2.094a1 1 0 0 0 -1.344 1.344l2.094 4.139-9.525 3.491a1 1 0 0 0 0 1.878l9.533 3.494-2.082 4.116a1 1 0 0 0 1.344 1.344l4.116-2.082 3.494 9.533a1 1 0 0 0 1.878 0l3.494-9.533 4.116 2.082a1 1 0 0 0 1.344-1.344l-2.082-4.116 9.533-3.494a1 1 0 0 0 .656-.939zm-18 2a2 2 0 1 1 2-2 2 2 0 0 1 -2 2zm2.019-5.433a3.915 3.915 0 0 0 -1.019-.425v-7.508l2.4 6.551zm-3.019-.425a3.915 3.915 0 0 0 -1.019.425l-1.381-1.382 2.4-6.551zm-3.815.457 1.382 1.382a3.915 3.915 0 0 0 -.425 1.019h-7.508zm.957 4.4a3.915 3.915 0 0 0 .425 1.019l-1.382 1.382-6.551-2.4zm1.839 2.433a3.915 3.915 0 0 0 1.019.426v7.508l-2.4-6.551zm3.019.426a3.915 3.915 0 0 0 1.019-.425l1.381 1.382-2.4 6.551zm3.815-.457-1.382-1.382a3.915 3.915 0 0 0 .425-1.019h7.508zm-.957-4.401a3.915 3.915 0 0 0 -.425-1.019l1.382-1.381 6.551 2.4zm2.894-5.752-.824 1.629-.589-.216-.216-.589zm-13.5 0 1.629.824-.216.589-.589.216zm.02 13.484.812-1.6.581.212.212.581zm13.464 0-1.6-.812.212-.581.581-.212z"/><path d="m7.917 38.731-1.927.538a26.977 26.977 0 0 0 19.78 19.008l.46-1.946a24.977 24.977 0 0 1 -18.313-17.6z"/><path d="m37.77 56.331.46 1.946a26.977 26.977 0 0 0 19.78-19.008l-1.927-.538a24.975 24.975 0 0 1 -18.313 17.6z"/><path d="m56.083 25.269 1.927-.538a26.977 26.977 0 0 0 -19.78-19.008l-.46 1.946a24.977 24.977 0 0 1 18.313 17.6z"/><path d="m26.23 7.669-.46-1.946a27.171 27.171 0 0 0 -20.047 20.047l1.946.46a25.159 25.159 0 0 1 18.561-18.561z"/></g></svg>