<?xml version="1.0" encoding="UTF-8" standalone="no"?>
<!-- Created with Inkscape (http://www.inkscape.org/) -->

<svg
   width="76"
   height="76"
   viewBox="0 0 20.108333 20.108333"
   version="1.1"
   id="svg1"
   inkscape:version="1.4.3 (0d15f75042, 2025-12-25)"
   sodipodi:docname="circle_pen.svg"
   xml:space="preserve"
   xmlns:inkscape="http://www.inkscape.org/namespaces/inkscape"
   xmlns:sodipodi="http://sodipodi.sourceforge.net/DTD/sodipodi-0.dtd"
   xmlns="http://www.w3.org/2000/svg"
   xmlns:svg="http://www.w3.org/2000/svg"><sodipodi:namedview
     id="namedview1"
     pagecolor="#ffffff"
     bordercolor="#000000"
     borderopacity="0.25"
     inkscape:showpageshadow="2"
     inkscape:pageopacity="0.0"
     inkscape:pagecheckerboard="0"
     inkscape:deskcolor="#d1d1d1"
     inkscape:document-units="mm"
     inkscape:zoom="11.872886"
     inkscape:cx="17.013555"
     inkscape:cy="42.196986"
     inkscape:window-width="2560"
     inkscape:window-height="1364"
     inkscape:window-x="0"
     inkscape:window-y="251"
     inkscape:window-maximized="1"
     inkscape:current-layer="layer1" /><defs
     id="defs1"><rect
       x="0"
       y="0"
       width="128"
       height="128"
       id="rect2" /><rect
       x="0"
       y="0"
       width="128"
       height="128"
       id="rect1" /></defs><g
     inkscape:label="Layer 1"
     inkscape:groupmode="layer"
     id="layer1"><circle
       style="display:inline;fill:#e6e6e6;fill-opacity:1;stroke:none;stroke-width:0.988;stroke-linejoin:round;stroke-opacity:0.919399"
       id="path1"
       cx="10.054167"
       cy="10.054167"
       r="10.054167" /><g
       style="fill:#bdbdbd;fill-opacity:1"
       id="g4"
       transform="matrix(0.01239836,0,0,0.01239836,4.3537491,15.995241)"><path
         d="m 160,-120 v -170 l 527,-526 q 12,-12 27,-18 15,-6 30,-6 16,0 30.5,6 14.5,6 25.5,18 l 56,56 q 12,11 18,25.5 6,14.5 6,30.5 0,15 -6,30 -6,15 -18,27 l -526,527 z m 80,-80 h 56 l 393,-392 -28,-29 -29,-28 -392,393 z m 560,-503 -57,-57 z m -139,82 -29,-28 57,57 z m -101,501 q 74,0 137,-37 63,-37 63,-103 0,-36 -19,-62 -19,-26 -51,-45 l -59,59 q 23,10 36,22 13,12 13,26 0,23 -36.5,41.5 -36.5,18.5 -83.5,18.5 -17,0 -28.5,11.5 -11.5,11.5 -11.5,28.5 0,17 11.5,28.5 11.5,11.5 28.5,11.5 z m -377,-306 60,-60 q -20,-8 -31.5,-16.5 Q 200,-511 200,-520 q 0,-12 18,-24 18,-12 76,-37 88,-38 117,-69 29,-31 29,-70 0,-55 -44,-87.5 -44,-32.5 -116,-32.5 -45,0 -80.5,16 -35.5,16 -54.5,39 -11,13 -9,29 2,16 15,26 13,11 29,9 16,-2 27,-13 14,-14 31,-20 17,-6 42,-6 41,0 60.5,12 19.5,12 19.5,28 0,14 -17.5,25.5 -17.5,11.5 -80.5,40.5 -80,35 -111,63.5 -31,28.5 -31,70.5 0,32 17,54.5 17,22.5 46,39.5 z"
         id="path1-2"
         style="fill:#bdbdbd;fill-opacity:1" /></g></g></svg>
