<?xml version="1.0" encoding="UTF-8" standalone="no"?>
<!-- Creator: CorelDRAW 2021.5 -->

<svg
   xml:space="preserve"
   width="3.5239224mm"
   height="3.2315857mm"
   version="1.1"
   style="clip-rule:evenodd;fill-rule:evenodd;image-rendering:optimizeQuality;shape-rendering:geometricPrecision;text-rendering:geometricPrecision"
   viewBox="0 0 8.6770362 7.9599984"
   id="svg31"
   xmlns="http://www.w3.org/2000/svg"
   xmlns:svg="http://www.w3.org/2000/svg">
 <defs
   id="defs1"><style
     type="text/css"
     id="style1">
   <![CDATA[
    .str0 {stroke:black;stroke-width:0.49;stroke-miterlimit:22.9256}
    .fil16 {fill:black}
    .fil26 {fill:#695B4E}
    .fil15 {fill:white}
    .fil9 {fill:#EBECEC;fill-rule:nonzero}
    .fil12 {fill:#D9DADA;fill-rule:nonzero}
    .fil18 {fill:#92AAAC;fill-rule:nonzero}
    .fil17 {fill:#717780;fill-rule:nonzero}
    .fil25 {fill:black;fill-rule:nonzero}
    .fil11 {fill:black;fill-rule:nonzero}
    .fil20 {fill:#020202;fill-rule:nonzero}
    .fil21 {fill:#1D1E1F;fill-rule:nonzero}
    .fil13 {fill:#333333;fill-rule:nonzero}
    .fil2 {fill:#3B3A3C;fill-rule:nonzero}
    .fil7 {fill:#434A54;fill-rule:nonzero}
    .fil0 {fill:#57555C;fill-rule:nonzero}
    .fil8 {fill:#656D78;fill-rule:nonzero}
    .fil1 {fill:#787780;fill-rule:nonzero}
    .fil19 {fill:#857C76;fill-rule:nonzero}
    .fil23 {fill:#8D817E;fill-rule:nonzero}
    .fil10 {fill:#990000;fill-rule:nonzero}
    .fil3 {fill:#AAB2BC;fill-rule:nonzero}
    .fil22 {fill:#C4150F;fill-rule:nonzero}
    .fil6 {fill:#CCD1D9;fill-rule:nonzero}
    .fil24 {fill:#CECFCF;fill-rule:nonzero}
    .fil4 {fill:#F6BB42;fill-rule:nonzero}
    .fil5 {fill:#FFCE54;fill-rule:nonzero}
    .fil14 {fill:white;fill-rule:nonzero}
   ]]>
  </style></defs>
 <g
   id="Ebene_x0020_1"
   transform="translate(-0.00158022,-59.000004)">
  <metadata
   id="CorelCorpID_0Corel-Layer" />
  
  <g
   id="_1553019000240">
   <path
   class="fil3"
   d="M 8.32,60.08 C 8.22,60.08 8.14,60 8.14,59.9 v -0.18 c 0,-0.1 0.08,-0.18 0.18,-0.18 0.1,0 0.18,0.08 0.18,0.18 v 0.18 c 0,0.1 -0.08,0.18 -0.18,0.18 z"
   id="path4" />
   <path
   class="fil4"
   d="m 4.88,66.96 c -0.1,0 -0.18,-0.08 -0.18,-0.18 v -0.72 c 0,-0.1 0.08,-0.18 0.18,-0.18 0.1,0 0.18,0.08 0.18,0.18 v 0.72 c 0,0.1 -0.08,0.18 -0.18,0.18 z"
   id="path5" />
   <path
   class="fil5"
   d="M 5.61,66.96 H 4.52 c -0.1,0 -0.18,-0.08 -0.18,-0.18 0,-0.1 0.08,-0.18 0.18,-0.18 h 1.09 c 0.1,0 0.18,0.08 0.18,0.18 0,0.1 -0.08,0.18 -0.18,0.18 z"
   id="path6" />
   <path
   class="fil6"
   d="M 8.5,60.08 H 7.72 c -0.1,0 -0.18,-0.08 -0.18,-0.18 0,-0.1 0.08,-0.18 0.18,-0.18 H 8.5 c 0.1,0 0.18,0.08 0.18,0.18 0,0.1 -0.08,0.18 -0.18,0.18 z"
   id="path7" />
   <path
   class="fil7"
   d="m 4.88,64.07 c -0.4,0 -0.72,0.32 -0.72,0.72 0,0.19 0.07,0.53 0.17,0.8 0.15,0.43 0.33,0.64 0.55,0.64 0.22,0 0.4,-0.21 0.55,-0.64 0.1,-0.28 0.17,-0.62 0.17,-0.8 0,-0.4 -0.32,-0.72 -0.72,-0.72 z"
   id="path8" />
   <g
   id="g10">
    <path
   class="fil8"
   d="M 8.11,59.64 C 8.14,59.59 8.15,59.53 8.13,59.47 8.12,59.45 7.94,59 7.33,59 7.26,59 7.19,59.01 7.12,59.02 6.68,59.09 6.41,59.65 6.1,60.3 c -0.24,0.49 -0.48,1 -0.79,1.28 -0.2,0.18 -0.8,0.55 -2.49,1.31 -1.02,0.46 -1.97,0.84 -1.98,0.84 -0.07,0.03 -0.11,0.1 -0.11,0.17 0,0.07 0.05,0.14 0.12,0.17 1.64,0.61 3.02,0.91 4.11,0.91 v 0 c 1.14,0 1.99,-0.33 2.52,-0.99 0.68,-0.84 0.83,-2.2 0.45,-4.04 l 0.19,-0.3 z"
   id="path9" />
    <path
   class="fil8"
   d="m 4.2,64.57 -2.53,-0.6 c -0.04,-0.01 -0.09,0 -0.13,0.02 l -1.45,0.82 c -0.07,0.04 -0.11,0.13 -0.08,0.21 0.02,0.08 0.09,0.13 0.17,0.13 0,0 0.01,0 0.01,0 L 4.17,64.92 C 4.26,64.91 4.33,64.84 4.34,64.76 4.35,64.67 4.29,64.59 4.2,64.57 Z"
   id="path10" />
   </g>
   <path
   class="fil3"
   d="M 8.01,62.69 C 7.63,61.67 6.9,61.45 6.36,61.45 c -0.71,0 -1.37,0.36 -1.53,0.45 -0.01,0 -0.03,0.01 -0.04,0.02 -1.26,0.72 -3.93,1.79 -3.96,1.8 -0.07,0.03 -0.11,0.1 -0.11,0.17 0,0.07 0.05,0.14 0.12,0.17 1.64,0.61 3.02,0.91 4.11,0.91 0,0 0,0 0,0 0.86,0 1.56,-0.19 2.07,-0.57 0.5,-0.37 0.84,-0.91 1,-1.62 0.01,-0.03 0,-0.07 -0.01,-0.1 z"
   id="path11" />
   <path
   class="fil7"
   d="m 7.42,59.72 c 0,0.1 -0.08,0.18 -0.18,0.18 -0.1,0 -0.18,-0.08 -0.18,-0.18 0,-0.1 0.08,-0.18 0.18,-0.18 0.1,0 0.18,0.08 0.18,0.18 z"
   id="path12" />
  </g>
  
  
 </g>
</svg>
