<?xml version="1.0" encoding="UTF-8" standalone="no"?>
<!-- Creator: CorelDRAW 2021.5 -->

<svg
   xml:space="preserve"
   width="3.479362mm"
   height="3.3261151mm"
   version="1.1"
   style="clip-rule:evenodd;fill-rule:evenodd;image-rendering:optimizeQuality;shape-rendering:geometricPrecision;text-rendering:geometricPrecision"
   viewBox="0 0 8.567314 8.192842"
   id="svg31"
   xmlns="http://www.w3.org/2000/svg"
   xmlns:svg="http://www.w3.org/2000/svg">
 <defs
   id="defs1"><style
     type="text/css"
     id="style1">
   <![CDATA[
    .str0 {stroke:black;stroke-width:0.49;stroke-miterlimit:22.9256}
    .fil16 {fill:black}
    .fil26 {fill:#695B4E}
    .fil15 {fill:white}
    .fil9 {fill:#EBECEC;fill-rule:nonzero}
    .fil12 {fill:#D9DADA;fill-rule:nonzero}
    .fil18 {fill:#92AAAC;fill-rule:nonzero}
    .fil17 {fill:#717780;fill-rule:nonzero}
    .fil25 {fill:black;fill-rule:nonzero}
    .fil11 {fill:black;fill-rule:nonzero}
    .fil20 {fill:#020202;fill-rule:nonzero}
    .fil21 {fill:#1D1E1F;fill-rule:nonzero}
    .fil13 {fill:#333333;fill-rule:nonzero}
    .fil2 {fill:#3B3A3C;fill-rule:nonzero}
    .fil7 {fill:#434A54;fill-rule:nonzero}
    .fil0 {fill:#57555C;fill-rule:nonzero}
    .fil8 {fill:#656D78;fill-rule:nonzero}
    .fil1 {fill:#787780;fill-rule:nonzero}
    .fil19 {fill:#857C76;fill-rule:nonzero}
    .fil23 {fill:#8D817E;fill-rule:nonzero}
    .fil10 {fill:#990000;fill-rule:nonzero}
    .fil3 {fill:#AAB2BC;fill-rule:nonzero}
    .fil22 {fill:#C4150F;fill-rule:nonzero}
    .fil6 {fill:#CCD1D9;fill-rule:nonzero}
    .fil24 {fill:#CECFCF;fill-rule:nonzero}
    .fil4 {fill:#F6BB42;fill-rule:nonzero}
    .fil5 {fill:#FFCE54;fill-rule:nonzero}
    .fil14 {fill:white;fill-rule:nonzero}
   ]]>
  </style></defs>
 <g
   id="Ebene_x0020_1"
   transform="translate(-0.55134023,-44.380196)">
  <metadata
   id="CorelCorpID_0Corel-Layer" />
  
  
  
  <g
   id="_1553019003840">
   <path
   class="fil17"
   d="M 8.62,50.09 C 8.6,50.64 8.26,51.03 7.9,51.41 7.82,51.49 6.6,52.39 6.62,52.57 5.92,52.55 5.56,52.61 4.88,52.53 c -0.01,0 -0.01,0 -0.02,0 C 4.54,52.3 4.06,51.93 3.6,51.89 5.05,50.94 4.4,50.06 3.06,50.34 2.96,50.22 2.89,50.15 2.72,50.14 2.47,50.05 2.58,49.9 2.6,49.83 2.61,49.78 2.56,49.75 2.53,49.73 1.87,47.81 3.27,46.93 4.2,47.07 c 0,0.17 0.11,0.36 0.12,0.53 0.01,1.22 2.9,1.26 2.69,-0.74 -0.01,-0.64 0.08,-1.65 0.76,-1.94 0.16,-0.05 0.32,-0.17 0.46,-0.33 0.41,-0.26 0.26,0.19 0.3,0.41 0.11,0.68 0.15,0.37 0.27,0.81 -0.02,0.04 -0.05,0.06 -0.06,0.1 -0.02,0.06 0.11,0.11 0.15,0.12 0,0.01 0.02,0.01 0.03,0.02 -0.06,0 -0.43,-0.02 -0.43,0.04 0,0 0.08,0.3 0.09,0.34 -0.03,-0.01 -0.12,-0.1 -0.13,-0.12 0,0.09 0.01,0.17 0.02,0.26 -0.04,-0.02 -0.08,-0.09 -0.09,-0.13 -0.16,0.64 -0.02,0.72 0.08,1.28 0.13,0.74 0.2,1.61 0.17,2.38 z"
   id="path14" />
   <path
   class="fil18"
   d="m 6.5,49.08 c 0.11,-0.2 1.98,-0.12 2.1,-0.16 0.02,0.15 0.04,0.97 0.03,1.07 0.17,1.13 -2.67,0.07 -2.12,-0.91 z"
   id="path15" />
   <path
   class="fil19"
   d="m 7.67,45.23 c -0.03,0.04 -0.01,0.15 -0.03,0.19 0.14,-0.02 0.33,0 0.27,-0.21 C 7.9,45.18 7.89,45.17 7.86,45.17 7.79,45.18 7.7,45.16 7.66,45.23 Z"
   id="path16" />
   <path
   class="fil20"
   d="M 9.01,45.73 C 8.95,45.69 8.9,45.67 8.84,45.68 8.85,45.75 8.96,45.78 8.96,45.83 8.91,45.82 8.85,45.81 8.8,45.84 8.81,45.9 8.88,45.91 8.87,45.96 8.81,45.95 8.58,45.86 8.42,45.9 8.63,45.65 8.49,45.16 8.5,45.03 c 0.03,0 0.21,-0.02 0.23,-0.01 0.04,0.1 0.28,0.11 0.28,0.11 0,0.11 0.08,0.08 0.11,0.14 -0.04,0.02 -0.05,0.04 -0.1,0.03 0.02,0.05 0.07,0.06 0.08,0.1 -0.03,-0.02 -0.06,0 -0.09,-0.01 0.01,0.06 0.07,0.08 0.07,0.15 0,0 -0.13,0.02 -0.14,0.02 C 8.95,45.63 9,45.65 9,45.74 Z"
   id="path17" />
   <path
   class="fil21"
   d="m 0.96,49.12 c 0.46,0.07 0.65,0.17 0.9,0.28 0.25,0.12 0.48,0.09 0.48,0.14 -0.01,0.13 0.22,0.2 0.23,0.22 0.16,-0.02 0.32,0 0.46,0.05 -1.58,-1.07 1.02,-2.96 1.27,-2.2 -0.01,-0.5 -0.33,-3.42 -1.16,-3.22 -1.95,0.75 -3.3,4.55 -2.19,4.73 z"
   id="path18" />
   <path
   class="fil22"
   d="m 7.5,45.55 c 0,0 0,0.01 0,0.01 0.01,0.02 0.15,-0.07 0.15,-0.16 0.02,-0.29 0.2,-0.18 0.25,-0.23 0.05,-0.04 0.01,-0.09 -0.03,-0.11 -0.39,-0.04 -0.33,0.32 -0.37,0.5 z"
   id="path19" />
   <path
   class="fil23"
   d="M 2.53,51.91 C 2.48,51.54 3.6,50.55 3.05,50.34 3.08,49.97 3.43,49.6 3.69,49.38 c 0.55,-0.47 1.19,-0.82 1.92,-0.73 1.11,0.02 1.12,1.5 0.9,1.66 -2.9,2.22 -3.88,1.52 -3.97,1.59 z"
   id="path20" />
   <path
   class="fil24"
   d="m 8.57,45.02 c -0.04,0 -0.07,0.01 -0.1,0.04 -0.05,0.06 -0.08,0.17 -0.18,0.13 -0.09,-0.03 -0.06,-0.4 -0.04,-0.44 0.04,-0.07 0.03,-0.18 0.09,-0.23 0.14,-0.12 0.41,-0.15 0.49,0.02 -0.13,0.01 -0.3,0.12 -0.29,0.27 0.05,0 0.17,-0.12 0.34,-0.11 0,0 0.01,0 0.01,0 0,0 0,0.01 0,0.01 0,0.01 0,0.02 0,0.04 0,0.05 -0.04,0.09 -0.08,0.14 -0.04,0.05 -0.06,0.13 -0.15,0.14 -0.03,0 -0.05,0 -0.08,0 z"
   id="path21" />
   <path
   class="fil25"
   d="m 7.83,45.3 c 0,-0.04 -0.06,-0.06 -0.08,-0.02 -0.01,0.02 -0.01,0.05 0.01,0.06 0.02,0.01 0.05,0 0.06,-0.02 0,-0.01 0,-0.01 0,-0.02 z"
   id="path22" />
   <path
   class="fil15"
   d="M 3.8,47.4 C 3.68,46.66 3.65,45.42 3.2,44.72 c 0.61,0.94 0.52,2.05 0.6,2.68 z"
   id="path23" />
   <path
   class="fil15"
   d="M 3.4,47.59 C 3.18,46.91 2.98,45.77 2.52,45.08 c 0.61,0.94 0.71,1.74 0.88,2.51 z"
   id="path24" />
   <path
   class="fil15"
   d="m 2.97,47.83 c -0.29,-0.36 -0.52,-1.67 -1.03,-2.3 0.64,0.74 0.65,1.58 1.03,2.3 z"
   id="path25" />
   <path
   class="fil15"
   d="m 2.71,48.11 c -0.36,-0.17 -0.6,-1.17 -1.25,-1.77 0.68,0.51 0.73,1.25 1.25,1.77 z"
   id="path26" />
   <path
   class="fil15"
   d="M 2.51,48.65 C 2.15,48.59 1.74,47.77 1.12,47.3 c 0.71,0.38 0.9,1.11 1.39,1.35 z"
   id="path27" />
   <path
   class="fil15"
   d="m 2.54,49.21 c -0.44,-0.11 -1.27,-0.58 -1.77,-1 0.72,0.51 1.37,0.8 1.77,1 z"
   id="path28" />
   <circle
   class="fil16"
   cx="7.79"
   cy="45.299999"
   r="0.11"
   id="circle28" />
   <circle
   class="fil26"
   cx="7.79"
   cy="45.299999"
   r="0.090000004"
   id="circle29" />
   <circle
   class="fil16"
   cx="7.79"
   cy="45.299999"
   r="0.050000001"
   id="circle30" />
   <circle
   class="fil15"
   cx="7.79"
   cy="45.279999"
   r="0.0099999998"
   id="circle31" />
  </g>
 </g>
</svg>
