<?xml version="1.0" encoding="UTF-8" standalone="no"?>
<!-- Creator: CorelDRAW 2021.5 -->

<svg
   xml:space="preserve"
   width="3.4879148mm"
   height="2.8566742mm"
   version="1.1"
   style="clip-rule:evenodd;fill-rule:evenodd;image-rendering:optimizeQuality;shape-rendering:geometricPrecision;text-rendering:geometricPrecision"
   viewBox="0 0 8.5883737 7.0365214"
   id="svg31"
   xmlns="http://www.w3.org/2000/svg"
   xmlns:svg="http://www.w3.org/2000/svg">
 <defs
   id="defs1"><style
     type="text/css"
     id="style1">
   <![CDATA[
    .str0 {stroke:black;stroke-width:0.49;stroke-miterlimit:22.9256}
    .fil16 {fill:black}
    .fil26 {fill:#695B4E}
    .fil15 {fill:white}
    .fil9 {fill:#EBECEC;fill-rule:nonzero}
    .fil12 {fill:#D9DADA;fill-rule:nonzero}
    .fil18 {fill:#92AAAC;fill-rule:nonzero}
    .fil17 {fill:#717780;fill-rule:nonzero}
    .fil25 {fill:black;fill-rule:nonzero}
    .fil11 {fill:black;fill-rule:nonzero}
    .fil20 {fill:#020202;fill-rule:nonzero}
    .fil21 {fill:#1D1E1F;fill-rule:nonzero}
    .fil13 {fill:#333333;fill-rule:nonzero}
    .fil2 {fill:#3B3A3C;fill-rule:nonzero}
    .fil7 {fill:#434A54;fill-rule:nonzero}
    .fil0 {fill:#57555C;fill-rule:nonzero}
    .fil8 {fill:#656D78;fill-rule:nonzero}
    .fil1 {fill:#787780;fill-rule:nonzero}
    .fil19 {fill:#857C76;fill-rule:nonzero}
    .fil23 {fill:#8D817E;fill-rule:nonzero}
    .fil10 {fill:#990000;fill-rule:nonzero}
    .fil3 {fill:#AAB2BC;fill-rule:nonzero}
    .fil22 {fill:#C4150F;fill-rule:nonzero}
    .fil6 {fill:#CCD1D9;fill-rule:nonzero}
    .fil24 {fill:#CECFCF;fill-rule:nonzero}
    .fil4 {fill:#F6BB42;fill-rule:nonzero}
    .fil5 {fill:#FFCE54;fill-rule:nonzero}
    .fil14 {fill:white;fill-rule:nonzero}
   ]]>
  </style></defs>
 <g
   id="Ebene_x0020_1"
   transform="translate(-0.70027362,-30.507776)">
  <metadata
   id="CorelCorpID_0Corel-Layer" />
  
  
  <g
   id="_1553019011376">
   <path
   id="Path_1183"
   class="fil9"
   d="m 3.82,35.54 c 0,-0.02 0.01,-0.04 0.03,-0.06 0,0 0,0 0,0 l 0.17,-0.2 C 3.89,35.19 3.77,35.1 3.65,35 3.45,34.82 2.77,34.11 2.72,33.42 2.65,32.35 2.92,32.21 2.71,32.02 2.5,31.83 2.12,31.81 2.12,31.81 L 2.19,31.56 1.93,31.33 2.01,31.25 c 0.03,-0.16 0.13,-0.26 0.23,-0.38 0.34,-0.39 0.89,-0.41 1.29,-0.14 0.68,0.59 0.64,1.03 0.64,1.03 l -0.26,-0.23 0.1,0.31 C 3.47,31.19 2.98,31.18 2.98,31.18 3.96,32.04 3.4,32.63 3.4,32.63 v 0 c 0,0 0,0 0,0 -0.42,0.48 -0.37,1.21 0.11,1.64 1.05,0.92 2.65,1.6 3.9,2.03 0.2,0.07 0.39,0.13 0.56,0.19 C 6.82,36.28 6.61,36.2 6.18,36.15 5.82,36.12 5.47,36.04 5.14,35.9 l 0.06,0.31 c 0,0 -0.67,0.03 -1.35,-0.57 0,0 0,0 -0.01,0 C 3.81,35.62 3.8,35.58 3.8,35.55 v 0 z"
   data-name="Path 1183" />
   <path
   id="Path_1183_0"
   class="fil10"
   d="m 5.08,35.17 c -0.09,-1.39 1.1,0.69 2.35,1.12 0.2,0.07 0.39,0.13 0.56,0.19 C 6.84,36.27 6.63,36.19 6.2,36.14 5.84,36.11 5.49,36.02 5.16,35.89 5.09,35.86 5.1,35.54 5.08,35.16 Z"
   data-name="Path 1183" />
   <path
   id="Path_1179"
   class="fil11"
   d="m 8.3,36.58 0.86,0.93 C 9.02,37.57 8.86,37.55 8.75,37.46 L 8.31,37.08 7.42,36.3 c 0.11,0.03 0.78,0.25 0.88,0.28 z"
   data-name="Path 1179" />
   <path
   id="Path_1178"
   class="fil11"
   d="M 2.13,31.81 2.2,31.56 1.94,31.33 0.74,31.98 c -0.01,0 -0.02,0.01 -0.02,0.02 -0.03,0.03 -0.03,0.08 0.01,0.11 0.02,0.02 0.05,0.02 0.07,0.02 l 1.34,-0.32 z"
   data-name="Path 1178" />
   <path
   id="Path_1180"
   class="fil12"
   d="m 5.26,34.4 c 1.56,1.37 2.46,1.07 2.46,1.07 l 1.57,1.38 c 0,0 -0.39,-0.09 -0.99,-0.27 C 8.2,36.55 8.1,36.52 7.99,36.48 7.81,36.42 7.62,36.36 7.43,36.29 6.18,35.86 4.58,35.18 3.53,34.26 c 0.78,0.68 1.74,0.13 1.74,0.13 z"
   data-name="Path 1180" />
   <path
   id="Path_1181"
   class="fil11"
   d="m 3.42,32.63 v 0 c 0,0 0.56,-0.59 -0.42,-1.45 0,0 0.49,0.01 1.03,0.66 0.06,0.07 0.12,0.15 0.18,0.24 v 0 c 0.4,0.24 0.77,0.52 1.12,0.83 0.35,0.31 0.68,0.64 0.97,1 v 0 l 1.05,0.92 c 0,0 0.38,0.29 0.37,0.63 0,0 -0.89,0.3 -2.46,-1.07 0,0 -0.96,0.55 -1.74,-0.13 -0.48,-0.42 -0.53,-1.16 -0.11,-1.64 0,0 0,0 0,0 v 0 z"
   data-name="Path 1181" />
   <path
   id="Path_1182"
   class="fil13"
   d="M 3.56,35.99 3.21,35.68 C 3.01,35.5 3.02,35.36 3.02,35.36 2.9,35.35 2.78,35.3 2.68,35.22 L 2.24,34.84 c 0,0 0,0 -0.01,-0.01 -0.11,-0.1 -0.28,-0.12 -0.41,-0.05 0.23,-0.26 0.49,-0.03 0.49,-0.03 l 0.35,0.31 c 0.19,0.17 0.5,0.13 0.5,0.13 l 0.25,0.07 0.5,0.13 -0.08,0.09 c 0,0 0,0 0,0 C 3.81,35.5 3.8,35.52 3.8,35.54 L 3.71,35.52 3.25,35.43 c -0.03,0.05 -0.03,0.12 0.01,0.16 l 0.35,0.31 c 0.19,0.3 -0.05,0.41 -0.05,0.41 0.08,-0.1 0.07,-0.24 -0.02,-0.33 0,0 0,0 0,0 v 0 z"
   data-name="Path 1182" />
   <path
   id="Path_1183_1"
   class="fil11"
   d="m 2.58,31 -0.64,0.33 0.08,-0.08 c 0.03,-0.16 0.1,-0.31 0.21,-0.43 0.42,-0.46 1.17,-0.33 1.31,-0.09 0.03,0.05 0.04,0.16 0.04,0.2 -0.02,1.76 -0.01,-0.33 -1,0.07 z"
   data-name="Path 1183" />
   <path
   id="Path_1184"
   class="fil14"
   d="m 2.2,31.56 c 0,0 -0.13,-0.18 0.13,-0.5 0.26,-0.32 0.67,0.12 0.67,0.12 0,0 -0.25,0.49 -0.8,0.38 z"
   data-name="Path 1184" />
   <path
   class="fil15 str0"
   d="m 4.03,33.28 c 0.16,0.28 1.11,1.3 1.34,0.93 C 5.81,33.51 4.9,33.19 4.66,33.05 4.42,32.91 4,32.55 3.82,32.62 c -0.39,0.16 0.13,0.52 0.21,0.65 z"
   id="path13" />
   <circle
   class="fil16"
   transform="matrix(0.0133571,-0.015241,0.015241,0.0133571,2.50123,31.2076)"
   r="7.4200001"
   id="circle13"
   cx="0"
   cy="0" />
   <path
   id="Path_1183_2"
   class="fil10"
   d="m 2.81,30.52 c 0.33,-0.05 0.65,0.06 0.73,0.21 0.03,0.05 0.04,0.16 0.04,0.2 C 3.43,30.77 3.1,30.6 2.81,30.52 Z"
   data-name="Path 1183" />
  </g>
  
 </g>
</svg>
