<?xml version="1.0" encoding="UTF-8" standalone="no"?>
<!-- Creator: CorelDRAW 2021.5 -->

<svg
   xml:space="preserve"
   width="3.525mm"
   height="3.2314mm"
   version="1.1"
   style="shape-rendering:geometricPrecision; text-rendering:geometricPrecision; image-rendering:optimizeQuality; fill-rule:evenodd; clip-rule:evenodd"
   viewBox="0 0 7.97 7.3"
   id="svg9"
   sodipodi:docname="wood.svg"
   inkscape:version="1.4 (e7c3feb100, 2024-10-09)"
   xmlns:inkscape="http://www.inkscape.org/namespaces/inkscape"
   xmlns:sodipodi="http://sodipodi.sourceforge.net/DTD/sodipodi-0.dtd"
   xmlns="http://www.w3.org/2000/svg"
   xmlns:svg="http://www.w3.org/2000/svg"><sodipodi:namedview
   id="namedview9"
   pagecolor="#ffffff"
   bordercolor="#000000"
   borderopacity="0.25"
   inkscape:showpageshadow="2"
   inkscape:pageopacity="0.0"
   inkscape:pagecheckerboard="0"
   inkscape:deskcolor="#d1d1d1"
   inkscape:document-units="mm"
   inkscape:zoom="22.627417"
   inkscape:cx="-9.2144852"
   inkscape:cy="12.661631"
   inkscape:window-width="2560"
   inkscape:window-height="1360"
   inkscape:window-x="0"
   inkscape:window-y="0"
   inkscape:window-maximized="1"
   inkscape:current-layer="Ebene_x0020_1" />
 <defs
   id="defs1">
  <style
   type="text/css"
   id="style1">
   <![CDATA[
    .fil2 {fill:#C79F75;fill-rule:nonzero}
    .fil0 {fill:#C7A57E;fill-rule:nonzero}
    .fil3 {fill:#C8B79F;fill-rule:nonzero}
    .fil1 {fill:#E69784;fill-rule:nonzero}
   ]]>
  </style>
 </defs>
 <g
   id="Ebene_x0020_1"
   inkscape:label="Ebene 1">
  <metadata
   id="CorelCorpID_0Corel-Layer" />
  
 <ellipse
   style="fill:#c7a57e;fill-opacity:1;stroke:none;stroke-width:0.267361;stroke-dasharray:none;stroke-opacity:1"
   id="path17"
   cx="1.1481245"
   cy="0.36747676"
   rx="0.29526374"
   ry="0.45921522"
   transform="rotate(36.536869)" /><path
   id="path13"
   style="fill:#4a3721;fill-opacity:1;stroke:#4a3721;stroke-width:0.226099;stroke-dasharray:none;stroke-opacity:1"
   d="m 0.3445582,1.4320441 c 0,0 1.0285921,-0.73407654 0.42052074,-0.94276128 M 2.3386044,2.8356708 c 0,0 -1.630048,-1.3909704 -1.9940462,-1.4036267 C 0.13757518,1.4248472 0.89187288,0.00309973 0.89015248,0.53789898 0.88857606,1.0279419 3.1446206,2.1193911 3.2929206,2.0048054"
   sodipodi:nodetypes="cccssc" /><path
   id="path11-5"
   style="clip-rule:evenodd;fill:#4a3721;fill-opacity:1;fill-rule:evenodd;stroke:#4a3721;stroke-width:0.226099;stroke-dasharray:none;stroke-opacity:1;image-rendering:optimizeQuality;shape-rendering:geometricPrecision;text-rendering:geometricPrecision"
   d="M 0.98536333,3.871295 2.2223883,2.8299448 3.6727123,1.7120715 4.5378994,0.8262342 5.1343052,0.38658191 M 3.2586029,6.4774632 4.6629377,5.3242661 5.479736,4.6258263 5.8353461,4.1410402 6.5944217,3.6800573 7.4626007,3.0030571 M 7.8633772,1.8724133 c 0,0.3270667 -0.088767,0.6334008 -0.2435233,0.8962249 -0.3074893,0.5222117 -0.8754965,0.8726517 -1.5253534,0.8726517 -0.9769235,0 -1.7688766,-0.7919531 -1.7688766,-1.7688766 0,-0.7590476 0.137196,-1.23482408 0.8086813,-1.48583139 0.1927423,-0.0720488 0.7423193,-0.28304529 0.9601953,-0.2830453 0.9769236,-6e-8 1.7688768,0.79195307 1.7688767,1.76887669 z M 3.6118428,5.427587 c 0,0.5295616 -0.2238492,1.0169719 -0.5976469,1.3354546 C 2.7111025,7.0212828 2.3048938,7.1639304 1.8754994,7.1639304 1.4610963,7.1639304 0.8558781,6.8072542 0.55737149,6.5649905 0.16511428,6.2466401 0.13915598,5.9721399 0.13915598,5.427587 c 0,-0.3697616 0.15523714,-0.8447175 0.35224044,-1.1263313 C 0.80531009,3.8525198 1.286305,3.6912436 1.8754994,3.6912436 c 0.4841528,0 0.8955861,0.2642497 1.2104986,0.5838826 0.3088313,0.3134604 0.5258448,0.6776576 0.5258448,1.1524608 z"
   sodipodi:nodetypes="cccccccccccssssssssssssssss" /><path
   style="fill:#513c24;fill-opacity:1;stroke:#4a3721;stroke-width:0.113049;stroke-dasharray:none;stroke-opacity:1"
   d="M 3.2586029,6.4774632 C 4.5608024,3.6783151 1.1757951,3.7109861 1.1757951,3.7109861 L 5.3240365,0.31596787 c 0,0 2.3404939,-0.82389359 2.5236731,1.31998593 C 7.97,3.0672076 7.1556488,3.2877776 7.1556488,3.2877776 Z"
   id="path19"
   sodipodi:nodetypes="cccscc" /><path
   style="fill:#4a3721;fill-opacity:1;stroke:#4a3721;stroke-width:0.113049;stroke-dasharray:none;stroke-opacity:1"
   d="M 2.4434817,3.9320699 6.4231106,0.16446981"
   id="path20" /><path
   style="fill:#4a3721;fill-opacity:1;stroke:#4a3721;stroke-width:0.113049;stroke-dasharray:none;stroke-opacity:1;stroke-linecap:round"
   d="M 3.2978183,4.519823 6.5301574,1.5170922"
   id="path21" /><path
   style="fill:#4a3721;fill-opacity:1;stroke:#4a3721;stroke-width:0.113049;stroke-dasharray:none;stroke-opacity:1;stroke-linecap:round"
   d="M 7.8477099,1.6359538 4.0846531,4.9011414"
   id="path22" /><path
   style="fill:#4a3721;fill-opacity:1;stroke:#4a3721;stroke-width:0.113049;stroke-linecap:round;stroke-dasharray:none;stroke-opacity:1"
   d="M 1.8754994,3.6912436 5.1025116,0.98833452"
   id="path23" /><path
   style="fill:#b68d5c;fill-opacity:1;stroke:none;stroke-width:0.247387;stroke-linecap:round;stroke-dasharray:none;stroke-opacity:1"
   d="M 0.71721107,4.1358708 C 1.3429306,3.6625387 2.5750338,3.9402343 3.1111632,4.6598206 3.4197391,5.0739874 3.3298007,5.6301203 3.1911265,6.2850162 3.0262284,7.0637561 2.0455014,7.2155272 1.4183164,6.9097248 1.1755022,6.7886214 0.85572412,6.6279501 0.60099767,6.3832267 0.10959036,5.9111167 -0.15109692,5.1206752 0.71721107,4.1358708 Z"
   id="path1"
   sodipodi:nodetypes="csscsc" /><path
   style="clip-rule:evenodd;fill:none;fill-opacity:1;fill-rule:evenodd;stroke:#4a3721;stroke-width:0.128887;stroke-linecap:round;stroke-dasharray:none;stroke-opacity:1;image-rendering:optimizeQuality;shape-rendering:geometricPrecision;text-rendering:geometricPrecision"
   d="M 0.8933947,4.5017456 C 1.3805018,4.1332682 2.3396639,4.3494474 2.7570273,4.9096276 2.9972459,5.2320462 2.9272314,5.6649819 2.8192768,6.1748023 2.6909077,6.7810321 1.927436,6.8991821 1.4391878,6.6611225 1.250163,6.5668465 1.0012236,6.4417679 0.80292544,6.2512568 0.42037697,5.8837308 0.21743832,5.2683915 0.8933947,4.5017456 Z"
   id="path1-2"
   sodipodi:nodetypes="csscsc" /><path
   style="clip-rule:evenodd;fill:none;fill-opacity:1;fill-rule:evenodd;stroke:#4a3721;stroke-width:0.0946936;stroke-linecap:round;stroke-dasharray:none;stroke-opacity:1;image-rendering:optimizeQuality;shape-rendering:geometricPrecision;text-rendering:geometricPrecision"
   d="M 1.1749062,4.8027277 C 1.5327836,4.5320076 2.2374794,4.6908347 2.5441161,5.1023984 2.7206041,5.3392793 2.6691643,5.6573568 2.589851,6.0319216 2.4955378,6.4773183 1.9346158,6.5641231 1.5759002,6.3892209 1.4370237,6.3199562 1.254128,6.2280612 1.1084384,6.0880926 0.82738021,5.8180715 0.6782814,5.3659822 1.1749062,4.8027277 Z"
   id="path1-2-0"
   sodipodi:nodetypes="csscsc" /><path
   style="clip-rule:evenodd;fill:none;fill-opacity:1;fill-rule:evenodd;stroke:#4a3721;stroke-width:0.0734857;stroke-linecap:round;stroke-dasharray:none;stroke-opacity:1;image-rendering:optimizeQuality;shape-rendering:geometricPrecision;text-rendering:geometricPrecision"
   d="m 1.3050672,4.9748169 c 0.277726,-0.2100887 0.8245957,-0.086833 1.062557,0.2325554 0.1369612,0.1838283 0.097042,0.430668 0.035492,0.721344 C 2.3299257,6.2743605 1.8946297,6.3417242 1.6162533,6.2059937 1.50848,6.1522417 1.3665463,6.0809278 1.2534858,5.9723071 1.0353743,5.7627608 0.91966822,5.411923 1.3050672,4.9748169 Z"
   id="path1-2-0-3"
   sodipodi:nodetypes="csscsc" /><path
   style="clip-rule:evenodd;fill:none;fill-opacity:1;fill-rule:evenodd;stroke:#4a3721;stroke-width:0.0484401;stroke-linecap:round;stroke-dasharray:none;stroke-opacity:1;image-rendering:optimizeQuality;shape-rendering:geometricPrecision;text-rendering:geometricPrecision"
   d="M 1.4587815,5.1780465 C 1.6418523,5.0395608 2.0023365,5.1208082 2.1591952,5.3313418 2.249477,5.4525173 2.2231631,5.6152285 2.1825907,5.8068355 2.1343452,6.0346764 1.8474079,6.0790811 1.6639084,5.9896106 1.5928667,5.9541785 1.4993072,5.9071699 1.4247802,5.8355696 1.2810061,5.6974414 1.2047352,5.466177 1.4587815,5.1780465 Z"
   id="path1-2-0-3-0"
   sodipodi:nodetypes="csscsc" /><path
   style="clip-rule:evenodd;fill:none;fill-opacity:1;fill-rule:evenodd;stroke:#4a3721;stroke-width:0.0215393;stroke-linecap:round;stroke-dasharray:none;stroke-opacity:1;image-rendering:optimizeQuality;shape-rendering:geometricPrecision;text-rendering:geometricPrecision"
   d="M 1.6238821,5.3963302 C 1.7052861,5.3347512 1.8655785,5.3708782 1.935327,5.4644942 1.975472,5.5183762 1.963771,5.5907269 1.94573,5.6759266 1.924277,5.777238 1.796688,5.7969829 1.7150935,5.7571986 1.6835045,5.7414436 1.6419025,5.7205406 1.6087631,5.6887026 1.5448331,5.6272826 1.5109181,5.5244491 1.6238821,5.3963302 Z"
   id="path1-2-0-3-2"
   sodipodi:nodetypes="csscsc" /></g>
</svg>
