<?xml version="1.0" encoding="UTF-8" standalone="no"?>
<!-- Creator: CorelDRAW 2021.5 -->

<svg
   xml:space="preserve"
   width="3.525mm"
   height="3.2314mm"
   version="1.1"
   style="shape-rendering:geometricPrecision; text-rendering:geometricPrecision; image-rendering:optimizeQuality; fill-rule:evenodd; clip-rule:evenodd"
   viewBox="0 0 7.97 7.3"
   id="svg9"
   sodipodi:docname="wood.svg"
   inkscape:version="1.4 (e7c3feb100, 2024-10-09)"
   xmlns:inkscape="http://www.inkscape.org/namespaces/inkscape"
   xmlns:sodipodi="http://sodipodi.sourceforge.net/DTD/sodipodi-0.dtd"
   xmlns="http://www.w3.org/2000/svg"
   xmlns:svg="http://www.w3.org/2000/svg"><sodipodi:namedview
   id="namedview9"
   pagecolor="#ffffff"
   bordercolor="#000000"
   borderopacity="0.25"
   inkscape:showpageshadow="2"
   inkscape:pageopacity="0.0"
   inkscape:pagecheckerboard="0"
   inkscape:deskcolor="#d1d1d1"
   inkscape:document-units="mm"
   inkscape:zoom="22.627417"
   inkscape:cx="0.77339804"
   inkscape:cy="3.2040776"
   inkscape:window-width="2560"
   inkscape:window-height="1360"
   inkscape:window-x="0"
   inkscape:window-y="0"
   inkscape:window-maximized="1"
   inkscape:current-layer="Ebene_x0020_1" />
 <defs
   id="defs1">
  <style
   type="text/css"
   id="style1">
   <![CDATA[
    .fil2 {fill:#C79F75;fill-rule:nonzero}
    .fil0 {fill:#C7A57E;fill-rule:nonzero}
    .fil3 {fill:#C8B79F;fill-rule:nonzero}
    .fil1 {fill:#E69784;fill-rule:nonzero}
   ]]>
  </style>
 </defs>
 <g
   id="Ebene_x0020_1"
   inkscape:label="Ebene 1">
  <metadata
   id="CorelCorpID_0Corel-Layer" />
  
 <ellipse
   style="fill:#4a3721;fill-opacity:1;stroke:none;stroke-width:0.267361;stroke-dasharray:none;stroke-opacity:1"
   id="path17"
   cx="0.68191779"
   cy="0.96203959"
   rx="0.29526374"
   ry="0.45921522" /><path
   id="path13"
   style="fill:#4a3721;fill-opacity:1;stroke:#c7a57e;stroke-width:0.226099;stroke-dasharray:none;stroke-opacity:1"
   d="m 0.3445582,1.4320441 c 0,0 1.0285921,-0.73407654 0.42052074,-0.94276128 M 2.3386044,2.8356708 c 0,0 -1.63822385,-1.4813784 -1.9940462,-1.4036267 C -0.01126414,1.5097959 0.52246938,0.21393334 0.89015248,0.53789898 1.2578355,0.86186464 3.1446206,2.1193911 3.2929206,2.0048054" /><path
   id="path11-5"
   style="clip-rule:evenodd;fill:#4a3721;fill-opacity:1;fill-rule:evenodd;stroke:#c7a57e;stroke-width:0.226099;stroke-dasharray:none;stroke-opacity:1;image-rendering:optimizeQuality;shape-rendering:geometricPrecision;text-rendering:geometricPrecision"
   d="M 0.98536333,3.871295 2.2223883,2.8299448 3.6727123,1.7120715 4.5378994,0.8262342 5.1343052,0.38658191 M 3.2586029,6.4774632 4.6629377,5.3242661 5.479736,4.6258263 5.8353461,4.1410402 6.5944217,3.6800573 7.4626007,3.0030571 M 7.8633772,1.8724133 c 0,0.3270667 -0.088767,0.6334008 -0.2435233,0.8962249 -0.3074893,0.5222117 -0.8754965,0.8726517 -1.5253534,0.8726517 -0.9769235,0 -1.7688766,-0.7919531 -1.7688766,-1.7688766 0,-0.7590476 0.137196,-1.23482408 0.8086813,-1.48583139 0.1927423,-0.0720488 0.7423193,-0.28304529 0.9601953,-0.2830453 0.9769236,-6e-8 1.7688768,0.79195307 1.7688767,1.76887669 z M 3.6118428,5.427587 c 0,0.5295616 -0.2238492,1.0169719 -0.5976469,1.3354546 C 2.7111025,7.0212828 2.3048938,7.1639304 1.8754994,7.1639304 1.4610963,7.1639304 0.8558781,6.8072542 0.55737149,6.5649905 0.16511428,6.2466401 0.13915598,5.9721399 0.13915598,5.427587 c 0,-0.3697616 0.15523714,-0.8447175 0.35224044,-1.1263313 C 0.80531009,3.8525198 1.286305,3.6912436 1.8754994,3.6912436 c 0.4841528,0 0.8955861,0.2642497 1.2104986,0.5838826 0.3088313,0.3134604 0.5258448,0.6776576 0.5258448,1.1524608 z"
   sodipodi:nodetypes="cccccccccccssssssssssssssss" /><path
   style="fill:#4a3721;fill-opacity:1;stroke:#c7a57e;stroke-width:0.11305;stroke-dasharray:none;stroke-opacity:1"
   id="path18"
   sodipodi:type="arc"
   sodipodi:cx="1.8308234"
   sodipodi:cy="5.4365082"
   sodipodi:rx="1.1459824"
   sodipodi:ry="1.1459824"
   sodipodi:start="1.5988131"
   sodipodi:end="1.4502848"
   sodipodi:open="true"
   sodipodi:arc-type="arc"
   d="M 1.7987209,6.5820408 A 1.1459824,1.1459824 0 0 1 0.68488865,5.446954 1.1459824,1.1459824 0 0 1 1.7778436,4.2917511 1.1459824,1.1459824 0 0 1 2.9728246,5.3410675 1.1459824,1.1459824 0 0 1 1.9685935,6.5741791" /><path
   style="clip-rule:evenodd;fill:#4a3721;fill-opacity:1;fill-rule:evenodd;stroke:#c7a57e;stroke-width:0.0647721;stroke-dasharray:none;stroke-opacity:1;image-rendering:optimizeQuality;shape-rendering:geometricPrecision;text-rendering:geometricPrecision"
   id="path18-6"
   sodipodi:type="arc"
   sodipodi:cx="1.8855561"
   sodipodi:cy="5.4679208"
   sodipodi:rx="0.65659159"
   sodipodi:ry="0.65659159"
   sodipodi:start="4.721104"
   sodipodi:end="4.44315"
   sodipodi:open="true"
   sodipodi:arc-type="arc"
   d="M 1.8912782,4.8113541 A 0.65659159,0.65659159 0 0 1 2.5409355,5.428042 0.65659159,0.65659159 0 0 1 1.9708433,6.1189497 0.65659159,0.65659159 0 0 1 1.2420201,5.5982048 0.65659159,0.65659159 0 0 1 1.7109041,4.8349838" /><path
   style="clip-rule:evenodd;fill:#4a3721;fill-opacity:1;fill-rule:evenodd;stroke:#c7a57e;stroke-width:0.0330711;stroke-dasharray:none;stroke-opacity:1;image-rendering:optimizeQuality;shape-rendering:geometricPrecision;text-rendering:geometricPrecision"
   id="path18-9"
   sodipodi:type="arc"
   sodipodi:cx="1.8855561"
   sodipodi:cy="5.411118"
   sodipodi:rx="0.33523995"
   sodipodi:ry="0.28236419"
   sodipodi:start="0"
   sodipodi:end="5.7070727"
   sodipodi:open="true"
   sodipodi:arc-type="arc"
   d="M 2.220796,5.411118 A 0.33523995,0.28236419 0 0 1 1.9336733,5.6905586 0.33523995,0.28236419 0 0 1 1.5641288,5.4913346 0.33523995,0.28236419 0 0 1 1.7451695,5.1547046 0.33523995,0.28236419 0 0 1 2.1666839,5.257295" /><path
   style="fill:#4a3721;fill-opacity:1;stroke:#c7a57e;stroke-width:0.113049;stroke-dasharray:none;stroke-opacity:1"
   d="M 3.2586029,6.4774632 C 4.5608024,3.6783151 1.1757951,3.7109861 1.1757951,3.7109861 L 5.3240365,0.31596787 c 0,0 2.3404939,-0.82389359 2.5236731,1.31998593 C 7.97,3.0672076 7.1556488,3.2877776 7.1556488,3.2877776 Z"
   id="path19"
   sodipodi:nodetypes="cccscc" /><path
   style="fill:#4a3721;fill-opacity:1;stroke:#c7a57e;stroke-width:0.113049;stroke-dasharray:none;stroke-opacity:1"
   d="M 2.4434817,3.9320699 6.4231106,0.16446981"
   id="path20" /><path
   style="fill:#4a3721;fill-opacity:1;stroke:#c7a57e;stroke-width:0.113049;stroke-dasharray:none;stroke-opacity:1;stroke-linecap:round"
   d="M 3.2978183,4.519823 6.5301574,1.5170922"
   id="path21" /><path
   style="fill:#4a3721;fill-opacity:1;stroke:#c7a57e;stroke-width:0.113049;stroke-dasharray:none;stroke-opacity:1;stroke-linecap:round"
   d="M 7.8477099,1.6359538 4.0846531,4.9011414"
   id="path22" /><path
   style="fill:#4a3721;fill-opacity:1;stroke:#c7a57e;stroke-width:0.113049;stroke-linecap:round;stroke-dasharray:none;stroke-opacity:1"
   d="M 1.8754994,3.6912436 5.1025116,0.98833452"
   id="path23" /></g>
</svg>
