# Blender 4.3.2
# www.blender.org
mtllib foil tunnel tarp.mtl
o foil_tunnel_tarp
v -6.442985 -0.173869 11.985617
v 6.442985 -0.173869 11.985617
v -6.188551 2.408791 11.985617
v -4.887172 2.991454 11.985617
v -3.284204 3.268050 11.985617
v -1.649921 3.435809 11.985617
v 0.000000 3.492289 11.985617
v 1.649921 3.435809 11.985617
v 3.284204 3.268050 11.985617
v 4.887172 2.991454 11.985617
v 6.188551 2.408791 11.985617
v -6.188551 2.408789 -11.985617
v -4.835042 2.742253 -11.985617
v -3.249541 3.015835 -11.985617
v -1.632558 3.181818 -11.985617
v 0.000000 3.237704 -11.985617
v 1.632558 3.181818 -11.985617
v 3.249541 3.015835 -11.985617
v 4.835042 2.742253 -11.985617
v 6.188551 2.408789 -11.985617
v -6.442985 -0.173871 -11.985617
v 6.442985 -0.173871 -11.985617
v -6.442985 2.608147 -0.000000
v -6.442985 -0.173870 0.000000
v 6.442985 -0.173870 0.000000
v 6.442985 2.608147 -0.000000
v 4.887172 2.991453 -0.000000
v 3.284204 3.268049 -0.000000
v 1.649921 3.435808 -0.000000
v 0.000000 3.492288 -0.000000
v -1.649921 3.435808 -0.000000
v -3.284204 3.268049 -0.000000
v -4.887172 2.991453 -0.000000
v -6.442985 -0.173870 -5.992808
v -6.442985 2.608146 -5.992808
v -4.887172 2.991452 -5.992808
v -3.284204 3.268049 -5.992808
v -1.649921 3.435807 -5.992808
v 0.000000 3.492288 -5.992808
v 1.649921 3.435807 -5.992808
v 3.284204 3.268049 -5.992808
v 4.887172 2.991452 -5.992808
v 6.442985 2.608146 -5.992808
v 6.442985 -0.173870 -5.992808
v -6.442985 2.608147 5.992808
v -6.442985 -0.173870 5.992808
v 6.442985 -0.173870 5.992808
v 6.442985 2.608147 5.992808
v 4.887172 2.991453 5.992808
v 3.284204 3.268049 5.992807
v 1.649921 3.435808 5.992807
v 0.000000 3.492289 5.992807
v -1.649921 3.435808 5.992807
v -3.284204 3.268049 5.992807
v -4.887172 2.991453 5.992808
v -6.442985 2.608148 8.989212
v -6.442985 -0.173869 8.989212
v 6.442985 -0.173869 8.989212
v 6.442985 2.608148 8.989212
v 4.887172 2.991454 8.989212
v 3.284204 3.268050 8.989212
v 1.649921 3.435809 8.989212
v 0.000000 3.492289 8.989212
v -1.649921 3.435809 8.989212
v -3.284204 3.268050 8.989212
v -4.887172 2.991454 8.989212
v -6.442985 -0.173870 2.996404
v -6.442985 2.608147 2.996404
v -4.887172 2.991453 2.996404
v -3.284204 3.268049 2.996404
v -1.649921 3.435808 2.996404
v 0.000000 3.492288 2.996404
v 1.649921 3.435808 2.996404
v 3.284204 3.268049 2.996404
v 4.887172 2.991453 2.996404
v 6.442985 2.608147 2.996404
v 6.442985 -0.173870 2.996404
v -6.442985 2.608147 -2.996404
v -6.442985 -0.173870 -2.996404
v 6.442985 -0.173870 -2.996404
v 6.442985 2.608147 -2.996404
v 4.887172 2.991453 -2.996404
v 3.284204 3.268049 -2.996404
v 1.649921 3.435808 -2.996404
v 0.000000 3.492288 -2.996404
v -1.649921 3.435808 -2.996404
v -3.284204 3.268049 -2.996404
v -4.887172 2.991453 -2.996404
v -6.442985 -0.173871 -8.989212
v -6.442985 2.608146 -8.989212
v -4.887172 2.991452 -8.989212
v -3.284204 3.268048 -8.989212
v -1.649921 3.435807 -8.989212
v 0.000000 3.492287 -8.989212
v 1.649921 3.435807 -8.989212
v 3.284204 3.268048 -8.989212
v 4.887172 2.991452 -8.989212
v 6.442985 2.608146 -8.989212
v 6.442985 -0.173871 -8.989212
v -6.442985 2.441897 10.487414
v -6.442985 -0.173869 10.487414
v 6.442985 -0.173869 10.487414
v 6.442985 2.441897 10.487414
v 4.887172 2.825202 10.487414
v 3.284204 3.101799 10.487414
v 1.649921 3.269558 10.487414
v 0.000000 3.326037 10.487414
v -1.649921 3.269558 10.487414
v -3.284204 3.101799 10.487414
v -4.887172 2.825202 10.487414
v -6.442985 -0.173869 7.491010
v -6.442985 2.441896 7.491010
v -4.887172 2.825202 7.491010
v -3.284204 3.101799 7.491010
v -1.649921 3.269557 7.491010
v 0.000000 3.326036 7.491010
v 1.649921 3.269557 7.491010
v 3.284204 3.101799 7.491010
v 4.887172 2.825202 7.491010
v 6.442985 2.441896 7.491010
v 6.442985 -0.173869 7.491010
v -6.442985 2.441896 4.494606
v -6.442985 -0.173870 4.494606
v 6.442985 -0.173870 4.494606
v 6.442985 2.441896 4.494606
v 4.887172 2.825201 4.494606
v 3.284204 3.101798 4.494606
v 1.649921 3.269557 4.494606
v 0.000000 3.326036 4.494606
v -1.649921 3.269557 4.494606
v -3.284204 3.101798 4.494606
v -4.887172 2.825201 4.494606
v -6.442985 -0.173870 1.498202
v -6.442985 2.441896 1.498202
v -4.887172 2.825201 1.498202
v -3.284204 3.101798 1.498202
v -1.649921 3.269557 1.498202
v 0.000000 3.326036 1.498202
v 1.649921 3.269557 1.498202
v 3.284204 3.101798 1.498202
v 4.887172 2.825201 1.498202
v 6.442985 2.441896 1.498202
v 6.442985 -0.173870 1.498202
v -6.442985 2.441896 -1.498202
v -6.442985 -0.173870 -1.498202
v 6.442985 -0.173870 -1.498202
v 6.442985 2.441896 -1.498202
v 4.887172 2.825201 -1.498202
v 3.284204 3.101798 -1.498202
v 1.649921 3.269557 -1.498202
v 0.000000 3.326036 -1.498202
v -1.649921 3.269557 -1.498202
v -3.284204 3.101798 -1.498202
v -4.887172 2.825201 -1.498202
v -6.442985 -0.173870 -4.494606
v -6.442985 2.441896 -4.494606
v -4.887172 2.825201 -4.494606
v -3.284204 3.101798 -4.494606
v -1.649921 3.269557 -4.494606
v 0.000000 3.326036 -4.494606
v 1.649921 3.269557 -4.494606
v 3.284204 3.101798 -4.494606
v 4.887172 2.825201 -4.494606
v 6.442985 2.441896 -4.494606
v 6.442985 -0.173870 -4.494606
v -6.442985 2.441895 -7.491010
v -6.442985 -0.173871 -7.491010
v 6.442985 -0.173871 -7.491010
v 6.442985 2.441895 -7.491010
v 4.887172 2.825201 -7.491010
v 3.284204 3.101798 -7.491010
v 1.649921 3.269557 -7.491011
v 0.000000 3.326035 -7.491011
v -1.649921 3.269557 -7.491011
v -3.284204 3.101798 -7.491010
v -4.887172 2.825201 -7.491010
v -6.442985 -0.173871 -10.487414
v -6.442985 2.441895 -10.487414
v -4.887172 2.825200 -10.487414
v -3.284204 3.101797 -10.487414
v -1.649921 3.269556 -10.487414
v 0.000000 3.326035 -10.487414
v 1.649921 3.269556 -10.487414
v 3.284204 3.101797 -10.487414
v 4.887172 2.825200 -10.487414
v 6.442985 2.441895 -10.487414
v 6.442985 -0.173871 -10.487414
v -6.442985 2.608148 11.985617
v -4.835042 2.742255 11.985617
v -3.249541 3.015837 11.985617
v -1.632558 3.181820 11.985617
v 0.000000 3.237706 11.985617
v 1.632558 3.181820 11.985617
v 3.249541 3.015837 11.985617
v 4.835042 2.742255 11.985617
v 6.442985 2.608148 11.985617
v -6.442985 2.608146 -11.985617
v -4.887172 2.991452 -11.985617
v -3.284204 3.268048 -11.985617
v -1.649921 3.435807 -11.985617
v 0.000000 3.492287 -11.985617
v 1.649921 3.435807 -11.985617
v 3.284204 3.268048 -11.985617
v 4.887172 2.991452 -11.985617
v 6.442985 2.608146 -11.985617
v 6.188365 -0.173871 -11.985617
v -6.188548 -0.173871 -11.985617
v 6.187656 -0.173869 11.985617
v -6.185845 -0.173869 11.985617
vn -0.2378 0.9654 -0.1071
vn -0.2026 0.9733 -0.1080
vn -0.2053 0.9787 -0.0000
vn -0.2392 0.9710 -0.0000
vn -0.1347 0.9848 -0.1093
vn -0.1365 0.9906 -0.0000
vn -0.0676 0.9916 -0.1100
vn -0.0684 0.9977 -0.0000
vn -0.0000 0.9939 -0.1103
vn -0.0000 1.0000 -0.0000
vn 0.0676 0.9916 -0.1100
vn 0.0684 0.9977 -0.0000
vn 0.1350 0.9848 -0.1093
vn 0.1365 0.9906 -0.0000
vn 0.2027 0.9733 -0.1080
vn 0.2053 0.9787 -0.0000
vn 0.2378 0.9654 -0.1071
vn 0.2392 0.9710 -0.0000
vn 1.0000 -0.0000 -0.0000
vn -1.0000 -0.0000 -0.0000
vn 0.2378 0.9654 0.1071
vn 0.2026 0.9733 0.1080
vn 0.1347 0.9848 0.1093
vn 0.0676 0.9916 0.1100
vn -0.0000 0.9939 0.1103
vn -0.0676 0.9916 0.1100
vn -0.1350 0.9848 0.1093
vn -0.2027 0.9733 0.1080
vn -0.2378 0.9654 0.1071
vn -0.2027 0.9733 -0.1080
vn -0.1350 0.9848 -0.1093
vn 0.1362 0.9907 -0.0000
vn 0.2027 0.9733 0.1080
vn 0.1350 0.9848 0.1093
vn -0.1362 0.9907 -0.0000
vn 0.2031 0.9732 0.1080
vn -0.2031 0.9732 -0.1080
vn -0.2031 0.9732 0.1080
vn -0.0000 -0.0000 1.0000
vn -0.0000 -0.0000 -1.0000
vt 0.466678 0.018726
vt 0.529467 0.023780
vt 0.524773 0.083297
vt 0.460531 0.080312
vt 0.592478 0.027070
vt 0.589294 0.086087
vt 0.655702 0.028972
vt 0.654107 0.087830
vt 0.719001 0.029694
vt 0.719095 0.088505
vt 0.782298 0.028770
vt 0.784080 0.087623
vt 0.845515 0.026668
vt 0.848887 0.085674
vt 0.908515 0.023178
vt 0.913398 0.082679
vt 0.971288 0.017924
vt 0.977631 0.079490
vt 0.341733 0.028501
vt 0.341396 0.087153
vt 0.445274 0.088474
vt 0.452313 0.028005
vt 0.444218 0.088453
vt 0.340416 0.087459
vt 0.340536 0.028798
vt 0.450657 0.027959
vt 0.341224 0.978249
vt 0.341028 0.919590
vt 0.444965 0.918269
vt 0.451663 0.978744
vt 0.445187 0.918209
vt 0.341302 0.919202
vt 0.341480 0.977858
vt 0.452066 0.978697
vt 0.914731 0.921291
vt 0.978974 0.924276
vt 0.972826 0.985862
vt 0.910037 0.980807
vt 0.850211 0.918501
vt 0.847027 0.977517
vt 0.785397 0.916758
vt 0.783803 0.975616
vt 0.720410 0.916083
vt 0.720504 0.974894
vt 0.655425 0.916965
vt 0.657207 0.975817
vt 0.590618 0.918913
vt 0.593989 0.977920
vt 0.526107 0.921909
vt 0.530989 0.981410
vt 0.461874 0.925098
vt 0.468217 0.986663
vt 0.441737 0.562377
vt 0.338390 0.562915
vt 0.338296 0.503533
vt 0.448219 0.503361
vt 0.460934 0.502705
vt 0.523749 0.502605
vt 0.522085 0.562438
vt 0.456998 0.562785
vt 0.588365 0.502503
vt 0.587495 0.562116
vt 0.653861 0.502398
vt 0.653494 0.561857
vt 0.719752 0.502294
vt 0.719847 0.561691
vt 0.785643 0.502189
vt 0.786200 0.561646
vt 0.851140 0.502085
vt 0.852200 0.561695
vt 0.915756 0.501982
vt 0.917609 0.561809
vt 0.978571 0.501883
vt 0.982698 0.561949
vt 0.447638 0.503341
vt 0.337614 0.503170
vt 0.337733 0.562548
vt 0.441142 0.562338
vt 0.338297 0.444149
vt 0.441642 0.444359
vt 0.441067 0.444332
vt 0.337655 0.443794
vt 0.917419 0.442150
vt 0.982507 0.441803
vt 0.852010 0.442472
vt 0.786011 0.442730
vt 0.719658 0.442896
vt 0.653305 0.442941
vt 0.587305 0.442893
vt 0.521895 0.442779
vt 0.456807 0.442638
vt 0.448840 0.267167
vt 0.338515 0.265745
vt 0.338981 0.206186
vt 0.442869 0.207830
vt 0.442990 0.207831
vt 0.339193 0.205860
vt 0.338348 0.265409
vt 0.448523 0.267173
vt 0.915896 0.202672
vt 0.980563 0.201012
vt 0.977303 0.261430
vt 0.914732 0.262635
vt 0.850884 0.204299
vt 0.850350 0.263797
vt 0.785263 0.205488
vt 0.785064 0.264651
vt 0.719282 0.206025
vt 0.719375 0.265000
vt 0.653298 0.205698
vt 0.653686 0.264860
vt 0.587674 0.204718
vt 0.588397 0.264213
vt 0.522657 0.203297
vt 0.524012 0.263256
vt 0.457985 0.201842
vt 0.461437 0.262250
vt 0.441898 0.326256
vt 0.338362 0.325275
vt 0.522002 0.323094
vt 0.457030 0.322405
vt 0.587298 0.323721
vt 0.653201 0.324138
vt 0.719469 0.324240
vt 0.785737 0.323927
vt 0.851638 0.323301
vt 0.916932 0.322466
vt 0.981902 0.321571
vt 0.337894 0.324933
vt 0.441445 0.326242
vt 0.449220 0.739553
vt 0.338887 0.741317
vt 0.338641 0.681787
vt 0.442182 0.680478
vt 0.441618 0.680429
vt 0.338066 0.681410
vt 0.338516 0.740935
vt 0.448696 0.739512
vt 0.917503 0.681494
vt 0.982475 0.682183
vt 0.978068 0.742338
vt 0.915492 0.741332
vt 0.852206 0.680866
vt 0.851107 0.740375
vt 0.786304 0.680450
vt 0.785819 0.739728
vt 0.720035 0.680348
vt 0.720130 0.739588
vt 0.653767 0.680660
vt 0.654441 0.739937
vt 0.587867 0.681287
vt 0.589155 0.740791
vt 0.522573 0.682121
vt 0.524773 0.741953
vt 0.457603 0.683017
vt 0.462201 0.743158
vt 0.443343 0.798901
vt 0.339448 0.800872
vt 0.523608 0.801915
vt 0.458941 0.803576
vt 0.588620 0.800288
vt 0.654242 0.799100
vt 0.720223 0.798563
vt 0.786206 0.798890
vt 0.851831 0.799870
vt 0.916848 0.801290
vt 0.981520 0.802745
vt 0.339315 0.800488
vt 0.443116 0.798844
vt 0.450233 0.148430
vt 0.339730 0.146622
vt 0.340292 0.146304
vt 0.450778 0.148453
vt 0.975405 0.140557
vt 0.913184 0.142792
vt 0.849159 0.144979
vt 0.784332 0.146495
vt 0.719188 0.147049
vt 0.654042 0.146702
vt 0.589211 0.145392
vt 0.525179 0.143409
vt 0.462951 0.141371
vt 0.448288 0.385355
vt 0.338264 0.384738
vt 0.337652 0.384388
vt 0.447710 0.385347
vt 0.978194 0.381748
vt 0.915432 0.382335
vt 0.850868 0.382884
vt 0.785415 0.383303
vt 0.719563 0.383510
vt 0.653711 0.383512
vt 0.588258 0.383302
vt 0.523692 0.382957
vt 0.460928 0.382570
vt 0.448478 0.621367
vt 0.338449 0.622326
vt 0.337790 0.621953
vt 0.447850 0.621336
vt 0.978576 0.622017
vt 0.915812 0.621630
vt 0.851247 0.621286
vt 0.785793 0.621076
vt 0.719941 0.621077
vt 0.654089 0.621285
vt 0.588637 0.621703
vt 0.524073 0.622253
vt 0.461310 0.622840
vt 0.450816 0.858285
vt 0.340279 0.860434
vt 0.340324 0.860046
vt 0.450818 0.858238
vt 0.976554 0.863217
vt 0.914325 0.861179
vt 0.850294 0.859195
vt 0.785463 0.857885
vt 0.720317 0.857539
vt 0.655173 0.858093
vt 0.590346 0.859608
vt 0.526321 0.861796
vt 0.464099 0.864031
vt 0.201349 0.479182
vt 0.202448 0.469040
vt 0.314771 0.478270
vt 0.305214 0.487643
vt 0.309123 0.971961
vt 0.313406 0.917474
vt 0.323462 0.918568
vt 0.318831 0.981179
vt 0.316341 0.855122
vt 0.326334 0.855748
vt 0.317823 0.792471
vt 0.327821 0.792724
vt 0.318077 0.729714
vt 0.328131 0.729633
vt 0.316782 0.666972
vt 0.326802 0.666555
vt 0.314264 0.604357
vt 0.324298 0.603563
vt 0.310308 0.542072
vt 0.320413 0.540797
vt 0.201202 0.479508
vt 0.305058 0.488070
vt 0.314622 0.478703
vt 0.202305 0.469395
vt 0.312951 0.917906
vt 0.308631 0.972389
vt 0.318332 0.981614
vt 0.323007 0.919007
vt 0.315930 0.855555
vt 0.325922 0.856188
vt 0.317456 0.792906
vt 0.327453 0.793166
vt 0.317753 0.730148
vt 0.327807 0.730074
vt 0.316502 0.667405
vt 0.326522 0.666995
vt 0.314028 0.604790
vt 0.324062 0.604002
vt 0.310114 0.542502
vt 0.320220 0.541234
vt 0.205400 0.982025
vt 0.206672 0.992220
vt 0.204913 0.982489
vt 0.206165 0.992578
s 1
f 188/1/1 4/2/2 110/3/3 100/4/4
f 4/2/2 5/5/5 109/6/6 110/3/3
f 5/5/5 6/7/7 108/8/8 109/6/6
f 6/7/7 7/9/9 107/10/10 108/8/8
f 7/9/9 8/11/11 106/12/12 107/10/10
f 8/11/11 9/13/13 105/14/14 106/12/12
f 9/13/13 10/15/15 104/16/16 105/14/14
f 10/15/15 196/17/17 103/18/18 104/16/16
f 2/19/19 102/20/19 103/21/19 196/22/19
f 100/23/20 101/24/20 1/25/20 188/26/20
f 21/27/20 177/28/20 178/29/20 197/30/20
f 186/31/19 187/32/19 22/33/19 205/34/19
f 185/35/16 186/36/18 205/37/21 204/38/22
f 184/39/14 185/35/16 204/38/22 203/40/23
f 183/41/12 184/39/14 203/40/23 202/42/24
f 182/43/10 183/41/12 202/42/24 201/44/25
f 181/45/8 182/43/10 201/44/25 200/46/26
f 180/47/6 181/45/8 200/46/26 199/48/27
f 179/49/3 180/47/6 199/48/27 198/50/28
f 178/51/4 179/49/3 198/50/28 197/52/29
f 144/53/20 145/54/20 24/55/20 23/56/20
f 23/57/1 33/58/30 154/59/3 144/60/4
f 33/58/30 32/61/31 153/62/6 154/59/3
f 32/61/31 31/63/7 152/64/8 153/62/6
f 31/63/7 30/65/9 151/66/10 152/64/8
f 30/65/9 29/67/11 150/68/12 151/66/10
f 29/67/11 28/69/13 149/70/32 150/68/12
f 28/69/13 27/71/15 148/72/16 149/70/32
f 27/71/15 26/73/17 147/74/18 148/72/16
f 26/75/19 25/76/19 146/77/19 147/78/19
f 23/56/20 24/55/20 133/79/20 134/80/20
f 142/81/19 143/82/19 25/76/19 26/75/19
f 141/83/16 142/84/18 26/73/21 27/71/33
f 140/85/14 141/83/16 27/71/33 28/69/34
f 139/86/12 140/85/14 28/69/34 29/67/24
f 138/87/10 139/86/12 29/67/24 30/65/25
f 137/88/8 138/87/10 30/65/25 31/63/26
f 136/89/35 137/88/8 31/63/26 32/61/27
f 135/90/3 136/89/35 32/61/27 33/58/28
f 134/91/4 135/90/3 33/58/28 23/57/29
f 45/92/20 46/93/20 111/94/20 112/95/20
f 120/96/19 121/97/19 47/98/19 48/99/19
f 119/100/16 120/101/18 48/102/21 49/103/36
f 118/104/14 119/100/16 49/103/36 50/105/23
f 117/106/12 118/104/14 50/105/23 51/107/24
f 116/108/10 117/106/12 51/107/24 52/109/25
f 115/110/8 116/108/10 52/109/25 53/111/26
f 114/112/6 115/110/8 53/111/26 54/113/27
f 113/114/3 114/112/6 54/113/27 55/115/28
f 112/116/4 113/114/3 55/115/28 45/117/29
f 122/118/20 123/119/20 46/93/20 45/92/20
f 45/117/1 55/115/37 132/120/3 122/121/4
f 55/115/37 54/113/31 131/122/6 132/120/3
f 54/113/31 53/111/7 130/123/8 131/122/6
f 53/111/7 52/109/9 129/124/10 130/123/8
f 52/109/9 51/107/11 128/125/12 129/124/10
f 51/107/11 50/105/13 127/126/32 128/125/12
f 50/105/13 49/103/15 126/127/16 127/126/32
f 49/103/15 48/102/17 125/128/18 126/127/16
f 48/99/19 47/98/19 124/129/19 125/130/19
f 35/131/20 34/132/20 155/133/20 156/134/20
f 164/135/19 165/136/19 44/137/19 43/138/19
f 163/139/16 164/140/18 43/141/21 42/142/36
f 162/143/14 163/139/16 42/142/36 41/144/34
f 161/145/12 162/143/14 41/144/34 40/146/24
f 160/147/10 161/145/12 40/146/24 39/148/25
f 159/149/8 160/147/10 39/148/25 38/150/26
f 158/151/35 159/149/8 38/150/26 37/152/27
f 157/153/3 158/151/35 37/152/27 36/154/28
f 156/155/4 157/153/3 36/154/28 35/156/29
f 166/157/20 167/158/20 34/132/20 35/131/20
f 35/156/1 36/154/30 176/159/3 166/160/4
f 36/154/30 37/152/5 175/161/6 176/159/3
f 37/152/5 38/150/7 174/162/8 175/161/6
f 38/150/7 39/148/9 173/163/10 174/162/8
f 39/148/9 40/146/11 172/164/12 173/163/10
f 40/146/11 41/144/13 171/165/14 172/164/12
f 41/144/13 42/142/15 170/166/16 171/165/14
f 42/142/15 43/141/17 169/167/18 170/166/16
f 43/138/19 44/137/19 168/168/19 169/169/19
f 56/170/20 57/171/20 101/24/20 100/23/20
f 103/21/19 102/20/19 58/172/19 59/173/19
f 104/16/16 103/18/18 59/174/21 60/175/22
f 105/14/14 104/16/16 60/175/22 61/176/23
f 106/12/12 105/14/14 61/176/23 62/177/24
f 107/10/10 106/12/12 62/177/24 63/178/25
f 108/8/8 107/10/10 63/178/25 64/179/26
f 109/6/6 108/8/8 64/179/26 65/180/27
f 110/3/3 109/6/6 65/180/27 66/181/38
f 100/4/4 110/3/3 66/181/38 56/182/29
f 112/95/20 111/94/20 57/171/20 56/170/20
f 56/182/1 66/181/30 113/114/3 112/116/4
f 66/181/30 65/180/31 114/112/6 113/114/3
f 65/180/31 64/179/7 115/110/8 114/112/6
f 64/179/7 63/178/9 116/108/10 115/110/8
f 63/178/9 62/177/11 117/106/12 116/108/10
f 62/177/11 61/176/13 118/104/14 117/106/12
f 61/176/13 60/175/15 119/100/16 118/104/14
f 60/175/15 59/174/17 120/101/18 119/100/16
f 59/173/19 58/172/19 121/97/19 120/96/19
f 68/183/20 67/184/20 123/119/20 122/118/20
f 125/130/19 124/129/19 77/185/19 76/186/19
f 126/127/16 125/128/18 76/187/21 75/188/33
f 127/126/32 126/127/16 75/188/33 74/189/34
f 128/125/12 127/126/32 74/189/34 73/190/24
f 129/124/10 128/125/12 73/190/24 72/191/25
f 130/123/8 129/124/10 72/191/25 71/192/26
f 131/122/6 130/123/8 71/192/26 70/193/27
f 132/120/3 131/122/6 70/193/27 69/194/28
f 122/121/4 132/120/3 69/194/28 68/195/29
f 134/80/20 133/79/20 67/184/20 68/183/20
f 68/195/1 69/194/30 135/90/3 134/91/4
f 69/194/30 70/193/31 136/89/35 135/90/3
f 70/193/31 71/192/7 137/88/8 136/89/35
f 71/192/7 72/191/9 138/87/10 137/88/8
f 72/191/9 73/190/11 139/86/12 138/87/10
f 73/190/11 74/189/13 140/85/14 139/86/12
f 74/189/13 75/188/15 141/83/16 140/85/14
f 75/188/15 76/187/17 142/84/18 141/83/16
f 76/186/19 77/185/19 143/82/19 142/81/19
f 78/196/20 79/197/20 145/54/20 144/53/20
f 147/78/19 146/77/19 80/198/19 81/199/19
f 148/72/16 147/74/18 81/200/21 82/201/33
f 149/70/32 148/72/16 82/201/33 83/202/34
f 150/68/12 149/70/32 83/202/34 84/203/24
f 151/66/10 150/68/12 84/203/24 85/204/25
f 152/64/8 151/66/10 85/204/25 86/205/26
f 153/62/6 152/64/8 86/205/26 87/206/27
f 154/59/3 153/62/6 87/206/27 88/207/28
f 144/60/4 154/59/3 88/207/28 78/208/29
f 156/134/20 155/133/20 79/197/20 78/196/20
f 78/208/1 88/207/30 157/153/3 156/155/4
f 88/207/30 87/206/31 158/151/35 157/153/3
f 87/206/31 86/205/7 159/149/8 158/151/35
f 86/205/7 85/204/9 160/147/10 159/149/8
f 85/204/9 84/203/11 161/145/12 160/147/10
f 84/203/11 83/202/13 162/143/14 161/145/12
f 83/202/13 82/201/15 163/139/16 162/143/14
f 82/201/15 81/200/17 164/140/18 163/139/16
f 81/199/19 80/198/19 165/136/19 164/135/19
f 90/209/20 89/210/20 167/158/20 166/157/20
f 169/169/19 168/168/19 99/211/19 98/212/19
f 170/166/16 169/167/18 98/213/21 97/214/33
f 171/165/14 170/166/16 97/214/33 96/215/34
f 172/164/12 171/165/14 96/215/34 95/216/24
f 173/163/10 172/164/12 95/216/24 94/217/25
f 174/162/8 173/163/10 94/217/25 93/218/26
f 175/161/6 174/162/8 93/218/26 92/219/27
f 176/159/3 175/161/6 92/219/27 91/220/28
f 166/160/4 176/159/3 91/220/28 90/221/29
f 178/29/20 177/28/20 89/210/20 90/209/20
f 90/221/1 91/220/2 179/49/3 178/51/4
f 91/220/2 92/219/5 180/47/6 179/49/3
f 92/219/5 93/218/7 181/45/8 180/47/6
f 93/218/7 94/217/9 182/43/10 181/45/8
f 94/217/9 95/216/11 183/41/12 182/43/10
f 95/216/11 96/215/13 184/39/14 183/41/12
f 96/215/13 97/214/15 185/35/16 184/39/14
f 97/214/15 98/213/17 186/36/18 185/35/16
f 98/212/19 99/211/19 187/32/19 186/31/19
f 208/222/39 2/223/39 196/224/39 11/225/39
f 3/226/39 189/227/39 4/228/39 188/229/39
f 189/227/39 190/230/39 5/231/39 4/228/39
f 190/230/39 191/232/39 6/233/39 5/231/39
f 191/232/39 192/234/39 7/235/39 6/233/39
f 192/234/39 193/236/39 8/237/39 7/235/39
f 193/236/39 194/238/39 9/239/39 8/237/39
f 194/238/39 195/240/39 10/241/39 9/239/39
f 195/240/39 11/225/39 196/224/39 10/241/39
f 206/242/40 20/243/40 205/244/40 22/245/40
f 13/246/40 12/247/40 197/248/40 198/249/40
f 14/250/40 13/246/40 198/249/40 199/251/40
f 15/252/40 14/250/40 199/251/40 200/253/40
f 16/254/40 15/252/40 200/253/40 201/255/40
f 17/256/40 16/254/40 201/255/40 202/257/40
f 18/258/40 17/256/40 202/257/40 203/259/40
f 19/260/40 18/258/40 203/259/40 204/261/40
f 20/243/40 19/260/40 204/261/40 205/244/40
f 209/262/39 3/226/39 188/229/39 1/263/39
f 12/247/40 207/264/40 21/265/40 197/248/40
