<?xml version="1.0" encoding="UTF-8" standalone="no"?>
<svg
   xmlns:dc="http://purl.org/dc/elements/1.1/"
   xmlns:cc="http://creativecommons.org/ns#"
   xmlns:rdf="http://www.w3.org/1999/02/22-rdf-syntax-ns#"
   xmlns:svg="http://www.w3.org/2000/svg"
   xmlns="http://www.w3.org/2000/svg"
   xmlns:sodipodi="http://sodipodi.sourceforge.net/DTD/sodipodi-0.dtd"
   xmlns:inkscape="http://www.inkscape.org/namespaces/inkscape"
   id="emoji"
   viewBox="0 0 72 72"
   version="1.1"
   sodipodi:docname="fullscreen.svg"
   inkscape:version="1.0.1 (3bc2e813f5, 2020-09-07)">
  <metadata
     id="metadata15">
    <rdf:RDF>
      <cc:Work
         rdf:about="">
        <dc:format>image/svg+xml</dc:format>
        <dc:type
           rdf:resource="http://purl.org/dc/dcmitype/StillImage" />
        <dc:title></dc:title>
      </cc:Work>
    </rdf:RDF>
  </metadata>
  <defs
     id="defs13" />
  <sodipodi:namedview
     pagecolor="#ffffff"
     bordercolor="#666666"
     borderopacity="1"
     objecttolerance="10"
     gridtolerance="10"
     guidetolerance="10"
     inkscape:pageopacity="0"
     inkscape:pageshadow="2"
     inkscape:window-width="3200"
     inkscape:window-height="1721"
     id="namedview11"
     showgrid="false"
     inkscape:zoom="5.2247958"
     inkscape:cx="14.906805"
     inkscape:cy="108.12977"
     inkscape:window-x="-9"
     inkscape:window-y="-9"
     inkscape:window-maximized="1"
     inkscape:current-layer="emoji" />
  <g
     id="hair"
     transform="matrix(0.63296553,0,0,0.63296553,13.260351,13.241857)" />
  <g
     id="skin"
     transform="matrix(0.63296553,0,0,0.63296553,13.260351,13.241857)" />
  <g
     id="skin-shadow"
     transform="matrix(0.63296553,0,0,0.63296553,13.260351,13.241857)" />
  <g
     id="g862"
     transform="matrix(0.63296553,0,0,0.63296553,28.984204,28.414791)">
    <g
       id="color-5">
      <polygon
         id="_x2198__xFE0F__1_"
         fill="#3f3f3f"
         stroke="none"
         stroke-linecap="round"
         stroke-linejoin="round"
         stroke-miterlimit="10"
         stroke-width="2"
         points="48.4998,53.0004 12.6073,17.1079 16.5399,13.1753 52.4325,49.0678 51.9078,34.9079 57.4658,34.702 58.3629,58.9309 34.134,58.0338 34.3399,52.4758 " />
    </g>
    <g
       id="hair-8" />
    <g
       id="skin-2" />
    <g
       id="skin-shadow-6" />
    <g
       id="line-3">
      <polygon
         id="polygon845"
         fill="none"
         stroke="#000000"
         stroke-linecap="round"
         stroke-linejoin="round"
         stroke-miterlimit="10"
         stroke-width="2"
         points="48.4998,53.0004 12.6073,17.1079 16.5399,13.1753 52.4325,49.0678 51.9078,34.9079 57.4658,34.702 58.3629,58.9309 34.134,58.0338 34.3399,52.4758 " />
    </g>
  </g>
  <g
     id="g934"
     transform="matrix(-0.63296553,0,0,-0.63296553,41.691526,42.415347)">
    <g
       id="g922">
      <polygon
         id="polygon920"
         fill="#3f3f3f"
         stroke="none"
         stroke-linecap="round"
         stroke-linejoin="round"
         stroke-miterlimit="10"
         stroke-width="2"
         points="52.4325,49.0678 51.9078,34.9079 57.4658,34.702 58.3629,58.9309 34.134,58.0338 34.3399,52.4758 48.4998,53.0004 12.6073,17.1079 16.5399,13.1753 " />
    </g>
    <g
       id="g924" />
    <g
       id="g926" />
    <g
       id="g928" />
    <g
       id="g932">
      <polygon
         id="polygon930"
         fill="none"
         stroke="#000000"
         stroke-linecap="round"
         stroke-linejoin="round"
         stroke-miterlimit="10"
         stroke-width="2"
         points="52.4325,49.0678 51.9078,34.9079 57.4658,34.702 58.3629,58.9309 34.134,58.0338 34.3399,52.4758 48.4998,53.0004 12.6073,17.1079 16.5399,13.1753 " />
    </g>
  </g>
</svg>
