# This file uses centimeters as units for non-parametric coordinates.

mtllib zaun var5.mtl
v 0.000000 0.313145 -0.161492
v 0.000000 0.313145 -2.857582
v -0.000000 2.015819 -0.161492
v -0.000000 2.015819 -2.857582
vt 0.744487 0.012498
vt 0.981449 0.012498
vt 0.744487 0.162147
vt 0.981449 0.162147
vn 1.000000 0.000000 0.000000
vn 1.000000 0.000000 0.000000
vn 1.000000 0.000000 0.000000
vn 1.000000 0.000000 0.000000
s off
usemtl aiStandardSurface13SG
f 1/1/1 2/2/2 4/4/3 3/3/4
v 0.037890 0.227865 0.022681
v 0.037890 0.227865 -0.053099
v 0.037890 2.113145 0.022681
v 0.037890 2.113145 -0.053099
v -0.037890 2.113145 0.022681
v -0.037890 2.113145 -0.053099
v -0.037890 0.227865 0.022681
v -0.037890 0.227865 -0.053099
v 0.012040 0.439441 0.086407
v 0.012040 0.439441 0.022681
v 0.012040 0.463521 0.086407
v 0.012040 0.463521 0.022681
v -0.012040 0.463521 0.086407
v -0.012040 0.463521 0.022681
v -0.012040 0.439441 0.086407
v -0.012040 0.439441 0.022681
v 0.012040 1.905656 0.086407
v 0.012040 1.905656 0.022681
v 0.012040 1.929736 0.086407
v 0.012040 1.929736 0.022681
v -0.012040 1.929736 0.086407
v -0.012040 1.929736 0.022681
v -0.012040 1.905656 0.086407
v -0.012040 1.905656 0.022681
v 0.012040 1.905656 -0.053099
v 0.012040 1.905656 -0.105479
v 0.012040 1.929736 -0.053099
v 0.012040 1.929736 -0.105479
v -0.012040 1.929736 -0.053099
v -0.012040 1.929736 -0.105479
v -0.012040 1.905656 -0.053099
v -0.012040 1.905656 -0.105479
v 0.012040 0.439441 -0.053099
v 0.012040 0.439441 -0.105479
v 0.012040 0.463521 -0.053099
v 0.012040 0.463521 -0.105479
v -0.012040 0.463521 -0.053099
v -0.012040 0.463521 -0.105479
v -0.012040 0.439441 -0.053099
v -0.012040 0.439441 -0.105479
v 0.026936 0.268590 -0.105480
v 0.026936 0.268590 -2.913594
v 0.026936 2.060373 -0.105479
v 0.026936 2.060373 -2.913593
v -0.026936 2.060373 -0.105479
v -0.026936 2.060373 -2.913593
v -0.026936 0.268590 -0.105480
v -0.026936 0.268590 -2.913594
v 0.026936 2.015819 -0.161491
v 0.026936 2.015819 -2.857581
v -0.026936 2.015819 -2.857581
v -0.026936 2.015819 -0.161491
v -0.026936 0.313145 -0.161492
v -0.026936 0.313145 -2.857582
v 0.026936 0.313145 -2.857582
v 0.026936 0.313145 -0.161492
vt 0.727337 0.709701
vt 0.727324 0.703041
vt 0.893022 0.702729
vt 0.899657 0.689396
vt 0.893009 0.696069
vt 0.892997 0.689408
vt 0.727312 0.696380
vt 0.727299 0.689720
vt 0.881822 0.729701
vt 0.717542 0.788931
vt 0.954507 0.771630
vt 0.732115 0.749016
vt 0.882072 0.729701
vt 0.717501 0.788931
vt 0.684366 0.771393
vt 0.688970 0.771393
vt 0.688970 0.773510
vt 0.684366 0.773510
vt 0.688970 0.775662
vt 0.684366 0.775662
vt 0.688970 0.777778
vt 0.684366 0.777778
vt 0.688970 0.779895
vt 0.684366 0.779895
vt 0.684394 0.771401
vt 0.688999 0.771401
vt 0.688999 0.773518
vt 0.684394 0.773518
vt 0.688999 0.775653
vt 0.684394 0.775653
vt 0.688999 0.777770
vt 0.684394 0.777770
vt 0.688999 0.779887
vt 0.684394 0.779887
vt 0.698147 0.771756
vt 0.702747 0.771756
vt 0.702747 0.773871
vt 0.698147 0.773871
vt 0.702747 0.775986
vt 0.698147 0.775986
vt 0.702747 0.778101
vt 0.698147 0.778101
vt 0.702747 0.780216
vt 0.698147 0.780216
vt 0.698147 0.771756
vt 0.702747 0.771756
vt 0.702747 0.773871
vt 0.698147 0.773871
vt 0.702747 0.775986
vt 0.698147 0.775986
vt 0.702747 0.778101
vt 0.698147 0.778101
vt 0.702747 0.780216
vt 0.698147 0.780216
vt 0.954564 0.776364
vt 0.959428 0.780280
vt 0.885812 0.739358
vt 0.882072 0.734435
vt 0.728331 0.739358
vt 0.885813 0.739358
vt 0.881822 0.734435
vt 0.954507 0.776365
vt 0.959428 0.785015
vt 0.885813 0.744093
vt 0.717546 0.771630
vt 0.732423 0.729701
vt 0.712621 0.785015
vt 0.728331 0.744093
vt 0.732172 0.729701
vt 0.717603 0.771630
vt 0.712621 0.780280
vt 0.885812 0.744093
vt 0.728331 0.744093
vt 0.717546 0.776365
vt 0.881953 0.749016
vt 0.712621 0.780280
vt 0.712621 0.785015
vt 0.732172 0.734435
vt 0.954462 0.788931
vt 0.728331 0.739358
vt 0.959428 0.785015
vt 0.717603 0.776364
vt 0.881764 0.749016
vt 0.732423 0.734435
vt 0.954503 0.788931
vt 0.959428 0.780280
vt 0.732304 0.749016
vt 0.954564 0.771630
vt 0.893047 0.716049
vt 0.899670 0.696056
vt 0.893035 0.709389
vt 0.727349 0.716361
vt 0.682330 0.773518
vt 0.682330 0.771401
vt 0.682358 0.773510
vt 0.682358 0.771393
vn 1.000000 0.000000 0.000000
vn 1.000000 0.000000 0.000000
vn 1.000000 0.000000 0.000000
vn 1.000000 0.000000 0.000000
vn 0.000000 1.000000 0.000000
vn 0.000000 1.000000 0.000000
vn 0.000000 1.000000 0.000000
vn 0.000000 1.000000 0.000000
vn -1.000000 0.000000 -0.000000
vn -1.000000 0.000000 -0.000000
vn -1.000000 0.000000 -0.000000
vn -1.000000 0.000000 -0.000000
vn 0.000000 0.000000 -1.000000
vn 0.000000 0.000000 -1.000000
vn 0.000000 0.000000 -1.000000
vn 0.000000 0.000000 -1.000000
vn -0.000000 -0.000000 1.000000
vn -0.000000 -0.000000 1.000000
vn -0.000000 -0.000000 1.000000
vn -0.000000 -0.000000 1.000000
vn 1.000000 0.000000 0.000000
vn 1.000000 0.000000 0.000000
vn 1.000000 0.000000 0.000000
vn 1.000000 0.000000 0.000000
vn 0.000000 1.000000 0.000000
vn 0.000000 1.000000 0.000000
vn 0.000000 1.000000 0.000000
vn 0.000000 1.000000 0.000000
vn -1.000000 0.000000 -0.000000
vn -1.000000 0.000000 -0.000000
vn -1.000000 0.000000 -0.000000
vn -1.000000 0.000000 -0.000000
vn 0.000000 -1.000000 0.000000
vn 0.000000 -1.000000 0.000000
vn 0.000000 -1.000000 0.000000
vn 0.000000 -1.000000 0.000000
vn -0.000000 0.000000 1.000000
vn -0.000000 0.000000 1.000000
vn -0.000000 0.000000 1.000000
vn -0.000000 0.000000 1.000000
vn 1.000000 0.000000 0.000000
vn 1.000000 0.000000 0.000000
vn 1.000000 0.000000 0.000000
vn 1.000000 0.000000 0.000000
vn 0.000000 1.000000 0.000000
vn 0.000000 1.000000 0.000000
vn 0.000000 1.000000 0.000000
vn 0.000000 1.000000 0.000000
vn -1.000000 0.000000 -0.000000
vn -1.000000 0.000000 -0.000000
vn -1.000000 0.000000 -0.000000
vn -1.000000 0.000000 -0.000000
vn 0.000000 -1.000000 0.000000
vn 0.000000 -1.000000 0.000000
vn 0.000000 -1.000000 0.000000
vn 0.000000 -1.000000 0.000000
vn -0.000000 0.000000 1.000000
vn -0.000000 0.000000 1.000000
vn -0.000000 0.000000 1.000000
vn -0.000000 0.000000 1.000000
vn 1.000000 0.000000 0.000000
vn 1.000000 0.000000 0.000000
vn 1.000000 0.000000 0.000000
vn 1.000000 0.000000 0.000000
vn 0.000000 1.000000 0.000000
vn 0.000000 1.000000 0.000000
vn 0.000000 1.000000 0.000000
vn 0.000000 1.000000 0.000000
vn -1.000000 0.000000 -0.000000
vn -1.000000 0.000000 -0.000000
vn -1.000000 0.000000 -0.000000
vn -1.000000 0.000000 -0.000000
vn 0.000000 -1.000000 0.000000
vn 0.000000 -1.000000 0.000000
vn 0.000000 -1.000000 0.000000
vn 0.000000 -1.000000 0.000000
vn 1.000000 0.000000 0.000000
vn 1.000000 0.000000 0.000000
vn 1.000000 0.000000 0.000000
vn 1.000000 0.000000 0.000000
vn 0.000000 1.000000 0.000000
vn 0.000000 1.000000 0.000000
vn 0.000000 1.000000 0.000000
vn 0.000000 1.000000 0.000000
vn -1.000000 0.000000 -0.000000
vn -1.000000 0.000000 -0.000000
vn -1.000000 0.000000 -0.000000
vn -1.000000 0.000000 -0.000000
vn 0.000000 -1.000000 0.000000
vn 0.000000 -1.000000 0.000000
vn 0.000000 -1.000000 0.000000
vn 0.000000 -1.000000 0.000000
vn 1.000000 0.000000 0.000000
vn 1.000000 0.000000 0.000000
vn 1.000000 0.000000 -0.000000
vn 1.000000 0.000000 -0.000000
vn 1.000000 0.000000 -0.000000
vn 1.000000 0.000000 0.000000
vn 1.000000 0.000000 0.000000
vn 1.000000 0.000000 -0.000000
vn 0.000000 1.000000 0.000000
vn 0.000000 1.000000 0.000000
vn 0.000000 1.000000 0.000000
vn 0.000000 1.000000 0.000000
vn -1.000000 0.000000 0.000000
vn -1.000000 0.000000 0.000000
vn -1.000000 0.000000 -0.000000
vn -1.000000 0.000000 -0.000000
vn -1.000000 0.000000 -0.000000
vn -1.000000 0.000000 0.000000
vn -1.000000 0.000000 0.000000
vn -1.000000 0.000000 -0.000000
vn 0.000000 -1.000000 0.000000
vn 0.000000 -1.000000 0.000000
vn 0.000000 -1.000000 0.000000
vn 0.000000 -1.000000 0.000000
vn -0.000000 -0.000001 1.000000
vn -0.000000 -0.000001 1.000000
vn -0.000000 -0.000001 1.000000
vn -0.000000 -0.000001 1.000000
vn 0.000000 0.000001 -1.000000
vn 0.000000 0.000001 -1.000000
vn 0.000000 0.000001 -1.000000
vn 0.000000 0.000001 -1.000000
vn 0.000000 0.000001 -1.000000
vn 0.000000 0.000001 -1.000000
vn 0.000000 0.000001 -1.000000
vn 0.000000 0.000001 -1.000000
vn 0.000000 1.000000 0.000000
vn 0.000000 1.000000 0.000000
vn 0.000000 1.000000 0.000000
vn 0.000000 1.000000 0.000000
vn -0.000000 -0.000001 1.000000
vn -0.000000 -0.000001 1.000000
vn -0.000000 -0.000001 1.000000
vn -0.000000 -0.000001 1.000000
vn 0.000000 -1.000000 0.000000
vn 0.000000 -1.000000 0.000000
vn 0.000000 -1.000000 0.000000
vn 0.000000 -1.000000 0.000000
s off
usemtl aiStandardSurface11SG
f 5/5/5 6/6/6 8/7/7 7/95/8
f 7/8/9 8/94/10 10/9/11 9/10/12
f 9/10/13 10/9/14 12/11/15 11/12/16
f 6/6/17 12/11/18 10/9/19 8/7/20
f 11/96/21 5/5/22 7/95/23 9/93/24
f 13/19/25 14/20/26 16/21/27 15/22/28
f 15/22/29 16/21/30 18/23/31 17/24/32
f 17/24/33 18/23/34 20/25/35 19/26/36
f 19/26/37 20/25/38 14/27/39 13/28/40
f 15/22/41 17/99/42 19/100/43 13/19/44
f 21/29/45 22/30/46 24/31/47 23/32/48
f 23/32/49 24/31/50 26/33/51 25/34/52
f 25/34/53 26/33/54 28/35/55 27/36/56
f 27/36/57 28/35/58 22/37/59 21/38/60
f 23/32/61 25/97/62 27/98/63 21/29/64
f 29/39/65 30/40/66 32/41/67 31/42/68
f 31/42/69 32/41/70 34/43/71 33/44/72
f 33/44/73 34/43/74 36/45/75 35/46/76
f 35/46/77 36/45/78 30/47/79 29/48/80
f 37/49/81 38/50/82 40/51/83 39/52/84
f 39/52/85 40/51/86 42/53/87 41/54/88
f 41/54/89 42/53/90 44/55/91 43/56/92
f 43/56/93 44/55/94 38/57/95 37/58/96
s 1
f 60/59/97 45/60/98 46/75/99 59/86/100
f 48/90/101 47/80/102 53/78/103 54/66/104
s off
f 50/67/105 49/81/106 47/80/107 48/90/108
s 2
f 56/14/109 49/81/110 50/67/111 55/89/112
f 52/71/113 51/85/114 57/83/115 58/18/116
s off
f 46/75/117 45/60/118 51/85/119 52/71/120
f 51/72/121 45/84/122 47/64/123 49/68/124
s 2
f 57/91/115 51/72/114 49/68/110 56/79/109
f 52/76/113 58/87/116 55/16/112 50/77/111
s off
f 48/63/125 46/61/126 52/76/127 50/77/128
s 1
f 59/62/100 46/61/99 48/63/101 54/88/104
f 47/64/102 45/84/98 60/82/97 53/65/103
s off
f 57/73/129 56/13/130 53/65/131 60/82/132
f 58/74/133 57/92/134 60/59/135 59/86/136
f 55/70/137 58/17/138 59/62/139 54/88/140
f 56/69/141 55/15/142 54/66/143 53/78/144
v 0.086407 -0.544873 0.086407
v 0.086407 -0.544873 -2.913593
v 0.086407 0.227865 0.086407
v 0.086407 0.227865 -2.913593
v -0.086407 0.227865 0.086407
v -0.086407 0.227865 -2.913593
v -0.086407 -0.544873 0.086407
v -0.086407 -0.544873 -2.913593
vt 0.716438 0.367191
vt 0.980110 0.367191
vt 0.716436 0.435107
vt 0.980113 0.435107
vt 0.716440 0.450296
vt 0.980108 0.450296
vt 0.716438 0.518212
vt 0.980110 0.518212
vt 0.995299 0.367191
vt 0.995298 0.435107
vt 0.701249 0.367191
vt 0.701249 0.435107
vn 1.000000 0.000000 0.000000
vn 1.000000 0.000000 0.000000
vn 1.000000 0.000000 0.000000
vn 1.000000 0.000000 0.000000
vn 0.000000 1.000000 0.000000
vn 0.000000 1.000000 0.000000
vn 0.000000 1.000000 0.000000
vn 0.000000 1.000000 0.000000
vn -1.000000 0.000000 -0.000000
vn -1.000000 0.000000 -0.000000
vn -1.000000 0.000000 -0.000000
vn -1.000000 0.000000 -0.000000
vn 0.000000 0.000000 -1.000000
vn 0.000000 0.000000 -1.000000
vn 0.000000 0.000000 -1.000000
vn 0.000000 0.000000 -1.000000
vn -0.000000 0.000000 1.000000
vn -0.000000 0.000000 1.000000
vn -0.000000 0.000000 1.000000
vn -0.000000 0.000000 1.000000
s off
usemtl aiStandardSurface7SG
f 61/101/145 62/102/146 64/104/147 63/103/148
f 63/103/149 64/104/150 66/106/151 65/105/152
f 65/105/153 66/106/154 68/108/155 67/107/156
f 62/102/157 68/109/158 66/110/159 64/104/160
f 67/111/161 61/101/162 63/103/163 65/112/164
