# Blender v3.5.1 OBJ File: ''
# www.blender.org
mtllib fence_half.mtl
o Cube_Cube.001
v 0.143707 -0.500194 0.131713
v 0.143707 0.255751 0.131713
v -0.143707 -0.500194 0.131713
v -0.143707 0.255751 0.131713
v -0.143707 -0.500194 -3.030420
v -0.143707 -0.500194 -0.131774
v -0.143707 0.255751 -0.131774
v -0.143707 0.255751 -3.030420
v 0.143707 -0.500194 -0.131774
v 0.143707 -0.500194 -3.030420
v 0.143707 0.255751 -3.030420
v 0.143707 0.255751 -0.131774
v 0.143707 1.257604 0.131713
v -0.143707 1.257604 0.131713
v 0.143707 1.257604 -0.131774
v -0.143707 1.257604 -0.131774
v 0.172449 1.272213 0.158061
v -0.172449 1.272213 0.158061
v 0.172449 1.272213 -0.158123
v -0.172449 1.272213 -0.158123
v 0.172449 1.369314 0.158061
v -0.172449 1.369314 0.158061
v 0.172449 1.369314 -0.158123
v -0.172449 1.369314 -0.158123
v 0.137959 1.391227 0.126443
v -0.137959 1.391227 0.126443
v 0.137959 1.391227 -0.126505
v -0.137959 1.391227 -0.126505
v 0.000000 0.255751 -0.131774
v -0.000000 0.255751 -3.030420
v 0.000000 1.257604 -0.131774
v -0.000000 1.257604 -3.030420
vt 0.000102 0.003890
vt 0.000102 0.265712
vt -0.099444 0.265712
vt -0.099444 0.003890
vt -0.004031 0.003890
vt -0.004031 0.265712
vt -0.095290 0.265712
vt -0.095290 0.003890
vt 0.000102 0.265712
vt -0.099444 0.265712
vt -0.099444 0.612704
vt 0.000102 0.612704
vt 0.999916 0.365258
vt 0.000102 0.365258
vt 0.999916 0.265712
vt 0.999916 0.003890
vt -0.095290 0.003890
vt -0.095290 0.265712
vt -0.004031 0.265712
vt -0.004031 0.003890
vt 0.999916 0.265712
vt 0.999916 0.003890
vt 0.079740 0.529523
vt 0.079740 0.438265
vt 0.069785 0.429139
vt 0.069785 0.538649
vt 0.000102 0.612704
vt -0.099444 0.612704
vt -0.004031 0.612704
vt -0.095290 0.612704
vt -0.095290 0.612704
vt -0.004031 0.612704
vt 0.069785 0.483053
vt 0.189240 0.483053
vt 0.189240 0.516684
vt 0.069785 0.516684
vt 0.179286 0.438265
vt 0.189240 0.429139
vt 0.179286 0.529523
vt 0.189240 0.538649
vt 0.069785 0.538649
vt 0.069785 0.429139
vt 0.081730 0.440090
vt 0.081730 0.527698
vt 0.189240 0.483053
vt 0.069785 0.483053
vt 0.069785 0.516684
vt 0.189240 0.516684
vt 0.074768 0.483053
vt 0.184279 0.483053
vt 0.184279 0.516684
vt 0.074768 0.516684
vt 0.184279 0.483053
vt 0.074768 0.483053
vt 0.074768 0.516684
vt 0.184279 0.516684
vt 0.177295 0.440090
vt 0.177295 0.527698
vt 0.189240 0.429139
vt 0.189240 0.538649
vt 0.000000 0.654297
vt 1.000000 0.654297
vt 1.000000 1.000000
vt 0.000000 1.000000
vn 0.0000 0.0000 1.0000
vn 1.0000 0.0000 0.0000
vn 0.0000 0.0000 -1.0000
vn 0.0000 1.0000 0.0000
vn -1.0000 0.0000 0.0000
vn -0.4531 -0.8914 0.0000
vn 0.0000 -0.8746 0.4849
vn 0.0000 -0.8746 -0.4849
vn 0.4531 -0.8914 0.0000
vn -0.5363 0.8440 0.0000
vn 0.0000 0.8219 0.5696
vn 0.0000 0.8219 -0.5696
vn 0.5363 0.8440 0.0000
usemtl None
s off
f 1/1/1 2/2/1 4/3/1 3/4/1
f 9/5/2 12/6/2 2/7/2 1/8/2
f 12/9/3 7/10/3 16/11/3 15/12/3
f 8/13/4 7/14/4 12/9/4 11/15/4
f 10/16/2 11/15/2 12/6/2 9/5/2
f 3/17/5 4/18/5 7/19/5 6/20/5
f 6/20/5 7/19/5 8/21/5 5/22/5
f 16/23/6 14/24/6 18/25/6 20/26/6
f 4/3/1 2/2/1 13/27/1 14/28/1
f 2/7/2 12/6/2 15/29/2 13/30/2
f 7/19/5 4/18/5 14/31/5 16/32/5
f 18/33/1 17/34/1 21/35/1 22/36/1
f 14/24/7 13/37/7 17/38/7 18/25/7
f 15/39/8 16/23/8 20/26/8 19/40/8
f 13/37/9 15/39/9 19/40/9 17/38/9
f 24/41/10 22/42/10 26/43/10 28/44/10
f 19/45/3 20/46/3 24/47/3 23/48/3
f 17/49/2 19/50/2 23/51/2 21/52/2
f 20/53/5 18/54/5 22/55/5 24/56/5
f 28/44/4 26/43/4 25/57/4 27/58/4
f 22/42/11 21/59/11 25/57/11 26/43/11
f 23/60/12 24/41/12 28/44/12 27/58/12
f 21/59/13 23/60/13 27/58/13 25/57/13
f 29/61/2 30/62/2 32/63/2 31/64/2
