# Blender 4.2.0
# www.blender.org
mtllib dammuso.mtl
o Cube
v -1.767228 -1.000000 3.615163
v -3.615163 -1.000000 1.767228
v -2.691195 -1.000000 3.367587
v -3.367587 -1.000000 2.691195
v -1.000000 1.000000 0.488838
v -0.488838 1.000000 1.000000
v -0.931517 1.000000 0.744419
v -0.744419 1.000000 0.931517
v -3.615163 -1.000000 -1.767228
v -1.767228 -1.000000 -3.615163
v -3.367587 -1.000000 -2.691195
v -2.691195 -1.000000 -3.367587
v -0.488838 1.000000 -1.000000
v -1.000000 1.000000 -0.488838
v -0.744419 1.000000 -0.931517
v -0.931517 1.000000 -0.744419
v 3.615163 -1.000000 1.767228
v 1.767228 -1.000000 3.615163
v 3.367587 -1.000000 2.691195
v 2.691195 -1.000000 3.367587
v 0.488838 1.000000 1.000000
v 1.000000 1.000000 0.488838
v 0.744419 1.000000 0.931517
v 0.931517 1.000000 0.744419
v 1.767228 -1.000000 -3.615163
v 3.615163 -1.000000 -1.767228
v 2.691195 -1.000000 -3.367587
v 3.367587 -1.000000 -2.691195
v 1.000000 1.000000 -0.488838
v 0.488838 1.000000 -1.000000
v 0.931517 1.000000 -0.744419
v 0.744419 1.000000 -0.931517
v -1.570065 -0.500000 3.211833
v -3.211833 -0.500000 1.570065
v -2.390949 -0.500000 2.991878
v -2.991878 -0.500000 2.390949
v -1.380555 0.000000 2.824158
v -2.824158 0.000000 1.380555
v -2.102356 0.000000 2.630752
v -2.630752 0.000000 2.102356
v -2.237048 0.500000 1.093553
v -1.093553 0.500000 2.237048
v -2.083849 0.500000 1.665301
v -1.665301 0.500000 2.083849
v -1.093553 0.500000 -2.237048
v -2.237048 0.500000 -1.093553
v -1.665301 0.500000 -2.083849
v -2.083849 0.500000 -1.665301
v -1.380555 0.000000 -2.824158
v -2.824158 0.000000 -1.380555
v -2.102356 0.000000 -2.630752
v -2.630752 0.000000 -2.102356
v -3.211833 -0.500000 -1.570065
v -1.570065 -0.500000 -3.211833
v -2.991878 -0.500000 -2.390949
v -2.390949 -0.500000 -2.991878
v 2.237048 0.500000 -1.093553
v 1.093553 0.500000 -2.237048
v 2.083849 0.500000 -1.665301
v 1.665301 0.500000 -2.083849
v 2.824158 0.000000 -1.380555
v 1.380555 0.000000 -2.824158
v 2.630752 0.000000 -2.102356
v 2.102356 0.000000 -2.630752
v 1.570065 -0.500000 -3.211833
v 3.211833 -0.500000 -1.570065
v 2.390949 -0.500000 -2.991878
v 2.991879 -0.500000 -2.390949
v 1.093553 0.500000 2.237048
v 2.237048 0.500000 1.093553
v 1.665301 0.500000 2.083849
v 2.083849 0.500000 1.665301
v 1.380555 0.000000 2.824158
v 2.824158 0.000000 1.380555
v 2.102356 0.000000 2.630752
v 2.630752 0.000000 2.102356
v 3.211833 -0.500000 1.570065
v 1.570065 -0.500000 3.211833
v 2.991879 -0.500000 2.390949
v 2.390949 -0.500000 2.991878
v -0.488838 1.000000 1.000000
v -0.744419 1.000000 0.931517
v -0.931517 1.000000 0.744419
v -1.000000 1.000000 0.488838
v -0.744419 1.000000 -0.931517
v -0.488838 1.000000 -1.000000
v -0.931517 1.000000 -0.744419
v -1.000000 1.000000 -0.488838
v 0.931517 1.000000 -0.744419
v 1.000000 1.000000 -0.488838
v 0.744419 1.000000 -0.931517
v 0.488838 1.000000 -1.000000
v 0.744419 1.000000 0.931517
v 0.488838 1.000000 1.000000
v 0.931517 1.000000 0.744419
v 1.000000 1.000000 0.488838
v -0.296323 1.100000 0.606179
v -0.451251 1.100000 0.564666
v -0.564666 1.100000 0.451251
v -0.606179 1.100000 0.296323
v -0.451251 1.100000 -0.564666
v -0.296323 1.100000 -0.606179
v -0.564666 1.100000 -0.451251
v -0.606179 1.100000 -0.296323
v 0.564666 1.100000 -0.451251
v 0.606179 1.100000 -0.296323
v 0.451251 1.100000 -0.564666
v 0.296323 1.100000 -0.606179
v 0.451251 1.100000 0.564666
v 0.296323 1.100000 0.606179
v 0.564666 1.100000 0.451251
v 0.606179 1.100000 0.296323
vn -0.0000 1.0000 -0.0000
vn 0.7783 0.6279 -0.0000
vn -0.7903 0.6127 -0.0000
vn -0.3747 0.9271 -0.0000
vn -0.0000 0.6278 0.7783
vn -0.0000 0.6278 -0.7783
vn -0.0000 0.9271 0.3747
vn -0.6484 0.7613 -0.0000
vn -0.0000 0.7613 -0.6484
vn 0.3747 0.9271 -0.0000
vn 0.7903 0.6127 -0.0000
vn -0.0000 0.9271 -0.3747
vn 0.6484 0.7613 -0.0000
vn -0.0000 0.6127 -0.7903
vn -0.0000 -1.0000 -0.0000
vn -0.0000 0.6127 0.7903
vn -0.0000 0.7613 0.6484
vn -0.0898 0.9379 0.3352
vn -0.2283 0.9465 0.2283
vn -0.3352 0.9379 0.0898
vn -0.1942 0.6611 -0.7247
vn -0.5111 0.6910 -0.5111
vn -0.7247 0.6611 -0.1942
vn 0.7247 0.6611 -0.1942
vn 0.5111 0.6910 -0.5111
vn 0.1942 0.6611 -0.7247
vn 0.1942 0.6611 0.7247
vn 0.5111 0.6910 0.5111
vn 0.7247 0.6611 0.1942
vn -0.1942 0.6611 0.7247
vn -0.5111 0.6910 0.5111
vn -0.7247 0.6611 0.1942
vn -0.1975 0.6463 0.7371
vn -0.5207 0.6766 0.5207
vn -0.7371 0.6463 0.1975
vn -0.1591 0.7887 0.5939
vn -0.4126 0.8121 0.4126
vn -0.5939 0.7887 0.1591
vn -0.0898 0.9379 -0.3352
vn -0.2283 0.9465 -0.2283
vn -0.3352 0.9379 -0.0898
vn -0.1591 0.7887 -0.5939
vn -0.4126 0.8121 -0.4126
vn -0.5939 0.7887 -0.1591
vn -0.1975 0.6463 -0.7371
vn -0.5207 0.6766 -0.5207
vn -0.7371 0.6463 -0.1975
vn 0.3352 0.9379 -0.0898
vn 0.2283 0.9465 -0.2283
vn 0.0898 0.9379 -0.3352
vn 0.5939 0.7887 -0.1591
vn 0.4126 0.8121 -0.4126
vn 0.1591 0.7887 -0.5939
vn 0.7371 0.6463 -0.1975
vn 0.5207 0.6766 -0.5207
vn 0.1975 0.6463 -0.7371
vn 0.0898 0.9379 0.3352
vn 0.2283 0.9465 0.2283
vn 0.3352 0.9379 0.0898
vn 0.1591 0.7887 0.5939
vn 0.4126 0.8121 0.4126
vn 0.5939 0.7887 0.1591
vn 0.1975 0.6463 0.7371
vn 0.5207 0.6766 0.5207
vn 0.7371 0.6463 0.1975
vn -0.7783 0.6279 -0.0000
vn -0.0586 0.9740 0.2187
vn -0.0000 0.9692 -0.2461
vn 0.0586 0.9740 -0.2187
vn -0.1481 0.9778 0.1481
vn 0.0586 0.9740 0.2187
vn -0.2187 0.9740 0.0586
vn 0.1481 0.9778 0.1481
vn -0.0586 0.9740 -0.2187
vn 0.2187 0.9740 0.0586
vn -0.1481 0.9778 -0.1481
vn -0.0000 0.9692 0.2461
vn -0.2187 0.9740 -0.0586
vn -0.2461 0.9692 -0.0000
vn 0.2187 0.9740 -0.0586
vn 0.2461 0.9692 -0.0000
vn 0.1481 0.9778 -0.1481
vt 0.625000 0.781948
vt 0.625000 0.718052
vt 0.375000 0.563895
vt 0.437500 0.563895
vt 0.437500 0.686105
vt 0.375000 0.686105
vt 0.437500 0.063895
vt 0.500000 0.063895
vt 0.500000 0.186105
vt 0.437500 0.186105
vt 0.562500 0.063895
vt 0.625000 0.063895
vt 0.625000 0.186105
vt 0.562500 0.186105
vt 0.375000 0.813895
vt 0.437500 0.813895
vt 0.437500 0.936105
vt 0.375000 0.936105
vt 0.375000 0.313895
vt 0.437500 0.313895
vt 0.437500 0.436105
vt 0.375000 0.436105
vt 0.562500 0.813895
vt 0.625000 0.813895
vt 0.625000 0.936105
vt 0.562500 0.936105
vt 0.500000 0.313895
vt 0.562500 0.313895
vt 0.562500 0.436105
vt 0.500000 0.436105
vt 0.562500 0.563895
vt 0.625000 0.563895
vt 0.625000 0.686105
vt 0.562500 0.686105
vt 0.500000 0.563895
vt 0.500000 0.686105
vt 0.625000 0.313895
vt 0.625000 0.436105
vt 0.125000 0.563895
vt 0.133560 0.531948
vt 0.156948 0.508560
vt 0.188895 0.500000
vt 0.311105 0.500000
vt 0.343052 0.508560
vt 0.366440 0.531948
vt 0.366440 0.718052
vt 0.343052 0.741440
vt 0.311105 0.750000
vt 0.188895 0.750000
vt 0.156948 0.741440
vt 0.133560 0.718052
vt 0.125000 0.686105
vt 0.500000 0.813895
vt 0.500000 0.936105
vt 0.625000 1.000000
vt 0.562500 1.000000
vt 0.562500 0.000000
vt 0.625000 0.000000
vt 0.625000 0.031948
vt 0.562500 0.031948
vt 0.375000 0.281948
vt 0.437500 0.281948
vt 0.375000 0.218052
vt 0.437500 0.218052
vt 0.375000 0.186105
vt 0.375000 0.531948
vt 0.437500 0.531948
vt 0.375000 0.468052
vt 0.437500 0.468052
vt 0.375000 0.781948
vt 0.437500 0.781948
vt 0.375000 0.718052
vt 0.437500 0.718052
vt 0.437500 1.000000
vt 0.375000 1.000000
vt 0.375000 0.000000
vt 0.437500 0.000000
vt 0.437500 0.031948
vt 0.375000 0.031948
vt 0.375000 0.063895
vt 0.500000 1.000000
vt 0.500000 0.000000
vt 0.500000 0.031948
vt 0.562500 0.281948
vt 0.625000 0.281948
vt 0.562500 0.218052
vt 0.625000 0.218052
vt 0.500000 0.281948
vt 0.500000 0.218052
vt 0.562500 0.531948
vt 0.625000 0.531948
vt 0.562500 0.468052
vt 0.625000 0.468052
vt 0.500000 0.531948
vt 0.500000 0.468052
vt 0.562500 0.781948
vt 0.562500 0.718052
vt 0.500000 0.781948
vt 0.500000 0.718052
vt 0.633560 0.531948
vt 0.656948 0.508560
vt 0.688895 0.500000
vt 0.811105 0.500000
vt 0.843052 0.508560
vt 0.866440 0.531948
vt 0.875000 0.563895
vt 0.875000 0.686105
vt 0.866440 0.718052
vt 0.843052 0.741440
vt 0.811105 0.750000
vt 0.688895 0.750000
vt 0.656948 0.741440
vt 0.633560 0.718052
s 0
f 23/1/1 24/2/1 95/2/1 93/1/1
f 26/3/2 66/4/2 77/5/2 17/6/2
f 34/7/3 38/8/3 50/9/3 53/10/3
f 41/11/4 5/12/4 14/13/4 46/14/4
f 18/15/5 78/16/5 33/17/5 1/18/5
f 10/19/6 54/20/6 65/21/6 25/22/6
f 69/23/7 21/24/7 6/25/7 42/26/7
f 38/8/8 41/11/8 46/14/8 50/9/8
f 49/27/9 45/28/9 58/29/9 62/30/9
f 57/31/10 29/32/10 22/33/10 70/34/10
f 66/4/11 61/35/11 74/36/11 77/5/11
f 45/28/12 13/37/12 30/38/12 58/29/12
f 61/35/13 57/31/13 70/34/13 74/36/13
f 54/20/14 49/27/14 62/30/14 65/21/14
f 9/39/15 11/40/15 12/41/15 10/42/15 25/43/15 27/44/15 28/45/15 26/3/15 17/6/15 19/46/15 20/47/15 18/48/15 1/49/15 3/50/15 4/51/15 2/52/15
f 78/16/16 73/53/16 37/54/16 33/17/16
f 73/53/17 69/23/17 42/26/17 37/54/17
f 42/26/18 6/25/18 8/55/18 44/56/18
f 44/57/19 8/58/19 7/59/19 43/60/19
f 43/60/20 7/59/20 5/12/20 41/11/20
f 54/20/21 10/19/21 12/61/21 56/62/21
f 56/62/22 12/61/22 11/63/22 55/64/22
f 55/64/23 11/63/23 9/65/23 53/10/23
f 66/4/24 26/3/24 28/66/24 68/67/24
f 68/67/25 28/66/25 27/68/25 67/69/25
f 67/69/26 27/68/26 25/22/26 65/21/26
f 78/16/27 18/15/27 20/70/27 80/71/27
f 80/71/28 20/70/28 19/72/28 79/73/28
f 79/73/29 19/72/29 17/6/29 77/5/29
f 1/18/30 33/17/30 35/74/30 3/75/30
f 3/76/31 35/77/31 36/78/31 4/79/31
f 4/79/32 36/78/32 34/7/32 2/80/32
f 33/17/33 37/54/33 39/81/33 35/74/33
f 35/77/34 39/82/34 40/83/34 36/78/34
f 36/78/35 40/83/35 38/8/35 34/7/35
f 37/54/36 42/26/36 44/56/36 39/81/36
f 39/82/37 44/57/37 43/60/37 40/83/37
f 40/83/38 43/60/38 41/11/38 38/8/38
f 13/37/39 45/28/39 47/84/39 15/85/39
f 15/85/40 47/84/40 48/86/40 16/87/40
f 16/87/41 48/86/41 46/14/41 14/13/41
f 45/28/42 49/27/42 51/88/42 47/84/42
f 47/84/43 51/88/43 52/89/43 48/86/43
f 48/86/44 52/89/44 50/9/44 46/14/44
f 49/27/45 54/20/45 56/62/45 51/88/45
f 51/88/46 56/62/46 55/64/46 52/89/46
f 52/89/47 55/64/47 53/10/47 50/9/47
f 29/32/48 57/31/48 59/90/48 31/91/48
f 31/91/49 59/90/49 60/92/49 32/93/49
f 32/93/50 60/92/50 58/29/50 30/38/50
f 57/31/51 61/35/51 63/94/51 59/90/51
f 59/90/52 63/94/52 64/95/52 60/92/52
f 60/92/53 64/95/53 62/30/53 58/29/53
f 61/35/54 66/4/54 68/67/54 63/94/54
f 63/94/55 68/67/55 67/69/55 64/95/55
f 64/95/56 67/69/56 65/21/56 62/30/56
f 21/24/57 69/23/57 71/96/57 23/1/57
f 23/1/58 71/96/58 72/97/58 24/2/58
f 24/2/59 72/97/59 70/34/59 22/33/59
f 69/23/60 73/53/60 75/98/60 71/96/60
f 71/96/61 75/98/61 76/99/61 72/97/61
f 72/97/62 76/99/62 74/36/62 70/34/62
f 73/53/63 78/16/63 80/71/63 75/98/63
f 75/98/64 80/71/64 79/73/64 76/99/64
f 76/99/65 79/73/65 77/5/65 74/36/65
f 2/80/66 34/7/66 53/10/66 9/65/66
f 82/55/67 81/25/67 97/25/67 98/55/67
f 31/91/1 32/93/1 91/93/1 89/91/1
f 7/59/1 8/58/1 82/58/1 83/59/1
f 6/25/1 21/24/1 94/24/1 81/25/1
f 15/85/1 16/87/1 87/87/1 85/85/1
f 24/2/1 22/33/1 96/33/1 95/2/1
f 21/24/1 23/1/1 93/1/1 94/24/1
f 14/13/1 5/12/1 84/12/1 88/13/1
f 32/93/1 30/38/1 92/38/1 91/93/1
f 5/12/1 7/59/1 83/59/1 84/12/1
f 29/32/1 31/91/1 89/91/1 90/32/1
f 22/33/1 29/32/1 90/32/1 96/33/1
f 16/87/1 14/13/1 88/13/1 87/87/1
f 30/38/1 13/37/1 86/37/1 92/38/1
f 13/37/1 15/85/1 85/85/1 86/37/1
f 8/55/1 6/25/1 81/25/1 82/55/1
f 106/32/1 105/100/1 107/101/1 108/102/1 102/103/1 101/104/1 103/105/1 104/106/1 100/107/1 99/108/1 98/109/1 97/110/1 110/111/1 109/112/1 111/113/1 112/33/1
f 92/38/68 86/37/68 102/37/68 108/38/68
f 91/93/69 92/38/69 108/38/69 107/93/69
f 83/59/70 82/58/70 98/58/70 99/59/70
f 94/24/71 93/1/71 109/1/71 110/24/71
f 84/12/72 83/59/72 99/59/72 100/12/72
f 93/1/73 95/2/73 111/2/73 109/1/73
f 86/37/74 85/85/74 101/85/74 102/37/74
f 95/2/75 96/33/75 112/33/75 111/2/75
f 85/85/76 87/87/76 103/87/76 101/85/76
f 81/25/77 94/24/77 110/24/77 97/25/77
f 87/87/78 88/13/78 104/13/78 103/87/78
f 88/13/79 84/12/79 100/12/79 104/13/79
f 90/32/80 89/91/80 105/91/80 106/32/80
f 96/33/81 90/32/81 106/32/81 112/33/81
f 89/91/82 91/93/82 107/93/82 105/91/82
