# Blender 5.1.1
# www.blender.org
mtllib Residential_Door_2x3.mtl
o ResidentialDoor_2x3
v -1.000000 0.000000 0.000000
v 1.000000 0.000000 0.000000
v -1.000000 3.000000 -0.000000
v 1.000000 3.000000 -0.000000
v -0.586648 2.177423 -0.000000
v -0.586648 0.028020 -0.000000
v 0.586648 0.028020 -0.000000
v 0.586648 2.177423 -0.000000
v -0.534188 2.098733 0.042462
v -0.534188 0.106710 0.042461
v 0.534188 0.106710 0.042461
v 0.534188 2.098733 0.042462
v -0.586648 2.177423 0.042462
v -0.586648 0.028020 0.042461
v 0.586648 0.028020 0.042461
v 0.586648 2.177423 0.042462
v -0.534188 1.102721 0.042461
v 0.000000 0.106710 0.042461
v 0.534188 1.102721 0.042461
v 0.000000 2.098733 0.042462
v 0.000000 1.102721 0.042461
v 0.042515 1.156204 0.030576
v 0.491673 1.156204 0.030576
v 0.491673 2.045250 0.030576
v 0.042515 2.045250 0.030576
v -0.491673 1.156204 0.030576
v -0.042515 1.156204 0.030576
v -0.042515 2.045250 0.030576
v -0.491673 2.045250 0.030576
v -0.491673 0.160193 0.030576
v -0.042515 0.160193 0.030576
v -0.042515 1.049238 0.030576
v -0.491673 1.049238 0.030576
v 0.042515 0.160193 0.030576
v 0.491673 0.160193 0.030576
v 0.491673 1.049238 0.030576
v 0.042515 1.049238 0.030576
v 0.545834 1.119568 0.042462
v 0.545834 1.102721 0.042461
v 0.545834 1.085875 0.042461
v 0.575002 1.085875 0.042461
v 0.575002 1.119568 0.042462
v 0.545834 1.102721 0.058737
v 0.545834 1.119568 0.058737
v 0.575002 1.119568 0.058737
v 0.545834 1.085875 0.058737
v 0.575002 1.085875 0.058737
v 0.535966 1.102721 0.075303
v 0.535967 1.133815 0.075303
v 0.589803 1.133815 0.075303
v 0.535966 1.071627 0.075303
v 0.589803 1.071627 0.075303
vn -0.0000 -0.0000 1.0000
vn 1.0000 -0.0000 -0.0000
vn -1.0000 -0.0000 -0.0000
vn -0.0000 1.0000 -0.0000
vn -0.0000 -1.0000 -0.0000
vn -0.0000 0.2169 0.9762
vn -0.2692 -0.0000 0.9631
vn -0.0000 -0.2169 0.9762
vn 0.2692 -0.0000 0.9631
vn -0.0001 -0.0000 1.0000
vn -0.0000 -0.7582 -0.6521
vn -0.0000 0.7582 -0.6520
vn 0.7457 -0.0000 -0.6663
vn -0.8591 -0.0000 -0.5118
vt 0.140045 0.025735
vt 0.140045 0.725663
vt 0.005442 0.993526
vt 0.005442 0.016611
vt 0.005887 0.130259
vt 0.005887 0.500000
vt 0.000000 0.630259
vt 0.000000 0.000000
vt 0.522115 0.725663
vt 0.522115 0.025735
vt 0.656718 0.016611
vt 0.656718 0.993526
vt 0.669704 0.903121
vt 0.669704 0.451560
vt 0.679683 0.451560
vt 0.679683 0.903121
vt 0.828528 0.237016
vt 0.970070 0.237016
vt 0.970070 0.423793
vt 0.828528 0.423793
vt 0.643336 0.451560
vt 0.643336 0.903121
vt 0.630259 0.903121
vt 0.630259 0.451560
vt 0.643336 0.821301
vt 0.656520 0.451560
vt 0.656520 0.821301
vt 0.669704 0.821301
vt 0.646791 0.016532
vt 0.646791 0.225780
vt 0.646791 0.435029
vt 0.630260 0.451560
vt 0.630260 0.000000
vt 0.983468 0.016532
vt 0.815130 0.016532
vt 1.000000 0.000000
vt 0.815130 0.435029
vt 0.983468 0.435029
vt 1.000000 0.451560
vt 0.660189 0.237016
vt 0.801732 0.237016
vt 0.801732 0.423793
vt 0.660189 0.423793
vt 0.660189 0.027768
vt 0.801732 0.027768
vt 0.801732 0.214544
vt 0.660189 0.214544
vt 0.828528 0.027768
vt 0.970070 0.027768
vt 0.970070 0.214544
vt 0.828528 0.214544
vt 0.815130 0.225780
vt 0.983468 0.225780
vt 0.987138 0.225780
vt 0.987138 0.229319
vt 0.987138 0.222241
vt 0.996330 0.222241
vt 0.996330 0.229319
vt 0.034482 0.640331
vt 0.034482 0.633253
vt 0.038307 0.633253
vt 0.038307 0.640331
vt 0.018720 0.633369
vt 0.018720 0.642561
vt 0.013065 0.647225
vt 0.013065 0.630260
vt 0.056081 0.636792
vt 0.056081 0.640331
vt 0.051069 0.640331
vt 0.051069 0.636792
vt 0.056081 0.633253
vt 0.051069 0.633253
vt 0.023774 0.633369
vt 0.023774 0.642561
vt 0.034482 0.634924
vt 0.034482 0.644116
vt 0.029429 0.644116
vt 0.029429 0.634924
vt 0.006532 0.647225
vt 0.000000 0.647225
vt 0.000000 0.630260
vt 0.023774 0.647225
vt 0.023774 0.630260
vt 0.045308 0.630260
vt 0.045308 0.643324
vt 0.045308 0.636792
s 1
usemtl Wall_Default.001
f 6/1/1 5/2/1 3/3/1 1/4/1
f 7/5/1 6/6/1 1/7/1 2/8/1
f 8/9/1 7/10/1 2/11/1 4/12/1
f 5/2/1 8/9/1 4/12/1 3/3/1
usemtl Window_Frame
f 7/13/2 8/14/2 16/15/2 15/16/2
f 22/17/1 23/18/1 24/19/1 25/20/1
f 5/21/3 6/22/3 14/23/3 13/24/3
f 8/25/4 5/21/4 13/26/4 16/27/4
f 6/14/5 7/28/5 15/27/5 14/26/5
f 10/29/1 17/30/1 9/31/1 13/32/1 14/33/1
f 11/34/1 18/35/1 10/29/1 14/33/1 15/36/1
f 9/31/1 20/37/1 12/38/1 16/39/1 13/32/1
f 26/40/1 27/41/1 28/42/1 29/43/1
f 30/44/1 31/45/1 32/46/1 33/47/1
f 34/48/1 35/49/1 36/50/1 37/51/1
f 21/52/6 19/53/6 23/18/6 22/17/6
f 19/53/7 12/38/7 24/19/7 23/18/7
f 12/38/8 20/37/8 25/20/8 24/19/8
f 20/37/9 21/52/9 22/17/9 25/20/9
f 17/30/6 21/52/6 27/41/6 26/40/6
f 21/52/7 20/37/7 28/42/7 27/41/7
f 20/37/8 9/31/8 29/43/8 28/42/8
f 9/31/9 17/30/9 26/40/9 29/43/9
f 10/29/6 18/35/6 31/45/6 30/44/6
f 18/35/7 21/52/7 32/46/7 31/45/7
f 21/52/8 17/30/8 33/47/8 32/46/8
f 17/30/9 10/29/9 30/44/9 33/47/9
f 18/35/6 11/34/6 35/49/6 34/48/6
f 11/34/7 19/53/7 36/50/7 35/49/7
f 19/53/8 21/52/8 37/51/8 36/50/8
f 21/52/9 18/35/9 34/48/9 37/51/9
f 12/38/1 19/53/1 39/54/1 38/55/10
f 19/53/1 11/34/1 40/56/1 39/54/1
f 11/34/1 15/36/1 41/57/1 40/56/1
f 15/36/1 16/39/1 42/58/1 41/57/1
f 16/39/1 12/38/1 38/55/10 42/58/1
usemtl Window_Glass
f 41/59/2 42/60/2 45/61/2 47/62/2
f 46/63/11 47/64/11 52/65/11 51/66/11
f 39/67/3 40/68/3 46/69/3 43/70/3
f 38/71/3 39/67/3 43/70/3 44/72/3
f 40/73/5 41/74/5 47/64/5 46/63/5
f 42/75/4 38/76/4 44/77/4 45/78/4
f 49/65/1 48/79/1 51/80/1 52/81/1 50/66/1
f 45/78/12 44/77/12 49/82/12 50/83/12
f 47/62/13 45/61/13 50/84/13 52/85/13
f 43/70/14 46/69/14 51/85/14 48/86/14
f 44/72/14 43/70/14 48/86/14 49/84/14
