# Blender 4.0.2
# www.blender.org
mtllib argynnis paphia.mtl
o argynnis_paphia
v -0.001333 0.000612 0.013136
v 0.001333 0.000612 0.013136
v 0.000000 -0.001696 0.015059
v -0.001876 0.001083 -0.006819
v 0.001876 0.001083 -0.006819
v -0.000000 -0.002166 -0.004843
v -0.001155 0.000459 0.004973
v 0.000000 -0.001542 0.004973
v 0.001155 0.000459 0.004973
v -0.000000 0.000000 -0.002766
v 0.016653 0.001955 -0.018058
v 0.029448 0.003457 -0.021599
v 0.032617 0.003829 -0.015853
v 0.028946 0.003398 -0.006638
v 0.021979 0.002580 0.000316
v 0.000000 -0.000000 0.004618
v 0.014185 0.001665 0.021707
v 0.023804 0.002794 0.012478
v 0.024979 0.002932 -0.020966
v 0.020297 0.002383 0.017968
v 0.008326 0.000977 -0.012197
v 0.009062 0.001064 0.021177
v 0.032397 0.003803 -0.019312
v 0.030241 0.003550 -0.012411
v 0.025956 0.003047 -0.001595
v 0.024483 0.002874 0.006124
v 0.003773 0.000443 0.013492
v -0.016653 0.001955 -0.018058
v -0.029448 0.003457 -0.021599
v -0.032617 0.003829 -0.015853
v -0.028946 0.003398 -0.006638
v -0.021979 0.002580 0.000316
v -0.014185 0.001665 0.021707
v -0.023804 0.002794 0.012478
v -0.024979 0.002932 -0.020966
v -0.020297 0.002383 0.017968
v -0.008326 0.000977 -0.012197
v -0.009062 0.001064 0.021177
v -0.032397 0.003803 -0.019312
v -0.030241 0.003550 -0.012411
v -0.025956 0.003047 -0.001595
v -0.024483 0.002874 0.006124
v -0.003773 0.000443 0.013492
vn -0.0000 0.9998 -0.0188
vn -0.0000 0.9996 0.0273
vn 0.8644 -0.5028 -0.0084
vn 0.8681 -0.4962 0.0139
vn -0.8644 -0.5028 -0.0084
vn -0.8681 -0.4962 0.0139
vn -0.0000 0.6402 0.7682
vn -0.0000 -0.5194 -0.8545
vn -0.8704 -0.4916 0.0290
vn 0.8704 -0.4916 0.0290
vn -0.0000 0.9986 0.0529
vn -0.1166 0.9932 -0.0000
vn 0.1166 0.9932 -0.0000
vt 0.541707 0.152970
vt 0.585549 0.107032
vt 0.726708 0.245910
vt 0.688089 0.286971
vt 0.599436 0.029207
vt 0.763619 0.203732
vt 0.464689 0.170887
vt 0.647833 0.325966
vt 0.511260 0.080082
vt 0.981139 0.526674
vt 0.883898 0.495934
vt 0.945701 0.431178
vt 0.785069 0.515676
vt 0.960352 0.331431
vt 0.636707 0.462362
vt 0.484680 0.452735
vt 0.844270 0.682371
vt 0.765358 0.546604
vt 0.487614 0.346028
vt 0.412563 0.226311
vt 0.303178 0.135126
vt 0.255634 0.046178
vt 0.179112 0.013040
vt 0.097600 0.051582
vt 0.061879 0.154909
vt 0.032341 0.366357
vt 0.856961 0.855166
vt 0.066055 0.610148
vt 0.176240 0.893043
vt 0.566126 0.989762
vt 0.789107 0.959864
vt 0.334439 0.973939
vt 0.636629 0.461842
vt 0.765409 0.545887
vt 0.844528 0.681533
vt 0.484587 0.452448
vt 0.302600 0.135116
vt 0.412125 0.226134
vt 0.487359 0.345736
vt 0.096896 0.051887
vt 0.178348 0.013219
vt 0.254921 0.046241
vt 0.061332 0.155268
vt 0.032117 0.366760
vt 0.857484 0.854309
vt 0.176821 0.893226
vt 0.066204 0.610500
vt 0.566854 0.989350
vt 0.789789 0.959110
vt 0.335144 0.973880
s 1
usemtl initialShadingGroup
f 1/1/1 2/2/1 9/3/2 7/4/2
f 2/2/3 3/5/3 8/6/4 9/3/4
f 3/7/5 1/1/5 7/4/6 8/8/6
s 0
f 2/2/7 1/1/7 3/9/7
f 6/10/8 4/11/8 5/12/8
s 1
f 8/8/6 7/4/6 4/11/9 6/13/9
f 9/3/4 8/6/4 6/14/10 5/12/10
f 7/4/2 9/3/2 5/12/11 4/11/11
f 26/15/12 15/16/12 20/17/12 18/18/12
f 15/16/12 25/19/12 14/20/12 24/21/12
f 24/21/12 13/22/12 23/23/12 12/24/12
f 15/16/12 24/21/12 12/24/12 19/25/12
f 19/25/12 11/26/12 15/16/12
f 15/16/12 17/27/12 20/17/12
f 11/26/12 21/28/12 10/29/12 15/16/12
f 27/30/12 22/31/12 17/27/12 15/16/12
f 10/29/12 16/32/12 27/30/12 15/16/12
f 42/33/13 34/34/13 36/35/13 32/36/13
f 32/36/13 40/37/13 31/38/13 41/39/13
f 40/37/13 29/40/13 39/41/13 30/42/13
f 32/36/13 35/43/13 29/40/13 40/37/13
f 35/43/13 32/36/13 28/44/13
f 32/36/13 36/35/13 33/45/13
f 28/44/13 32/36/13 10/46/13 37/47/13
f 43/48/13 32/36/13 33/45/13 38/49/13
f 10/46/13 32/36/13 43/48/13 16/50/13
